<svg width="174" height="203" viewBox="0 0 174 203" fill="none" xmlns="http://www.w3.org/2000/svg">
<path d="M39 165L0 140V165H39Z" fill="white"/>
<rect y="165" width="54" height="38" fill="white"/>
<path d="M19.3372 186.865C19.2159 187.014 19.0432 187.163 18.8192 187.313C18.5952 187.462 18.3292 187.597 18.0212 187.719C17.7226 187.84 17.3819 187.938 16.9992 188.013C16.6259 188.097 16.2246 188.139 15.7952 188.139C15.0112 188.139 14.3019 188.022 13.6672 187.789C13.0419 187.546 12.5099 187.21 12.0712 186.781C11.6326 186.342 11.2919 185.81 11.0492 185.185C10.8159 184.559 10.6992 183.859 10.6992 183.085C10.6992 182.357 10.8159 181.689 11.0492 181.083C11.2826 180.467 11.6186 179.935 12.0572 179.487C12.5052 179.039 13.0419 178.689 13.6672 178.437C14.3019 178.185 15.0206 178.059 15.8232 178.059C16.2246 178.059 16.5979 178.091 16.9432 178.157C17.2886 178.213 17.5966 178.292 17.8672 178.395C18.1472 178.488 18.3899 178.595 18.5952 178.717C18.8006 178.829 18.9592 178.941 19.0712 179.053V181.027C18.9312 180.793 18.7539 180.569 18.5392 180.355C18.3246 180.131 18.0772 179.935 17.7972 179.767C17.5172 179.589 17.2092 179.449 16.8732 179.347C16.5372 179.235 16.1872 179.179 15.8232 179.179C15.2352 179.179 14.7032 179.272 14.2272 179.459C13.7606 179.645 13.3639 179.911 13.0372 180.257C12.7106 180.602 12.4586 181.017 12.2812 181.503C12.1039 181.979 12.0152 182.511 12.0152 183.099C12.0152 183.649 12.0946 184.163 12.2532 184.639C12.4119 185.105 12.6452 185.516 12.9532 185.871C13.2706 186.216 13.6626 186.491 14.1292 186.697C14.5959 186.902 15.1326 187.009 15.7392 187.019C16.1872 187.019 16.5979 186.967 16.9712 186.865C17.3539 186.753 17.6946 186.608 17.9932 186.431C18.3012 186.244 18.5672 186.034 18.7912 185.801C19.0152 185.558 19.1972 185.306 19.3372 185.045V186.865Z" fill="#404040"/>
<path d="M20.2806 184.471C20.2806 183.864 20.3692 183.337 20.5466 182.889C20.7239 182.431 20.9666 182.053 21.2746 181.755C21.5826 181.456 21.9466 181.232 22.3666 181.083C22.7866 180.933 23.2439 180.859 23.7386 180.859C24.8399 180.868 25.6939 181.176 26.3006 181.783C26.9072 182.389 27.2106 183.304 27.2106 184.527C27.2106 185.133 27.1219 185.665 26.9446 186.123C26.7672 186.571 26.5246 186.944 26.2166 187.243C25.9086 187.541 25.5446 187.765 25.1246 187.915C24.7046 188.064 24.2472 188.139 23.7526 188.139C22.6419 188.129 21.7832 187.826 21.1766 187.229C20.5792 186.622 20.2806 185.703 20.2806 184.471ZM21.4566 184.513C21.4566 185.418 21.6526 186.081 22.0446 186.501C22.4366 186.921 23.0059 187.131 23.7526 187.131C24.4899 187.131 25.0546 186.916 25.4466 186.487C25.8386 186.048 26.0346 185.395 26.0346 184.527V184.485C26.0346 183.589 25.8339 182.931 25.4326 182.511C25.0406 182.091 24.4759 181.876 23.7386 181.867C23.0012 181.867 22.4366 182.086 22.0446 182.525C21.6526 182.954 21.4566 183.603 21.4566 184.471V184.513Z" fill="#404040"/>
<path d="M33.176 185.423C32.9333 185.553 32.644 185.651 32.308 185.717C31.9813 185.782 31.664 185.815 31.356 185.815C30.46 185.815 29.7693 185.623 29.284 185.241C28.808 184.849 28.57 184.228 28.57 183.379V180.999H29.732V183.253C29.732 184.261 30.3013 184.765 31.44 184.765C31.748 184.765 32.0513 184.737 32.35 184.681C32.658 184.615 32.9333 184.531 33.176 184.429V180.999H34.338V187.999H33.176V185.423Z" fill="#404040"/>
<path d="M36.5763 187.999V180.999H37.7383V186.207L41.6863 180.999H42.7083V187.999H41.5463V182.749L37.6122 187.999H36.5763Z" fill="#404040"/>
<path d="M135 25L96 0V25H135Z" fill="white"/>
<rect x="96" y="25" width="78" height="38" fill="white"/>
<path d="M114.61 39.3192H108.66V47.9992H107.4V38.1992H115.87V47.9992H114.61V39.3192Z" fill="#404040"/>
<path d="M117.476 40.9992H118.82L121.088 46.4592L122.978 40.9992H124.224L121.354 48.7412C121.214 49.1146 121.069 49.4226 120.92 49.6652C120.78 49.9079 120.626 50.0992 120.458 50.2392C120.299 50.3792 120.127 50.4772 119.94 50.5332C119.763 50.5892 119.571 50.6172 119.366 50.6172C119.142 50.6172 118.923 50.5892 118.708 50.5332C118.503 50.4772 118.349 50.4026 118.246 50.3092V49.1052C118.349 49.2079 118.489 49.3012 118.666 49.3852C118.853 49.4692 119.039 49.5112 119.226 49.5112C119.338 49.5112 119.445 49.4926 119.548 49.4552C119.66 49.4272 119.767 49.3619 119.87 49.2592C119.982 49.1566 120.089 49.0072 120.192 48.8112C120.295 48.6152 120.393 48.3539 120.486 48.0272L117.476 40.9992Z" fill="#404040"/>
<path d="M129.841 42.0352H127.125L127.111 42.5672C127.083 43.4352 127.031 44.1772 126.957 44.7932C126.882 45.3999 126.789 45.9086 126.677 46.3192C126.565 46.7299 126.439 47.0519 126.299 47.2852C126.159 47.5186 126.009 47.6959 125.851 47.8172C125.692 47.9292 125.529 47.9992 125.361 48.0272C125.193 48.0646 125.025 48.0832 124.857 48.0832C124.642 48.0832 124.455 48.0599 124.297 48.0132V46.7672C124.418 46.7952 124.535 46.8092 124.647 46.8092C124.768 46.8092 124.88 46.7999 124.983 46.7812C125.095 46.7532 125.197 46.6879 125.291 46.5852C125.393 46.4826 125.482 46.3332 125.557 46.1372C125.641 45.9319 125.715 45.6519 125.781 45.2972C125.846 44.9332 125.897 44.4806 125.935 43.9392C125.981 43.3979 126.019 42.7399 126.047 41.9652L126.075 40.9992H131.003V47.9992H129.841V42.0352Z" fill="#404040"/>
<path d="M133.247 40.9992H134.409V43.9252H135.669L137.867 40.9992H139.197L136.635 44.3032L139.659 47.9992H138.189L135.669 44.9192H134.409V47.9992H133.247V40.9992Z" fill="#404040"/>
<path d="M140.317 44.4712C140.317 43.8646 140.406 43.3372 140.583 42.8892C140.76 42.4319 141.003 42.0539 141.311 41.7552C141.619 41.4566 141.983 41.2326 142.403 41.0832C142.823 40.9339 143.28 40.8592 143.775 40.8592C144.876 40.8686 145.73 41.1766 146.337 41.7832C146.944 42.3899 147.247 43.3046 147.247 44.5272C147.247 45.1339 147.158 45.6659 146.981 46.1232C146.804 46.5712 146.561 46.9446 146.253 47.2432C145.945 47.5419 145.581 47.7659 145.161 47.9152C144.741 48.0646 144.284 48.1392 143.789 48.1392C142.678 48.1299 141.82 47.8266 141.213 47.2292C140.616 46.6226 140.317 45.7032 140.317 44.4712ZM141.493 44.5132C141.493 45.4186 141.689 46.0812 142.081 46.5012C142.473 46.9212 143.042 47.1312 143.789 47.1312C144.526 47.1312 145.091 46.9166 145.483 46.4872C145.875 46.0486 146.071 45.3952 146.071 44.5272V44.4852C146.071 43.5892 145.87 42.9312 145.469 42.5112C145.077 42.0912 144.512 41.8766 143.775 41.8672C143.038 41.8672 142.473 42.0866 142.081 42.5252C141.689 42.9546 141.493 43.6032 141.493 44.4712V44.5132Z" fill="#404040"/>
<path d="M148.956 40.9992H152.078C152.965 40.9992 153.581 41.1392 153.926 41.4192C154.281 41.6899 154.458 42.0772 154.458 42.5812C154.458 43.0292 154.351 43.3932 154.136 43.6732C153.931 43.9439 153.637 44.1259 153.254 44.2192C153.478 44.2472 153.684 44.2939 153.87 44.3592C154.066 44.4246 154.23 44.5226 154.36 44.6532C154.5 44.7839 154.608 44.9519 154.682 45.1572C154.766 45.3626 154.808 45.6192 154.808 45.9272C154.808 46.6272 154.584 47.1499 154.136 47.4952C153.688 47.8312 152.984 47.9992 152.022 47.9992H148.956V40.9992ZM152.008 46.9912C152.587 46.9912 153.002 46.9072 153.254 46.7392C153.516 46.5619 153.646 46.2959 153.646 45.9412C153.646 45.5212 153.52 45.2412 153.268 45.1012C153.016 44.9519 152.666 44.8772 152.218 44.8772H150.118V46.9912H152.008ZM151.84 43.8832C152.279 43.8832 152.629 43.8086 152.89 43.6592C153.152 43.5099 153.282 43.2392 153.282 42.8472C153.282 42.5019 153.17 42.2779 152.946 42.1752C152.722 42.0632 152.386 42.0072 151.938 42.0072L150.118 42.0212V43.8832H151.84Z" fill="#404040"/>
<path d="M156.026 44.4712C156.026 43.8646 156.115 43.3372 156.292 42.8892C156.469 42.4319 156.712 42.0539 157.02 41.7552C157.328 41.4566 157.692 41.2326 158.112 41.0832C158.532 40.9339 158.989 40.8592 159.484 40.8592C160.585 40.8686 161.439 41.1766 162.046 41.7832C162.653 42.3899 162.956 43.3046 162.956 44.5272C162.956 45.1339 162.867 45.6659 162.69 46.1232C162.513 46.5712 162.27 46.9446 161.962 47.2432C161.654 47.5419 161.29 47.7659 160.87 47.9152C160.45 48.0646 159.993 48.1392 159.498 48.1392C158.387 48.1299 157.529 47.8266 156.922 47.2292C156.325 46.6226 156.026 45.7032 156.026 44.4712ZM157.202 44.5132C157.202 45.4186 157.398 46.0812 157.79 46.5012C158.182 46.9212 158.751 47.1312 159.498 47.1312C160.235 47.1312 160.8 46.9166 161.192 46.4872C161.584 46.0486 161.78 45.3952 161.78 44.5272V44.4852C161.78 43.5892 161.579 42.9312 161.178 42.5112C160.786 42.0912 160.221 41.8766 159.484 41.8672C158.747 41.8672 158.182 42.0866 157.79 42.5252C157.398 42.9546 157.202 43.6032 157.202 44.4712V44.5132Z" fill="#404040"/>
</svg>
