<svg width="128" height="135" viewBox="0 0 128 135" fill="none" xmlns="http://www.w3.org/2000/svg">
<g filter="url(#filter0_d)">
<path d="M42 81.9961L19 66.9961V81.9961H42Z" fill="white"/>
<rect x="19" y="81.9961" width="35" height="23" fill="white"/>
<path d="M30.67 96.1884C30.5833 96.2951 30.46 96.4018 30.3 96.5084C30.14 96.6151 29.95 96.7118 29.73 96.7984C29.5167 96.8851 29.2733 96.9551 29 97.0084C28.7333 97.0684 28.4467 97.0984 28.14 97.0984C27.58 97.0984 27.0733 97.0151 26.62 96.8484C26.1733 96.6751 25.7933 96.4351 25.48 96.1284C25.1667 95.8151 24.9233 95.4351 24.75 94.9884C24.5833 94.5418 24.5 94.0418 24.5 93.4884C24.5 92.9684 24.5833 92.4918 24.75 92.0584C24.9167 91.6184 25.1567 91.2384 25.47 90.9184C25.79 90.5984 26.1733 90.3484 26.62 90.1684C27.0733 89.9884 27.5867 89.8984 28.16 89.8984C28.4467 89.8984 28.7133 89.9218 28.96 89.9684C29.2067 90.0084 29.4267 90.0651 29.62 90.1384C29.82 90.2051 29.9933 90.2818 30.14 90.3684C30.2867 90.4484 30.4 90.5284 30.48 90.6084V92.0184C30.38 91.8518 30.2533 91.6918 30.1 91.5384C29.9467 91.3784 29.77 91.2384 29.57 91.1184C29.37 90.9918 29.15 90.8918 28.91 90.8184C28.67 90.7384 28.42 90.6984 28.16 90.6984C27.74 90.6984 27.36 90.7651 27.02 90.8984C26.6867 91.0318 26.4033 91.2218 26.17 91.4684C25.9367 91.7151 25.7567 92.0118 25.63 92.3584C25.5033 92.6984 25.44 93.0784 25.44 93.4984C25.44 93.8918 25.4967 94.2584 25.61 94.5984C25.7233 94.9318 25.89 95.2251 26.11 95.4784C26.3367 95.7251 26.6167 95.9218 26.95 96.0684C27.2833 96.2151 27.6667 96.2918 28.1 96.2984C28.42 96.2984 28.7133 96.2618 28.98 96.1884C29.2533 96.1084 29.4967 96.0051 29.71 95.8784C29.93 95.7451 30.12 95.5951 30.28 95.4284C30.44 95.2551 30.57 95.0751 30.67 94.8884V96.1884Z" fill="#404040"/>
<path d="M31.3438 94.4784C31.3438 94.0451 31.4072 93.6684 31.5338 93.3484C31.6605 93.0218 31.8338 92.7518 32.0538 92.5384C32.2738 92.3251 32.5338 92.1651 32.8338 92.0584C33.1338 91.9518 33.4605 91.8984 33.8138 91.8984C34.6005 91.9051 35.2105 92.1251 35.6438 92.5584C36.0772 92.9918 36.2938 93.6451 36.2938 94.5184C36.2938 94.9518 36.2305 95.3318 36.1038 95.6584C35.9772 95.9784 35.8038 96.2451 35.5838 96.4584C35.3638 96.6718 35.1038 96.8318 34.8038 96.9384C34.5038 97.0451 34.1772 97.0984 33.8238 97.0984C33.0305 97.0918 32.4172 96.8751 31.9838 96.4484C31.5572 96.0151 31.3438 95.3584 31.3438 94.4784ZM32.1838 94.5084C32.1838 95.1551 32.3238 95.6284 32.6038 95.9284C32.8838 96.2284 33.2905 96.3784 33.8238 96.3784C34.3505 96.3784 34.7538 96.2251 35.0338 95.9184C35.3138 95.6051 35.4538 95.1384 35.4538 94.5184V94.4884C35.4538 93.8484 35.3105 93.3784 35.0238 93.0784C34.7438 92.7784 34.3405 92.6251 33.8138 92.6184C33.2872 92.6184 32.8838 92.7751 32.6038 93.0884C32.3238 93.3951 32.1838 93.8584 32.1838 94.4784V94.5084Z" fill="#404040"/>
<path d="M40.5548 95.1584C40.3815 95.2518 40.1748 95.3218 39.9348 95.3684C39.7015 95.4151 39.4748 95.4384 39.2548 95.4384C38.6148 95.4384 38.1215 95.3018 37.7748 95.0284C37.4348 94.7484 37.2648 94.3051 37.2648 93.6984V91.9984H38.0948V93.6084C38.0948 94.3284 38.5015 94.6884 39.3148 94.6884C39.5348 94.6884 39.7515 94.6684 39.9648 94.6284C40.1848 94.5818 40.3815 94.5218 40.5548 94.4484V91.9984H41.3848V96.9984H40.5548V95.1584Z" fill="#404040"/>
<path d="M42.9836 96.9984V91.9984H43.8136V95.7184L46.6336 91.9984H47.3636V96.9984H46.5336V93.2484L43.7236 96.9984H42.9836Z" fill="#404040"/>
</g>
<g filter="url(#filter1_d)">
<path d="M79 25.9961L56 10.9961V25.9961H79Z" fill="white"/>
<rect x="56" y="25.9961" width="52" height="23" fill="white"/>
<path d="M67.15 34.8H62.9V41H62V34H68.05V41H67.15V34.8Z" fill="#404040"/>
<path d="M69.1969 36H70.1569L71.7769 39.9L73.1269 36H74.0169L71.9669 41.53C71.8669 41.7967 71.7635 42.0167 71.6569 42.19C71.5569 42.3633 71.4469 42.5 71.3269 42.6C71.2135 42.7 71.0902 42.77 70.9569 42.81C70.8302 42.85 70.6935 42.87 70.5469 42.87C70.3869 42.87 70.2302 42.85 70.0769 42.81C69.9302 42.77 69.8202 42.7167 69.7469 42.65V41.79C69.8202 41.8633 69.9202 41.93 70.0469 41.99C70.1802 42.05 70.3135 42.08 70.4469 42.08C70.5269 42.08 70.6035 42.0667 70.6769 42.04C70.7569 42.02 70.8335 41.9733 70.9069 41.9C70.9869 41.8267 71.0635 41.72 71.1369 41.58C71.2102 41.44 71.2802 41.2533 71.3469 41.02L69.1969 36Z" fill="#404040"/>
<path d="M78.0287 36.74H76.0887L76.0787 37.12C76.0587 37.74 76.0221 38.27 75.9688 38.71C75.9154 39.1433 75.8488 39.5067 75.7688 39.8C75.6888 40.0933 75.5987 40.3233 75.4987 40.49C75.3987 40.6567 75.2921 40.7833 75.1788 40.87C75.0654 40.95 74.9487 41 74.8287 41.02C74.7087 41.0467 74.5888 41.06 74.4688 41.06C74.3154 41.06 74.1821 41.0433 74.0688 41.01V40.12C74.1554 40.14 74.2388 40.15 74.3188 40.15C74.4054 40.15 74.4854 40.1433 74.5588 40.13C74.6388 40.11 74.7121 40.0633 74.7788 39.99C74.8521 39.9167 74.9154 39.81 74.9688 39.67C75.0288 39.5233 75.0821 39.3233 75.1287 39.07C75.1754 38.81 75.2121 38.4867 75.2388 38.1C75.2721 37.7133 75.2988 37.2433 75.3188 36.69L75.3387 36H78.8587V41H78.0287V36.74Z" fill="#404040"/>
<path d="M80.4621 36H81.2921V38.09H82.1921L83.7621 36H84.7121L82.8821 38.36L85.0421 41H83.9921L82.1921 38.8H81.2921V41H80.4621V36Z" fill="#404040"/>
<path d="M85.5118 38.48C85.5118 38.0467 85.5751 37.67 85.7018 37.35C85.8285 37.0233 86.0018 36.7533 86.2218 36.54C86.4418 36.3267 86.7018 36.1667 87.0018 36.06C87.3018 35.9533 87.6285 35.9 87.9818 35.9C88.7685 35.9067 89.3785 36.1267 89.8118 36.56C90.2451 36.9933 90.4618 37.6467 90.4618 38.52C90.4618 38.9533 90.3985 39.3333 90.2718 39.66C90.1451 39.98 89.9718 40.2467 89.7518 40.46C89.5318 40.6733 89.2718 40.8333 88.9718 40.94C88.6718 41.0467 88.3451 41.1 87.9918 41.1C87.1985 41.0933 86.5851 40.8767 86.1518 40.45C85.7251 40.0167 85.5118 39.36 85.5118 38.48ZM86.3518 38.51C86.3518 39.1567 86.4918 39.63 86.7718 39.93C87.0518 40.23 87.4585 40.38 87.9918 40.38C88.5185 40.38 88.9218 40.2267 89.2018 39.92C89.4818 39.6067 89.6218 39.14 89.6218 38.52V38.49C89.6218 37.85 89.4785 37.38 89.1918 37.08C88.9118 36.78 88.5085 36.6267 87.9818 36.62C87.4551 36.62 87.0518 36.7767 86.7718 37.09C86.4918 37.3967 86.3518 37.86 86.3518 38.48V38.51Z" fill="#404040"/>
<path d="M91.6828 36H93.9128C94.5461 36 94.9861 36.1 95.2328 36.3C95.4861 36.4933 95.6128 36.77 95.6128 37.13C95.6128 37.45 95.5361 37.71 95.3828 37.91C95.2361 38.1033 95.0261 38.2333 94.7528 38.3C94.9128 38.32 95.0595 38.3533 95.1928 38.4C95.3328 38.4467 95.4495 38.5167 95.5428 38.61C95.6428 38.7033 95.7195 38.8233 95.7728 38.97C95.8328 39.1167 95.8628 39.3 95.8628 39.52C95.8628 40.02 95.7028 40.3933 95.3828 40.64C95.0628 40.88 94.5595 41 93.8728 41H91.6828V36ZM93.8628 40.28C94.2761 40.28 94.5728 40.22 94.7528 40.1C94.9395 39.9733 95.0328 39.7833 95.0328 39.53C95.0328 39.23 94.9428 39.03 94.7628 38.93C94.5828 38.8233 94.3328 38.77 94.0128 38.77H92.5128V40.28H93.8628ZM93.7428 38.06C94.0561 38.06 94.3061 38.0067 94.4928 37.9C94.6795 37.7933 94.7728 37.6 94.7728 37.32C94.7728 37.0733 94.6928 36.9133 94.5328 36.84C94.3728 36.76 94.1328 36.72 93.8128 36.72L92.5128 36.73V38.06H93.7428Z" fill="#404040"/>
<path d="M96.7325 38.48C96.7325 38.0467 96.7958 37.67 96.9225 37.35C97.0492 37.0233 97.2225 36.7533 97.4425 36.54C97.6625 36.3267 97.9225 36.1667 98.2225 36.06C98.5225 35.9533 98.8492 35.9 99.2025 35.9C99.9892 35.9067 100.599 36.1267 101.033 36.56C101.466 36.9933 101.682 37.6467 101.682 38.52C101.682 38.9533 101.619 39.3333 101.493 39.66C101.366 39.98 101.192 40.2467 100.972 40.46C100.752 40.6733 100.493 40.8333 100.193 40.94C99.8925 41.0467 99.5658 41.1 99.2125 41.1C98.4192 41.0933 97.8058 40.8767 97.3725 40.45C96.9458 40.0167 96.7325 39.36 96.7325 38.48ZM97.5725 38.51C97.5725 39.1567 97.7125 39.63 97.9925 39.93C98.2725 40.23 98.6792 40.38 99.2125 40.38C99.7392 40.38 100.143 40.2267 100.423 39.92C100.703 39.6067 100.842 39.14 100.842 38.52V38.49C100.842 37.85 100.699 37.38 100.412 37.08C100.132 36.78 99.7292 36.6267 99.2025 36.62C98.6758 36.62 98.2725 36.7767 97.9925 37.09C97.7125 37.3967 97.5725 37.86 97.5725 38.48V38.51Z" fill="#404040"/>
</g>
<defs>
<filter id="filter0_d" x="-1" y="56.9961" width="75" height="78" filterUnits="userSpaceOnUse" color-interpolation-filters="sRGB">
<feFlood flood-opacity="0" result="BackgroundImageFix"/>
<feColorMatrix in="SourceAlpha" type="matrix" values="0 0 0 0 0 0 0 0 0 0 0 0 0 0 0 0 0 0 127 0"/>
<feOffset dy="10"/>
<feGaussianBlur stdDeviation="10"/>
<feColorMatrix type="matrix" values="0 0 0 0 0 0 0 0 0 0 0 0 0 0 0 0 0 0 0.15 0"/>
<feBlend mode="normal" in2="BackgroundImageFix" result="effect1_dropShadow"/>
<feBlend mode="normal" in="SourceGraphic" in2="effect1_dropShadow" result="shape"/>
</filter>
<filter id="filter1_d" x="36" y="0.996094" width="92" height="78" filterUnits="userSpaceOnUse" color-interpolation-filters="sRGB">
<feFlood flood-opacity="0" result="BackgroundImageFix"/>
<feColorMatrix in="SourceAlpha" type="matrix" values="0 0 0 0 0 0 0 0 0 0 0 0 0 0 0 0 0 0 127 0"/>
<feOffset dy="10"/>
<feGaussianBlur stdDeviation="10"/>
<feColorMatrix type="matrix" values="0 0 0 0 0 0 0 0 0 0 0 0 0 0 0 0 0 0 0.15 0"/>
<feBlend mode="normal" in2="BackgroundImageFix" result="effect1_dropShadow"/>
<feBlend mode="normal" in="SourceGraphic" in2="effect1_dropShadow" result="shape"/>
</filter>
</defs>
</svg>
