<svg width="99" height="35" viewBox="0 0 99 35" fill="none" xmlns="http://www.w3.org/2000/svg">
<path d="M0.833984 12.0969H8.35968C8.55246 12.0969 8.74422 12.0688 8.92888 12.0134L12.5586 10.9244L16.2757 9.60547C16.4884 9.52999 16.7124 9.49143 16.9381 9.49143H19.5147C19.9058 9.49143 20.2881 9.37567 20.6135 9.15874L21.8575 8.32941C21.9977 8.23598 22.1492 8.1608 22.3083 8.1057L24.7317 7.26685C25.1976 7.10559 25.7068 7.12384 26.16 7.31804L28.1915 8.18869L29.0112 8.6441C29.883 9.12844 30.2588 10.1854 29.8884 11.1114L29.7814 11.3788C29.5967 11.8406 29.5925 12.3549 29.7695 12.8197L30.0504 13.557C30.343 14.3251 31.0796 14.8326 31.9015 14.8326H33.663H36.5806C36.9717 14.8326 37.354 14.7169 37.6794 14.5L39.5253 13.2694L43.9045 11.1389C44.1941 10.9981 44.4449 10.7887 44.6353 10.5291L46.3238 8.22656C46.8487 7.5108 47.7857 7.23157 48.6168 7.54323L50.2023 8.13779C50.2926 8.17168 50.3804 8.21212 50.4649 8.2588L55.2884 10.9244M55.2884 10.9244L60.7965 13.1277C61.0305 13.2213 61.2802 13.2694 61.5322 13.2694H67.9944C68.5327 13.2694 69.0478 13.4885 69.4212 13.8762L72.224 16.7868L74.8295 20.3041M55.2884 10.9244L54.5539 14.2296C54.5226 14.3706 54.5068 14.5147 54.5068 14.6593V17.8289M55.2884 10.9244L56.3365 9.23133C56.732 8.59249 56.732 7.78489 56.3365 7.14605L55.4017 5.63592C55.3264 5.51429 55.2645 5.38487 55.2171 5.24991L53.5948 0.632812M74.8295 20.3041L76.9642 21.0705C78.2489 21.5316 79.5403 20.4021 79.2543 19.0675V19.0675C78.9257 17.5338 80.6339 16.382 81.9325 17.2617L86.4238 20.3041M74.8295 20.3041V23.5681C74.8295 24.0661 75.017 24.5458 75.3548 24.9117L75.8674 25.4671C76.2052 25.833 76.3927 26.3127 76.3927 26.8107V28.2213C76.3927 28.4985 76.3346 28.7725 76.222 29.0258L74.8295 32.1591M86.4238 20.3041L92.3967 21.8819C92.9458 22.0269 93.3283 22.5236 93.3283 23.0915V23.0915C93.3283 23.7825 93.8885 24.3426 94.5794 24.3426H95.543M86.4238 20.3041V25.6011C86.4238 25.8877 86.3616 26.171 86.2415 26.4312L85.3932 28.2692C85.0686 28.9724 85.1837 29.8003 85.6878 30.3884L85.9469 30.6908C86.2547 31.0498 86.4238 31.5071 86.4238 31.9799V34.6343" stroke="#2F87CE"/>
<circle cx="95.2975" cy="24.2369" r="2.97131" fill="#2F87CE"/>
</svg>
