<svg width="246" height="87" viewBox="0 0 246 87" fill="none" xmlns="http://www.w3.org/2000/svg">
<path d="M0.0546875 29.8549H19.0506C19.5372 29.8549 20.0212 29.7839 20.4873 29.644L29.6493 26.8954L39.0317 23.5662C39.5686 23.3757 40.1341 23.2783 40.7038 23.2783H47.2075C48.1946 23.2783 49.1596 22.9861 49.981 22.4386L53.121 20.3453C53.4747 20.1094 53.8571 19.9197 54.2589 19.7806L60.3758 17.6632C61.5517 17.2561 62.8372 17.3022 63.9809 17.7924L69.1087 19.99L71.1779 21.1396C73.3785 22.3621 74.327 25.03 73.3921 27.3673L73.1221 28.0423C72.6558 29.2079 72.6451 30.5061 73.092 31.6792L73.801 33.5403C74.5396 35.4791 76.3987 36.7603 78.4734 36.7603H82.9195H90.284C91.2712 36.7603 92.2362 36.4681 93.0575 35.9206L97.7168 32.8144L108.771 27.4368C109.502 27.0813 110.135 26.5529 110.615 25.8975L114.877 20.0856C116.202 18.279 118.567 17.5741 120.665 18.3608L124.667 19.8616C124.895 19.9471 125.117 20.0492 125.33 20.167L137.505 26.8954M137.505 26.8954L151.408 32.4567C151.999 32.693 152.629 32.8144 153.265 32.8144H169.577C170.936 32.8144 172.236 33.3674 173.178 34.3462L180.253 41.6927L186.829 50.5711M137.505 26.8954L135.651 35.238C135.572 35.5942 135.532 35.9579 135.532 36.3227V44.3234M137.505 26.8954L140.151 22.6218C141.149 21.0093 141.149 18.9708 140.151 17.3583L137.791 13.5465C137.601 13.2395 137.445 12.9128 137.325 12.5722L133.23 0.917969M186.829 50.5711L192.218 52.5054C195.461 53.6695 198.72 50.8184 197.998 47.4496V47.4496C197.169 43.5784 201.481 40.671 204.759 42.8915L216.095 50.5711M186.829 50.5711V58.8099C186.829 60.0668 187.303 61.2777 188.155 62.2013L189.449 63.6031C190.302 64.5267 190.775 65.7376 190.775 66.9945V70.5551C190.775 71.2547 190.629 71.9465 190.344 72.5858L186.829 80.4945M216.095 50.5711L231.172 54.5536C232.558 54.9197 233.523 56.1734 233.523 57.6068V57.6068C233.523 59.3509 234.937 60.7648 236.681 60.7648H239.113M216.095 50.5711V63.9414C216.095 64.6649 215.938 65.3798 215.635 66.0367L213.494 70.676C212.675 72.4511 212.965 74.5408 214.237 76.0252L214.892 76.7884C215.668 77.6946 216.095 78.8488 216.095 80.0424V86.7423" stroke="#2F87CE" stroke-width="5"/>
<circle cx="238.5" cy="60.5" r="7.5" fill="#2F87CE"/>
</svg>
