<svg width="17" height="17" viewBox="0 0 17 17" fill="none" xmlns="http://www.w3.org/2000/svg">
<path d="M9.8879 8.45321L16.7729 1.56821C16.9276 1.38754 17.0085 1.15513 16.9993 0.917436C16.9901 0.679742 16.8916 0.454267 16.7234 0.286066C16.5552 0.117866 16.3297 0.0193292 16.092 0.0101481C15.8543 0.000967023 15.6219 0.0818176 15.4412 0.236543L8.55624 7.12154L1.67124 0.227098C1.49056 0.072373 1.25816 -0.00847674 1.02046 0.000704353C0.782769 0.00988544 0.557294 0.108421 0.389093 0.276622C0.220893 0.444822 0.122356 0.670298 0.113175 0.907992C0.103994 1.14569 0.184845 1.37809 0.339569 1.55876L7.22457 8.45321L0.330125 15.3382C0.231259 15.4229 0.150962 15.5271 0.0942731 15.6442C0.0375845 15.7614 0.00572775 15.889 0.000703781 16.0191C-0.00432019 16.1492 0.0175965 16.2789 0.0650781 16.4001C0.11256 16.5213 0.184581 16.6313 0.276622 16.7234C0.368662 16.8154 0.478735 16.8874 0.599931 16.9349C0.721127 16.9824 0.85083 17.0043 0.980898 16.9993C1.11097 16.9943 1.23859 16.9624 1.35576 16.9057C1.47294 16.849 1.57712 16.7687 1.66179 16.6699L8.55624 9.78488L15.4412 16.6699C15.6219 16.8246 15.8543 16.9055 16.092 16.8963C16.3297 16.8871 16.5552 16.7886 16.7234 16.6204C16.8916 16.4522 16.9901 16.2267 16.9993 15.989C17.0085 15.7513 16.9276 15.5189 16.7729 15.3382L9.8879 8.45321Z" fill="#404040"/>
</svg>
