<svg width="31" height="43" viewBox="0 0 31 43" fill="none" xmlns="http://www.w3.org/2000/svg">
<path d="M13.6694 2.90496L13.6689 2.90567C13.4076 3.25238 10.2698 7.43335 7.19303 12.3952C5.65537 14.875 4.12071 17.5693 2.9672 20.0895C1.8299 22.5743 1 25.0212 1 26.962C1 34.7362 7.53673 41 15.5 41C23.4633 41 30 34.7362 30 26.962C30 25.0211 29.1701 22.574 28.0328 20.0892C26.8793 17.5688 25.3446 14.8745 23.807 12.3947C20.7322 7.43603 17.5964 3.25736 17.3314 2.90598C16.897 2.32922 16.2132 2 15.5 2C14.786 2 14.1037 2.32977 13.6694 2.90496ZM15.5683 33.1859C11.8623 33.1859 8.90585 30.2814 8.90585 26.7856C8.90585 26.6896 8.99716 26.5523 9.18293 26.5523C9.3687 26.5523 9.46001 26.6896 9.46001 26.7856C9.46001 30.0906 12.2318 32.7191 15.5683 32.7191C15.7541 32.7191 15.8454 32.8565 15.8454 32.9525C15.8454 33.0485 15.7541 33.1859 15.5683 33.1859Z" stroke="#F3B36A" stroke-width="2"/>
</svg>
