<svg width="290" height="239" viewBox="0 0 290 239" fill="none" xmlns="http://www.w3.org/2000/svg">
<rect x="1" y="1" width="288" height="237" rx="9" fill="white" stroke="#7BBEFD" stroke-width="2"/>
<path d="M19.548 69.6H20.832V74.724H22.08V75.684H20.832V78H19.836V75.684H15.288V75L19.548 69.6ZM19.836 74.724V70.74L16.632 74.724H19.836ZM26.9894 69.6H28.2734V74.724H29.5214V75.684H28.2734V78H27.2774V75.684H22.7294V75L26.9894 69.6ZM27.2774 74.724V70.74L24.0734 74.724H27.2774ZM31.1941 73.956H34.4101V74.964H31.1941V73.956ZM41.5112 69.996H41.9792C42.6192 69.996 43.1872 70.08 43.6832 70.248C44.1792 70.416 44.5952 70.66 44.9312 70.98C45.2752 71.3 45.5352 71.692 45.7112 72.156C45.8872 72.612 45.9752 73.128 45.9752 73.704C45.9752 74.32 45.8832 74.86 45.6992 75.324C45.5152 75.788 45.2472 76.176 44.8952 76.488C44.5432 76.8 44.1112 77.036 43.5992 77.196C43.0952 77.356 42.5192 77.436 41.8712 77.436H41.5112V78.24H40.4312V77.436H39.9632C38.6752 77.436 37.6872 77.108 36.9992 76.452C36.3112 75.796 35.9672 74.888 35.9672 73.728C35.9672 73.112 36.0592 72.572 36.2432 72.108C36.4272 71.644 36.6952 71.256 37.0472 70.944C37.3992 70.632 37.8272 70.396 38.3312 70.236C38.8432 70.076 39.4232 69.996 40.0712 69.996H40.4312V69.36H41.5112V69.996ZM37.0952 73.632C37.0952 74.136 37.1632 74.572 37.2992 74.94C37.4432 75.3 37.6432 75.6 37.8992 75.84C38.1552 76.08 38.4632 76.26 38.8232 76.38C39.1832 76.492 39.5832 76.548 40.0232 76.548H40.4312V70.884H40.0472C39.5192 70.884 39.0672 70.948 38.6912 71.076C38.3232 71.196 38.0192 71.376 37.7792 71.616C37.5392 71.848 37.3632 72.136 37.2512 72.48C37.1472 72.816 37.0952 73.2 37.0952 73.632ZM41.5112 70.884V76.548H41.8952C42.4232 76.548 42.8712 76.488 43.2392 76.368C43.6152 76.24 43.9232 76.06 44.1632 75.828C44.4032 75.588 44.5752 75.3 44.6792 74.964C44.7912 74.62 44.8472 74.232 44.8472 73.8C44.8472 73.296 44.7752 72.864 44.6312 72.504C44.4952 72.136 44.2992 71.832 44.0432 71.592C43.7872 71.352 43.4792 71.176 43.1192 71.064C42.7592 70.944 42.3592 70.884 41.9192 70.884H41.5112ZM47.059 70.332C47.155 70.236 47.291 70.14 47.467 70.044C47.643 69.94 47.847 69.848 48.079 69.768C48.319 69.68 48.587 69.612 48.883 69.564C49.179 69.508 49.499 69.48 49.843 69.48C50.251 69.48 50.627 69.524 50.971 69.612C51.323 69.692 51.627 69.816 51.883 69.984C52.139 70.152 52.339 70.364 52.483 70.62C52.635 70.876 52.711 71.184 52.711 71.544C52.711 72.024 52.595 72.44 52.363 72.792C52.131 73.136 51.771 73.396 51.283 73.572C51.899 73.676 52.363 73.9 52.675 74.244C52.987 74.588 53.143 75.044 53.143 75.612C53.143 75.956 53.071 76.28 52.927 76.584C52.791 76.888 52.587 77.156 52.315 77.388C52.043 77.612 51.711 77.792 51.319 77.928C50.935 78.056 50.491 78.12 49.987 78.12C49.595 78.12 49.231 78.084 48.895 78.012C48.559 77.948 48.255 77.864 47.983 77.76C47.711 77.656 47.475 77.54 47.275 77.412C47.075 77.284 46.919 77.156 46.807 77.028V75.468C46.927 75.692 47.087 75.908 47.287 76.116C47.495 76.316 47.735 76.496 48.007 76.656C48.279 76.808 48.583 76.932 48.919 77.028C49.263 77.116 49.639 77.16 50.047 77.16C50.327 77.152 50.587 77.112 50.827 77.04C51.067 76.968 51.271 76.864 51.439 76.728C51.615 76.584 51.751 76.412 51.847 76.212C51.951 76.012 52.003 75.784 52.003 75.528C52.003 75.072 51.839 74.736 51.511 74.52C51.191 74.296 50.667 74.184 49.939 74.184H48.607V73.284H49.927C50.247 73.284 50.511 73.244 50.719 73.164C50.935 73.084 51.107 72.98 51.235 72.852C51.363 72.716 51.451 72.56 51.499 72.384C51.555 72.208 51.583 72.024 51.583 71.832C51.583 71.592 51.531 71.388 51.427 71.22C51.331 71.044 51.199 70.9 51.031 70.788C50.871 70.676 50.687 70.592 50.479 70.536C50.271 70.48 50.059 70.448 49.843 70.44C49.531 70.432 49.231 70.476 48.943 70.572C48.655 70.66 48.391 70.78 48.151 70.932C47.911 71.076 47.699 71.244 47.515 71.436C47.331 71.628 47.179 71.824 47.059 72.024V70.332Z" fill="#404040"/>
<path d="M205 66C200.58 66 197 69.58 197 74C197 78.42 200.58 82 205 82C209.42 82 213 78.42 213 74C213 69.58 209.42 66 205 66ZM204.385 78.66H203.045L199.805 74.12L201.146 72.87L203.715 75.27L208.856 69.339L210.196 70.279L204.385 78.66Z" fill="#4AA29A"/>
<path d="M155 66C150.589 66 147 69.5888 147 74C147 78.4112 150.589 82 155 82C159.411 82 163 78.4112 163 74C163 69.5888 159.411 66 155 66ZM159 75.6H151V72.4H159V75.6Z" fill="#F3B36A"/>
<path d="M255 66C250.589 66 247 69.5888 247 74C247 78.4112 250.589 82 255 82C259.411 82 263 78.4112 263 74C263 69.5888 259.411 66 255 66ZM259 75.6H251V72.4H259V75.6Z" fill="#F3B36A"/>
<path d="M15.66 113V112.268C16.532 111.524 17.244 110.892 17.796 110.372C18.356 109.852 18.796 109.4 19.116 109.016C19.436 108.632 19.652 108.292 19.764 107.996C19.884 107.7 19.944 107.408 19.944 107.12C19.944 106.616 19.792 106.228 19.488 105.956C19.184 105.676 18.764 105.536 18.228 105.536C17.732 105.528 17.292 105.616 16.908 105.8C16.524 105.984 16.196 106.244 15.924 106.58V105.368C16.028 105.264 16.16 105.16 16.32 105.056C16.48 104.944 16.664 104.848 16.872 104.768C17.08 104.68 17.316 104.612 17.58 104.564C17.844 104.516 18.128 104.492 18.432 104.492C19.24 104.508 19.868 104.728 20.316 105.152C20.772 105.576 21 106.164 21 106.916C21 107.276 20.948 107.624 20.844 107.96C20.74 108.288 20.564 108.628 20.316 108.98C20.068 109.332 19.744 109.712 19.344 110.12C18.944 110.52 18.452 110.964 17.868 111.452L17.208 112.016H21.24V113H15.66ZM22.3748 113V112.268C23.2468 111.524 23.9588 110.892 24.5108 110.372C25.0708 109.852 25.5108 109.4 25.8308 109.016C26.1508 108.632 26.3668 108.292 26.4788 107.996C26.5988 107.7 26.6588 107.408 26.6588 107.12C26.6588 106.616 26.5068 106.228 26.2028 105.956C25.8988 105.676 25.4788 105.536 24.9428 105.536C24.4468 105.528 24.0068 105.616 23.6228 105.8C23.2388 105.984 22.9108 106.244 22.6388 106.58V105.368C22.7428 105.264 22.8748 105.16 23.0348 105.056C23.1948 104.944 23.3788 104.848 23.5868 104.768C23.7948 104.68 24.0308 104.612 24.2948 104.564C24.5588 104.516 24.8428 104.492 25.1468 104.492C25.9548 104.508 26.5828 104.728 27.0308 105.152C27.4868 105.576 27.7148 106.164 27.7148 106.916C27.7148 107.276 27.6628 107.624 27.5588 107.96C27.4548 108.288 27.2788 108.628 27.0308 108.98C26.7828 109.332 26.4588 109.712 26.0588 110.12C25.6588 110.52 25.1668 110.964 24.5828 111.452L23.9228 112.016H27.9548V113H22.3748ZM29.1977 105.368C29.4057 105.152 29.7217 104.952 30.1457 104.768C30.5777 104.584 31.1097 104.492 31.7417 104.492C32.5657 104.508 33.1937 104.704 33.6257 105.08C34.0577 105.456 34.2737 105.96 34.2737 106.592C34.2737 107.112 34.1457 107.548 33.8897 107.9C33.6337 108.244 33.2657 108.492 32.7857 108.644C33.3617 108.732 33.8097 108.948 34.1297 109.292C34.4577 109.636 34.6217 110.096 34.6217 110.672C34.6217 111.016 34.5577 111.336 34.4297 111.632C34.3097 111.92 34.1257 112.172 33.8777 112.388C33.6297 112.604 33.3177 112.776 32.9417 112.904C32.5657 113.024 32.1297 113.088 31.6337 113.096C31.3217 113.096 31.0297 113.068 30.7577 113.012C30.4937 112.964 30.2577 112.9 30.0497 112.82C29.8417 112.732 29.6617 112.636 29.5097 112.532C29.3577 112.428 29.2337 112.328 29.1377 112.232V110.96C29.3937 111.296 29.7377 111.568 30.1697 111.776C30.6017 111.984 31.0817 112.084 31.6097 112.076C32.2657 112.068 32.7617 111.932 33.0977 111.668C33.4417 111.396 33.6137 111.04 33.6137 110.6C33.6137 110.136 33.4537 109.78 33.1337 109.532C32.8217 109.276 32.3137 109.148 31.6097 109.148H30.6017V108.332H31.3577C31.9817 108.332 32.4537 108.208 32.7737 107.96C33.1017 107.704 33.2657 107.344 33.2657 106.88C33.2657 106.424 33.1137 106.084 32.8097 105.86C32.5137 105.628 32.0937 105.512 31.5497 105.512C31.0297 105.52 30.5737 105.616 30.1817 105.8C29.7977 105.984 29.4697 106.244 29.1977 106.58V105.368ZM36.0925 108.956H39.3085V109.964H36.0925V108.956ZM46.4096 104.996H46.8776C47.5176 104.996 48.0856 105.08 48.5816 105.248C49.0776 105.416 49.4936 105.66 49.8296 105.98C50.1736 106.3 50.4336 106.692 50.6096 107.156C50.7856 107.612 50.8736 108.128 50.8736 108.704C50.8736 109.32 50.7816 109.86 50.5976 110.324C50.4136 110.788 50.1456 111.176 49.7936 111.488C49.4416 111.8 49.0096 112.036 48.4976 112.196C47.9936 112.356 47.4176 112.436 46.7696 112.436H46.4096V113.24H45.3296V112.436H44.8616C43.5736 112.436 42.5856 112.108 41.8976 111.452C41.2096 110.796 40.8656 109.888 40.8656 108.728C40.8656 108.112 40.9576 107.572 41.1416 107.108C41.3256 106.644 41.5936 106.256 41.9456 105.944C42.2976 105.632 42.7256 105.396 43.2296 105.236C43.7416 105.076 44.3216 104.996 44.9696 104.996H45.3296V104.36H46.4096V104.996ZM41.9936 108.632C41.9936 109.136 42.0616 109.572 42.1976 109.94C42.3416 110.3 42.5416 110.6 42.7976 110.84C43.0536 111.08 43.3616 111.26 43.7216 111.38C44.0816 111.492 44.4816 111.548 44.9216 111.548H45.3296V105.884H44.9456C44.4176 105.884 43.9656 105.948 43.5896 106.076C43.2216 106.196 42.9176 106.376 42.6776 106.616C42.4376 106.848 42.2616 107.136 42.1496 107.48C42.0456 107.816 41.9936 108.2 41.9936 108.632ZM46.4096 105.884V111.548H46.7936C47.3216 111.548 47.7696 111.488 48.1376 111.368C48.5136 111.24 48.8216 111.06 49.0616 110.828C49.3016 110.588 49.4736 110.3 49.5776 109.964C49.6896 109.62 49.7456 109.232 49.7456 108.8C49.7456 108.296 49.6736 107.864 49.5296 107.504C49.3936 107.136 49.1976 106.832 48.9416 106.592C48.6856 106.352 48.3776 106.176 48.0176 106.064C47.6576 105.944 47.2576 105.884 46.8176 105.884H46.4096ZM51.9575 105.332C52.0535 105.236 52.1895 105.14 52.3655 105.044C52.5415 104.94 52.7455 104.848 52.9775 104.768C53.2175 104.68 53.4855 104.612 53.7815 104.564C54.0775 104.508 54.3975 104.48 54.7415 104.48C55.1495 104.48 55.5255 104.524 55.8695 104.612C56.2215 104.692 56.5255 104.816 56.7815 104.984C57.0375 105.152 57.2375 105.364 57.3815 105.62C57.5335 105.876 57.6095 106.184 57.6095 106.544C57.6095 107.024 57.4935 107.44 57.2615 107.792C57.0295 108.136 56.6695 108.396 56.1815 108.572C56.7975 108.676 57.2615 108.9 57.5735 109.244C57.8855 109.588 58.0415 110.044 58.0415 110.612C58.0415 110.956 57.9695 111.28 57.8255 111.584C57.6895 111.888 57.4855 112.156 57.2135 112.388C56.9415 112.612 56.6095 112.792 56.2175 112.928C55.8335 113.056 55.3895 113.12 54.8855 113.12C54.4935 113.12 54.1295 113.084 53.7935 113.012C53.4575 112.948 53.1535 112.864 52.8815 112.76C52.6095 112.656 52.3735 112.54 52.1735 112.412C51.9735 112.284 51.8175 112.156 51.7055 112.028V110.468C51.8255 110.692 51.9855 110.908 52.1855 111.116C52.3935 111.316 52.6335 111.496 52.9055 111.656C53.1775 111.808 53.4815 111.932 53.8175 112.028C54.1615 112.116 54.5375 112.16 54.9455 112.16C55.2255 112.152 55.4855 112.112 55.7255 112.04C55.9655 111.968 56.1695 111.864 56.3375 111.728C56.5135 111.584 56.6495 111.412 56.7455 111.212C56.8495 111.012 56.9015 110.784 56.9015 110.528C56.9015 110.072 56.7375 109.736 56.4095 109.52C56.0895 109.296 55.5655 109.184 54.8375 109.184H53.5055V108.284H54.8255C55.1455 108.284 55.4095 108.244 55.6175 108.164C55.8335 108.084 56.0055 107.98 56.1335 107.852C56.2615 107.716 56.3495 107.56 56.3975 107.384C56.4535 107.208 56.4815 107.024 56.4815 106.832C56.4815 106.592 56.4295 106.388 56.3255 106.22C56.2295 106.044 56.0975 105.9 55.9295 105.788C55.7695 105.676 55.5855 105.592 55.3775 105.536C55.1695 105.48 54.9575 105.448 54.7415 105.44C54.4295 105.432 54.1295 105.476 53.8415 105.572C53.5535 105.66 53.2895 105.78 53.0495 105.932C52.8095 106.076 52.5975 106.244 52.4135 106.436C52.2295 106.628 52.0775 106.824 51.9575 107.024V105.332Z" fill="#404040"/>
<path d="M205 101C200.58 101 197 104.58 197 109C197 113.42 200.58 117 205 117C209.42 117 213 113.42 213 109C213 104.58 209.42 101 205 101ZM204.385 113.66H203.045L199.805 109.12L201.146 107.87L203.715 110.27L208.856 104.339L210.196 105.279L204.385 113.66Z" fill="#4AA29A"/>
<path d="M155 101C150.58 101 147 104.58 147 109C147 113.42 150.58 117 155 117C159.42 117 163 113.42 163 109C163 104.58 159.42 101 155 101ZM154.385 113.66H153.045L149.805 109.12L151.146 107.87L153.715 110.27L158.856 104.339L160.196 105.279L154.385 113.66Z" fill="#4AA29A"/>
<path d="M255 101C250.589 101 247 104.589 247 109C247 113.411 250.589 117 255 117C259.411 117 263 113.411 263 109C263 104.589 259.411 101 255 101ZM259 110.6H251V107.4H259V110.6Z" fill="#F3B36A"/>
<path d="M15.66 148V147.268C16.532 146.524 17.244 145.892 17.796 145.372C18.356 144.852 18.796 144.4 19.116 144.016C19.436 143.632 19.652 143.292 19.764 142.996C19.884 142.7 19.944 142.408 19.944 142.12C19.944 141.616 19.792 141.228 19.488 140.956C19.184 140.676 18.764 140.536 18.228 140.536C17.732 140.528 17.292 140.616 16.908 140.8C16.524 140.984 16.196 141.244 15.924 141.58V140.368C16.028 140.264 16.16 140.16 16.32 140.056C16.48 139.944 16.664 139.848 16.872 139.768C17.08 139.68 17.316 139.612 17.58 139.564C17.844 139.516 18.128 139.492 18.432 139.492C19.24 139.508 19.868 139.728 20.316 140.152C20.772 140.576 21 141.164 21 141.916C21 142.276 20.948 142.624 20.844 142.96C20.74 143.288 20.564 143.628 20.316 143.98C20.068 144.332 19.744 144.712 19.344 145.12C18.944 145.52 18.452 145.964 17.868 146.452L17.208 147.016H21.24V148H15.66ZM22.3748 148V147.268C23.2468 146.524 23.9588 145.892 24.5108 145.372C25.0708 144.852 25.5108 144.4 25.8308 144.016C26.1508 143.632 26.3668 143.292 26.4788 142.996C26.5988 142.7 26.6588 142.408 26.6588 142.12C26.6588 141.616 26.5068 141.228 26.2028 140.956C25.8988 140.676 25.4788 140.536 24.9428 140.536C24.4468 140.528 24.0068 140.616 23.6228 140.8C23.2388 140.984 22.9108 141.244 22.6388 141.58V140.368C22.7428 140.264 22.8748 140.16 23.0348 140.056C23.1948 139.944 23.3788 139.848 23.5868 139.768C23.7948 139.68 24.0308 139.612 24.2948 139.564C24.5588 139.516 24.8428 139.492 25.1468 139.492C25.9548 139.508 26.5828 139.728 27.0308 140.152C27.4868 140.576 27.7148 141.164 27.7148 141.916C27.7148 142.276 27.6628 142.624 27.5588 142.96C27.4548 143.288 27.2788 143.628 27.0308 143.98C26.7828 144.332 26.4588 144.712 26.0588 145.12C25.6588 145.52 25.1668 145.964 24.5828 146.452L23.9228 147.016H27.9548V148H22.3748ZM32.7433 139.6H34.0273V144.724H35.2753V145.684H34.0273V148H33.0313V145.684H28.4833V145L32.7433 139.6ZM33.0313 144.724V140.74L29.8273 144.724H33.0313ZM36.948 143.956H40.164V144.964H36.948V143.956ZM47.2651 139.996H47.7331C48.3731 139.996 48.9411 140.08 49.4371 140.248C49.9331 140.416 50.3491 140.66 50.6851 140.98C51.0291 141.3 51.2891 141.692 51.4651 142.156C51.6411 142.612 51.7291 143.128 51.7291 143.704C51.7291 144.32 51.6371 144.86 51.4531 145.324C51.2691 145.788 51.0011 146.176 50.6491 146.488C50.2971 146.8 49.8651 147.036 49.3531 147.196C48.8491 147.356 48.2731 147.436 47.6251 147.436H47.2651V148.24H46.1851V147.436H45.7171C44.4291 147.436 43.4411 147.108 42.7531 146.452C42.0651 145.796 41.7211 144.888 41.7211 143.728C41.7211 143.112 41.8131 142.572 41.9971 142.108C42.1811 141.644 42.4491 141.256 42.8011 140.944C43.1531 140.632 43.5811 140.396 44.0851 140.236C44.5971 140.076 45.1771 139.996 45.8251 139.996H46.1851V139.36H47.2651V139.996ZM42.8491 143.632C42.8491 144.136 42.9171 144.572 43.0531 144.94C43.1971 145.3 43.3971 145.6 43.6531 145.84C43.9091 146.08 44.2171 146.26 44.5771 146.38C44.9371 146.492 45.3371 146.548 45.7771 146.548H46.1851V140.884H45.8011C45.2731 140.884 44.8211 140.948 44.4451 141.076C44.0771 141.196 43.7731 141.376 43.5331 141.616C43.2931 141.848 43.1171 142.136 43.0051 142.48C42.9011 142.816 42.8491 143.2 42.8491 143.632ZM47.2651 140.884V146.548H47.6491C48.1771 146.548 48.6251 146.488 48.9931 146.368C49.3691 146.24 49.6771 146.06 49.9171 145.828C50.1571 145.588 50.3291 145.3 50.4331 144.964C50.5451 144.62 50.6011 144.232 50.6011 143.8C50.6011 143.296 50.5291 142.864 50.3851 142.504C50.2491 142.136 50.0531 141.832 49.7971 141.592C49.5411 141.352 49.2331 141.176 48.8731 141.064C48.5131 140.944 48.1131 140.884 47.6731 140.884H47.2651ZM52.8129 140.332C52.9089 140.236 53.0449 140.14 53.2209 140.044C53.3969 139.94 53.6009 139.848 53.8329 139.768C54.0729 139.68 54.3409 139.612 54.6369 139.564C54.9329 139.508 55.2529 139.48 55.5969 139.48C56.0049 139.48 56.3809 139.524 56.7249 139.612C57.0769 139.692 57.3809 139.816 57.6369 139.984C57.8929 140.152 58.0929 140.364 58.2369 140.62C58.3889 140.876 58.4649 141.184 58.4649 141.544C58.4649 142.024 58.3489 142.44 58.1169 142.792C57.8849 143.136 57.5249 143.396 57.0369 143.572C57.6529 143.676 58.1169 143.9 58.4289 144.244C58.7409 144.588 58.8969 145.044 58.8969 145.612C58.8969 145.956 58.8249 146.28 58.6809 146.584C58.5449 146.888 58.3409 147.156 58.0689 147.388C57.7969 147.612 57.4649 147.792 57.0729 147.928C56.6889 148.056 56.2449 148.12 55.7409 148.12C55.3489 148.12 54.9849 148.084 54.6489 148.012C54.3129 147.948 54.0089 147.864 53.7369 147.76C53.4649 147.656 53.2289 147.54 53.0289 147.412C52.8289 147.284 52.6729 147.156 52.5609 147.028V145.468C52.6809 145.692 52.8409 145.908 53.0409 146.116C53.2489 146.316 53.4889 146.496 53.7609 146.656C54.0329 146.808 54.3369 146.932 54.6729 147.028C55.0169 147.116 55.3929 147.16 55.8009 147.16C56.0809 147.152 56.3409 147.112 56.5809 147.04C56.8209 146.968 57.0249 146.864 57.1929 146.728C57.3689 146.584 57.5049 146.412 57.6009 146.212C57.7049 146.012 57.7569 145.784 57.7569 145.528C57.7569 145.072 57.5929 144.736 57.2649 144.52C56.9449 144.296 56.4209 144.184 55.6929 144.184H54.3609V143.284H55.6809C56.0009 143.284 56.2649 143.244 56.4729 143.164C56.6889 143.084 56.8609 142.98 56.9889 142.852C57.1169 142.716 57.2049 142.56 57.2529 142.384C57.3089 142.208 57.3369 142.024 57.3369 141.832C57.3369 141.592 57.2849 141.388 57.1809 141.22C57.0849 141.044 56.9529 140.9 56.7849 140.788C56.6249 140.676 56.4409 140.592 56.2329 140.536C56.0249 140.48 55.8129 140.448 55.5969 140.44C55.2849 140.432 54.9849 140.476 54.6969 140.572C54.4089 140.66 54.1449 140.78 53.9049 140.932C53.6649 141.076 53.4529 141.244 53.2689 141.436C53.0849 141.628 52.9329 141.824 52.8129 142.024V140.332Z" fill="#404040"/>
<path d="M155 136C150.58 136 147 139.58 147 144C147 148.42 150.58 152 155 152C159.42 152 163 148.42 163 144C163 139.58 159.42 136 155 136ZM154.385 148.66H153.045L149.805 144.12L151.146 142.87L153.715 145.27L158.856 139.339L160.196 140.279L154.385 148.66Z" fill="#4AA29A"/>
<path d="M205 136C200.589 136 197 139.589 197 144C197 148.411 200.589 152 205 152C209.411 152 213 148.411 213 144C213 139.589 209.411 136 205 136ZM209 145.6H201V142.4H209V145.6Z" fill="#F3B36A"/>
<path d="M255 136C250.589 136 247 139.589 247 144C247 148.411 250.589 152 255 152C259.411 152 263 148.411 263 144C263 139.589 259.411 136 255 136ZM259 145.6H251V142.4H259V145.6Z" fill="#F3B36A"/>
<path d="M17.604 175.812L15.72 177V175.908L17.88 174.516H18.6V183H17.604V175.812ZM22.2798 175.812L20.3958 177V175.908L22.5558 174.516H23.2758V183H22.2798V175.812ZM25.2485 181.044C25.5045 181.364 25.8485 181.62 26.2805 181.812C26.7125 181.996 27.1685 182.084 27.6485 182.076C28.2805 182.076 28.7525 181.92 29.0645 181.608C29.3845 181.288 29.5445 180.864 29.5445 180.336C29.5445 179.792 29.3485 179.384 28.9565 179.112C28.5645 178.84 28.0405 178.704 27.3845 178.704C27.0165 178.704 26.6725 178.732 26.3525 178.788C26.0405 178.836 25.7765 178.896 25.5605 178.968L25.8485 174.6H30.1925V175.584H26.7245L26.5565 177.924C26.6205 177.908 26.7005 177.896 26.7965 177.888C26.9005 177.872 27.0045 177.86 27.1085 177.852C27.2205 177.836 27.3285 177.824 27.4325 177.816C27.5445 177.808 27.6485 177.804 27.7445 177.804C28.6565 177.804 29.3605 178.032 29.8565 178.488C30.3525 178.944 30.6005 179.56 30.6005 180.336C30.6005 180.784 30.5285 181.18 30.3845 181.524C30.2485 181.86 30.0485 182.148 29.7845 182.388C29.5285 182.62 29.2205 182.796 28.8605 182.916C28.5005 183.036 28.1045 183.096 27.6725 183.096C27.3765 183.096 27.1005 183.068 26.8445 183.012C26.5885 182.964 26.3565 182.9 26.1485 182.82C25.9485 182.74 25.7725 182.652 25.6205 182.556C25.4685 182.46 25.3445 182.368 25.2485 182.28V181.044ZM32.1433 178.956H35.3593V179.964H32.1433V178.956ZM42.4604 174.996H42.9284C43.5684 174.996 44.1364 175.08 44.6324 175.248C45.1284 175.416 45.5444 175.66 45.8804 175.98C46.2244 176.3 46.4844 176.692 46.6604 177.156C46.8364 177.612 46.9244 178.128 46.9244 178.704C46.9244 179.32 46.8324 179.86 46.6484 180.324C46.4644 180.788 46.1964 181.176 45.8444 181.488C45.4924 181.8 45.0604 182.036 44.5484 182.196C44.0444 182.356 43.4684 182.436 42.8204 182.436H42.4604V183.24H41.3804V182.436H40.9124C39.6244 182.436 38.6364 182.108 37.9484 181.452C37.2604 180.796 36.9164 179.888 36.9164 178.728C36.9164 178.112 37.0084 177.572 37.1924 177.108C37.3764 176.644 37.6444 176.256 37.9964 175.944C38.3484 175.632 38.7764 175.396 39.2804 175.236C39.7924 175.076 40.3724 174.996 41.0204 174.996H41.3804V174.36H42.4604V174.996ZM38.0444 178.632C38.0444 179.136 38.1124 179.572 38.2484 179.94C38.3924 180.3 38.5924 180.6 38.8484 180.84C39.1044 181.08 39.4124 181.26 39.7724 181.38C40.1324 181.492 40.5324 181.548 40.9724 181.548H41.3804V175.884H40.9964C40.4684 175.884 40.0164 175.948 39.6404 176.076C39.2724 176.196 38.9684 176.376 38.7284 176.616C38.4884 176.848 38.3124 177.136 38.2004 177.48C38.0964 177.816 38.0444 178.2 38.0444 178.632ZM42.4604 175.884V181.548H42.8444C43.3724 181.548 43.8204 181.488 44.1884 181.368C44.5644 181.24 44.8724 181.06 45.1124 180.828C45.3524 180.588 45.5244 180.3 45.6284 179.964C45.7404 179.62 45.7964 179.232 45.7964 178.8C45.7964 178.296 45.7244 177.864 45.5804 177.504C45.4444 177.136 45.2484 176.832 44.9924 176.592C44.7364 176.352 44.4284 176.176 44.0684 176.064C43.7084 175.944 43.3084 175.884 42.8684 175.884H42.4604ZM48.0083 175.332C48.1043 175.236 48.2403 175.14 48.4163 175.044C48.5923 174.94 48.7963 174.848 49.0283 174.768C49.2683 174.68 49.5363 174.612 49.8323 174.564C50.1283 174.508 50.4483 174.48 50.7923 174.48C51.2003 174.48 51.5763 174.524 51.9203 174.612C52.2723 174.692 52.5763 174.816 52.8323 174.984C53.0883 175.152 53.2882 175.364 53.4323 175.62C53.5843 175.876 53.6603 176.184 53.6603 176.544C53.6603 177.024 53.5443 177.44 53.3123 177.792C53.0803 178.136 52.7203 178.396 52.2323 178.572C52.8483 178.676 53.3123 178.9 53.6243 179.244C53.9363 179.588 54.0923 180.044 54.0923 180.612C54.0923 180.956 54.0203 181.28 53.8763 181.584C53.7403 181.888 53.5363 182.156 53.2643 182.388C52.9923 182.612 52.6603 182.792 52.2683 182.928C51.8843 183.056 51.4403 183.12 50.9363 183.12C50.5443 183.12 50.1803 183.084 49.8443 183.012C49.5083 182.948 49.2043 182.864 48.9323 182.76C48.6603 182.656 48.4243 182.54 48.2243 182.412C48.0243 182.284 47.8683 182.156 47.7563 182.028V180.468C47.8763 180.692 48.0363 180.908 48.2363 181.116C48.4443 181.316 48.6843 181.496 48.9563 181.656C49.2283 181.808 49.5323 181.932 49.8683 182.028C50.2123 182.116 50.5883 182.16 50.9963 182.16C51.2763 182.152 51.5363 182.112 51.7763 182.04C52.0163 181.968 52.2203 181.864 52.3883 181.728C52.5643 181.584 52.7003 181.412 52.7963 181.212C52.9003 181.012 52.9523 180.784 52.9523 180.528C52.9523 180.072 52.7883 179.736 52.4603 179.52C52.1403 179.296 51.6163 179.184 50.8883 179.184H49.5563V178.284H50.8763C51.1963 178.284 51.4603 178.244 51.6683 178.164C51.8843 178.084 52.0563 177.98 52.1843 177.852C52.3123 177.716 52.4003 177.56 52.4483 177.384C52.5043 177.208 52.5323 177.024 52.5323 176.832C52.5323 176.592 52.4803 176.388 52.3763 176.22C52.2803 176.044 52.1483 175.9 51.9803 175.788C51.8203 175.676 51.6363 175.592 51.4283 175.536C51.2203 175.48 51.0083 175.448 50.7923 175.44C50.4803 175.432 50.1803 175.476 49.8923 175.572C49.6043 175.66 49.3403 175.78 49.1003 175.932C48.8602 176.076 48.6483 176.244 48.4643 176.436C48.2803 176.628 48.1283 176.824 48.0083 177.024V175.332Z" fill="#404040"/>
<path d="M155 171C150.58 171 147 174.58 147 179C147 183.42 150.58 187 155 187C159.42 187 163 183.42 163 179C163 174.58 159.42 171 155 171ZM154.385 183.66H153.045L149.805 179.12L151.146 177.87L153.715 180.27L158.856 174.339L160.196 175.279L154.385 183.66Z" fill="#4AA29A"/>
<path d="M205 171C200.589 171 197 174.589 197 179C197 183.411 200.589 187 205 187C209.411 187 213 183.411 213 179C213 174.589 209.411 171 205 171ZM209 180.6H201V177.4H209V180.6Z" fill="#F3B36A"/>
<path d="M255 171C250.589 171 247 174.589 247 179C247 183.411 250.589 187 255 187C259.411 187 263 183.411 263 179C263 174.589 259.411 171 255 171ZM259 180.6H251V177.4H259V180.6Z" fill="#F3B36A"/>
<path d="M255 206C250.58 206 247 209.58 247 214C247 218.42 250.58 222 255 222C259.42 222 263 218.42 263 214C263 209.58 259.42 206 255 206ZM254.385 218.66H253.045L249.805 214.12L251.146 212.87L253.715 215.27L258.856 209.339L260.196 210.279L254.385 218.66Z" fill="#4AA29A"/>
<path d="M155 206C150.589 206 147 209.589 147 214C147 218.411 150.589 222 155 222C159.411 222 163 218.411 163 214C163 209.589 159.411 206 155 206ZM159 215.6H151V212.4H159V215.6Z" fill="#F3B36A"/>
<path d="M205 206C200.589 206 197 209.589 197 214C197 218.411 200.589 222 205 222C209.411 222 213 218.411 213 214C213 209.589 209.411 206 205 206ZM209 215.6H201V212.4H209V215.6Z" fill="#F3B36A"/>
<path d="M16.92 212.372C16.92 212.66 16.952 212.916 17.016 213.14C17.088 213.356 17.204 213.54 17.364 213.692C17.524 213.836 17.74 213.948 18.012 214.028C18.284 214.1 18.62 214.136 19.02 214.136C19.212 214.136 19.408 214.128 19.608 214.112C19.816 214.088 20.016 214.06 20.208 214.028C20.408 213.988 20.592 213.94 20.76 213.884C20.936 213.82 21.084 213.748 21.204 213.668V209.6H22.284V218H21.204V214.58C21.092 214.652 20.948 214.72 20.772 214.784C20.604 214.84 20.412 214.892 20.196 214.94C19.988 214.98 19.764 215.016 19.524 215.048C19.284 215.072 19.044 215.084 18.804 215.084C18.284 215.084 17.836 215.028 17.46 214.916C17.084 214.804 16.776 214.652 16.536 214.46C16.296 214.26 16.12 214.024 16.008 213.752C15.896 213.48 15.84 213.188 15.84 212.876V209.6H16.92V212.372ZM24.5404 212.456C24.7404 212.304 25.0124 212.172 25.3564 212.06C25.7084 211.94 26.1164 211.88 26.5804 211.88C26.9644 211.88 27.3084 211.916 27.6124 211.988C27.9164 212.06 28.1724 212.18 28.3804 212.348C28.5964 212.516 28.7604 212.74 28.8724 213.02C28.9844 213.292 29.0404 213.632 29.0404 214.04V218H28.0924V216.98C27.9324 217.316 27.6724 217.588 27.3124 217.796C26.9604 217.996 26.5444 218.096 26.0644 218.096C25.4644 218.096 24.9844 217.94 24.6244 217.628C24.2644 217.316 24.0844 216.852 24.0844 216.236C24.0844 215.908 24.1404 215.636 24.2524 215.42C24.3724 215.196 24.5404 215.02 24.7564 214.892C24.9724 214.756 25.2364 214.664 25.5484 214.616C25.8604 214.56 26.2164 214.532 26.6164 214.532H28.0444V214.052C28.0444 213.796 28.0084 213.584 27.9364 213.416C27.8644 213.248 27.7644 213.116 27.6364 213.02C27.5084 212.916 27.3524 212.844 27.1684 212.804C26.9924 212.764 26.7964 212.744 26.5804 212.744C26.1084 212.744 25.7004 212.848 25.3564 213.056C25.0204 213.264 24.7484 213.536 24.5404 213.872V212.456ZM26.3164 217.172C26.6204 217.172 26.8764 217.128 27.0844 217.04C27.3004 216.952 27.4764 216.848 27.6124 216.728C27.7484 216.6 27.8484 216.468 27.9124 216.332C27.9844 216.196 28.0284 216.076 28.0444 215.972V215.324H26.6524C26.1084 215.324 25.7124 215.38 25.4644 215.492C25.2244 215.604 25.1044 215.832 25.1044 216.176C25.1044 216.472 25.2044 216.712 25.4044 216.896C25.6044 217.08 25.9084 217.172 26.3164 217.172ZM35.3543 217.388C35.2183 217.572 34.9863 217.74 34.6583 217.892C34.3303 218.044 33.9103 218.12 33.3983 218.12C32.4463 218.12 31.7103 217.86 31.1903 217.34C30.6703 216.82 30.4103 216.032 30.4103 214.976C30.4103 214.456 30.4863 214.004 30.6383 213.62C30.7903 213.228 30.9983 212.904 31.2623 212.648C31.5263 212.392 31.8383 212.2 32.1983 212.072C32.5583 211.944 32.9503 211.88 33.3743 211.88C33.7823 211.88 34.1543 211.94 34.4903 212.06C34.8263 212.172 35.0943 212.304 35.2943 212.456V213.872C35.0863 213.536 34.8143 213.264 34.4783 213.056C34.1503 212.848 33.7823 212.744 33.3743 212.744C32.7423 212.744 32.2583 212.932 31.9223 213.308C31.5863 213.676 31.4183 214.232 31.4183 214.976V215.012C31.4183 215.788 31.5863 216.356 31.9223 216.716C32.2663 217.076 32.7583 217.256 33.3983 217.256C33.9023 217.256 34.3143 217.156 34.6343 216.956C34.9623 216.756 35.2023 216.512 35.3543 216.224V217.388ZM38.3743 212.888H36.3703V212H41.3623V212.888H39.3703V218H38.3743V212.888ZM46.7842 215.408H43.6162V218H42.6202V212H43.6162V214.508H46.7842V212H47.7802V218H46.7842V215.408ZM49.6983 212H50.6943V213.932H51.9063C52.3143 213.932 52.6703 213.96 52.9743 214.016C53.2863 214.072 53.5463 214.172 53.7543 214.316C53.9623 214.46 54.1183 214.66 54.2223 214.916C54.3343 215.164 54.3903 215.484 54.3903 215.876C54.3903 216.268 54.3423 216.6 54.2463 216.872C54.1503 217.136 53.9943 217.352 53.7783 217.52C53.5703 217.688 53.2983 217.812 52.9623 217.892C52.6263 217.964 52.2223 218 51.7503 218H49.6983V212ZM55.2183 212H56.2143V218H55.2183V212ZM53.3943 215.876C53.3863 215.652 53.3543 215.472 53.2983 215.336C53.2503 215.2 53.1623 215.096 53.0343 215.024C52.9143 214.944 52.7503 214.892 52.5423 214.868C52.3423 214.836 52.0943 214.82 51.7983 214.82H50.6943V217.112H51.7383C52.0263 217.112 52.2743 217.096 52.4823 217.064C52.6903 217.024 52.8623 216.96 52.9983 216.872C53.1343 216.776 53.2343 216.648 53.2983 216.488C53.3623 216.328 53.3943 216.124 53.3943 215.876ZM60.6438 211.88C61.4758 211.88 62.1238 212.128 62.5878 212.624C63.0598 213.12 63.2958 213.816 63.2958 214.712V215.36H58.6998C58.7478 216.008 58.9398 216.488 59.2758 216.8C59.6118 217.104 60.0758 217.256 60.6678 217.256C61.2438 217.256 61.7158 217.156 62.0838 216.956C62.4518 216.756 62.7158 216.512 62.8758 216.224V217.388C62.7238 217.572 62.4638 217.74 62.0958 217.892C61.7358 218.044 61.2598 218.12 60.6678 218.12C59.7158 218.12 58.9798 217.86 58.4598 217.34C57.9398 216.82 57.6798 216.032 57.6798 214.976C57.6798 214.456 57.7558 214.004 57.9078 213.62C58.0598 213.228 58.2678 212.904 58.5318 212.648C58.7958 212.392 59.1078 212.2 59.4678 212.072C59.8278 211.944 60.2198 211.88 60.6438 211.88ZM60.6438 212.744C60.0758 212.744 59.6278 212.892 59.2998 213.188C58.9718 213.484 58.7758 213.924 58.7118 214.508H62.2998V214.496C62.2998 213.92 62.1438 213.484 61.8318 213.188C61.5198 212.892 61.1238 212.744 60.6438 212.744ZM71.9421 212.888H68.8701V218H67.8741V212H72.9381V218H71.9421V212.888ZM74.8584 212H75.8064V213.152C75.9584 212.8 76.2144 212.5 76.5744 212.252C76.9344 212.004 77.4184 211.88 78.0264 211.88C78.8264 211.88 79.4624 212.116 79.9344 212.588C80.4064 213.06 80.6424 213.82 80.6424 214.868C80.6424 215.46 80.5784 215.964 80.4504 216.38C80.3304 216.788 80.1504 217.124 79.9104 217.388C79.6784 217.644 79.3944 217.832 79.0584 217.952C78.7224 218.072 78.3384 218.132 77.9064 218.132C77.4024 218.132 76.9744 218.028 76.6224 217.82C76.2784 217.604 76.0224 217.356 75.8544 217.076V220.16H74.8584V212ZM75.8544 215.252C75.8544 215.876 76.0264 216.364 76.3704 216.716C76.7224 217.06 77.1824 217.232 77.7504 217.232C78.4064 217.232 78.8824 217.056 79.1784 216.704C79.4824 216.352 79.6344 215.76 79.6344 214.928C79.6344 214.528 79.5904 214.192 79.5024 213.92C79.4144 213.64 79.2864 213.416 79.1184 213.248C78.9584 213.08 78.7624 212.96 78.5304 212.888C78.2984 212.816 78.0424 212.78 77.7624 212.78C77.1384 212.78 76.6664 212.948 76.3464 213.284C76.0344 213.612 75.8704 214.076 75.8544 214.676V215.252ZM81.6212 214.976C81.6212 214.456 81.6972 214.004 81.8492 213.62C82.0012 213.228 82.2092 212.904 82.4732 212.648C82.7372 212.392 83.0492 212.2 83.4092 212.072C83.7692 211.944 84.1612 211.88 84.5852 211.88C85.5292 211.888 86.2612 212.152 86.7812 212.672C87.3012 213.192 87.5612 213.976 87.5612 215.024C87.5612 215.544 87.4852 216 87.3332 216.392C87.1812 216.776 86.9732 217.096 86.7092 217.352C86.4452 217.608 86.1332 217.8 85.7732 217.928C85.4132 218.056 85.0212 218.12 84.5972 218.12C83.6452 218.112 82.9092 217.852 82.3892 217.34C81.8772 216.82 81.6212 216.032 81.6212 214.976ZM82.6292 215.012C82.6292 215.788 82.7972 216.356 83.1332 216.716C83.4692 217.076 83.9572 217.256 84.5972 217.256C85.2292 217.256 85.7132 217.072 86.0492 216.704C86.3852 216.328 86.5532 215.768 86.5532 215.024V214.988C86.5532 214.22 86.3812 213.656 86.0372 213.296C85.7012 212.936 85.2172 212.752 84.5852 212.744C83.9532 212.744 83.4692 212.932 83.1332 213.308C82.7972 213.676 82.6292 214.232 82.6292 214.976V215.012ZM91.5344 211.88C92.3664 211.88 93.0144 212.128 93.4784 212.624C93.9504 213.12 94.1864 213.816 94.1864 214.712V215.36H89.5904C89.6384 216.008 89.8304 216.488 90.1664 216.8C90.5024 217.104 90.9664 217.256 91.5584 217.256C92.1344 217.256 92.6064 217.156 92.9744 216.956C93.3424 216.756 93.6064 216.512 93.7664 216.224V217.388C93.6144 217.572 93.3544 217.74 92.9864 217.892C92.6264 218.044 92.1504 218.12 91.5584 218.12C90.6064 218.12 89.8704 217.86 89.3504 217.34C88.8304 216.82 88.5704 216.032 88.5704 214.976C88.5704 214.456 88.6464 214.004 88.7984 213.62C88.9504 213.228 89.1584 212.904 89.4224 212.648C89.6864 212.392 89.9984 212.2 90.3584 212.072C90.7184 211.944 91.1104 211.88 91.5344 211.88ZM91.5344 212.744C90.9664 212.744 90.5184 212.892 90.1904 213.188C89.8624 213.484 89.6664 213.924 89.6024 214.508H93.1904V214.496C93.1904 213.92 93.0344 213.484 92.7224 213.188C92.4104 212.892 92.0144 212.744 91.5344 212.744ZM95.6475 212H96.6435V214.508H97.7235L99.6075 212H100.747L98.5515 214.832L101.144 218H99.8835L97.7235 215.36H96.6435V218H95.6475V212ZM103.8 212.888H101.796V212H106.788V212.888H104.796V218H103.8V212.888ZM108.046 212H109.042V213.932H110.254C110.662 213.932 111.018 213.96 111.322 214.016C111.634 214.072 111.894 214.172 112.102 214.316C112.31 214.46 112.466 214.66 112.57 214.916C112.682 215.164 112.738 215.484 112.738 215.876C112.738 216.268 112.69 216.6 112.594 216.872C112.498 217.136 112.342 217.352 112.126 217.52C111.918 217.688 111.646 217.812 111.31 217.892C110.974 217.964 110.57 218 110.098 218H108.046V212ZM113.566 212H114.562V218H113.566V212ZM111.742 215.876C111.734 215.652 111.702 215.472 111.646 215.336C111.598 215.2 111.51 215.096 111.382 215.024C111.262 214.944 111.098 214.892 110.89 214.868C110.69 214.836 110.442 214.82 110.146 214.82H109.042V217.112H110.086C110.374 217.112 110.622 217.096 110.83 217.064C111.038 217.024 111.21 216.96 111.346 216.872C111.482 216.776 111.582 216.648 111.646 216.488C111.71 216.328 111.742 216.124 111.742 215.876Z" fill="#404040"/>
<path d="M22.068 20.98H17.592V28H16.092V19.6H23.568V28H22.068V20.98ZM25.5083 22H26.8283V23.248C26.8843 23.08 26.9643 22.916 27.0683 22.756C27.1803 22.588 27.3203 22.44 27.4883 22.312C27.6643 22.184 27.8723 22.08 28.1123 22C28.3523 21.92 28.6323 21.88 28.9523 21.88C29.3363 21.88 29.6843 21.94 29.9963 22.06C30.3163 22.172 30.5883 22.348 30.8123 22.588C31.0443 22.828 31.2243 23.136 31.3523 23.512C31.4803 23.888 31.5443 24.34 31.5443 24.868C31.5443 25.46 31.4803 25.964 31.3523 26.38C31.2243 26.788 31.0403 27.124 30.8003 27.388C30.5683 27.644 30.2843 27.832 29.9483 27.952C29.6123 28.072 29.2403 28.132 28.8323 28.132C28.3523 28.132 27.9483 28.028 27.6203 27.82C27.3003 27.612 27.0643 27.368 26.9123 27.088V30.316H25.5083V22ZM26.9123 25.204C26.9123 25.748 27.0563 26.168 27.3443 26.464C27.6323 26.752 28.0243 26.896 28.5203 26.896C29.0883 26.896 29.5003 26.748 29.7563 26.452C30.0123 26.148 30.1403 25.64 30.1403 24.928C30.1403 24.272 29.9923 23.808 29.6963 23.536C29.4083 23.264 29.0243 23.128 28.5443 23.128C27.9923 23.128 27.5843 23.272 27.3203 23.56C27.0643 23.848 26.9283 24.244 26.9123 24.748V25.204ZM32.9648 22.42C33.1648 22.268 33.4408 22.14 33.7928 22.036C34.1528 21.932 34.5928 21.88 35.1128 21.88C35.9928 21.88 36.6488 22.044 37.0808 22.372C37.5128 22.7 37.7288 23.256 37.7288 24.04V28H36.4088V26.92C36.2648 27.272 36.0168 27.556 35.6648 27.772C35.3208 27.988 34.9088 28.096 34.4288 28.096C33.8208 28.096 33.3448 27.936 33.0008 27.616C32.6648 27.288 32.4968 26.828 32.4968 26.236C32.4968 25.892 32.5568 25.608 32.6768 25.384C32.7968 25.16 32.9648 24.984 33.1808 24.856C33.3968 24.72 33.6568 24.624 33.9608 24.568C34.2648 24.512 34.6008 24.484 34.9688 24.484H36.3248V24.22C36.3248 23.796 36.2208 23.504 36.0128 23.344C35.8128 23.184 35.5128 23.104 35.1128 23.104C34.5608 23.104 34.1168 23.204 33.7808 23.404C33.4448 23.596 33.1728 23.852 32.9648 24.172V22.42ZM34.8728 26.836C35.1128 26.836 35.3168 26.808 35.4848 26.752C35.6608 26.688 35.8088 26.612 35.9288 26.524C36.0488 26.428 36.1408 26.324 36.2048 26.212C36.2688 26.1 36.3088 25.992 36.3248 25.888V25.396H35.1367C34.7208 25.396 34.4128 25.444 34.2128 25.54C34.0128 25.636 33.9128 25.82 33.9128 26.092C33.9128 26.324 33.9928 26.508 34.1528 26.644C34.3208 26.772 34.5608 26.836 34.8728 26.836ZM39.3481 22H42.3721C43.0921 22 43.6041 22.12 43.9081 22.36C44.2121 22.592 44.3641 22.936 44.3641 23.392C44.3641 23.752 44.2721 24.052 44.0881 24.292C43.9121 24.524 43.6601 24.68 43.3321 24.76C43.5241 24.784 43.7001 24.828 43.8601 24.892C44.0281 24.948 44.1681 25.032 44.2801 25.144C44.4001 25.256 44.4921 25.4 44.5561 25.576C44.6281 25.752 44.6641 25.968 44.6641 26.224C44.6641 26.8 44.4721 27.24 44.0881 27.544C43.7121 27.848 43.1281 28 42.3361 28H39.3481V22ZM42.2041 26.836C42.5801 26.836 42.8521 26.78 43.0201 26.668C43.1881 26.548 43.2721 26.368 43.2721 26.128C43.2721 25.864 43.1881 25.684 43.0201 25.588C42.8601 25.484 42.6161 25.432 42.2881 25.432H40.7521V26.836H42.2041ZM42.0361 24.424C42.3161 24.424 42.5401 24.376 42.7081 24.28C42.8761 24.176 42.9601 23.996 42.9601 23.74C42.9601 23.516 42.8841 23.364 42.7321 23.284C42.5801 23.204 42.3521 23.164 42.0481 23.164L40.7521 23.176V24.424H42.0361ZM48.6217 28.132C48.1498 28.132 47.7258 28.068 47.3498 27.94C46.9738 27.804 46.6498 27.604 46.3778 27.34C46.1058 27.076 45.8978 26.748 45.7538 26.356C45.6098 25.964 45.5378 25.504 45.5378 24.976C45.5378 24.456 45.6138 24.004 45.7658 23.62C45.9178 23.228 46.1298 22.904 46.4018 22.648C46.6738 22.384 47.0018 22.188 47.3858 22.06C47.7698 21.932 48.1978 21.868 48.6698 21.868C49.1338 21.868 49.5538 21.936 49.9298 22.072C50.3138 22.208 50.6378 22.408 50.9018 22.672C51.1738 22.936 51.3818 23.264 51.5258 23.656C51.6698 24.048 51.7418 24.504 51.7418 25.024C51.7418 25.544 51.6658 26 51.5138 26.392C51.3618 26.776 51.1498 27.096 50.8778 27.352C50.6058 27.608 50.2778 27.804 49.8938 27.94C49.5098 28.068 49.0858 28.132 48.6217 28.132ZM46.9658 25.012C46.9658 25.676 47.1138 26.16 47.4098 26.464C47.7058 26.76 48.1178 26.908 48.6458 26.908C49.1818 26.908 49.5938 26.756 49.8818 26.452C50.1698 26.14 50.3138 25.664 50.3138 25.024V24.988C50.3138 24.324 50.1618 23.844 49.8578 23.548C49.5618 23.244 49.1498 23.092 48.6217 23.092C48.0858 23.1 47.6738 23.26 47.3858 23.572C47.1058 23.876 46.9658 24.344 46.9658 24.976V25.012ZM53.0356 22H56.0596C56.7796 22 57.2916 22.12 57.5956 22.36C57.8996 22.592 58.0516 22.936 58.0516 23.392C58.0516 23.752 57.9596 24.052 57.7756 24.292C57.5996 24.524 57.3476 24.68 57.0196 24.76C57.2116 24.784 57.3876 24.828 57.5476 24.892C57.7156 24.948 57.8556 25.032 57.9676 25.144C58.0876 25.256 58.1796 25.4 58.2436 25.576C58.3156 25.752 58.3516 25.968 58.3516 26.224C58.3516 26.8 58.1596 27.24 57.7756 27.544C57.3996 27.848 56.8156 28 56.0236 28H53.0356V22ZM55.8916 26.836C56.2676 26.836 56.5396 26.78 56.7076 26.668C56.8756 26.548 56.9596 26.368 56.9596 26.128C56.9596 25.864 56.8756 25.684 56.7076 25.588C56.5476 25.484 56.3036 25.432 55.9756 25.432H54.4396V26.836H55.8916ZM55.7236 24.424C56.0036 24.424 56.2276 24.376 56.3956 24.28C56.5636 24.176 56.6476 23.996 56.6476 23.74C56.6476 23.516 56.5716 23.364 56.4196 23.284C56.2676 23.204 56.0396 23.164 55.7356 23.164L54.4396 23.176V24.424H55.7236ZM62.3092 28.132C61.8373 28.132 61.4133 28.068 61.0373 27.94C60.6613 27.804 60.3373 27.604 60.0653 27.34C59.7933 27.076 59.5853 26.748 59.4413 26.356C59.2973 25.964 59.2253 25.504 59.2253 24.976C59.2253 24.456 59.3013 24.004 59.4533 23.62C59.6053 23.228 59.8173 22.904 60.0893 22.648C60.3613 22.384 60.6893 22.188 61.0733 22.06C61.4573 21.932 61.8853 21.868 62.3573 21.868C62.8213 21.868 63.2413 21.936 63.6173 22.072C64.0013 22.208 64.3253 22.408 64.5893 22.672C64.8613 22.936 65.0693 23.264 65.2133 23.656C65.3573 24.048 65.4293 24.504 65.4293 25.024C65.4293 25.544 65.3533 26 65.2013 26.392C65.0493 26.776 64.8373 27.096 64.5653 27.352C64.2933 27.608 63.9653 27.804 63.5813 27.94C63.1973 28.068 62.7733 28.132 62.3092 28.132ZM60.6533 25.012C60.6533 25.676 60.8013 26.16 61.0973 26.464C61.3933 26.76 61.8053 26.908 62.3333 26.908C62.8693 26.908 63.2813 26.756 63.5693 26.452C63.8573 26.14 64.0013 25.664 64.0013 25.024V24.988C64.0013 24.324 63.8493 23.844 63.5453 23.548C63.2493 23.244 62.8373 23.092 62.3092 23.092C61.7733 23.1 61.3613 23.26 61.0733 23.572C60.7933 23.876 60.6533 24.344 60.6533 24.976V25.012ZM71.6791 27.4C71.6071 27.488 71.5031 27.576 71.3671 27.664C71.2311 27.744 71.0671 27.82 70.8751 27.892C70.6831 27.964 70.4671 28.02 70.2271 28.06C69.9951 28.1 69.7431 28.12 69.4711 28.12C68.4711 28.128 67.6951 27.868 67.1431 27.34C66.5911 26.804 66.3151 26.016 66.3151 24.976C66.3151 24.48 66.3871 24.04 66.5311 23.656C66.6831 23.264 66.8951 22.936 67.1671 22.672C67.4391 22.408 67.7591 22.208 68.1271 22.072C68.5031 21.936 68.9191 21.868 69.3751 21.868C70.2471 21.876 70.9271 22.136 71.4151 22.648C71.9111 23.16 72.1591 23.888 72.1591 24.832V25.408H67.7071C67.8191 26.408 68.4231 26.908 69.5191 26.908C70.0711 26.908 70.5271 26.816 70.8871 26.632C71.2551 26.448 71.5191 26.224 71.6791 25.96V27.4ZM69.3391 23.092C68.8831 23.092 68.5191 23.204 68.2471 23.428C67.9751 23.652 67.8031 23.98 67.7311 24.412H70.7551C70.7391 24.004 70.6071 23.684 70.3591 23.452C70.1111 23.212 69.7711 23.092 69.3391 23.092ZM18.528 43.132C18.056 43.132 17.632 43.068 17.256 42.94C16.88 42.804 16.556 42.604 16.284 42.34C16.012 42.076 15.804 41.748 15.66 41.356C15.516 40.964 15.444 40.504 15.444 39.976C15.444 39.456 15.52 39.004 15.672 38.62C15.824 38.228 16.036 37.904 16.308 37.648C16.58 37.384 16.908 37.188 17.292 37.06C17.676 36.932 18.104 36.868 18.576 36.868C19.04 36.868 19.46 36.936 19.836 37.072C20.22 37.208 20.544 37.408 20.808 37.672C21.08 37.936 21.288 38.264 21.432 38.656C21.576 39.048 21.648 39.504 21.648 40.024C21.648 40.544 21.572 41 21.42 41.392C21.268 41.776 21.056 42.096 20.784 42.352C20.512 42.608 20.184 42.804 19.8 42.94C19.416 43.068 18.992 43.132 18.528 43.132ZM16.872 40.012C16.872 40.676 17.02 41.16 17.316 41.464C17.612 41.76 18.024 41.908 18.552 41.908C19.088 41.908 19.5 41.756 19.788 41.452C20.076 41.14 20.22 40.664 20.22 40.024V39.988C20.22 39.324 20.068 38.844 19.764 38.548C19.468 38.244 19.056 38.092 18.528 38.092C17.992 38.1 17.58 38.26 17.292 38.572C17.012 38.876 16.872 39.344 16.872 39.976V40.012ZM27.7178 42.4C27.5818 42.568 27.3378 42.732 26.9858 42.892C26.6338 43.052 26.2138 43.132 25.7258 43.132C25.2458 43.132 24.8098 43.068 24.4178 42.94C24.0258 42.804 23.6898 42.604 23.4098 42.34C23.1298 42.076 22.9138 41.748 22.7618 41.356C22.6098 40.964 22.5338 40.504 22.5338 39.976C22.5338 39.464 22.6098 39.016 22.7618 38.632C22.9218 38.24 23.1418 37.916 23.4218 37.66C23.7018 37.396 24.0378 37.2 24.4298 37.072C24.8218 36.936 25.2578 36.868 25.7378 36.868C26.1458 36.876 26.5178 36.932 26.8538 37.036C27.1898 37.14 27.4578 37.268 27.6578 37.42V39.172C27.4498 38.852 27.1858 38.596 26.8658 38.404C26.5538 38.204 26.1778 38.1 25.7378 38.092C25.1618 38.092 24.7218 38.244 24.4178 38.548C24.1138 38.852 23.9618 39.308 23.9618 39.916V40.096C23.9618 40.72 24.1178 41.18 24.4298 41.476C24.7498 41.764 25.1938 41.908 25.7618 41.908C26.2658 41.908 26.6778 41.816 26.9978 41.632C27.3258 41.448 27.5658 41.224 27.7178 40.96V42.4ZM33.1164 40.576H30.4044V43H29.0004V37H30.4044V39.34H33.1164V37H34.5204V43H33.1164V40.576ZM38.8952 43.132C38.4232 43.132 37.9992 43.068 37.6232 42.94C37.2472 42.804 36.9232 42.604 36.6512 42.34C36.3792 42.076 36.1712 41.748 36.0272 41.356C35.8832 40.964 35.8112 40.504 35.8112 39.976C35.8112 39.456 35.8872 39.004 36.0392 38.62C36.1912 38.228 36.4032 37.904 36.6752 37.648C36.9472 37.384 37.2752 37.188 37.6592 37.06C38.0432 36.932 38.4712 36.868 38.9432 36.868C39.4072 36.868 39.8272 36.936 40.2032 37.072C40.5872 37.208 40.9112 37.408 41.1752 37.672C41.4472 37.936 41.6552 38.264 41.7992 38.656C41.9432 39.048 42.0152 39.504 42.0152 40.024C42.0152 40.544 41.9392 41 41.7872 41.392C41.6352 41.776 41.4232 42.096 41.1512 42.352C40.8792 42.608 40.5512 42.804 40.1672 42.94C39.7832 43.068 39.3592 43.132 38.8952 43.132ZM37.2392 40.012C37.2392 40.676 37.3872 41.16 37.6832 41.464C37.9792 41.76 38.3912 41.908 38.9192 41.908C39.4552 41.908 39.8672 41.756 40.1552 41.452C40.4432 41.14 40.5872 40.664 40.5872 40.024V39.988C40.5872 39.324 40.4352 38.844 40.1312 38.548C39.8352 38.244 39.4232 38.092 38.8952 38.092C38.3592 38.1 37.9472 38.26 37.6592 38.572C37.3792 38.876 37.2392 39.344 37.2392 39.976V40.012ZM43.309 37H46.333C47.053 37 47.565 37.12 47.869 37.36C48.173 37.592 48.325 37.936 48.325 38.392C48.325 38.752 48.233 39.052 48.049 39.292C47.873 39.524 47.621 39.68 47.293 39.76C47.485 39.784 47.661 39.828 47.821 39.892C47.989 39.948 48.129 40.032 48.241 40.144C48.361 40.256 48.453 40.4 48.517 40.576C48.589 40.752 48.625 40.968 48.625 41.224C48.625 41.8 48.433 42.24 48.049 42.544C47.673 42.848 47.089 43 46.297 43H43.309V37ZM46.165 41.836C46.541 41.836 46.813 41.78 46.981 41.668C47.149 41.548 47.233 41.368 47.233 41.128C47.233 40.864 47.149 40.684 46.981 40.588C46.821 40.484 46.577 40.432 46.249 40.432H44.713V41.836H46.165ZM45.997 39.424C46.277 39.424 46.501 39.376 46.669 39.28C46.837 39.176 46.921 38.996 46.921 38.74C46.921 38.516 46.845 38.364 46.693 38.284C46.541 38.204 46.313 38.164 46.009 38.164L44.713 38.176V39.424H45.997ZM50.0507 37.42C50.2507 37.268 50.5267 37.14 50.8787 37.036C51.2387 36.932 51.6787 36.88 52.1987 36.88C53.0787 36.88 53.7347 37.044 54.1667 37.372C54.5987 37.7 54.8147 38.256 54.8147 39.04V43H53.4947V41.92C53.3507 42.272 53.1027 42.556 52.7507 42.772C52.4067 42.988 51.9947 43.096 51.5147 43.096C50.9067 43.096 50.4307 42.936 50.0867 42.616C49.7507 42.288 49.5827 41.828 49.5827 41.236C49.5827 40.892 49.6427 40.608 49.7627 40.384C49.8827 40.16 50.0507 39.984 50.2667 39.856C50.4827 39.72 50.7427 39.624 51.0467 39.568C51.3507 39.512 51.6867 39.484 52.0547 39.484H53.4107V39.22C53.4107 38.796 53.3067 38.504 53.0987 38.344C52.8987 38.184 52.5987 38.104 52.1987 38.104C51.6467 38.104 51.2027 38.204 50.8667 38.404C50.5307 38.596 50.2587 38.852 50.0507 39.172V37.42ZM51.9587 41.836C52.1987 41.836 52.4027 41.808 52.5707 41.752C52.7467 41.688 52.8947 41.612 53.0147 41.524C53.1347 41.428 53.2267 41.324 53.2907 41.212C53.3547 41.1 53.3947 40.992 53.4107 40.888V40.396H52.2227C51.8067 40.396 51.4987 40.444 51.2987 40.54C51.0987 40.636 50.9987 40.82 50.9987 41.092C50.9987 41.324 51.0787 41.508 51.2387 41.644C51.4067 41.772 51.6467 41.836 51.9587 41.836ZM60.55 40.576H57.838V43H56.434V37H57.838V39.34H60.55V37H61.954V43H60.55V40.576ZM63.6648 37H65.0568V41.068L67.9368 37H69.2688V43H67.8768V38.884L64.9968 43H63.6648V37ZM75.933 42.4C75.861 42.488 75.757 42.576 75.621 42.664C75.485 42.744 75.321 42.82 75.129 42.892C74.937 42.964 74.721 43.02 74.481 43.06C74.249 43.1 73.997 43.12 73.725 43.12C72.725 43.128 71.949 42.868 71.397 42.34C70.845 41.804 70.569 41.016 70.569 39.976C70.569 39.48 70.641 39.04 70.785 38.656C70.937 38.264 71.149 37.936 71.421 37.672C71.693 37.408 72.013 37.208 72.381 37.072C72.757 36.936 73.173 36.868 73.629 36.868C74.501 36.876 75.181 37.136 75.669 37.648C76.165 38.16 76.413 38.888 76.413 39.832V40.408H71.961C72.073 41.408 72.677 41.908 73.773 41.908C74.325 41.908 74.781 41.816 75.141 41.632C75.509 41.448 75.773 41.224 75.933 40.96V42.4ZM73.593 38.092C73.137 38.092 72.773 38.204 72.501 38.428C72.229 38.652 72.057 38.98 71.985 39.412H75.009C74.993 39.004 74.861 38.684 74.613 38.452C74.365 38.212 74.025 38.092 73.593 38.092Z" fill="#404040"/>
<path d="M146.743 24.19C146.657 24.2967 146.533 24.4033 146.373 24.51C146.213 24.6167 146.023 24.7133 145.803 24.8C145.59 24.8867 145.347 24.9567 145.073 25.01C144.807 25.07 144.52 25.1 144.213 25.1C143.653 25.1 143.147 25.0167 142.693 24.85C142.247 24.6767 141.867 24.4367 141.553 24.13C141.24 23.8167 140.997 23.4367 140.823 22.99C140.657 22.5433 140.573 22.0433 140.573 21.49C140.573 20.97 140.657 20.4933 140.823 20.06C140.99 19.62 141.23 19.24 141.543 18.92C141.863 18.6 142.247 18.35 142.693 18.17C143.147 17.99 143.66 17.9 144.233 17.9C144.52 17.9 144.787 17.9233 145.033 17.97C145.28 18.01 145.5 18.0667 145.693 18.14C145.893 18.2067 146.067 18.2833 146.213 18.37C146.36 18.45 146.473 18.53 146.553 18.61V20.02C146.453 19.8533 146.327 19.6933 146.173 19.54C146.02 19.38 145.843 19.24 145.643 19.12C145.443 18.9933 145.223 18.8933 144.983 18.82C144.743 18.74 144.493 18.7 144.233 18.7C143.813 18.7 143.433 18.7667 143.093 18.9C142.76 19.0333 142.477 19.2233 142.243 19.47C142.01 19.7167 141.83 20.0133 141.703 20.36C141.577 20.7 141.513 21.08 141.513 21.5C141.513 21.8933 141.57 22.26 141.683 22.6C141.797 22.9333 141.963 23.2267 142.183 23.48C142.41 23.7267 142.69 23.9233 143.023 24.07C143.357 24.2167 143.74 24.2933 144.173 24.3C144.493 24.3 144.787 24.2633 145.053 24.19C145.327 24.11 145.57 24.0067 145.783 23.88C146.003 23.7467 146.193 23.5967 146.353 23.43C146.513 23.2567 146.643 23.0767 146.743 22.89V24.19ZM149.104 22.44L147.364 20H148.384L149.654 21.79L150.924 20H151.894L150.134 22.37L152.014 25H150.994L149.604 23.01L148.214 25H147.244L149.104 22.44ZM154.907 19.9C155.6 19.9 156.14 20.1067 156.527 20.52C156.92 20.9333 157.117 21.5133 157.117 22.26V22.8H153.287C153.327 23.34 153.487 23.74 153.767 24C154.047 24.2533 154.433 24.38 154.927 24.38C155.407 24.38 155.8 24.2967 156.107 24.13C156.413 23.9633 156.633 23.76 156.767 23.52V24.49C156.64 24.6433 156.423 24.7833 156.117 24.91C155.817 25.0367 155.42 25.1 154.927 25.1C154.133 25.1 153.52 24.8833 153.087 24.45C152.653 24.0167 152.437 23.36 152.437 22.48C152.437 22.0467 152.5 21.67 152.627 21.35C152.753 21.0233 152.927 20.7533 153.147 20.54C153.367 20.3267 153.627 20.1667 153.927 20.06C154.227 19.9533 154.553 19.9 154.907 19.9ZM154.907 20.62C154.433 20.62 154.06 20.7433 153.787 20.99C153.513 21.2367 153.35 21.6033 153.297 22.09H156.287V22.08C156.287 21.6 156.157 21.2367 155.897 20.99C155.637 20.7433 155.307 20.62 154.907 20.62ZM162.944 21.22L161.244 23.72H160.874L159.164 21.22V25H158.334V20H159.234L161.094 22.65L162.924 20H163.774V25H162.944V21.22ZM165.455 20.38C165.622 20.2533 165.849 20.1433 166.135 20.05C166.429 19.95 166.769 19.9 167.155 19.9C167.475 19.9 167.762 19.93 168.015 19.99C168.269 20.05 168.482 20.15 168.655 20.29C168.835 20.43 168.972 20.6167 169.065 20.85C169.159 21.0767 169.205 21.36 169.205 21.7V25H168.415V24.15C168.282 24.43 168.065 24.6567 167.765 24.83C167.472 24.9967 167.125 25.08 166.725 25.08C166.225 25.08 165.825 24.95 165.525 24.69C165.225 24.43 165.075 24.0433 165.075 23.53C165.075 23.2567 165.122 23.03 165.215 22.85C165.315 22.6633 165.455 22.5167 165.635 22.41C165.815 22.2967 166.035 22.22 166.295 22.18C166.555 22.1333 166.852 22.11 167.185 22.11H168.375V21.71C168.375 21.4967 168.345 21.32 168.285 21.18C168.225 21.04 168.142 20.93 168.035 20.85C167.929 20.7633 167.799 20.7033 167.645 20.67C167.499 20.6367 167.335 20.62 167.155 20.62C166.762 20.62 166.422 20.7067 166.135 20.88C165.855 21.0533 165.629 21.28 165.455 21.56V20.38ZM166.935 24.31C167.189 24.31 167.402 24.2733 167.575 24.2C167.755 24.1267 167.902 24.04 168.015 23.94C168.129 23.8333 168.212 23.7233 168.265 23.61C168.325 23.4967 168.362 23.3967 168.375 23.31V22.77H167.215C166.762 22.77 166.432 22.8167 166.225 22.91C166.025 23.0033 165.925 23.1933 165.925 23.48C165.925 23.7267 166.009 23.9267 166.175 24.08C166.342 24.2333 166.595 24.31 166.935 24.31ZM142.146 32.224C142.386 32.048 142.742 31.88 143.214 31.72C143.686 31.56 144.258 31.48 144.93 31.48C145.402 31.48 145.83 31.524 146.214 31.612C146.598 31.692 146.926 31.82 147.198 31.996C147.478 32.164 147.69 32.38 147.834 32.644C147.986 32.908 148.062 33.224 148.062 33.592C148.062 34.56 147.566 35.22 146.574 35.572C147.854 35.764 148.494 36.42 148.494 37.54C148.494 37.9 148.422 38.24 148.278 38.56C148.134 38.872 147.918 39.144 147.63 39.376C147.342 39.6 146.982 39.78 146.55 39.916C146.126 40.052 145.634 40.12 145.074 40.12C144.69 40.12 144.33 40.088 143.994 40.024C143.666 39.968 143.366 39.892 143.094 39.796C142.83 39.692 142.598 39.58 142.398 39.46C142.206 39.332 142.054 39.204 141.942 39.076V37.228C142.07 37.444 142.234 37.644 142.434 37.828C142.634 38.012 142.866 38.172 143.13 38.308C143.394 38.444 143.69 38.552 144.018 38.632C144.354 38.704 144.714 38.74 145.098 38.74C145.354 38.74 145.594 38.712 145.818 38.656C146.042 38.6 146.234 38.52 146.394 38.416C146.562 38.304 146.694 38.168 146.79 38.008C146.886 37.848 146.934 37.66 146.934 37.444C146.934 37.068 146.786 36.792 146.49 36.616C146.202 36.44 145.73 36.352 145.074 36.352H143.802V35.116H145.062C145.334 35.116 145.562 35.088 145.746 35.032C145.93 34.968 146.078 34.884 146.19 34.78C146.302 34.676 146.382 34.556 146.43 34.42C146.486 34.284 146.514 34.136 146.514 33.976C146.514 33.784 146.474 33.62 146.394 33.484C146.314 33.34 146.202 33.224 146.058 33.136C145.914 33.048 145.746 32.984 145.554 32.944C145.362 32.896 145.154 32.868 144.93 32.86C144.61 32.852 144.306 32.888 144.018 32.968C143.738 33.048 143.478 33.16 143.238 33.304C143.006 33.44 142.794 33.596 142.602 33.772C142.418 33.948 142.266 34.128 142.146 34.312V32.224ZM151.715 37.876L156.299 31.6H157.931V40H156.431V33.628L151.823 40H150.215V31.6H151.715V37.876ZM166.093 32.98H161.617V40H160.117V31.6H167.593V40H166.093V32.98Z" fill="#404040"/>
<path d="M196.743 24.19C196.657 24.2967 196.533 24.4033 196.373 24.51C196.213 24.6167 196.023 24.7133 195.803 24.8C195.59 24.8867 195.347 24.9567 195.073 25.01C194.807 25.07 194.52 25.1 194.213 25.1C193.653 25.1 193.147 25.0167 192.693 24.85C192.247 24.6767 191.867 24.4367 191.553 24.13C191.24 23.8167 190.997 23.4367 190.823 22.99C190.657 22.5433 190.573 22.0433 190.573 21.49C190.573 20.97 190.657 20.4933 190.823 20.06C190.99 19.62 191.23 19.24 191.543 18.92C191.863 18.6 192.247 18.35 192.693 18.17C193.147 17.99 193.66 17.9 194.233 17.9C194.52 17.9 194.787 17.9233 195.033 17.97C195.28 18.01 195.5 18.0667 195.693 18.14C195.893 18.2067 196.067 18.2833 196.213 18.37C196.36 18.45 196.473 18.53 196.553 18.61V20.02C196.453 19.8533 196.327 19.6933 196.173 19.54C196.02 19.38 195.843 19.24 195.643 19.12C195.443 18.9933 195.223 18.8933 194.983 18.82C194.743 18.74 194.493 18.7 194.233 18.7C193.813 18.7 193.433 18.7667 193.093 18.9C192.76 19.0333 192.477 19.2233 192.243 19.47C192.01 19.7167 191.83 20.0133 191.703 20.36C191.577 20.7 191.513 21.08 191.513 21.5C191.513 21.8933 191.57 22.26 191.683 22.6C191.797 22.9333 191.963 23.2267 192.183 23.48C192.41 23.7267 192.69 23.9233 193.023 24.07C193.357 24.2167 193.74 24.2933 194.173 24.3C194.493 24.3 194.787 24.2633 195.053 24.19C195.327 24.11 195.57 24.0067 195.783 23.88C196.003 23.7467 196.193 23.5967 196.353 23.43C196.513 23.2567 196.643 23.0767 196.743 22.89V24.19ZM199.104 22.44L197.364 20H198.384L199.654 21.79L200.924 20H201.894L200.134 22.37L202.014 25H200.994L199.604 23.01L198.214 25H197.244L199.104 22.44ZM204.907 19.9C205.6 19.9 206.14 20.1067 206.527 20.52C206.92 20.9333 207.117 21.5133 207.117 22.26V22.8H203.287C203.327 23.34 203.487 23.74 203.767 24C204.047 24.2533 204.433 24.38 204.927 24.38C205.407 24.38 205.8 24.2967 206.107 24.13C206.413 23.9633 206.633 23.76 206.767 23.52V24.49C206.64 24.6433 206.423 24.7833 206.117 24.91C205.817 25.0367 205.42 25.1 204.927 25.1C204.133 25.1 203.52 24.8833 203.087 24.45C202.653 24.0167 202.437 23.36 202.437 22.48C202.437 22.0467 202.5 21.67 202.627 21.35C202.753 21.0233 202.927 20.7533 203.147 20.54C203.367 20.3267 203.627 20.1667 203.927 20.06C204.227 19.9533 204.553 19.9 204.907 19.9ZM204.907 20.62C204.433 20.62 204.06 20.7433 203.787 20.99C203.513 21.2367 203.35 21.6033 203.297 22.09H206.287V22.08C206.287 21.6 206.157 21.2367 205.897 20.99C205.637 20.7433 205.307 20.62 204.907 20.62ZM212.944 21.22L211.244 23.72H210.874L209.164 21.22V25H208.334V20H209.234L211.094 22.65L212.924 20H213.774V25H212.944V21.22ZM215.455 20.38C215.622 20.2533 215.849 20.1433 216.135 20.05C216.429 19.95 216.769 19.9 217.155 19.9C217.475 19.9 217.762 19.93 218.015 19.99C218.269 20.05 218.482 20.15 218.655 20.29C218.835 20.43 218.972 20.6167 219.065 20.85C219.159 21.0767 219.205 21.36 219.205 21.7V25H218.415V24.15C218.282 24.43 218.065 24.6567 217.765 24.83C217.472 24.9967 217.125 25.08 216.725 25.08C216.225 25.08 215.825 24.95 215.525 24.69C215.225 24.43 215.075 24.0433 215.075 23.53C215.075 23.2567 215.122 23.03 215.215 22.85C215.315 22.6633 215.455 22.5167 215.635 22.41C215.815 22.2967 216.035 22.22 216.295 22.18C216.555 22.1333 216.852 22.11 217.185 22.11H218.375V21.71C218.375 21.4967 218.345 21.32 218.285 21.18C218.225 21.04 218.142 20.93 218.035 20.85C217.929 20.7633 217.799 20.7033 217.645 20.67C217.499 20.6367 217.335 20.62 217.155 20.62C216.762 20.62 216.422 20.7067 216.135 20.88C215.855 21.0533 215.629 21.28 215.455 21.56V20.38ZM216.935 24.31C217.189 24.31 217.402 24.2733 217.575 24.2C217.755 24.1267 217.902 24.04 218.015 23.94C218.129 23.8333 218.212 23.7233 218.265 23.61C218.325 23.4967 218.362 23.3967 218.375 23.31V22.77H217.215C216.762 22.77 216.432 22.8167 216.225 22.91C216.025 23.0033 215.925 23.1933 215.925 23.48C215.925 23.7267 216.009 23.9267 216.175 24.08C216.342 24.2333 216.595 24.31 216.935 24.31ZM196.974 32.224C197.214 32.048 197.57 31.88 198.042 31.72C198.514 31.56 199.086 31.48 199.758 31.48C200.23 31.48 200.658 31.524 201.042 31.612C201.426 31.692 201.754 31.82 202.026 31.996C202.306 32.164 202.518 32.38 202.662 32.644C202.814 32.908 202.89 33.224 202.89 33.592C202.89 34.56 202.394 35.22 201.402 35.572C202.682 35.764 203.322 36.42 203.322 37.54C203.322 37.9 203.25 38.24 203.106 38.56C202.962 38.872 202.746 39.144 202.458 39.376C202.17 39.6 201.81 39.78 201.378 39.916C200.954 40.052 200.462 40.12 199.902 40.12C199.518 40.12 199.158 40.088 198.822 40.024C198.494 39.968 198.194 39.892 197.922 39.796C197.658 39.692 197.426 39.58 197.226 39.46C197.034 39.332 196.882 39.204 196.77 39.076V37.228C196.898 37.444 197.062 37.644 197.262 37.828C197.462 38.012 197.694 38.172 197.958 38.308C198.222 38.444 198.518 38.552 198.846 38.632C199.182 38.704 199.542 38.74 199.926 38.74C200.182 38.74 200.422 38.712 200.646 38.656C200.87 38.6 201.062 38.52 201.222 38.416C201.39 38.304 201.522 38.168 201.618 38.008C201.714 37.848 201.762 37.66 201.762 37.444C201.762 37.068 201.614 36.792 201.318 36.616C201.03 36.44 200.558 36.352 199.902 36.352H198.63V35.116H199.89C200.162 35.116 200.39 35.088 200.574 35.032C200.758 34.968 200.906 34.884 201.018 34.78C201.13 34.676 201.21 34.556 201.258 34.42C201.314 34.284 201.342 34.136 201.342 33.976C201.342 33.784 201.302 33.62 201.222 33.484C201.142 33.34 201.03 33.224 200.886 33.136C200.742 33.048 200.574 32.984 200.382 32.944C200.19 32.896 199.982 32.868 199.758 32.86C199.438 32.852 199.134 32.888 198.846 32.968C198.566 33.048 198.306 33.16 198.066 33.304C197.834 33.44 197.622 33.596 197.43 33.772C197.246 33.948 197.094 34.128 196.974 34.312V32.224ZM206.543 37.876L211.127 31.6H212.759V40H211.259V33.628L206.651 40H205.043V31.6H206.543V37.876Z" fill="#404040"/>
<path d="M246.743 24.19C246.657 24.2967 246.533 24.4033 246.373 24.51C246.213 24.6167 246.023 24.7133 245.803 24.8C245.59 24.8867 245.347 24.9567 245.073 25.01C244.807 25.07 244.52 25.1 244.213 25.1C243.653 25.1 243.147 25.0167 242.693 24.85C242.247 24.6767 241.867 24.4367 241.553 24.13C241.24 23.8167 240.997 23.4367 240.823 22.99C240.657 22.5433 240.573 22.0433 240.573 21.49C240.573 20.97 240.657 20.4933 240.823 20.06C240.99 19.62 241.23 19.24 241.543 18.92C241.863 18.6 242.247 18.35 242.693 18.17C243.147 17.99 243.66 17.9 244.233 17.9C244.52 17.9 244.787 17.9233 245.033 17.97C245.28 18.01 245.5 18.0667 245.693 18.14C245.893 18.2067 246.067 18.2833 246.213 18.37C246.36 18.45 246.473 18.53 246.553 18.61V20.02C246.453 19.8533 246.327 19.6933 246.173 19.54C246.02 19.38 245.843 19.24 245.643 19.12C245.443 18.9933 245.223 18.8933 244.983 18.82C244.743 18.74 244.493 18.7 244.233 18.7C243.813 18.7 243.433 18.7667 243.093 18.9C242.76 19.0333 242.477 19.2233 242.243 19.47C242.01 19.7167 241.83 20.0133 241.703 20.36C241.577 20.7 241.513 21.08 241.513 21.5C241.513 21.8933 241.57 22.26 241.683 22.6C241.797 22.9333 241.963 23.2267 242.183 23.48C242.41 23.7267 242.69 23.9233 243.023 24.07C243.357 24.2167 243.74 24.2933 244.173 24.3C244.493 24.3 244.787 24.2633 245.053 24.19C245.327 24.11 245.57 24.0067 245.783 23.88C246.003 23.7467 246.193 23.5967 246.353 23.43C246.513 23.2567 246.643 23.0767 246.743 22.89V24.19ZM249.104 22.44L247.364 20H248.384L249.654 21.79L250.924 20H251.894L250.134 22.37L252.014 25H250.994L249.604 23.01L248.214 25H247.244L249.104 22.44ZM254.907 19.9C255.6 19.9 256.14 20.1067 256.527 20.52C256.92 20.9333 257.117 21.5133 257.117 22.26V22.8H253.287C253.327 23.34 253.487 23.74 253.767 24C254.047 24.2533 254.433 24.38 254.927 24.38C255.407 24.38 255.8 24.2967 256.107 24.13C256.413 23.9633 256.633 23.76 256.767 23.52V24.49C256.64 24.6433 256.423 24.7833 256.117 24.91C255.817 25.0367 255.42 25.1 254.927 25.1C254.133 25.1 253.52 24.8833 253.087 24.45C252.653 24.0167 252.437 23.36 252.437 22.48C252.437 22.0467 252.5 21.67 252.627 21.35C252.753 21.0233 252.927 20.7533 253.147 20.54C253.367 20.3267 253.627 20.1667 253.927 20.06C254.227 19.9533 254.553 19.9 254.907 19.9ZM254.907 20.62C254.433 20.62 254.06 20.7433 253.787 20.99C253.513 21.2367 253.35 21.6033 253.297 22.09H256.287V22.08C256.287 21.6 256.157 21.2367 255.897 20.99C255.637 20.7433 255.307 20.62 254.907 20.62ZM262.944 21.22L261.244 23.72H260.874L259.164 21.22V25H258.334V20H259.234L261.094 22.65L262.924 20H263.774V25H262.944V21.22ZM265.455 20.38C265.622 20.2533 265.849 20.1433 266.135 20.05C266.429 19.95 266.769 19.9 267.155 19.9C267.475 19.9 267.762 19.93 268.015 19.99C268.269 20.05 268.482 20.15 268.655 20.29C268.835 20.43 268.972 20.6167 269.065 20.85C269.159 21.0767 269.205 21.36 269.205 21.7V25H268.415V24.15C268.282 24.43 268.065 24.6567 267.765 24.83C267.472 24.9967 267.125 25.08 266.725 25.08C266.225 25.08 265.825 24.95 265.525 24.69C265.225 24.43 265.075 24.0433 265.075 23.53C265.075 23.2567 265.122 23.03 265.215 22.85C265.315 22.6633 265.455 22.5167 265.635 22.41C265.815 22.2967 266.035 22.22 266.295 22.18C266.555 22.1333 266.852 22.11 267.185 22.11H268.375V21.71C268.375 21.4967 268.345 21.32 268.285 21.18C268.225 21.04 268.142 20.93 268.035 20.85C267.929 20.7633 267.799 20.7033 267.645 20.67C267.499 20.6367 267.335 20.62 267.155 20.62C266.762 20.62 266.422 20.7067 266.135 20.88C265.855 21.0533 265.629 21.28 265.455 21.56V20.38ZM266.935 24.31C267.189 24.31 267.402 24.2733 267.575 24.2C267.755 24.1267 267.902 24.04 268.015 23.94C268.129 23.8333 268.212 23.7233 268.265 23.61C268.325 23.4967 268.362 23.3967 268.375 23.31V22.77H267.215C266.762 22.77 266.432 22.8167 266.225 22.91C266.025 23.0033 265.925 23.1933 265.925 23.48C265.925 23.7267 266.009 23.9267 266.175 24.08C266.342 24.2333 266.595 24.31 266.935 24.31ZM247.098 32.224C247.338 32.048 247.694 31.88 248.166 31.72C248.638 31.56 249.21 31.48 249.882 31.48C250.354 31.48 250.782 31.524 251.166 31.612C251.55 31.692 251.878 31.82 252.15 31.996C252.43 32.164 252.642 32.38 252.786 32.644C252.938 32.908 253.014 33.224 253.014 33.592C253.014 34.56 252.518 35.22 251.526 35.572C252.806 35.764 253.446 36.42 253.446 37.54C253.446 37.9 253.374 38.24 253.23 38.56C253.086 38.872 252.87 39.144 252.582 39.376C252.294 39.6 251.934 39.78 251.502 39.916C251.078 40.052 250.586 40.12 250.026 40.12C249.642 40.12 249.282 40.088 248.946 40.024C248.618 39.968 248.318 39.892 248.046 39.796C247.782 39.692 247.55 39.58 247.35 39.46C247.158 39.332 247.006 39.204 246.894 39.076V37.228C247.022 37.444 247.186 37.644 247.386 37.828C247.586 38.012 247.818 38.172 248.082 38.308C248.346 38.444 248.642 38.552 248.97 38.632C249.306 38.704 249.666 38.74 250.05 38.74C250.306 38.74 250.546 38.712 250.77 38.656C250.994 38.6 251.186 38.52 251.346 38.416C251.514 38.304 251.646 38.168 251.742 38.008C251.838 37.848 251.886 37.66 251.886 37.444C251.886 37.068 251.738 36.792 251.442 36.616C251.154 36.44 250.682 36.352 250.026 36.352H248.754V35.116H250.014C250.286 35.116 250.514 35.088 250.698 35.032C250.882 34.968 251.03 34.884 251.142 34.78C251.254 34.676 251.334 34.556 251.382 34.42C251.438 34.284 251.466 34.136 251.466 33.976C251.466 33.784 251.426 33.62 251.346 33.484C251.266 33.34 251.154 33.224 251.01 33.136C250.866 33.048 250.698 32.984 250.506 32.944C250.314 32.896 250.106 32.868 249.882 32.86C249.562 32.852 249.258 32.888 248.97 32.968C248.69 33.048 248.43 33.16 248.19 33.304C247.958 33.44 247.746 33.596 247.554 33.772C247.37 33.948 247.218 34.128 247.098 34.312V32.224ZM261.142 32.98H256.666V40H255.166V31.6H262.642V40H261.142V32.98Z" fill="#404040"/>
</svg>
