<svg width="178" height="178" viewBox="0 0 178 178" fill="none" xmlns="http://www.w3.org/2000/svg">
<g clip-path="url(#clip0)">
<path d="M170.364 120.085C152.35 161.887 104.8 179.842 67.5429 176.782C57.3702 175.946 36.9026 174.264 20.9217 159.259C-9.76914 130.447 -5.04234 70.2155 24.3371 34.7554C28.1208 30.1884 54.3096 -0.407282 95.1206 0.00211782C124.999 0.302175 145.972 17.0596 148.523 19.1473C151.744 21.7842 158.85 28.0511 165.253 37.993C180.298 61.353 181.62 93.9645 170.364 120.085Z" fill="#FBE0D0"/>
<path d="M140.133 83.8291C140.133 83.8291 141.432 67.6463 149.372 64.0965C157.312 60.5467 171.834 59.3108 174.787 36.1886C176.516 22.6479 177.477 16.7517 177.971 14.1878C178.017 13.955 178.007 13.7148 177.943 13.4862C177.88 13.2576 177.764 13.0467 177.604 12.8701C177.445 12.6934 177.246 12.5559 177.024 12.4682C176.802 12.3805 176.563 12.345 176.325 12.3646C169.093 12.9615 145.482 16.0517 139.021 31.1665C131.361 49.0854 140.133 83.8291 140.133 83.8291Z" fill="#5BD595"/>
<path d="M170.167 18.2476C161.661 24.3403 151.385 35.6147 145.312 47.3214C144.487 49.2686 142.239 53.3607 140.663 60.8761C139.302 67.1411 138.949 73.8695 139.333 78.3919C139.345 78.529 139.411 78.6559 139.517 78.7447C139.623 78.8335 139.76 78.877 139.898 78.8655C140.393 78.8236 140.383 78.2991 140.376 78.315C140.199 70.6426 141.585 61.2588 144.691 52.9824C148.614 42.832 155.99 33.3579 163.421 25.4439L164.185 24.6652C169.922 18.7301 170.993 18.7918 170.567 18.2934C170.518 18.2375 170.45 18.2018 170.376 18.1934C170.302 18.1849 170.227 18.2042 170.167 18.2476Z" fill="#4AA29A"/>
<path d="M124.861 113.629C123.797 114.017 135.785 101.868 141.278 81.4148C143.867 71.7768 145.169 59.5011 151.286 55.3505C156.376 51.8942 172.04 56.0193 177.155 57.5005C177.298 57.5419 177.426 57.6229 177.524 57.734C177.623 57.845 177.688 57.9816 177.711 58.1278C177.734 58.274 177.715 58.4237 177.656 58.5595C177.596 58.6953 177.499 58.8115 177.376 58.8946C174.66 60.721 168.802 65.0846 166.892 69.8925C164.375 76.2312 157.691 79.7403 151.977 80.2877C146.264 80.835 143.031 81.6043 139.377 90.2086C135.724 98.813 127.884 112.522 124.861 113.629Z" fill="#5BD595"/>
<path opacity="0.2" d="M124.861 113.627C123.797 114.015 135.785 101.866 141.278 81.4129C143.867 71.7748 145.169 59.4992 151.286 55.3486C156.376 51.8922 172.04 56.0174 177.155 57.4986C177.298 57.54 177.426 57.6209 177.524 57.732C177.623 57.8431 177.688 57.9797 177.711 58.1259C177.734 58.272 177.715 58.4217 177.656 58.5575C177.596 58.6933 177.499 58.8095 177.376 58.8927C174.66 60.7191 168.802 65.0826 166.892 69.8905C164.375 76.2293 157.691 79.7384 151.977 80.2857C146.264 80.8331 143.031 81.6023 139.377 90.2067C135.724 98.8111 127.884 112.52 124.861 113.627Z" fill="#404040"/>
<path d="M169.533 59.5034C162.856 59.0953 155.407 61.3718 151.196 66.6463L150.798 67.1498C149.877 68.3322 144.465 76.854 141.203 84.0446C141.194 84.0658 141.188 84.0888 141.188 84.1122C141.187 84.1355 141.191 84.1588 141.199 84.1807C141.207 84.2025 141.22 84.2225 141.236 84.2396C141.252 84.2566 141.272 84.2702 141.293 84.2798C141.336 84.2979 141.383 84.2994 141.427 84.284C141.47 84.2685 141.506 84.2373 141.527 84.1965C143.698 80.1686 146.741 75.0912 149.137 71.3074C151.716 67.1752 153.509 64.3781 158.648 62.0552C164.356 59.5702 169.539 59.787 169.524 59.7889C169.561 59.7879 169.596 59.7729 169.622 59.7472C169.648 59.7214 169.663 59.6868 169.664 59.6503C169.665 59.6139 169.652 59.5784 169.628 59.5511C169.603 59.5237 169.569 59.5067 169.533 59.5034Z" fill="#4AA29A"/>
<path d="M44.4262 12.1117C42.3158 12.2959 40.3512 13.2575 38.9187 14.8072C37.4862 16.3569 36.6896 18.3826 36.6854 20.4859C36.6092 47.1465 36.4837 139.105 38.2337 171.653C38.3225 173.314 39.0451 174.879 40.2545 176.029C41.4639 177.18 43.0694 177.83 44.7444 177.848C61.9464 178.031 111.426 178.369 139.517 176.585C142.334 176.409 144.978 175.173 146.91 173.128C148.842 171.084 149.915 168.385 149.913 165.582C149.879 137.601 149.428 58.9091 145.567 22.9398C145.344 20.8518 144.391 18.9076 142.874 17.4444C141.357 15.9813 139.372 15.0916 137.263 14.9298C118.502 13.4765 68.6819 10.017 44.4262 12.1117Z" fill="#4AA29A"/>
<path d="M43.5913 27.4737C43.2532 50.2793 42.2915 126.144 43.9704 154.144C44.2156 158.236 47.4178 161.468 51.3718 161.604C67.6505 162.168 109.395 163.257 133.182 160.659C137.466 160.191 140.738 156.505 140.853 152.042C141.448 128.769 143.055 58.11 141.423 30.4227C141.163 26.0058 137.764 22.4814 133.503 22.1966C115.878 21.0173 70.6151 18.2977 50.3908 19.9716C46.5906 20.2844 43.6496 23.5252 43.5913 27.4737Z" fill="#5BD595"/>
<path d="M82.9208 16.0769C82.9269 16.3798 83.0499 16.6688 83.2643 16.8844C83.4788 17.0999 83.7684 17.2254 84.0734 17.2352C87.2052 17.3292 96.0293 17.5975 99.9736 17.7386C100.155 17.7451 100.336 17.7102 100.502 17.6368C100.667 17.5634 100.814 17.4534 100.931 17.3151C101.047 17.1768 101.13 17.0139 101.174 16.8389C101.217 16.6639 101.22 16.4813 101.181 16.3051C101.168 16.281 101.067 15.3128 100.07 15.2441C97.4028 15.0597 89.3534 14.5633 84.035 14.8684C82.9458 14.9307 82.8863 16.164 82.9208 16.0769Z" fill="#1F5AA9"/>
<path d="M45.9108 2.25195H136.986C137.326 2.25195 137.652 2.38591 137.892 2.62435C138.132 2.86279 138.267 3.18618 138.267 3.52338V152.769C138.267 153.22 138.087 153.652 137.766 153.971C137.445 154.29 137.009 154.469 136.555 154.469H46.8073C46.3533 154.469 45.918 154.29 45.597 153.971C45.276 153.652 45.0957 153.22 45.0957 152.769V3.06185C45.0957 2.84716 45.1816 2.64126 45.3344 2.48939C45.4873 2.33752 45.6946 2.25212 45.9108 2.25195Z" fill="#4AA29A"/>
<path opacity="0.3" d="M45.9108 2.25195H136.986C137.326 2.25195 137.652 2.38591 137.892 2.62435C138.132 2.86279 138.267 3.18618 138.267 3.52338V152.769C138.267 153.22 138.087 153.652 137.766 153.971C137.445 154.29 137.009 154.469 136.555 154.469H46.8073C46.3533 154.469 45.918 154.29 45.597 153.971C45.276 153.652 45.0957 153.22 45.0957 152.769V3.06185C45.0957 2.84716 45.1816 2.64126 45.3344 2.48939C45.4873 2.33752 45.6946 2.25212 45.9108 2.25195Z" fill="#404040"/>
<path d="M47.4969 4.77344H134.93C135.384 4.77344 135.819 4.95247 136.14 5.27114C136.461 5.58981 136.641 6.02203 136.641 6.4727V149.966C136.641 150.416 136.461 150.848 136.14 151.167C135.819 151.486 135.384 151.665 134.93 151.665H48.4401C47.9861 151.665 47.5508 151.486 47.2298 151.167C46.9088 150.848 46.7285 150.416 46.7285 149.966V5.53629C46.7285 5.33397 46.8095 5.13994 46.9536 4.99687C47.0977 4.85381 47.2931 4.77344 47.4969 4.77344Z" fill="#4AA29A"/>
<path opacity="0.58" d="M47.4969 4.77344H134.93C135.384 4.77344 135.819 4.95247 136.14 5.27114C136.461 5.58981 136.641 6.02203 136.641 6.4727V149.966C136.641 150.416 136.461 150.848 136.14 151.167C135.819 151.486 135.384 151.665 134.93 151.665H48.4401C47.9861 151.665 47.5508 151.486 47.2298 151.167C46.9088 150.848 46.7285 150.416 46.7285 149.966V5.53629C46.7285 5.33397 46.8095 5.13994 46.9536 4.99687C47.0977 4.85381 47.2931 4.77344 47.4969 4.77344Z" fill="white"/>
<path d="M119.527 16.4277H65.1186C64.9075 16.4277 64.7363 16.5977 64.7363 16.8073V29.7173C64.7363 29.9269 64.9075 30.0969 65.1186 30.0969H119.527C119.738 30.0969 119.909 29.9269 119.909 29.7173V16.8073C119.909 16.5977 119.738 16.4277 119.527 16.4277Z" fill="white"/>
<path d="M126.986 89.3672H74.5181C74.3215 89.3672 74.1621 89.5254 74.1621 89.7206V96.5425C74.1621 96.7377 74.3215 96.896 74.5181 96.896H126.986C127.183 96.896 127.342 96.7377 127.342 96.5425V89.7206C127.342 89.5254 127.183 89.3672 126.986 89.3672Z" fill="white"/>
<path d="M68.9184 86.5254H55.9969C55.7872 86.5254 55.6172 86.6942 55.6172 86.9024V99.3573C55.6172 99.5655 55.7872 99.7343 55.9969 99.7343H68.9184C69.1281 99.7343 69.2981 99.5655 69.2981 99.3573V86.9024C69.2981 86.6942 69.1281 86.5254 68.9184 86.5254Z" fill="white"/>
<path d="M127.177 70.1504H74.7095C74.5129 70.1504 74.3535 70.3086 74.3535 70.5039V77.3257C74.3535 77.5209 74.5129 77.6792 74.7095 77.6792H127.177C127.374 77.6792 127.533 77.5209 127.533 77.3257V70.5039C127.533 70.3086 127.374 70.1504 127.177 70.1504Z" fill="white"/>
<path d="M69.1098 67.3105H56.1883C55.9786 67.3105 55.8086 67.4793 55.8086 67.6875V80.1424C55.8086 80.3506 55.9786 80.5194 56.1883 80.5194H69.1098C69.3195 80.5194 69.4895 80.3506 69.4895 80.1424V67.6875C69.4895 67.4793 69.3195 67.3105 69.1098 67.3105Z" fill="white"/>
<path d="M126.986 127.799H74.5181C74.3215 127.799 74.1621 127.957 74.1621 128.152V134.974C74.1621 135.169 74.3215 135.328 74.5181 135.328H126.986C127.183 135.328 127.342 135.169 127.342 134.974V128.152C127.342 127.957 127.183 127.799 126.986 127.799Z" fill="white"/>
<path d="M68.9184 124.959H55.9969C55.7872 124.959 55.6172 125.128 55.6172 125.336V137.791C55.6172 137.999 55.7872 138.168 55.9969 138.168H68.9184C69.1281 138.168 69.2981 137.999 69.2981 137.791V125.336C69.2981 125.128 69.1281 124.959 68.9184 124.959Z" fill="white"/>
<path d="M127.177 108.584H74.7095C74.5129 108.584 74.3535 108.742 74.3535 108.937V115.759C74.3535 115.954 74.5129 116.113 74.7095 116.113H127.177C127.374 116.113 127.533 115.954 127.533 115.759V108.937C127.533 108.742 127.374 108.584 127.177 108.584Z" fill="white"/>
<path d="M69.1098 105.742H56.1883C55.9786 105.742 55.8086 105.911 55.8086 106.119V118.574C55.8086 118.782 55.9786 118.951 56.1883 118.951H69.1098C69.3195 118.951 69.4895 118.782 69.4895 118.574V106.119C69.4895 105.911 69.3195 105.742 69.1098 105.742Z" fill="white"/>
<path d="M127.177 50.9336H74.7095C74.5129 50.9336 74.3535 51.0918 74.3535 51.2871V58.1089C74.3535 58.3041 74.5129 58.4624 74.7095 58.4624H127.177C127.374 58.4624 127.533 58.3041 127.533 58.1089V51.2871C127.533 51.0918 127.374 50.9336 127.177 50.9336Z" fill="white"/>
<path d="M69.1098 48.0938H56.1883C55.9786 48.0938 55.8086 48.2625 55.8086 48.4707V60.9256C55.8086 61.1338 55.9786 61.3026 56.1883 61.3026H69.1098C69.3195 61.3026 69.4895 61.1338 69.4895 60.9256V48.4707C69.4895 48.2625 69.3195 48.0938 69.1098 48.0938Z" fill="white"/>
<path d="M12.2627 153.155C12.2105 153.142 12.1633 153.113 12.1267 153.074C12.0902 153.034 12.0658 152.985 12.0565 152.932C11.9925 152.569 11.9368 152.197 11.8888 151.829C11.8843 151.792 11.8872 151.756 11.8972 151.721C11.9072 151.686 11.9241 151.653 11.947 151.625C11.9699 151.596 11.9983 151.572 12.0305 151.555C12.0627 151.537 12.0981 151.527 12.1346 151.523C12.5105 151.479 12.4445 151.862 12.6149 152.847C12.6214 152.883 12.6206 152.92 12.6124 152.956C12.6042 152.992 12.5888 153.025 12.5672 153.055C12.5455 153.085 12.5181 153.11 12.4864 153.129C12.4548 153.147 12.4196 153.16 12.3831 153.165C12.3427 153.17 12.3017 153.167 12.2627 153.155Z" fill="#213782"/>
<path d="M11.668 148.361C11.668 147.651 11.6987 146.933 11.7576 146.226C11.7608 146.19 11.7713 146.155 11.7884 146.122C11.8055 146.09 11.8289 146.061 11.8573 146.038C11.8857 146.015 11.9184 145.997 11.9536 145.987C11.9888 145.976 12.0258 145.973 12.0624 145.977C12.4876 146.017 12.2378 146.277 12.2346 148.368C12.2343 148.404 12.2267 148.441 12.2122 148.474C12.1977 148.507 12.1766 148.538 12.1502 148.563C12.1238 148.588 12.0926 148.608 12.0584 148.622C12.0242 148.635 11.9877 148.641 11.951 148.64C11.8763 148.64 11.8047 148.611 11.7517 148.558C11.6987 148.506 11.6686 148.435 11.668 148.361ZM12.2641 142.796C12.4133 142.097 12.5939 141.397 12.7936 140.728C12.9006 140.37 13.441 140.544 13.3379 140.888C13.1388 141.553 12.9652 142.233 12.8193 142.915C12.8004 142.985 12.7551 143.045 12.6928 143.083C12.6306 143.121 12.556 143.133 12.4847 143.118C12.4133 143.103 12.3506 143.061 12.3096 143.001C12.2685 142.941 12.2522 142.868 12.2641 142.796ZM14.0019 137.476C14.292 136.829 14.6121 136.185 14.9541 135.562C15.1308 135.241 15.6302 135.507 15.4548 135.826C15.1199 136.437 14.8061 137.068 14.5218 137.702C14.372 138.036 13.8527 137.809 14.0019 137.476ZM16.8929 133.011C16.8626 132.991 16.8368 132.964 16.817 132.933C16.7971 132.903 16.7836 132.869 16.7773 132.833C16.771 132.797 16.7719 132.76 16.7801 132.724C16.7883 132.689 16.8036 132.655 16.825 132.626C17.2464 132.054 17.6965 131.487 18.1633 130.946C18.4034 130.668 18.8388 131.026 18.5987 131.304C18.1415 131.833 17.7023 132.387 17.288 132.95C17.2433 133.01 17.1769 133.049 17.103 133.061C17.0291 133.072 16.9537 133.054 16.8929 133.011ZM20.6003 128.841C20.5751 128.815 20.5554 128.784 20.5424 128.75C20.5294 128.716 20.5235 128.68 20.5248 128.644C20.5262 128.607 20.5349 128.572 20.5504 128.539C20.5659 128.506 20.5879 128.476 20.6151 128.452C21.1484 127.974 21.7087 127.511 22.2799 127.075C22.5738 126.853 22.926 127.288 22.6327 127.512C22.0737 127.938 21.5256 128.391 21.0025 128.86C20.9463 128.91 20.8728 128.935 20.7976 128.932C20.7225 128.929 20.6517 128.896 20.6003 128.841ZM25.2778 125.627C25.207 125.607 25.1463 125.562 25.1081 125.5C25.0883 125.469 25.075 125.434 25.069 125.398C25.0631 125.361 25.0646 125.324 25.0736 125.289C25.0825 125.253 25.0986 125.219 25.1209 125.19C25.1433 125.161 25.1714 125.136 25.2035 125.118C25.8272 124.756 26.4726 124.415 27.1245 124.101C27.1922 124.069 27.2698 124.064 27.341 124.088C27.4121 124.111 27.4712 124.162 27.5055 124.228C27.5223 124.26 27.5323 124.296 27.5351 124.332C27.5379 124.368 27.5334 124.405 27.5217 124.439C27.5101 124.473 27.4916 124.505 27.4674 124.532C27.4431 124.56 27.4136 124.582 27.3806 124.597C26.7441 124.904 26.1115 125.239 25.5 125.593C25.4672 125.613 25.4306 125.627 25.3924 125.632C25.3542 125.638 25.3152 125.636 25.2778 125.627ZM30.4208 123.304C30.377 123.292 30.3367 123.269 30.3033 123.239C30.2699 123.208 30.2443 123.17 30.2287 123.128C30.2163 123.093 30.2109 123.057 30.2128 123.021C30.2148 122.985 30.2241 122.949 30.2402 122.916C30.2562 122.884 30.2787 122.855 30.3064 122.831C30.334 122.807 30.3662 122.789 30.401 122.777C31.0874 122.547 31.7917 122.341 32.4954 122.165C32.5679 122.146 32.6449 122.156 32.7098 122.193C32.7748 122.23 32.8224 122.291 32.8425 122.363C32.8522 122.398 32.8546 122.435 32.8498 122.471C32.8449 122.507 32.8328 122.541 32.8142 122.573C32.7955 122.604 32.7708 122.631 32.7413 122.653C32.7118 122.675 32.6783 122.69 32.6427 122.699C31.9537 122.872 31.2635 123.074 30.5905 123.299C30.5357 123.318 30.4765 123.319 30.4208 123.304ZM35.7457 121.823C35.7407 121.787 35.7432 121.75 35.7528 121.715C35.7624 121.68 35.779 121.647 35.8016 121.618C35.8242 121.59 35.8524 121.566 35.8845 121.548C35.9165 121.531 35.9519 121.519 35.9883 121.515C36.7093 121.428 37.4444 121.367 38.1731 121.334C38.5483 121.318 38.579 121.869 38.2057 121.885C37.4918 121.917 36.7714 121.977 36.0652 122.063C35.9909 122.072 35.9159 122.053 35.8562 122.008C35.7964 121.963 35.7568 121.897 35.7457 121.823ZM54.3717 126.077C52.5609 124.959 52.1831 125.015 52.3816 124.646C52.4174 124.581 52.478 124.532 52.55 124.511C52.622 124.489 52.6997 124.497 52.7658 124.533C53.4132 124.866 54.0548 125.232 54.674 125.613C54.9896 125.808 54.6912 126.274 54.3717 126.077ZM41.4374 121.65C41.4401 121.614 41.45 121.578 41.4667 121.545C41.4834 121.513 41.5065 121.484 41.5347 121.46C41.5628 121.436 41.5955 121.419 41.6307 121.408C41.6658 121.397 41.7029 121.393 41.7396 121.396C42.4657 121.454 43.1995 121.54 43.9212 121.65C44.2919 121.708 44.208 122.253 43.8379 122.195C43.1336 122.084 42.4113 122 41.6999 121.941C41.6267 121.936 41.5584 121.902 41.5093 121.848C41.4603 121.794 41.4343 121.723 41.4368 121.65H41.4374ZM49.3056 123.613C47.3072 122.878 46.9441 123.008 47.0606 122.606C47.1343 122.351 47.4448 122.415 47.4096 122.415C48.1139 122.615 48.8183 122.844 49.5002 123.094C49.5369 123.104 49.5711 123.122 49.6005 123.147C49.63 123.171 49.6541 123.201 49.6713 123.235C49.6886 123.268 49.6986 123.305 49.7008 123.343C49.703 123.381 49.6973 123.419 49.684 123.455C49.6708 123.49 49.6503 123.523 49.6238 123.55C49.5974 123.578 49.5655 123.599 49.5302 123.614C49.4949 123.628 49.457 123.636 49.4188 123.635C49.3806 123.634 49.3429 123.626 49.3081 123.61L49.3056 123.613Z" fill="#213782"/>
<path d="M58.0778 128.816C57.3645 128.192 56.9406 127.998 57.1846 127.71C57.2333 127.654 57.3024 127.619 57.377 127.612C57.4515 127.606 57.5257 127.629 57.5835 127.676C58.3474 128.293 58.7232 128.532 58.4799 128.798C58.4069 128.878 58.1975 128.919 58.0778 128.816Z" fill="#213782"/>
<path d="M67.5534 148.14C67.4954 148.124 67.4437 148.091 67.406 148.045C67.3682 147.998 67.3463 147.941 67.3434 147.881C67.3281 147.518 67.3044 147.152 67.2743 146.791C67.2714 146.755 67.2759 146.718 67.2874 146.684C67.299 146.649 67.3174 146.617 67.3415 146.59C67.3657 146.562 67.3951 146.54 67.4281 146.524C67.4611 146.508 67.497 146.499 67.5336 146.497C67.6078 146.491 67.6813 146.515 67.7384 146.562C67.7954 146.61 67.8315 146.678 67.839 146.751C67.8704 147.119 67.8934 147.494 67.9094 147.864C67.9107 147.901 67.9047 147.937 67.8917 147.971C67.8786 148.005 67.8589 148.036 67.8336 148.063C67.8084 148.089 67.778 148.11 67.7444 148.125C67.7108 148.139 67.6746 148.147 67.638 148.148C67.6095 148.149 67.581 148.147 67.5534 148.14Z" fill="#213782"/>
<path d="M31.7891 174.846C31.0354 174.62 30.2831 174.362 29.5525 174.076C29.5181 174.063 29.4866 174.043 29.4598 174.018C29.4331 173.993 29.4116 173.963 29.3966 173.93C29.3816 173.896 29.3734 173.86 29.3724 173.824C29.3715 173.787 29.3778 173.751 29.3911 173.717C29.5518 173.319 29.7459 173.659 31.9524 174.319C31.9878 174.329 32.0209 174.346 32.0498 174.369C32.0786 174.392 32.1027 174.42 32.1205 174.452C32.1384 174.484 32.1497 174.519 32.1538 174.555C32.1579 174.592 32.1547 174.629 32.1445 174.664C32.0631 174.918 31.7552 174.851 31.7891 174.846ZM35.2986 175.387C35.3627 174.964 35.6425 175.256 37.9239 175.436C37.9985 175.441 38.068 175.475 38.1173 175.531C38.1666 175.587 38.1917 175.66 38.1871 175.734C38.1843 175.77 38.1742 175.806 38.1574 175.838C38.1407 175.871 38.1176 175.9 38.0895 175.923C38.0613 175.947 38.0288 175.965 37.9937 175.976C37.9586 175.987 37.9216 175.991 37.8849 175.988C37.1043 175.924 36.3142 175.831 35.5368 175.706C35.5 175.701 35.4646 175.689 35.4327 175.67C35.4008 175.651 35.3729 175.626 35.3508 175.596C35.3286 175.566 35.3126 175.533 35.3037 175.497C35.2947 175.461 35.293 175.424 35.2986 175.387ZM26.0781 172.443C25.3936 172.062 24.7162 171.65 24.065 171.214C24.0346 171.194 24.0085 171.169 23.9882 171.139C23.9679 171.109 23.9538 171.075 23.9467 171.039C23.9396 171.004 23.9397 170.967 23.9469 170.932C23.9541 170.896 23.9684 170.863 23.9888 170.833C24.2353 170.48 24.3474 170.853 26.3548 171.967C26.387 171.985 26.4154 172.008 26.4383 172.037C26.4612 172.065 26.4783 172.098 26.4884 172.133C26.4985 172.168 26.5015 172.205 26.4973 172.241C26.493 172.277 26.4816 172.312 26.4636 172.344C26.4252 172.407 26.3635 172.453 26.2916 172.471C26.2196 172.49 26.1433 172.48 26.0788 172.443H26.0781ZM41.6288 176.023C41.5719 176.008 41.5212 175.976 41.4836 175.931C41.4459 175.887 41.4233 175.831 41.4188 175.773C41.4165 175.737 41.4216 175.7 41.4337 175.666C41.4458 175.631 41.4647 175.6 41.4892 175.573C41.5138 175.546 41.5436 175.524 41.5767 175.508C41.6099 175.493 41.6459 175.484 41.6826 175.482C42.4509 175.44 43.2251 175.366 43.9839 175.261C44.0579 175.25 44.1333 175.269 44.1937 175.312C44.2542 175.356 44.2949 175.422 44.3072 175.495C44.3127 175.531 44.3109 175.568 44.3019 175.603C44.2929 175.638 44.2769 175.671 44.2548 175.701C44.2328 175.73 44.2051 175.754 44.1734 175.772C44.1417 175.79 44.1066 175.802 44.0703 175.807C43.2955 175.914 42.5054 175.99 41.721 176.033C41.6901 176.035 41.6592 176.031 41.6294 176.023H41.6288ZM47.6586 175.031C47.6119 175.019 47.5691 174.995 47.5343 174.961C47.4995 174.928 47.4737 174.886 47.4595 174.84C47.449 174.806 47.4457 174.769 47.4497 174.733C47.4537 174.697 47.465 174.661 47.4829 174.63C47.5008 174.598 47.525 174.57 47.554 174.548C47.5829 174.525 47.6161 174.509 47.6516 174.5C48.3879 174.295 49.1243 174.055 49.8408 173.791C49.9109 173.765 49.9885 173.767 50.057 173.797C50.1255 173.827 50.1796 173.882 50.2077 173.951C50.2212 173.985 50.2278 174.021 50.227 174.057C50.2263 174.093 50.2182 174.129 50.2033 174.162C50.1883 174.195 50.1669 174.225 50.1401 174.25C50.1134 174.275 50.0819 174.294 50.0476 174.306C49.3164 174.577 48.5646 174.821 47.8136 175.031C47.7631 175.044 47.7098 175.045 47.6592 175.031H47.6586ZM53.3042 172.772C53.2676 172.762 53.2332 172.745 53.2032 172.722C53.1732 172.699 53.1481 172.67 53.1294 172.638C53.1113 172.606 53.0997 172.571 53.0953 172.535C53.091 172.499 53.094 172.463 53.1041 172.428C53.1143 172.393 53.1314 172.361 53.1544 172.332C53.1775 172.304 53.206 172.281 53.2383 172.264C53.9093 171.906 54.5733 171.516 55.2111 171.104C55.2742 171.064 55.3505 171.05 55.4239 171.065C55.4973 171.08 55.562 171.122 55.6042 171.184C55.6249 171.214 55.6394 171.247 55.6468 171.283C55.6542 171.318 55.6543 171.355 55.6472 171.39C55.6401 171.426 55.6259 171.46 55.6054 171.49C55.585 171.52 55.5587 171.545 55.528 171.565C54.8769 171.985 54.2 172.383 53.5149 172.748C53.4506 172.782 53.3754 172.791 53.3049 172.772H53.3042ZM58.2948 169.363C58.2416 169.348 58.1937 169.319 58.1565 169.279C58.1318 169.252 58.1127 169.22 58.1005 169.186C58.0882 169.152 58.083 169.115 58.0851 169.079C58.0873 169.043 58.0968 169.007 58.113 168.975C58.1292 168.942 58.1519 168.913 58.1796 168.889C58.7527 168.397 59.3117 167.872 59.8406 167.337C59.8933 167.284 59.9646 167.254 60.0394 167.253C60.1141 167.252 60.1864 167.28 60.2408 167.331C60.2678 167.355 60.2896 167.385 60.3049 167.418C60.3201 167.451 60.3285 167.487 60.3296 167.523C60.3307 167.559 60.3244 167.596 60.3111 167.63C60.2978 167.663 60.2778 167.694 60.2523 167.72C59.7125 168.27 59.1426 168.801 58.5567 169.305C58.5212 169.335 58.4788 169.356 58.4333 169.366C58.3878 169.376 58.3405 169.375 58.2955 169.363H58.2948ZM62.2994 164.923C61.9414 164.669 62.325 164.576 63.4999 162.665C63.692 162.353 64.1787 162.64 63.9872 162.952C63.5864 163.604 63.1548 164.248 62.6944 164.864C62.6496 164.923 62.5831 164.963 62.5094 164.974C62.4356 164.985 62.3605 164.967 62.3 164.923H62.2994ZM65.3466 159.774C64.9407 159.604 65.2909 159.432 66.0029 157.308C66.1182 156.964 66.658 157.138 66.5421 157.485C66.2994 158.209 66.0215 158.932 65.718 159.631C65.6879 159.699 65.6321 159.752 65.5627 159.779C65.4932 159.806 65.4158 159.805 65.3473 159.776L65.3466 159.774ZM67.126 154.085C67.0579 154.067 66.9989 154.025 66.9609 153.966C66.9228 153.907 66.9084 153.836 66.9205 153.767C67.0575 153.029 67.1651 152.278 67.2407 151.538C67.2446 151.501 67.2558 151.466 67.2735 151.434C67.2913 151.402 67.3152 151.374 67.3439 151.351C67.3727 151.329 67.4057 151.312 67.441 151.302C67.4764 151.292 67.5134 151.289 67.5499 151.293C67.6243 151.3 67.693 151.336 67.7409 151.393C67.7889 151.449 67.8123 151.523 67.8061 151.597C67.7311 152.353 67.6223 153.118 67.4821 153.872C67.4749 153.908 67.4608 153.942 67.4403 153.972C67.4198 154.003 67.3935 154.029 67.3629 154.049C67.3322 154.069 67.2978 154.083 67.2617 154.09C67.2256 154.098 67.1884 154.097 67.1523 154.09C67.1437 154.09 67.1351 154.089 67.1267 154.087L67.126 154.085Z" fill="#213782"/>
<path d="M21.0231 168.87C20.288 168.219 19.9243 167.964 20.1823 167.71C20.4506 167.444 20.6491 167.797 21.4021 168.464C21.4297 168.488 21.4522 168.517 21.4683 168.55C21.4844 168.582 21.4937 168.618 21.4956 168.654C21.4976 168.691 21.4922 168.727 21.4798 168.761C21.4673 168.796 21.4481 168.827 21.4232 168.854C21.3718 168.908 21.3012 168.939 21.2265 168.942C21.1518 168.946 21.0788 168.92 21.0231 168.87Z" fill="#213782"/>
<path d="M23.4319 161.625L27.3877 160.752C28.7682 162.081 30.3543 163.183 32.0857 164.014C32.612 167.832 32.3764 168.137 32.8022 168.235L37.5642 169.321C37.6314 169.337 37.7018 169.332 37.7658 169.306C37.8298 169.28 37.8842 169.236 37.9215 169.178L40.0505 165.832C41.9717 165.834 43.8807 165.529 45.7045 164.93L48.8862 167.432C48.9403 167.474 49.0059 167.499 49.0745 167.504C49.143 167.508 49.2113 167.492 49.2704 167.457L53.3883 164.956C53.4468 164.921 53.4924 164.868 53.5186 164.806C53.5447 164.743 53.55 164.674 53.5336 164.608L52.5904 160.747C53.9353 159.426 55.0503 157.894 55.89 156.211L59.9335 155.813C60.0019 155.807 60.0666 155.78 60.1184 155.735C60.1703 155.69 60.2066 155.631 60.2223 155.564L61.2833 150.941C61.2982 150.875 61.2915 150.805 61.2644 150.742C61.2373 150.68 61.1911 150.627 61.1322 150.592L57.6694 148.48C57.6476 146.6 57.3125 144.737 56.6776 142.966C59.0877 139.914 59.4648 139.879 59.2324 139.521C56.5956 135.605 56.6891 135.242 56.2556 135.337L52.2991 136.211C50.9191 134.88 49.3332 133.778 47.6018 132.946C47.0754 129.132 47.3111 128.824 46.8852 128.726C42.1354 127.727 41.9945 127.422 41.7627 127.782L39.6356 131.129C37.7144 131.126 35.8054 131.431 33.9817 132.031C30.8608 129.679 30.7846 129.278 30.4132 129.504C26.3824 132.047 26.0475 131.935 26.1494 132.352L27.0932 136.214C25.7482 137.534 24.633 139.065 23.793 140.747C19.9454 141.207 19.5618 140.973 19.4651 141.395C18.4982 145.988 18.1807 146.14 18.5552 146.368L22.0174 148.48C22.0396 150.36 22.375 152.223 23.0099 153.994C20.6074 157.032 20.222 157.079 20.455 157.44C23.0919 161.358 22.9984 161.721 23.4319 161.625Z" fill="#213782"/>
<path opacity="0.6" d="M35.0898 148.556C35.0168 146.003 37.0901 143.892 39.7122 143.852C42.3343 143.812 44.5273 145.853 44.601 148.406C44.6746 150.959 42.6006 153.071 39.9785 153.111C37.3539 153.153 35.1615 151.108 35.0898 148.556ZM39.7339 144.679C37.6056 144.712 35.8767 146.415 35.9382 148.543C35.9984 150.641 37.7989 152.319 39.9529 152.284C42.1069 152.249 43.8095 150.515 43.7487 148.418C43.6879 146.322 41.8835 144.643 39.7339 144.678V144.679Z" fill="white"/>
<path opacity="0.6" d="M36.7886 159.86C36.111 159.677 35.45 159.438 34.8126 159.146C34.7226 159.105 34.6498 159.035 34.6072 158.946C34.5646 158.858 34.5548 158.757 34.5795 158.662C34.5858 158.639 34.5941 158.616 34.6045 158.595C34.6536 158.495 34.7403 158.418 34.8459 158.381C34.9515 158.345 35.0675 158.351 35.1686 158.398C35.9033 158.735 36.6711 158.995 37.4597 159.175C43.4146 160.534 49.34 157.059 50.8934 151.389C50.9331 151.244 50.9698 151.097 51.0036 150.95C52.3732 144.985 48.4935 139.062 42.3965 137.669C36.2994 136.277 30.2196 139.946 28.8513 145.897C28.0387 149.439 29.2611 151.647 29.1606 152.013C29.0524 152.408 28.4793 152.418 28.3467 152.028C27.6001 149.835 27.5281 147.471 28.1399 145.236C30.8606 135.304 44.5428 133.412 50.2211 142.173C51.9692 144.87 52.541 148.054 51.8321 151.141C51.7956 151.302 51.7553 151.459 51.7124 151.618C50.9242 154.497 49.0762 156.935 46.4689 158.519C43.7194 160.189 40.4538 160.709 37.2733 159.981C37.1113 159.947 36.9474 159.903 36.7886 159.86Z" fill="white"/>
<path d="M14.0969 119.731C14.9869 120.478 15.9934 121.075 17.0769 121.5L17.5322 123.899C17.5827 124.164 17.7953 124.026 20.621 124.485C20.8816 124.523 20.8131 124.298 21.9606 122.211C23.1212 122.113 24.2579 121.828 25.3261 121.367L27.3578 122.744C27.5838 122.897 27.6325 122.647 29.96 120.991C29.9937 120.966 30.0187 120.931 30.0316 120.891C30.0444 120.851 30.0445 120.809 30.0317 120.769L29.287 118.442C30.0387 117.558 30.6401 116.559 31.0677 115.483C33.3677 115.003 33.6072 115.126 33.6463 114.862C34.0196 111.985 34.2034 111.878 33.9664 111.756L31.783 110.634C31.6846 109.482 31.3976 108.353 30.9333 107.292L32.3215 105.273C32.4752 105.05 32.2241 105.001 30.5549 102.69C30.3986 102.481 30.2942 102.683 27.9872 103.359C27.0972 102.612 26.0907 102.015 25.0072 101.59L24.5519 99.1921C24.5013 98.9251 24.2887 99.065 21.463 98.6054C21.2037 98.5672 21.2741 98.7815 20.1241 100.879C18.9633 100.976 17.8263 101.262 16.758 101.723L14.7282 100.348C14.6935 100.324 14.6523 100.312 14.6103 100.313C14.5683 100.314 14.5276 100.328 14.4939 100.352L12.1247 102.101C12.0909 102.126 12.0658 102.161 12.0528 102.201C12.0398 102.24 12.0397 102.283 12.0524 102.323L12.7977 104.65C12.0452 105.534 11.4428 106.533 11.0144 107.609C8.71504 108.09 8.47492 107.966 8.43586 108.229C8.06256 111.106 7.87879 111.217 8.11571 111.336L10.2998 112.457C10.3984 113.609 10.6856 114.738 11.1502 115.799C9.86568 117.752 9.607 117.833 9.76771 118.049L11.5292 120.401C11.6867 120.61 11.8014 120.403 14.0969 119.731Z" fill="#213782"/>
<path opacity="0.6" d="M17.9785 111.858C17.9173 111.257 18.0371 110.651 18.3226 110.117C18.6082 109.583 19.0468 109.145 19.5829 108.859C20.119 108.573 20.7286 108.45 21.3346 108.508C21.9406 108.566 22.5159 108.8 22.9876 109.182C23.4593 109.564 23.8064 110.077 23.9848 110.655C24.1633 111.232 24.1653 111.85 23.9904 112.429C23.8155 113.008 23.4716 113.522 23.0023 113.907C22.533 114.292 21.9592 114.53 21.3536 114.591C20.541 114.673 19.7292 114.43 19.0964 113.918C18.4637 113.405 18.0616 112.664 17.9785 111.858ZM18.8896 111.765C18.9485 112.331 19.2309 112.851 19.675 113.21C20.1192 113.569 20.6887 113.739 21.2588 113.682C23.1625 113.492 23.8937 111.089 22.405 109.885C20.9162 108.68 18.6976 109.863 18.8896 111.765Z" fill="white"/>
<path d="M6.56404 118.597C6.38155 118.228 6.21187 117.848 6.05883 117.465C6.04396 117.428 6.03659 117.388 6.03714 117.349C6.03768 117.309 6.04614 117.269 6.06202 117.233C6.07789 117.196 6.10089 117.163 6.12968 117.135C6.15847 117.107 6.19249 117.086 6.2298 117.071C6.62487 116.914 6.64344 117.379 7.11343 118.329C7.14689 118.401 7.15065 118.483 7.1239 118.558C7.09716 118.633 7.04204 118.694 6.97031 118.729C6.89858 118.764 6.81594 118.77 6.74003 118.745C6.66411 118.72 6.60096 118.667 6.56404 118.597Z" fill="#213782"/>
<path d="M5.04391 113.532C4.93958 112.703 4.89997 111.868 4.92545 111.033C4.93826 110.631 5.54976 110.652 5.53695 111.052C5.4678 113.269 5.89297 113.734 5.3852 113.796C5.34533 113.801 5.30487 113.798 5.26612 113.788C5.22738 113.777 5.19112 113.759 5.15941 113.734C5.12771 113.71 5.10119 113.679 5.08137 113.645C5.06155 113.61 5.04882 113.572 5.04391 113.532ZM5.77771 107.401C5.69998 107.379 5.63455 107.326 5.59578 107.255C5.55701 107.185 5.54806 107.102 5.57089 107.024C5.80913 106.223 6.11014 105.442 6.47117 104.687C6.64469 104.324 7.19729 104.584 7.02376 104.947C6.67614 105.673 6.38668 106.425 6.15806 107.196C6.07418 107.478 5.74121 107.406 5.77771 107.401ZM8.832 101.759C8.78932 101.748 8.7497 101.727 8.71611 101.699C8.68523 101.673 8.65974 101.642 8.6411 101.607C8.62245 101.571 8.61102 101.533 8.60745 101.493C8.60388 101.453 8.60824 101.413 8.6203 101.375C8.63235 101.337 8.65186 101.302 8.67769 101.271C9.21677 100.631 9.80506 100.033 10.4373 99.4835C10.4988 99.4341 10.5772 99.4102 10.6561 99.4169C10.7349 99.4237 10.8081 99.4605 10.8602 99.5196C10.9123 99.5788 10.9393 99.6557 10.9356 99.7341C10.9318 99.8126 10.8976 99.8866 10.84 99.9406C10.2309 100.47 9.66399 101.045 9.14448 101.661C9.10719 101.705 9.05797 101.738 9.00262 101.755C8.94726 101.772 8.88807 101.774 8.832 101.759ZM13.8905 97.7861C13.8306 97.7702 13.777 97.7364 13.7369 97.6895C13.6967 97.6425 13.672 97.5845 13.6659 97.5232C13.6597 97.4619 13.6726 97.4003 13.7026 97.3464C13.7327 97.2925 13.7786 97.249 13.8341 97.2216C14.5866 96.848 15.3676 96.534 16.17 96.2827C16.2462 96.2623 16.3274 96.272 16.3966 96.3097C16.4658 96.3473 16.5177 96.4101 16.5414 96.4848C16.5651 96.5596 16.5589 96.6405 16.5239 96.7108C16.4889 96.781 16.428 96.8351 16.3538 96.8618C15.5823 97.1037 14.8313 97.4056 14.1075 97.7645C14.0402 97.7984 13.9626 97.8061 13.8898 97.7861H13.8905ZM19.9024 95.879C19.8985 95.7988 19.9268 95.7204 19.9811 95.6608C20.0353 95.6013 20.1111 95.5654 20.1918 95.5611C21.0321 95.5174 21.8745 95.5387 22.7114 95.6247C23.1123 95.6635 23.0521 96.27 22.6474 96.2286C21.8421 96.1467 21.0315 96.1274 20.2232 96.1708C20.1827 96.1728 20.1422 96.1667 20.1041 96.1531C20.0659 96.1394 20.0309 96.1184 20.001 96.0912C19.9711 96.064 19.947 96.0312 19.9299 95.9946C19.9129 95.9581 19.9033 95.9186 19.9017 95.8784L19.9024 95.879Z" fill="#213782"/>
<path d="M27.5977 97.5818C26.5809 97.1101 26.1685 97.1126 26.3132 96.7293C26.3271 96.6917 26.3484 96.6572 26.3758 96.6279C26.4032 96.5985 26.4362 96.5749 26.4729 96.5583C26.5096 96.5418 26.5493 96.5326 26.5896 96.5314C26.6299 96.5302 26.67 96.5369 26.7077 96.5513C27.0919 96.6956 27.4799 96.857 27.8564 97.0312C27.8955 97.0461 27.9311 97.0689 27.961 97.098C27.9909 97.1271 28.0145 97.162 28.0303 97.2006C28.046 97.2391 28.0536 97.2805 28.0527 97.3221C28.0517 97.3636 28.0421 97.4046 28.0245 97.4423C28.007 97.4801 27.9818 97.5139 27.9505 97.5416C27.9193 97.5693 27.8826 97.5903 27.8429 97.6034C27.8031 97.6165 27.761 97.6213 27.7193 97.6176C27.6776 97.6139 27.6371 97.6017 27.6003 97.5818H27.5977Z" fill="#213782"/>
<path d="M35.8908 107.079C35.5649 106.008 35.2889 105.709 35.6738 105.56C35.7112 105.545 35.7512 105.538 35.7914 105.539C35.8316 105.54 35.8712 105.549 35.908 105.565C35.9448 105.581 35.9781 105.604 36.0059 105.633C36.0337 105.662 36.0555 105.696 36.0701 105.733C36.2193 106.114 36.3563 106.508 36.4761 106.903C36.4898 106.942 36.4955 106.983 36.4928 107.024C36.4901 107.065 36.4791 107.105 36.4604 107.141C36.4418 107.178 36.4158 107.21 36.3841 107.237C36.3525 107.263 36.3157 107.283 36.2762 107.295C36.2366 107.307 36.195 107.311 36.1539 107.306C36.1128 107.302 36.0731 107.289 36.0371 107.269C36.0011 107.249 35.9695 107.221 35.9444 107.189C35.9193 107.156 35.901 107.119 35.8908 107.079Z" fill="#213782"/>
<path d="M18.3136 127.02C18.3911 126.522 18.8304 126.949 21.0407 126.947C21.4441 126.947 21.4467 127.553 21.0407 127.554C20.2134 127.553 19.3872 127.49 18.5698 127.363C18.4902 127.351 18.4186 127.308 18.3707 127.244C18.3227 127.18 18.3022 127.099 18.3136 127.02ZM24.6585 126.839C24.6486 126.8 24.6465 126.76 24.6523 126.72C24.6581 126.681 24.6716 126.643 24.6922 126.609C24.7128 126.575 24.74 126.545 24.7722 126.521C24.8044 126.497 24.8411 126.48 24.88 126.47C27.0398 125.926 27.3388 125.407 27.5393 125.873C27.5711 125.947 27.5719 126.031 27.5417 126.106C27.5114 126.18 27.4525 126.24 27.3779 126.272C26.6167 126.593 25.8317 126.856 25.0299 127.059C24.9906 127.069 24.9495 127.072 24.9091 127.067C24.8687 127.061 24.8297 127.048 24.7946 127.028C24.7594 127.007 24.7288 126.98 24.7044 126.947C24.68 126.915 24.6625 126.878 24.6527 126.839H24.6585ZM30.4213 124.201C30.1114 123.8 30.721 123.785 32.2526 122.195C32.5324 121.906 32.9749 122.323 32.6951 122.615C32.1231 123.209 31.5062 123.758 30.8497 124.258C30.8176 124.283 30.7809 124.301 30.7415 124.312C30.7022 124.323 30.661 124.326 30.6206 124.32C30.5801 124.315 30.5411 124.302 30.5059 124.281C30.4707 124.261 30.44 124.234 30.4155 124.201H30.4213ZM34.6749 119.526C34.2305 119.277 34.7882 119.026 35.5713 116.968C35.7135 116.593 36.2866 116.806 36.1438 117.182C35.8516 117.951 35.5005 118.696 35.0937 119.411C35.0738 119.446 35.047 119.478 35.0148 119.503C34.9826 119.528 34.9458 119.546 34.9064 119.557C34.867 119.568 34.8258 119.57 34.7853 119.565C34.7448 119.56 34.7057 119.547 34.6704 119.526H34.6749ZM36.4678 113.233C36.7098 111.035 36.325 110.572 36.8353 110.549C36.8755 110.547 36.9157 110.553 36.9536 110.567C36.9914 110.58 37.0262 110.601 37.056 110.628C37.0857 110.655 37.1098 110.688 37.1269 110.724C37.1439 110.76 37.1537 110.799 37.1555 110.839C37.1924 111.66 37.1661 112.482 37.0767 113.299C37.0653 113.376 37.0241 113.447 36.9617 113.495C36.8992 113.543 36.8204 113.565 36.7418 113.557C36.6632 113.549 36.5908 113.511 36.5398 113.451C36.4888 113.391 36.4633 113.313 36.4684 113.235L36.4678 113.233Z" fill="#213782"/>
<path d="M14.6869 126.26C14.3065 126.097 13.9275 125.918 13.5618 125.727C13.5263 125.709 13.4948 125.683 13.4691 125.653C13.4434 125.622 13.424 125.587 13.4121 125.549C13.4002 125.511 13.396 125.471 13.3997 125.431C13.4035 125.391 13.415 125.353 13.4338 125.317C13.631 124.943 13.946 125.283 14.9289 125.699C14.9671 125.714 15.0019 125.736 15.0312 125.764C15.0605 125.793 15.0837 125.827 15.0996 125.865C15.1154 125.902 15.1234 125.942 15.1232 125.983C15.123 126.024 15.1146 126.064 15.0984 126.102C15.0822 126.139 15.0586 126.173 15.029 126.201C14.9994 126.229 14.9644 126.251 14.9261 126.266C14.8878 126.28 14.8469 126.287 14.8059 126.285C14.7649 126.284 14.7247 126.274 14.6875 126.257L14.6869 126.26Z" fill="#213782"/>
<path opacity="0.6" d="M18.4415 118.561C18.3829 118.543 18.3287 118.513 18.282 118.473C18.2354 118.433 18.1972 118.385 18.1698 118.33C18.1424 118.275 18.1263 118.216 18.1226 118.155C18.1188 118.094 18.1273 118.033 18.1477 117.976C18.1681 117.918 18.2 117.865 18.2414 117.82C18.2828 117.775 18.3328 117.738 18.3887 117.713C18.4445 117.687 18.5049 117.673 18.5663 117.671C18.6277 117.669 18.6889 117.68 18.7463 117.702C19.1906 117.866 19.6512 117.984 20.1204 118.052C20.9858 118.179 21.868 118.135 22.7163 117.922C23.5645 117.71 24.3622 117.333 25.0636 116.814C29.8019 113.313 27.9053 105.816 22.0541 104.966C20.4444 104.734 18.8049 105.094 17.4438 105.978C16.0828 106.863 15.0941 108.21 14.6636 109.767C13.7858 112.971 15.6081 114.259 14.6899 114.638C14.5775 114.684 14.4511 114.684 14.3386 114.638C14.2261 114.592 14.1366 114.503 14.0899 114.392C13.5765 113.162 13.4006 111.82 13.5799 110.501C13.7593 109.183 14.2875 107.935 15.1109 106.885C15.9342 105.835 17.0232 105.021 18.2669 104.525C19.5105 104.029 20.8644 103.869 22.1905 104.062C26.6464 104.71 29.606 109.095 28.4015 113.495C27.4296 117.044 23.895 119.52 19.991 118.951C19.4622 118.875 18.9428 118.745 18.4415 118.561Z" fill="white"/>
</g>
<defs>
<clipPath id="clip0">
<rect width="178" height="178" fill="white"/>
</clipPath>
</defs>
</svg>
