<svg width="178" height="178" viewBox="0 0 178 178" fill="none" xmlns="http://www.w3.org/2000/svg">
<g clip-path="url(#clip0)">
<path d="M170.539 120.345C153.27 160.565 107.267 183.096 67.3739 177.018C60.8824 176.03 43.0863 173.084 27.3327 159.185C-3.00217 132.43 -9.4891 79.4514 14.9791 42.1159C32.7874 14.9398 64.7104 -0.461644 95.0434 0.308841C101.577 0.474763 126.617 1.49763 148.623 19.4438C151.856 22.0801 158.985 28.3438 165.41 38.2826C180.497 61.6203 181.794 94.1333 170.539 120.345Z" fill="#FBE0D0"/>
<path d="M64.5506 160.287C64.5506 160.287 46.4845 96.6179 14.7851 62.4407C12.6545 60.1432 9.05531 61.1413 8.4473 64.2086C4.38084 84.7174 -2.08937 146.776 64.5506 160.287Z" fill="#5BD595"/>
<path opacity="0.5" d="M58.2939 156.313C58.4507 156.461 58.2695 156.708 58.0966 156.582C51.7106 151.928 26.7366 128.899 15.268 82.0244C15.262 82.0097 15.2593 81.994 15.2598 81.9783C15.2604 81.9625 15.2643 81.9471 15.2713 81.9329C15.2782 81.9187 15.2881 81.9061 15.3003 81.8959C15.3124 81.8857 15.3266 81.8782 15.3419 81.8737C15.3572 81.8693 15.3732 81.8681 15.389 81.8701C15.4048 81.8721 15.42 81.8774 15.4336 81.8856C15.4473 81.8938 15.459 81.9048 15.4681 81.9177C15.4772 81.9306 15.4835 81.9453 15.4865 81.9608C19.0883 92.7991 33.5558 132.745 58.2939 156.313Z" fill="#4AA29A"/>
<path d="M64.8739 137.055C64.8739 137.055 74.2518 90.0456 63.8546 57.4093C63.1559 55.2155 60.2856 54.6471 58.797 56.4138C48.8465 68.2311 22.8165 105.951 64.8739 137.055Z" fill="#5BD595"/>
<path opacity="0.5" d="M61.8607 132.393C61.8714 132.422 61.8704 132.455 61.858 132.484C61.8457 132.513 61.8227 132.537 61.7938 132.55C61.7648 132.564 61.7318 132.566 61.7013 132.556C61.6708 132.547 61.6449 132.527 61.6287 132.499C58.7641 127.36 49.2243 104.154 57.4118 70.1607C57.4175 70.139 57.4311 70.1202 57.4502 70.108C57.4692 70.0958 57.4922 70.0912 57.5145 70.0951C57.5368 70.0989 57.5568 70.111 57.5706 70.1288C57.5843 70.1466 57.5907 70.1689 57.5886 70.1912C56.3604 78.3729 52.6744 108.921 61.8607 132.393Z" fill="#4AA29A"/>
<path d="M99.8066 135.943C99.8066 135.943 117.335 79.677 147.798 50.3528C149.845 48.3821 153.286 49.4189 153.856 52.1881C157.67 70.7071 163.627 126.512 99.8066 135.943Z" fill="#5BD595"/>
<path opacity="0.5" d="M105.811 132.636C105.778 132.66 105.756 132.697 105.75 132.738C105.744 132.778 105.754 132.82 105.779 132.853C105.804 132.886 105.841 132.908 105.882 132.913C105.924 132.919 105.965 132.909 105.999 132.884C112.124 128.974 136.107 109.358 147.261 67.8615C147.27 67.8341 147.268 67.8043 147.255 67.7785C147.242 67.7528 147.219 67.7332 147.191 67.7242C147.163 67.7152 147.133 67.7174 147.107 67.7304C147.081 67.7434 147.061 67.7661 147.052 67.7935C143.564 77.3534 129.571 112.529 105.811 132.636Z" fill="#4AA29A"/>
<path d="M75.9357 84.9883H117.809C118.15 84.9883 118.488 85.0547 118.803 85.1839C119.119 85.313 119.405 85.5023 119.646 85.7409C119.887 85.9795 120.079 86.2628 120.209 86.5745C120.34 86.8863 120.407 87.2204 120.407 87.5578V177.546H73.3379V87.5578C73.3379 86.8764 73.6116 86.2228 74.0988 85.7409C74.586 85.259 75.2468 84.9883 75.9357 84.9883Z" fill="#4AA29A"/>
<path opacity="0.3" d="M75.9357 84.9883H117.809C118.15 84.9883 118.488 85.0547 118.803 85.1839C119.119 85.313 119.405 85.5023 119.646 85.7409C119.887 85.9795 120.079 86.2628 120.209 86.5745C120.34 86.8863 120.407 87.2204 120.407 87.5578V177.546H73.3379V87.5578C73.3379 86.8764 73.6116 86.2228 74.0988 85.7409C74.586 85.259 75.2468 84.9883 75.9357 84.9883Z" fill="#404040"/>
<path d="M63.978 84.9883H105.855C106.544 84.9883 107.205 85.259 107.692 85.7409C108.179 86.2228 108.453 86.8764 108.453 87.5578V177.546H61.3789V87.5578C61.3789 87.2203 61.4461 86.886 61.5768 86.5742C61.7074 86.2624 61.8989 85.9791 62.1403 85.7404C62.3816 85.5018 62.6682 85.3126 62.9835 85.1835C63.2988 85.0545 63.6368 84.9881 63.978 84.9883Z" fill="#4AA29A"/>
<path opacity="0.76" d="M64.5374 102.277C64.4509 102.277 64.368 102.243 64.3068 102.182C64.2456 102.122 64.2111 102.04 64.2109 101.954V95.3879C64.2109 91.8871 66.8094 89.0391 70.0031 89.0391H79.0429C79.1293 89.0391 79.2122 89.073 79.2733 89.1335C79.3344 89.1939 79.3688 89.2759 79.3688 89.3614C79.3688 89.4469 79.3344 89.5288 79.2733 89.5893C79.2122 89.6497 79.1293 89.6837 79.0429 89.6837H70.0031C67.1687 89.6837 64.8614 92.2424 64.8614 95.3879V101.954C64.8612 102.039 64.8271 102.121 64.7665 102.182C64.7058 102.242 64.6235 102.276 64.5374 102.277Z" fill="white"/>
<path opacity="0.76" d="M64.5374 109.238C64.451 109.238 64.368 109.204 64.3068 109.144C64.2456 109.084 64.2111 109.002 64.2109 108.916V106.24C64.2147 106.157 64.2507 106.079 64.3114 106.021C64.3722 105.964 64.453 105.932 64.5371 105.932C64.6212 105.932 64.702 105.964 64.7628 106.021C64.8236 106.079 64.8596 106.157 64.8633 106.24V108.916C64.8631 109.001 64.8287 109.083 64.7677 109.144C64.7066 109.204 64.6238 109.238 64.5374 109.238Z" fill="white"/>
<path d="M28.1044 112.172H63.4685C64.1575 112.172 64.8183 112.443 65.3054 112.924C65.7926 113.406 66.0663 114.06 66.0663 114.741V177.546H25.5059V114.741C25.5059 114.404 25.5731 114.07 25.7037 113.758C25.8343 113.446 26.0257 113.163 26.267 112.924C26.5083 112.686 26.7947 112.496 27.11 112.367C27.4253 112.238 27.7631 112.172 28.1044 112.172Z" fill="#4AA29A"/>
<path d="M16.1467 112.172H51.5108C52.1998 112.172 52.8606 112.443 53.3478 112.924C53.8349 113.406 54.1087 114.06 54.1087 114.741V177.546H13.5488V114.741C13.5488 114.06 13.8225 113.406 14.3097 112.924C14.7969 112.443 15.4577 112.172 16.1467 112.172Z" fill="#4AA29A"/>
<g opacity="0.73">
<path opacity="0.73" d="M16.8962 130.794C16.8097 130.794 16.7269 130.76 16.6658 130.699C16.6046 130.639 16.5703 130.557 16.5703 130.471V122.724C16.5703 118.625 19.6097 115.291 23.3452 115.291H34.0104C34.0944 115.295 34.1737 115.33 34.2318 115.39C34.29 115.451 34.3224 115.53 34.3224 115.614C34.3224 115.697 34.29 115.777 34.2318 115.837C34.1737 115.897 34.0944 115.933 34.0104 115.936H23.3452C19.969 115.936 17.222 118.981 17.222 122.724V130.471C17.222 130.557 17.1877 130.639 17.1266 130.699C17.0655 130.76 16.9826 130.794 16.8962 130.794Z" fill="white"/>
<path opacity="0.73" d="M16.8962 139.008C16.8097 139.008 16.7269 138.974 16.6658 138.914C16.6046 138.853 16.5703 138.771 16.5703 138.686V135.529C16.5703 135.444 16.6046 135.362 16.6658 135.301C16.7269 135.241 16.8097 135.207 16.8962 135.207C16.9826 135.207 17.0655 135.241 17.1266 135.301C17.1877 135.362 17.222 135.444 17.222 135.529V138.686C17.222 138.771 17.1877 138.853 17.1266 138.914C17.0655 138.974 16.9826 139.008 16.8962 139.008Z" fill="white"/>
</g>
<path d="M128.093 112.172H163.457C164.146 112.172 164.807 112.443 165.294 112.924C165.782 113.406 166.055 114.06 166.055 114.741V177.546H125.494V114.741C125.494 114.404 125.561 114.07 125.692 113.758C125.823 113.446 126.014 113.163 126.255 112.924C126.497 112.685 126.783 112.496 127.099 112.367C127.414 112.238 127.752 112.172 128.093 112.172Z" fill="#4AA29A"/>
<path opacity="0.3" d="M128.093 112.172H163.457C164.146 112.172 164.807 112.443 165.294 112.924C165.782 113.406 166.055 114.06 166.055 114.741V177.546H125.494V114.741C125.494 114.404 125.561 114.07 125.692 113.758C125.823 113.446 126.014 113.163 126.255 112.924C126.497 112.685 126.783 112.496 127.099 112.367C127.414 112.238 127.752 112.172 128.093 112.172Z" fill="#404040"/>
<path d="M116.135 112.172H151.499C152.188 112.172 152.849 112.443 153.336 112.924C153.823 113.406 154.097 114.06 154.097 114.741V177.546H113.537V114.741C113.537 114.06 113.811 113.406 114.298 112.924C114.785 112.443 115.446 112.172 116.135 112.172Z" fill="#4AA29A"/>
<path opacity="0.76" d="M116.884 130.794C116.798 130.794 116.715 130.76 116.654 130.699C116.593 130.639 116.559 130.557 116.559 130.471V122.724C116.559 118.625 119.598 115.291 123.334 115.291H133.999C134.083 115.295 134.162 115.33 134.22 115.39C134.278 115.451 134.311 115.53 134.311 115.614C134.311 115.697 134.278 115.777 134.22 115.837C134.162 115.897 134.083 115.933 133.999 115.936H123.337C119.96 115.936 117.213 118.981 117.213 122.724V130.471C117.213 130.514 117.204 130.556 117.188 130.595C117.171 130.635 117.147 130.67 117.117 130.7C117.086 130.73 117.05 130.754 117.01 130.77C116.97 130.786 116.927 130.794 116.884 130.794Z" fill="white"/>
<path opacity="0.76" d="M116.884 139.008C116.798 139.008 116.715 138.974 116.654 138.914C116.593 138.853 116.559 138.771 116.559 138.686V135.529C116.559 135.444 116.593 135.362 116.654 135.301C116.715 135.241 116.798 135.207 116.884 135.207C116.971 135.207 117.054 135.241 117.115 135.301C117.176 135.362 117.21 135.444 117.21 135.529V138.686C117.21 138.771 117.176 138.853 117.115 138.914C117.054 138.974 116.971 139.008 116.884 139.008Z" fill="white"/>
<path d="M111.84 164.793L145.132 101.705H138.312C137.054 101.705 136.363 100.259 137.16 99.297L172.644 56.5211C174.181 54.6667 177.219 55.8428 177.079 58.2375L174.584 100.068C174.551 100.635 174.4 101.189 174.142 101.697C173.885 102.205 173.525 102.656 173.085 103.021C172.645 103.387 172.135 103.66 171.584 103.824C171.034 103.988 170.456 104.039 169.885 103.975L165.129 103.436L132.094 174.195C131.673 175.097 130.999 175.861 130.153 176.396C129.307 176.932 128.323 177.216 127.318 177.216H115.87L111.84 164.793Z" fill="#213782"/>
<path d="M84.3145 120.545L107.819 172.188C108.5 173.686 109.604 174.957 110.999 175.848C112.393 176.74 114.018 177.214 115.678 177.214H127.795C128.585 177.214 129.36 177.005 130.04 176.609C130.72 176.213 131.281 175.644 131.664 174.961L132.094 174.193C131.456 174.193 130.83 174.018 130.286 173.688C129.741 173.358 129.3 172.886 129.009 172.324L97.6932 111.631L84.3145 120.545Z" fill="#213782"/>
<path d="M100.856 117.763C100.298 117.328 99.6556 117.012 98.9685 116.835C98.2814 116.658 97.5647 116.623 96.8634 116.733C96.1622 116.844 95.4916 117.096 94.894 117.476C94.2963 117.855 93.7846 118.352 93.391 118.937L58.8335 170.291C57.4704 172.317 55.6225 173.977 53.4541 175.126C51.2856 176.275 48.8638 176.876 46.404 176.875H41.5431L37.5859 165.6C37.5859 165.6 69.7127 116.876 77.9928 109.506C77.9928 109.506 86.2395 102.155 94.3699 107.713C96.5178 109.181 98.1484 111.277 99.1446 113.664L100.856 117.763Z" fill="#213782"/>
<path d="M0 135.274C0 135.274 5.78444 128.122 16.994 127.01C16.994 127.01 22.3183 128.804 32.925 147.603C43.5317 166.402 50.5721 174.974 58.8335 170.292L58.149 171.415C57.0412 173.235 55.4767 174.74 53.6074 175.785C51.738 176.83 49.6273 177.38 47.4799 177.381H42.9102C37.8797 177.381 33.5112 169.716 30.5701 165.677C22.3151 154.326 5.07102 137.036 0 135.274Z" fill="#213782"/>
<path opacity="0.6" d="M173.073 71.4605C173.06 71.4614 173.048 71.4614 173.036 71.4605C172.993 71.4558 172.952 71.4429 172.914 71.4224C172.877 71.4019 172.844 71.3744 172.817 71.3412C172.79 71.3081 172.77 71.27 172.759 71.2293C172.747 71.1886 172.743 71.1459 172.748 71.1038L172.982 69.0613C172.992 68.9763 173.036 68.8987 173.103 68.8455C173.171 68.7922 173.257 68.7678 173.343 68.7775C173.429 68.7872 173.507 68.8302 173.561 68.8972C173.615 68.9641 173.64 69.0494 173.63 69.1344L173.396 71.1763C173.386 71.2545 173.348 71.3265 173.289 71.3788C173.229 71.4311 173.152 71.4601 173.073 71.4605Z" fill="white"/>
<path opacity="0.6" d="M143.454 97.2412C143.393 97.241 143.333 97.224 143.282 97.1921C143.23 97.1602 143.189 97.1147 143.162 97.0608C143.135 97.0068 143.124 96.9466 143.131 96.8868C143.137 96.827 143.159 96.7701 143.196 96.7225L172.497 59.0646C172.661 58.8567 172.889 58.7073 173.146 58.639C173.404 58.5707 173.677 58.5873 173.924 58.6863C174.171 58.7853 174.379 58.9612 174.516 59.1874C174.652 59.4137 174.711 59.6779 174.682 59.94L174.168 64.4536C174.165 64.4967 174.153 64.5386 174.132 64.577C174.112 64.6153 174.084 64.6493 174.051 64.6768C174.017 64.7043 173.978 64.7248 173.936 64.7371C173.894 64.7494 173.85 64.7532 173.807 64.7483C173.763 64.7435 173.721 64.73 173.683 64.7087C173.645 64.6875 173.612 64.6589 173.585 64.6246C173.559 64.5904 173.539 64.5512 173.528 64.5093C173.517 64.4675 173.515 64.4239 173.521 64.3811L174.035 59.8675C174.049 59.7445 174.022 59.6203 173.958 59.514C173.894 59.4076 173.796 59.3249 173.68 59.2785C173.564 59.2321 173.436 59.2246 173.315 59.257C173.194 59.2894 173.088 59.3601 173.011 59.4581L143.711 97.1153C143.68 97.1544 143.641 97.186 143.597 97.2078C143.552 97.2296 143.503 97.2411 143.454 97.2412Z" fill="white"/>
<path opacity="0.6" d="M76.9807 136.721C76.9158 136.721 76.8524 136.701 76.7988 136.665C76.7279 136.617 76.6788 136.544 76.6623 136.461C76.6458 136.377 76.6633 136.291 76.7108 136.22L91.8647 114.003C92.1278 113.617 92.4896 113.307 92.9133 113.104C93.3371 112.901 93.8076 112.812 94.2771 112.847C94.7466 112.883 95.1983 113.04 95.5862 113.304C95.9742 113.568 96.2846 113.929 96.4858 114.35C96.5055 114.388 96.5173 114.43 96.5203 114.473C96.5234 114.516 96.5177 114.559 96.5037 114.6C96.4896 114.641 96.4674 114.678 96.4384 114.71C96.4094 114.743 96.3742 114.769 96.3348 114.787C96.2955 114.805 96.2528 114.816 96.2093 114.818C96.1658 114.82 96.1223 114.813 96.0815 114.798C96.0407 114.783 96.0033 114.76 95.9717 114.73C95.94 114.701 95.9146 114.665 95.8971 114.626C95.7448 114.308 95.5102 114.035 95.217 113.836C94.9238 113.636 94.5825 113.517 94.2278 113.491C93.873 113.464 93.5175 113.531 93.1973 113.684C92.877 113.838 92.6035 114.072 92.4046 114.364L77.2545 136.578C77.2243 136.622 77.1835 136.659 77.1358 136.683C77.088 136.708 77.0347 136.721 76.9807 136.721Z" fill="white"/>
<path opacity="0.6" d="M73.0432 142.492C72.9783 142.492 72.9149 142.473 72.8613 142.437C72.7904 142.389 72.7413 142.316 72.7248 142.232C72.7083 142.149 72.7258 142.063 72.7733 141.992L73.7451 140.568C73.769 140.533 73.7997 140.503 73.8354 140.479C73.871 140.456 73.911 140.44 73.953 140.432C73.9951 140.424 74.0383 140.424 74.0802 140.432C74.1222 140.441 74.162 140.457 74.1975 140.481C74.233 140.505 74.2634 140.535 74.2871 140.57C74.3107 140.605 74.3271 140.645 74.3352 140.687C74.3434 140.728 74.3432 140.771 74.3347 140.812C74.3262 140.854 74.3095 140.893 74.2856 140.928L73.3138 142.353C73.2836 142.396 73.2432 142.432 73.196 142.456C73.1488 142.48 73.0964 142.493 73.0432 142.492Z" fill="white"/>
<path d="M111.603 4.05638C118.817 1.942 125.697 2.51223 129.132 3.4105C133.192 4.47277 134.539 5.26932 138.134 5.67046C141.329 6.0271 149.82 3.47025 148.733 5.39329C147.319 7.90055 147.705 17.7198 149.82 21.8138C150.128 22.4088 140.072 23.883 133.979 22.782C125.579 21.2639 122.875 18.7185 117.36 19.8768C114.815 20.4108 112.882 21.4794 111.646 22.2982C112.209 16.2443 111.04 10.1084 111.603 4.05638Z" fill="#E2581D"/>
<path d="M111.693 85.5037C111.607 85.5035 111.524 85.4694 111.463 85.4089C111.401 85.3483 111.367 85.2663 111.367 85.1807V2.10942C111.367 2.02394 111.402 1.94196 111.463 1.88151C111.524 1.82107 111.607 1.78711 111.693 1.78711C111.779 1.78711 111.862 1.82107 111.923 1.88151C111.985 1.94196 112.019 2.02394 112.019 2.10942V85.1858C112.018 85.2705 111.983 85.3512 111.922 85.4107C111.861 85.4701 111.779 85.5035 111.693 85.5037Z" fill="#213782"/>
<path d="M75.5843 85.5152C75.5827 85.4711 75.5873 85.4271 75.5978 85.3842C76.2566 82.7994 78.9515 81.4746 78.9515 81.4746L80.2478 81.575C80.9934 83.8534 81.4741 84.9653 81.3546 85.5877C81.3507 85.6055 81.3456 85.622 81.3411 85.6385C80.269 85.7332 78.0677 85.7949 75.5843 85.5152Z" fill="#213782"/>
<path d="M81.3526 85.6389C81.3287 85.7382 81.2778 85.8291 81.2052 85.9017C81.1327 85.9742 81.0413 86.0256 80.9412 86.0502C79.4199 86.3681 77.0026 86.1138 75.9872 85.9803C75.8767 85.9614 75.7767 85.9043 75.705 85.8192C75.6333 85.734 75.5946 85.6264 75.5957 85.5156C78.0824 85.7953 80.2837 85.7337 81.3526 85.6389Z" fill="#213782"/>
<path d="M77.8809 79.4785L78.4484 82.1816C78.4649 82.2743 78.5108 82.3595 78.5794 82.4249C78.648 82.4902 78.7358 82.5324 78.8301 82.5452C79.1228 82.574 79.4178 82.5693 79.7094 82.5312C80.0018 82.4886 80.2062 82.1943 80.1541 81.8783L79.7595 79.4785H77.8809Z" fill="#F3B36A"/>
<path d="M92.3345 85.6172C90.9501 85.5791 90.2335 85.4176 89.8633 85.2676C89.8633 85.4043 89.8633 85.5428 89.8678 85.6859C89.8665 85.7563 89.8931 85.8245 89.9418 85.8759C89.9905 85.9273 90.0576 85.9579 90.1287 85.9612L97.7307 85.9128C97.973 85.9128 98.1164 85.6325 98.0097 85.4125C97.0135 85.4939 94.4748 85.6764 92.3345 85.6172Z" fill="#213782"/>
<path d="M98.0279 85.4125C98.0194 85.3929 98.0093 85.3739 97.9977 85.3559C97.3261 84.4284 95.6197 82.5804 92.2377 81.7794L90.6168 81.7285C90.6168 81.7285 89.895 82.9694 89.8809 85.2675C90.2511 85.4176 90.9677 85.579 92.3521 85.6172C94.4924 85.6763 97.0311 85.4939 98.0279 85.4125Z" fill="#213782"/>
<path d="M90.3164 79.2986C90.3344 79.4181 90.5568 81.2344 90.6429 81.9387C90.6489 82.0171 90.6815 82.0911 90.7354 82.1488C90.7893 82.2065 90.8614 82.2445 90.9399 82.2566C91.2162 82.289 91.6629 82.3202 92.0537 82.2394C92.1602 82.2133 92.2544 82.1517 92.3206 82.065C92.3867 81.9783 92.4207 81.8718 92.4168 81.7633V78.9121L90.3164 79.2986Z" fill="#F3B36A"/>
<path d="M78.9638 43.9922C78.9638 43.9922 76.3698 66.7965 77.8108 81.0493C77.8108 81.0493 79.5404 81.0492 80.4048 80.7644C80.4048 80.7644 83.0997 58.4674 83.9719 52.0874C83.9785 52.0369 84.0031 51.9904 84.0412 51.9562C84.0793 51.9221 84.1284 51.9024 84.1798 51.9008C84.2313 51.8992 84.2816 51.9157 84.3218 51.9475C84.362 51.9792 84.3895 52.0241 84.3993 52.074C85.4752 57.4414 89.7011 78.4918 90.203 80.4796C90.203 80.4796 91.644 81.0518 92.797 80.4796C92.797 80.4796 90.4916 49.9787 88.7621 44.5618L78.9638 43.9922Z" fill="#213782"/>
<path d="M73.7765 17.4814C73.7765 17.4814 82.4956 16.3168 90.453 17.5049C91.399 17.6439 92.2517 18.1454 92.8269 18.9011C93.4022 19.6568 93.6537 20.606 93.5272 21.5436L92.797 26.8881C92.797 26.8881 90.4916 39.1453 88.7621 44.5609C88.7621 44.5609 82.1337 45.7014 78.9638 43.9888C78.9638 43.9888 76.3698 28.5956 74.9289 26.3159C74.9289 26.3178 73.4879 20.3294 73.7765 17.4814Z" fill="#213782"/>
<path d="M81.3836 9.69141L80.291 16.9888C80.291 16.9888 83.3388 18.374 85.4732 16.9296L85.0137 11.7804L81.3836 9.69141Z" fill="#F3B36A"/>
<path d="M86.0821 4.93943C86.1162 5.003 86.7737 8.68061 87.1786 10.9584C87.2181 11.1803 87.2096 11.4081 87.1538 11.6266C87.098 11.8451 86.9961 12.0494 86.8548 12.2262C86.7135 12.403 86.536 12.5483 86.3339 12.6524C86.1319 12.7566 85.9098 12.8173 85.6824 12.8306L84.7993 12.882C84.0163 12.9276 83.2444 12.6826 82.6344 12.1948C82.0245 11.7071 81.6205 11.0119 81.5015 10.2451L80.8633 6.11868C80.8633 6.11868 85.2479 3.44233 86.0821 4.93943Z" fill="#F3B36A"/>
<path d="M79.9095 6.12811C79.5708 5.71172 79.2758 5.03849 79.9969 4.33031C80.7181 3.62212 81.5549 3.79186 82.0806 4.03279C82.194 4.08711 82.3222 4.10334 82.4457 4.07902C82.5693 4.05469 82.6814 3.99114 82.7651 3.89802C82.8062 3.84883 82.8597 3.8112 82.9202 3.78888C82.9806 3.76657 83.046 3.76036 83.1096 3.77088C83.1811 3.78059 83.2538 3.77616 83.3235 3.75783C83.3933 3.73949 83.4586 3.70763 83.5158 3.6641C83.573 3.62056 83.6208 3.56622 83.6566 3.50423C83.6923 3.44223 83.7153 3.37383 83.7241 3.30299C83.7883 2.78552 84.0647 2.17651 84.9896 1.99978C86.6863 1.67556 87.5328 3.35449 87.5026 4.53501C87.4724 5.71553 85.6124 5.96346 84.5577 5.76766C83.7825 5.62399 83.1122 6.29721 82.8114 6.66529C82.7574 6.73091 82.7194 6.8079 82.7002 6.89034C82.6811 6.97277 82.6813 7.05846 82.7008 7.1408L82.9689 8.28128C82.7831 8.63537 82.6006 8.99773 82.3396 9.29842C82.1839 9.49065 81.9687 9.62709 81.7271 9.68684C81.4109 9.10453 80.5265 9.00599 80.1152 8.99264C80.0376 8.99056 79.9613 8.97253 79.8912 8.9397C79.821 8.90686 79.7585 8.85994 79.7077 8.80193C79.3973 8.45038 78.912 7.66527 79.8414 6.89478C79.9509 6.80058 80.0192 6.66804 80.0319 6.52504C80.0446 6.38205 80.0007 6.23976 79.9095 6.12811Z" fill="#213782"/>
<path d="M82.0334 10.9129C82.0334 10.9129 81.9967 8.85378 81.1548 8.66052C80.3128 8.46727 79.4027 9.06929 80.1264 10.3019C81.0198 11.8353 82.0334 10.9129 82.0334 10.9129Z" fill="#F3B36A"/>
<path d="M78.7051 27.3234C78.7051 27.3234 53.96 20.6617 66.2468 3.52734L67.0784 4.69134C67.0784 4.69134 63.3764 16.2963 75.6394 17.3993C75.6394 17.3993 78.8157 25.5014 78.7051 27.3234Z" fill="#213782"/>
<path d="M66.1638 3.61532C66.1638 3.61532 65.8855 0.30961 67.5579 0.031167C69.2302 -0.247276 69.7875 1.4094 70.0645 2.23646C70.3415 3.06352 67.5579 4.71575 66.9987 4.71575C66.4396 4.71575 66.1638 3.61532 66.1638 3.61532Z" fill="#FBE0D0"/>
<path d="M66.1638 3.61532C66.1638 3.61532 65.8855 0.30961 67.5579 0.031167C69.2302 -0.247276 69.7875 1.4094 70.0645 2.23646C70.3415 3.06352 67.5579 4.71575 66.9987 4.71575C66.4396 4.71575 66.1638 3.61532 66.1638 3.61532Z" fill="#F3B36A"/>
<path d="M92.041 29.1533C92.041 29.1533 95.2391 41.6769 111.283 27.8819L110.053 27.1394C110.053 27.1394 95.9281 37.0508 93.4389 20.1465C93.4389 20.142 92.041 27.6327 92.041 29.1533Z" fill="#213782"/>
<path d="M111.2 27.9684C111.2 27.9684 114.556 28.0225 114.722 26.3537C114.889 24.6849 113.18 24.2457 112.33 24.0257C111.481 23.8058 109.995 26.6665 110.032 27.217C110.069 27.7675 111.2 27.9684 111.2 27.9684Z" fill="#F3B36A"/>
</g>
<defs>
<clipPath id="clip0">
<rect width="178" height="178" fill="white"/>
</clipPath>
</defs>
</svg>
