<svg width="302" height="304" viewBox="0 0 302 304" fill="none" xmlns="http://www.w3.org/2000/svg">
<path d="M289.341 205.533C260.042 274.223 181.993 312.704 114.309 302.324C103.296 300.635 73.1021 295.604 46.3741 271.867C-5.09298 226.173 -16.0989 135.693 25.4145 71.9285C55.6287 25.5153 109.79 -0.788295 161.254 0.527591C172.34 0.810962 214.823 2.55788 252.159 33.2076C257.643 37.71 269.74 48.4076 280.64 65.3816C306.237 105.239 308.437 160.767 289.341 205.533Z" fill="#FBE0D0"/>
<path d="M109.519 273.749C109.519 273.749 78.868 165.011 25.0859 106.64C21.4711 102.717 15.3646 104.421 14.333 109.66C7.43374 144.686 -3.54382 250.675 109.519 273.749Z" fill="#5BD595"/>
<path opacity="0.5" d="M98.9036 266.962C99.1697 267.216 98.8622 267.637 98.5688 267.422C87.7341 259.474 45.3625 220.143 25.9045 140.087C25.8945 140.062 25.8898 140.036 25.8907 140.009C25.8917 139.982 25.8983 139.955 25.9101 139.931C25.9219 139.907 25.9387 139.885 25.9593 139.868C25.98 139.851 26.004 139.838 26.03 139.83C26.0559 139.823 26.0831 139.82 26.11 139.824C26.1368 139.827 26.1625 139.836 26.1856 139.85C26.2087 139.864 26.2286 139.883 26.2441 139.905C26.2595 139.927 26.2701 139.952 26.2753 139.979C32.3862 158.489 56.9322 226.712 98.9036 266.962Z" fill="#4AA29A"/>
<path d="M110.068 234.072C110.068 234.072 125.978 153.785 108.338 98.0468C107.153 94.3 102.283 93.3294 99.7574 96.3466C82.8751 116.529 38.7118 180.949 110.068 234.072Z" fill="#5BD595"/>
<path opacity="0.5" d="M104.953 226.111C104.972 226.162 104.97 226.218 104.949 226.268C104.928 226.317 104.889 226.358 104.84 226.38C104.791 226.403 104.735 226.407 104.683 226.391C104.631 226.375 104.587 226.34 104.56 226.293C99.6997 217.517 83.5142 177.884 97.4054 119.827C97.4149 119.79 97.4381 119.758 97.4704 119.737C97.5027 119.716 97.5417 119.709 97.5795 119.715C97.6174 119.722 97.6514 119.742 97.6747 119.773C97.698 119.803 97.7089 119.841 97.7053 119.879C95.6214 133.852 89.3677 186.024 104.953 226.111Z" fill="#4AA29A"/>
<path d="M169.334 232.173C169.334 232.173 199.073 136.078 250.757 85.9958C254.231 82.6301 260.068 84.4009 261.035 89.1303C267.506 120.758 277.614 216.065 169.334 232.173Z" fill="#5BD595"/>
<path opacity="0.5" d="M179.523 226.526C179.466 226.568 179.429 226.63 179.419 226.7C179.409 226.769 179.427 226.84 179.469 226.896C179.511 226.953 179.574 226.99 179.644 227C179.714 227.01 179.785 226.992 179.841 226.95C190.233 220.272 230.923 186.771 249.848 115.9C249.864 115.853 249.86 115.802 249.837 115.758C249.815 115.714 249.776 115.681 249.729 115.666C249.682 115.65 249.631 115.654 249.587 115.676C249.543 115.698 249.509 115.737 249.494 115.784C243.576 132.111 219.835 192.187 179.523 226.526Z" fill="#4AA29A"/>
<path d="M128.835 145.148H199.879C200.458 145.148 201.031 145.262 201.566 145.482C202.101 145.703 202.587 146.026 202.996 146.434C203.405 146.841 203.73 147.325 203.951 147.858C204.173 148.39 204.287 148.961 204.287 149.537V303.224H124.428V149.537C124.428 148.373 124.892 147.257 125.719 146.434C126.545 145.611 127.666 145.148 128.835 145.148Z" fill="#4AA29A"/>
<path opacity="0.3" d="M128.835 145.148H199.879C200.458 145.148 201.031 145.262 201.566 145.482C202.101 145.703 202.587 146.026 202.996 146.434C203.405 146.841 203.73 147.325 203.951 147.858C204.173 148.39 204.287 148.961 204.287 149.537V303.224H124.428V149.537C124.428 148.373 124.892 147.257 125.719 146.434C126.545 145.611 127.666 145.148 128.835 145.148Z" fill="#404040"/>
<path d="M108.548 145.148H179.598C180.767 145.148 181.888 145.611 182.714 146.434C183.541 147.257 184.005 148.373 184.005 149.537V303.224H104.139V149.537C104.139 148.96 104.253 148.39 104.474 147.857C104.696 147.324 105.021 146.841 105.43 146.433C105.84 146.025 106.326 145.702 106.861 145.482C107.396 145.261 107.969 145.148 108.548 145.148Z" fill="#4AA29A"/>
<path opacity="0.76" d="M109.495 174.673C109.349 174.673 109.208 174.615 109.104 174.512C109 174.408 108.942 174.268 108.941 174.122V162.907C108.941 156.928 113.35 152.064 118.769 152.064H134.106C134.252 152.064 134.393 152.122 134.497 152.226C134.6 152.329 134.659 152.469 134.659 152.615C134.659 152.761 134.6 152.901 134.497 153.004C134.393 153.107 134.252 153.165 134.106 153.165H118.769C113.96 153.165 110.045 157.535 110.045 162.907V174.122C110.045 174.267 109.987 174.407 109.884 174.51C109.781 174.613 109.641 174.672 109.495 174.673Z" fill="white"/>
<path opacity="0.76" d="M109.495 186.565C109.349 186.565 109.208 186.507 109.104 186.404C109 186.301 108.942 186.161 108.941 186.015V181.445C108.948 181.303 109.009 181.169 109.112 181.071C109.215 180.973 109.352 180.918 109.495 180.918C109.637 180.918 109.775 180.973 109.878 181.071C109.981 181.169 110.042 181.303 110.048 181.445V186.015C110.048 186.161 109.99 186.301 109.886 186.404C109.782 186.507 109.642 186.565 109.495 186.565Z" fill="white"/>
<path d="M47.6821 191.574H107.682C108.851 191.574 109.972 192.037 110.799 192.86C111.625 193.683 112.09 194.799 112.09 195.963V303.224H43.2734V195.963C43.2734 195.386 43.3875 194.816 43.6091 194.283C43.8306 193.751 44.1554 193.267 44.5648 192.859C44.9742 192.452 45.4602 192.128 45.9951 191.908C46.53 191.687 47.1032 191.574 47.6821 191.574Z" fill="#4AA29A"/>
<path d="M27.3939 191.574H87.3937C88.5627 191.574 89.6838 192.037 90.5104 192.86C91.337 193.683 91.8013 194.799 91.8013 195.963V303.224H22.9863V195.963C22.9863 194.799 23.4507 193.683 24.2773 192.86C25.1039 192.037 26.225 191.574 27.3939 191.574Z" fill="#4AA29A"/>
<g opacity="0.73">
<path opacity="0.73" d="M28.6661 223.377C28.5195 223.377 28.3789 223.319 28.2752 223.215C28.1715 223.112 28.1133 222.972 28.1133 222.826V209.595C28.1133 202.595 33.27 196.9 39.6077 196.9H57.7026C57.8451 196.907 57.9797 196.967 58.0784 197.07C58.177 197.173 58.232 197.309 58.232 197.451C58.232 197.593 58.177 197.73 58.0784 197.833C57.9797 197.935 57.8451 197.996 57.7026 198.002H39.6077C33.8796 198.002 29.219 203.203 29.219 209.595V222.826C29.219 222.972 29.1607 223.112 29.0571 223.215C28.9534 223.319 28.8128 223.377 28.6661 223.377Z" fill="white"/>
<path opacity="0.73" d="M28.6661 237.406C28.5195 237.406 28.3789 237.348 28.2752 237.244C28.1715 237.141 28.1133 237.001 28.1133 236.855V231.464C28.1133 231.319 28.1715 231.179 28.2752 231.075C28.3789 230.972 28.5195 230.914 28.6661 230.914C28.8128 230.914 28.9534 230.972 29.0571 231.075C29.1607 231.179 29.219 231.319 29.219 231.464V236.855C29.219 237.001 29.1607 237.141 29.0571 237.244C28.9534 237.348 28.8128 237.406 28.6661 237.406Z" fill="white"/>
</g>
<path d="M217.326 191.574H277.326C278.495 191.574 279.616 192.037 280.442 192.86C281.269 193.683 281.733 194.799 281.733 195.963V303.224H212.916V195.963C212.916 195.386 213.03 194.815 213.252 194.283C213.473 193.75 213.798 193.266 214.208 192.859C214.617 192.451 215.103 192.128 215.638 191.908C216.173 191.687 216.747 191.574 217.326 191.574Z" fill="#4AA29A"/>
<path opacity="0.3" d="M217.326 191.574H277.326C278.495 191.574 279.616 192.037 280.442 192.86C281.269 193.683 281.733 194.799 281.733 195.963V303.224H212.916V195.963C212.916 195.386 213.03 194.815 213.252 194.283C213.473 193.75 213.798 193.266 214.208 192.859C214.617 192.451 215.103 192.128 215.638 191.908C216.173 191.687 216.747 191.574 217.326 191.574Z" fill="#404040"/>
<path d="M197.038 191.574H257.038C258.207 191.574 259.328 192.037 260.155 192.86C260.982 193.683 261.446 194.799 261.446 195.963V303.224H192.631V195.963C192.631 194.799 193.095 193.683 193.922 192.86C194.748 192.037 195.869 191.574 197.038 191.574Z" fill="#4AA29A"/>
<path opacity="0.76" d="M198.311 223.377C198.164 223.377 198.023 223.319 197.92 223.216C197.816 223.112 197.758 222.972 197.758 222.826V209.595C197.758 202.595 202.915 196.9 209.253 196.9H227.347C227.49 196.907 227.624 196.967 227.723 197.07C227.821 197.173 227.877 197.309 227.877 197.451C227.877 197.593 227.821 197.73 227.723 197.833C227.624 197.935 227.49 197.996 227.347 198.002H209.258C203.528 198.002 198.868 203.203 198.868 209.595V222.826C198.868 222.899 198.853 222.971 198.825 223.038C198.797 223.105 198.756 223.166 198.704 223.217C198.653 223.268 198.591 223.309 198.524 223.336C198.456 223.364 198.384 223.377 198.311 223.377Z" fill="white"/>
<path opacity="0.76" d="M198.311 237.407C198.164 237.407 198.023 237.349 197.92 237.246C197.816 237.143 197.758 237.003 197.758 236.857V231.466C197.758 231.32 197.816 231.18 197.92 231.077C198.023 230.974 198.164 230.916 198.311 230.916C198.457 230.916 198.598 230.974 198.702 231.077C198.805 231.18 198.864 231.32 198.864 231.466V236.857C198.864 237.003 198.805 237.143 198.702 237.246C198.598 237.349 198.457 237.407 198.311 237.407Z" fill="white"/>
<path d="M189.752 281.445L246.237 173.7H234.665C232.531 173.7 231.358 171.23 232.711 169.587L292.914 96.5317C295.522 93.3647 300.677 95.3732 300.438 99.4631L296.206 170.903C296.149 171.872 295.894 172.819 295.456 173.686C295.019 174.554 294.408 175.323 293.662 175.948C292.916 176.572 292.05 177.039 291.116 177.319C290.183 177.599 289.202 177.686 288.234 177.576L280.164 176.656L224.115 297.503C223.401 299.043 222.258 300.348 220.822 301.263C219.386 302.177 217.718 302.663 216.013 302.663H196.589L189.752 281.445Z" fill="#213782"/>
<path d="M143.049 205.877L182.927 294.076C184.083 296.634 185.957 298.804 188.322 300.327C190.688 301.85 193.445 302.66 196.262 302.66H216.82C218.159 302.66 219.474 302.303 220.628 301.626C221.783 300.95 222.734 299.978 223.383 298.811L224.114 297.5C223.031 297.499 221.969 297.201 221.045 296.638C220.122 296.074 219.372 295.268 218.88 294.308L165.748 190.652L143.049 205.877Z" fill="#213782"/>
<path d="M171.115 201.124C170.169 200.381 169.079 199.841 167.913 199.539C166.747 199.236 165.531 199.177 164.341 199.365C163.152 199.553 162.014 199.985 161 200.633C159.986 201.28 159.118 202.13 158.45 203.129L99.8187 290.835C97.5062 294.294 94.371 297.13 90.6919 299.092C87.0129 301.054 82.9039 302.08 78.7305 302.08H70.4834L63.7695 282.822C63.7695 282.822 118.277 199.609 132.325 187.021C132.325 187.021 146.317 174.467 160.111 183.959C163.755 186.466 166.522 190.046 168.212 194.123L171.115 201.124Z" fill="#213782"/>
<path d="M0 231.028C0 231.028 9.81405 218.814 28.8326 216.914C28.8326 216.914 37.8659 219.979 55.8616 252.085C73.8572 284.19 85.802 298.83 99.8187 290.834L98.6573 292.752C96.7777 295.86 94.1234 298.431 90.9518 300.216C87.7802 302.001 84.1991 302.94 80.5559 302.941H72.8028C64.2678 302.941 56.856 289.851 51.8661 282.953C37.8604 263.566 8.60365 234.038 0 231.028Z" fill="#213782"/>
<path opacity="0.6" d="M293.64 122.045C293.619 122.046 293.598 122.046 293.577 122.045C293.505 122.037 293.435 122.015 293.371 121.98C293.308 121.945 293.251 121.898 293.206 121.841C293.161 121.784 293.127 121.719 293.107 121.65C293.087 121.58 293.081 121.508 293.09 121.436L293.486 117.947C293.503 117.802 293.577 117.67 293.692 117.579C293.807 117.488 293.953 117.446 294.099 117.463C294.245 117.479 294.378 117.553 294.469 117.667C294.56 117.781 294.602 117.927 294.586 118.072L294.189 121.559C294.172 121.693 294.107 121.816 294.007 121.905C293.906 121.995 293.775 122.044 293.64 122.045Z" fill="white"/>
<path opacity="0.6" d="M243.389 166.076C243.286 166.076 243.185 166.047 243.097 165.992C243.01 165.938 242.94 165.86 242.894 165.768C242.849 165.676 242.83 165.573 242.841 165.471C242.851 165.369 242.89 165.271 242.952 165.19L292.665 100.876C292.943 100.521 293.33 100.265 293.767 100.149C294.203 100.032 294.666 100.061 295.086 100.23C295.505 100.399 295.857 100.699 296.089 101.085C296.322 101.472 296.421 101.923 296.372 102.371L295.5 110.079C295.494 110.153 295.474 110.225 295.439 110.29C295.405 110.355 295.358 110.413 295.301 110.46C295.243 110.507 295.177 110.542 295.106 110.563C295.035 110.584 294.961 110.591 294.887 110.583C294.813 110.574 294.742 110.551 294.677 110.515C294.613 110.479 294.556 110.43 294.511 110.371C294.466 110.313 294.433 110.246 294.414 110.174C294.395 110.103 294.391 110.029 294.402 109.955L295.274 102.247C295.298 102.037 295.252 101.825 295.143 101.643C295.035 101.461 294.869 101.32 294.672 101.241C294.475 101.162 294.258 101.149 294.053 101.204C293.848 101.26 293.667 101.38 293.537 101.548L243.825 165.861C243.773 165.928 243.707 165.982 243.632 166.019C243.556 166.056 243.473 166.076 243.389 166.076Z" fill="white"/>
<path opacity="0.6" d="M130.607 233.5C130.497 233.5 130.389 233.467 130.299 233.405C130.178 233.324 130.095 233.198 130.067 233.056C130.039 232.914 130.069 232.766 130.149 232.645L155.86 194.702C156.306 194.042 156.92 193.512 157.639 193.165C158.358 192.819 159.156 192.668 159.953 192.728C160.749 192.788 161.516 193.057 162.174 193.508C162.832 193.958 163.359 194.574 163.7 195.294C163.734 195.359 163.753 195.431 163.759 195.504C163.764 195.578 163.754 195.651 163.73 195.721C163.706 195.79 163.669 195.855 163.62 195.909C163.57 195.964 163.511 196.009 163.444 196.04C163.377 196.072 163.305 196.09 163.231 196.093C163.157 196.096 163.083 196.084 163.014 196.059C162.945 196.033 162.881 195.994 162.828 195.943C162.774 195.893 162.731 195.832 162.701 195.765C162.443 195.222 162.045 194.756 161.547 194.416C161.05 194.075 160.471 193.872 159.869 193.827C159.267 193.781 158.664 193.895 158.121 194.157C157.577 194.419 157.113 194.819 156.776 195.317L131.072 233.257C131.02 233.332 130.951 233.394 130.87 233.437C130.789 233.479 130.699 233.501 130.607 233.5Z" fill="white"/>
<path opacity="0.6" d="M123.926 243.357C123.815 243.358 123.708 243.325 123.617 243.263C123.497 243.181 123.413 243.056 123.385 242.914C123.357 242.771 123.387 242.624 123.468 242.503L125.116 240.071C125.157 240.011 125.209 239.96 125.269 239.92C125.33 239.88 125.398 239.852 125.469 239.838C125.54 239.824 125.614 239.825 125.685 239.839C125.756 239.854 125.824 239.882 125.884 239.922C125.944 239.963 125.996 240.014 126.036 240.075C126.076 240.135 126.104 240.203 126.118 240.274C126.131 240.345 126.131 240.418 126.117 240.488C126.102 240.559 126.074 240.627 126.033 240.687L124.385 243.12C124.333 243.194 124.265 243.254 124.185 243.295C124.105 243.337 124.016 243.358 123.926 243.357Z" fill="white"/>
<path d="M189.349 6.92856C201.59 3.31748 213.262 4.29136 219.089 5.82548C225.979 7.63971 228.264 9.00011 234.363 9.68519C239.784 10.2943 254.19 5.92754 252.346 9.21182C249.947 13.4939 250.601 30.2638 254.19 37.2558C254.712 38.272 237.651 40.7898 227.313 38.9094C213.062 36.3167 208.474 31.9695 199.116 33.9476C194.799 34.8596 191.519 36.6847 189.423 38.0831C190.377 27.7439 188.395 17.2646 189.349 6.92856Z" fill="#E2581D"/>
<path d="M189.504 146.029C189.357 146.029 189.217 145.971 189.113 145.867C189.009 145.764 188.951 145.624 188.951 145.478V3.60319C188.951 3.4572 189.009 3.31719 189.113 3.21396C189.217 3.11073 189.357 3.05273 189.504 3.05273C189.651 3.05273 189.791 3.11073 189.895 3.21396C189.999 3.31719 190.057 3.4572 190.057 3.60319V145.486C190.055 145.631 189.995 145.769 189.892 145.871C189.789 145.972 189.649 146.029 189.504 146.029Z" fill="#213782"/>
<path d="M128.237 146.049C128.234 145.974 128.242 145.899 128.26 145.826C129.377 141.411 133.95 139.148 133.95 139.148L136.149 139.32C137.414 143.211 138.23 145.11 138.027 146.173C138.02 146.203 138.012 146.232 138.004 146.26C136.185 146.422 132.45 146.527 128.237 146.049Z" fill="#213782"/>
<path d="M138.025 146.259C137.985 146.429 137.898 146.584 137.775 146.708C137.652 146.832 137.497 146.92 137.327 146.962C134.746 147.505 130.645 147.07 128.922 146.842C128.735 146.81 128.565 146.713 128.443 146.567C128.322 146.422 128.256 146.238 128.258 146.049C132.477 146.527 136.212 146.421 138.025 146.259Z" fill="#213782"/>
<path d="M132.135 135.74L133.098 140.357C133.126 140.515 133.203 140.661 133.32 140.772C133.436 140.884 133.585 140.956 133.745 140.978C134.242 141.027 134.742 141.019 135.237 140.954C135.733 140.881 136.08 140.378 135.992 139.839L135.322 135.74H132.135Z" fill="#F3B36A"/>
<path d="M156.658 146.222C154.309 146.157 153.093 145.881 152.465 145.625C152.465 145.858 152.465 146.095 152.472 146.339C152.47 146.46 152.515 146.576 152.598 146.664C152.681 146.752 152.794 146.804 152.915 146.81L165.813 146.727C166.224 146.727 166.467 146.248 166.286 145.873C164.596 146.012 160.289 146.323 156.658 146.222Z" fill="#213782"/>
<path d="M166.317 145.872C166.302 145.838 166.285 145.806 166.265 145.775C165.126 144.191 162.231 141.035 156.493 139.667L153.743 139.58C153.743 139.58 152.518 141.699 152.494 145.624C153.122 145.881 154.338 146.156 156.687 146.221C160.318 146.322 164.625 146.011 166.317 145.872Z" fill="#213782"/>
<path d="M153.232 135.432C153.263 135.636 153.64 138.738 153.786 139.941C153.797 140.074 153.852 140.201 153.943 140.299C154.035 140.398 154.157 140.463 154.29 140.483C154.759 140.539 155.517 140.592 156.18 140.454C156.361 140.409 156.521 140.304 156.633 140.156C156.745 140.008 156.803 139.826 156.796 139.641V134.771L153.232 135.432Z" fill="#F3B36A"/>
<path d="M133.973 75.1328C133.973 75.1328 129.572 114.08 132.017 138.421C132.017 138.421 134.951 138.421 136.418 137.935C136.418 137.935 140.99 99.8545 142.47 88.9583C142.481 88.8721 142.523 88.7927 142.587 88.7344C142.652 88.676 142.735 88.6424 142.823 88.6397C142.91 88.6369 142.995 88.6652 143.063 88.7194C143.132 88.7736 143.178 88.8502 143.195 88.9355C145.02 98.1022 152.19 134.053 153.042 137.448C153.042 137.448 155.487 138.426 157.443 137.448C157.443 137.448 153.531 85.357 150.597 76.1056L133.973 75.1328Z" fill="#213782"/>
<path d="M125.172 29.8586C125.172 29.8586 139.965 27.8695 153.466 29.8987C155.071 30.1361 156.518 30.9926 157.494 32.2832C158.47 33.5738 158.896 35.195 158.682 36.7963L157.443 45.9239C157.443 45.9239 153.532 66.8575 150.597 76.1067C150.597 76.1067 139.351 78.0545 133.973 75.1296C133.973 75.1296 129.572 48.8401 127.127 44.9467C127.127 44.95 124.683 34.7226 125.172 29.8586Z" fill="#213782"/>
<path d="M138.08 16.5508L136.227 29.0137C136.227 29.0137 141.397 31.3795 145.019 28.9127L144.239 20.1184L138.08 16.5508Z" fill="#F3B36A"/>
<path d="M146.048 8.43538C146.106 8.54395 147.221 14.8248 147.908 18.7149C147.975 19.094 147.961 19.4829 147.866 19.8561C147.771 20.2293 147.599 20.5783 147.359 20.8803C147.119 21.1822 146.818 21.4303 146.475 21.6081C146.132 21.786 145.755 21.8897 145.37 21.9124L143.871 22.0003C142.543 22.0781 141.233 21.6596 140.198 20.8267C139.164 19.9937 138.478 18.8063 138.276 17.4968L137.193 10.4494C137.193 10.4494 144.632 5.87852 146.048 8.43538Z" fill="#F3B36A"/>
<path d="M135.578 10.468C135.003 9.75682 134.503 8.60704 135.726 7.39756C136.95 6.18807 138.369 6.47796 139.261 6.88944C139.454 6.98221 139.671 7.00993 139.881 6.96839C140.09 6.92685 140.281 6.81831 140.423 6.65927C140.492 6.57526 140.583 6.51099 140.686 6.47288C140.788 6.43477 140.899 6.42416 141.007 6.44213C141.128 6.45872 141.252 6.45114 141.37 6.41983C141.488 6.38853 141.599 6.33411 141.696 6.25976C141.793 6.18541 141.874 6.09259 141.935 5.98672C141.996 5.88085 142.035 5.76402 142.05 5.64304C142.159 4.75927 142.628 3.71916 144.197 3.41733C147.075 2.86361 148.512 5.73099 148.46 7.74716C148.409 9.76333 145.253 10.1868 143.464 9.85236C142.149 9.60699 141.011 10.7568 140.501 11.3854C140.41 11.4975 140.345 11.629 140.313 11.7697C140.28 11.9105 140.28 12.0569 140.314 12.1975L140.768 14.1453C140.453 14.75 140.143 15.3689 139.701 15.8824C139.436 16.2107 139.071 16.4437 138.662 16.5458C138.125 15.5513 136.625 15.383 135.927 15.3602C135.795 15.3566 135.666 15.3259 135.547 15.2698C135.428 15.2137 135.322 15.1336 135.235 15.0345C134.709 14.4341 133.885 13.0932 135.462 11.7773C135.648 11.6164 135.764 11.3901 135.785 11.1459C135.807 10.9017 135.732 10.6586 135.578 10.468Z" fill="#213782"/>
<path d="M139.18 18.6359C139.18 18.6359 139.118 15.1192 137.689 14.7892C136.261 14.4591 134.717 15.4873 135.945 17.5925C137.46 20.2112 139.18 18.6359 139.18 18.6359Z" fill="#F3B36A"/>
<path d="M133.534 46.6639C133.534 46.6639 91.5505 35.2867 112.397 6.02344L113.808 8.01138C113.808 8.01138 107.527 27.8311 128.332 29.7148C128.332 29.7148 133.721 43.5522 133.534 46.6639Z" fill="#213782"/>
<path d="M112.256 6.17449C112.256 6.17449 111.784 0.528772 114.621 0.053229C117.459 -0.422314 118.404 2.40706 118.874 3.81957C119.344 5.23209 114.621 8.05386 113.673 8.05386C112.724 8.05386 112.256 6.17449 112.256 6.17449Z" fill="#FBE0D0"/>
<path d="M112.256 6.17449C112.256 6.17449 111.784 0.528772 114.621 0.053229C117.459 -0.422314 118.404 2.40706 118.874 3.81957C119.344 5.23209 114.621 8.05386 113.673 8.05386C112.724 8.05386 112.256 6.17449 112.256 6.17449Z" fill="#F3B36A"/>
<path d="M156.16 49.7887C156.16 49.7887 161.586 71.1773 188.806 47.6172L186.72 46.3491C186.72 46.3491 162.755 63.2765 158.532 34.4063C158.532 34.3987 156.16 47.1916 156.16 49.7887Z" fill="#213782"/>
<path d="M188.665 47.7659C188.665 47.7659 194.359 47.8582 194.641 45.0082C194.923 42.1582 192.024 41.4079 190.582 41.0323C189.141 40.6566 186.62 45.5423 186.683 46.4826C186.746 47.4228 188.665 47.7659 188.665 47.7659Z" fill="#F3B36A"/>
</svg>
