<svg width="302" height="303" viewBox="0 0 302 303" fill="none" xmlns="http://www.w3.org/2000/svg">
<g clip-path="url(#clip0)">
<path d="M289.044 204.415C258.481 275.574 177.806 306.137 114.595 300.927C97.336 299.504 62.6101 296.641 35.4964 271.1C-16.5746 222.054 -8.55499 119.525 41.2911 59.1636C47.7105 51.3895 92.1432 -0.691923 161.384 0.00497663C212.078 0.515748 247.66 29.041 251.988 32.5948C257.453 37.0835 269.509 47.7513 280.373 64.6749C305.898 104.439 308.143 159.952 289.044 204.415Z" fill="#FBE0D0"/>
<path d="M237.754 142.698C237.754 142.698 239.958 115.151 253.429 109.108C266.9 103.066 291.538 100.962 296.55 61.6024C299.483 38.5527 301.112 28.5158 301.951 24.1516C302.028 23.7552 302.012 23.3464 301.904 22.9572C301.796 22.568 301.599 22.209 301.329 21.9084C301.058 21.6077 300.721 21.3736 300.345 21.2243C299.968 21.075 299.562 21.0147 299.158 21.048C286.888 22.0641 246.83 27.3244 235.867 53.0534C222.872 83.5558 237.754 142.698 237.754 142.698Z" fill="#5BD595"/>
<path d="M288.709 31.0625C274.278 41.4338 256.843 60.6256 246.54 80.5532C245.14 83.8678 241.325 90.8336 238.652 103.627C236.343 114.291 235.744 125.745 236.396 133.443C236.415 133.676 236.527 133.892 236.707 134.044C236.887 134.195 237.119 134.269 237.354 134.249C238.193 134.178 238.176 133.285 238.165 133.312C237.865 120.252 240.216 104.278 245.485 90.1897C252.141 72.9111 264.655 56.784 277.264 43.3124L278.56 41.9867C288.294 31.8839 290.111 31.9888 289.388 31.1404C289.305 31.0453 289.189 30.9845 289.063 30.9701C288.938 30.9557 288.811 30.9887 288.709 31.0625Z" fill="#4AA29A"/>
<path d="M211.843 193.423C210.037 194.084 230.376 173.403 239.696 138.587C244.088 122.18 246.298 101.284 256.676 94.2187C265.313 88.335 291.889 95.3571 300.565 97.8785C300.808 97.949 301.026 98.0868 301.193 98.2759C301.36 98.4649 301.47 98.6975 301.509 98.9463C301.548 99.1951 301.516 99.4499 301.415 99.6811C301.315 99.9122 301.15 100.11 300.941 100.252C296.333 103.361 286.395 110.788 283.154 118.973C278.884 129.763 267.543 135.736 257.849 136.668C248.155 137.6 242.67 138.909 236.471 153.556C230.273 168.203 216.971 191.539 211.843 193.423Z" fill="#5BD595"/>
<path opacity="0.2" d="M211.843 193.423C210.037 194.084 230.376 173.403 239.696 138.587C244.088 122.18 246.298 101.284 256.676 94.2187C265.313 88.335 291.889 95.3571 300.565 97.8785C300.808 97.949 301.026 98.0868 301.193 98.2759C301.36 98.4649 301.47 98.6975 301.509 98.9463C301.548 99.1951 301.516 99.4499 301.415 99.6811C301.315 99.9122 301.15 100.11 300.941 100.252C296.333 103.361 286.395 110.788 283.154 118.973C278.884 129.763 267.543 135.736 257.849 136.668C248.155 137.6 242.67 138.909 236.471 153.556C230.273 168.203 216.971 191.539 211.843 193.423Z" fill="#404040"/>
<path d="M287.635 101.288C276.307 100.593 263.668 104.468 256.524 113.447L255.848 114.304C254.285 116.317 245.104 130.823 239.57 143.063C239.554 143.099 239.544 143.138 239.543 143.178C239.542 143.218 239.548 143.258 239.563 143.295C239.577 143.332 239.598 143.366 239.625 143.395C239.653 143.424 239.686 143.447 239.722 143.463C239.794 143.494 239.875 143.497 239.949 143.471C240.023 143.444 240.084 143.391 240.12 143.322C243.802 136.465 248.965 127.822 253.03 121.381C257.405 114.347 260.448 109.586 269.166 105.632C278.851 101.402 287.645 101.771 287.619 101.774C287.682 101.772 287.741 101.747 287.785 101.703C287.829 101.659 287.855 101.6 287.857 101.538C287.859 101.476 287.837 101.416 287.796 101.369C287.754 101.323 287.697 101.294 287.635 101.288Z" fill="#4AA29A"/>
<path d="M75.3737 20.6176C71.7931 20.9314 68.4599 22.5681 66.0295 25.2061C63.5992 27.8441 62.2476 31.2923 62.2405 34.8727C62.1112 80.2556 61.8983 236.792 64.8674 292.197C65.018 295.024 66.244 297.687 68.2959 299.646C70.3479 301.605 73.0717 302.711 75.9136 302.741C105.099 303.054 189.048 303.628 236.707 300.592C241.487 300.292 245.973 298.188 249.251 294.707C252.528 291.227 254.35 286.634 254.345 281.862C254.288 234.232 253.523 100.279 246.973 39.0498C246.593 35.4956 244.976 32.186 242.403 29.6954C239.829 27.2047 236.461 25.6903 232.884 25.4148C201.053 22.941 116.527 17.052 75.3737 20.6176Z" fill="#4AA29A"/>
<path d="M73.9574 46.7666C73.3838 85.5874 71.7521 214.727 74.6005 262.39C75.0166 269.357 80.4496 274.857 87.1579 275.09C114.777 276.049 185.602 277.904 225.96 273.481C233.227 272.685 238.779 266.41 238.974 258.813C239.984 219.196 242.71 98.9172 239.942 51.7867C239.5 44.2679 233.734 38.2685 226.505 37.7837C196.6 35.7764 119.807 31.147 85.4936 33.9962C79.046 34.5287 74.0563 40.0454 73.9574 46.7666Z" fill="#5BD595"/>
<path d="M140.685 27.3666C140.696 27.8823 140.904 28.3743 141.268 28.7411C141.632 29.108 142.123 29.3218 142.641 29.3383C147.954 29.4985 162.926 29.9551 169.618 30.1954C169.925 30.2063 170.232 30.147 170.513 30.0221C170.795 29.8971 171.044 29.7098 171.241 29.4744C171.439 29.239 171.58 28.9618 171.654 28.6638C171.727 28.3658 171.732 28.0551 171.667 27.7551C171.644 27.714 171.472 26.0659 169.782 25.949C165.256 25.6352 151.599 24.7901 142.576 25.3095C140.728 25.4155 140.627 27.5149 140.685 27.3666Z" fill="#1F5AA9"/>
<path d="M77.8947 3.83203H232.416C232.992 3.83203 233.545 4.06005 233.953 4.46594C234.36 4.87182 234.589 5.42231 234.589 5.99632V260.05C234.589 260.817 234.283 261.553 233.738 262.095C233.194 262.638 232.455 262.943 231.685 262.943H79.4156C78.6454 262.943 77.9068 262.638 77.3622 262.095C76.8177 261.553 76.5117 260.817 76.5117 260.05V5.21068C76.5117 4.84523 76.6574 4.49473 76.9167 4.23621C77.176 3.9777 77.5278 3.83232 77.8947 3.83203Z" fill="#4AA29A"/>
<path opacity="0.3" d="M77.8947 3.83203H232.416C232.992 3.83203 233.545 4.06005 233.953 4.46594C234.36 4.87182 234.589 5.42231 234.589 5.99632V260.05C234.589 260.817 234.283 261.553 233.738 262.095C233.194 262.638 232.455 262.943 231.685 262.943H79.4156C78.6454 262.943 77.9068 262.638 77.3622 262.095C76.8177 261.553 76.5117 260.817 76.5117 260.05V5.21068C76.5117 4.84523 76.6574 4.49473 76.9167 4.23621C77.176 3.9777 77.5278 3.83232 77.8947 3.83203Z" fill="#404040"/>
<path d="M80.5829 8.125H228.924C229.694 8.125 230.433 8.42975 230.977 8.97221C231.522 9.51468 231.828 10.2504 231.828 11.0176V255.278C231.828 256.045 231.522 256.781 230.977 257.323C230.433 257.866 229.694 258.17 228.924 258.17H82.1832C81.413 258.17 80.6744 257.866 80.1298 257.323C79.5852 256.781 79.2793 256.045 79.2793 255.278V9.42357C79.2793 9.07917 79.4166 8.74887 79.6611 8.50534C79.9056 8.26181 80.2372 8.125 80.5829 8.125Z" fill="#4AA29A"/>
<path opacity="0.58" d="M80.5829 8.125H228.924C229.694 8.125 230.433 8.42975 230.977 8.97221C231.522 9.51468 231.828 10.2504 231.828 11.0176V255.278C231.828 256.045 231.522 256.781 230.977 257.323C230.433 257.866 229.694 258.17 228.924 258.17H82.1832C81.413 258.17 80.6744 257.866 80.1298 257.323C79.5852 256.781 79.2793 256.045 79.2793 255.278V9.42357C79.2793 9.07917 79.4166 8.74887 79.6611 8.50534C79.9056 8.26181 80.2372 8.125 80.5829 8.125Z" fill="white"/>
<path d="M202.793 27.9629H110.483C110.124 27.9629 109.834 28.2521 109.834 28.6089V50.5851C109.834 50.9419 110.124 51.2311 110.483 51.2311H202.793C203.151 51.2311 203.441 50.9419 203.441 50.5851V28.6089C203.441 28.2521 203.151 27.9629 202.793 27.9629Z" fill="white"/>
<path d="M215.447 152.125H126.428C126.095 152.125 125.824 152.394 125.824 152.727V164.339C125.824 164.671 126.095 164.941 126.428 164.941H215.447C215.78 164.941 216.051 164.671 216.051 164.339V152.727C216.051 152.394 215.78 152.125 215.447 152.125Z" fill="white"/>
<path d="M116.927 147.289H95.0036C94.6478 147.289 94.3594 147.576 94.3594 147.931V169.132C94.3594 169.487 94.6478 169.774 95.0036 169.774H116.927C117.282 169.774 117.571 169.487 117.571 169.132V147.931C117.571 147.576 117.282 147.289 116.927 147.289Z" fill="white"/>
<path d="M215.771 119.414H126.752C126.419 119.414 126.148 119.683 126.148 120.016V131.628C126.148 131.961 126.419 132.23 126.752 132.23H215.771C216.105 132.23 216.375 131.961 216.375 131.628V120.016C216.375 119.683 216.105 119.414 215.771 119.414Z" fill="white"/>
<path d="M117.253 114.578H95.3298C94.974 114.578 94.6855 114.865 94.6855 115.22V136.421C94.6855 136.776 94.974 137.063 95.3298 137.063H117.253C117.609 137.063 117.897 136.776 117.897 136.421V115.22C117.897 114.865 117.609 114.578 117.253 114.578Z" fill="white"/>
<path d="M215.447 217.545H126.428C126.095 217.545 125.824 217.814 125.824 218.147V229.759C125.824 230.091 126.095 230.361 126.428 230.361H215.447C215.78 230.361 216.051 230.091 216.051 229.759V218.147C216.051 217.814 215.78 217.545 215.447 217.545Z" fill="white"/>
<path d="M116.927 212.711H95.0036C94.6478 212.711 94.3594 212.998 94.3594 213.353V234.554C94.3594 234.908 94.6478 235.196 95.0036 235.196H116.927C117.282 235.196 117.571 234.908 117.571 234.554V213.353C117.571 212.998 117.282 212.711 116.927 212.711Z" fill="white"/>
<path d="M215.771 184.834H126.752C126.419 184.834 126.148 185.103 126.148 185.436V197.048C126.148 197.38 126.419 197.65 126.752 197.65H215.771C216.105 197.65 216.375 197.38 216.375 197.048V185.436C216.375 185.103 216.105 184.834 215.771 184.834Z" fill="white"/>
<path d="M117.253 180H95.3298C94.974 180 94.6855 180.287 94.6855 180.642V201.843C94.6855 202.197 94.974 202.485 95.3298 202.485H117.253C117.609 202.485 117.897 202.197 117.897 201.843V180.642C117.897 180.287 117.609 180 117.253 180Z" fill="white"/>
<path d="M215.771 86.7031H126.752C126.419 86.7031 126.148 86.9725 126.148 87.3048V98.9173C126.148 99.2495 126.419 99.5189 126.752 99.5189H215.771C216.105 99.5189 216.375 99.2495 216.375 98.9173V87.3048C216.375 86.9725 216.105 86.7031 215.771 86.7031Z" fill="white"/>
<path d="M117.253 81.8672H95.3298C94.974 81.8672 94.6855 82.1545 94.6855 82.5089V103.71C94.6855 104.065 94.974 104.352 95.3298 104.352H117.253C117.609 104.352 117.897 104.065 117.897 103.71V82.5089C117.897 82.1545 117.609 81.8672 117.253 81.8672Z" fill="white"/>
<path d="M20.8059 260.706C20.7172 260.683 20.6372 260.635 20.5752 260.567C20.5132 260.5 20.4719 260.417 20.4561 260.327C20.3474 259.708 20.2529 259.076 20.1714 258.448C20.1639 258.387 20.1687 258.324 20.1857 258.264C20.2027 258.205 20.2314 258.149 20.2703 258.101C20.3091 258.052 20.3573 258.012 20.4119 257.982C20.4666 257.952 20.5266 257.934 20.5886 257.928C21.2263 257.853 21.1144 258.504 21.4034 260.182C21.4145 260.243 21.4131 260.306 21.3992 260.367C21.3853 260.428 21.3592 260.485 21.3224 260.536C21.2857 260.586 21.2391 260.629 21.1854 260.661C21.1318 260.693 21.0721 260.714 21.0101 260.723C20.9416 260.732 20.872 260.727 20.8059 260.706Z" fill="#213782"/>
<path d="M19.7949 252.546C19.7949 251.337 19.8471 250.115 19.947 248.912C19.9524 248.85 19.9702 248.79 19.9992 248.735C20.0283 248.68 20.068 248.631 20.1161 248.592C20.1643 248.552 20.2198 248.522 20.2796 248.504C20.3393 248.486 20.402 248.48 20.4641 248.487C21.1855 248.556 20.7618 248.998 20.7564 252.558C20.7558 252.62 20.7429 252.681 20.7183 252.738C20.6937 252.795 20.658 252.847 20.6132 252.89C20.5684 252.933 20.5154 252.967 20.4574 252.989C20.3993 253.012 20.3374 253.023 20.2751 253.021C20.1484 253.021 20.0269 252.971 19.937 252.882C19.8471 252.793 19.7961 252.672 19.7949 252.546ZM20.8063 243.073C21.0595 241.882 21.3658 240.692 21.7048 239.553C21.8862 238.942 22.8031 239.24 22.6282 239.825C22.2903 240.957 21.9959 242.114 21.7482 243.275C21.7162 243.394 21.6394 243.497 21.5338 243.561C21.4281 243.625 21.3016 243.647 21.1806 243.621C21.0595 243.595 20.9531 243.523 20.8835 243.421C20.8138 243.319 20.7862 243.194 20.8063 243.073ZM23.7548 234.017C24.2469 232.916 24.7901 231.82 25.3702 230.759C25.67 230.213 26.5174 230.665 26.2197 231.208C25.6516 232.248 25.1192 233.322 24.6369 234.402C24.3827 234.97 23.5016 234.583 23.7548 234.017ZM28.6597 226.416C28.6084 226.381 28.5645 226.336 28.5308 226.284C28.4972 226.232 28.4743 226.174 28.4635 226.113C28.4528 226.052 28.4545 225.989 28.4684 225.929C28.4823 225.868 28.5082 225.811 28.5446 225.761C29.2594 224.787 30.0231 223.821 30.8151 222.901C31.2225 222.428 31.9612 223.037 31.5538 223.51C30.7782 224.411 30.0329 225.355 29.33 226.313C29.2542 226.414 29.1415 226.481 29.0162 226.501C28.8909 226.52 28.7629 226.49 28.6597 226.416ZM34.9498 219.319C34.907 219.274 34.8736 219.221 34.8516 219.163C34.8296 219.105 34.8194 219.044 34.8218 218.982C34.8241 218.92 34.8388 218.859 34.8651 218.803C34.8914 218.747 34.9287 218.697 34.9748 218.655C35.8798 217.842 36.8304 217.054 37.7994 216.312C38.298 215.934 38.8955 216.674 38.398 217.055C37.4496 217.781 36.5197 218.553 35.6321 219.35C35.5368 219.435 35.412 219.479 35.2845 219.473C35.1571 219.467 35.037 219.412 34.9498 219.319ZM42.8858 213.846C42.7656 213.813 42.6626 213.736 42.5979 213.63C42.5642 213.577 42.5417 213.518 42.5316 213.456C42.5215 213.395 42.5241 213.331 42.5392 213.271C42.5544 213.21 42.5817 213.153 42.6196 213.103C42.6575 213.053 42.7052 213.012 42.7598 212.981C43.8179 212.365 44.913 211.784 46.0189 211.249C46.1337 211.194 46.2655 211.186 46.3862 211.227C46.507 211.267 46.6071 211.353 46.6653 211.466C46.6938 211.521 46.7109 211.581 46.7156 211.642C46.7204 211.704 46.7126 211.766 46.6929 211.825C46.6731 211.883 46.6418 211.937 46.6006 211.984C46.5595 212.03 46.5095 212.068 46.4535 212.094C45.3736 212.616 44.3003 213.186 43.2628 213.789C43.2071 213.823 43.145 213.846 43.0802 213.856C43.0154 213.866 42.9493 213.863 42.8858 213.846ZM51.6116 209.892C51.5372 209.872 51.4688 209.834 51.4121 209.782C51.3554 209.729 51.3121 209.665 51.2856 209.592C51.2645 209.534 51.2554 209.472 51.2587 209.411C51.262 209.349 51.2778 209.288 51.3051 209.233C51.3323 209.177 51.3705 209.127 51.4174 209.087C51.4642 209.046 51.5188 209.015 51.5779 208.996C52.7425 208.604 53.9375 208.254 55.1314 207.953C55.2544 207.921 55.385 207.939 55.4952 208.002C55.6053 208.065 55.6861 208.169 55.7202 208.291C55.7366 208.35 55.7409 208.413 55.7326 208.474C55.7244 208.535 55.7038 208.594 55.6722 208.648C55.6406 208.701 55.5985 208.747 55.5486 208.784C55.4986 208.821 55.4417 208.847 55.3813 208.862C54.2123 209.157 53.0412 209.5 51.8994 209.885C51.8064 209.916 51.7061 209.919 51.6116 209.892ZM60.6458 207.372C60.6375 207.31 60.6416 207.248 60.6579 207.188C60.6742 207.128 60.7024 207.072 60.7408 207.023C60.7791 206.975 60.8269 206.934 60.8814 206.904C60.9358 206.874 60.9957 206.855 61.0576 206.848C62.2808 206.699 63.528 206.595 64.7643 206.54C65.4009 206.513 65.453 207.45 64.8197 207.478C63.6084 207.532 62.3862 207.634 61.1879 207.78C61.062 207.796 60.9347 207.762 60.8333 207.686C60.732 207.61 60.6647 207.497 60.6458 207.372ZM92.2474 214.612C89.1751 212.709 88.5341 212.805 88.8709 212.178C88.9316 212.066 89.0344 211.983 89.1566 211.946C89.2788 211.91 89.4105 211.924 89.5227 211.984C90.6211 212.552 91.7096 213.174 92.7601 213.824C93.2957 214.155 92.7895 214.948 92.2474 214.612ZM70.3026 207.077C70.3071 207.015 70.324 206.955 70.3524 206.899C70.3807 206.843 70.4199 206.794 70.4677 206.754C70.5154 206.713 70.5708 206.683 70.6305 206.664C70.6902 206.646 70.7531 206.639 70.8154 206.645C72.0473 206.743 73.2923 206.89 74.5167 207.077C75.1457 207.176 75.0034 208.103 74.3754 208.005C73.1804 207.817 71.955 207.673 70.748 207.572C70.6238 207.563 70.5079 207.507 70.4247 207.414C70.3414 207.322 70.2973 207.201 70.3015 207.077H70.3026ZM83.652 210.419C80.2614 209.168 79.6454 209.389 79.8432 208.704C79.9681 208.271 80.495 208.379 80.4352 208.379C81.6302 208.719 82.8253 209.109 83.9822 209.535C84.0445 209.553 84.1025 209.583 84.1524 209.625C84.2024 209.666 84.2433 209.717 84.2726 209.774C84.3018 209.832 84.3188 209.895 84.3225 209.959C84.3263 210.024 84.3166 210.089 84.2941 210.149C84.2716 210.21 84.2369 210.265 84.1919 210.312C84.147 210.358 84.093 210.395 84.0331 210.42C83.9733 210.445 83.9089 210.457 83.8441 210.456C83.7792 210.455 83.7153 210.44 83.6563 210.414L83.652 210.419Z" fill="#213782"/>
<path d="M98.5355 219.276C97.3253 218.213 96.6061 217.882 97.02 217.393C97.1027 217.297 97.2199 217.237 97.3464 217.226C97.4729 217.215 97.5987 217.254 97.6968 217.335C98.9928 218.384 99.6305 218.791 99.2177 219.245C99.0939 219.381 98.7386 219.45 98.5355 219.276Z" fill="#213782"/>
<path d="M114.614 252.167C114.515 252.141 114.428 252.084 114.364 252.005C114.299 251.926 114.262 251.829 114.257 251.727C114.231 251.11 114.191 250.485 114.14 249.872C114.135 249.81 114.143 249.748 114.162 249.689C114.182 249.63 114.213 249.575 114.254 249.529C114.295 249.482 114.345 249.444 114.401 249.417C114.457 249.39 114.518 249.374 114.58 249.37C114.706 249.361 114.831 249.401 114.928 249.482C115.024 249.563 115.086 249.678 115.098 249.803C115.151 250.43 115.191 251.067 115.218 251.698C115.22 251.76 115.21 251.822 115.188 251.88C115.166 251.938 115.132 251.991 115.089 252.036C115.046 252.081 114.995 252.117 114.938 252.142C114.881 252.167 114.819 252.18 114.757 252.181C114.709 252.183 114.661 252.179 114.614 252.167Z" fill="#213782"/>
<path d="M53.9318 297.632C52.6531 297.248 51.3767 296.807 50.1371 296.32C50.0787 296.298 50.0253 296.265 49.9799 296.222C49.9345 296.18 49.898 296.129 49.8726 296.072C49.8471 296.015 49.8332 295.954 49.8316 295.892C49.83 295.83 49.8408 295.768 49.8633 295.71C50.136 295.032 50.4652 295.611 54.2088 296.735C54.269 296.752 54.3251 296.78 54.3741 296.819C54.4231 296.858 54.4639 296.906 54.4941 296.96C54.5244 297.015 54.5436 297.075 54.5506 297.137C54.5575 297.199 54.5522 297.261 54.5347 297.321C54.3968 297.754 53.8742 297.639 53.9318 297.632ZM59.8862 298.553C59.9949 297.833 60.4696 298.33 64.3403 298.636C64.4668 298.645 64.5847 298.703 64.6684 298.798C64.752 298.892 64.7946 299.016 64.7868 299.142C64.7821 299.205 64.765 299.265 64.7365 299.321C64.7081 299.376 64.6689 299.425 64.6212 299.466C64.5735 299.506 64.5183 299.536 64.4587 299.555C64.3991 299.574 64.3364 299.581 64.2741 299.575C62.9498 299.467 61.6092 299.309 60.2904 299.096C60.2279 299.087 60.1678 299.066 60.1137 299.033C60.0595 299.001 60.0122 298.959 59.9747 298.908C59.9371 298.858 59.9099 298.8 59.8948 298.739C59.8796 298.678 59.8767 298.615 59.8862 298.553ZM44.2424 293.541C43.0811 292.892 41.9317 292.191 40.8269 291.449C40.7753 291.416 40.731 291.372 40.6965 291.321C40.6621 291.27 40.6381 291.212 40.6261 291.152C40.6141 291.091 40.6142 291.029 40.6265 290.969C40.6388 290.908 40.6629 290.851 40.6976 290.8C41.1158 290.2 41.306 290.835 44.7117 292.731C44.7664 292.761 44.8146 292.801 44.8535 292.849C44.8924 292.898 44.9213 292.954 44.9385 293.013C44.9556 293.073 44.9608 293.135 44.9536 293.197C44.9463 293.259 44.9269 293.318 44.8964 293.372C44.8313 293.48 44.7266 293.558 44.6045 293.589C44.4825 293.621 44.3529 293.604 44.2435 293.541H44.2424ZM70.6261 299.636C70.5297 299.61 70.4436 299.556 70.3797 299.479C70.3159 299.403 70.2775 299.309 70.2698 299.21C70.266 299.148 70.2746 299.086 70.2951 299.027C70.3156 298.969 70.3477 298.915 70.3894 298.869C70.431 298.823 70.4815 298.785 70.5378 298.759C70.5941 298.733 70.6552 298.718 70.7174 298.715C72.021 298.642 73.3344 298.516 74.6218 298.337C74.7475 298.319 74.8753 298.351 74.9779 298.425C75.0804 298.5 75.1496 298.612 75.1704 298.737C75.1797 298.798 75.1767 298.86 75.1614 298.92C75.1462 298.98 75.119 299.037 75.0816 299.086C75.0441 299.136 74.9971 299.177 74.9433 299.208C74.8896 299.239 74.8301 299.259 74.7684 299.267C73.4539 299.45 72.1133 299.579 70.7825 299.652C70.7302 299.655 70.6778 299.649 70.6272 299.636H70.6261ZM80.8565 297.947C80.7772 297.925 80.7046 297.884 80.6456 297.828C80.5865 297.771 80.5428 297.7 80.5186 297.622C80.5008 297.563 80.4952 297.5 80.502 297.439C80.5089 297.377 80.528 297.317 80.5584 297.263C80.5888 297.209 80.6298 297.162 80.679 297.124C80.7281 297.086 80.7844 297.058 80.8445 297.042C82.0939 296.694 83.3432 296.285 84.5588 295.835C84.6778 295.791 84.8094 295.795 84.9257 295.846C85.0419 295.897 85.1336 295.991 85.1813 296.108C85.2043 296.166 85.2155 296.227 85.2142 296.289C85.2129 296.35 85.1992 296.411 85.1738 296.468C85.1485 296.524 85.1121 296.575 85.0667 296.617C85.0214 296.659 84.968 296.692 84.9098 296.713C83.6691 297.174 82.3937 297.588 81.1194 297.946C81.0338 297.969 80.9434 297.97 80.8576 297.947H80.8565ZM90.435 294.101C90.3728 294.084 90.3145 294.056 90.2636 294.016C90.2126 293.977 90.1701 293.928 90.1385 293.872C90.1076 293.819 90.088 293.76 90.0806 293.698C90.0732 293.637 90.0783 293.575 90.0955 293.515C90.1127 293.456 90.1418 293.401 90.1809 293.353C90.22 293.305 90.2684 293.265 90.3231 293.236C91.4617 292.627 92.5882 291.964 93.6703 291.262C93.7773 291.194 93.9068 291.17 94.0313 291.195C94.1558 291.221 94.2656 291.293 94.3373 291.398C94.3724 291.448 94.3969 291.506 94.4095 291.566C94.422 291.627 94.4222 291.689 94.4102 291.749C94.3981 291.81 94.374 291.867 94.3393 291.918C94.3046 291.97 94.2599 292.013 94.208 292.047C93.1032 292.761 91.9549 293.438 90.7925 294.06C90.6833 294.118 90.5558 294.133 90.4361 294.101H90.435ZM98.9022 288.298C98.8119 288.273 98.7306 288.223 98.6676 288.154C98.6256 288.109 98.5933 288.055 98.5725 287.997C98.5516 287.939 98.5428 287.877 98.5465 287.815C98.5501 287.753 98.5662 287.693 98.5937 287.637C98.6212 287.582 98.6596 287.532 98.7067 287.492C99.679 286.654 100.627 285.761 101.525 284.849C101.614 284.76 101.735 284.709 101.862 284.707C101.989 284.705 102.111 284.752 102.204 284.839C102.25 284.88 102.287 284.931 102.312 284.987C102.338 285.043 102.353 285.104 102.355 285.166C102.356 285.228 102.346 285.29 102.323 285.347C102.301 285.405 102.267 285.458 102.223 285.502C101.307 286.437 100.341 287.342 99.3466 288.2C99.2862 288.251 99.2144 288.286 99.1372 288.304C99.0599 288.321 98.9797 288.319 98.9033 288.298H98.9022ZM105.696 280.741C105.089 280.308 105.74 280.15 107.733 276.896C108.059 276.365 108.885 276.854 108.56 277.385C107.88 278.495 107.148 279.59 106.367 280.64C106.291 280.741 106.178 280.808 106.053 280.826C105.928 280.845 105.8 280.814 105.698 280.741H105.696ZM110.866 271.975C110.178 271.685 110.772 271.393 111.98 267.778C112.176 267.192 113.091 267.489 112.895 268.078C112.483 269.312 112.012 270.541 111.497 271.732C111.446 271.847 111.351 271.938 111.233 271.984C111.115 272.03 110.984 272.028 110.868 271.978L110.866 271.975ZM113.886 262.291C113.77 262.261 113.67 262.188 113.605 262.088C113.541 261.988 113.516 261.867 113.537 261.75C113.769 260.494 113.952 259.216 114.08 257.955C114.087 257.893 114.106 257.833 114.136 257.779C114.166 257.725 114.206 257.677 114.255 257.638C114.304 257.599 114.36 257.57 114.42 257.553C114.48 257.536 114.543 257.531 114.605 257.538C114.731 257.55 114.847 257.611 114.929 257.708C115.01 257.805 115.05 257.93 115.039 258.056C114.912 259.342 114.727 260.645 114.49 261.929C114.477 261.99 114.453 262.048 114.419 262.1C114.384 262.151 114.339 262.196 114.287 262.23C114.235 262.265 114.177 262.289 114.116 262.301C114.054 262.312 113.991 262.312 113.93 262.3C113.915 262.299 113.901 262.298 113.887 262.294L113.886 262.291Z" fill="#213782"/>
<path d="M35.6683 287.456C34.4211 286.348 33.8041 285.914 34.2419 285.481C34.6971 285.029 35.0339 285.63 36.3114 286.765C36.3583 286.806 36.3965 286.855 36.4237 286.911C36.451 286.967 36.4667 287.027 36.4701 287.089C36.4734 287.151 36.4643 287.213 36.4432 287.271C36.4221 287.329 36.3895 287.383 36.3473 287.428C36.26 287.52 36.1403 287.574 36.0135 287.579C35.8868 287.585 35.7629 287.541 35.6683 287.456Z" fill="#213782"/>
<path d="M39.7559 275.126L46.4675 273.639C48.8097 275.903 51.5007 277.777 54.4382 279.193C55.3312 285.692 54.9314 286.212 55.6539 286.377L63.7332 288.227C63.8472 288.254 63.9667 288.245 64.0753 288.201C64.1839 288.158 64.2762 288.081 64.3394 287.983L67.9516 282.288C71.2112 282.291 74.4501 281.772 77.5443 280.751L82.9425 285.012C83.0343 285.083 83.1456 285.126 83.2619 285.133C83.3782 285.141 83.494 285.113 83.5943 285.054L90.5808 280.797C90.6801 280.737 90.7575 280.647 90.8019 280.541C90.8463 280.434 90.8552 280.316 90.8274 280.204L89.2272 273.631C91.5089 271.383 93.4006 268.775 94.8253 265.911L101.686 265.233C101.802 265.223 101.911 265.176 101.999 265.1C102.087 265.024 102.149 264.922 102.176 264.809L103.976 256.94C104.001 256.826 103.99 256.708 103.944 256.601C103.898 256.494 103.819 256.405 103.719 256.345L97.8443 252.75C97.8074 249.55 97.2388 246.378 96.1615 243.363C100.251 238.169 100.89 238.109 100.496 237.499C96.0224 230.834 96.1811 230.215 95.4456 230.377L88.7329 231.864C86.3915 229.6 83.7008 227.724 80.7632 226.308C79.8702 219.815 80.27 219.29 79.5476 219.123C71.4889 217.423 71.2499 216.905 70.8566 217.517L67.2477 223.214C63.9881 223.21 60.7492 223.728 57.655 224.749C52.36 220.745 52.2307 220.064 51.6006 220.448C44.7619 224.776 44.1937 224.587 44.3665 225.297L45.9678 231.871C43.6858 234.117 41.7937 236.724 40.3686 239.587C33.8406 240.369 33.1898 239.972 33.0258 240.69C31.3854 248.508 30.8465 248.766 31.4821 249.155L37.3561 252.75C37.3938 255.95 37.9628 259.121 39.04 262.136C34.9639 267.308 34.3099 267.387 34.7053 268.001C39.179 274.671 39.0204 275.29 39.7559 275.126Z" fill="#213782"/>
<path opacity="0.6" d="M59.5344 252.882C59.4106 248.536 62.9283 244.942 67.377 244.874C71.8257 244.806 75.5465 248.281 75.6714 252.627C75.7964 256.972 72.2776 260.566 67.8289 260.634C63.3758 260.706 59.6561 257.226 59.5344 252.882ZM67.4139 246.281C63.8028 246.338 60.8696 249.236 60.9739 252.859C61.076 256.43 64.1309 259.286 67.7854 259.227C71.44 259.167 74.3287 256.216 74.2255 252.647C74.1223 249.078 71.0609 246.22 67.4139 246.28V246.281Z" fill="white"/>
<path opacity="0.6" d="M62.4146 272.119C61.2649 271.809 60.1434 271.402 59.0621 270.904C58.9093 270.835 58.7859 270.715 58.7135 270.564C58.6412 270.414 58.6246 270.242 58.6666 270.081C58.6772 270.041 58.6914 270.003 58.709 269.966C58.7922 269.796 58.9394 269.666 59.1186 269.603C59.2978 269.54 59.4945 269.551 59.6661 269.632C60.9126 270.205 62.2152 270.648 63.5531 270.954C73.6564 273.268 83.7097 267.353 86.3452 257.7C86.4126 257.453 86.4749 257.204 86.5321 256.952C88.8559 246.798 82.2735 236.716 71.9291 234.346C61.5846 231.976 51.2695 238.221 48.9479 248.352C47.5693 254.381 49.6432 258.139 49.4726 258.763C49.289 259.436 48.3167 259.452 48.0919 258.789C46.825 255.055 46.7029 251.03 47.741 247.227C52.357 230.32 75.5706 227.099 85.2046 242.012C88.1704 246.603 89.1405 252.024 87.9379 257.279C87.8759 257.552 87.8075 257.82 87.7347 258.089C86.3974 262.992 83.2621 267.142 78.8384 269.837C74.1735 272.68 68.633 273.565 63.237 272.326C62.9621 272.268 62.684 272.193 62.4146 272.119Z" fill="white"/>
<path d="M23.9155 203.814C25.4255 205.084 27.1332 206.101 28.9714 206.824L29.7439 210.907C29.8297 211.36 30.1904 211.124 34.9845 211.905C35.4267 211.97 35.3104 211.587 37.2572 208.035C39.2263 207.869 41.155 207.383 42.9672 206.598L46.4143 208.942C46.7978 209.203 46.8803 208.778 50.8293 205.958C50.8865 205.915 50.9289 205.856 50.9507 205.788C50.9725 205.721 50.9726 205.648 50.951 205.58L49.6875 201.618C50.9628 200.114 51.9832 198.413 52.7087 196.582C56.611 195.765 57.0173 195.975 57.0836 195.526C57.7169 190.628 58.0287 190.445 57.6267 190.238L53.9222 188.328C53.7553 186.367 53.2684 184.445 52.4806 182.64L54.8358 179.203C55.0966 178.823 54.6707 178.74 51.8385 174.806C51.5735 174.45 51.3964 174.793 47.4822 175.943C45.9723 174.673 44.2645 173.656 42.4262 172.933L41.6538 168.851C41.568 168.396 41.2073 168.635 36.4131 167.852C35.9731 167.787 36.0926 168.152 34.1415 171.722C32.172 171.888 30.243 172.374 28.4304 173.159L24.9866 170.818C24.9278 170.778 24.8578 170.758 24.7866 170.759C24.7154 170.76 24.6463 170.784 24.589 170.826L20.5694 173.803C20.5121 173.845 20.4694 173.904 20.4474 173.972C20.4254 174.04 20.4251 174.113 20.4467 174.181L21.7112 178.142C20.4344 179.646 19.4125 181.347 18.6856 183.179C14.7845 183.997 14.3771 183.787 14.3108 184.235C13.6775 189.131 13.3657 189.321 13.7676 189.522L17.4733 191.431C17.6405 193.393 18.1278 195.314 18.916 197.12C16.7367 200.445 16.2978 200.583 16.5705 200.95L19.5591 204.953C19.8263 205.309 20.0208 204.958 23.9155 203.814Z" fill="#213782"/>
<path opacity="0.6" d="M30.503 190.408C30.3992 189.384 30.6024 188.353 31.0869 187.444C31.5714 186.535 32.3155 185.79 33.2251 185.303C34.1347 184.815 35.169 184.607 36.1971 184.705C37.2253 184.803 38.2013 185.203 39.0016 185.853C39.802 186.503 40.3908 187.375 40.6936 188.359C40.9964 189.343 40.9997 190.394 40.703 191.379C40.4062 192.365 39.8229 193.241 39.0266 193.896C38.2303 194.551 37.2568 194.957 36.2293 195.061C34.8507 195.199 33.4734 194.787 32.3998 193.914C31.3262 193.042 30.644 191.781 30.503 190.408ZM32.0489 190.25C32.1487 191.213 32.6279 192.097 33.3814 192.709C34.1349 193.321 35.1013 193.61 36.0685 193.513C39.2983 193.189 40.5389 189.099 38.0131 187.049C35.4873 184.998 31.723 187.012 32.0489 190.25Z" fill="white"/>
<path d="M11.1362 201.878C10.8266 201.252 10.5387 200.604 10.279 199.952C10.2538 199.889 10.2413 199.822 10.2422 199.754C10.2432 199.686 10.2575 199.619 10.2844 199.557C10.3114 199.494 10.3504 199.438 10.3992 199.391C10.4481 199.343 10.5058 199.306 10.5691 199.281C11.2394 199.015 11.2709 199.806 12.0683 201.423C12.1251 201.545 12.1314 201.685 12.0861 201.813C12.0407 201.94 11.9472 202.044 11.8255 202.104C11.7038 202.163 11.5636 202.173 11.4348 202.131C11.306 202.089 11.1988 201.998 11.1362 201.878Z" fill="#213782"/>
<path d="M8.55743 193.258C8.38041 191.847 8.31322 190.425 8.35645 189.004C8.37818 188.319 9.41566 188.354 9.39394 189.036C9.27661 192.81 9.99796 193.601 9.13647 193.707C9.06883 193.715 9.00017 193.71 8.93444 193.692C8.86871 193.674 8.80718 193.644 8.75339 193.602C8.6996 193.56 8.6546 193.508 8.62098 193.449C8.58735 193.39 8.56575 193.325 8.55743 193.258ZM9.80241 182.821C9.67054 182.783 9.55953 182.693 9.49375 182.573C9.42796 182.453 9.41277 182.311 9.45151 182.18C9.85572 180.816 10.3664 179.485 10.979 178.201C11.2734 177.584 12.2109 178.026 11.9165 178.644C11.3267 179.88 10.8356 181.16 10.4477 182.472C10.3054 182.952 9.74049 182.83 9.80241 182.821ZM14.9844 173.216C14.912 173.198 14.8448 173.163 14.7878 173.115C14.7354 173.071 14.6922 173.018 14.6605 172.958C14.6289 172.897 14.6095 172.832 14.6034 172.764C14.5974 172.696 14.6048 172.628 14.6252 172.563C14.6457 172.498 14.6788 172.438 14.7226 172.386C15.6372 171.297 16.6353 170.279 17.708 169.343C17.8123 169.259 17.9454 169.219 18.0792 169.23C18.213 169.241 18.3371 169.304 18.4255 169.405C18.5139 169.505 18.5598 169.636 18.5534 169.77C18.547 169.904 18.4889 170.03 18.3913 170.121C17.3578 171.022 16.396 172.001 15.5146 173.05C15.4513 173.125 15.3678 173.18 15.2739 173.21C15.18 173.24 15.0795 173.242 14.9844 173.216ZM23.5668 166.454C23.4651 166.427 23.3742 166.369 23.3061 166.289C23.2381 166.209 23.196 166.111 23.1857 166.006C23.1753 165.902 23.197 165.797 23.248 165.705C23.299 165.614 23.3769 165.54 23.4712 165.493C24.7478 164.857 26.073 164.323 27.4343 163.895C27.5636 163.86 27.7013 163.877 27.8187 163.941C27.9362 164.005 28.0242 164.112 28.0644 164.239C28.1047 164.366 28.094 164.504 28.0347 164.623C27.9754 164.743 27.8719 164.835 27.7461 164.881C26.4372 165.292 25.1629 165.806 23.9351 166.417C23.8208 166.475 23.6891 166.488 23.5657 166.454H23.5668ZM33.7667 163.208C33.7602 163.071 33.8082 162.938 33.9002 162.836C33.9922 162.735 34.1208 162.674 34.2578 162.666C35.6834 162.592 37.1127 162.628 38.5327 162.775C39.2127 162.841 39.1106 163.873 38.424 163.803C37.0577 163.663 35.6825 163.63 34.311 163.704C34.2423 163.708 34.1736 163.697 34.1089 163.674C34.0442 163.651 33.9848 163.615 33.9341 163.569C33.8834 163.522 33.8424 163.467 33.8135 163.404C33.7845 163.342 33.7683 163.275 33.7657 163.206L33.7667 163.208Z" fill="#213782"/>
<path d="M46.8226 166.109C45.0975 165.306 44.3978 165.31 44.6434 164.657C44.6669 164.593 44.703 164.535 44.7495 164.485C44.796 164.435 44.852 164.395 44.9143 164.366C44.9766 164.338 45.0439 164.323 45.1122 164.321C45.1806 164.318 45.2487 164.33 45.3126 164.354C45.9644 164.6 46.6227 164.875 47.2615 165.171C47.3279 165.197 47.3883 165.235 47.439 165.285C47.4898 165.335 47.5298 165.394 47.5565 165.46C47.5832 165.525 47.5962 165.596 47.5945 165.666C47.5928 165.737 47.5766 165.807 47.5468 165.871C47.517 165.935 47.4742 165.993 47.4212 166.04C47.3682 166.087 47.306 166.123 47.2386 166.145C47.1711 166.168 47.0997 166.176 47.0289 166.169C46.9581 166.163 46.8894 166.142 46.827 166.109H46.8226Z" fill="#213782"/>
<path d="M60.8953 182.274C60.3423 180.451 59.8741 179.941 60.527 179.688C60.5905 179.663 60.6584 179.651 60.7265 179.652C60.7947 179.654 60.862 179.669 60.9244 179.696C60.9869 179.723 61.0433 179.763 61.0905 179.812C61.1377 179.861 61.1747 179.919 61.1994 179.982C61.4526 180.631 61.6851 181.302 61.8882 181.974C61.9115 182.04 61.9212 182.11 61.9166 182.18C61.9121 182.25 61.8934 182.318 61.8617 182.38C61.83 182.442 61.786 182.498 61.7322 182.542C61.6785 182.587 61.6162 182.621 61.5491 182.641C61.4819 182.662 61.4114 182.668 61.3417 182.66C61.2719 182.653 61.2045 182.631 61.1434 182.597C61.0823 182.562 61.0288 182.516 60.9862 182.461C60.9435 182.405 60.9126 182.342 60.8953 182.274Z" fill="#213782"/>
<path d="M31.0697 216.218C31.2011 215.369 31.9464 216.096 35.6965 216.093C36.381 216.093 36.3853 217.125 35.6965 217.127C34.2928 217.126 32.8912 217.017 31.5042 216.802C31.3692 216.781 31.2478 216.708 31.1665 216.599C31.0851 216.489 31.0503 216.352 31.0697 216.218ZM41.8346 215.909C41.8178 215.843 41.8142 215.775 41.824 215.708C41.8338 215.641 41.8569 215.576 41.8918 215.518C41.9267 215.459 41.9728 215.408 42.0275 215.368C42.0822 215.327 42.1443 215.298 42.2104 215.281C45.8748 214.356 46.3821 213.472 46.7221 214.265C46.7761 214.392 46.7776 214.534 46.7263 214.661C46.6749 214.788 46.575 214.89 46.4484 214.944C45.1569 215.491 43.8251 215.939 42.4647 216.284C42.3979 216.302 42.3283 216.306 42.2597 216.297C42.1911 216.288 42.1251 216.266 42.0655 216.231C42.0058 216.196 41.9538 216.149 41.9125 216.094C41.8711 216.039 41.8413 215.976 41.8248 215.909H41.8346ZM51.6119 211.419C51.0861 210.736 52.1203 210.712 54.7189 208.005C55.1937 207.512 55.9444 208.222 55.4696 208.719C54.4992 209.73 53.4525 210.665 52.3387 211.516C52.2844 211.558 52.222 211.59 52.1552 211.608C52.0884 211.627 52.0187 211.631 51.95 211.622C51.8813 211.613 51.8152 211.591 51.7554 211.556C51.6957 211.521 51.6436 211.475 51.6021 211.419H51.6119ZM58.8287 203.461C58.0747 203.037 59.021 202.61 60.3496 199.107C60.5908 198.468 61.5631 198.831 61.3208 199.471C60.8251 200.78 60.2295 202.048 59.5392 203.265C59.5054 203.326 59.4599 203.379 59.4054 203.421C59.3508 203.464 59.2883 203.495 59.2214 203.513C59.1546 203.532 59.0847 203.536 59.016 203.528C58.9472 203.519 58.881 203.496 58.8211 203.461H58.8287ZM61.8705 192.748C62.2812 189.007 61.6283 188.219 62.4941 188.18C62.5623 188.177 62.6305 188.187 62.6947 188.21C62.759 188.233 62.818 188.269 62.8685 188.315C62.9189 188.361 62.9598 188.416 62.9888 188.477C63.0177 188.539 63.0342 188.606 63.0373 188.674C63.1 190.071 63.0553 191.47 62.9037 192.861C62.8844 192.993 62.8144 193.112 62.7085 193.194C62.6025 193.276 62.4689 193.314 62.3354 193.3C62.202 193.286 62.0792 193.222 61.9927 193.119C61.9063 193.017 61.8629 192.886 61.8716 192.752L61.8705 192.748Z" fill="#213782"/>
<path d="M24.9165 214.924C24.2711 214.647 23.628 214.342 23.0077 214.017C22.9474 213.986 22.8939 213.942 22.8503 213.89C22.8067 213.838 22.7739 213.778 22.7537 213.713C22.7335 213.648 22.7264 213.58 22.7327 213.512C22.739 213.445 22.7586 213.379 22.7904 213.319C23.125 212.683 23.6595 213.261 25.3271 213.968C25.3919 213.994 25.4509 214.032 25.5006 214.08C25.5504 214.129 25.5898 214.187 25.6166 214.251C25.6435 214.315 25.6571 214.383 25.6568 214.452C25.6564 214.522 25.6421 214.59 25.6146 214.654C25.5872 214.718 25.5472 214.775 25.4969 214.823C25.4467 214.871 25.3873 214.909 25.3223 214.933C25.2573 214.958 25.188 214.969 25.1184 214.967C25.0489 214.964 24.9806 214.948 24.9175 214.919L24.9165 214.924Z" fill="#213782"/>
<path opacity="0.6" d="M31.2878 201.819C31.1884 201.787 31.0964 201.736 31.0173 201.668C30.9381 201.601 30.8734 201.518 30.8269 201.425C30.7804 201.332 30.7531 201.231 30.7467 201.127C30.7403 201.024 30.7548 200.92 30.7894 200.822C30.8241 200.724 30.8781 200.634 30.9483 200.557C31.0185 200.48 31.1035 200.418 31.1982 200.375C31.2929 200.331 31.3954 200.307 31.4996 200.304C31.6038 200.301 31.7076 200.318 31.8049 200.356C32.5587 200.636 33.3402 200.836 34.1363 200.952C35.6046 201.168 37.1013 201.093 38.5405 200.731C39.9797 200.37 41.3331 199.729 42.5231 198.845C50.5622 192.886 47.3444 180.124 37.4171 178.676C34.686 178.281 31.9043 178.894 29.5952 180.399C27.286 181.905 25.6085 184.198 24.8782 186.849C23.3888 192.303 26.4806 194.495 24.9227 195.14C24.732 195.219 24.5176 195.219 24.3267 195.14C24.1358 195.062 23.9841 194.911 23.9048 194.721C23.0338 192.629 22.7352 190.344 23.0395 188.099C23.3438 185.854 24.2401 183.73 25.637 181.943C27.0339 180.156 28.8815 178.769 30.9916 177.925C33.1016 177.081 35.3986 176.809 37.6485 177.137C45.2086 178.241 50.2298 185.706 48.1863 193.195C46.5372 199.237 40.5404 203.451 33.9168 202.482C33.0196 202.353 32.1384 202.131 31.2878 201.819Z" fill="white"/>
</g>
<defs>
<clipPath id="clip0">
<rect width="302" height="303" fill="white"/>
</clipPath>
</defs>
</svg>
