<svg width="302" height="302" viewBox="0 0 302 302" fill="none" xmlns="http://www.w3.org/2000/svg">
<path d="M258.907 246.658C251.398 254.402 244.682 258.955 239.534 262.392C189.371 295.909 132.027 286.248 114.298 282.946C85.6942 277.62 61.5493 273.861 40.8062 255.108C-6.33376 212.488 -4.04029 123.585 31.9828 68.5139C36.2543 61.984 72.216 8.63647 129.68 1.11905C131.085 0.934922 132.133 0.830802 133.052 0.733259C141.947 -0.209296 197.038 -5.17962 241.957 32.4798C248.387 37.8699 258.735 47.5936 268.331 62.4235C303.417 116.649 303.529 200.633 258.907 246.658Z" fill="#FBE0D0"/>
<path d="M231.705 104.643L257.291 98.6819C257.291 98.6819 274.399 97.1475 276.714 112.36C279.028 127.572 278.356 217.723 277.633 236.317C277.394 242.445 277.423 248.106 277.944 253.044C279.029 263.328 271.011 272.31 260.678 272.489L213.043 273.314L231.705 104.643Z" fill="#4AA29A"/>
<path d="M218.092 280.638C218.092 280.638 223.203 208.917 259.559 165.198C260.034 164.628 260.855 164.771 261.106 165.472C265.066 176.547 287.334 247.768 218.092 280.638Z" fill="#5BD595"/>
<path d="M257.99 186.01C257.685 190.195 257.079 194.323 256.378 198.445C255.652 202.56 254.8 206.654 253.796 210.714C251.809 218.848 249.277 226.838 246.215 234.631C244.663 238.519 243.017 242.375 241.177 246.139C240.284 248.034 239.288 249.879 238.329 251.744C237.314 253.577 236.324 255.424 235.225 257.21C230.969 264.428 225.984 271.229 220.295 277.35C220.215 277.433 220.107 277.483 219.992 277.489C219.878 277.495 219.765 277.457 219.677 277.383C219.59 277.309 219.534 277.204 219.521 277.09C219.507 276.975 219.538 276.861 219.607 276.768V276.763C224.669 270.225 229.21 263.299 233.188 256.049C234.208 254.255 235.115 252.399 236.086 250.58C236.989 248.723 237.93 246.888 238.772 245.003C239.193 244.061 239.648 243.14 240.06 242.189L241.305 239.354C241.714 238.406 242.097 237.449 242.493 236.496C242.89 235.544 243.271 234.584 243.641 233.62C244.408 231.703 245.124 229.766 245.845 227.83C246.533 225.883 247.22 223.935 247.864 221.971C249.191 218.056 250.369 214.092 251.506 210.114C252.62 206.131 253.656 202.12 254.586 198.085C255.533 194.055 256.376 189.985 257.09 185.919V185.906C257.109 185.792 257.172 185.69 257.265 185.62C257.358 185.551 257.474 185.52 257.588 185.535C257.703 185.549 257.808 185.607 257.882 185.696C257.955 185.786 257.991 185.9 257.982 186.016L257.99 186.01Z" fill="#4AA29A"/>
<path d="M222.598 272.793C222.598 272.793 260.076 209.71 300.852 208.721C301.021 208.717 301.189 208.752 301.343 208.822C301.497 208.892 301.633 208.997 301.741 209.127C301.849 209.257 301.927 209.41 301.967 209.575C302.008 209.739 302.011 209.911 301.976 210.077C300.24 218.322 288.1 261.483 222.598 272.793Z" fill="#5BD595"/>
<path d="M292.216 218.724C289.747 221.32 287.202 223.817 284.623 226.286C283.32 227.507 282.017 228.727 280.701 229.933C279.384 231.14 278.06 232.337 276.72 233.515C271.368 238.243 265.858 242.783 260.189 247.135C257.379 249.339 254.468 251.409 251.596 253.53L247.201 256.597C246.467 257.106 245.739 257.621 244.996 258.118L242.754 259.583C236.829 263.574 230.638 267.151 224.402 270.625C224.299 270.685 224.176 270.7 224.06 270.669C223.945 270.637 223.847 270.561 223.788 270.458C223.729 270.354 223.713 270.231 223.744 270.116C223.776 270 223.852 269.902 223.955 269.843L223.966 269.835L228.566 267.135L230.867 265.785C231.627 265.324 232.374 264.84 233.127 264.368L237.647 261.536C239.137 260.566 240.604 259.564 242.09 258.584L244.309 257.104L246.493 255.57L250.858 252.501C253.713 250.378 256.604 248.308 259.396 246.103C262.226 243.947 264.993 241.711 267.761 239.478L271.862 236.065L275.915 232.591C277.264 231.432 278.584 230.239 279.921 229.065C281.258 227.892 282.556 226.676 283.864 225.474C286.474 223.063 289.069 220.615 291.56 218.094L291.567 218.088C291.65 218.002 291.764 217.953 291.883 217.951C292.003 217.949 292.118 217.995 292.204 218.079C292.289 218.162 292.339 218.276 292.34 218.395C292.342 218.515 292.296 218.63 292.213 218.716L292.216 218.724Z" fill="#4AA29A"/>
<path d="M179.687 105.881C179.687 105.881 226.278 108.443 257.292 98.6822C257.292 98.6822 236.675 97.2683 236.675 144.904C236.675 181.322 242.072 250.836 237.359 264.03C232.646 277.225 215.025 294.965 189.764 279.72C164.503 264.474 179.687 105.881 179.687 105.881Z" fill="#4AA29A"/>
<path opacity="0.3" d="M179.685 105.881C179.685 105.881 226.276 108.443 257.29 98.6822C257.29 98.6822 236.673 97.2683 236.673 144.904C236.673 181.322 242.07 250.836 237.357 264.03C232.645 277.225 215.023 294.965 189.762 279.72C164.501 264.474 179.685 105.881 179.685 105.881Z" fill="#404040"/>
<path d="M167.301 34.4655C167.301 34.4655 218.706 40.0727 225.327 31.354C225.327 31.354 220.059 15.6627 204.416 16.7061C188.772 17.7495 167.301 34.4655 167.301 34.4655Z" fill="#4AA29A"/>
<path opacity="0.3" d="M167.301 34.4655C167.301 34.4655 218.706 40.0727 225.327 31.354C225.327 31.354 220.059 15.6627 204.416 16.7061C188.772 17.7495 167.301 34.4655 167.301 34.4655Z" fill="#404040"/>
<path d="M0.110311 52.1207C4.60087 102.531 14.0113 209.157 18.1076 261.097C18.549 266.698 20.9932 271.951 24.9921 275.895C28.991 279.838 34.2764 282.207 39.8791 282.566C81.1419 285.217 174.003 290.359 209.644 285.575C205.644 283.601 202.28 280.539 199.94 276.739C197.6 272.94 196.378 268.557 196.415 264.094L198.306 31.0239C198.373 22.7875 206.571 16.8703 214.277 19.7604C219.132 21.5808 222.809 25.4596 225.332 31.3549C221.967 21.5436 216.679 14.367 204.42 16.707C204.42 16.707 84.558 17.906 26.3943 21.5151C10.5854 22.496 -1.29052 36.3373 0.110311 52.1207Z" fill="#4AA29A"/>
<path opacity="0.53" d="M29.7639 28.1849L190.823 21.9805C184.18 71.1906 186.989 171.408 189.518 270.173C189.591 273.043 190.46 275.837 192.026 278.243C193.592 280.649 195.795 282.573 198.39 283.8C198.39 283.8 90.9647 285.039 44.8072 281.763C39.5312 281.385 34.5413 279.22 30.6602 275.624C26.7791 272.027 24.2385 267.215 23.4574 261.98C17.1235 219.665 1.96294 110.35 5.11837 52.4765C5.84015 39.2237 16.5102 28.6956 29.7639 28.1849Z" fill="url(#paint0_linear)"/>
<path d="M27.6337 104.519L29.5132 122.572C29.6795 124.172 30.4172 125.659 31.591 126.76C32.7648 127.86 34.2958 128.5 35.903 128.561L46.4065 128.964C47.3053 128.999 48.2018 128.852 49.0423 128.531C49.8829 128.211 50.6501 127.724 51.298 127.1C51.9459 126.475 52.4612 125.727 52.8129 124.898C53.1647 124.07 53.3456 123.179 53.3449 122.279V102.805C53.345 101.881 53.1536 100.967 52.7828 100.12C52.412 99.274 51.8698 98.5137 51.1906 97.8876C50.5113 97.2614 49.7096 96.7829 48.8363 96.4824C47.9629 96.1819 47.0367 96.0659 46.1162 96.1416L33.7354 97.162C32.8483 97.2344 31.9846 97.4835 31.195 97.8946C30.4054 98.3057 29.7059 98.8705 29.1375 99.5559C28.5691 100.241 28.1432 101.033 27.885 101.886C27.6268 102.738 27.5414 103.634 27.6337 104.519Z" fill="white"/>
<path d="M64.5689 98.955C82.0503 98.407 149.159 96.2282 166.105 95.6758C166.612 95.6595 167.117 95.7453 167.59 95.9283C168.063 96.1112 168.495 96.3874 168.859 96.7406C169.223 97.0938 169.513 97.5166 169.71 97.984C169.908 98.4514 170.01 98.9538 170.009 99.4613C170.008 100.441 169.628 101.382 168.949 102.087C168.269 102.793 167.343 103.207 166.364 103.244L64.8942 107.016C63.951 107.051 63.0289 106.732 62.3084 106.122C61.5879 105.512 61.1211 104.655 60.9995 103.718L60.9359 103.227C60.8678 102.703 60.91 102.171 61.0599 101.664C61.2098 101.157 61.464 100.688 61.8062 100.285C62.1484 99.883 62.571 99.5567 63.0468 99.3276C63.5226 99.0985 64.0411 98.9715 64.5689 98.955Z" fill="white"/>
<path d="M63.4702 122.752C63.6164 122.997 63.8254 123.2 64.0756 123.338C64.3259 123.476 64.6083 123.545 64.894 123.538L134.569 122.023C134.99 122.014 135.39 121.84 135.684 121.539C135.979 121.238 136.144 120.834 136.144 120.413V115.816C136.144 115.6 136.1 115.385 136.015 115.186C135.931 114.986 135.807 114.806 135.651 114.656C135.495 114.506 135.31 114.388 135.108 114.311C134.906 114.234 134.69 114.198 134.474 114.206L66.7417 116.74C63.7188 116.854 61.9248 120.159 63.4702 122.752Z" fill="white"/>
<path d="M27.6337 154.621L29.5132 172.674C29.6797 174.275 30.4176 175.761 31.5913 176.861C32.7651 177.961 34.296 178.601 35.903 178.662L46.4065 179.066C47.3053 179.1 48.2018 178.953 49.0423 178.633C49.8829 178.312 50.6501 177.825 51.298 177.201C51.9459 176.577 52.4612 175.828 52.8129 175C53.1647 174.171 53.3456 173.28 53.3449 172.38V152.91C53.3452 151.986 53.1539 151.071 52.7831 150.225C52.4124 149.378 51.8703 148.618 51.191 147.991C50.5117 147.365 49.71 146.887 48.8365 146.586C47.9631 146.285 47.0368 146.169 46.1162 146.245L33.7354 147.263C32.8483 147.336 31.9846 147.585 31.195 147.996C30.4054 148.407 29.7059 148.972 29.1375 149.657C28.5691 150.343 28.1432 151.135 27.885 151.987C27.6268 152.839 27.5414 153.735 27.6337 154.621Z" fill="white"/>
<path d="M64.569 149.056C82.0505 148.508 149.159 146.329 166.105 145.777C166.612 145.761 167.117 145.847 167.59 146.03C168.063 146.212 168.495 146.489 168.859 146.842C169.224 147.195 169.513 147.618 169.711 148.085C169.908 148.553 170.01 149.055 170.01 149.563C170.009 150.543 169.629 151.485 168.949 152.191C168.27 152.896 167.343 153.311 166.365 153.347L64.8943 157.118C63.9512 157.153 63.029 156.834 62.3085 156.224C61.5881 155.614 61.1213 154.756 60.9996 153.82L60.9361 153.329C60.8678 152.805 60.9099 152.272 61.0597 151.765C61.2095 151.259 61.4637 150.789 61.8059 150.386C62.1481 149.984 62.5708 149.657 63.0467 149.428C63.5226 149.199 64.0412 149.072 64.569 149.056Z" fill="white"/>
<path opacity="0.78" d="M63.4703 172.856C63.6167 173.102 63.8258 173.304 64.076 173.442C64.3262 173.58 64.6086 173.648 64.8941 173.641L134.569 172.126C134.99 172.117 135.39 171.944 135.685 171.643C135.979 171.342 136.144 170.937 136.144 170.516V165.92C136.144 165.703 136.1 165.489 136.016 165.289C135.931 165.09 135.807 164.91 135.651 164.759C135.495 164.609 135.31 164.492 135.108 164.415C134.906 164.337 134.69 164.302 134.474 164.31L66.7364 166.844C63.7189 166.957 61.9249 170.261 63.4703 172.856Z" fill="white"/>
<path d="M27.6337 204.724L29.5132 222.776C29.6797 224.377 30.4176 225.864 31.5913 226.964C32.7651 228.064 34.296 228.703 35.903 228.765L46.4065 229.168C47.3045 229.202 48.2002 229.055 49.04 228.734C49.8797 228.414 50.6462 227.927 51.2936 227.303C51.9409 226.68 52.4559 225.932 52.8076 225.104C53.1594 224.276 53.3406 223.386 53.3406 222.487V203.012C53.3406 202.088 53.1492 201.174 52.7784 200.328C52.4076 199.481 51.8655 198.721 51.1862 198.095C50.5069 197.468 49.7053 196.99 48.8319 196.689C47.9585 196.389 47.0323 196.273 46.1119 196.349L33.7354 197.367C32.8483 197.439 31.9846 197.688 31.195 198.099C30.4054 198.511 29.7059 199.075 29.1375 199.761C28.5691 200.446 28.1432 201.238 27.885 202.091C27.6268 202.943 27.5414 203.838 27.6337 204.724Z" fill="white"/>
<path d="M64.5689 199.16C82.0503 198.612 149.159 196.432 166.105 195.881C166.612 195.865 167.117 195.95 167.59 196.133C168.063 196.316 168.495 196.593 168.859 196.946C169.223 197.299 169.513 197.722 169.71 198.189C169.908 198.656 170.01 199.159 170.009 199.666C170.009 200.647 169.629 201.589 168.95 202.295C168.27 203.001 167.343 203.415 166.364 203.452L64.8942 207.221C63.951 207.256 63.0289 206.937 62.3084 206.327C61.5879 205.717 61.1211 204.86 60.9995 203.923L60.9359 203.432C60.8678 202.908 60.91 202.376 61.0599 201.869C61.2098 201.363 61.464 200.893 61.8062 200.49C62.1484 200.088 62.571 199.762 63.0468 199.533C63.5226 199.304 64.0411 199.177 64.5689 199.16Z" fill="white"/>
<path d="M63.4702 222.958C63.6166 223.204 63.8256 223.406 64.0758 223.544C64.326 223.682 64.6084 223.751 64.8941 223.744L134.569 222.229C134.988 222.219 135.388 222.046 135.681 221.746C135.975 221.446 136.14 221.043 136.142 220.623V216.02C136.142 215.804 136.098 215.589 136.013 215.39C135.929 215.191 135.805 215.01 135.649 214.86C135.493 214.71 135.308 214.593 135.106 214.516C134.903 214.439 134.688 214.403 134.471 214.411L66.7396 216.945C63.7189 217.059 61.9248 220.364 63.4702 222.958Z" fill="white"/>
<g style="mix-blend-mode:soft-light">
<path d="M230.622 210.008C230.417 210.008 230.22 209.928 230.074 209.784C229.928 209.641 229.843 209.446 229.839 209.241C229.839 209.217 229.79 206.746 229.553 198.274C229.552 198.069 229.631 197.872 229.774 197.725C229.916 197.578 230.11 197.492 230.315 197.487C230.52 197.481 230.718 197.555 230.869 197.694C231.019 197.833 231.109 198.025 231.12 198.23C231.359 206.712 231.406 209.19 231.407 209.212C231.41 209.419 231.332 209.62 231.188 209.77C231.045 209.919 230.848 210.006 230.64 210.012L230.622 210.008Z" fill="white"/>
</g>
<g style="mix-blend-mode:soft-light">
<path d="M230.051 189.331C229.848 189.33 229.652 189.25 229.506 189.109C229.36 188.967 229.275 188.774 229.268 188.57C229.1 183.055 228.837 176.959 228.559 170.505C228.184 161.785 227.792 152.768 227.589 144.081C227.048 121.156 230.827 112.357 234.093 109.01C235.867 107.191 237.355 107.139 237.518 107.139C237.721 107.144 237.914 107.228 238.056 107.372C238.199 107.517 238.28 107.712 238.282 107.915C238.284 108.118 238.207 108.314 238.068 108.462C237.928 108.61 237.737 108.698 237.534 108.707C237.356 108.72 228.346 109.711 229.158 144.043C229.362 152.714 229.75 161.724 230.126 170.437C230.404 176.895 230.667 182.997 230.836 188.521C230.839 188.623 230.822 188.726 230.785 188.822C230.749 188.919 230.694 189.007 230.623 189.082C230.553 189.157 230.468 189.217 230.374 189.26C230.281 189.302 230.179 189.325 230.077 189.328L230.051 189.331Z" fill="white"/>
</g>
<path d="M116.426 273.879C115.632 273.879 114.836 273.504 113.996 272.731C110.907 269.892 110.11 265.529 109.893 261.38C108.469 262.975 107.01 264.53 105.569 266.066L104.771 265.318C106.464 263.512 108.179 261.683 109.835 259.794C109.699 254.09 109.959 248.384 110.614 242.716C111.016 239.252 111.593 235.585 113.094 232.242C113.572 231.176 114.366 229.647 115.732 228.692C117.156 227.694 119.024 227.587 120.275 228.427C121.68 229.372 122.059 231.167 122.221 232.428C123.176 239.861 120.278 246.676 117.679 251.081C115.749 254.352 113.414 257.345 110.94 260.192C111.068 264.44 111.656 269.093 114.736 271.919C115.385 272.516 115.95 272.796 116.479 272.778C117.346 272.747 118.048 271.901 118.621 271.084C121.212 267.376 123.249 263.311 124.666 259.014C124.831 257.72 125.193 256.458 125.741 255.274L126.769 255.634C126.471 256.859 126.127 258.066 125.738 259.257C125.592 260.474 125.639 261.708 125.878 262.911C126.006 263.55 126.545 265.658 128.1 265.955C129.261 266.175 130.472 265.298 131.808 263.265L137.284 254.935L136.592 257.917C136.348 258.971 135.935 261.485 137.407 262.089C138.244 262.433 139.126 261.935 140.145 261.358C141.164 260.78 142.213 260.19 143.408 260.352L143.972 260.426L143.875 260.987C143.82 261.307 143.377 264.127 144.839 264.451C145.509 264.6 146.068 264.135 146.912 263.355C147.575 262.741 148.261 262.106 149.162 261.888L149.42 262.952C148.794 263.104 148.24 263.615 147.654 264.158C146.823 264.925 145.881 265.802 144.603 265.519C142.938 265.151 142.529 263.274 142.71 261.442C142.053 261.537 141.383 261.916 140.682 262.311C139.571 262.937 138.312 263.646 136.986 263.1C135.891 262.65 135.3 261.566 135.255 260.006L132.717 263.866C131.693 265.424 130.081 267.45 127.891 267.031C126.39 266.745 125.233 265.285 124.802 263.127C124.742 262.826 124.692 262.523 124.654 262.218C123.305 265.567 121.581 268.751 119.514 271.709C118.829 272.69 117.871 273.822 116.514 273.872L116.426 273.879ZM118.33 228.952C117.624 228.966 116.938 229.188 116.358 229.591C115.215 230.392 114.517 231.745 114.092 232.693C112.652 235.901 112.092 239.467 111.701 242.844C111.098 248.058 110.832 253.306 110.905 258.554C113.048 256.026 115.055 253.378 116.737 250.526C119.249 246.269 122.051 239.693 121.136 232.569C120.917 230.896 120.452 229.869 119.664 229.338C119.268 229.079 118.803 228.944 118.33 228.952Z" fill="#213782"/>
<path opacity="0.78" d="M164.428 76.3969L36.124 80.2066C33.9083 80.2721 31.7552 79.4655 30.1274 77.9599C28.4995 76.4543 27.5267 74.3699 27.4178 72.1543L26.9436 62.5502C26.8889 61.4235 27.0597 60.2973 27.4459 59.2377C27.832 58.178 28.4258 57.2061 29.1924 56.3792C29.959 55.5523 30.883 54.8869 31.91 54.4221C32.9371 53.9573 34.0465 53.7025 35.1733 53.6726L164.116 50.2608C165.259 50.2305 166.396 50.4323 167.459 50.8539C168.522 51.2756 169.488 51.9083 170.3 52.714C171.112 53.5196 171.752 54.4815 172.182 55.5416C172.612 56.6017 172.823 57.738 172.802 58.8819L172.636 68.0882C172.596 70.2628 171.721 72.3386 170.193 73.8854C168.665 75.4322 166.601 76.3315 164.428 76.3969Z" fill="white"/>
<path d="M124.014 177.551C124.014 177.551 119.735 174.742 119.142 175.39C118.931 175.62 118.439 176.404 117.98 177.253C117.821 177.546 117.76 177.883 117.805 178.213C117.851 178.544 117.999 178.851 118.231 179.091L119.335 180.232C119.582 180.489 119.881 180.691 120.213 180.822C120.544 180.954 120.9 181.013 121.256 180.996C121.612 180.978 121.96 180.884 122.277 180.721C122.594 180.557 122.872 180.327 123.093 180.047C123.643 179.326 123.964 178.457 124.014 177.551Z" fill="#FBE0D0"/>
<path d="M128.376 172.218C128.376 172.218 126.908 168.345 125.188 168.704C123.468 169.062 121.596 170.376 121.596 170.376L118.84 174.103C118.84 174.103 126.576 177.153 129.296 175.405C129.296 175.405 137.199 176.771 147.176 175.133C145.732 172.081 144.876 169.026 144.366 166.654C139.317 169.52 133.872 171.659 128.376 172.218Z" fill="#FBE0D0"/>
<path d="M170.232 144.156C170.232 144.156 158.923 158.415 144.371 166.656C144.876 169.028 145.737 172.082 147.182 175.135C154.729 173.895 163.464 170.937 170.869 164.365L170.232 144.156Z" fill="#213782"/>
<path d="M184.342 207.355C182.13 196.833 179.917 190.75 172.513 170.818C170.183 164.545 168.066 158.198 169.089 151.584L170.237 144.156C170.237 144.156 184.635 139.281 200.593 143.951C200.593 143.951 222.365 153.415 207.577 200.16C200.907 207.622 193.105 209.749 184.342 207.355Z" fill="#213782"/>
<path d="M172.684 134.676L176.416 143.651C176.533 143.929 176.718 144.174 176.954 144.362C177.19 144.549 177.469 144.674 177.767 144.725C179.919 145.094 185.125 145.672 188.543 143.422C188.64 143.358 188.722 143.275 188.787 143.179C188.851 143.082 188.895 142.974 188.917 142.86C188.939 142.746 188.937 142.629 188.913 142.516C188.889 142.402 188.843 142.295 188.776 142.2L181.876 132.291L172.684 134.676Z" fill="#FBE0D0"/>
<path d="M176.544 120.946C176.388 121.094 169.928 133.788 169.928 133.788L177.25 137.324L185.158 126.203C185.158 126.203 179.168 118.477 176.544 120.946Z" fill="#FBE0D0"/>
<path d="M181.831 127.539L178.179 133.631C178.124 133.723 178.057 133.806 177.979 133.88C177.541 134.285 176.057 135.462 174.912 133.859C173.926 132.492 173.013 131.25 172.027 130.737C171.89 130.667 171.74 130.625 171.586 130.613C171.432 130.601 171.278 130.62 171.131 130.668C170.985 130.717 170.849 130.794 170.733 130.895C170.616 130.996 170.521 131.119 170.452 131.257C169.85 132.45 168.684 134.882 167.953 137.188C167.866 137.467 167.888 137.769 168.013 138.033C168.138 138.297 168.358 138.504 168.629 138.613C170.112 139.214 173.042 140.301 175.638 140.661C175.847 140.689 176.061 140.661 176.255 140.578C176.45 140.495 176.618 140.361 176.742 140.19C177.86 138.656 181.014 134.372 182.089 133.299C183.089 132.302 184.937 132.677 185.766 132.917C185.922 132.962 186.085 132.974 186.245 132.953C186.406 132.932 186.56 132.878 186.699 132.795C187.542 132.286 189.014 131.02 187.668 128.876C187.51 128.617 187.459 128.305 187.527 128.008C187.594 127.712 187.775 127.453 188.03 127.287C188.972 126.667 189.994 125.504 189.016 123.619C188.03 121.712 186.27 121.537 185.073 121.687C184.813 121.722 184.548 121.673 184.318 121.545C184.089 121.417 183.907 121.219 183.8 120.979C183.75 120.854 183.668 120.744 183.562 120.661C183.457 120.577 183.331 120.523 183.198 120.504C183.049 120.478 182.908 120.423 182.781 120.341C182.654 120.26 182.545 120.154 182.46 120.03C182.374 119.906 182.314 119.766 182.284 119.619C182.253 119.471 182.251 119.319 182.28 119.171C182.491 118.092 182.332 116.69 180.61 115.742C177.451 114.004 174.683 116.838 173.98 119.226C173.277 121.614 176.808 123.307 179.03 123.589C180.662 123.796 181.557 125.579 181.917 126.51C181.982 126.677 182.008 126.856 181.993 127.035C181.978 127.213 181.923 127.386 181.831 127.539Z" fill="#213782"/>
<path d="M180.551 135.124C180.551 135.124 182.122 131.424 183.921 131.575C185.719 131.726 187.134 133.518 184.907 135.534C182.133 138.04 180.551 135.124 180.551 135.124Z" fill="#FBE0D0"/>
<path d="M182.924 300.035C186.401 300.337 192.436 300.824 197.193 301.035C200.052 301.161 201.7 300.88 202.647 300.5C202.647 300.609 202.647 300.708 202.638 300.802C202.624 301.045 202.521 301.275 202.349 301.446C202.177 301.618 201.947 301.719 201.704 301.732C195.481 302.087 189.243 302.093 183.02 301.75C182.9 301.745 182.783 301.708 182.681 301.644C182.579 301.58 182.495 301.491 182.438 301.385C182.381 301.279 182.352 301.16 182.354 301.039C182.356 300.919 182.389 300.801 182.449 300.697C182.592 300.466 182.75 300.244 182.924 300.035Z" fill="#213782"/>
<path d="M197.193 301.035C192.436 300.824 186.401 300.336 182.924 300.035C186.342 295.839 197.193 293.01 197.193 293.01H200.26C202.368 296.05 202.669 298.945 202.649 300.5C201.7 300.88 200.053 301.161 197.193 301.035Z" fill="#213782"/>
<path d="M200.774 288.004L200.487 293.682C200.472 293.983 200.354 294.268 200.152 294.491C199.95 294.713 199.677 294.859 199.38 294.902C198.609 295.018 197.822 294.952 197.08 294.711C196.818 294.626 196.584 294.471 196.402 294.264C196.221 294.056 196.098 293.803 196.048 293.532L195.062 288.004H200.774Z" fill="#FBE0D0"/>
<path d="M240.578 300.991C242.086 300.78 242.768 299.997 243.054 299.158C243.055 299.166 243.055 299.174 243.054 299.181C243.273 300.065 242.762 300.981 241.74 301.416C240.497 301.943 239.138 302.033 238.083 301.989C236.951 301.943 235.912 301.474 235.345 300.724L235.336 300.712C236.466 301.276 238.063 301.341 240.578 300.991Z" fill="#213782"/>
<path d="M233.47 287.967H235.998C239.847 287.888 242.265 296.013 243.056 299.16C242.77 299.998 242.087 300.782 240.579 300.992C238.06 301.343 236.47 301.277 235.334 300.714C233.253 297.974 232.223 293.965 231.727 291.624C231.164 288.961 233.47 287.967 233.47 287.967Z" fill="#213782"/>
<path d="M235.672 282.695L237.076 288.285C237.159 288.618 237.126 288.97 236.982 289.282C236.839 289.594 236.594 289.848 236.288 290.002C235.502 290.406 234.397 290.83 233.381 290.707C233.147 290.676 232.927 290.581 232.745 290.431C232.563 290.282 232.426 290.085 232.349 289.862L230.289 283.985L235.672 282.695Z" fill="#FBE0D0"/>
<path d="M237.343 284.309C235.591 285.86 229.917 286.063 229.917 286.063C209.46 236.931 200.931 223.405 200.931 223.405C203.889 241.95 201.568 289.551 201.568 289.551C198.192 291.042 193.84 289.551 193.84 289.551C193.566 259.192 189.294 226.568 183.785 205.694C197.612 205.382 205.126 202.366 207.527 200.467C219.052 219.061 237.343 284.309 237.343 284.309Z" fill="#213782"/>
<path d="M180.305 219.426L182.849 235.261C183.066 236.592 183.789 237.788 184.868 238.596C185.947 239.405 187.297 239.764 188.635 239.597L226.718 234.949C227.618 234.842 228.448 234.413 229.057 233.742C229.665 233.071 230.012 232.202 230.032 231.296C230.113 227.205 229.953 219.923 228.237 213.289L180.305 219.426Z" fill="#E2581D"/>
<path d="M189.918 238.535C189.887 238.535 189.858 238.524 189.835 238.504C189.812 238.484 189.797 238.456 189.793 238.425C189.791 238.409 189.792 238.392 189.796 238.377C189.801 238.361 189.808 238.346 189.818 238.333C189.829 238.32 189.841 238.309 189.856 238.301C189.87 238.293 189.886 238.288 189.903 238.286L190.904 238.16C190.92 238.158 190.937 238.159 190.953 238.164C190.969 238.168 190.984 238.175 190.997 238.186C191.01 238.196 191.021 238.209 191.029 238.223C191.037 238.237 191.042 238.253 191.044 238.27C191.048 238.303 191.039 238.336 191.018 238.363C190.997 238.389 190.967 238.406 190.934 238.41L189.94 238.532L189.918 238.535ZM187.597 238.491C187.587 238.492 187.577 238.492 187.566 238.491C187.234 238.409 186.911 238.293 186.601 238.146C186.572 238.131 186.55 238.105 186.54 238.074C186.53 238.043 186.532 238.009 186.546 237.979C186.561 237.95 186.586 237.927 186.616 237.916C186.647 237.905 186.681 237.906 186.711 237.919C187.005 238.059 187.313 238.17 187.629 238.248C187.658 238.256 187.683 238.274 187.7 238.299C187.717 238.324 187.725 238.355 187.721 238.385C187.717 238.415 187.703 238.442 187.681 238.463C187.658 238.483 187.629 238.495 187.599 238.496L187.597 238.491ZM193.233 238.13C193.2 238.132 193.168 238.12 193.143 238.098C193.118 238.076 193.103 238.045 193.101 238.012C193.099 237.979 193.11 237.947 193.132 237.922C193.154 237.897 193.185 237.882 193.218 237.88L194.213 237.759C194.23 237.757 194.246 237.758 194.262 237.762C194.278 237.767 194.293 237.774 194.306 237.785C194.319 237.795 194.33 237.808 194.338 237.822C194.346 237.836 194.351 237.852 194.353 237.869C194.357 237.902 194.347 237.935 194.327 237.962C194.306 237.988 194.276 238.005 194.243 238.009L193.249 238.13H193.233ZM196.549 237.725C196.515 237.727 196.483 237.716 196.458 237.694C196.433 237.672 196.418 237.641 196.416 237.608C196.414 237.575 196.425 237.542 196.447 237.517C196.469 237.492 196.5 237.477 196.533 237.475L197.529 237.354C197.545 237.351 197.562 237.352 197.578 237.356C197.594 237.361 197.609 237.368 197.622 237.378C197.635 237.389 197.646 237.401 197.654 237.416C197.662 237.431 197.666 237.447 197.668 237.463C197.67 237.48 197.669 237.496 197.665 237.512C197.66 237.528 197.653 237.543 197.642 237.556C197.632 237.569 197.62 237.58 197.605 237.588C197.591 237.596 197.575 237.601 197.558 237.602L196.563 237.724L196.549 237.725ZM199.865 237.321C199.834 237.321 199.805 237.31 199.782 237.289C199.759 237.269 199.744 237.241 199.74 237.211C199.738 237.195 199.739 237.178 199.744 237.162C199.748 237.146 199.755 237.131 199.766 237.118C199.776 237.105 199.788 237.095 199.803 237.087C199.817 237.079 199.833 237.074 199.85 237.072L200.844 236.95C200.877 236.946 200.91 236.955 200.937 236.976C200.963 236.996 200.98 237.026 200.984 237.059C200.988 237.092 200.979 237.126 200.958 237.152C200.938 237.178 200.908 237.195 200.875 237.199L199.88 237.321H199.865ZM203.18 236.916C203.15 236.916 203.12 236.905 203.097 236.885C203.074 236.865 203.059 236.837 203.055 236.807C203.053 236.79 203.055 236.774 203.059 236.758C203.064 236.742 203.071 236.727 203.081 236.714C203.092 236.701 203.104 236.691 203.118 236.683C203.133 236.675 203.149 236.669 203.165 236.667L204.159 236.546C204.176 236.543 204.193 236.544 204.209 236.549C204.225 236.553 204.24 236.56 204.253 236.571C204.266 236.581 204.277 236.594 204.284 236.608C204.292 236.623 204.297 236.639 204.299 236.655C204.303 236.689 204.293 236.722 204.273 236.748C204.252 236.775 204.222 236.792 204.189 236.796L203.195 236.917L203.18 236.916ZM184.852 236.697C184.833 236.697 184.814 236.693 184.797 236.684C184.779 236.676 184.764 236.663 184.753 236.648C184.543 236.375 184.362 236.081 184.213 235.771C184.205 235.756 184.201 235.74 184.2 235.724C184.199 235.708 184.201 235.691 184.206 235.676C184.212 235.66 184.22 235.646 184.231 235.634C184.242 235.622 184.255 235.612 184.27 235.604C184.299 235.59 184.334 235.588 184.365 235.598C184.396 235.609 184.422 235.632 184.437 235.661C184.58 235.955 184.752 236.233 184.951 236.491C184.961 236.504 184.968 236.519 184.973 236.535C184.977 236.551 184.978 236.567 184.976 236.584C184.974 236.6 184.969 236.616 184.96 236.63C184.952 236.644 184.941 236.657 184.928 236.666C184.908 236.685 184.882 236.697 184.854 236.699L184.852 236.697ZM206.496 236.509C206.465 236.509 206.436 236.498 206.413 236.477C206.39 236.457 206.375 236.429 206.372 236.399C206.368 236.366 206.377 236.332 206.398 236.306C206.418 236.28 206.448 236.263 206.481 236.259L207.476 236.137C207.492 236.135 207.509 236.136 207.525 236.14C207.541 236.144 207.556 236.151 207.57 236.162C207.583 236.172 207.594 236.185 207.602 236.199C207.61 236.214 207.615 236.23 207.616 236.247C207.618 236.263 207.617 236.28 207.612 236.295C207.608 236.311 207.6 236.326 207.59 236.339C207.58 236.352 207.567 236.363 207.553 236.371C207.539 236.379 207.523 236.384 207.507 236.386L206.512 236.507L206.496 236.509ZM209.811 236.104C209.778 236.106 209.745 236.095 209.72 236.073C209.696 236.051 209.681 236.02 209.679 235.987C209.676 235.954 209.688 235.921 209.71 235.896C209.732 235.871 209.763 235.856 209.796 235.854L210.791 235.733C210.824 235.729 210.857 235.739 210.883 235.759C210.909 235.78 210.926 235.809 210.93 235.842C210.933 235.859 210.931 235.875 210.927 235.891C210.923 235.907 210.915 235.922 210.905 235.935C210.895 235.948 210.882 235.959 210.868 235.967C210.853 235.975 210.837 235.98 210.821 235.981L209.826 236.103L209.811 236.104ZM213.126 235.7C213.093 235.702 213.061 235.69 213.036 235.668C213.011 235.646 212.996 235.615 212.994 235.582C212.992 235.549 213.004 235.516 213.026 235.491C213.048 235.467 213.079 235.452 213.112 235.45L214.107 235.328C214.123 235.326 214.14 235.327 214.156 235.331C214.172 235.336 214.187 235.343 214.2 235.353C214.213 235.364 214.223 235.376 214.231 235.391C214.239 235.405 214.244 235.421 214.246 235.438C214.248 235.454 214.246 235.471 214.242 235.487C214.238 235.502 214.23 235.517 214.22 235.53C214.21 235.543 214.197 235.554 214.183 235.562C214.168 235.57 214.153 235.575 214.136 235.577L213.141 235.699L213.126 235.7ZM216.443 235.294C216.411 235.294 216.381 235.282 216.358 235.26C216.335 235.238 216.321 235.209 216.319 235.177C216.317 235.145 216.327 235.114 216.348 235.09C216.368 235.066 216.396 235.05 216.427 235.045L217.422 234.924C217.438 234.921 217.455 234.922 217.471 234.926C217.487 234.93 217.502 234.938 217.515 234.948C217.529 234.958 217.539 234.971 217.547 234.986C217.555 235.001 217.56 235.017 217.561 235.033C217.565 235.067 217.556 235.1 217.535 235.126C217.515 235.152 217.485 235.17 217.452 235.174L216.457 235.294H216.443ZM219.758 234.89C219.725 234.892 219.692 234.881 219.668 234.859C219.643 234.837 219.628 234.806 219.626 234.773C219.624 234.739 219.635 234.707 219.657 234.682C219.679 234.657 219.71 234.642 219.743 234.64L220.737 234.519C220.754 234.517 220.77 234.518 220.787 234.522C220.803 234.527 220.818 234.534 220.831 234.544C220.844 234.555 220.855 234.567 220.863 234.582C220.871 234.596 220.876 234.612 220.878 234.629C220.882 234.662 220.872 234.695 220.852 234.722C220.831 234.748 220.801 234.765 220.768 234.769L219.773 234.89H219.758ZM223.074 234.485C223.04 234.487 223.008 234.476 222.983 234.454C222.958 234.432 222.943 234.401 222.941 234.368C222.939 234.335 222.95 234.302 222.972 234.278C222.994 234.253 223.025 234.238 223.058 234.235L224.053 234.114C224.069 234.112 224.086 234.113 224.102 234.117C224.118 234.121 224.133 234.129 224.146 234.139C224.159 234.149 224.17 234.162 224.178 234.176C224.186 234.191 224.191 234.207 224.193 234.223C224.195 234.24 224.194 234.256 224.189 234.272C224.185 234.288 224.177 234.303 224.167 234.316C224.157 234.329 224.144 234.34 224.13 234.348C224.115 234.356 224.1 234.361 224.083 234.363L223.089 234.484L223.074 234.485ZM226.375 234.003C226.344 234.004 226.315 233.994 226.291 233.975C226.268 233.956 226.252 233.929 226.247 233.899C226.242 233.869 226.248 233.838 226.264 233.812C226.28 233.787 226.305 233.768 226.334 233.759C226.639 233.653 226.928 233.505 227.193 233.32C227.22 233.305 227.252 233.3 227.283 233.307C227.314 233.313 227.341 233.332 227.359 233.358C227.377 233.383 227.385 233.415 227.38 233.446C227.376 233.478 227.36 233.506 227.336 233.526C227.052 233.724 226.742 233.882 226.415 233.995C226.403 234.001 226.39 234.004 226.377 234.005L226.375 234.003ZM183.749 233.59C183.719 233.59 183.69 233.578 183.667 233.558C183.644 233.538 183.63 233.51 183.626 233.48L183.467 232.494C183.464 232.478 183.465 232.461 183.469 232.445C183.472 232.429 183.479 232.414 183.489 232.401C183.499 232.387 183.511 232.376 183.525 232.367C183.539 232.359 183.555 232.353 183.571 232.35C183.587 232.348 183.604 232.348 183.62 232.352C183.636 232.356 183.651 232.363 183.664 232.373C183.677 232.382 183.689 232.395 183.697 232.409C183.706 232.423 183.712 232.438 183.714 232.455L183.873 233.441C183.876 233.457 183.875 233.474 183.871 233.49C183.868 233.506 183.861 233.521 183.851 233.534C183.841 233.548 183.829 233.559 183.815 233.568C183.801 233.576 183.785 233.582 183.769 233.584L183.749 233.59ZM228.624 231.698C228.612 231.7 228.599 231.7 228.587 231.698C228.555 231.688 228.529 231.666 228.513 231.636C228.498 231.607 228.495 231.572 228.505 231.54C228.603 231.233 228.656 230.913 228.664 230.59C228.664 230.557 228.678 230.526 228.701 230.503C228.724 230.48 228.756 230.467 228.789 230.467C228.805 230.468 228.821 230.472 228.836 230.478C228.851 230.485 228.865 230.494 228.876 230.506C228.887 230.518 228.896 230.532 228.902 230.548C228.908 230.563 228.911 230.579 228.91 230.596C228.903 230.942 228.846 231.286 228.74 231.616C228.732 231.64 228.717 231.661 228.697 231.676C228.676 231.691 228.652 231.7 228.626 231.7L228.624 231.698ZM183.219 230.29C183.189 230.29 183.16 230.278 183.137 230.258C183.115 230.238 183.1 230.21 183.097 230.18L182.937 229.194C182.931 229.161 182.939 229.127 182.959 229.101C182.979 229.074 183.008 229.056 183.041 229.05C183.074 229.045 183.107 229.053 183.134 229.073C183.161 229.092 183.179 229.122 183.184 229.154L183.343 230.141C183.346 230.157 183.345 230.174 183.341 230.19C183.338 230.206 183.331 230.221 183.321 230.234C183.312 230.247 183.3 230.259 183.286 230.267C183.272 230.276 183.256 230.282 183.24 230.284L183.219 230.29ZM228.8 228.375C228.767 228.375 228.735 228.362 228.712 228.339C228.688 228.316 228.675 228.284 228.675 228.251C228.675 227.923 228.667 227.594 228.659 227.25C228.659 227.216 228.671 227.184 228.694 227.16C228.717 227.136 228.749 227.122 228.782 227.121C228.799 227.12 228.816 227.122 228.832 227.127C228.848 227.132 228.862 227.141 228.875 227.153C228.887 227.165 228.896 227.179 228.902 227.195C228.909 227.21 228.911 227.227 228.91 227.244C228.918 227.589 228.922 227.925 228.925 228.249C228.925 228.282 228.912 228.314 228.889 228.338C228.866 228.362 228.834 228.375 228.801 228.375H228.8ZM182.689 226.992C182.659 226.992 182.63 226.981 182.607 226.96C182.584 226.94 182.569 226.913 182.565 226.883L182.407 225.896C182.401 225.863 182.409 225.83 182.429 225.803C182.448 225.776 182.478 225.758 182.511 225.753C182.543 225.747 182.577 225.755 182.604 225.775C182.631 225.794 182.649 225.824 182.654 225.857L182.813 226.843C182.816 226.86 182.815 226.877 182.811 226.893C182.806 226.909 182.799 226.925 182.789 226.938C182.779 226.952 182.766 226.963 182.751 226.971C182.736 226.979 182.72 226.985 182.703 226.987L182.689 226.992ZM228.704 225.034C228.672 225.034 228.641 225.022 228.617 225C228.594 224.978 228.58 224.947 228.578 224.915C228.561 224.586 228.542 224.253 228.521 223.916C228.52 223.899 228.522 223.883 228.527 223.867C228.533 223.851 228.541 223.837 228.552 223.824C228.563 223.812 228.576 223.802 228.591 223.794C228.606 223.787 228.622 223.783 228.639 223.782C228.722 223.782 228.767 223.83 228.771 223.899C228.793 224.238 228.812 224.573 228.829 224.902C228.83 224.919 228.828 224.935 228.822 224.951C228.816 224.966 228.808 224.98 228.797 224.993C228.786 225.005 228.772 225.015 228.757 225.022C228.742 225.029 228.726 225.033 228.71 225.034H228.704ZM182.156 223.692C182.125 223.692 182.096 223.681 182.073 223.66C182.051 223.64 182.036 223.613 182.032 223.582L181.873 222.596C181.871 222.58 181.871 222.563 181.875 222.547C181.879 222.531 181.886 222.516 181.895 222.503C181.905 222.489 181.917 222.478 181.931 222.469C181.945 222.461 181.961 222.455 181.977 222.452C181.993 222.45 182.01 222.451 182.026 222.454C182.042 222.458 182.057 222.465 182.071 222.475C182.084 222.484 182.095 222.497 182.104 222.511C182.112 222.525 182.118 222.54 182.121 222.557L182.28 223.543C182.282 223.56 182.281 223.577 182.277 223.593C182.273 223.609 182.266 223.625 182.255 223.638C182.245 223.652 182.232 223.663 182.218 223.671C182.203 223.679 182.187 223.685 182.17 223.687L182.156 223.692ZM228.457 221.7C228.426 221.699 228.397 221.688 228.374 221.668C228.351 221.648 228.336 221.62 228.332 221.59C228.3 221.261 228.266 220.932 228.222 220.595C228.219 220.562 228.228 220.529 228.249 220.503C228.269 220.477 228.299 220.46 228.332 220.456C228.365 220.452 228.398 220.462 228.424 220.483C228.45 220.503 228.467 220.533 228.471 220.566C228.51 220.902 228.546 221.235 228.58 221.566C228.584 221.598 228.574 221.631 228.554 221.657C228.533 221.682 228.504 221.699 228.471 221.703L228.457 221.7ZM181.626 220.392C181.595 220.392 181.566 220.381 181.543 220.36C181.521 220.34 181.506 220.313 181.502 220.282L181.322 219.165L182.24 219.047C182.257 219.045 182.273 219.046 182.289 219.05C182.305 219.055 182.32 219.062 182.333 219.072C182.346 219.083 182.357 219.095 182.365 219.11C182.373 219.124 182.379 219.14 182.38 219.157C182.384 219.19 182.375 219.223 182.354 219.25C182.334 219.276 182.304 219.293 182.271 219.297L181.614 219.382L181.752 220.244C181.754 220.261 181.753 220.278 181.749 220.294C181.745 220.311 181.738 220.326 181.728 220.339C181.717 220.353 181.704 220.364 181.69 220.372C181.675 220.381 181.659 220.386 181.642 220.388L181.626 220.392ZM184.575 219.003C184.542 219.006 184.509 218.995 184.484 218.973C184.46 218.951 184.444 218.92 184.442 218.887C184.44 218.854 184.451 218.821 184.473 218.796C184.495 218.771 184.526 218.756 184.559 218.754L185.553 218.626C185.57 218.623 185.587 218.624 185.603 218.628C185.619 218.632 185.635 218.639 185.648 218.65C185.661 218.66 185.672 218.673 185.68 218.688C185.688 218.703 185.692 218.719 185.693 218.736C185.697 218.769 185.688 218.802 185.668 218.829C185.647 218.855 185.617 218.872 185.584 218.876L184.589 219.003H184.575ZM187.888 218.579C187.857 218.578 187.828 218.565 187.806 218.543C187.784 218.522 187.771 218.493 187.769 218.462C187.767 218.431 187.776 218.4 187.795 218.376C187.814 218.351 187.841 218.335 187.872 218.329L188.866 218.202C188.883 218.199 188.9 218.2 188.916 218.204C188.932 218.208 188.948 218.215 188.961 218.226C188.974 218.236 188.985 218.249 188.993 218.264C189.001 218.279 189.005 218.295 189.007 218.312C189.009 218.328 189.008 218.345 189.003 218.361C188.999 218.377 188.991 218.392 188.981 218.405C188.971 218.418 188.958 218.429 188.944 218.437C188.929 218.445 188.914 218.45 188.897 218.452L187.904 218.579H187.888ZM228.048 218.382C228.018 218.381 227.989 218.37 227.966 218.35C227.943 218.33 227.929 218.302 227.924 218.272C227.875 217.944 227.821 217.615 227.766 217.286C227.76 217.253 227.768 217.22 227.788 217.193C227.807 217.166 227.836 217.147 227.869 217.141C227.885 217.138 227.901 217.139 227.918 217.143C227.934 217.146 227.949 217.153 227.962 217.163C227.976 217.172 227.987 217.184 227.996 217.198C228.005 217.212 228.01 217.228 228.013 217.244C228.069 217.573 228.123 217.902 228.172 218.231C228.175 218.247 228.174 218.264 228.17 218.281C228.165 218.297 228.158 218.313 228.148 218.326C228.138 218.339 228.125 218.351 228.11 218.359C228.095 218.367 228.079 218.372 228.062 218.374L228.048 218.382ZM191.201 218.155C191.171 218.154 191.141 218.141 191.119 218.119C191.097 218.097 191.084 218.068 191.082 218.037C191.08 218.007 191.089 217.976 191.108 217.952C191.127 217.927 191.155 217.911 191.185 217.905L192.18 217.778C192.196 217.775 192.213 217.776 192.229 217.78C192.245 217.784 192.261 217.792 192.274 217.802C192.287 217.812 192.298 217.825 192.306 217.84C192.314 217.855 192.318 217.871 192.32 217.888C192.322 217.904 192.321 217.921 192.316 217.937C192.312 217.953 192.305 217.968 192.294 217.981C192.284 217.994 192.271 218.005 192.257 218.013C192.243 218.021 192.227 218.026 192.21 218.028L191.217 218.155H191.201ZM194.515 217.731C194.484 217.729 194.455 217.717 194.432 217.695C194.41 217.673 194.397 217.644 194.395 217.613C194.393 217.582 194.402 217.552 194.421 217.528C194.44 217.503 194.468 217.487 194.498 217.481L195.493 217.354C195.509 217.351 195.526 217.352 195.542 217.356C195.558 217.36 195.573 217.368 195.587 217.378C195.6 217.389 195.611 217.401 195.619 217.416C195.627 217.431 195.631 217.447 195.633 217.464C195.635 217.48 195.634 217.497 195.63 217.513C195.625 217.529 195.618 217.544 195.607 217.557C195.597 217.57 195.585 217.581 195.57 217.589C195.556 217.597 195.54 217.602 195.523 217.604L194.53 217.731H194.515ZM197.828 217.307C197.795 217.309 197.762 217.298 197.737 217.276C197.712 217.254 197.697 217.223 197.695 217.19C197.693 217.157 197.704 217.124 197.725 217.099C197.747 217.074 197.778 217.059 197.811 217.057L198.806 216.93C198.822 216.927 198.839 216.928 198.855 216.932C198.871 216.937 198.886 216.944 198.899 216.954C198.913 216.965 198.923 216.978 198.931 216.992C198.94 217.007 198.944 217.023 198.946 217.039C198.95 217.073 198.941 217.106 198.92 217.132C198.9 217.158 198.87 217.176 198.837 217.18L197.843 217.307H197.828ZM201.141 216.883C201.108 216.885 201.075 216.873 201.05 216.851C201.026 216.829 201.01 216.799 201.008 216.765C201.006 216.732 201.018 216.7 201.04 216.675C201.062 216.65 201.093 216.635 201.126 216.633L202.119 216.506C202.136 216.503 202.152 216.504 202.169 216.508C202.185 216.512 202.2 216.519 202.213 216.53C202.226 216.54 202.237 216.553 202.245 216.568C202.253 216.582 202.258 216.599 202.259 216.615C202.263 216.648 202.254 216.682 202.233 216.708C202.213 216.734 202.183 216.751 202.15 216.756L201.156 216.883H201.141ZM204.454 216.459C204.421 216.461 204.388 216.449 204.364 216.427C204.339 216.405 204.324 216.374 204.322 216.341C204.32 216.308 204.331 216.276 204.353 216.251C204.375 216.226 204.406 216.211 204.439 216.209L205.432 216.082C205.449 216.079 205.465 216.08 205.482 216.084C205.498 216.088 205.513 216.096 205.526 216.106C205.539 216.116 205.55 216.129 205.558 216.144C205.566 216.158 205.571 216.175 205.572 216.191C205.576 216.224 205.567 216.258 205.547 216.284C205.526 216.311 205.496 216.328 205.463 216.332L204.469 216.46L204.454 216.459ZM207.767 216.034C207.736 216.033 207.707 216.02 207.685 215.998C207.663 215.977 207.65 215.948 207.648 215.917C207.646 215.886 207.655 215.855 207.674 215.831C207.693 215.807 207.72 215.79 207.751 215.784L208.745 215.657C208.762 215.655 208.779 215.656 208.795 215.66C208.811 215.664 208.826 215.671 208.839 215.682C208.852 215.692 208.863 215.705 208.871 215.719C208.879 215.734 208.884 215.75 208.886 215.767C208.89 215.8 208.88 215.833 208.86 215.86C208.839 215.886 208.809 215.903 208.776 215.907L207.783 216.034H207.767ZM211.08 215.61C211.05 215.609 211.02 215.596 210.998 215.574C210.976 215.553 210.963 215.523 210.961 215.493C210.959 215.462 210.968 215.431 210.987 215.407C211.006 215.382 211.034 215.366 211.064 215.36L212.058 215.233C212.075 215.23 212.092 215.231 212.108 215.235C212.125 215.239 212.14 215.246 212.153 215.257C212.166 215.267 212.177 215.28 212.185 215.295C212.193 215.31 212.198 215.326 212.199 215.343C212.203 215.376 212.193 215.409 212.173 215.436C212.152 215.462 212.122 215.479 212.089 215.483L211.096 215.61H211.08ZM214.394 215.185C214.362 215.185 214.332 215.172 214.309 215.151C214.286 215.129 214.272 215.099 214.27 215.068C214.268 215.036 214.278 215.005 214.298 214.981C214.318 214.956 214.347 214.94 214.378 214.936L215.372 214.808C215.388 214.805 215.405 214.806 215.421 214.81C215.437 214.814 215.452 214.822 215.466 214.832C215.479 214.843 215.49 214.855 215.498 214.87C215.506 214.885 215.51 214.901 215.512 214.918C215.514 214.934 215.513 214.951 215.508 214.967C215.504 214.983 215.497 214.998 215.486 215.011C215.476 215.024 215.464 215.035 215.449 215.043C215.435 215.051 215.419 215.056 215.402 215.058L214.409 215.186L214.394 215.185ZM227.444 215.095C227.415 215.095 227.387 215.086 227.365 215.068C227.342 215.05 227.327 215.024 227.321 214.996C227.25 214.668 227.175 214.345 227.096 214.022C227.089 213.99 227.094 213.956 227.111 213.928C227.129 213.899 227.156 213.879 227.188 213.871C227.204 213.867 227.221 213.866 227.237 213.868C227.254 213.87 227.269 213.876 227.284 213.885C227.298 213.893 227.31 213.905 227.32 213.918C227.329 213.932 227.336 213.947 227.34 213.963C227.418 214.289 227.494 214.615 227.566 214.943C227.573 214.975 227.567 215.01 227.549 215.038C227.531 215.066 227.502 215.086 227.47 215.093L227.444 215.095ZM217.707 214.766C217.674 214.768 217.641 214.757 217.616 214.735C217.591 214.713 217.576 214.682 217.574 214.649C217.572 214.616 217.583 214.583 217.605 214.558C217.627 214.534 217.658 214.518 217.691 214.516L218.685 214.389C218.701 214.386 218.718 214.387 218.735 214.391C218.751 214.394 218.766 214.402 218.78 214.412C218.793 214.423 218.804 214.436 218.812 214.451C218.82 214.466 218.824 214.482 218.825 214.499C218.827 214.515 218.826 214.532 218.822 214.548C218.817 214.564 218.81 214.579 218.8 214.592C218.789 214.605 218.777 214.616 218.762 214.624C218.748 214.632 218.732 214.637 218.715 214.639L217.722 214.767L217.707 214.766ZM221.02 214.341C220.987 214.343 220.954 214.332 220.929 214.31C220.905 214.288 220.889 214.257 220.887 214.224C220.885 214.191 220.897 214.158 220.919 214.133C220.941 214.108 220.971 214.093 221.005 214.091L221.998 213.964C222.014 213.961 222.031 213.962 222.048 213.966C222.064 213.97 222.079 213.978 222.092 213.988C222.105 213.998 222.116 214.011 222.124 214.026C222.132 214.041 222.137 214.057 222.138 214.074C222.14 214.09 222.139 214.107 222.135 214.123C222.13 214.139 222.123 214.154 222.113 214.167C222.103 214.18 222.09 214.191 222.075 214.199C222.061 214.207 222.045 214.212 222.029 214.214L221.035 214.341H221.02ZM224.333 213.917C224.303 213.917 224.273 213.906 224.25 213.886C224.227 213.866 224.213 213.838 224.209 213.807C224.205 213.774 224.214 213.741 224.235 213.714C224.256 213.688 224.286 213.67 224.319 213.666L225.312 213.539C225.329 213.536 225.346 213.537 225.362 213.541C225.378 213.545 225.393 213.552 225.406 213.563C225.42 213.573 225.431 213.586 225.438 213.601C225.446 213.615 225.451 213.632 225.452 213.648C225.455 213.665 225.453 213.682 225.449 213.697C225.445 213.713 225.437 213.728 225.427 213.741C225.417 213.755 225.404 213.765 225.39 213.774C225.375 213.782 225.359 213.787 225.343 213.789L224.349 213.916L224.333 213.917Z" fill="white"/>
<path d="M189.98 206.455L189.938 205.215C189.982 205.062 190.065 204.924 190.177 204.811C190.29 204.699 190.429 204.617 190.582 204.573C191.742 204.232 194.641 203.524 196.191 204.4L196.585 205.799L189.98 206.455Z" fill="#E2581D"/>
<path d="M193.534 204.8C193.273 204.901 192.991 204.937 192.713 204.904C192.547 204.886 192.392 204.812 192.273 204.695C192.154 204.577 192.078 204.424 192.056 204.258L191.564 200.422L193.517 200.172L194.008 204.008C194.028 204.174 193.993 204.342 193.907 204.486C193.821 204.629 193.69 204.74 193.534 204.8Z" fill="#E2581D"/>
<path d="M208.894 204.032L208.852 202.791C208.897 202.639 208.979 202.5 209.092 202.388C209.204 202.276 209.343 202.193 209.496 202.149C210.657 201.808 213.555 201.1 215.105 201.977L215.499 203.375L208.894 204.032Z" fill="#E2581D"/>
<path d="M212.447 202.378C212.187 202.481 211.905 202.519 211.627 202.488C211.461 202.469 211.306 202.395 211.187 202.278C211.068 202.161 210.991 202.008 210.97 201.842L210.422 197.598L212.375 197.348L212.922 201.589C212.942 201.755 212.905 201.922 212.819 202.065C212.733 202.208 212.602 202.318 212.447 202.378Z" fill="#E2581D"/>
<path d="M191.486 201.385L212.398 198.001C212.629 197.965 212.841 197.85 212.997 197.676C213.154 197.502 213.246 197.279 213.258 197.045C213.307 196.146 213.214 195.244 212.984 194.373C212.824 193.82 212.475 193.341 211.998 193.02C211.521 192.7 210.945 192.558 210.374 192.62C206.444 193.028 196.47 194.309 191.251 197.188C190.981 197.338 190.75 197.551 190.578 197.809C190.407 198.067 190.3 198.362 190.266 198.67C190.172 199.39 190.247 200.123 190.485 200.81C190.56 201.007 190.7 201.172 190.883 201.276C191.065 201.381 191.278 201.42 191.486 201.385Z" fill="#E2581D"/>
<path d="M190.971 200.581C190.895 200.582 190.821 200.556 190.761 200.509C190.701 200.462 190.659 200.396 190.642 200.322C190.524 199.768 190.497 199.199 190.561 198.636C190.609 198.298 190.743 197.978 190.95 197.706C191.156 197.434 191.428 197.22 191.741 197.083C192.877 196.584 195.061 195.705 196.907 195.416C196.994 195.403 197.084 195.425 197.155 195.477C197.226 195.53 197.275 195.608 197.289 195.695C197.297 195.739 197.295 195.783 197.285 195.826C197.275 195.869 197.256 195.909 197.23 195.945C197.204 195.981 197.171 196.011 197.133 196.033C197.096 196.056 197.054 196.07 197.01 196.076C195.172 196.365 192.9 197.304 192.009 197.694C191.801 197.785 191.62 197.928 191.482 198.108C191.345 198.289 191.255 198.502 191.223 198.727C191.171 199.209 191.194 199.697 191.293 200.172C191.303 200.215 191.305 200.259 191.298 200.303C191.291 200.346 191.276 200.388 191.252 200.425C191.229 200.462 191.198 200.495 191.162 200.52C191.126 200.545 191.086 200.563 191.043 200.572C191.019 200.578 190.995 200.581 190.971 200.581Z" fill="#FBE0D0"/>
<path d="M180.176 207.223C186.949 206.268 216.26 202.201 224.917 202.139C225.28 202.135 225.635 202.244 225.932 202.451C226.23 202.658 226.457 202.952 226.581 203.293C227.376 205.508 229.067 210.672 229.618 215.935C229.652 216.284 229.565 216.634 229.373 216.927C229.18 217.22 228.893 217.438 228.559 217.545L209.569 223.721L202.656 224.606L181.393 223.137C181.029 223.113 180.684 222.968 180.412 222.726C180.14 222.483 179.957 222.156 179.892 221.798C179.42 219.175 178.417 213.007 178.621 208.928C178.641 208.508 178.808 208.107 179.092 207.796C179.376 207.484 179.759 207.282 180.176 207.223Z" fill="#E2581D"/>
<path d="M202.624 223.036L201.6 222.968C201.567 222.965 201.536 222.95 201.514 222.925C201.493 222.9 201.482 222.867 201.484 222.834C201.488 222.801 201.503 222.771 201.528 222.75C201.553 222.728 201.585 222.717 201.617 222.718L202.617 222.787L203.153 222.716C203.169 222.713 203.186 222.714 203.202 222.718C203.219 222.722 203.234 222.73 203.247 222.74C203.26 222.75 203.271 222.763 203.279 222.778C203.287 222.792 203.292 222.808 203.293 222.825C203.297 222.858 203.288 222.892 203.267 222.918C203.247 222.944 203.217 222.961 203.184 222.965L202.624 223.036ZM199.276 222.806H199.267L198.268 222.737C198.235 222.735 198.204 222.719 198.182 222.694C198.16 222.669 198.149 222.637 198.151 222.604C198.155 222.571 198.17 222.541 198.195 222.52C198.22 222.498 198.252 222.487 198.284 222.488L199.284 222.557C199.318 222.558 199.349 222.572 199.371 222.596C199.394 222.621 199.406 222.653 199.405 222.686C199.404 222.719 199.389 222.75 199.365 222.773C199.341 222.796 199.309 222.808 199.276 222.806ZM205.488 222.668C205.455 222.671 205.422 222.659 205.397 222.638C205.372 222.616 205.357 222.585 205.355 222.552C205.353 222.519 205.364 222.486 205.386 222.461C205.408 222.436 205.438 222.421 205.472 222.418L206.466 222.291C206.483 222.288 206.5 222.289 206.516 222.293C206.532 222.297 206.547 222.304 206.561 222.315C206.574 222.325 206.585 222.338 206.593 222.353C206.6 222.368 206.605 222.384 206.606 222.401C206.61 222.434 206.601 222.467 206.58 222.494C206.56 222.52 206.53 222.537 206.497 222.541L205.502 222.668H205.488ZM195.944 222.576H195.935L194.935 222.507C194.902 222.505 194.871 222.489 194.85 222.464C194.828 222.439 194.817 222.407 194.819 222.374C194.822 222.341 194.838 222.311 194.863 222.289C194.888 222.267 194.92 222.256 194.953 222.257L195.953 222.326C195.986 222.328 196.017 222.342 196.04 222.366C196.062 222.39 196.074 222.423 196.073 222.456C196.072 222.489 196.058 222.52 196.033 222.543C196.009 222.565 195.977 222.577 195.944 222.576ZM192.612 222.346H192.603L191.603 222.277C191.587 222.276 191.571 222.272 191.556 222.264C191.541 222.257 191.528 222.247 191.518 222.234C191.507 222.222 191.499 222.208 191.493 222.192C191.488 222.176 191.486 222.16 191.487 222.143C191.49 222.11 191.506 222.08 191.531 222.058C191.555 222.036 191.588 222.025 191.621 222.027L192.62 222.096C192.653 222.097 192.684 222.111 192.707 222.136C192.73 222.16 192.742 222.192 192.741 222.225C192.74 222.258 192.726 222.29 192.702 222.312C192.677 222.335 192.645 222.347 192.612 222.346ZM208.801 222.244C208.768 222.246 208.735 222.235 208.71 222.213C208.685 222.192 208.67 222.161 208.668 222.128C208.666 222.094 208.677 222.062 208.699 222.037C208.721 222.012 208.752 221.997 208.785 221.994L209.182 221.944L209.73 221.763C209.746 221.756 209.763 221.753 209.781 221.753C209.798 221.754 209.815 221.758 209.831 221.765C209.847 221.772 209.861 221.783 209.872 221.796C209.884 221.809 209.893 221.824 209.898 221.84C209.903 221.857 209.905 221.874 209.904 221.892C209.902 221.909 209.897 221.926 209.888 221.941C209.88 221.956 209.868 221.969 209.854 221.98C209.84 221.99 209.825 221.998 209.808 222.002L209.237 222.187L208.815 222.243L208.801 222.244ZM189.279 222.116H189.27L188.276 222.049C188.243 222.047 188.212 222.032 188.19 222.007C188.168 221.981 188.157 221.949 188.159 221.915C188.163 221.883 188.179 221.853 188.204 221.832C188.228 221.811 188.26 221.799 188.292 221.799L189.292 221.868C189.325 221.869 189.357 221.884 189.379 221.908C189.402 221.932 189.414 221.964 189.413 221.998C189.412 222.031 189.397 222.062 189.373 222.085C189.349 222.107 189.317 222.119 189.284 222.118L189.279 222.116ZM185.947 221.886H185.939L184.939 221.817C184.922 221.816 184.906 221.811 184.892 221.804C184.877 221.797 184.864 221.787 184.853 221.774C184.842 221.762 184.834 221.747 184.829 221.732C184.823 221.716 184.821 221.7 184.823 221.683C184.826 221.65 184.842 221.62 184.867 221.599C184.891 221.577 184.923 221.566 184.956 221.567L185.955 221.636C185.988 221.637 186.02 221.651 186.042 221.675C186.065 221.699 186.077 221.732 186.076 221.765C186.075 221.798 186.061 221.829 186.037 221.852C186.013 221.875 185.981 221.887 185.947 221.886ZM182.615 221.656H182.606L181.606 221.587C181.573 221.584 181.542 221.569 181.52 221.544C181.499 221.519 181.488 221.486 181.49 221.453C181.495 221.421 181.511 221.392 181.535 221.37C181.56 221.349 181.591 221.337 181.623 221.336L182.623 221.406C182.656 221.407 182.688 221.421 182.71 221.445C182.733 221.47 182.745 221.502 182.744 221.535C182.743 221.568 182.728 221.6 182.704 221.622C182.68 221.645 182.648 221.657 182.615 221.656ZM211.994 221.284C211.967 221.284 211.942 221.275 211.92 221.26C211.899 221.244 211.883 221.223 211.874 221.198C211.869 221.182 211.867 221.165 211.869 221.149C211.87 221.133 211.874 221.117 211.882 221.102C211.889 221.087 211.899 221.074 211.912 221.064C211.924 221.053 211.939 221.045 211.954 221.04L212.908 220.73C212.94 220.72 212.974 220.723 213.003 220.738C213.033 220.754 213.055 220.779 213.066 220.811C213.076 220.842 213.073 220.877 213.058 220.906C213.043 220.936 213.017 220.958 212.985 220.968L212.032 221.278C212.019 221.281 212.006 221.283 211.993 221.282L211.994 221.284ZM215.17 220.251C215.14 220.251 215.111 220.241 215.088 220.221C215.065 220.202 215.05 220.175 215.045 220.145C215.04 220.115 215.046 220.085 215.062 220.059C215.078 220.034 215.103 220.015 215.132 220.006L216.085 219.696C216.116 219.686 216.15 219.689 216.18 219.705C216.209 219.72 216.232 219.746 216.242 219.777C216.247 219.793 216.249 219.809 216.248 219.826C216.247 219.842 216.243 219.858 216.235 219.873C216.228 219.887 216.217 219.9 216.205 219.911C216.192 219.922 216.178 219.93 216.162 219.935L215.209 220.245C215.196 220.248 215.183 220.248 215.169 220.247L215.17 220.251ZM181.171 219.338C181.141 219.337 181.112 219.326 181.089 219.306C181.067 219.286 181.052 219.258 181.048 219.228C180.998 218.911 180.946 218.579 180.896 218.235C180.891 218.202 180.899 218.169 180.919 218.142C180.939 218.115 180.968 218.098 181.001 218.093C181.034 218.088 181.068 218.096 181.094 218.116C181.121 218.135 181.139 218.165 181.144 218.198C181.195 218.542 181.246 218.873 181.295 219.184C181.297 219.201 181.297 219.218 181.292 219.234C181.288 219.251 181.281 219.266 181.271 219.279C181.26 219.293 181.248 219.304 181.233 219.312C181.218 219.321 181.202 219.326 181.185 219.328L181.171 219.338ZM218.347 219.218C218.318 219.218 218.289 219.207 218.266 219.188C218.244 219.168 218.229 219.142 218.224 219.112C218.219 219.083 218.225 219.053 218.24 219.027C218.256 219.001 218.28 218.982 218.308 218.973L219.261 218.664C219.277 218.657 219.294 218.654 219.312 218.654C219.329 218.654 219.346 218.658 219.362 218.665C219.378 218.673 219.392 218.683 219.403 218.696C219.415 218.709 219.424 218.724 219.429 218.741C219.434 218.757 219.436 218.775 219.435 218.792C219.433 218.81 219.428 218.826 219.419 218.842C219.411 218.857 219.399 218.87 219.385 218.88C219.371 218.891 219.356 218.898 219.339 218.903L218.386 219.212C218.373 219.215 218.36 219.216 218.346 219.215L218.347 219.218ZM221.524 218.185C221.494 218.185 221.464 218.175 221.441 218.155C221.418 218.136 221.403 218.109 221.399 218.079C221.394 218.049 221.4 218.019 221.416 217.993C221.432 217.968 221.457 217.949 221.485 217.94L222.438 217.63C222.47 217.621 222.504 217.624 222.533 217.639C222.563 217.654 222.585 217.68 222.596 217.711C222.601 217.727 222.603 217.743 222.602 217.76C222.601 217.776 222.596 217.792 222.589 217.807C222.581 217.821 222.571 217.834 222.559 217.845C222.546 217.856 222.532 217.864 222.516 217.869L221.563 218.179C221.55 218.182 221.536 218.182 221.523 218.181L221.524 218.185ZM224.7 217.151C224.67 217.152 224.64 217.142 224.617 217.122C224.594 217.103 224.578 217.076 224.574 217.046C224.569 217.016 224.575 216.986 224.591 216.96C224.607 216.935 224.632 216.916 224.66 216.907L225.613 216.598C225.629 216.593 225.645 216.591 225.662 216.592C225.678 216.593 225.694 216.598 225.709 216.605C225.723 216.612 225.736 216.623 225.747 216.635C225.758 216.648 225.766 216.662 225.771 216.678C225.776 216.693 225.778 216.71 225.777 216.726C225.776 216.743 225.771 216.759 225.764 216.773C225.756 216.788 225.746 216.801 225.734 216.812C225.721 216.822 225.707 216.83 225.691 216.836L224.738 217.146C224.726 217.148 224.713 217.149 224.7 217.148V217.151ZM227.876 216.119C227.85 216.119 227.824 216.11 227.802 216.094C227.781 216.079 227.765 216.056 227.757 216.031C227.75 216.009 227.749 215.985 227.754 215.963C227.76 215.94 227.772 215.92 227.789 215.904C227.756 215.617 227.72 215.332 227.679 215.048C227.677 215.031 227.678 215.015 227.682 214.999C227.687 214.983 227.694 214.968 227.704 214.954C227.715 214.941 227.727 214.93 227.742 214.922C227.756 214.914 227.772 214.909 227.789 214.907C227.805 214.904 227.822 214.905 227.838 214.91C227.854 214.914 227.869 214.921 227.882 214.932C227.895 214.942 227.906 214.955 227.914 214.969C227.922 214.984 227.927 215 227.929 215.016C227.971 215.333 228.011 215.65 228.045 215.966L228.056 216.068L227.912 216.114C227.9 216.117 227.888 216.117 227.876 216.115V216.119ZM180.704 216.026C180.674 216.025 180.645 216.014 180.622 215.994C180.599 215.974 180.584 215.946 180.58 215.916C180.54 215.587 180.502 215.258 180.47 214.919C180.466 214.886 180.476 214.853 180.496 214.827C180.517 214.801 180.547 214.784 180.58 214.781C180.613 214.777 180.646 214.786 180.672 214.807C180.698 214.827 180.715 214.857 180.719 214.89C180.754 215.219 180.793 215.556 180.828 215.885C180.83 215.902 180.829 215.918 180.824 215.934C180.82 215.95 180.813 215.965 180.802 215.978C180.792 215.991 180.78 216.001 180.765 216.009C180.751 216.017 180.735 216.023 180.719 216.024L180.704 216.026ZM227.429 212.847C227.4 212.847 227.372 212.837 227.35 212.818C227.327 212.8 227.312 212.774 227.307 212.745C227.243 212.416 227.177 212.088 227.109 211.764C227.106 211.748 227.106 211.732 227.109 211.716C227.112 211.699 227.118 211.684 227.127 211.67C227.136 211.656 227.147 211.645 227.161 211.635C227.174 211.626 227.189 211.619 227.205 211.616C227.221 211.612 227.238 211.612 227.254 211.615C227.27 211.618 227.286 211.624 227.299 211.633C227.313 211.642 227.325 211.653 227.334 211.667C227.344 211.68 227.35 211.696 227.354 211.712C227.423 212.041 227.49 212.369 227.552 212.698C227.555 212.714 227.555 212.731 227.552 212.747C227.548 212.763 227.542 212.778 227.533 212.792C227.523 212.805 227.512 212.817 227.498 212.826C227.484 212.835 227.468 212.841 227.452 212.844L227.429 212.847ZM180.379 212.698C180.347 212.698 180.317 212.686 180.294 212.664C180.271 212.642 180.257 212.613 180.254 212.581C180.23 212.243 180.211 211.908 180.196 211.576C180.195 211.559 180.198 211.543 180.203 211.528C180.209 211.512 180.217 211.498 180.228 211.486C180.239 211.474 180.252 211.464 180.267 211.457C180.282 211.45 180.298 211.446 180.315 211.445C180.331 211.443 180.348 211.445 180.364 211.45C180.381 211.455 180.395 211.463 180.408 211.475C180.421 211.486 180.43 211.5 180.437 211.516C180.444 211.531 180.447 211.548 180.446 211.565C180.46 211.894 180.48 212.222 180.504 212.563C180.505 212.58 180.503 212.596 180.498 212.612C180.493 212.628 180.484 212.642 180.473 212.655C180.462 212.667 180.449 212.677 180.434 212.685C180.419 212.692 180.403 212.696 180.387 212.697L180.379 212.698ZM226.699 209.584C226.671 209.584 226.644 209.575 226.622 209.558C226.6 209.541 226.584 209.517 226.577 209.49C226.493 209.161 226.407 208.833 226.322 208.522C226.313 208.49 226.318 208.456 226.334 208.427C226.35 208.398 226.378 208.377 226.41 208.368C226.425 208.363 226.442 208.362 226.458 208.364C226.475 208.366 226.491 208.371 226.505 208.379C226.519 208.387 226.532 208.398 226.542 208.411C226.552 208.425 226.559 208.44 226.563 208.456C226.649 208.771 226.735 209.095 226.82 209.428C226.824 209.444 226.825 209.46 226.823 209.476C226.821 209.493 226.815 209.508 226.807 209.522C226.799 209.537 226.788 209.549 226.774 209.559C226.761 209.569 226.746 209.576 226.731 209.58C226.72 209.581 226.709 209.582 226.699 209.581V209.584ZM180.3 209.356C180.284 209.356 180.268 209.352 180.253 209.346C180.238 209.339 180.224 209.329 180.213 209.317C180.202 209.305 180.193 209.291 180.187 209.275C180.182 209.26 180.179 209.244 180.18 209.227L180.189 209.008C180.191 208.951 180.214 208.896 180.252 208.854C180.29 208.812 180.342 208.784 180.399 208.776L181.015 208.688C181.032 208.685 181.049 208.686 181.065 208.69C181.082 208.694 181.097 208.701 181.11 208.712C181.123 208.722 181.134 208.735 181.142 208.75C181.15 208.764 181.155 208.781 181.157 208.797C181.159 208.814 181.158 208.831 181.153 208.847C181.149 208.863 181.142 208.878 181.131 208.891C181.121 208.904 181.109 208.915 181.094 208.923C181.08 208.932 181.064 208.937 181.047 208.939L180.431 209.025V209.234C180.43 209.25 180.426 209.266 180.419 209.281C180.412 209.296 180.402 209.309 180.39 209.32C180.378 209.332 180.364 209.34 180.349 209.346C180.333 209.351 180.317 209.354 180.3 209.353V209.356ZM183.346 208.619C183.315 208.618 183.286 208.605 183.264 208.583C183.241 208.562 183.228 208.533 183.226 208.502C183.224 208.471 183.233 208.44 183.252 208.416C183.271 208.391 183.298 208.375 183.329 208.369L184.322 208.232C184.339 208.229 184.356 208.23 184.372 208.234C184.388 208.238 184.403 208.245 184.417 208.256C184.43 208.266 184.441 208.279 184.449 208.294C184.457 208.309 184.462 208.325 184.463 208.342C184.467 208.375 184.458 208.408 184.438 208.434C184.417 208.461 184.387 208.478 184.354 208.482L183.36 208.62L183.346 208.619ZM186.656 208.164C186.626 208.164 186.596 208.152 186.574 208.132C186.551 208.112 186.536 208.085 186.532 208.054C186.53 208.038 186.531 208.021 186.535 208.005C186.54 207.989 186.547 207.974 186.557 207.961C186.568 207.947 186.58 207.936 186.595 207.928C186.609 207.92 186.625 207.915 186.642 207.913L187.635 207.777C187.652 207.775 187.668 207.776 187.684 207.78C187.7 207.785 187.715 207.792 187.728 207.802C187.741 207.812 187.752 207.824 187.76 207.839C187.768 207.853 187.774 207.869 187.776 207.885C187.778 207.901 187.777 207.918 187.773 207.934C187.769 207.95 187.761 207.965 187.751 207.978C187.741 207.991 187.729 208.002 187.714 208.01C187.7 208.018 187.684 208.024 187.668 208.026L186.676 208.161L186.656 208.164ZM189.968 207.717C189.935 207.719 189.902 207.708 189.877 207.686C189.852 207.664 189.837 207.633 189.835 207.6C189.833 207.567 189.844 207.534 189.866 207.509C189.888 207.484 189.919 207.469 189.952 207.467L190.945 207.334C190.978 207.331 191.012 207.34 191.038 207.36C191.064 207.381 191.082 207.411 191.086 207.444C191.09 207.477 191.081 207.511 191.061 207.537C191.04 207.564 191.01 207.581 190.977 207.585L189.983 207.718L189.968 207.717ZM193.28 207.278C193.247 207.281 193.214 207.27 193.19 207.248C193.165 207.226 193.149 207.195 193.147 207.162C193.145 207.129 193.156 207.096 193.178 207.071C193.2 207.046 193.231 207.031 193.264 207.029L194.257 206.898C194.274 206.896 194.291 206.897 194.307 206.901C194.323 206.905 194.338 206.913 194.351 206.923C194.364 206.933 194.375 206.946 194.384 206.96C194.392 206.975 194.397 206.991 194.398 207.008C194.402 207.041 194.393 207.074 194.373 207.101C194.352 207.127 194.322 207.144 194.289 207.148L193.296 207.278H193.28ZM196.593 206.848C196.56 206.85 196.528 206.839 196.503 206.817C196.478 206.795 196.463 206.764 196.461 206.73C196.459 206.697 196.47 206.665 196.492 206.64C196.514 206.615 196.545 206.6 196.578 206.598L197.573 206.47C197.589 206.467 197.606 206.468 197.622 206.472C197.638 206.477 197.653 206.484 197.666 206.494C197.679 206.505 197.69 206.517 197.697 206.532C197.705 206.547 197.71 206.563 197.712 206.579C197.716 206.612 197.706 206.646 197.686 206.672C197.665 206.698 197.635 206.715 197.602 206.719L196.609 206.848H196.593ZM199.93 206.422L199.898 206.174L200.883 206.05C200.9 206.048 200.917 206.049 200.933 206.053C200.949 206.057 200.964 206.065 200.977 206.075C200.99 206.085 201.001 206.098 201.009 206.112C201.017 206.127 201.022 206.143 201.024 206.159C201.028 206.193 201.018 206.226 200.998 206.252C200.977 206.279 200.947 206.296 200.914 206.3L199.93 206.422ZM225.785 206.37C225.759 206.37 225.733 206.361 225.711 206.346C225.689 206.33 225.673 206.308 225.665 206.282C225.555 205.942 225.457 205.625 225.359 205.329C225.354 205.313 225.352 205.297 225.353 205.28C225.355 205.264 225.359 205.248 225.367 205.233C225.374 205.219 225.384 205.205 225.397 205.195C225.409 205.184 225.424 205.176 225.439 205.171C225.455 205.166 225.471 205.164 225.488 205.165C225.504 205.166 225.52 205.171 225.535 205.178C225.549 205.186 225.562 205.196 225.573 205.208C225.584 205.221 225.592 205.235 225.597 205.251C225.694 205.546 225.797 205.866 225.905 206.208C225.91 206.223 225.911 206.24 225.91 206.256C225.908 206.273 225.904 206.289 225.896 206.303C225.889 206.318 225.878 206.331 225.865 206.341C225.853 206.352 225.838 206.36 225.823 206.364C225.81 206.367 225.798 206.367 225.785 206.364V206.37ZM203.223 206.014C203.19 206.016 203.157 206.004 203.132 205.982C203.108 205.961 203.092 205.93 203.09 205.896C203.088 205.863 203.1 205.831 203.122 205.806C203.144 205.781 203.175 205.766 203.208 205.764L204.202 205.643C204.235 205.64 204.268 205.649 204.294 205.67C204.32 205.69 204.337 205.72 204.341 205.753C204.343 205.769 204.342 205.786 204.338 205.802C204.333 205.818 204.326 205.833 204.316 205.845C204.306 205.858 204.293 205.869 204.278 205.877C204.264 205.885 204.248 205.89 204.232 205.892L203.238 206.014H203.223ZM206.538 205.615C206.505 205.617 206.473 205.605 206.448 205.583C206.423 205.561 206.408 205.53 206.406 205.497C206.404 205.464 206.416 205.431 206.438 205.406C206.46 205.382 206.491 205.367 206.524 205.365L207.52 205.249C207.536 205.246 207.553 205.247 207.569 205.252C207.584 205.256 207.599 205.264 207.612 205.274C207.625 205.284 207.636 205.297 207.644 205.311C207.651 205.326 207.656 205.342 207.658 205.358C207.66 205.375 207.659 205.391 207.654 205.407C207.65 205.423 207.642 205.438 207.632 205.451C207.622 205.464 207.609 205.475 207.595 205.483C207.58 205.491 207.565 205.496 207.548 205.497L206.553 205.614L206.538 205.615ZM209.857 205.232C209.824 205.234 209.791 205.222 209.767 205.2C209.742 205.178 209.727 205.147 209.726 205.114C209.724 205.081 209.735 205.048 209.757 205.024C209.78 204.999 209.811 204.984 209.844 204.982L210.839 204.873C210.872 204.87 210.905 204.879 210.93 204.9C210.956 204.92 210.973 204.95 210.977 204.982C210.981 205.015 210.972 205.048 210.951 205.074C210.931 205.1 210.901 205.117 210.868 205.122L209.872 205.231L209.857 205.232ZM213.178 204.869C213.146 204.869 213.116 204.856 213.093 204.834C213.07 204.812 213.057 204.782 213.055 204.75C213.053 204.718 213.064 204.687 213.084 204.663C213.104 204.638 213.133 204.623 213.165 204.618L214.161 204.515C214.178 204.514 214.194 204.515 214.21 204.52C214.226 204.525 214.24 204.532 214.253 204.543C214.266 204.553 214.276 204.566 214.284 204.58C214.292 204.595 214.297 204.61 214.299 204.627C214.301 204.643 214.299 204.66 214.294 204.675C214.29 204.691 214.282 204.706 214.272 204.718C214.261 204.731 214.249 204.742 214.234 204.75C214.22 204.758 214.204 204.763 214.188 204.764L213.191 204.874L213.178 204.869ZM216.502 204.534C216.486 204.535 216.469 204.532 216.454 204.527C216.438 204.521 216.424 204.513 216.412 204.502C216.4 204.491 216.39 204.477 216.383 204.463C216.376 204.448 216.372 204.432 216.371 204.415C216.37 204.399 216.373 204.382 216.378 204.367C216.384 204.351 216.392 204.337 216.403 204.325C216.414 204.313 216.428 204.303 216.443 204.296C216.457 204.289 216.473 204.285 216.49 204.284L217.488 204.19C217.504 204.188 217.52 204.189 217.536 204.194C217.552 204.198 217.566 204.206 217.579 204.216C217.592 204.226 217.602 204.239 217.61 204.253C217.618 204.267 217.623 204.283 217.625 204.3C217.628 204.332 217.618 204.364 217.597 204.39C217.577 204.415 217.547 204.432 217.515 204.435L216.517 204.529L216.502 204.534ZM219.829 204.238C219.796 204.239 219.764 204.228 219.74 204.205C219.715 204.183 219.701 204.151 219.7 204.118C219.698 204.085 219.71 204.053 219.733 204.028C219.755 204.004 219.786 203.99 219.819 203.988C220.165 203.96 220.498 203.934 220.819 203.912C220.852 203.909 220.884 203.919 220.908 203.939C220.933 203.96 220.949 203.989 220.953 204.021C220.956 204.053 220.946 204.085 220.925 204.11C220.905 204.136 220.876 204.152 220.844 204.156C220.521 204.179 220.186 204.205 219.845 204.233L219.829 204.238ZM223.162 204.019C223.13 204.019 223.099 204.007 223.076 203.984C223.053 203.962 223.039 203.932 223.037 203.899C223.036 203.883 223.039 203.867 223.044 203.851C223.049 203.836 223.058 203.821 223.069 203.809C223.08 203.797 223.093 203.787 223.108 203.78C223.123 203.773 223.139 203.77 223.156 203.769C223.514 203.752 223.849 203.738 224.159 203.729C224.19 203.731 224.219 203.746 224.24 203.769C224.261 203.792 224.273 203.823 224.273 203.854C224.273 203.885 224.261 203.916 224.24 203.939C224.219 203.962 224.19 203.977 224.159 203.98C223.85 203.988 223.517 204.001 223.16 204.019H223.162Z" fill="white"/>
<path d="M209.29 226.709L203.234 227.484C202.852 227.534 202.464 227.442 202.145 227.225C201.825 227.009 201.597 226.682 201.502 226.308L200.057 220.566C200.003 220.35 199.995 220.125 200.035 219.905C200.074 219.686 200.16 219.477 200.286 219.293C200.412 219.109 200.575 218.954 200.766 218.838C200.956 218.722 201.169 218.648 201.39 218.621L208.665 217.689C208.881 217.661 209.102 217.678 209.312 217.739C209.522 217.801 209.716 217.905 209.884 218.046C210.051 218.187 210.187 218.361 210.284 218.558C210.38 218.754 210.434 218.969 210.443 219.187L210.67 225.086C210.684 225.48 210.55 225.865 210.295 226.166C210.039 226.466 209.681 226.66 209.29 226.709Z" fill="#FBE0D0"/>
<path d="M208.408 225.733L203.799 226.324C203.509 226.359 203.215 226.288 202.974 226.124C202.732 225.959 202.558 225.712 202.485 225.428L201.39 221.057C201.35 220.893 201.345 220.721 201.375 220.555C201.406 220.388 201.471 220.23 201.567 220.09C201.663 219.95 201.787 219.832 201.931 219.744C202.076 219.656 202.237 219.598 202.405 219.577L207.943 218.868C208.108 218.846 208.275 218.859 208.435 218.906C208.595 218.953 208.743 219.032 208.87 219.14C208.998 219.247 209.101 219.38 209.174 219.529C209.247 219.679 209.289 219.842 209.295 220.008L209.467 224.502C209.476 224.802 209.372 225.095 209.176 225.323C208.98 225.55 208.706 225.697 208.408 225.733Z" fill="#E2581D"/>
<path d="M204.805 179.26C206.228 185.167 206.271 190.945 206.054 193.05C206.014 193.433 205.84 193.79 205.563 194.059C205.286 194.327 204.924 194.489 204.539 194.517C203.637 194.581 202.408 194.664 201.31 194.727C200.105 194.797 198.762 194.033 197.866 193.395C197.768 193.325 197.649 193.29 197.529 193.295C197.409 193.301 197.294 193.346 197.202 193.425C197.111 193.503 197.048 193.61 197.025 193.728C197.001 193.846 197.018 193.969 197.072 194.077C197.51 194.939 198.277 195.618 199.036 196.194C199.493 196.541 201.007 197.159 200.898 197.838C200.85 198.052 200.746 198.249 200.595 198.409C199.752 199.422 198.476 199.963 197.218 200.349C197.055 200.382 196.904 200.458 196.78 200.568C196.749 201.384 199.254 202.289 199.9 202.504C200.868 202.834 201.895 202.953 202.913 202.854C205.432 202.588 207.761 200.848 209.118 198.749C212.747 193.137 214.624 186.364 215.309 181.18C211.94 177.81 206.843 178.666 204.805 179.26Z" fill="#FBE0D0"/>
<path d="M215.317 181.716C218.009 161.365 202.336 145.717 202.336 145.717L193.012 156.596C200.091 165.425 203.456 173.517 204.994 179.871C207.032 179.282 211.941 178.343 215.317 181.716Z" fill="#213782"/>
<path d="M204.77 179.776C204.641 179.777 204.516 179.734 204.414 179.654C204.312 179.575 204.24 179.463 204.208 179.338C202.315 171.504 198.32 163.749 192.338 156.287C192.291 156.228 192.255 156.16 192.234 156.087C192.213 156.014 192.206 155.938 192.214 155.863C192.223 155.787 192.246 155.714 192.282 155.648C192.318 155.581 192.368 155.522 192.427 155.475C192.486 155.427 192.554 155.392 192.627 155.371C192.699 155.35 192.776 155.343 192.851 155.351C192.926 155.359 192.999 155.382 193.066 155.419C193.132 155.455 193.191 155.505 193.238 155.564C199.328 163.159 203.397 171.067 205.332 179.066C205.353 179.151 205.355 179.24 205.336 179.326C205.318 179.411 205.28 179.492 205.226 179.56C205.171 179.629 205.102 179.685 205.023 179.723C204.944 179.761 204.858 179.78 204.77 179.78V179.776Z" fill="#2B4DBD"/>
<path d="M78.4843 300.42C78.487 300.319 78.4767 300.217 78.4536 300.119C76.9542 294.17 69.5108 290.463 69.5108 290.463L66.5613 290.695C64.8658 295.938 65.0838 299.154 65.3565 300.587C65.3642 300.627 65.3762 300.665 65.3872 300.704C67.8186 300.922 72.8273 301.063 78.4843 300.42Z" fill="#213782"/>
<path d="M65.3887 300.704C65.4427 300.932 65.5587 301.142 65.7239 301.309C65.8892 301.475 66.0972 301.593 66.3251 301.65C69.7861 302.378 75.2865 301.792 77.5964 301.49C78.1057 301.424 78.4727 300.951 78.4869 300.42C72.8288 301.063 67.8201 300.922 65.3887 300.704Z" fill="#213782"/>
<path d="M65.375 286.297L66.6247 292.315C66.6603 292.522 66.761 292.712 66.9121 292.858C67.0632 293.003 67.2568 293.097 67.4647 293.125C68.1089 293.19 68.7583 293.179 69.4001 293.094C70.0441 292.999 70.4953 292.343 70.3792 291.641L69.5107 286.297H65.375Z" fill="#E2581D"/>
<path d="M91.259 300.631C88.0017 300.54 86.316 300.155 85.4453 299.799C85.4453 300.128 85.4453 300.456 85.4552 300.795C85.4516 300.963 85.5138 301.126 85.6286 301.249C85.7434 301.372 85.9017 301.445 86.0696 301.453L103.955 301.338C104.526 301.338 104.86 300.671 104.612 300.147C102.267 300.335 96.2939 300.769 91.259 300.631Z" fill="#213782"/>
<path d="M104.612 300.142C104.593 300.095 104.569 300.05 104.541 300.007C102.962 297.799 98.9389 293.401 90.9895 291.494L87.1758 291.373C87.1758 291.373 85.4771 294.327 85.4453 299.797C86.3215 300.153 88.0017 300.538 91.259 300.629C96.2939 300.77 102.267 300.336 104.612 300.142Z" fill="#213782"/>
<path d="M86.2988 285.766C86.3591 286.047 87.152 290.329 87.4598 291.989C87.4873 292.174 87.5757 292.343 87.711 292.471C87.8462 292.599 88.0204 292.677 88.2057 292.694C88.8628 292.73 89.9121 292.735 90.8179 292.488C91.3064 292.356 91.6339 291.857 91.5999 291.304L91.1727 284.531L86.2988 285.766Z" fill="#E2581D"/>
<path d="M83.4087 206.705C83.4087 206.705 88.6539 242.779 92.4402 285.704C92.5103 286.504 91.874 287.2 91.0898 287.366C89.9332 287.609 88.2323 287.898 86.8249 287.859C86.4609 287.847 86.1122 287.71 85.838 287.47C85.5637 287.23 85.3807 286.903 85.32 286.544C84.0298 278.975 74.8263 238.355 72.4113 229.415C72.4113 229.415 69.637 267.39 70.5241 287.092C70.5352 287.328 70.4563 287.559 70.3034 287.74C70.1506 287.92 69.9351 288.035 69.7005 288.063C68.5623 288.185 67.4142 288.181 66.2767 288.053C65.9997 288.026 65.7398 287.906 65.5383 287.714C65.3369 287.522 65.2055 287.268 65.165 286.992C64.2461 280.587 58.9582 242.46 59.1827 214.994C59.1959 213.444 60.9987 200.719 60.9987 200.719L83.4087 206.705Z" fill="#213782"/>
<path d="M60.2116 208.787C59.9475 208.692 59.7158 208.524 59.5433 208.302C59.3708 208.081 59.2645 207.815 59.2368 207.535C58.5391 200.763 55.1613 158.769 76.486 141.494C76.486 141.494 77.7094 138.292 87.7617 146.163C97.814 154.033 92.4319 162.283 90.0256 173.661C87.1133 187.43 82.0028 198.685 84.2645 207.158C84.3411 207.44 84.3098 207.741 84.1767 208.001C84.0437 208.262 83.8184 208.463 83.545 208.566C75.7369 211.443 67.9583 211.539 60.2116 208.787Z" fill="#213782"/>
<path d="M83.2399 131.73L83.4798 131.62C83.5524 131.588 83.6178 131.542 83.6718 131.484C83.7259 131.426 83.7675 131.358 83.7941 131.283C83.8207 131.208 83.8317 131.129 83.8264 131.05C83.8211 130.971 83.7997 130.894 83.7635 130.823C83.1676 129.671 82.011 127.032 83.5072 126.417C85.4403 125.624 93.0972 124.061 94.75 121.342C96.3381 118.729 94.9307 115.355 92.8169 114.395C92.7494 114.363 92.6723 114.358 92.6014 114.382C92.5305 114.405 92.4712 114.455 92.4357 114.52L92.2594 114.849C92.2328 114.9 92.1916 114.942 92.1412 114.969C92.0907 114.996 92.0332 115.007 91.9762 115.002C91.9191 114.996 91.8651 114.973 91.8211 114.936C91.7771 114.9 91.7451 114.85 91.7293 114.795C91.7142 114.742 91.6841 114.694 91.6425 114.658C91.6009 114.622 91.5497 114.598 91.495 114.59C91.4403 114.582 91.3845 114.59 91.3343 114.614C91.2841 114.637 91.2418 114.674 91.2123 114.721C90.7052 115.534 89.3339 116.854 85.667 117.53C80.4558 118.492 77.0145 120.599 76.9247 124.207C76.924 124.258 76.9095 124.308 76.8828 124.352C76.8561 124.396 76.8181 124.432 76.7728 124.456C76.7275 124.48 76.6765 124.492 76.6252 124.49C76.5739 124.487 76.5241 124.471 76.4811 124.443C76.0956 124.209 75.48 124.098 74.6575 124.791C73.226 125.996 73.8119 129.119 76.9488 131.688C76.9842 131.715 77.0127 131.751 77.0319 131.791C77.0511 131.832 77.0604 131.877 77.0591 131.921C77.0579 131.966 77.046 132.01 77.0245 132.05C77.0031 132.089 76.9726 132.123 76.9356 132.148C76.3672 132.519 75.5194 133.4 77.7165 134.576C79.9881 135.791 81.6847 135.692 82.3385 135.583C82.3769 135.577 82.4137 135.563 82.4464 135.541C82.4792 135.52 82.5073 135.493 82.529 135.461C82.5508 135.428 82.5657 135.392 82.5729 135.353C82.58 135.315 82.5793 135.276 82.5707 135.238L81.873 132.07C81.8639 132.028 81.8642 131.985 81.874 131.943C81.8839 131.901 81.9029 131.862 81.9298 131.829C81.9567 131.795 81.9908 131.769 82.0295 131.75C82.0682 131.731 82.1105 131.722 82.1534 131.722L83.2399 131.73Z" fill="#213782"/>
<path d="M84.8035 128.91C84.7969 129.507 76.2812 141.611 76.2812 141.611C76.2812 141.611 77.8146 144.623 85.1068 147.069L91.4057 134.11L84.8035 128.91Z" fill="#FBE0D0"/>
<path d="M91.5068 121.975C91.5068 121.975 94.5374 128.94 94.7411 132.595C94.9449 136.25 95.7269 138.623 91.5068 139.359C87.2868 140.096 83.7305 137.989 81.7974 134.348C81.7974 134.348 78.7767 128.737 79.4546 126.44C80.1326 124.142 91.5068 121.975 91.5068 121.975Z" fill="#FBE0D0"/>
<path d="M83.3723 132.397C83.3723 132.397 82.2168 127.947 80.2235 129.196C78.2301 130.444 81.2585 134.18 82.8608 134.347L83.3723 132.397Z" fill="#FBE0D0"/>
<path d="M90.9941 149.812L91.5812 165.595C93.1434 166.137 94.7352 166.589 96.3488 166.95C97.294 163.903 99.3761 160.163 101.081 157.384C94.8166 155.164 90.9941 149.812 90.9941 149.812Z" fill="#FBE0D0"/>
<path d="M122.271 149.545C113.678 158.829 106.718 159.375 101.082 157.38C99.3769 160.16 97.2948 163.899 96.3496 166.946C119.297 172.008 124.701 150.897 124.701 150.897L122.271 149.545Z" fill="#FBE0D0"/>
<path d="M124.014 148.559C124.014 148.559 124.999 147.495 126.836 147.829C128.673 148.163 130.298 148.8 131.436 147.829C132.574 146.858 132.979 148.158 132.979 148.158L129.57 150.762L124.014 148.559Z" fill="#FBE0D0"/>
<path d="M121.969 150.377C121.969 150.377 122.647 147.539 124.69 147.927C126.734 148.315 131.372 150.841 132.576 150.377C133.781 149.912 135.301 148.798 136.081 149.192L134.699 150.91C134.699 150.91 138.252 148.86 138.861 150.12L132.947 153.449C132.947 153.449 124.303 152.582 121.969 150.377Z" fill="#FBE0D0"/>
<path d="M81.4551 170.464C81.4551 170.464 97.6101 184.004 115.055 178.097C115.589 177.913 116.155 177.839 116.719 177.882C117.282 177.924 117.831 178.081 118.331 178.343L123.346 180.993C124.36 181.529 125.541 181.655 126.644 181.346C127.748 181.037 128.692 180.316 129.281 179.332C129.977 178.165 130.572 176.833 130.69 175.556L120.876 171.581L121.6 170.375C121.6 170.375 116.808 169.97 115.554 173.406C115.554 173.406 106.428 177.204 91.0364 160.264C91.0364 160.265 84.0519 166.207 81.4551 170.464Z" fill="#FBE0D0"/>
<path d="M80.5867 170.325C80.5315 170.325 80.4776 170.308 80.4323 170.276C73.6297 165.673 70.4293 158.254 70.3976 158.18C70.3832 158.146 70.3755 158.111 70.375 158.074C70.3745 158.038 70.3812 158.002 70.3947 157.968C70.4082 157.934 70.4282 157.903 70.4536 157.877C70.479 157.851 70.5092 157.83 70.5427 157.816C70.5761 157.801 70.6121 157.793 70.6485 157.793C70.6849 157.793 70.721 157.799 70.7548 157.813C70.7886 157.826 70.8195 157.846 70.8456 157.872C70.8716 157.897 70.8925 157.927 70.9069 157.961C70.9375 158.034 74.0831 165.31 80.7412 169.816C80.79 169.849 80.8269 169.897 80.8465 169.953C80.866 170.009 80.8673 170.07 80.8501 170.126C80.8328 170.183 80.798 170.232 80.7506 170.268C80.7032 170.303 80.6458 170.322 80.5867 170.322V170.325Z" fill="#2B4DBD"/>
<path d="M90.7181 160.034C90.6717 160.034 90.626 160.023 90.5853 160.001C90.5446 159.978 90.51 159.946 90.4848 159.907C90.4651 159.876 88.3863 156.638 84.428 149.546C83.2112 147.365 81.611 145.984 79.6735 145.441C76.4644 144.544 73.3725 146.265 73.3418 146.283C73.2784 146.315 73.2054 146.321 73.1377 146.3C73.07 146.279 73.0127 146.233 72.9777 146.172C72.9427 146.11 72.9325 146.038 72.9493 145.969C72.9661 145.9 73.0086 145.84 73.068 145.802C73.2016 145.726 76.3823 143.945 79.8181 144.908C81.8991 145.49 83.6186 146.959 84.911 149.275C88.854 156.35 90.935 159.577 90.9503 159.608C90.9769 159.65 90.9919 159.698 90.9936 159.748C90.9953 159.797 90.9837 159.846 90.9599 159.89C90.9362 159.933 90.9013 159.97 90.8588 159.995C90.8162 160.021 90.7676 160.034 90.7181 160.034Z" fill="#2B4DBD"/>
<defs>
<linearGradient id="paint0_linear" x1="174.362" y1="71.4054" x2="-73.8507" y2="388.828" gradientUnits="userSpaceOnUse">
<stop stop-color="white"/>
<stop offset="1" stop-color="white"/>
</linearGradient>
</defs>
</svg>
