<svg width="178" height="178" viewBox="0 0 178 178" fill="none" xmlns="http://www.w3.org/2000/svg">
<g clip-path="url(#clip0)">
<path d="M152.601 145.381C148.175 149.946 144.216 152.629 141.182 154.655C111.616 174.41 77.8168 168.716 67.3673 166.77C50.5081 163.63 36.277 161.415 24.0509 150.362C-3.73355 125.241 -2.38177 72.8417 18.8504 40.3824C21.368 36.5336 42.564 5.09037 76.4334 0.659572C77.2616 0.551046 77.8794 0.489678 78.4211 0.432186C83.6636 -0.12336 116.135 -3.05289 142.61 19.1437C146.4 22.3207 152.499 28.0518 158.155 36.7926C178.835 68.7533 178.901 118.254 152.601 145.381Z" fill="#FBE0D0"/>
<path d="M136.568 61.6777L151.649 58.1642C151.649 58.1642 161.732 57.2598 163.096 66.226C164.46 75.1923 164.064 128.328 163.638 139.287C163.497 142.898 163.514 146.236 163.821 149.146C164.461 155.207 159.735 160.501 153.645 160.607L125.568 161.093L136.568 61.6777Z" fill="#4AA29A"/>
<path d="M128.543 165.41C128.543 165.41 131.556 123.138 152.984 97.3697C153.264 97.0337 153.748 97.1184 153.896 97.5312C156.23 104.059 169.355 146.037 128.543 165.41Z" fill="#5BD595"/>
<path d="M152.059 109.636C151.879 112.102 151.522 114.536 151.108 116.965C150.68 119.39 150.178 121.804 149.587 124.196C148.416 128.99 146.923 133.7 145.118 138.293C144.204 140.585 143.233 142.857 142.149 145.076C141.623 146.193 141.035 147.281 140.47 148.379C139.872 149.46 139.288 150.549 138.641 151.602C136.132 155.855 133.194 159.864 129.841 163.472C129.794 163.521 129.73 163.55 129.663 163.554C129.595 163.557 129.529 163.535 129.477 163.491C129.425 163.447 129.392 163.386 129.385 163.318C129.377 163.251 129.395 163.183 129.435 163.129V163.126C132.419 159.272 135.095 155.19 137.44 150.917C138.041 149.859 138.576 148.766 139.148 147.693C139.68 146.599 140.235 145.518 140.731 144.407C140.98 143.851 141.248 143.308 141.49 142.748L142.224 141.077C142.465 140.518 142.691 139.954 142.925 139.392C143.159 138.831 143.383 138.265 143.601 137.697C144.053 136.568 144.475 135.425 144.9 134.285C145.306 133.137 145.711 131.989 146.091 130.831C146.872 128.524 147.567 126.187 148.237 123.843C148.894 121.495 149.504 119.131 150.052 116.753C150.611 114.377 151.107 111.979 151.528 109.582V109.574C151.54 109.507 151.576 109.447 151.631 109.406C151.686 109.365 151.754 109.347 151.822 109.355C151.89 109.364 151.952 109.398 151.995 109.451C152.038 109.504 152.059 109.571 152.054 109.639L152.059 109.636Z" fill="#4AA29A"/>
<path d="M131.199 160.786C131.199 160.786 153.289 123.604 177.323 123.022C177.422 123.019 177.521 123.04 177.612 123.081C177.703 123.123 177.783 123.184 177.847 123.261C177.911 123.338 177.956 123.428 177.98 123.525C178.004 123.622 178.006 123.723 177.985 123.821C176.962 128.68 169.806 154.12 131.199 160.786Z" fill="#5BD595"/>
<path d="M172.232 128.918C170.776 130.448 169.277 131.92 167.757 133.375C166.988 134.095 166.221 134.814 165.445 135.525C164.669 136.236 163.888 136.942 163.098 137.636C159.944 140.423 156.696 143.099 153.355 145.664C151.699 146.963 149.983 148.183 148.291 149.433L145.7 151.241C145.268 151.541 144.838 151.845 144.401 152.137L143.079 153.001C139.587 155.353 135.937 157.462 132.262 159.509C132.201 159.544 132.129 159.553 132.061 159.535C131.993 159.516 131.935 159.472 131.9 159.41C131.865 159.349 131.856 159.277 131.875 159.209C131.893 159.141 131.938 159.083 131.999 159.048L132.005 159.044L134.717 157.452L136.072 156.657C136.52 156.385 136.961 156.099 137.405 155.821L140.069 154.152C140.947 153.58 141.812 152.989 142.687 152.412L143.995 151.54L145.282 150.635L147.856 148.827C149.538 147.575 151.242 146.355 152.888 145.055C154.556 143.785 156.186 142.467 157.818 141.151L160.235 139.14L162.624 137.092C163.419 136.408 164.197 135.705 164.985 135.014C165.773 134.322 166.538 133.605 167.309 132.897C168.848 131.476 170.377 130.033 171.846 128.547L171.849 128.543C171.898 128.493 171.966 128.464 172.036 128.463C172.106 128.462 172.174 128.489 172.225 128.538C172.275 128.587 172.304 128.654 172.305 128.725C172.306 128.795 172.279 128.863 172.23 128.914L172.232 128.918Z" fill="#4AA29A"/>
<path d="M105.907 62.4056C105.907 62.4056 133.368 63.9159 151.648 58.1628C151.648 58.1628 139.496 57.3295 139.496 85.4058C139.496 106.871 142.677 147.843 139.9 155.62C137.122 163.397 126.736 173.853 111.847 164.867C96.9576 155.881 105.907 62.4056 105.907 62.4056Z" fill="#4AA29A"/>
<path opacity="0.3" d="M105.907 62.4056C105.907 62.4056 133.368 63.9159 151.648 58.1628C151.648 58.1628 139.496 57.3295 139.496 85.4058C139.496 106.871 142.677 147.843 139.9 155.62C137.122 163.397 126.736 173.853 111.847 164.867C96.9576 155.881 105.907 62.4056 105.907 62.4056Z" fill="#404040"/>
<path d="M98.6055 20.3152C98.6055 20.3152 128.904 23.6201 132.807 18.4813C132.807 18.4813 129.702 9.23275 120.481 9.84772C111.261 10.4627 98.6055 20.3152 98.6055 20.3152Z" fill="#4AA29A"/>
<path opacity="0.3" d="M98.6055 20.3133C98.6055 20.3133 128.904 23.6181 132.807 18.4793C132.807 18.4793 129.702 9.23079 120.481 9.84577C111.261 10.4607 98.6055 20.3133 98.6055 20.3133Z" fill="#404040"/>
<path d="M0.0642156 30.7194C2.71097 60.4314 8.25753 123.277 10.6719 153.891C10.9321 157.192 12.3727 160.289 14.7296 162.613C17.0866 164.937 20.2018 166.333 23.5041 166.545C47.8246 168.107 102.557 171.138 123.564 168.318C121.206 167.155 119.224 165.35 117.845 163.11C116.466 160.871 115.745 158.288 115.767 155.657L116.882 18.2849C116.921 13.4303 121.753 9.94266 126.295 11.6461C129.157 12.7191 131.324 15.0052 132.811 18.48C130.827 12.6971 127.711 8.46724 120.485 9.84641C120.485 9.84641 49.838 10.5531 15.5561 12.6803C6.23825 13.2585 -0.761442 21.4166 0.0642156 30.7194Z" fill="#4AA29A"/>
<path opacity="0.53" d="M17.5415 16.6139L112.47 12.957C108.555 41.9617 110.211 101.03 111.701 159.243C111.744 160.934 112.256 162.581 113.179 163.999C114.103 165.418 115.401 166.551 116.93 167.275C116.93 167.275 53.6135 168.005 26.4081 166.074C23.2984 165.851 20.3573 164.575 18.0698 162.455C15.7823 160.336 14.2848 157.499 13.8244 154.414C10.0912 129.473 1.1555 65.0427 3.01533 30.9315C3.44075 23.1203 9.72969 16.915 17.5415 16.6139Z" fill="url(#paint0_linear)"/>
<path d="M16.2869 61.6015L17.3947 72.2415C17.4927 73.185 17.9275 74.0615 18.6193 74.71C19.3111 75.3585 20.2135 75.7355 21.1608 75.7718L27.3516 76.0095C27.8814 76.03 28.4098 75.9432 28.9052 75.7543C29.4006 75.5654 29.8528 75.2784 30.2347 74.9105C30.6166 74.5425 30.9203 74.1012 31.1276 73.6129C31.3349 73.1247 31.4416 72.5995 31.4412 72.0691V60.5912C31.4412 60.0465 31.3284 59.5077 31.1099 59.0088C30.8913 58.5099 30.5717 58.0618 30.1714 57.6927C29.771 57.3236 29.2985 57.0416 28.7837 56.8645C28.269 56.6874 27.7231 56.619 27.1806 56.6637L19.8833 57.2651C19.3604 57.3077 18.8513 57.4546 18.3859 57.6969C17.9205 57.9392 17.5082 58.2721 17.1732 58.676C16.8382 59.08 16.5872 59.5469 16.435 60.0493C16.2828 60.5517 16.2324 61.0794 16.2869 61.6015Z" fill="white"/>
<path d="M38.0564 58.3226C48.36 57.9996 87.9142 56.7154 97.9021 56.3898C98.2009 56.3802 98.4986 56.4308 98.7774 56.5386C99.0563 56.6465 99.3106 56.8093 99.5253 57.0174C99.74 57.2256 99.9107 57.4748 100.027 57.7503C100.144 58.0258 100.204 58.3219 100.204 58.6211C100.203 59.1985 99.9788 59.7533 99.5783 60.1689C99.1777 60.5846 98.6318 60.8288 98.0551 60.8504L38.2481 63.0738C37.6923 63.0944 37.1487 62.9065 36.7241 62.5469C36.2994 62.1874 36.0243 61.6821 35.9526 61.1301L35.9151 60.8407C35.875 60.5318 35.8999 60.218 35.9882 59.9194C36.0766 59.6208 36.2264 59.3439 36.4281 59.1068C36.6298 58.8696 36.8789 58.6773 37.1593 58.5422C37.4398 58.4072 37.7453 58.3324 38.0564 58.3226Z" fill="white"/>
<path d="M37.4097 72.3499C37.4959 72.4947 37.6191 72.614 37.7666 72.6954C37.914 72.7768 38.0805 72.8174 38.2489 72.8131L79.3156 71.9203C79.5635 71.9149 79.7995 71.8126 79.973 71.6352C80.1466 71.4579 80.2438 71.2196 80.2439 70.9714V68.2621C80.2439 68.1344 80.2181 68.008 80.1682 67.8905C80.1183 67.773 80.0452 67.6668 79.9533 67.5782C79.8614 67.4896 79.7525 67.4205 79.6333 67.3749C79.5141 67.3294 79.3869 67.3084 79.2594 67.3132L39.338 68.8067C37.5563 68.8739 36.4988 70.8215 37.4097 72.3499Z" fill="white"/>
<path d="M16.2869 91.1335L17.3947 101.774C17.4928 102.717 17.9277 103.594 18.6195 104.242C19.3113 104.891 20.2136 105.267 21.1608 105.304L27.3516 105.541C27.8814 105.562 28.4098 105.475 28.9052 105.286C29.4006 105.097 29.8528 104.81 30.2347 104.442C30.6166 104.074 30.9203 103.633 31.1276 103.145C31.3349 102.657 31.4416 102.131 31.4412 101.601V90.1251C31.4413 89.5803 31.3286 89.0414 31.1101 88.5424C30.8915 88.0435 30.572 87.5953 30.1716 87.2261C29.7712 86.857 29.2987 86.5749 28.7839 86.3978C28.2691 86.2206 27.7231 86.1522 27.1806 86.1969L19.8833 86.797C19.3604 86.8397 18.8513 86.9865 18.3859 87.2288C17.9205 87.4711 17.5082 87.804 17.1732 88.208C16.8382 88.6119 16.5872 89.0788 16.435 89.5812C16.2828 90.0836 16.2324 90.6113 16.2869 91.1335Z" fill="white"/>
<path d="M38.0565 87.8532C48.3601 87.5302 87.9142 86.246 97.9022 85.9211C98.201 85.9114 98.4987 85.9619 98.7776 86.0697C99.0565 86.1775 99.3109 86.3403 99.5256 86.5485C99.7403 86.7567 99.911 87.0059 100.027 87.2815C100.144 87.557 100.204 87.8532 100.204 88.1523C100.203 88.73 99.9794 89.2851 99.5788 89.701C99.1782 90.117 98.6321 90.3614 98.0552 90.3829L38.2482 92.6051C37.6923 92.6257 37.1488 92.4378 36.7241 92.0782C36.2995 91.7187 36.0244 91.2133 35.9527 90.6613L35.9152 90.3719C35.875 90.0631 35.8998 89.7492 35.9881 89.4505C36.0764 89.1518 36.2262 88.8749 36.4279 88.6376C36.6296 88.4004 36.8787 88.208 37.1592 88.0729C37.4397 87.9378 37.7454 87.863 38.0565 87.8532Z" fill="white"/>
<path opacity="0.78" d="M37.4098 101.882C37.4961 102.026 37.6193 102.146 37.7668 102.227C37.9142 102.308 38.0807 102.349 38.249 102.344L79.3157 101.452C79.5636 101.446 79.7996 101.344 79.9731 101.166C80.1466 100.989 80.2438 100.751 80.244 100.503V97.7934C80.244 97.6657 80.2182 97.5393 80.1683 97.4218C80.1184 97.3043 80.0452 97.198 79.9533 97.1094C79.8614 97.0209 79.7526 96.9517 79.6334 96.9062C79.5142 96.8606 79.387 96.8396 79.2595 96.8444L39.3348 98.3379C37.5563 98.4045 36.4989 100.352 37.4098 101.882Z" fill="white"/>
<path d="M16.2869 120.665L17.3947 131.305C17.4928 132.248 17.9277 133.124 18.6195 133.773C19.3113 134.421 20.2136 134.798 21.1608 134.834L27.3516 135.072C27.8809 135.092 28.4089 135.005 28.9038 134.816C29.3987 134.627 29.8505 134.341 30.2321 133.973C30.6137 133.605 30.9172 133.164 31.1245 132.677C31.3318 132.189 31.4386 131.664 31.4386 131.134V119.656C31.4386 119.111 31.3258 118.572 31.1073 118.073C30.8887 117.574 30.5692 117.126 30.1688 116.757C29.7684 116.388 29.2959 116.106 28.7812 115.929C28.2664 115.752 27.7205 115.683 27.178 115.728L19.8833 116.328C19.3604 116.371 18.8513 116.518 18.3859 116.76C17.9205 117.002 17.5082 117.335 17.1732 117.739C16.8382 118.143 16.5872 118.61 16.435 119.112C16.2828 119.615 16.2324 120.143 16.2869 120.665Z" fill="white"/>
<path d="M38.0564 117.383C48.36 117.06 87.9142 115.775 97.9021 115.45C98.2009 115.441 98.4986 115.491 98.7774 115.599C99.0563 115.707 99.3106 115.87 99.5253 116.078C99.74 116.286 99.9107 116.535 100.027 116.811C100.144 117.086 100.204 117.382 100.204 117.682C100.203 118.259 99.9796 118.815 99.5789 119.231C99.1783 119.647 98.6321 119.891 98.0551 119.913L38.2481 122.134C37.6923 122.155 37.1487 121.967 36.7241 121.607C36.2994 121.248 36.0243 120.743 35.9526 120.191L35.9151 119.901C35.875 119.592 35.8999 119.279 35.9882 118.98C36.0766 118.681 36.2264 118.404 36.4281 118.167C36.6298 117.93 36.8789 117.738 37.1593 117.603C37.4398 117.468 37.7453 117.393 38.0564 117.383Z" fill="white"/>
<path d="M37.4097 131.411C37.496 131.556 37.6192 131.675 37.7667 131.756C37.9141 131.838 38.0806 131.879 38.249 131.874L79.3156 130.982C79.5629 130.976 79.7982 130.874 79.9713 130.697C80.1445 130.52 80.2418 130.283 80.2426 130.035V127.322C80.2426 127.194 80.2169 127.068 80.1669 126.951C80.117 126.833 80.0439 126.727 79.952 126.638C79.86 126.55 79.7512 126.481 79.632 126.435C79.5128 126.39 79.3856 126.369 79.2581 126.374L39.3367 127.867C37.5563 127.934 36.4989 129.882 37.4097 131.411Z" fill="white"/>
<g style="mix-blend-mode:soft-light">
<path d="M135.929 123.781C135.808 123.781 135.692 123.733 135.606 123.649C135.52 123.564 135.47 123.449 135.467 123.329C135.467 123.315 135.439 121.858 135.299 116.864C135.298 116.744 135.345 116.628 135.429 116.541C135.513 116.454 135.628 116.404 135.748 116.401C135.869 116.397 135.986 116.441 136.074 116.523C136.163 116.605 136.216 116.718 136.223 116.839C136.363 121.838 136.391 123.298 136.392 123.311C136.394 123.434 136.347 123.552 136.263 123.64C136.178 123.729 136.062 123.78 135.94 123.783L135.929 123.781Z" fill="white"/>
</g>
<g style="mix-blend-mode:soft-light">
<path d="M135.593 111.593C135.473 111.592 135.358 111.545 135.272 111.462C135.186 111.378 135.136 111.264 135.132 111.144C135.032 107.894 134.877 104.301 134.713 100.497C134.493 95.3572 134.261 90.0427 134.142 84.9226C133.823 71.4106 136.05 66.224 137.975 64.2511C139.021 63.1794 139.898 63.1484 139.994 63.1484C140.114 63.1515 140.228 63.2009 140.312 63.2862C140.396 63.3715 140.443 63.4862 140.444 63.606C140.446 63.7258 140.4 63.8414 140.318 63.9284C140.236 64.0155 140.123 64.0673 140.004 64.0728C139.898 64.0806 134.588 64.6646 135.066 84.9C135.187 90.011 135.416 95.321 135.637 100.457C135.801 104.263 135.956 107.86 136.055 111.115C136.057 111.176 136.047 111.236 136.026 111.293C136.004 111.35 135.972 111.402 135.93 111.446C135.889 111.49 135.839 111.526 135.784 111.551C135.728 111.576 135.669 111.59 135.608 111.591L135.593 111.593Z" fill="white"/>
</g>
<path d="M68.6212 161.427C68.1532 161.427 67.6839 161.205 67.1888 160.75C65.3683 159.077 64.8984 156.505 64.7705 154.059C63.9313 155 63.0715 155.916 62.2219 156.822L61.752 156.38C62.7493 155.316 63.7603 154.238 64.7363 153.125C64.6561 149.763 64.8095 146.399 65.1953 143.059C65.4322 141.017 65.7724 138.856 66.6575 136.885C66.9389 136.257 67.407 135.356 68.212 134.793C69.0512 134.205 70.1525 134.142 70.8897 134.637C71.7179 135.194 71.9413 136.252 72.0368 136.995C72.5998 141.376 70.8916 145.393 69.3597 147.989C68.2223 149.917 66.846 151.681 65.3877 153.359C65.4632 155.863 65.8099 158.606 67.6252 160.271C68.0073 160.623 68.3404 160.788 68.6522 160.778C69.1635 160.76 69.5773 160.261 69.9149 159.779C71.4423 157.594 72.6426 155.197 73.4777 152.665C73.5749 151.902 73.7887 151.159 74.1116 150.461L74.7172 150.673C74.5416 151.395 74.3391 152.107 74.1097 152.808C74.0235 153.526 74.0514 154.253 74.1923 154.962C74.2679 155.338 74.5855 156.581 75.5022 156.756C76.1864 156.886 76.8998 156.369 77.6873 155.17L80.9151 150.261L80.5071 152.019C80.3631 152.639 80.1198 154.121 80.9874 154.477C81.4806 154.68 82.0009 154.387 82.6013 154.046C83.2016 153.706 83.8201 153.358 84.5244 153.453L84.8568 153.497L84.8 153.828C84.7671 154.017 84.5063 155.679 85.3681 155.869C85.7625 155.957 86.0924 155.683 86.5895 155.223C86.9807 154.862 87.3848 154.488 87.9161 154.359L88.0678 154.986C87.6992 155.075 87.3725 155.377 87.0272 155.697C86.5372 156.149 85.982 156.666 85.2287 156.499C84.2474 156.282 84.0066 155.176 84.1131 154.096C83.7258 154.152 83.3307 154.375 82.9176 154.608C82.263 154.977 81.5206 155.395 80.7395 155.074C80.0939 154.808 79.7454 154.169 79.7189 153.25L78.2231 155.525C77.6196 156.443 76.6693 157.637 75.3789 157.39C74.4938 157.221 73.8121 156.361 73.5578 155.089C73.5225 154.912 73.4934 154.733 73.4706 154.554C72.6759 156.527 71.6595 158.404 70.441 160.148C70.0376 160.726 69.4727 161.393 68.6729 161.422L68.6212 161.427ZM69.7432 134.947C69.3272 134.954 68.9228 135.085 68.5812 135.323C67.9073 135.795 67.496 136.593 67.2456 137.151C66.3967 139.042 66.0668 141.144 65.8363 143.134C65.4808 146.208 65.3241 149.301 65.367 152.394C66.6304 150.904 67.813 149.343 68.8046 147.662C70.2848 145.153 71.9368 141.277 71.3971 137.078C71.268 136.092 70.9943 135.487 70.5295 135.174C70.2961 135.021 70.0222 134.942 69.7432 134.947Z" fill="#213782"/>
<path opacity="0.78" d="M96.9148 45.0296L21.2919 47.275C19.9859 47.3136 18.7169 46.8382 17.7574 45.9507C16.798 45.0633 16.2246 43.8348 16.1604 42.5289L15.8809 36.8682C15.8487 36.2042 15.9493 35.5404 16.1769 34.9158C16.4045 34.2912 16.7545 33.7184 17.2064 33.231C17.6582 32.7436 18.2028 32.3514 18.8081 32.0775C19.4135 31.8036 20.0674 31.6534 20.7315 31.6357L96.7308 29.6248C97.4045 29.607 98.0747 29.7259 98.7012 29.9744C99.3276 30.2229 99.8973 30.5959 100.376 31.0707C100.854 31.5456 101.232 32.1125 101.485 32.7373C101.739 33.3621 101.863 34.0319 101.851 34.7061L101.753 40.1324C101.729 41.4141 101.213 42.6375 100.312 43.5492C99.4119 44.4609 98.1953 44.991 96.9148 45.0296Z" fill="white"/>
<path d="M73.0935 104.649C73.0935 104.649 70.5713 102.994 70.2221 103.376C70.0975 103.511 69.8076 103.973 69.5371 104.474C69.4437 104.647 69.4077 104.845 69.4343 105.04C69.4609 105.234 69.5487 105.415 69.685 105.557L70.3357 106.229C70.4813 106.381 70.6577 106.5 70.853 106.577C71.0484 106.655 71.2581 106.69 71.468 106.68C71.6779 106.669 71.8831 106.614 72.0699 106.517C72.2567 106.421 72.4206 106.286 72.5506 106.12C72.8748 105.696 73.064 105.183 73.0935 104.649Z" fill="#FBE0D0"/>
<path d="M75.6657 101.506C75.6657 101.506 74.8 99.2233 73.7865 99.4346C72.773 99.6458 71.6691 100.42 71.6691 100.42L70.0449 102.617C70.0449 102.617 74.6044 104.414 76.208 103.384C76.208 103.384 80.8656 104.19 86.7466 103.224C85.8951 101.425 85.3909 99.6245 85.0901 98.2266C82.1141 99.9158 78.9051 101.176 75.6657 101.506Z" fill="#FBE0D0"/>
<path d="M100.335 84.9688C100.335 84.9688 93.6686 93.373 85.0918 98.2302C85.3894 99.6281 85.8968 101.428 86.7483 103.227C91.1968 102.497 96.345 100.753 100.71 96.88L100.335 84.9688Z" fill="#213782"/>
<path d="M108.65 122.217C107.346 116.016 106.042 112.431 101.678 100.682C100.305 96.9851 99.0567 93.2442 99.6597 89.3457L100.337 84.9679C100.337 84.9679 108.823 82.0946 118.228 84.8471C118.228 84.8471 131.061 90.4252 122.345 117.976C118.414 122.375 113.815 123.629 108.65 122.217Z" fill="#213782"/>
<path d="M101.779 79.3803L103.979 84.6702C104.048 84.8343 104.157 84.9784 104.296 85.089C104.435 85.1997 104.6 85.2734 104.775 85.3033C106.044 85.521 109.112 85.8614 111.127 84.5352C111.184 84.4975 111.233 84.4488 111.271 84.3919C111.308 84.3351 111.334 84.2712 111.347 84.2041C111.36 84.1369 111.359 84.0679 111.345 84.0011C111.331 83.9343 111.303 83.871 111.264 83.8149L107.197 77.9746L101.779 79.3803Z" fill="#FBE0D0"/>
<path d="M104.056 71.287C103.964 71.3742 100.156 78.8559 100.156 78.8559L104.472 80.9405L109.133 74.3857C109.133 74.3857 105.603 69.8316 104.056 71.287Z" fill="#FBE0D0"/>
<path d="M107.172 75.1722L105.019 78.7625C104.987 78.8167 104.947 78.866 104.901 78.9092C104.643 79.1482 103.768 79.842 103.094 78.8969C102.513 78.0914 101.974 77.3595 101.393 77.0571C101.312 77.0158 101.224 76.9909 101.133 76.9839C101.043 76.9769 100.952 76.9879 100.865 77.0164C100.779 77.0449 100.699 77.0902 100.63 77.1498C100.562 77.2093 100.505 77.2819 100.465 77.3633C100.11 78.0668 99.423 79.5002 98.9918 80.8594C98.9407 81.0238 98.9534 81.2015 99.0272 81.3571C99.1009 81.5127 99.2305 81.6348 99.3901 81.6992C100.264 82.0532 101.992 82.694 103.522 82.9059C103.645 82.9229 103.771 82.9062 103.885 82.8573C104 82.8085 104.099 82.7295 104.172 82.6287C104.831 81.7244 106.69 79.1992 107.324 78.5668C107.913 77.9796 109.002 78.2005 109.491 78.342C109.583 78.3684 109.679 78.3757 109.774 78.3632C109.868 78.3508 109.959 78.3189 110.041 78.2697C110.538 77.9699 111.406 77.2238 110.612 75.9603C110.519 75.8071 110.489 75.6236 110.529 75.4487C110.569 75.2738 110.675 75.1213 110.825 75.0236C111.381 74.658 111.983 73.9726 111.406 72.8615C110.825 71.7375 109.788 71.6341 109.082 71.7226C108.929 71.7436 108.773 71.7143 108.638 71.6391C108.503 71.5638 108.395 71.4467 108.332 71.3053C108.303 71.2316 108.254 71.167 108.192 71.1179C108.13 71.0688 108.056 71.037 107.977 71.0256C107.89 71.0102 107.806 70.9776 107.732 70.9297C107.657 70.8817 107.593 70.8193 107.542 70.7462C107.492 70.6731 107.457 70.5907 107.438 70.5038C107.42 70.4169 107.419 70.3273 107.436 70.2401C107.561 69.6038 107.467 68.7776 106.452 68.2188C104.59 67.1943 102.959 68.8648 102.544 70.2724C102.13 71.68 104.211 72.6774 105.521 72.8441C106.483 72.9661 107.01 74.0165 107.223 74.5656C107.261 74.6639 107.276 74.7697 107.267 74.8748C107.258 74.9799 107.226 75.0817 107.172 75.1722Z" fill="#213782"/>
<path d="M106.416 79.6432C106.416 79.6432 107.342 77.4623 108.402 77.5515C109.462 77.6406 110.296 78.6968 108.983 79.8848C107.349 81.3621 106.416 79.6432 106.416 79.6432Z" fill="#FBE0D0"/>
<path d="M107.816 176.842C109.866 177.019 113.423 177.307 116.227 177.431C117.912 177.505 118.883 177.34 119.441 177.116C119.441 177.18 119.441 177.238 119.436 177.294C119.428 177.437 119.368 177.572 119.266 177.673C119.164 177.775 119.029 177.835 118.886 177.842C115.218 178.051 111.541 178.055 107.873 177.853C107.802 177.849 107.734 177.828 107.674 177.79C107.613 177.752 107.564 177.7 107.53 177.637C107.497 177.575 107.479 177.505 107.481 177.434C107.482 177.363 107.501 177.293 107.537 177.232C107.621 177.095 107.714 176.965 107.816 176.842Z" fill="#213782"/>
<path d="M116.225 177.431C113.421 177.307 109.864 177.02 107.814 176.842C109.829 174.368 116.225 172.701 116.225 172.701H118.032C119.275 174.493 119.452 176.199 119.441 177.116C118.881 177.34 117.91 177.505 116.225 177.431Z" fill="#213782"/>
<path d="M118.335 169.75L118.166 173.097C118.157 173.274 118.088 173.442 117.968 173.573C117.849 173.704 117.689 173.79 117.513 173.816C117.059 173.884 116.595 173.845 116.158 173.703C116.003 173.653 115.865 173.562 115.758 173.439C115.651 173.317 115.579 173.168 115.55 173.008L114.969 169.75H118.335Z" fill="#FBE0D0"/>
<path d="M141.797 177.406C142.686 177.282 143.088 176.82 143.256 176.326C143.256 176.331 143.256 176.335 143.256 176.34C143.385 176.86 143.084 177.4 142.482 177.657C141.749 177.968 140.948 178.021 140.326 177.995C139.659 177.968 139.047 177.691 138.712 177.249L138.707 177.242C139.373 177.574 140.314 177.613 141.797 177.406Z" fill="#213782"/>
<path d="M137.607 169.729H139.097C141.366 169.682 142.79 174.471 143.257 176.326C143.088 176.82 142.686 177.282 141.797 177.406C140.312 177.612 139.375 177.574 138.705 177.242C137.479 175.627 136.872 173.264 136.58 171.884C136.248 170.315 137.607 169.729 137.607 169.729Z" fill="#213782"/>
<path d="M138.905 166.621L139.733 169.916C139.781 170.112 139.762 170.319 139.677 170.503C139.593 170.687 139.449 170.837 139.268 170.928C138.805 171.166 138.154 171.416 137.555 171.343C137.417 171.325 137.287 171.269 137.18 171.181C137.073 171.093 136.992 170.977 136.947 170.845L135.732 167.381L138.905 166.621Z" fill="#FBE0D0"/>
<path d="M139.892 167.573C138.859 168.487 135.515 168.607 135.515 168.607C123.457 139.648 118.43 131.676 118.43 131.676C120.173 142.607 118.805 170.663 118.805 170.663C116.816 171.542 114.25 170.663 114.25 170.663C114.089 152.769 111.571 133.54 108.324 121.237C116.474 121.053 120.903 119.276 122.318 118.156C129.111 129.116 139.892 167.573 139.892 167.573Z" fill="#213782"/>
<path d="M106.271 129.328L107.771 138.661C107.899 139.446 108.325 140.15 108.961 140.627C109.597 141.104 110.393 141.315 111.182 141.217L133.628 138.478C134.158 138.414 134.647 138.161 135.006 137.766C135.365 137.37 135.569 136.859 135.581 136.324C135.629 133.913 135.534 129.621 134.523 125.711L106.271 129.328Z" fill="#E2581D"/>
<path d="M111.937 140.591C111.919 140.591 111.902 140.585 111.888 140.573C111.875 140.561 111.866 140.545 111.864 140.527C111.863 140.517 111.863 140.507 111.866 140.498C111.868 140.489 111.873 140.48 111.879 140.472C111.885 140.465 111.892 140.458 111.901 140.453C111.909 140.449 111.919 140.446 111.928 140.445L112.518 140.37C112.528 140.369 112.538 140.37 112.547 140.372C112.557 140.375 112.566 140.379 112.573 140.385C112.581 140.391 112.587 140.399 112.592 140.407C112.597 140.416 112.6 140.425 112.601 140.435C112.603 140.455 112.598 140.474 112.586 140.49C112.574 140.505 112.556 140.515 112.536 140.518L111.95 140.589L111.937 140.591ZM110.569 140.566C110.563 140.566 110.557 140.566 110.551 140.566C110.356 140.517 110.165 140.449 109.983 140.362C109.966 140.353 109.953 140.338 109.947 140.32C109.94 140.301 109.942 140.281 109.95 140.264C109.959 140.247 109.973 140.233 109.991 140.226C110.01 140.22 110.03 140.22 110.047 140.228C110.221 140.311 110.402 140.376 110.588 140.422C110.605 140.427 110.62 140.437 110.63 140.452C110.64 140.467 110.645 140.485 110.643 140.503C110.64 140.52 110.632 140.537 110.619 140.549C110.606 140.561 110.589 140.568 110.571 140.568L110.569 140.566ZM113.891 140.352C113.872 140.354 113.853 140.347 113.838 140.334C113.823 140.321 113.815 140.303 113.813 140.283C113.812 140.264 113.819 140.245 113.832 140.23C113.845 140.215 113.863 140.206 113.882 140.205L114.469 140.134C114.479 140.133 114.489 140.133 114.498 140.136C114.507 140.139 114.516 140.143 114.524 140.149C114.531 140.155 114.538 140.163 114.543 140.171C114.547 140.18 114.55 140.189 114.551 140.199C114.554 140.218 114.548 140.238 114.536 140.253C114.524 140.269 114.506 140.279 114.487 140.281L113.9 140.352H113.891ZM115.846 140.114C115.826 140.115 115.807 140.109 115.792 140.096C115.778 140.083 115.769 140.064 115.767 140.045C115.766 140.025 115.773 140.006 115.786 139.991C115.799 139.977 115.817 139.968 115.836 139.967L116.423 139.895C116.433 139.894 116.443 139.894 116.452 139.897C116.462 139.899 116.471 139.904 116.478 139.91C116.486 139.916 116.492 139.923 116.497 139.932C116.502 139.94 116.504 139.95 116.505 139.96C116.507 139.969 116.506 139.979 116.503 139.988C116.501 139.998 116.496 140.007 116.49 140.014C116.484 140.022 116.477 140.028 116.468 140.033C116.46 140.038 116.45 140.041 116.441 140.042L115.854 140.113L115.846 140.114ZM117.8 139.876C117.782 139.876 117.765 139.869 117.751 139.857C117.738 139.845 117.729 139.829 117.727 139.811C117.725 139.801 117.726 139.792 117.729 139.782C117.731 139.773 117.736 139.764 117.742 139.756C117.748 139.749 117.755 139.742 117.764 139.738C117.772 139.733 117.782 139.73 117.791 139.729L118.377 139.657C118.397 139.655 118.416 139.66 118.432 139.672C118.447 139.684 118.457 139.702 118.46 139.722C118.462 139.741 118.457 139.761 118.445 139.776C118.433 139.792 118.415 139.802 118.395 139.804L117.809 139.876H117.8ZM119.754 139.637C119.736 139.637 119.719 139.631 119.705 139.619C119.692 139.607 119.683 139.591 119.681 139.573C119.68 139.563 119.68 139.553 119.683 139.544C119.686 139.535 119.69 139.526 119.696 139.518C119.702 139.511 119.709 139.504 119.718 139.499C119.726 139.495 119.736 139.492 119.745 139.491L120.331 139.419C120.341 139.417 120.351 139.418 120.36 139.421C120.37 139.423 120.379 139.427 120.386 139.433C120.394 139.44 120.4 139.447 120.405 139.456C120.41 139.464 120.413 139.474 120.413 139.484C120.416 139.503 120.41 139.523 120.398 139.538C120.386 139.554 120.368 139.564 120.349 139.566L119.763 139.638L119.754 139.637ZM108.952 139.508C108.94 139.508 108.929 139.506 108.919 139.501C108.909 139.495 108.9 139.488 108.893 139.479C108.769 139.318 108.662 139.145 108.575 138.962C108.57 138.954 108.568 138.944 108.567 138.935C108.567 138.925 108.568 138.915 108.571 138.906C108.574 138.897 108.579 138.889 108.585 138.881C108.592 138.874 108.6 138.868 108.608 138.864C108.626 138.855 108.646 138.854 108.665 138.861C108.683 138.867 108.698 138.88 108.707 138.898C108.791 139.071 108.892 139.234 109.01 139.387C109.016 139.394 109.02 139.403 109.023 139.412C109.025 139.422 109.026 139.432 109.025 139.441C109.023 139.451 109.02 139.46 109.015 139.468C109.011 139.477 109.004 139.484 108.996 139.49C108.984 139.501 108.969 139.508 108.953 139.509L108.952 139.508ZM121.708 139.397C121.69 139.397 121.673 139.391 121.66 139.379C121.646 139.367 121.638 139.35 121.635 139.332C121.633 139.313 121.639 139.293 121.651 139.278C121.663 139.262 121.681 139.252 121.7 139.25L122.286 139.178C122.296 139.177 122.306 139.177 122.315 139.18C122.325 139.182 122.334 139.186 122.341 139.193C122.349 139.199 122.356 139.206 122.36 139.215C122.365 139.223 122.368 139.233 122.369 139.243C122.37 139.252 122.369 139.262 122.367 139.271C122.364 139.281 122.36 139.289 122.354 139.297C122.348 139.305 122.34 139.311 122.332 139.316C122.323 139.32 122.314 139.323 122.304 139.325L121.718 139.396L121.708 139.397ZM123.662 139.159C123.643 139.16 123.624 139.153 123.609 139.14C123.594 139.127 123.586 139.109 123.584 139.089C123.583 139.07 123.59 139.051 123.603 139.036C123.616 139.021 123.634 139.013 123.653 139.011L124.24 138.94C124.26 138.938 124.279 138.943 124.294 138.955C124.31 138.967 124.32 138.985 124.322 139.004C124.324 139.014 124.323 139.024 124.32 139.033C124.318 139.042 124.313 139.051 124.307 139.059C124.301 139.066 124.294 139.073 124.285 139.078C124.277 139.082 124.267 139.085 124.258 139.086L123.672 139.158L123.662 139.159ZM125.617 138.92C125.597 138.921 125.578 138.915 125.563 138.902C125.549 138.889 125.54 138.87 125.539 138.851C125.538 138.831 125.544 138.812 125.557 138.797C125.57 138.783 125.589 138.774 125.608 138.773L126.194 138.701C126.204 138.7 126.214 138.7 126.223 138.703C126.233 138.706 126.241 138.71 126.249 138.716C126.257 138.722 126.263 138.73 126.268 138.738C126.272 138.747 126.275 138.756 126.276 138.766C126.278 138.775 126.277 138.785 126.274 138.795C126.272 138.804 126.267 138.813 126.261 138.82C126.255 138.828 126.248 138.834 126.239 138.839C126.231 138.844 126.221 138.847 126.212 138.848L125.625 138.92L125.617 138.92ZM127.571 138.681C127.553 138.681 127.535 138.674 127.521 138.661C127.508 138.648 127.5 138.631 127.499 138.612C127.497 138.594 127.503 138.575 127.515 138.561C127.527 138.546 127.544 138.537 127.562 138.535L128.148 138.463C128.158 138.461 128.168 138.462 128.177 138.464C128.187 138.467 128.196 138.471 128.204 138.477C128.211 138.483 128.218 138.491 128.222 138.5C128.227 138.508 128.23 138.518 128.23 138.527C128.233 138.547 128.227 138.567 128.215 138.582C128.203 138.598 128.185 138.608 128.166 138.61L127.58 138.681H127.571ZM129.525 138.443C129.506 138.444 129.487 138.437 129.472 138.424C129.457 138.411 129.448 138.393 129.447 138.374C129.446 138.354 129.453 138.335 129.466 138.32C129.479 138.306 129.497 138.297 129.516 138.296L130.103 138.224C130.112 138.223 130.122 138.224 130.132 138.226C130.141 138.229 130.15 138.233 130.158 138.239C130.165 138.245 130.172 138.253 130.176 138.261C130.181 138.27 130.184 138.279 130.185 138.289C130.188 138.309 130.182 138.328 130.17 138.344C130.158 138.359 130.14 138.369 130.121 138.372L129.534 138.443H129.525ZM131.479 138.204C131.46 138.206 131.441 138.199 131.426 138.186C131.411 138.173 131.403 138.155 131.401 138.135C131.4 138.116 131.407 138.097 131.42 138.082C131.433 138.067 131.451 138.058 131.47 138.057L132.057 137.985C132.066 137.984 132.076 137.985 132.086 137.987C132.095 137.99 132.104 137.994 132.112 138C132.119 138.006 132.126 138.014 132.13 138.022C132.135 138.031 132.138 138.04 132.139 138.05C132.14 138.06 132.14 138.069 132.137 138.079C132.134 138.088 132.13 138.097 132.124 138.105C132.118 138.112 132.111 138.119 132.102 138.123C132.094 138.128 132.084 138.131 132.075 138.132L131.489 138.204L131.479 138.204ZM133.425 137.92C133.407 137.921 133.39 137.915 133.376 137.904C133.362 137.892 133.353 137.876 133.35 137.859C133.347 137.841 133.351 137.823 133.36 137.808C133.37 137.793 133.384 137.781 133.401 137.776C133.581 137.714 133.751 137.627 133.907 137.518C133.923 137.509 133.942 137.506 133.961 137.51C133.979 137.514 133.995 137.524 134.005 137.54C134.016 137.555 134.02 137.574 134.018 137.592C134.016 137.611 134.006 137.627 133.992 137.639C133.825 137.756 133.642 137.849 133.449 137.916C133.442 137.919 133.434 137.921 133.426 137.922L133.425 137.92ZM108.302 137.677C108.284 137.677 108.266 137.67 108.253 137.658C108.24 137.646 108.231 137.63 108.229 137.612L108.135 137.031C108.134 137.021 108.134 137.011 108.136 137.002C108.138 136.992 108.143 136.984 108.148 136.976C108.154 136.968 108.161 136.961 108.169 136.956C108.178 136.951 108.187 136.948 108.196 136.946C108.206 136.945 108.216 136.945 108.225 136.947C108.235 136.949 108.244 136.954 108.251 136.959C108.259 136.965 108.266 136.972 108.271 136.98C108.276 136.989 108.279 136.998 108.281 137.007L108.375 137.589C108.376 137.598 108.376 137.608 108.374 137.618C108.371 137.627 108.367 137.636 108.362 137.644C108.356 137.652 108.349 137.658 108.34 137.664C108.332 137.669 108.323 137.672 108.313 137.673L108.302 137.677ZM134.751 136.562C134.744 136.563 134.736 136.563 134.729 136.562C134.71 136.556 134.695 136.543 134.686 136.525C134.677 136.508 134.675 136.487 134.681 136.469C134.738 136.287 134.77 136.099 134.774 135.909C134.775 135.889 134.783 135.871 134.796 135.857C134.81 135.844 134.829 135.836 134.848 135.836C134.858 135.837 134.867 135.839 134.876 135.843C134.885 135.847 134.893 135.852 134.899 135.859C134.906 135.866 134.911 135.875 134.915 135.884C134.918 135.893 134.92 135.902 134.92 135.912C134.915 136.116 134.882 136.319 134.82 136.513C134.815 136.527 134.806 136.54 134.794 136.549C134.782 136.558 134.767 136.563 134.752 136.563L134.751 136.562ZM107.989 135.732C107.971 135.731 107.954 135.725 107.941 135.713C107.928 135.701 107.919 135.685 107.917 135.667L107.823 135.086C107.82 135.066 107.824 135.046 107.836 135.031C107.847 135.015 107.865 135.004 107.884 135.001C107.903 134.998 107.923 135.003 107.939 135.014C107.955 135.026 107.965 135.043 107.969 135.062L108.062 135.644C108.064 135.653 108.063 135.663 108.061 135.673C108.059 135.682 108.055 135.691 108.049 135.699C108.044 135.707 108.037 135.713 108.028 135.718C108.02 135.723 108.011 135.727 108.001 135.728L107.989 135.732ZM134.854 134.603C134.835 134.603 134.816 134.595 134.803 134.582C134.789 134.568 134.781 134.55 134.781 134.53C134.781 134.336 134.776 134.143 134.772 133.94C134.771 133.92 134.779 133.901 134.792 133.887C134.806 133.873 134.825 133.865 134.844 133.864C134.854 133.863 134.864 133.864 134.873 133.867C134.883 133.871 134.891 133.876 134.899 133.883C134.906 133.89 134.911 133.898 134.915 133.907C134.919 133.917 134.92 133.927 134.92 133.936C134.924 134.14 134.927 134.338 134.929 134.529C134.929 134.548 134.921 134.567 134.907 134.581C134.893 134.595 134.875 134.603 134.855 134.603H134.854ZM107.677 133.788C107.659 133.788 107.642 133.781 107.628 133.769C107.615 133.757 107.606 133.741 107.604 133.723L107.51 133.142C107.507 133.123 107.512 133.103 107.523 133.087C107.535 133.071 107.552 133.06 107.572 133.057C107.591 133.054 107.611 133.059 107.627 133.07C107.642 133.082 107.653 133.099 107.656 133.119L107.75 133.7C107.751 133.71 107.751 133.72 107.748 133.73C107.746 133.739 107.742 133.748 107.735 133.756C107.729 133.764 107.722 133.771 107.713 133.776C107.705 133.78 107.695 133.784 107.685 133.785L107.677 133.788ZM134.798 132.633C134.779 132.634 134.761 132.627 134.747 132.614C134.733 132.601 134.725 132.583 134.724 132.564C134.714 132.37 134.703 132.174 134.69 131.975C134.69 131.965 134.691 131.955 134.694 131.946C134.697 131.937 134.702 131.928 134.709 131.921C134.715 131.913 134.723 131.907 134.732 131.903C134.74 131.899 134.75 131.896 134.76 131.896C134.809 131.896 134.835 131.924 134.838 131.965C134.851 132.165 134.862 132.362 134.872 132.556C134.872 132.566 134.871 132.575 134.868 132.585C134.864 132.594 134.859 132.602 134.853 132.609C134.846 132.617 134.838 132.622 134.83 132.627C134.821 132.631 134.811 132.633 134.801 132.633H134.798ZM107.362 131.843C107.344 131.843 107.327 131.836 107.314 131.824C107.3 131.812 107.292 131.796 107.289 131.778L107.196 131.197C107.194 131.187 107.195 131.177 107.197 131.168C107.199 131.159 107.203 131.15 107.209 131.142C107.215 131.134 107.222 131.127 107.23 131.122C107.238 131.117 107.248 131.114 107.257 131.112C107.267 131.111 107.276 131.111 107.286 131.113C107.295 131.116 107.304 131.12 107.312 131.125C107.32 131.131 107.327 131.138 107.332 131.147C107.337 131.155 107.34 131.164 107.342 131.174L107.435 131.755C107.437 131.765 107.436 131.775 107.434 131.784C107.431 131.794 107.427 131.803 107.421 131.811C107.415 131.819 107.407 131.826 107.399 131.83C107.39 131.835 107.381 131.838 107.371 131.84L107.362 131.843ZM134.652 130.668C134.634 130.668 134.617 130.662 134.604 130.65C134.59 130.638 134.581 130.622 134.579 130.604C134.56 130.41 134.54 130.216 134.514 130.017C134.512 129.998 134.518 129.978 134.53 129.963C134.542 129.948 134.56 129.938 134.579 129.936C134.599 129.933 134.618 129.939 134.633 129.951C134.649 129.963 134.659 129.981 134.661 130C134.684 130.198 134.705 130.395 134.725 130.59C134.727 130.609 134.722 130.628 134.71 130.643C134.697 130.658 134.68 130.668 134.661 130.67L134.652 130.668ZM107.05 129.898C107.032 129.898 107.015 129.891 107.001 129.879C106.988 129.867 106.979 129.851 106.977 129.833L106.871 129.174L107.412 129.105C107.422 129.104 107.432 129.104 107.441 129.107C107.451 129.109 107.459 129.114 107.467 129.12C107.475 129.126 107.481 129.133 107.486 129.142C107.491 129.151 107.494 129.16 107.495 129.17C107.497 129.189 107.492 129.209 107.479 129.224C107.467 129.24 107.45 129.25 107.43 129.252L107.043 129.302L107.124 129.811C107.126 129.82 107.125 129.83 107.123 129.84C107.12 129.85 107.116 129.859 107.11 129.867C107.104 129.875 107.096 129.881 107.088 129.886C107.079 129.891 107.069 129.894 107.06 129.895L107.05 129.898ZM108.788 129.079C108.769 129.081 108.75 129.074 108.735 129.061C108.72 129.048 108.711 129.03 108.71 129.01C108.709 128.991 108.715 128.972 108.728 128.957C108.741 128.942 108.759 128.933 108.779 128.932L109.365 128.857C109.375 128.855 109.385 128.856 109.394 128.858C109.404 128.86 109.413 128.865 109.421 128.871C109.428 128.877 109.435 128.885 109.439 128.893C109.444 128.902 109.447 128.912 109.447 128.922C109.45 128.941 109.444 128.961 109.432 128.976C109.42 128.992 109.402 129.002 109.383 129.004L108.797 129.079H108.788ZM110.741 128.829C110.723 128.828 110.706 128.821 110.693 128.808C110.68 128.795 110.672 128.778 110.671 128.76C110.67 128.742 110.675 128.724 110.686 128.709C110.697 128.695 110.714 128.685 110.731 128.682L111.318 128.607C111.327 128.605 111.337 128.606 111.347 128.608C111.357 128.61 111.366 128.615 111.373 128.621C111.381 128.627 111.388 128.635 111.392 128.643C111.397 128.652 111.4 128.662 111.4 128.672C111.402 128.681 111.401 128.691 111.398 128.701C111.396 128.71 111.391 128.719 111.385 128.727C111.379 128.734 111.372 128.741 111.363 128.745C111.355 128.75 111.345 128.753 111.336 128.754L110.75 128.829H110.741ZM134.412 128.713C134.394 128.713 134.377 128.706 134.363 128.694C134.35 128.682 134.341 128.666 134.339 128.648C134.31 128.455 134.278 128.261 134.245 128.067C134.242 128.048 134.247 128.028 134.258 128.012C134.269 127.996 134.286 127.985 134.306 127.982C134.315 127.98 134.325 127.98 134.335 127.983C134.344 127.985 134.353 127.989 134.361 127.994C134.369 128 134.376 128.007 134.381 128.015C134.386 128.024 134.389 128.033 134.391 128.042C134.424 128.236 134.455 128.43 134.485 128.624C134.486 128.634 134.486 128.644 134.483 128.653C134.481 128.663 134.476 128.672 134.47 128.68C134.464 128.688 134.457 128.695 134.448 128.699C134.439 128.704 134.43 128.707 134.42 128.708L134.412 128.713ZM112.694 128.579C112.676 128.578 112.659 128.571 112.646 128.558C112.633 128.545 112.625 128.528 112.624 128.51C112.622 128.492 112.628 128.474 112.639 128.459C112.65 128.445 112.666 128.435 112.684 128.432L113.27 128.357C113.28 128.355 113.29 128.356 113.3 128.358C113.309 128.361 113.318 128.365 113.326 128.371C113.334 128.377 113.34 128.385 113.345 128.394C113.35 128.402 113.352 128.412 113.353 128.422C113.354 128.431 113.354 128.441 113.351 128.451C113.349 128.46 113.344 128.469 113.338 128.477C113.332 128.484 113.325 128.491 113.316 128.495C113.308 128.5 113.298 128.503 113.289 128.504L112.703 128.579H112.694ZM114.647 128.329C114.629 128.328 114.611 128.321 114.598 128.308C114.585 128.295 114.577 128.278 114.576 128.26C114.575 128.242 114.581 128.224 114.592 128.209C114.603 128.195 114.619 128.185 114.637 128.182L115.223 128.107C115.233 128.106 115.243 128.106 115.252 128.108C115.262 128.111 115.271 128.115 115.279 128.121C115.286 128.127 115.293 128.135 115.297 128.144C115.302 128.152 115.305 128.162 115.306 128.172C115.307 128.181 115.306 128.191 115.304 128.201C115.301 128.21 115.297 128.219 115.291 128.227C115.285 128.234 115.277 128.241 115.269 128.245C115.26 128.25 115.251 128.253 115.241 128.254L114.656 128.329H114.647ZM116.6 128.079C116.58 128.081 116.561 128.074 116.546 128.061C116.531 128.048 116.522 128.03 116.521 128.011C116.52 127.991 116.526 127.972 116.539 127.957C116.552 127.942 116.57 127.933 116.59 127.932L117.176 127.857C117.186 127.856 117.196 127.856 117.205 127.859C117.215 127.861 117.223 127.866 117.231 127.872C117.239 127.878 117.245 127.885 117.25 127.894C117.255 127.902 117.258 127.912 117.259 127.922C117.261 127.941 117.256 127.961 117.243 127.976C117.231 127.992 117.214 128.002 117.194 128.004L116.609 128.079H116.6ZM118.552 127.829C118.533 127.831 118.514 127.824 118.499 127.811C118.484 127.798 118.475 127.78 118.474 127.76C118.473 127.741 118.48 127.721 118.493 127.707C118.506 127.692 118.524 127.683 118.543 127.682L119.129 127.607C119.139 127.605 119.148 127.606 119.158 127.608C119.168 127.611 119.177 127.615 119.184 127.621C119.192 127.627 119.199 127.635 119.203 127.644C119.208 127.652 119.211 127.662 119.211 127.672C119.214 127.691 119.208 127.711 119.196 127.726C119.184 127.742 119.166 127.752 119.147 127.754L118.561 127.829H118.552ZM120.505 127.579C120.486 127.581 120.466 127.574 120.452 127.561C120.437 127.548 120.428 127.53 120.427 127.51C120.426 127.491 120.432 127.471 120.445 127.457C120.458 127.442 120.477 127.433 120.496 127.432L121.082 127.357C121.091 127.356 121.101 127.356 121.111 127.359C121.12 127.361 121.129 127.366 121.137 127.372C121.144 127.378 121.151 127.385 121.156 127.394C121.16 127.402 121.163 127.412 121.164 127.422C121.167 127.441 121.161 127.461 121.149 127.477C121.137 127.492 121.119 127.502 121.1 127.505L120.514 127.58L120.505 127.579ZM122.458 127.329C122.44 127.328 122.422 127.321 122.409 127.308C122.396 127.295 122.389 127.278 122.387 127.26C122.386 127.242 122.392 127.224 122.403 127.209C122.414 127.195 122.43 127.185 122.448 127.182L123.034 127.107C123.044 127.106 123.054 127.106 123.064 127.108C123.073 127.111 123.082 127.115 123.09 127.121C123.097 127.127 123.104 127.135 123.109 127.144C123.113 127.152 123.116 127.162 123.117 127.172C123.119 127.191 123.114 127.211 123.102 127.226C123.09 127.242 123.072 127.252 123.052 127.254L122.467 127.329H122.458ZM124.411 127.079C124.392 127.078 124.375 127.071 124.362 127.058C124.349 127.045 124.341 127.028 124.34 127.01C124.339 126.992 124.345 126.974 124.356 126.959C124.367 126.945 124.383 126.935 124.401 126.932L124.987 126.857C124.997 126.855 125.007 126.856 125.017 126.858C125.026 126.86 125.035 126.865 125.043 126.871C125.051 126.877 125.057 126.885 125.062 126.893C125.066 126.902 125.069 126.912 125.07 126.922C125.072 126.941 125.067 126.961 125.055 126.976C125.042 126.992 125.025 127.002 125.005 127.004L124.42 127.079H124.411ZM126.363 126.829C126.345 126.829 126.327 126.821 126.313 126.808C126.3 126.796 126.292 126.778 126.291 126.76C126.29 126.741 126.295 126.723 126.307 126.708C126.319 126.694 126.336 126.685 126.354 126.682L126.94 126.606C126.95 126.605 126.96 126.605 126.969 126.608C126.979 126.61 126.988 126.615 126.995 126.621C127.003 126.627 127.009 126.634 127.014 126.643C127.019 126.652 127.022 126.661 127.023 126.671C127.024 126.681 127.023 126.691 127.021 126.7C127.018 126.709 127.014 126.718 127.008 126.726C127.002 126.734 126.994 126.74 126.986 126.745C126.977 126.75 126.968 126.753 126.958 126.754L126.373 126.829L126.363 126.829ZM134.055 126.776C134.038 126.776 134.022 126.77 134.009 126.759C133.996 126.749 133.986 126.734 133.983 126.718C133.941 126.524 133.897 126.334 133.851 126.143C133.846 126.124 133.849 126.104 133.859 126.088C133.87 126.071 133.886 126.059 133.905 126.054C133.914 126.052 133.924 126.051 133.934 126.052C133.943 126.054 133.953 126.057 133.961 126.062C133.969 126.067 133.976 126.074 133.982 126.082C133.988 126.09 133.992 126.099 133.994 126.108C134.04 126.3 134.085 126.493 134.128 126.686C134.132 126.705 134.128 126.725 134.117 126.742C134.107 126.758 134.09 126.77 134.071 126.774L134.055 126.776ZM128.316 126.582C128.297 126.583 128.278 126.577 128.263 126.564C128.248 126.551 128.239 126.532 128.238 126.513C128.237 126.493 128.244 126.474 128.257 126.459C128.269 126.445 128.288 126.436 128.307 126.435L128.893 126.36C128.903 126.358 128.913 126.358 128.922 126.36C128.932 126.363 128.941 126.367 128.949 126.373C128.957 126.379 128.963 126.387 128.968 126.396C128.972 126.405 128.975 126.414 128.975 126.424C128.977 126.434 128.976 126.444 128.973 126.453C128.971 126.463 128.966 126.471 128.96 126.479C128.954 126.487 128.947 126.493 128.938 126.498C128.93 126.503 128.921 126.506 128.911 126.507L128.325 126.583L128.316 126.582ZM130.269 126.331C130.25 126.332 130.23 126.326 130.216 126.313C130.201 126.3 130.192 126.282 130.191 126.262C130.19 126.243 130.196 126.223 130.209 126.209C130.222 126.194 130.241 126.185 130.26 126.184L130.846 126.109C130.855 126.107 130.865 126.108 130.875 126.11C130.884 126.113 130.893 126.117 130.901 126.123C130.909 126.129 130.915 126.137 130.92 126.146C130.925 126.154 130.927 126.164 130.928 126.174C130.929 126.183 130.929 126.193 130.926 126.203C130.924 126.212 130.919 126.221 130.913 126.229C130.907 126.236 130.9 126.243 130.891 126.247C130.883 126.252 130.873 126.255 130.864 126.256L130.278 126.331H130.269ZM132.222 126.081C132.204 126.081 132.186 126.075 132.173 126.063C132.16 126.051 132.151 126.035 132.149 126.017C132.147 125.997 132.152 125.977 132.164 125.962C132.176 125.946 132.194 125.936 132.213 125.933L132.799 125.858C132.809 125.857 132.819 125.857 132.828 125.86C132.838 125.862 132.847 125.866 132.855 125.872C132.862 125.879 132.869 125.886 132.873 125.895C132.878 125.904 132.881 125.913 132.882 125.923C132.883 125.933 132.882 125.943 132.88 125.952C132.877 125.961 132.873 125.97 132.867 125.978C132.861 125.986 132.853 125.992 132.845 125.997C132.836 126.002 132.827 126.005 132.817 126.006L132.232 126.081L132.222 126.081Z" fill="white"/>
<path d="M111.974 121.685L111.949 120.953C111.976 120.863 112.024 120.782 112.091 120.715C112.157 120.649 112.239 120.601 112.329 120.575C113.013 120.374 114.721 119.957 115.635 120.473L115.867 121.298L111.974 121.685Z" fill="#E2581D"/>
<path d="M114.069 120.71C113.915 120.77 113.749 120.791 113.585 120.772C113.488 120.761 113.396 120.717 113.326 120.648C113.256 120.579 113.211 120.488 113.198 120.391L112.908 118.13L114.059 117.982L114.348 120.243C114.36 120.341 114.34 120.44 114.289 120.525C114.238 120.61 114.161 120.675 114.069 120.71Z" fill="#E2581D"/>
<path d="M123.123 120.259L123.098 119.527C123.124 119.438 123.173 119.356 123.239 119.29C123.306 119.224 123.387 119.175 123.477 119.149C124.162 118.948 125.87 118.531 126.784 119.048L127.015 119.872L123.123 120.259Z" fill="#E2581D"/>
<path d="M125.215 119.283C125.062 119.344 124.896 119.366 124.732 119.348C124.634 119.337 124.543 119.293 124.472 119.224C124.402 119.156 124.357 119.065 124.344 118.968L124.021 116.466L125.173 116.318L125.495 118.818C125.507 118.916 125.485 119.015 125.435 119.099C125.384 119.183 125.307 119.248 125.215 119.283Z" fill="#E2581D"/>
<path d="M112.861 118.698L125.187 116.704C125.323 116.682 125.448 116.614 125.54 116.512C125.633 116.409 125.687 116.278 125.694 116.14C125.723 115.61 125.668 115.079 125.532 114.565C125.438 114.239 125.233 113.957 124.951 113.768C124.67 113.579 124.331 113.495 123.994 113.532C121.678 113.773 115.799 114.527 112.723 116.224C112.564 116.313 112.428 116.438 112.327 116.59C112.225 116.742 112.162 116.916 112.142 117.098C112.087 117.523 112.131 117.954 112.271 118.359C112.315 118.475 112.398 118.572 112.506 118.634C112.613 118.696 112.739 118.719 112.861 118.698Z" fill="#E2581D"/>
<path d="M112.558 118.222C112.513 118.223 112.47 118.208 112.435 118.18C112.399 118.152 112.375 118.114 112.364 118.07C112.295 117.743 112.279 117.408 112.317 117.076C112.345 116.877 112.424 116.688 112.546 116.528C112.667 116.368 112.828 116.241 113.012 116.16C113.682 115.866 114.969 115.348 116.057 115.178C116.109 115.17 116.161 115.183 116.203 115.214C116.245 115.245 116.274 115.291 116.282 115.343C116.287 115.368 116.286 115.394 116.28 115.42C116.274 115.445 116.263 115.469 116.248 115.49C116.232 115.511 116.213 115.529 116.191 115.542C116.168 115.555 116.143 115.564 116.118 115.567C115.034 115.737 113.696 116.291 113.17 116.521C113.048 116.575 112.941 116.659 112.86 116.765C112.779 116.871 112.726 116.997 112.707 117.129C112.676 117.414 112.69 117.701 112.748 117.981C112.754 118.007 112.755 118.033 112.751 118.058C112.747 118.084 112.738 118.108 112.724 118.13C112.71 118.152 112.692 118.171 112.671 118.186C112.65 118.201 112.626 118.212 112.601 118.217C112.587 118.221 112.572 118.222 112.558 118.222Z" fill="#FBE0D0"/>
<path d="M106.196 122.139C110.188 121.577 127.465 119.179 132.567 119.143C132.781 119.141 132.99 119.205 133.165 119.327C133.341 119.449 133.474 119.622 133.548 119.823C134.016 121.128 135.013 124.172 135.338 127.274C135.358 127.48 135.307 127.686 135.193 127.859C135.079 128.032 134.91 128.16 134.713 128.223L123.521 131.863L119.446 132.385L106.913 131.519C106.699 131.505 106.496 131.42 106.336 131.277C106.175 131.134 106.067 130.941 106.029 130.73C105.751 129.184 105.159 125.548 105.28 123.145C105.292 122.896 105.39 122.66 105.557 122.477C105.724 122.293 105.95 122.174 106.196 122.139Z" fill="#E2581D"/>
<path d="M119.426 131.458L118.822 131.418C118.803 131.416 118.785 131.407 118.772 131.392C118.759 131.378 118.753 131.358 118.754 131.339C118.756 131.32 118.766 131.302 118.78 131.289C118.795 131.277 118.813 131.27 118.833 131.27L119.422 131.311L119.738 131.269C119.747 131.268 119.757 131.268 119.767 131.271C119.776 131.273 119.785 131.277 119.793 131.283C119.801 131.289 119.807 131.297 119.812 131.306C119.817 131.314 119.82 131.324 119.82 131.334C119.823 131.353 119.817 131.373 119.805 131.388C119.793 131.404 119.775 131.414 119.756 131.416L119.426 131.458ZM117.453 131.323H117.447L116.859 131.282C116.839 131.281 116.821 131.271 116.808 131.257C116.795 131.242 116.788 131.223 116.79 131.203C116.792 131.184 116.801 131.166 116.816 131.154C116.83 131.141 116.849 131.134 116.868 131.135L117.458 131.175C117.477 131.176 117.496 131.185 117.509 131.199C117.522 131.213 117.529 131.232 117.529 131.252C117.528 131.271 117.52 131.29 117.505 131.303C117.491 131.316 117.472 131.323 117.453 131.323ZM121.114 131.241C121.095 131.243 121.075 131.236 121.061 131.223C121.046 131.21 121.037 131.192 121.036 131.173C121.034 131.153 121.041 131.134 121.054 131.119C121.067 131.104 121.085 131.095 121.104 131.094L121.691 131.019C121.7 131.017 121.71 131.018 121.72 131.02C121.729 131.022 121.738 131.027 121.746 131.033C121.754 131.039 121.761 131.047 121.765 131.055C121.77 131.064 121.773 131.074 121.773 131.084C121.776 131.103 121.77 131.123 121.758 131.138C121.746 131.154 121.728 131.164 121.709 131.166L121.122 131.241H121.114ZM115.489 131.187H115.484L114.894 131.146C114.875 131.145 114.857 131.136 114.844 131.121C114.831 131.106 114.825 131.087 114.826 131.068C114.828 131.048 114.837 131.03 114.852 131.018C114.866 131.005 114.885 130.998 114.905 130.999L115.494 131.04C115.513 131.04 115.532 131.049 115.545 131.063C115.559 131.077 115.566 131.096 115.565 131.116C115.564 131.136 115.556 131.154 115.542 131.167C115.527 131.181 115.508 131.188 115.489 131.187ZM113.525 131.051H113.52L112.93 131.011C112.921 131.01 112.911 131.008 112.903 131.003C112.894 130.999 112.886 130.993 112.88 130.986C112.873 130.978 112.869 130.97 112.866 130.961C112.863 130.951 112.861 130.942 112.862 130.932C112.864 130.913 112.873 130.894 112.887 130.882C112.902 130.869 112.921 130.862 112.941 130.863L113.53 130.904C113.549 130.905 113.567 130.913 113.581 130.927C113.594 130.942 113.601 130.961 113.601 130.98C113.6 131 113.592 131.018 113.578 131.031C113.563 131.045 113.544 131.052 113.525 131.051ZM123.067 130.991C123.047 130.993 123.028 130.986 123.013 130.973C122.999 130.96 122.99 130.942 122.988 130.923C122.987 130.903 122.994 130.884 123.007 130.869C123.019 130.854 123.038 130.845 123.057 130.844L123.292 130.814L123.614 130.708C123.624 130.704 123.634 130.702 123.644 130.702C123.654 130.702 123.665 130.705 123.674 130.709C123.683 130.713 123.691 130.719 123.698 130.727C123.705 130.735 123.71 130.744 123.713 130.753C123.717 130.763 123.718 130.773 123.717 130.784C123.716 130.794 123.713 130.804 123.708 130.813C123.703 130.822 123.696 130.829 123.688 130.836C123.679 130.842 123.67 130.846 123.66 130.849L123.324 130.958L123.075 130.991L123.067 130.991ZM111.561 130.916H111.555L110.969 130.876C110.95 130.875 110.931 130.866 110.918 130.851C110.906 130.836 110.899 130.817 110.9 130.798C110.903 130.779 110.912 130.761 110.927 130.748C110.941 130.736 110.96 130.729 110.979 130.729L111.568 130.77C111.588 130.77 111.606 130.779 111.62 130.793C111.633 130.807 111.64 130.826 111.639 130.846C111.639 130.866 111.63 130.884 111.616 130.897C111.602 130.911 111.583 130.918 111.563 130.917L111.561 130.916ZM109.597 130.78H109.592L109.002 130.739C108.993 130.739 108.983 130.736 108.974 130.732C108.966 130.728 108.958 130.722 108.952 130.714C108.945 130.707 108.94 130.698 108.937 130.689C108.934 130.68 108.933 130.67 108.934 130.661C108.936 130.641 108.945 130.624 108.96 130.611C108.974 130.598 108.993 130.592 109.013 130.592L109.601 130.633C109.621 130.633 109.639 130.642 109.653 130.656C109.666 130.67 109.673 130.689 109.673 130.709C109.672 130.728 109.664 130.747 109.65 130.76C109.635 130.774 109.616 130.781 109.597 130.78ZM107.632 130.644H107.627L107.038 130.604C107.018 130.602 107 130.593 106.987 130.578C106.975 130.564 106.968 130.544 106.969 130.525C106.972 130.506 106.982 130.489 106.996 130.476C107.011 130.464 107.029 130.456 107.048 130.456L107.638 130.497C107.657 130.498 107.676 130.506 107.689 130.521C107.702 130.535 107.709 130.554 107.709 130.573C107.708 130.593 107.699 130.611 107.685 130.625C107.671 130.638 107.652 130.645 107.632 130.644ZM124.949 130.425C124.933 130.425 124.918 130.42 124.905 130.411C124.893 130.402 124.883 130.389 124.878 130.374C124.875 130.365 124.874 130.356 124.875 130.346C124.876 130.336 124.878 130.327 124.883 130.318C124.887 130.31 124.893 130.302 124.9 130.296C124.908 130.289 124.916 130.284 124.925 130.281L125.488 130.099C125.506 130.093 125.526 130.095 125.544 130.104C125.561 130.113 125.574 130.128 125.581 130.146C125.587 130.165 125.585 130.185 125.576 130.203C125.567 130.22 125.551 130.233 125.533 130.239L124.971 130.422C124.964 130.424 124.956 130.425 124.948 130.424L124.949 130.425ZM126.821 129.816C126.803 129.817 126.786 129.81 126.772 129.799C126.759 129.788 126.75 129.772 126.747 129.754C126.744 129.737 126.748 129.719 126.757 129.704C126.767 129.689 126.781 129.677 126.798 129.672L127.36 129.489C127.378 129.484 127.399 129.486 127.416 129.494C127.433 129.503 127.447 129.519 127.453 129.537C127.456 129.546 127.457 129.556 127.456 129.566C127.455 129.575 127.453 129.585 127.448 129.594C127.444 129.602 127.438 129.61 127.431 129.616C127.423 129.622 127.415 129.627 127.406 129.63L126.844 129.813C126.836 129.815 126.828 129.815 126.82 129.814L126.821 129.816ZM106.782 129.278C106.764 129.278 106.747 129.271 106.733 129.26C106.72 129.248 106.711 129.231 106.709 129.214C106.68 129.027 106.649 128.831 106.62 128.628C106.617 128.609 106.622 128.589 106.633 128.574C106.645 128.558 106.662 128.547 106.682 128.544C106.701 128.541 106.721 128.546 106.736 128.558C106.752 128.57 106.763 128.587 106.765 128.606C106.796 128.809 106.825 129.004 106.855 129.188C106.856 129.198 106.856 129.208 106.853 129.217C106.851 129.227 106.846 129.236 106.84 129.244C106.834 129.252 106.827 129.258 106.818 129.263C106.809 129.268 106.8 129.271 106.79 129.272L106.782 129.278ZM128.693 129.208C128.676 129.208 128.659 129.201 128.646 129.19C128.632 129.178 128.623 129.163 128.621 129.145C128.618 129.128 128.621 129.11 128.63 129.095C128.639 129.08 128.654 129.069 128.67 129.063L129.232 128.881C129.241 128.877 129.251 128.875 129.262 128.875C129.272 128.875 129.282 128.878 129.291 128.882C129.301 128.886 129.309 128.892 129.316 128.9C129.323 128.908 129.328 128.917 129.331 128.927C129.334 128.936 129.335 128.947 129.334 128.957C129.333 128.967 129.33 128.977 129.325 128.986C129.32 128.995 129.313 129.003 129.305 129.009C129.297 129.015 129.288 129.019 129.278 129.022L128.716 129.204C128.708 129.206 128.701 129.206 128.693 129.206L128.693 129.208ZM130.566 128.599C130.548 128.599 130.531 128.593 130.517 128.581C130.504 128.57 130.495 128.554 130.492 128.536C130.489 128.519 130.493 128.501 130.502 128.486C130.512 128.471 130.526 128.46 130.543 128.455L131.105 128.272C131.123 128.266 131.143 128.268 131.161 128.277C131.178 128.286 131.191 128.301 131.198 128.32C131.201 128.329 131.202 128.338 131.201 128.348C131.2 128.358 131.198 128.367 131.193 128.376C131.189 128.385 131.183 128.392 131.176 128.399C131.168 128.405 131.16 128.41 131.15 128.413L130.589 128.595C130.581 128.597 130.573 128.597 130.565 128.597L130.566 128.599ZM132.438 127.989C132.42 127.99 132.403 127.984 132.389 127.972C132.375 127.961 132.366 127.945 132.363 127.928C132.36 127.91 132.364 127.892 132.373 127.877C132.383 127.862 132.397 127.851 132.414 127.845L132.976 127.663C132.985 127.66 132.995 127.659 133.005 127.66C133.014 127.661 133.024 127.663 133.032 127.668C133.041 127.672 133.049 127.678 133.055 127.685C133.061 127.693 133.066 127.701 133.069 127.71C133.072 127.72 133.073 127.729 133.072 127.739C133.072 127.749 133.069 127.758 133.065 127.767C133.06 127.775 133.054 127.783 133.047 127.789C133.04 127.796 133.031 127.8 133.022 127.803L132.46 127.986C132.453 127.988 132.445 127.988 132.438 127.988V127.989ZM134.31 127.381C134.294 127.381 134.279 127.376 134.266 127.367C134.254 127.357 134.244 127.344 134.239 127.329C134.235 127.316 134.235 127.302 134.238 127.289C134.241 127.276 134.248 127.264 134.258 127.254C134.239 127.086 134.218 126.917 134.194 126.75C134.192 126.74 134.193 126.73 134.196 126.721C134.198 126.711 134.203 126.702 134.209 126.695C134.215 126.687 134.222 126.68 134.23 126.676C134.239 126.671 134.248 126.668 134.258 126.667C134.268 126.665 134.278 126.666 134.287 126.668C134.297 126.671 134.305 126.675 134.313 126.681C134.321 126.687 134.327 126.695 134.332 126.703C134.337 126.712 134.34 126.721 134.341 126.731C134.366 126.918 134.389 127.104 134.409 127.291L134.416 127.351L134.331 127.378C134.324 127.38 134.317 127.38 134.31 127.379V127.381ZM106.507 127.326C106.489 127.326 106.471 127.319 106.458 127.307C106.444 127.296 106.435 127.279 106.433 127.261C106.41 127.068 106.387 126.874 106.368 126.674C106.366 126.654 106.372 126.635 106.384 126.62C106.396 126.604 106.414 126.594 106.433 126.592C106.452 126.59 106.472 126.596 106.487 126.608C106.503 126.62 106.513 126.637 106.515 126.657C106.536 126.851 106.559 127.05 106.58 127.243C106.581 127.253 106.58 127.263 106.577 127.272C106.575 127.281 106.57 127.29 106.564 127.298C106.558 127.305 106.551 127.312 106.542 127.317C106.534 127.321 106.525 127.324 106.515 127.325L106.507 127.326ZM134.046 125.453C134.029 125.453 134.013 125.447 133.999 125.436C133.986 125.425 133.977 125.41 133.974 125.393C133.937 125.199 133.898 125.005 133.858 124.814C133.856 124.805 133.856 124.795 133.857 124.786C133.859 124.776 133.863 124.767 133.868 124.759C133.873 124.751 133.88 124.744 133.888 124.738C133.896 124.733 133.905 124.729 133.914 124.727C133.924 124.725 133.934 124.725 133.943 124.726C133.953 124.728 133.962 124.732 133.97 124.737C133.978 124.742 133.985 124.749 133.99 124.757C133.996 124.765 134 124.774 134.002 124.783C134.043 124.977 134.082 125.171 134.119 125.365C134.121 125.374 134.121 125.384 134.119 125.394C134.117 125.403 134.113 125.412 134.107 125.42C134.102 125.428 134.095 125.435 134.087 125.44C134.079 125.445 134.069 125.449 134.06 125.451L134.046 125.453ZM106.315 125.365C106.296 125.365 106.278 125.358 106.264 125.345C106.251 125.332 106.243 125.314 106.241 125.296C106.227 125.096 106.216 124.899 106.207 124.703C106.207 124.694 106.208 124.684 106.211 124.675C106.214 124.666 106.219 124.658 106.226 124.65C106.232 124.643 106.24 124.637 106.249 124.633C106.258 124.629 106.267 124.627 106.277 124.626C106.287 124.625 106.297 124.626 106.306 124.629C106.316 124.632 106.324 124.637 106.332 124.644C106.339 124.65 106.345 124.659 106.349 124.668C106.353 124.677 106.355 124.687 106.354 124.697C106.363 124.891 106.374 125.084 106.388 125.285C106.389 125.295 106.388 125.305 106.385 125.314C106.382 125.323 106.377 125.332 106.37 125.339C106.364 125.347 106.356 125.353 106.347 125.357C106.339 125.361 106.329 125.364 106.319 125.364L106.315 125.365ZM133.616 123.53C133.599 123.529 133.584 123.524 133.571 123.514C133.558 123.504 133.548 123.49 133.544 123.474C133.494 123.28 133.444 123.086 133.394 122.904C133.389 122.885 133.391 122.865 133.401 122.847C133.41 122.83 133.426 122.818 133.445 122.813C133.455 122.81 133.464 122.809 133.474 122.81C133.484 122.811 133.493 122.814 133.502 122.819C133.51 122.824 133.517 122.83 133.523 122.838C133.529 122.846 133.533 122.855 133.536 122.864C133.587 123.05 133.637 123.241 133.687 123.437C133.69 123.447 133.69 123.456 133.689 123.466C133.688 123.476 133.685 123.485 133.68 123.493C133.675 123.501 133.668 123.509 133.66 123.515C133.653 123.52 133.644 123.525 133.635 123.527C133.628 123.528 133.622 123.528 133.616 123.528V123.53ZM106.268 123.395C106.259 123.395 106.249 123.393 106.24 123.389C106.231 123.385 106.223 123.379 106.217 123.372C106.21 123.365 106.205 123.357 106.202 123.348C106.198 123.338 106.197 123.329 106.197 123.319L106.203 123.19C106.204 123.156 106.217 123.124 106.24 123.099C106.263 123.074 106.293 123.058 106.326 123.053L106.69 123.001C106.7 123 106.71 123 106.719 123.002C106.729 123.005 106.738 123.009 106.746 123.015C106.754 123.021 106.76 123.029 106.765 123.038C106.769 123.046 106.772 123.056 106.773 123.066C106.774 123.076 106.774 123.085 106.771 123.095C106.769 123.104 106.764 123.113 106.758 123.121C106.752 123.129 106.745 123.135 106.736 123.14C106.728 123.145 106.718 123.148 106.709 123.149L106.345 123.2V123.323C106.345 123.333 106.342 123.342 106.338 123.351C106.334 123.36 106.328 123.368 106.321 123.374C106.314 123.381 106.306 123.386 106.297 123.389C106.288 123.392 106.278 123.394 106.268 123.393V123.395ZM108.064 122.96C108.045 122.96 108.028 122.952 108.015 122.94C108.002 122.927 107.994 122.91 107.993 122.891C107.991 122.873 107.997 122.855 108.008 122.841C108.019 122.826 108.035 122.817 108.053 122.813L108.639 122.732C108.649 122.731 108.659 122.731 108.668 122.734C108.678 122.736 108.687 122.74 108.695 122.747C108.702 122.753 108.709 122.76 108.714 122.769C108.718 122.778 108.721 122.787 108.722 122.797C108.724 122.817 108.719 122.836 108.707 122.852C108.695 122.867 108.677 122.877 108.658 122.88L108.072 122.961L108.064 122.96ZM110.014 122.692C109.997 122.692 109.979 122.686 109.966 122.674C109.953 122.662 109.944 122.646 109.942 122.628C109.94 122.618 109.941 122.608 109.943 122.599C109.946 122.589 109.95 122.58 109.956 122.573C109.962 122.565 109.97 122.558 109.978 122.553C109.987 122.549 109.996 122.546 110.006 122.544L110.592 122.464C110.601 122.463 110.611 122.464 110.62 122.466C110.63 122.469 110.639 122.473 110.646 122.479C110.654 122.485 110.66 122.492 110.665 122.501C110.67 122.509 110.673 122.518 110.675 122.528C110.676 122.538 110.675 122.547 110.673 122.557C110.67 122.566 110.666 122.575 110.66 122.583C110.654 122.59 110.647 122.597 110.638 122.602C110.63 122.607 110.621 122.61 110.611 122.611L110.026 122.69L110.014 122.692ZM111.967 122.429C111.947 122.43 111.928 122.424 111.913 122.411C111.898 122.398 111.889 122.38 111.888 122.36C111.887 122.341 111.893 122.321 111.906 122.307C111.919 122.292 111.937 122.283 111.957 122.282L112.542 122.203C112.562 122.201 112.582 122.207 112.597 122.219C112.613 122.231 112.623 122.249 112.626 122.268C112.628 122.288 112.623 122.307 112.611 122.323C112.598 122.339 112.581 122.349 112.561 122.351L111.976 122.43L111.967 122.429ZM113.919 122.17C113.899 122.172 113.88 122.165 113.865 122.152C113.851 122.139 113.842 122.121 113.84 122.102C113.839 122.082 113.846 122.063 113.858 122.048C113.871 122.033 113.89 122.024 113.909 122.023L114.495 121.946C114.504 121.945 114.514 121.945 114.524 121.948C114.533 121.95 114.542 121.955 114.55 121.961C114.558 121.967 114.564 121.974 114.569 121.983C114.574 121.992 114.577 122.001 114.578 122.011C114.58 122.03 114.575 122.05 114.563 122.066C114.551 122.081 114.533 122.091 114.513 122.094L113.928 122.17H113.919ZM115.872 121.917C115.852 121.918 115.833 121.911 115.818 121.898C115.804 121.885 115.795 121.867 115.793 121.847C115.792 121.828 115.799 121.809 115.812 121.794C115.825 121.779 115.843 121.771 115.863 121.769L116.449 121.694C116.458 121.692 116.468 121.693 116.478 121.695C116.487 121.698 116.496 121.702 116.504 121.708C116.511 121.714 116.518 121.722 116.522 121.731C116.527 121.739 116.53 121.749 116.531 121.758C116.533 121.778 116.528 121.798 116.515 121.813C116.503 121.829 116.486 121.839 116.466 121.841L115.881 121.917H115.872ZM117.838 121.666L117.819 121.519L118.4 121.446C118.41 121.445 118.42 121.446 118.429 121.448C118.439 121.451 118.447 121.455 118.455 121.461C118.463 121.467 118.469 121.475 118.474 121.483C118.479 121.492 118.482 121.501 118.483 121.511C118.485 121.53 118.48 121.55 118.468 121.566C118.456 121.581 118.438 121.591 118.418 121.594L117.838 121.666ZM133.077 121.635C133.062 121.635 133.046 121.63 133.034 121.621C133.021 121.611 133.011 121.598 133.006 121.583C132.942 121.383 132.884 121.196 132.826 121.021C132.823 121.012 132.822 121.002 132.823 120.993C132.824 120.983 132.826 120.974 132.831 120.965C132.835 120.956 132.841 120.949 132.848 120.942C132.856 120.936 132.864 120.931 132.873 120.928C132.883 120.925 132.892 120.924 132.902 120.925C132.912 120.926 132.921 120.928 132.93 120.933C132.938 120.937 132.946 120.943 132.952 120.95C132.959 120.958 132.963 120.966 132.966 120.975C133.024 121.149 133.085 121.338 133.148 121.539C133.151 121.549 133.152 121.558 133.151 121.568C133.15 121.578 133.147 121.587 133.143 121.596C133.138 121.604 133.132 121.612 133.125 121.618C133.117 121.624 133.109 121.629 133.099 121.632C133.092 121.633 133.085 121.633 133.077 121.632V121.635ZM119.779 121.425C119.76 121.426 119.74 121.42 119.726 121.407C119.711 121.394 119.702 121.375 119.701 121.356C119.7 121.336 119.706 121.317 119.719 121.302C119.732 121.288 119.751 121.279 119.77 121.278L120.356 121.207C120.376 121.205 120.395 121.21 120.41 121.222C120.426 121.234 120.436 121.252 120.438 121.271C120.439 121.281 120.439 121.291 120.436 121.3C120.434 121.309 120.429 121.318 120.423 121.326C120.417 121.334 120.41 121.34 120.401 121.345C120.393 121.349 120.383 121.352 120.374 121.353L119.788 121.425H119.779ZM121.733 121.19C121.714 121.191 121.694 121.184 121.68 121.171C121.665 121.158 121.656 121.14 121.655 121.12C121.654 121.101 121.661 121.082 121.674 121.067C121.687 121.053 121.705 121.044 121.725 121.043L122.312 120.974C122.321 120.973 122.331 120.973 122.34 120.976C122.35 120.978 122.358 120.983 122.366 120.989C122.374 120.995 122.38 121.003 122.385 121.011C122.389 121.02 122.392 121.029 122.393 121.039C122.394 121.048 122.393 121.058 122.391 121.068C122.388 121.077 122.384 121.086 122.378 121.093C122.372 121.101 122.364 121.107 122.356 121.112C122.347 121.117 122.338 121.12 122.328 121.121L121.742 121.189L121.733 121.19ZM123.689 120.964C123.67 120.965 123.651 120.959 123.636 120.946C123.621 120.933 123.613 120.914 123.612 120.895C123.611 120.875 123.617 120.856 123.631 120.841C123.644 120.827 123.662 120.818 123.681 120.817L124.268 120.753C124.288 120.751 124.307 120.756 124.322 120.768C124.337 120.78 124.347 120.798 124.35 120.817C124.352 120.837 124.346 120.856 124.334 120.871C124.322 120.887 124.304 120.897 124.285 120.899L123.698 120.964L123.689 120.964ZM125.646 120.751C125.628 120.75 125.61 120.743 125.597 120.73C125.583 120.717 125.575 120.699 125.574 120.68C125.573 120.662 125.579 120.643 125.591 120.629C125.603 120.614 125.62 120.605 125.639 120.603L126.226 120.542C126.236 120.541 126.246 120.542 126.255 120.545C126.264 120.547 126.273 120.552 126.28 120.558C126.288 120.564 126.294 120.572 126.299 120.58C126.303 120.589 126.306 120.598 126.307 120.608C126.308 120.617 126.307 120.627 126.305 120.636C126.302 120.645 126.297 120.654 126.291 120.662C126.285 120.669 126.278 120.675 126.269 120.68C126.261 120.685 126.251 120.688 126.242 120.689L125.654 120.753L125.646 120.751ZM127.606 120.553C127.596 120.553 127.586 120.552 127.577 120.549C127.568 120.545 127.56 120.54 127.553 120.534C127.545 120.527 127.54 120.52 127.536 120.511C127.531 120.502 127.529 120.493 127.529 120.483C127.528 120.473 127.53 120.463 127.533 120.454C127.536 120.445 127.541 120.437 127.548 120.43C127.554 120.423 127.562 120.417 127.571 120.413C127.579 120.408 127.589 120.406 127.599 120.406L128.187 120.35C128.196 120.349 128.206 120.35 128.215 120.352C128.224 120.355 128.233 120.359 128.241 120.365C128.248 120.371 128.254 120.379 128.259 120.387C128.264 120.396 128.266 120.405 128.267 120.415C128.269 120.434 128.264 120.453 128.251 120.468C128.239 120.483 128.222 120.493 128.203 120.495L127.615 120.55L127.606 120.553ZM129.567 120.379C129.547 120.379 129.528 120.372 129.514 120.359C129.5 120.346 129.491 120.327 129.49 120.308C129.49 120.288 129.497 120.269 129.51 120.255C129.523 120.24 129.542 120.232 129.561 120.231C129.765 120.214 129.961 120.199 130.15 120.186C130.169 120.184 130.188 120.19 130.203 120.202C130.218 120.214 130.227 120.232 130.229 120.251C130.231 120.27 130.225 120.288 130.213 120.303C130.201 120.318 130.184 120.328 130.165 120.33C129.975 120.344 129.777 120.359 129.576 120.375L129.567 120.379ZM131.531 120.249C131.512 120.249 131.494 120.242 131.48 120.229C131.467 120.216 131.459 120.198 131.458 120.179C131.457 120.169 131.458 120.16 131.462 120.15C131.465 120.141 131.47 120.133 131.476 120.126C131.483 120.119 131.491 120.113 131.499 120.109C131.508 120.105 131.518 120.102 131.527 120.102C131.739 120.092 131.936 120.084 132.119 120.078C132.137 120.08 132.154 120.088 132.167 120.102C132.179 120.116 132.186 120.134 132.186 120.152C132.186 120.171 132.179 120.188 132.167 120.202C132.154 120.216 132.137 120.224 132.119 120.226C131.937 120.231 131.74 120.239 131.53 120.249H131.531Z" fill="white"/>
<path d="M123.355 133.623L119.785 134.08C119.56 134.109 119.331 134.055 119.143 133.927C118.955 133.8 118.82 133.607 118.764 133.387L117.913 130.002C117.881 129.875 117.876 129.742 117.899 129.613C117.923 129.483 117.973 129.36 118.047 129.252C118.122 129.144 118.218 129.052 118.33 128.984C118.442 128.916 118.568 128.872 118.698 128.856L122.986 128.307C123.114 128.29 123.244 128.3 123.367 128.336C123.491 128.372 123.606 128.434 123.705 128.517C123.803 128.6 123.883 128.703 123.94 128.819C123.997 128.935 124.029 129.061 124.034 129.19L124.168 132.666C124.176 132.899 124.097 133.126 123.947 133.303C123.796 133.48 123.585 133.594 123.355 133.623Z" fill="#FBE0D0"/>
<path d="M122.837 133.047L120.12 133.395C119.949 133.416 119.776 133.374 119.633 133.277C119.491 133.18 119.388 133.034 119.345 132.867L118.7 130.291C118.676 130.194 118.673 130.093 118.691 129.995C118.709 129.896 118.748 129.803 118.804 129.721C118.861 129.638 118.934 129.569 119.019 129.517C119.104 129.465 119.199 129.431 119.298 129.418L122.562 129C122.659 128.987 122.758 128.995 122.852 129.023C122.947 129.05 123.034 129.097 123.109 129.16C123.184 129.224 123.245 129.302 123.288 129.39C123.331 129.478 123.356 129.574 123.359 129.673L123.461 132.321C123.466 132.498 123.405 132.671 123.289 132.805C123.174 132.939 123.012 133.025 122.837 133.047Z" fill="#E2581D"/>
<path d="M120.713 105.657C121.552 109.139 121.577 112.545 121.449 113.785C121.425 114.011 121.323 114.221 121.16 114.38C120.996 114.538 120.783 114.633 120.556 114.65C120.024 114.687 119.3 114.736 118.653 114.773C117.942 114.815 117.151 114.364 116.623 113.988C116.565 113.947 116.495 113.926 116.424 113.93C116.353 113.933 116.286 113.96 116.232 114.006C116.178 114.052 116.141 114.115 116.127 114.185C116.113 114.254 116.123 114.327 116.155 114.39C116.413 114.898 116.865 115.298 117.312 115.638C117.582 115.843 118.474 116.207 118.41 116.607C118.382 116.733 118.32 116.85 118.232 116.944C117.735 117.541 116.983 117.86 116.241 118.087C116.145 118.107 116.056 118.151 115.983 118.216C115.965 118.697 117.441 119.23 117.822 119.357C118.392 119.551 118.998 119.622 119.598 119.564C121.082 119.407 122.455 118.381 123.255 117.144C125.394 113.836 126.5 109.844 126.904 106.789C124.918 104.802 121.914 105.307 120.713 105.657Z" fill="#FBE0D0"/>
<path d="M126.908 107.105C128.495 95.1101 119.257 85.8867 119.257 85.8867L113.762 92.2987C117.935 97.5028 119.918 102.272 120.824 106.017C122.025 105.67 124.919 105.117 126.908 107.105Z" fill="#213782"/>
<path d="M120.692 105.961C120.615 105.961 120.542 105.936 120.482 105.889C120.422 105.842 120.379 105.776 120.36 105.703C119.244 101.085 116.89 96.514 113.364 92.1162C113.336 92.0813 113.315 92.0413 113.303 91.9983C113.29 91.9554 113.286 91.9104 113.291 91.866C113.296 91.8215 113.309 91.7785 113.331 91.7393C113.352 91.7001 113.381 91.6655 113.416 91.6375C113.451 91.6095 113.491 91.5886 113.534 91.5761C113.577 91.5636 113.622 91.5597 113.666 91.5645C113.711 91.5694 113.754 91.5829 113.793 91.6044C113.832 91.6259 113.867 91.655 113.895 91.6898C117.484 96.1665 119.882 100.827 121.023 105.542C121.035 105.592 121.036 105.645 121.025 105.695C121.014 105.746 120.992 105.793 120.96 105.834C120.928 105.874 120.887 105.907 120.841 105.929C120.794 105.952 120.743 105.963 120.692 105.963V105.961Z" fill="#2B4DBD"/>
<path d="M46.2577 177.068C46.2593 177.008 46.2532 176.948 46.2396 176.89C45.3558 173.384 40.9687 171.199 40.9687 171.199L39.2302 171.336C38.2309 174.427 38.3594 176.322 38.5201 177.166C38.5247 177.19 38.5318 177.213 38.5382 177.235C39.9713 177.364 42.9234 177.447 46.2577 177.068Z" fill="#213782"/>
<path d="M38.5391 177.236C38.5709 177.37 38.6393 177.494 38.7367 177.592C38.8341 177.69 38.9567 177.76 39.091 177.793C41.1309 178.223 44.3729 177.877 45.7344 177.699C46.0346 177.66 46.2508 177.382 46.2592 177.068C42.9243 177.448 39.9722 177.364 38.5391 177.236Z" fill="#213782"/>
<path d="M38.5332 168.746L39.2698 172.293C39.2908 172.415 39.3501 172.527 39.4392 172.613C39.5282 172.699 39.6423 172.754 39.7649 172.771C40.1446 172.809 40.5273 172.803 40.9056 172.752C41.2852 172.696 41.5511 172.31 41.4827 171.896L40.9708 168.746H38.5332Z" fill="#E2581D"/>
<path d="M53.7879 177.193C51.868 177.14 50.8745 176.913 50.3613 176.703C50.3613 176.897 50.3613 177.091 50.3671 177.29C50.365 177.389 50.4017 177.485 50.4694 177.558C50.537 177.63 50.6303 177.673 50.7293 177.678L61.2711 177.61C61.6075 177.61 61.8043 177.217 61.6585 176.909C60.2763 177.019 56.7555 177.275 53.7879 177.193Z" fill="#213782"/>
<path d="M61.6585 176.905C61.6469 176.877 61.6329 176.851 61.6165 176.825C60.6856 175.524 58.3145 172.931 53.6291 171.807L51.3813 171.736C51.3813 171.736 50.38 173.477 50.3613 176.701C50.8778 176.911 51.868 177.138 53.7879 177.192C56.7555 177.275 60.2763 177.019 61.6585 176.905Z" fill="#213782"/>
<path d="M50.8633 168.431C50.8988 168.597 51.3662 171.12 51.5476 172.099C51.5638 172.208 51.6159 172.307 51.6956 172.383C51.7753 172.458 51.878 172.504 51.9872 172.514C52.3745 172.536 52.993 172.538 53.5268 172.393C53.8148 172.315 54.0078 172.021 53.9878 171.695L53.736 167.703L50.8633 168.431Z" fill="#E2581D"/>
<path d="M49.1619 121.833C49.1619 121.833 52.2535 143.095 54.4851 168.396C54.5264 168.867 54.1514 169.277 53.6892 169.375C53.0075 169.518 52.0049 169.689 51.1754 169.666C50.9609 169.659 50.7554 169.578 50.5937 169.436C50.432 169.295 50.3242 169.102 50.2884 168.89C49.5279 164.429 44.1034 140.488 42.68 135.218C42.68 135.218 41.0448 157.601 41.5677 169.213C41.5742 169.352 41.5277 169.489 41.4376 169.595C41.3475 169.701 41.2205 169.769 41.0822 169.786C40.4114 169.858 39.7347 169.856 39.0642 169.78C38.9009 169.764 38.7478 169.693 38.629 169.58C38.5103 169.467 38.4328 169.317 38.409 169.155C37.8674 165.379 34.7507 142.907 34.883 126.719C34.8907 125.805 35.9533 118.305 35.9533 118.305L49.1619 121.833Z" fill="#213782"/>
<path d="M35.4882 123.06C35.3326 123.004 35.196 122.905 35.0943 122.774C34.9926 122.644 34.93 122.487 34.9137 122.322C34.5025 118.331 32.5116 93.5793 45.0804 83.3973C45.0804 83.3973 45.8015 81.5104 51.7264 86.1492C57.6512 90.788 54.479 95.6503 53.0607 102.357C51.3442 110.472 48.3321 117.106 49.6651 122.1C49.7102 122.266 49.6918 122.444 49.6134 122.597C49.5349 122.751 49.4022 122.869 49.241 122.93C44.6389 124.626 40.0542 124.682 35.4882 123.06Z" fill="#213782"/>
<path d="M49.0608 77.6416L49.2022 77.577C49.245 77.5584 49.2835 77.5311 49.3154 77.497C49.3472 77.4628 49.3717 77.4225 49.3874 77.3785C49.4031 77.3344 49.4096 77.2877 49.4065 77.2411C49.4034 77.1944 49.3907 77.149 49.3694 77.1074C49.0182 76.4285 48.3365 74.8729 49.2183 74.5105C50.3577 74.0429 54.8707 73.1217 55.8449 71.519C56.7809 69.979 55.9514 67.9906 54.7055 67.4248C54.6657 67.4059 54.6203 67.403 54.5785 67.4167C54.5367 67.4304 54.5017 67.4597 54.4808 67.4984L54.3769 67.6922C54.3612 67.7222 54.337 67.7468 54.3072 67.7628C54.2775 67.7788 54.2436 67.7856 54.21 67.7822C54.1763 67.7788 54.1445 67.7654 54.1186 67.7437C54.0926 67.722 54.0738 67.6931 54.0645 67.6605C54.0556 67.6292 54.0378 67.6011 54.0133 67.5796C53.9888 67.5581 53.9586 67.5442 53.9264 67.5396C53.8941 67.5349 53.8612 67.5397 53.8317 67.5534C53.8021 67.5671 53.7771 67.589 53.7598 67.6166C53.4609 68.0959 52.6526 68.8737 50.4913 69.2723C47.4198 69.8394 45.3915 71.081 45.3386 73.2076C45.3382 73.2379 45.3296 73.2675 45.3139 73.2934C45.2981 73.3193 45.2757 73.3404 45.249 73.3547C45.2223 73.3689 45.1923 73.3757 45.162 73.3744C45.1318 73.3731 45.1025 73.3637 45.0771 73.3471C44.8499 73.2089 44.4871 73.1436 44.0023 73.5519C43.1585 74.2625 43.5039 76.1029 45.3528 77.6171C45.3737 77.6333 45.3905 77.6542 45.4018 77.6781C45.4131 77.702 45.4186 77.7283 45.4178 77.7547C45.4171 77.7812 45.4101 77.807 45.3974 77.8303C45.3848 77.8535 45.3668 77.8734 45.345 77.8884C45.01 78.1067 44.5103 78.6261 45.8053 79.3193C47.1442 80.0356 48.1441 79.9769 48.5295 79.9129C48.5522 79.9092 48.5738 79.9008 48.5931 79.8884C48.6124 79.876 48.629 79.8598 48.6418 79.8407C48.6546 79.8217 48.6634 79.8002 48.6676 79.7776C48.6719 79.755 48.6714 79.7318 48.6664 79.7094L48.2552 77.8425C48.2498 77.8178 48.25 77.7922 48.2557 77.7676C48.2615 77.7429 48.2728 77.7199 48.2886 77.7002C48.3045 77.6805 48.3246 77.6646 48.3474 77.6537C48.3702 77.6428 48.3951 77.6371 48.4204 77.6371L49.0608 77.6416Z" fill="#213782"/>
<path d="M49.982 75.9805C49.9781 76.3325 44.959 83.4661 44.959 83.4661C44.959 83.4661 45.8628 85.2419 50.1608 86.6831L53.8734 79.045L49.982 75.9805Z" fill="#FBE0D0"/>
<path d="M53.9336 71.8926C53.9336 71.8926 55.7198 75.9978 55.8399 78.1522C55.96 80.3065 56.4209 81.7051 53.9336 82.1392C51.4463 82.5733 49.3502 81.3317 48.2108 79.1857C48.2108 79.1857 46.4303 75.8783 46.8299 74.5243C47.2295 73.1703 53.9336 71.8926 53.9336 71.8926Z" fill="#FBE0D0"/>
<path d="M49.1377 78.0347C49.1377 78.0347 48.4567 75.412 47.2818 76.1478C46.1069 76.8836 47.8918 79.0857 48.8363 79.1839L49.1377 78.0347Z" fill="#FBE0D0"/>
<path d="M53.6309 88.3008L53.9769 97.603C54.8976 97.9223 55.8358 98.1889 56.7869 98.4014C57.344 96.6056 58.5712 94.4015 59.5764 92.7632C55.8838 91.4551 53.6309 88.3008 53.6309 88.3008Z" fill="#FBE0D0"/>
<path d="M72.0653 88.1426C67.0003 93.6147 62.8985 93.9364 59.5765 92.7607C58.5714 94.3989 57.3442 96.603 56.7871 98.3989C70.3126 101.383 73.4978 88.9397 73.4978 88.9397L72.0653 88.1426Z" fill="#FBE0D0"/>
<path d="M73.0918 87.5624C73.0918 87.5624 73.6728 86.9352 74.7554 87.1322C75.838 87.3293 76.796 87.7046 77.4667 87.1322C78.1374 86.5599 78.3763 87.326 78.3763 87.326L76.3667 88.8609L73.0918 87.5624Z" fill="#FBE0D0"/>
<path d="M71.8867 88.6332C71.8867 88.6332 72.2863 86.9608 73.4909 87.1895C74.6955 87.4181 77.4288 88.9071 78.1389 88.6332C78.849 88.3593 79.745 87.703 80.2046 87.9349L79.39 88.9478C79.39 88.9478 81.4841 87.7392 81.8431 88.4821L78.3571 90.4439C78.3571 90.4439 73.2624 89.9329 71.8867 88.6332Z" fill="#FBE0D0"/>
<path d="M48.0078 100.473C48.0078 100.473 57.5297 108.454 67.812 104.972C68.1268 104.863 68.4604 104.82 68.7924 104.845C69.1244 104.87 69.4478 104.963 69.7428 105.117L72.6988 106.679C73.2962 106.995 73.992 107.069 74.6426 106.887C75.2933 106.705 75.8494 106.28 76.1964 105.7C76.6069 105.012 76.9575 104.227 77.0272 103.474L71.2424 101.131L71.6691 100.421C71.6691 100.421 68.8448 100.182 68.1057 102.207C68.1057 102.207 62.727 104.446 53.6551 94.4609C53.6551 94.4616 49.5384 97.9641 48.0078 100.473Z" fill="#FBE0D0"/>
<path d="M47.4974 100.39C47.4648 100.39 47.433 100.38 47.4063 100.362C43.3968 97.6486 41.5105 93.2759 41.4918 93.232C41.4833 93.2123 41.4788 93.1911 41.4785 93.1696C41.4782 93.1481 41.4822 93.1268 41.4901 93.1069C41.4981 93.0869 41.5099 93.0687 41.5248 93.0534C41.5398 93.038 41.5576 93.0257 41.5773 93.0172C41.5971 93.0087 41.6182 93.0042 41.6397 93.0039C41.6612 93.0036 41.6824 93.0076 41.7024 93.0155C41.7223 93.0235 41.7405 93.0353 41.7559 93.0502C41.7712 93.0652 41.7835 93.0831 41.792 93.1028C41.8101 93.1461 43.6641 97.4348 47.5884 100.09C47.6172 100.11 47.6389 100.138 47.6504 100.171C47.662 100.204 47.6627 100.24 47.6526 100.273C47.6424 100.306 47.6219 100.336 47.5939 100.356C47.566 100.377 47.5322 100.389 47.4974 100.389V100.39Z" fill="#2B4DBD"/>
<path d="M53.4698 94.3258C53.4425 94.3257 53.4156 94.3189 53.3916 94.3058C53.3676 94.2927 53.3472 94.2738 53.3323 94.2508C53.3207 94.2321 52.0955 92.3239 49.7624 88.1437C49.0452 86.8582 48.1021 86.0442 46.9601 85.7245C45.0687 85.1954 43.2463 86.2103 43.2282 86.2206C43.1908 86.2392 43.1478 86.2427 43.1079 86.2306C43.068 86.2184 43.0342 86.1914 43.0136 86.1551C42.9929 86.1188 42.987 86.076 42.9968 86.0355C43.0067 85.9949 43.0318 85.9597 43.0668 85.937C43.1456 85.8924 45.0202 84.8427 47.0453 85.4099C48.2719 85.7529 49.2854 86.6192 50.0471 87.9841C52.3711 92.154 53.5977 94.0564 53.6067 94.0745C53.6224 94.0991 53.6312 94.1275 53.6322 94.1567C53.6332 94.1859 53.6264 94.2149 53.6124 94.2405C53.5984 94.2662 53.5778 94.2876 53.5527 94.3026C53.5277 94.3176 53.499 94.3256 53.4698 94.3258Z" fill="#2B4DBD"/>
</g>
<defs>
<linearGradient id="paint0_linear" x1="102.768" y1="42.0883" x2="-43.5293" y2="229.178" gradientUnits="userSpaceOnUse">
<stop stop-color="white"/>
<stop offset="1" stop-color="white"/>
</linearGradient>
<clipPath id="clip0">
<rect width="178" height="178" fill="white"/>
</clipPath>
</defs>
</svg>
