<svg width="13" height="17" viewBox="0 0 13 17" fill="none" xmlns="http://www.w3.org/2000/svg">
<path d="M9.66608 0.695842L1.17716 7.96569C1.09937 8.03244 1.037 8.11487 0.994263 8.20743C0.951523 8.29999 0.929407 8.40052 0.929407 8.50223C0.929407 8.60394 0.951523 8.70447 0.994263 8.79703C1.037 8.88959 1.09937 8.97202 1.17716 9.03877L9.72 16.3507C9.75146 16.3796 9.79415 16.3951 9.83684 16.3951H11.8928C12.0591 16.3951 12.1355 16.1933 12.0096 16.0847L3.28598 8.50119L12.0074 0.919768C12.1332 0.813348 12.0568 0.609375 11.8905 0.609375H9.902C9.81437 0.609375 9.73124 0.640414 9.66608 0.695842Z" fill="#E2581D"/>
</svg>
