<svg width="352" height="355" viewBox="0 0 352 355" fill="none" xmlns="http://www.w3.org/2000/svg">
<circle cx="50" cy="55" r="50" fill="#7BBEFD"/>
<path d="M67.8232 50.2546C67.3983 43.8626 58.6925 42.5196 58.6925 42.5196C56.4687 42.1364 55.5624 40.2944 55.2034 39.1018C56.9128 37.2545 58.109 34.8672 58.7702 32.5408C59.0222 31.6541 59.1579 30.7285 59.1579 29.8082C59.1579 29.2846 59.1036 28.7743 59.0114 28.2764C60.1211 26.4817 59.7942 24.4805 59.531 23.5189C59.4511 23.2269 59.1489 23.0827 58.8382 23.0827C58.8048 23.0827 58.7715 23.0844 58.7382 23.0876C58.6197 23.0994 58.4947 23.1049 58.3638 23.1049C56.3764 23.1049 53.0899 21.831 53.0899 21.831C52.0873 21.4147 50.8525 21.1699 49.7717 21.0493C48.826 20.9437 47.8695 21.0011 46.9615 21.2872C45.6995 21.6847 44.5377 22.4675 43.5964 23.363C43.4038 23.5463 43.2391 23.7372 43.0867 23.9516C41.0836 24.5984 40.7447 27.0878 40.8636 29.2675C40.8522 29.4466 40.8421 29.6262 40.8421 29.8082C40.8421 33.0846 42.2848 36.8426 44.5329 39.3189C44.5986 39.3914 44.6669 39.4607 44.7352 39.5302C44.2973 40.6943 43.3615 42.1801 41.3911 42.5196C41.3911 42.5196 32.685 43.8626 32.2603 50.2546C32.2603 50.2546 31.7358 53.5953 32.1758 57.5796C32.3236 58.9184 33.6148 60 35.0177 60H65.066C66.4688 60 67.7282 58.9147 67.8562 57.5741C68.1979 54.0037 67.8232 50.2546 67.8232 50.2546ZM55.3066 42.1853L55.769 42.6784L55.8802 42.7968L56.019 42.8835L56.4253 43.1375L53.3073 47.4389L52.0852 45.5025L52.0352 45.4234L51.9734 45.3524C51.8766 45.2413 51.8691 45.0217 51.9484 44.8893L55.3066 42.1853ZM50.7913 47.2028H49.2699L48.8127 46.4233L48.9938 46.1364C49.1122 46.0004 49.1993 45.8444 49.2616 45.6794H50.7385C50.8007 45.8444 50.8878 46.0004 51.0063 46.1364L51.212 46.4624L50.7913 47.2028ZM51.8918 54.9245C51.9102 54.9924 51.8551 55.1579 51.7834 55.2106L50.2737 56.3192C50.2299 56.3513 50.1035 56.3515 50.0597 56.319L48.5501 55.2108C48.4698 55.1518 48.4059 54.9724 48.4248 54.8894L49.8131 48.4216H50.2165L51.8918 54.9245ZM51.0362 44.0363C50.9205 44.1621 50.834 44.3073 50.768 44.4607H49.232C49.166 44.3073 49.0795 44.1621 48.9638 44.0363L45.356 41.1316C45.5062 40.8818 45.6339 40.6311 45.7433 40.3862C46.9686 41.2494 48.4237 41.7183 49.8765 41.7183C51.2846 41.7183 52.6893 41.2794 53.8786 40.3361C53.9893 40.2481 54.0966 40.1559 54.2041 40.0637C54.3332 40.3925 54.4971 40.7398 54.7011 41.0856L51.0362 44.0363ZM43.4876 25.1072C43.7484 25.023 43.9735 24.8591 44.1289 24.6402C44.1462 24.616 45.8864 22.2182 49.2224 22.2179H49.2229C50.287 22.2179 51.42 22.4644 52.5906 22.9506C52.6 22.9545 52.6094 22.9583 52.619 22.9621C52.9786 23.1013 56.1949 24.3236 58.3638 24.3236C58.3843 24.3236 58.4046 24.3236 58.4248 24.3233C58.7382 25.9469 58.5558 28.3988 55.2315 29.6832C55.2162 29.689 53.6774 30.2613 51.786 30.2613C49.9107 30.2613 48.3648 29.7107 47.1911 28.6247C46.9519 28.4034 46.6372 28.2856 46.3166 28.2856C46.1748 28.2856 46.0318 28.3087 45.8937 28.356C45.4433 28.5106 45.1219 28.8969 45.0632 29.3545L44.9823 29.9859L44.5823 29.7143C44.3636 29.5657 44.1092 29.492 43.8552 29.492C43.5725 29.492 43.2903 29.5834 43.0591 29.7644C42.8126 29.9575 42.5245 30.2484 42.2606 30.6218C41.9425 28.3704 41.9875 25.5918 43.4876 25.1072ZM42.7674 33.684C42.4206 31.8397 43.8551 30.7108 43.8551 30.7108L45.5549 31.8655C45.6497 31.939 45.7383 31.9741 45.8132 31.9741C45.9512 31.9741 46.0429 31.8551 46.0429 31.6382L46.3168 29.5045C47.9888 31.0515 50.0332 31.4801 51.786 31.4801C53.9659 31.4801 55.6948 30.817 55.6948 30.817C56.605 30.4654 57.3219 30.038 57.8844 29.5667C57.8876 29.6472 57.8947 29.7272 57.8947 29.8082C57.8947 30.6074 57.7794 31.4183 57.5521 32.2184C56.7065 35.1936 55.0751 37.8093 53.0765 39.3946C52.1651 40.1175 51.0586 40.4996 49.8765 40.4996C48.2289 40.4996 46.6276 39.7765 45.4831 38.5158C44.3061 37.2194 43.3561 35.491 42.7674 33.684ZM43.9811 42.8835L44.1198 42.7968L44.231 42.6784L44.6934 42.1853L48.0516 44.8893C48.1309 45.0217 48.1235 45.2413 48.0267 45.3524L47.9648 45.4234L47.9149 45.5025L46.6927 47.4389L43.5748 43.1375L43.9811 42.8835ZM66.5983 57.4624C66.5314 58.1649 65.8152 58.7812 65.066 58.7812H35.0177C34.2511 58.7812 33.5101 58.1594 33.4319 57.4505C33.0159 53.6835 33.5044 50.4684 33.5093 50.4372L33.5175 50.3851L33.5209 50.3326C33.8752 44.9997 41.5153 43.7351 41.5904 43.7232L41.6019 43.7215L41.6133 43.7195C41.8663 43.6759 42.1024 43.615 42.3292 43.5456L45.8809 48.4455C46.0665 48.8321 46.3606 49.031 46.673 49.031C46.9229 49.031 47.1846 48.9036 47.4117 48.6428L48.0604 47.6151L48.5259 48.4088L47.1892 54.636C47.0651 55.186 47.3155 55.8355 47.7849 56.1806L49.2946 57.289C49.5433 57.4717 49.8549 57.563 50.1667 57.563C50.4785 57.563 50.7902 57.4716 51.0387 57.289L52.5487 56.1803C53.0183 55.8351 53.2615 55.1632 53.116 54.6239L51.5182 48.4216H51.5395L51.9702 47.6634L52.5883 48.6428C52.8154 48.9036 53.0771 49.031 53.327 49.031C53.6394 49.031 53.9335 48.8321 54.1191 48.4455L57.6855 43.5252C57.9325 43.6043 58.192 43.6716 58.4703 43.7195L58.4817 43.7214L58.4931 43.7232C58.5703 43.7351 66.2064 44.9744 66.5627 50.3326L66.5639 50.3522L66.566 50.3716C66.5695 50.408 66.9254 54.0457 66.5983 57.4624Z" fill="white"/>
<path d="M23.9296 68.224C24.1696 68.048 24.5256 67.88 24.9976 67.72C25.4696 67.56 26.0416 67.48 26.7136 67.48C27.1856 67.48 27.6136 67.524 27.9976 67.612C28.3816 67.692 28.7096 67.82 28.9816 67.996C29.2616 68.164 29.4736 68.38 29.6176 68.644C29.7696 68.908 29.8456 69.224 29.8456 69.592C29.8456 70.56 29.3496 71.22 28.3576 71.572C29.6376 71.764 30.2776 72.42 30.2776 73.54C30.2776 73.9 30.2056 74.24 30.0616 74.56C29.9176 74.872 29.7016 75.144 29.4136 75.376C29.1256 75.6 28.7656 75.78 28.3336 75.916C27.9096 76.052 27.4176 76.12 26.8576 76.12C26.4736 76.12 26.1136 76.088 25.7776 76.024C25.4496 75.968 25.1496 75.892 24.8776 75.796C24.6136 75.692 24.3816 75.58 24.1816 75.46C23.9896 75.332 23.8376 75.204 23.7256 75.076V73.228C23.8536 73.444 24.0176 73.644 24.2176 73.828C24.4176 74.012 24.6496 74.172 24.9136 74.308C25.1776 74.444 25.4736 74.552 25.8016 74.632C26.1376 74.704 26.4976 74.74 26.8816 74.74C27.1376 74.74 27.3776 74.712 27.6016 74.656C27.8256 74.6 28.0176 74.52 28.1776 74.416C28.3456 74.304 28.4776 74.168 28.5736 74.008C28.6696 73.848 28.7176 73.66 28.7176 73.444C28.7176 73.068 28.5696 72.792 28.2736 72.616C27.9856 72.44 27.5136 72.352 26.8576 72.352H25.5856V71.116H26.8456C27.1176 71.116 27.3456 71.088 27.5296 71.032C27.7136 70.968 27.8616 70.884 27.9736 70.78C28.0856 70.676 28.1656 70.556 28.2136 70.42C28.2696 70.284 28.2976 70.136 28.2976 69.976C28.2976 69.784 28.2576 69.62 28.1776 69.484C28.0976 69.34 27.9856 69.224 27.8416 69.136C27.6976 69.048 27.5296 68.984 27.3376 68.944C27.1456 68.896 26.9376 68.868 26.7136 68.86C26.3936 68.852 26.0896 68.888 25.8016 68.968C25.5216 69.048 25.2616 69.16 25.0216 69.304C24.7896 69.44 24.5776 69.596 24.3856 69.772C24.2016 69.948 24.0496 70.128 23.9296 70.312V68.224ZM31.9023 70.42C32.1023 70.268 32.3783 70.14 32.7303 70.036C33.0903 69.932 33.5303 69.88 34.0503 69.88C34.9303 69.88 35.5863 70.044 36.0183 70.372C36.4503 70.7 36.6663 71.256 36.6663 72.04V76H35.3463V74.92C35.2023 75.272 34.9543 75.556 34.6023 75.772C34.2583 75.988 33.8463 76.096 33.3663 76.096C32.7583 76.096 32.2823 75.936 31.9383 75.616C31.6023 75.288 31.4343 74.828 31.4343 74.236C31.4343 73.892 31.4943 73.608 31.6143 73.384C31.7343 73.16 31.9023 72.984 32.1183 72.856C32.3343 72.72 32.5943 72.624 32.8983 72.568C33.2023 72.512 33.5383 72.484 33.9062 72.484H35.2623V72.22C35.2623 71.796 35.1583 71.504 34.9503 71.344C34.7503 71.184 34.4503 71.104 34.0503 71.104C33.4983 71.104 33.0543 71.204 32.7183 71.404C32.3823 71.596 32.1103 71.852 31.9023 72.172V70.42ZM33.8103 74.836C34.0503 74.836 34.2543 74.808 34.4223 74.752C34.5983 74.688 34.7463 74.612 34.8663 74.524C34.9863 74.428 35.0783 74.324 35.1423 74.212C35.2063 74.1 35.2463 73.992 35.2623 73.888V73.396H34.0742C33.6583 73.396 33.3503 73.444 33.1503 73.54C32.9503 73.636 32.8503 73.82 32.8503 74.092C32.8503 74.324 32.9303 74.508 33.0903 74.644C33.2583 74.772 33.4983 74.836 33.8103 74.836ZM38.2856 70H39.6896V72.34H40.6616L42.3416 70H43.9016L41.8016 72.832L44.2376 76H42.5336L40.6496 73.516H39.6896V76H38.2856V70ZM45.3554 70.42C45.5554 70.268 45.8314 70.14 46.1834 70.036C46.5434 69.932 46.9834 69.88 47.5034 69.88C48.3834 69.88 49.0394 70.044 49.4714 70.372C49.9034 70.7 50.1194 71.256 50.1194 72.04V76H48.7994V74.92C48.6554 75.272 48.4074 75.556 48.0554 75.772C47.7114 75.988 47.2994 76.096 46.8194 76.096C46.2114 76.096 45.7354 75.936 45.3914 75.616C45.0554 75.288 44.8874 74.828 44.8874 74.236C44.8874 73.892 44.9474 73.608 45.0674 73.384C45.1874 73.16 45.3554 72.984 45.5714 72.856C45.7874 72.72 46.0474 72.624 46.3514 72.568C46.6554 72.512 46.9914 72.484 47.3594 72.484H48.7154V72.22C48.7154 71.796 48.6114 71.504 48.4034 71.344C48.2034 71.184 47.9034 71.104 47.5034 71.104C46.9514 71.104 46.5074 71.204 46.1714 71.404C45.8354 71.596 45.5634 71.852 45.3554 72.172V70.42ZM47.2634 74.836C47.5034 74.836 47.7074 74.808 47.8754 74.752C48.0514 74.688 48.1994 74.612 48.3194 74.524C48.4394 74.428 48.5314 74.324 48.5954 74.212C48.6594 74.1 48.6994 73.992 48.7154 73.888V73.396H47.5274C47.1114 73.396 46.8034 73.444 46.6034 73.54C46.4034 73.636 46.3034 73.82 46.3034 74.092C46.3034 74.324 46.3834 74.508 46.5434 74.644C46.7114 74.772 46.9514 74.836 47.2634 74.836ZM51.4387 73.948C51.6147 74.212 51.8947 74.436 52.2787 74.62C52.6627 74.804 53.1387 74.896 53.7067 74.896C54.1067 74.896 54.4227 74.836 54.6547 74.716C54.8867 74.596 55.0027 74.408 55.0027 74.152C55.0027 73.92 54.9107 73.752 54.7267 73.648C54.5427 73.544 54.2467 73.492 53.8387 73.492H52.8067V72.472H53.6587C53.9867 72.472 54.2467 72.42 54.4387 72.316C54.6387 72.204 54.7387 72.02 54.7387 71.764C54.7387 71.556 54.6627 71.396 54.5107 71.284C54.3667 71.172 54.1107 71.112 53.7427 71.104C53.2387 71.104 52.8027 71.204 52.4347 71.404C52.0747 71.596 51.7787 71.852 51.5467 72.172V70.42C51.7787 70.268 52.0867 70.14 52.4707 70.036C52.8547 69.932 53.2787 69.88 53.7427 69.88H53.7907C54.6227 69.88 55.2267 70.024 55.6027 70.312C55.9787 70.592 56.1667 70.968 56.1667 71.44C56.1667 71.824 56.0747 72.12 55.8907 72.328C55.7147 72.536 55.4747 72.704 55.1707 72.832C55.5787 72.912 55.8867 73.06 56.0947 73.276C56.3107 73.484 56.4187 73.792 56.4187 74.2C56.4187 74.512 56.3507 74.788 56.2147 75.028C56.0867 75.268 55.9027 75.472 55.6627 75.64C55.4307 75.8 55.1467 75.92 54.8107 76C54.4827 76.08 54.1147 76.12 53.7067 76.12C53.4427 76.12 53.1907 76.096 52.9507 76.048C52.7107 76.008 52.4907 75.952 52.2907 75.88C52.0907 75.808 51.9147 75.732 51.7627 75.652C51.6187 75.564 51.5107 75.476 51.4387 75.388V73.948ZM61.3513 73.888C61.1433 74.008 60.9033 74.096 60.6313 74.152C60.3593 74.208 60.0833 74.236 59.8033 74.236C59.0833 74.236 58.5193 74.068 58.1113 73.732C57.7033 73.396 57.4993 72.868 57.4993 72.148V70H58.9033V71.932C58.9033 72.292 58.9993 72.56 59.1913 72.736C59.3913 72.904 59.6793 72.988 60.0553 72.988C60.5513 72.988 60.9833 72.896 61.3513 72.712V70H62.7553V76H61.3513V73.888ZM64.4656 70H65.8576V74.068L68.7376 70H70.0696V76H68.6776V71.884L65.7976 76H64.4656V70ZM71.7778 70H73.1818V72.34H74.1538L75.8338 70H77.3938L75.2938 72.832L77.7298 76H76.0258L74.1418 73.516H73.1818V76H71.7778V70Z" fill="white"/>
<path d="M301.3 48.4065C301.218 48.4525 299.298 49.5553 297.935 50.6221C297.607 50.8767 297.536 51.3668 297.772 51.7164C297.914 51.9274 298.137 52.041 298.361 52.041C298.51 52.041 298.66 51.9919 298.788 51.8909C300.07 50.8922 301.966 49.8039 301.982 49.7914C302.338 49.5893 302.472 49.1142 302.284 48.7311C302.094 48.345 301.65 48.207 301.3 48.4065ZM291.353 30.5034C291.123 30.7365 285.697 36.3354 286.935 48.6821C286.978 49.0832 287.294 49.3808 287.661 49.3808C287.686 49.3808 287.712 49.3808 287.74 49.3773C288.139 49.3288 288.429 48.9422 288.387 48.5101C287.228 36.9996 292.298 31.7007 292.349 31.6487C292.642 31.3517 292.657 30.855 292.38 30.5394C292.105 30.2214 291.65 30.2094 291.353 30.5034ZM320.885 39.6018C320.569 38.655 319.707 38.1494 319.178 37.9193C315.12 21.8212 305.701 21 303.842 21L303.634 21.0065C294.043 21.0065 289.062 27.5582 288.908 27.7727C283.061 34.0674 282.754 44.9952 282.742 46.6961C281.24 49.6383 279.528 51.8629 279.483 51.9274C279.013 52.6236 278.882 53.3953 279.107 54.1675C279.833 56.6741 284.302 58.4271 284.789 58.6111C287.024 59.5339 289.102 60 290.966 60C294.24 60 295.777 58.5471 295.757 58.5471C302.003 54.4096 307.776 49.8129 307.748 49.8129C315.118 46.203 319.684 43.4112 320.407 42.0844C321.121 40.9961 321.062 40.1349 320.885 39.6018ZM319.152 41.2907C319.106 41.3642 317.913 43.1107 307.01 48.468C306.954 48.5141 301.212 53.0927 294.889 57.2973C294.878 57.3063 293.657 58.4306 290.966 58.4306C289.281 58.4306 287.377 57.999 285.293 57.1373C283.645 56.5151 280.884 55.0322 280.496 53.6989C280.439 53.5023 280.408 53.2268 280.633 52.8897C280.692 52.8132 281.834 51.3178 283.095 49.1387C283.189 49.8834 283.283 50.3185 283.292 50.3615C283.317 50.4751 283.365 50.5821 283.434 50.6711C285.74 53.7329 291.527 54.4436 291.772 54.4711C291.8 54.4771 291.826 54.4771 291.851 54.4771C292.073 54.4771 292.284 54.3671 292.424 54.177C292.58 53.9655 292.623 53.6804 292.537 53.4263C291.311 49.7669 292.526 46.0224 292.537 45.9824C292.671 45.5748 292.475 45.1277 292.096 44.9802C291.729 44.8391 291.305 45.0442 291.166 45.4523C291.115 45.6083 290.01 48.9827 290.827 52.7246C289.179 52.3936 286.116 51.5693 284.675 49.8224C284.564 49.2152 284.231 47.0707 284.365 43.9694C284.735 40.0744 285.962 33.1636 289.993 28.818C290.038 28.757 294.735 22.5754 303.634 22.5754C303.648 22.5754 303.828 22.5724 303.842 22.5694C305.53 22.5694 314.138 23.3476 317.868 38.726C317.936 38.9986 318.136 39.2132 318.389 39.2867C318.68 39.3662 319.369 39.6943 319.513 40.1354C319.624 40.466 319.402 40.8981 319.152 41.2907ZM313.86 40.4505C313.777 40.4965 311.858 41.5998 310.495 42.6661C310.167 42.9206 310.096 43.4107 310.333 43.7598C310.475 43.9714 310.697 44.0849 310.922 44.0849C311.07 44.0849 311.221 44.0359 311.349 43.9349C312.63 42.9361 314.526 41.8478 314.543 41.8353C314.899 41.6333 315.033 41.1582 314.845 40.7751C314.654 40.3865 314.21 40.2549 313.86 40.4505Z" fill="white"/>
<path d="M263.826 73.876L268.41 67.6H270.042V76H268.542V69.628L263.934 76H262.326V67.6H263.826V73.876ZM276.765 75.4C276.629 75.568 276.385 75.732 276.033 75.892C275.681 76.052 275.261 76.132 274.773 76.132C274.293 76.132 273.857 76.068 273.465 75.94C273.073 75.804 272.737 75.604 272.457 75.34C272.177 75.076 271.961 74.748 271.809 74.356C271.657 73.964 271.581 73.504 271.581 72.976C271.581 72.464 271.657 72.016 271.809 71.632C271.969 71.24 272.189 70.916 272.469 70.66C272.749 70.396 273.085 70.2 273.477 70.072C273.869 69.936 274.305 69.868 274.785 69.868C275.193 69.876 275.565 69.932 275.901 70.036C276.237 70.14 276.505 70.268 276.705 70.42V72.172C276.497 71.852 276.233 71.596 275.913 71.404C275.601 71.204 275.225 71.1 274.785 71.092C274.209 71.092 273.769 71.244 273.465 71.548C273.161 71.852 273.009 72.308 273.009 72.916V73.096C273.009 73.72 273.165 74.18 273.477 74.476C273.797 74.764 274.241 74.908 274.809 74.908C275.313 74.908 275.725 74.816 276.045 74.632C276.373 74.448 276.613 74.224 276.765 73.96V75.4ZM282.067 71.236H279.451V76H278.047V70H283.471V76H282.067V71.236ZM287.848 76.132C287.376 76.132 286.952 76.068 286.576 75.94C286.2 75.804 285.876 75.604 285.604 75.34C285.332 75.076 285.124 74.748 284.98 74.356C284.836 73.964 284.764 73.504 284.764 72.976C284.764 72.456 284.84 72.004 284.992 71.62C285.144 71.228 285.356 70.904 285.628 70.648C285.9 70.384 286.228 70.188 286.612 70.06C286.996 69.932 287.424 69.868 287.896 69.868C288.36 69.868 288.78 69.936 289.156 70.072C289.54 70.208 289.864 70.408 290.128 70.672C290.4 70.936 290.608 71.264 290.752 71.656C290.896 72.048 290.968 72.504 290.968 73.024C290.968 73.544 290.892 74 290.74 74.392C290.588 74.776 290.376 75.096 290.104 75.352C289.832 75.608 289.504 75.804 289.12 75.94C288.736 76.068 288.312 76.132 287.848 76.132ZM286.192 73.012C286.192 73.676 286.34 74.16 286.636 74.464C286.932 74.76 287.344 74.908 287.872 74.908C288.408 74.908 288.82 74.756 289.108 74.452C289.396 74.14 289.54 73.664 289.54 73.024V72.988C289.54 72.324 289.388 71.844 289.084 71.548C288.788 71.244 288.376 71.092 287.848 71.092C287.312 71.1 286.9 71.26 286.612 71.572C286.332 71.876 286.192 72.344 286.192 72.976V73.012ZM296.115 71.236H294.171L294.135 71.992C294.095 72.928 294.011 73.668 293.883 74.212C293.763 74.756 293.611 75.168 293.427 75.448C293.243 75.72 293.039 75.892 292.815 75.964C292.591 76.036 292.363 76.072 292.131 76.072C292.019 76.072 291.907 76.064 291.795 76.048C291.691 76.04 291.607 76.028 291.543 76.012V74.56C291.639 74.592 291.743 74.608 291.855 74.608C291.983 74.608 292.103 74.584 292.215 74.536C292.335 74.48 292.439 74.344 292.527 74.128C292.615 73.912 292.687 73.584 292.743 73.144C292.807 72.704 292.851 72.092 292.875 71.308L292.923 70H297.507V76H296.115V71.236ZM303.339 73.576H300.627V76H299.223V70H300.627V72.34H303.339V70H304.743V76H303.339V73.576ZM306.454 70H307.846V74.068L310.726 70H312.058V76H310.666V71.884L307.786 76H306.454V70ZM315.134 71.236H313.214V70H318.47V71.236H316.526V76H315.134V71.236ZM324.581 75.4C324.509 75.488 324.405 75.576 324.269 75.664C324.133 75.744 323.969 75.82 323.777 75.892C323.585 75.964 323.369 76.02 323.129 76.06C322.897 76.1 322.645 76.12 322.373 76.12C321.373 76.128 320.597 75.868 320.045 75.34C319.493 74.804 319.217 74.016 319.217 72.976C319.217 72.48 319.289 72.04 319.433 71.656C319.585 71.264 319.797 70.936 320.069 70.672C320.341 70.408 320.661 70.208 321.029 70.072C321.405 69.936 321.821 69.868 322.277 69.868C323.149 69.876 323.829 70.136 324.317 70.648C324.813 71.16 325.061 71.888 325.061 72.832V73.408H320.609C320.721 74.408 321.325 74.908 322.421 74.908C322.973 74.908 323.429 74.816 323.789 74.632C324.157 74.448 324.421 74.224 324.581 73.96V75.4ZM322.241 71.092C321.785 71.092 321.421 71.204 321.149 71.428C320.877 71.652 320.705 71.98 320.633 72.412H323.657C323.641 72.004 323.509 71.684 323.261 71.452C323.013 71.212 322.673 71.092 322.241 71.092ZM330.123 71.236H328.179L328.143 71.992C328.103 72.928 328.019 73.668 327.891 74.212C327.771 74.756 327.619 75.168 327.435 75.448C327.251 75.72 327.047 75.892 326.823 75.964C326.599 76.036 326.371 76.072 326.139 76.072C326.027 76.072 325.915 76.064 325.803 76.048C325.699 76.04 325.615 76.028 325.551 76.012V74.56C325.647 74.592 325.751 74.608 325.863 74.608C325.991 74.608 326.111 74.584 326.223 74.536C326.343 74.48 326.447 74.344 326.535 74.128C326.623 73.912 326.695 73.584 326.751 73.144C326.815 72.704 326.859 72.092 326.883 71.308L326.931 70H331.515V76H330.123V71.236ZM338.343 73.816C338.335 74.584 338.119 75.14 337.695 75.484C337.271 75.828 336.587 76 335.643 76H333.231V70H334.635V71.776H335.799C336.207 71.776 336.567 71.808 336.879 71.872C337.199 71.936 337.467 72.048 337.683 72.208C337.899 72.36 338.063 72.568 338.175 72.832C338.287 73.096 338.343 73.424 338.343 73.816ZM336.939 73.804C336.923 73.492 336.823 73.284 336.639 73.18C336.463 73.068 336.147 73.012 335.691 73.012H334.635V74.764H335.607C336.087 74.764 336.427 74.696 336.627 74.56C336.835 74.416 336.939 74.164 336.939 73.804Z" fill="white"/>
<path d="M235.354 55.3536C235.549 55.1583 235.549 54.8417 235.354 54.6465L232.172 51.4645C231.976 51.2692 231.66 51.2692 231.464 51.4645C231.269 51.6597 231.269 51.9763 231.464 52.1716L234.293 55L231.464 57.8284C231.269 58.0237 231.269 58.3403 231.464 58.5355C231.66 58.7308 231.976 58.7308 232.172 58.5355L235.354 55.3536ZM175 55.5L177.5 55.5L177.5 54.5L175 54.5L175 55.5ZM182.5 55.5L187.5 55.5L187.5 54.5L182.5 54.5L182.5 55.5ZM192.5 55.5L197.5 55.5L197.5 54.5L192.5 54.5L192.5 55.5ZM202.5 55.5L207.5 55.5L207.5 54.5L202.5 54.5L202.5 55.5ZM212.5 55.5L217.5 55.5L217.5 54.5L212.5 54.5L212.5 55.5ZM222.5 55.5L227.5 55.5L227.5 54.5L222.5 54.5L222.5 55.5ZM232.5 55.5L235 55.5L235 54.5L232.5 54.5L232.5 55.5ZM235.707 55.7071C236.098 55.3166 236.098 54.6834 235.707 54.2929L229.343 47.9289C228.953 47.5384 228.319 47.5384 227.929 47.9289C227.538 48.3195 227.538 48.9526 227.929 49.3432L233.586 55L227.929 60.6569C227.538 61.0474 227.538 61.6805 227.929 62.0711C228.319 62.4616 228.953 62.4616 229.343 62.0711L235.707 55.7071ZM175 56L177.5 56L177.5 54L175 54L175 56ZM182.5 56L187.5 56L187.5 54L182.5 54L182.5 56ZM192.5 56L197.5 56L197.5 54L192.5 54L192.5 56ZM202.5 56L207.5 56L207.5 54L202.5 54L202.5 56ZM212.5 56L217.5 56L217.5 54L212.5 54L212.5 56ZM222.5 56L227.5 56L227.5 54L222.5 54L222.5 56ZM232.5 56L235 56L235 54L232.5 54L232.5 56Z" fill="#404040"/>
<path d="M114.646 55.3536C114.451 55.1583 114.451 54.8417 114.646 54.6464L117.828 51.4645C118.024 51.2692 118.34 51.2692 118.536 51.4645C118.731 51.6597 118.731 51.9763 118.536 52.1716L115.707 55L118.536 57.8284C118.731 58.0237 118.731 58.3403 118.536 58.5355C118.34 58.7308 118.024 58.7308 117.828 58.5355L114.646 55.3536ZM175 55.5H172.5V54.5H175V55.5ZM167.5 55.5H162.5V54.5H167.5V55.5ZM157.5 55.5H152.5V54.5H157.5V55.5ZM147.5 55.5H142.5V54.5H147.5V55.5ZM137.5 55.5H132.5V54.5H137.5V55.5ZM127.5 55.5H122.5V54.5H127.5V55.5ZM117.5 55.5H115V54.5H117.5V55.5ZM114.293 55.7071C113.902 55.3166 113.902 54.6834 114.293 54.2929L120.657 47.9289C121.047 47.5384 121.681 47.5384 122.071 47.9289C122.462 48.3195 122.462 48.9526 122.071 49.3431L116.414 55L122.071 60.6569C122.462 61.0474 122.462 61.6805 122.071 62.0711C121.681 62.4616 121.047 62.4616 120.657 62.0711L114.293 55.7071ZM175 56H172.5V54H175V56ZM167.5 56H162.5V54H167.5V56ZM157.5 56H152.5V54H157.5V56ZM147.5 56H142.5V54H147.5V56ZM137.5 56H132.5V54H137.5V56ZM127.5 56H122.5V54H127.5V56ZM117.5 56H115V54H117.5V56Z" fill="#404040"/>
<path d="M142.634 28.88C142.914 28.1987 143.156 27.3027 143.362 26.192C143.576 25.072 143.693 23.7513 143.712 22.23L143.74 20.2H150.32V28.88H151.58V31.82H150.404V30H142.634V31.82H141.458V28.88H142.634ZM144.832 22.272C144.813 22.9253 144.776 23.5647 144.72 24.19C144.673 24.806 144.608 25.3987 144.524 25.968C144.44 26.528 144.337 27.0553 144.216 27.55C144.094 28.0447 143.964 28.488 143.824 28.88H149.06V21.32H144.846L144.832 22.272ZM152.517 26.472C152.517 25.8653 152.605 25.338 152.783 24.89C152.96 24.4327 153.203 24.0547 153.511 23.756C153.819 23.4573 154.183 23.2333 154.603 23.084C155.023 22.9347 155.48 22.86 155.975 22.86C157.076 22.8693 157.93 23.1773 158.537 23.784C159.143 24.3907 159.447 25.3053 159.447 26.528C159.447 27.1347 159.358 27.6667 159.181 28.124C159.003 28.572 158.761 28.9453 158.453 29.244C158.145 29.5427 157.781 29.7667 157.361 29.916C156.941 30.0653 156.483 30.14 155.989 30.14C154.878 30.1307 154.019 29.8273 153.413 29.23C152.815 28.6233 152.517 27.704 152.517 26.472ZM153.693 26.514C153.693 27.4193 153.889 28.082 154.281 28.502C154.673 28.922 155.242 29.132 155.989 29.132C156.726 29.132 157.291 28.9173 157.683 28.488C158.075 28.0493 158.271 27.396 158.271 26.528V26.486C158.271 25.59 158.07 24.932 157.669 24.512C157.277 24.092 156.712 23.8773 155.975 23.868C155.237 23.868 154.673 24.0873 154.281 24.526C153.889 24.9553 153.693 25.604 153.693 26.472V26.514ZM161.156 23H165.832V24.036H162.318V30H161.156V23ZM167.118 26.472C167.118 25.8653 167.207 25.338 167.384 24.89C167.562 24.4327 167.804 24.0547 168.112 23.756C168.42 23.4573 168.784 23.2333 169.204 23.084C169.624 22.9347 170.082 22.86 170.576 22.86C171.678 22.8693 172.532 23.1773 173.138 23.784C173.745 24.3907 174.048 25.3053 174.048 26.528C174.048 27.1347 173.96 27.6667 173.782 28.124C173.605 28.572 173.362 28.9453 173.054 29.244C172.746 29.5427 172.382 29.7667 171.962 29.916C171.542 30.0653 171.085 30.14 170.59 30.14C169.48 30.1307 168.621 29.8273 168.014 29.23C167.417 28.6233 167.118 27.704 167.118 26.472ZM168.294 26.514C168.294 27.4193 168.49 28.082 168.882 28.502C169.274 28.922 169.844 29.132 170.59 29.132C171.328 29.132 171.892 28.9173 172.284 28.488C172.676 28.0493 172.872 27.396 172.872 26.528V26.486C172.872 25.59 172.672 24.932 172.27 24.512C171.878 24.092 171.314 23.8773 170.576 23.868C169.839 23.868 169.274 24.0873 168.882 24.526C168.49 24.9553 168.294 25.604 168.294 26.472V26.514ZM175.758 23H178.88C179.766 23 180.382 23.14 180.728 23.42C181.082 23.6907 181.26 24.078 181.26 24.582C181.26 25.03 181.152 25.394 180.938 25.674C180.732 25.9447 180.438 26.1267 180.056 26.22C180.28 26.248 180.485 26.2947 180.672 26.36C180.868 26.4253 181.031 26.5233 181.162 26.654C181.302 26.7847 181.409 26.9527 181.484 27.158C181.568 27.3633 181.61 27.62 181.61 27.928C181.61 28.628 181.386 29.1507 180.938 29.496C180.49 29.832 179.785 30 178.824 30H175.758V23ZM178.81 28.992C179.388 28.992 179.804 28.908 180.056 28.74C180.317 28.5627 180.448 28.2967 180.448 27.942C180.448 27.522 180.322 27.242 180.07 27.102C179.818 26.9527 179.468 26.878 179.02 26.878H176.92V28.992H178.81ZM178.642 25.884C179.08 25.884 179.43 25.8093 179.692 25.66C179.953 25.5107 180.084 25.24 180.084 24.848C180.084 24.5027 179.972 24.2787 179.748 24.176C179.524 24.064 179.188 24.008 178.74 24.008L176.92 24.022V25.884H178.642ZM182.827 26.472C182.827 25.8653 182.916 25.338 183.093 24.89C183.271 24.4327 183.513 24.0547 183.821 23.756C184.129 23.4573 184.493 23.2333 184.913 23.084C185.333 22.9347 185.791 22.86 186.285 22.86C187.387 22.8693 188.241 23.1773 188.847 23.784C189.454 24.3907 189.757 25.3053 189.757 26.528C189.757 27.1347 189.669 27.6667 189.491 28.124C189.314 28.572 189.071 28.9453 188.763 29.244C188.455 29.5427 188.091 29.7667 187.671 29.916C187.251 30.0653 186.794 30.14 186.299 30.14C185.189 30.1307 184.33 29.8273 183.723 29.23C183.126 28.6233 182.827 27.704 182.827 26.472ZM184.003 26.514C184.003 27.4193 184.199 28.082 184.591 28.502C184.983 28.922 185.553 29.132 186.299 29.132C187.037 29.132 187.601 28.9173 187.993 28.488C188.385 28.0493 188.581 27.396 188.581 26.528V26.486C188.581 25.59 188.381 24.932 187.979 24.512C187.587 24.092 187.023 23.8773 186.285 23.868C185.548 23.868 184.983 24.0873 184.591 24.526C184.199 24.9553 184.003 25.604 184.003 26.472V26.514ZM191.467 23H192.573V24.344C192.75 23.9333 193.049 23.5833 193.469 23.294C193.889 23.0047 194.453 22.86 195.163 22.86C196.096 22.86 196.838 23.1353 197.389 23.686C197.939 24.2367 198.215 25.1233 198.215 26.346C198.215 27.0367 198.14 27.6247 197.991 28.11C197.851 28.586 197.641 28.978 197.361 29.286C197.09 29.5847 196.759 29.804 196.367 29.944C195.975 30.084 195.527 30.154 195.023 30.154C194.435 30.154 193.935 30.0327 193.525 29.79C193.123 29.538 192.825 29.2487 192.629 28.922V32.52H191.467V23ZM192.629 26.794C192.629 27.522 192.829 28.0913 193.231 28.502C193.641 28.9033 194.178 29.104 194.841 29.104C195.606 29.104 196.161 28.8987 196.507 28.488C196.861 28.0773 197.039 27.3867 197.039 26.416C197.039 25.9493 196.987 25.5573 196.885 25.24C196.782 24.9133 196.633 24.652 196.437 24.456C196.25 24.26 196.021 24.12 195.751 24.036C195.48 23.952 195.181 23.91 194.855 23.91C194.127 23.91 193.576 24.106 193.203 24.498C192.839 24.8807 192.647 25.422 192.629 26.122V26.794ZM199.889 23H201.051V25.254H202.465C202.941 25.254 203.356 25.2867 203.711 25.352C204.075 25.4173 204.378 25.534 204.621 25.702C204.863 25.87 205.045 26.1033 205.167 26.402C205.297 26.6913 205.363 27.0647 205.363 27.522C205.363 27.9793 205.307 28.3667 205.195 28.684C205.083 28.992 204.901 29.244 204.649 29.44C204.406 29.636 204.089 29.7807 203.697 29.874C203.305 29.958 202.833 30 202.283 30H199.889V23ZM206.329 23H207.491V30H206.329V23ZM204.201 27.522C204.191 27.2607 204.154 27.0507 204.089 26.892C204.033 26.7333 203.93 26.612 203.781 26.528C203.641 26.4347 203.449 26.374 203.207 26.346C202.973 26.3087 202.684 26.29 202.339 26.29H201.051V28.964H202.269C202.605 28.964 202.894 28.9453 203.137 28.908C203.379 28.8613 203.58 28.7867 203.739 28.684C203.897 28.572 204.014 28.4227 204.089 28.236C204.163 28.0493 204.201 27.8113 204.201 27.522Z" fill="#404040"/>
<circle cx="297" cy="305" r="50" fill="#5BD595"/>
<path d="M284.096 317.6H290.06V318.98H285.596V320.48H287.24C288.4 320.48 289.268 320.7 289.844 321.14C290.428 321.58 290.72 322.264 290.72 323.192C290.72 323.656 290.636 324.064 290.468 324.416C290.308 324.76 290.072 325.052 289.76 325.292C289.456 325.524 289.088 325.7 288.656 325.82C288.224 325.94 287.74 326 287.204 326H284.096V317.6ZM285.596 321.86V324.62H287.192C287.488 324.62 287.756 324.596 287.996 324.548C288.244 324.5 288.452 324.42 288.62 324.308C288.796 324.196 288.928 324.048 289.016 323.864C289.112 323.672 289.16 323.436 289.16 323.156C289.16 322.652 288.992 322.312 288.656 322.136C288.328 321.952 287.84 321.86 287.192 321.86H285.596ZM292.273 320.42C292.473 320.268 292.749 320.14 293.101 320.036C293.461 319.932 293.901 319.88 294.421 319.88C295.301 319.88 295.957 320.044 296.389 320.372C296.821 320.7 297.037 321.256 297.037 322.04V326H295.717V324.92C295.573 325.272 295.325 325.556 294.973 325.772C294.629 325.988 294.217 326.096 293.737 326.096C293.129 326.096 292.653 325.936 292.309 325.616C291.973 325.288 291.805 324.828 291.805 324.236C291.805 323.892 291.865 323.608 291.985 323.384C292.105 323.16 292.273 322.984 292.489 322.856C292.705 322.72 292.965 322.624 293.269 322.568C293.573 322.512 293.909 322.484 294.277 322.484H295.633V322.22C295.633 321.796 295.529 321.504 295.321 321.344C295.121 321.184 294.821 321.104 294.421 321.104C293.869 321.104 293.425 321.204 293.089 321.404C292.753 321.596 292.481 321.852 292.273 322.172V320.42ZM294.181 324.836C294.421 324.836 294.625 324.808 294.793 324.752C294.969 324.688 295.117 324.612 295.237 324.524C295.357 324.428 295.449 324.324 295.513 324.212C295.577 324.1 295.617 323.992 295.633 323.888V323.396H294.445C294.029 323.396 293.721 323.444 293.521 323.54C293.321 323.636 293.221 323.82 293.221 324.092C293.221 324.324 293.301 324.508 293.461 324.644C293.629 324.772 293.869 324.836 294.181 324.836ZM302.773 323.576H300.061V326H298.657V320H300.061V322.34H302.773V320H304.177V326H302.773V323.576ZM305.875 320H307.279V322.34H308.251L309.931 320H311.491L309.391 322.832L311.827 326H310.123L308.239 323.516H307.279V326H305.875V320Z" fill="white"/>
<path d="M296.872 272.094L279.219 280.594V285.016H315.781V280.57L296.872 272.094ZM313.344 282.578H281.656V282.125L296.909 274.781L313.344 282.149V282.578Z" fill="white" stroke="#5BD595"/>
<path d="M281.656 302.078H313.344V304.516H281.656V302.078Z" fill="white" stroke="#5BD595"/>
<path d="M279.219 306.344H315.781V308.781H279.219V306.344Z" fill="white" stroke="#5BD595"/>
<path d="M282.266 287.453H284.703V299.641H282.266V287.453Z" fill="white" stroke="#5BD595"/>
<path d="M310.297 287.453H312.734V299.641H310.297V287.453Z" fill="white" stroke="#5BD595"/>
<path d="M302.984 287.453H305.422V299.641H302.984V287.453Z" fill="white" stroke="#5BD595"/>
<path d="M289.578 287.453H292.016V299.641H289.578V287.453Z" fill="white" stroke="#5BD595"/>
<path d="M296.281 287.453H298.719V299.641H296.281V287.453Z" fill="white" stroke="#5BD595"/>
<circle cx="51" cy="305" r="50" fill="#5BD595"/>
<path d="M38.0959 317.6H44.0599V318.98H39.5959V320.48H41.2399C42.3999 320.48 43.2679 320.7 43.8439 321.14C44.4279 321.58 44.7199 322.264 44.7199 323.192C44.7199 323.656 44.6359 324.064 44.4679 324.416C44.3079 324.76 44.0719 325.052 43.7599 325.292C43.4559 325.524 43.0879 325.7 42.6559 325.82C42.2239 325.94 41.7399 326 41.2039 326H38.0959V317.6ZM39.5959 321.86V324.62H41.1919C41.4879 324.62 41.7559 324.596 41.9959 324.548C42.2439 324.5 42.4519 324.42 42.6199 324.308C42.7959 324.196 42.9279 324.048 43.0159 323.864C43.1119 323.672 43.1599 323.436 43.1599 323.156C43.1599 322.652 42.9919 322.312 42.6559 322.136C42.3279 321.952 41.8399 321.86 41.1919 321.86H39.5959ZM46.2733 320.42C46.4733 320.268 46.7493 320.14 47.1013 320.036C47.4613 319.932 47.9013 319.88 48.4213 319.88C49.3013 319.88 49.9573 320.044 50.3893 320.372C50.8213 320.7 51.0373 321.256 51.0373 322.04V326H49.7173V324.92C49.5733 325.272 49.3253 325.556 48.9733 325.772C48.6293 325.988 48.2173 326.096 47.7373 326.096C47.1293 326.096 46.6533 325.936 46.3093 325.616C45.9733 325.288 45.8053 324.828 45.8053 324.236C45.8053 323.892 45.8653 323.608 45.9853 323.384C46.1053 323.16 46.2733 322.984 46.4893 322.856C46.7053 322.72 46.9653 322.624 47.2693 322.568C47.5733 322.512 47.9093 322.484 48.2773 322.484H49.6333V322.22C49.6333 321.796 49.5293 321.504 49.3213 321.344C49.1213 321.184 48.8213 321.104 48.4213 321.104C47.8693 321.104 47.4253 321.204 47.0893 321.404C46.7533 321.596 46.4813 321.852 46.2733 322.172V320.42ZM48.1813 324.836C48.4213 324.836 48.6253 324.808 48.7933 324.752C48.9693 324.688 49.1173 324.612 49.2373 324.524C49.3573 324.428 49.4493 324.324 49.5133 324.212C49.5773 324.1 49.6173 323.992 49.6333 323.888V323.396H48.4453C48.0293 323.396 47.7213 323.444 47.5213 323.54C47.3213 323.636 47.2213 323.82 47.2213 324.092C47.2213 324.324 47.3013 324.508 47.4613 324.644C47.6293 324.772 47.8693 324.836 48.1813 324.836ZM56.7727 323.576H54.0607V326H52.6567V320H54.0607V322.34H56.7727V320H58.1767V326H56.7727V323.576ZM59.8754 320H61.2794V322.34H62.2514L63.9314 320H65.4914L63.3914 322.832L65.8274 326H64.1234L62.2394 323.516H61.2794V326H59.8754V320Z" fill="white"/>
<path d="M50.8723 272.094L33.2188 280.594V285.016H69.7812V280.57L50.8723 272.094ZM67.3438 282.578H35.6562V282.125L50.909 274.781L67.3438 282.149V282.578Z" fill="white" stroke="#5BD595"/>
<path d="M35.6562 302.078H67.3438V304.516H35.6562V302.078Z" fill="white" stroke="#5BD595"/>
<path d="M33.2188 306.344H69.7812V308.781H33.2188V306.344Z" fill="white" stroke="#5BD595"/>
<path d="M36.2656 287.453H38.7031V299.641H36.2656V287.453Z" fill="white" stroke="#5BD595"/>
<path d="M64.2969 287.453H66.7344V299.641H64.2969V287.453Z" fill="white" stroke="#5BD595"/>
<path d="M56.9844 287.453H59.4219V299.641H56.9844V287.453Z" fill="white" stroke="#5BD595"/>
<path d="M43.5781 287.453H46.0156V299.641H43.5781V287.453Z" fill="white" stroke="#5BD595"/>
<path d="M50.2812 287.453H52.7188V299.641H50.2812V287.453Z" fill="white" stroke="#5BD595"/>
<path d="M297.354 119.646C297.158 119.451 296.842 119.451 296.646 119.646L293.464 122.828C293.269 123.024 293.269 123.34 293.464 123.536C293.66 123.731 293.976 123.731 294.172 123.536L297 120.707L299.828 123.536C300.024 123.731 300.34 123.731 300.536 123.536C300.731 123.34 300.731 123.024 300.536 122.828L297.354 119.646ZM297.5 180L297.5 177.5L296.5 177.5L296.5 180L297.5 180ZM297.5 172.5L297.5 167.5L296.5 167.5L296.5 172.5L297.5 172.5ZM297.5 162.5L297.5 157.5L296.5 157.5L296.5 162.5L297.5 162.5ZM297.5 152.5L297.5 147.5L296.5 147.5L296.5 152.5L297.5 152.5ZM297.5 142.5L297.5 137.5L296.5 137.5L296.5 142.5L297.5 142.5ZM297.5 132.5L297.5 127.5L296.5 127.5L296.5 132.5L297.5 132.5ZM297.5 122.5L297.5 120L296.5 120L296.5 122.5L297.5 122.5ZM297.707 119.293C297.317 118.902 296.683 118.902 296.293 119.293L289.929 125.657C289.538 126.047 289.538 126.681 289.929 127.071C290.319 127.462 290.953 127.462 291.343 127.071L297 121.414L302.657 127.071C303.047 127.462 303.681 127.462 304.071 127.071C304.462 126.681 304.462 126.047 304.071 125.657L297.707 119.293ZM298 180L298 177.5L296 177.5L296 180L298 180ZM298 172.5L298 167.5L296 167.5L296 172.5L298 172.5ZM298 162.5L298 157.5L296 157.5L296 162.5L298 162.5ZM298 152.5L298 147.5L296 147.5L296 152.5L298 152.5ZM298 142.5L298 137.5L296 137.5L296 142.5L298 142.5ZM298 132.5L298 127.5L296 127.5L296 132.5L298 132.5ZM298 122.5L298 120L296 120L296 122.5L298 122.5Z" fill="#404040"/>
<path d="M297.354 240.354C297.158 240.549 296.842 240.549 296.646 240.354L293.464 237.172C293.269 236.976 293.269 236.66 293.464 236.464C293.66 236.269 293.976 236.269 294.172 236.464L297 239.293L299.828 236.464C300.024 236.269 300.34 236.269 300.536 236.464C300.731 236.66 300.731 236.976 300.536 237.172L297.354 240.354ZM297.5 180L297.5 182.5L296.5 182.5L296.5 180L297.5 180ZM297.5 187.5L297.5 192.5L296.5 192.5L296.5 187.5L297.5 187.5ZM297.5 197.5L297.5 202.5L296.5 202.5L296.5 197.5L297.5 197.5ZM297.5 207.5L297.5 212.5L296.5 212.5L296.5 207.5L297.5 207.5ZM297.5 217.5L297.5 222.5L296.5 222.5L296.5 217.5L297.5 217.5ZM297.5 227.5L297.5 232.5L296.5 232.5L296.5 227.5L297.5 227.5ZM297.5 237.5L297.5 240L296.5 240L296.5 237.5L297.5 237.5ZM297.707 240.707C297.317 241.098 296.683 241.098 296.293 240.707L289.929 234.343C289.538 233.953 289.538 233.319 289.929 232.929C290.319 232.538 290.953 232.538 291.343 232.929L297 238.586L302.657 232.929C303.047 232.538 303.681 232.538 304.071 232.929C304.462 233.319 304.462 233.953 304.071 234.343L297.707 240.707ZM298 180L298 182.5L296 182.5L296 180L298 180ZM298 187.5L298 192.5L296 192.5L296 187.5L298 187.5ZM298 197.5L298 202.5L296 202.5L296 197.5L298 197.5ZM298 207.5L298 212.5L296 212.5L296 207.5L298 207.5ZM298 217.5L298 222.5L296 222.5L296 217.5L298 217.5ZM298 227.5L298 232.5L296 232.5L296 227.5L298 227.5ZM298 237.5L298 240L296 240L296 237.5L298 237.5Z" fill="#404040"/>
<path d="M270.866 200.459C271.015 200.58 271.165 200.753 271.314 200.977C271.463 201.201 271.599 201.467 271.72 201.775C271.841 202.074 271.939 202.414 272.014 202.797C272.098 203.17 272.14 203.572 272.14 204.001C272.14 204.785 272.023 205.494 271.79 206.129C271.547 206.754 271.211 207.286 270.782 207.725C270.343 208.164 269.811 208.504 269.186 208.747C268.561 208.98 267.861 209.097 267.086 209.097C266.358 209.097 265.691 208.98 265.084 208.747C264.468 208.514 263.936 208.178 263.488 207.739C263.04 207.291 262.69 206.754 262.438 206.129C262.186 205.494 262.06 204.776 262.06 203.973C262.06 203.572 262.093 203.198 262.158 202.853C262.214 202.508 262.293 202.2 262.396 201.929C262.489 201.649 262.597 201.406 262.718 201.201C262.83 200.996 262.942 200.837 263.054 200.725L265.028 200.725C264.795 200.865 264.571 201.042 264.356 201.257C264.132 201.472 263.936 201.719 263.768 201.999C263.591 202.279 263.451 202.587 263.348 202.923C263.236 203.259 263.18 203.609 263.18 203.973C263.18 204.561 263.273 205.093 263.46 205.569C263.647 206.036 263.913 206.432 264.258 206.759C264.603 207.086 265.019 207.338 265.504 207.515C265.98 207.692 266.512 207.781 267.1 207.781C267.651 207.781 268.164 207.702 268.64 207.543C269.107 207.384 269.517 207.151 269.872 206.843C270.217 206.526 270.493 206.134 270.698 205.667C270.903 205.2 271.011 204.664 271.02 204.057C271.02 203.609 270.969 203.198 270.866 202.825C270.754 202.442 270.609 202.102 270.432 201.803C270.245 201.495 270.035 201.229 269.802 201.005C269.559 200.781 269.307 200.599 269.046 200.459L270.866 200.459ZM270.894 198.712C270.633 198.59 270.343 198.483 270.026 198.39C269.709 198.296 269.349 198.217 268.948 198.152C268.537 198.077 268.075 198.021 267.562 197.984C267.049 197.946 266.461 197.928 265.798 197.928L265 197.928L265 193L270.894 193L270.894 191.866L273.82 191.866L273.82 192.972L272 192.972L272 198.446L273.82 198.446L273.82 199.552L270.894 199.552L270.894 198.712ZM266.61 196.836C267.506 196.854 268.295 196.92 268.976 197.032C269.657 197.134 270.297 197.312 270.894 197.564L270.894 194.162L266.036 194.162L266.036 196.822L266.61 196.836ZM264.86 187.485C264.86 186.515 265.149 185.759 265.728 185.217C266.307 184.667 267.119 184.391 268.164 184.391L268.92 184.391L268.92 189.753C269.676 189.697 270.236 189.473 270.6 189.081C270.955 188.689 271.132 188.148 271.132 187.457C271.132 186.785 271.015 186.235 270.782 185.805C270.549 185.376 270.264 185.068 269.928 184.881L271.286 184.881C271.501 185.059 271.697 185.362 271.874 185.791C272.051 186.211 272.14 186.767 272.14 187.457C272.14 188.568 271.837 189.427 271.23 190.033C270.623 190.64 269.704 190.943 268.472 190.943C267.865 190.943 267.338 190.855 266.89 190.677C266.433 190.5 266.055 190.257 265.756 189.949C265.457 189.641 265.233 189.277 265.084 188.857C264.935 188.437 264.86 187.98 264.86 187.485ZM265.868 187.485C265.868 188.148 266.041 188.671 266.386 189.053C266.731 189.436 267.245 189.665 267.926 189.739L267.926 185.553L267.912 185.553C267.24 185.553 266.731 185.735 266.386 186.099C266.041 186.463 265.868 186.925 265.868 187.485ZM266.036 178.259L266.036 180.975L266.568 180.989C267.436 181.017 268.178 181.069 268.794 181.143C269.401 181.218 269.909 181.311 270.32 181.423C270.731 181.535 271.053 181.661 271.286 181.801C271.519 181.941 271.697 182.091 271.818 182.249C271.93 182.408 272 182.571 272.028 182.739C272.065 182.907 272.084 183.075 272.084 183.243C272.084 183.458 272.061 183.645 272.014 183.803L270.768 183.803C270.796 183.682 270.81 183.565 270.81 183.453C270.81 183.332 270.801 183.22 270.782 183.117C270.754 183.005 270.689 182.903 270.586 182.809C270.483 182.707 270.334 182.618 270.138 182.543C269.933 182.459 269.653 182.385 269.298 182.319C268.934 182.254 268.481 182.203 267.94 182.165C267.399 182.119 266.741 182.081 265.966 182.053L265 182.025L265 177.097L272 177.097L272 178.259L266.036 178.259ZM265 174.853L265 173.691L267.926 173.691L267.926 172.431L265 170.233L265 168.903L268.304 171.465L272 168.441L272 169.911L268.92 172.431L268.92 173.691L272 173.691L272 174.853L265 174.853ZM265.532 166.934C265.355 166.701 265.201 166.383 265.07 165.982C264.93 165.571 264.86 165.095 264.86 164.554C264.86 164.106 264.902 163.705 264.986 163.35C265.07 162.995 265.21 162.697 265.406 162.454C265.602 162.202 265.863 162.011 266.19 161.88C266.507 161.749 266.904 161.684 267.38 161.684L272 161.684L272 162.79L270.81 162.79C271.202 162.977 271.519 163.28 271.762 163.7C271.995 164.111 272.112 164.596 272.112 165.156C272.112 165.856 271.93 166.416 271.566 166.836C271.202 167.256 270.661 167.466 269.942 167.466C269.559 167.466 269.242 167.401 268.99 167.27C268.729 167.13 268.523 166.934 268.374 166.682C268.215 166.43 268.108 166.122 268.052 165.758C267.987 165.394 267.954 164.979 267.954 164.512L267.954 162.846L267.394 162.846C267.095 162.846 266.848 162.888 266.652 162.972C266.456 163.056 266.302 163.173 266.19 163.322C266.069 163.471 265.985 163.653 265.938 163.868C265.891 164.073 265.868 164.302 265.868 164.554C265.868 165.105 265.989 165.581 266.232 165.982C266.475 166.374 266.792 166.691 267.184 166.934L265.532 166.934ZM271.034 164.862C271.034 164.507 270.983 164.209 270.88 163.966C270.777 163.714 270.656 163.509 270.516 163.35C270.367 163.191 270.213 163.075 270.054 163C269.895 162.916 269.755 162.865 269.634 162.846L268.878 162.846L268.878 164.47C268.878 165.105 268.943 165.567 269.074 165.856C269.205 166.136 269.471 166.276 269.872 166.276C270.217 166.276 270.497 166.159 270.712 165.926C270.927 165.693 271.034 165.338 271.034 164.862ZM272 156.267L271.146 156.267C270.278 155.25 269.541 154.419 268.934 153.775C268.327 153.122 267.8 152.608 267.352 152.235C266.904 151.862 266.507 151.61 266.162 151.479C265.817 151.339 265.476 151.269 265.14 151.269C264.552 151.269 264.099 151.446 263.782 151.801C263.455 152.156 263.292 152.646 263.292 153.271C263.283 153.85 263.385 154.363 263.6 154.811C263.815 155.259 264.118 155.642 264.51 155.959L263.096 155.959C262.975 155.838 262.853 155.684 262.732 155.497C262.601 155.31 262.489 155.096 262.396 154.853C262.293 154.61 262.214 154.335 262.158 154.027C262.102 153.719 262.074 153.388 262.074 153.033C262.093 152.09 262.349 151.358 262.844 150.835C263.339 150.303 264.025 150.037 264.902 150.037C265.322 150.037 265.728 150.098 266.12 150.219C266.503 150.34 266.899 150.546 267.31 150.835C267.721 151.124 268.164 151.502 268.64 151.969C269.107 152.436 269.625 153.01 270.194 153.691L270.852 154.461L270.852 149.757L272 149.757L272 156.267Z" fill="#404040"/>
<path d="M51.3536 119.646C51.1583 119.451 50.8417 119.451 50.6464 119.646L47.4645 122.828C47.2692 123.024 47.2692 123.34 47.4645 123.536C47.6597 123.731 47.9763 123.731 48.1716 123.536L51 120.707L53.8284 123.536C54.0237 123.731 54.3403 123.731 54.5355 123.536C54.7308 123.34 54.7308 123.024 54.5355 122.828L51.3536 119.646ZM51.5 180L51.5 177.5L50.5 177.5L50.5 180L51.5 180ZM51.5 172.5L51.5 167.5L50.5 167.5L50.5 172.5L51.5 172.5ZM51.5 162.5L51.5 157.5L50.5 157.5L50.5 162.5L51.5 162.5ZM51.5 152.5L51.5 147.5L50.5 147.5L50.5 152.5L51.5 152.5ZM51.5 142.5L51.5 137.5L50.5 137.5L50.5 142.5L51.5 142.5ZM51.5 132.5L51.5 127.5L50.5 127.5L50.5 132.5L51.5 132.5ZM51.5 122.5L51.5 120L50.5 120L50.5 122.5L51.5 122.5ZM51.7071 119.293C51.3166 118.902 50.6834 118.902 50.2929 119.293L43.9289 125.657C43.5384 126.047 43.5384 126.681 43.9289 127.071C44.3195 127.462 44.9526 127.462 45.3431 127.071L51 121.414L56.6569 127.071C57.0474 127.462 57.6805 127.462 58.0711 127.071C58.4616 126.681 58.4616 126.047 58.0711 125.657L51.7071 119.293ZM52 180L52 177.5L50 177.5L50 180L52 180ZM52 172.5L52 167.5L50 167.5L50 172.5L52 172.5ZM52 162.5L52 157.5L50 157.5L50 162.5L52 162.5ZM52 152.5L52 147.5L50 147.5L50 152.5L52 152.5ZM52 142.5L52 137.5L50 137.5L50 142.5L52 142.5ZM52 132.5L52 127.5L50 127.5L50 132.5L52 132.5ZM52 122.5L52 120L50 120L50 122.5L52 122.5Z" fill="#404040"/>
<path d="M51.3536 240.354C51.1583 240.549 50.8417 240.549 50.6464 240.354L47.4645 237.172C47.2692 236.976 47.2692 236.66 47.4645 236.464C47.6597 236.269 47.9763 236.269 48.1716 236.464L51 239.293L53.8284 236.464C54.0237 236.269 54.3403 236.269 54.5355 236.464C54.7308 236.66 54.7308 236.976 54.5355 237.172L51.3536 240.354ZM51.5 180L51.5 182.5L50.5 182.5L50.5 180L51.5 180ZM51.5 187.5L51.5 192.5L50.5 192.5L50.5 187.5L51.5 187.5ZM51.5 197.5L51.5 202.5L50.5 202.5L50.5 197.5L51.5 197.5ZM51.5 207.5L51.5 212.5L50.5 212.5L50.5 207.5L51.5 207.5ZM51.5 217.5L51.5 222.5L50.5 222.5L50.5 217.5L51.5 217.5ZM51.5 227.5L51.5 232.5L50.5 232.5L50.5 227.5L51.5 227.5ZM51.5 237.5L51.5 240L50.5 240L50.5 237.5L51.5 237.5ZM51.7071 240.707C51.3166 241.098 50.6834 241.098 50.2929 240.707L43.9289 234.343C43.5384 233.953 43.5384 233.319 43.9289 232.929C44.3195 232.538 44.9526 232.538 45.3431 232.929L51 238.586L56.6569 232.929C57.0474 232.538 57.6805 232.538 58.0711 232.929C58.4616 233.319 58.4616 233.953 58.0711 234.343L51.7071 240.707ZM52 180L52 182.5L50 182.5L50 180L52 180ZM52 187.5L52 192.5L50 192.5L50 187.5L52 187.5ZM52 197.5L52 202.5L50 202.5L50 197.5L52 197.5ZM52 207.5L52 212.5L50 212.5L50 207.5L52 207.5ZM52 217.5L52 222.5L50 222.5L50 217.5L52 217.5ZM52 227.5L52 232.5L50 232.5L50 227.5L52 227.5ZM52 237.5L52 240L50 240L50 237.5L52 237.5Z" fill="#404040"/>
<path d="M24.866 199.481C25.0153 199.603 25.1647 199.775 25.314 199.999C25.4633 200.223 25.5987 200.489 25.72 200.797C25.8413 201.096 25.9393 201.437 26.014 201.819C26.098 202.193 26.14 202.594 26.14 203.023C26.14 203.807 26.0233 204.517 25.79 205.151C25.5473 205.777 25.2113 206.309 24.782 206.747C24.3433 207.186 23.8113 207.527 23.186 207.769C22.5607 208.003 21.8607 208.119 21.086 208.119C20.358 208.119 19.6907 208.003 19.084 207.769C18.468 207.536 17.936 207.2 17.488 206.761C17.04 206.313 16.69 205.777 16.438 205.151C16.186 204.517 16.06 203.798 16.06 202.995C16.06 202.594 16.0927 202.221 16.158 201.875C16.214 201.53 16.2933 201.222 16.396 200.951C16.4893 200.671 16.5967 200.429 16.718 200.223C16.83 200.018 16.942 199.859 17.054 199.747L19.028 199.747C18.7947 199.887 18.5707 200.065 18.356 200.279C18.132 200.494 17.936 200.741 17.768 201.021C17.5907 201.301 17.4507 201.609 17.348 201.945C17.236 202.281 17.18 202.631 17.18 202.995C17.18 203.583 17.2733 204.115 17.46 204.591C17.6467 205.058 17.9127 205.455 18.258 205.781C18.6033 206.108 19.0187 206.36 19.504 206.537C19.98 206.715 20.512 206.803 21.1 206.803C21.6507 206.803 22.164 206.724 22.64 206.565C23.1067 206.407 23.5173 206.173 23.872 205.865C24.2173 205.548 24.4927 205.156 24.698 204.689C24.9033 204.223 25.0107 203.686 25.02 203.079C25.02 202.631 24.9687 202.221 24.866 201.847C24.754 201.465 24.6093 201.124 24.432 200.825C24.2453 200.517 24.0353 200.251 23.802 200.027C23.5593 199.803 23.3073 199.621 23.046 199.481L24.866 199.481ZM24.894 197.734C24.6327 197.613 24.3433 197.506 24.026 197.412C23.7087 197.319 23.3493 197.24 22.948 197.174C22.5373 197.1 22.0753 197.044 21.562 197.006C21.0487 196.969 20.4607 196.95 19.798 196.95L19 196.95L19 192.022L24.894 192.022L24.894 190.888L27.82 190.888L27.82 191.994L26 191.994L26 197.468L27.82 197.468L27.82 198.574L24.894 198.574L24.894 197.734ZM20.61 195.858C21.506 195.877 22.2947 195.942 22.976 196.054C23.6573 196.157 24.2967 196.334 24.894 196.586L24.894 193.184L20.036 193.184L20.036 195.844L20.61 195.858ZM18.86 186.508C18.86 185.537 19.1493 184.781 19.728 184.24C20.3067 183.689 21.1187 183.414 22.164 183.414L22.92 183.414L22.92 188.776C23.676 188.72 24.236 188.496 24.6 188.104C24.9547 187.712 25.132 187.17 25.132 186.48C25.132 185.808 25.0153 185.257 24.782 184.828C24.5487 184.398 24.264 184.09 23.928 183.904L25.286 183.904C25.5007 184.081 25.6967 184.384 25.874 184.814C26.0513 185.234 26.14 185.789 26.14 186.48C26.14 187.59 25.8367 188.449 25.23 189.056C24.6233 189.662 23.704 189.966 22.472 189.966C21.8653 189.966 21.338 189.877 20.89 189.7C20.4327 189.522 20.0547 189.28 19.756 188.972C19.4573 188.664 19.2333 188.3 19.084 187.88C18.9347 187.46 18.86 187.002 18.86 186.508ZM19.868 186.508C19.868 187.17 20.0407 187.693 20.386 188.076C20.7313 188.458 21.2447 188.687 21.926 188.762L21.926 184.576L21.912 184.576C21.24 184.576 20.7313 184.758 20.386 185.122C20.0407 185.486 19.868 185.948 19.868 186.508ZM20.036 177.282L20.036 179.998L20.568 180.012C21.436 180.04 22.178 180.091 22.794 180.166C23.4007 180.24 23.9093 180.334 24.32 180.446C24.7307 180.558 25.0527 180.684 25.286 180.824C25.5193 180.964 25.6967 181.113 25.818 181.272C25.93 181.43 26 181.594 26.028 181.762C26.0653 181.93 26.084 182.098 26.084 182.266C26.084 182.48 26.0607 182.667 26.014 182.826L24.768 182.826C24.796 182.704 24.81 182.588 24.81 182.476C24.81 182.354 24.8007 182.242 24.782 182.14C24.754 182.028 24.6887 181.925 24.586 181.832C24.4833 181.729 24.334 181.64 24.138 181.566C23.9327 181.482 23.6527 181.407 23.298 181.342C22.934 181.276 22.4813 181.225 21.94 181.188C21.3987 181.141 20.7407 181.104 19.966 181.076L19 181.048L19 176.12L26 176.12L26 177.282L20.036 177.282ZM19 173.875L19 172.713L21.926 172.713L21.926 171.453L19 169.255L19 167.925L22.304 170.487L26 167.463L26 168.933L22.92 171.453L22.92 172.713L26 172.713L26 173.875L19 173.875ZM19.532 165.956C19.3547 165.723 19.2007 165.406 19.07 165.004C18.93 164.594 18.86 164.118 18.86 163.576C18.86 163.128 18.902 162.727 18.986 162.372C19.07 162.018 19.21 161.719 19.406 161.476C19.602 161.224 19.8633 161.033 20.19 160.902C20.5073 160.772 20.904 160.706 21.38 160.706L26 160.706L26 161.812L24.81 161.812C25.202 161.999 25.5193 162.302 25.762 162.722C25.9953 163.133 26.112 163.618 26.112 164.178C26.112 164.878 25.93 165.438 25.566 165.858C25.202 166.278 24.6607 166.488 23.942 166.488C23.5593 166.488 23.242 166.423 22.99 166.292C22.7287 166.152 22.5233 165.956 22.374 165.704C22.2153 165.452 22.108 165.144 22.052 164.78C21.9867 164.416 21.954 164.001 21.954 163.534L21.954 161.868L21.394 161.868C21.0953 161.868 20.848 161.91 20.652 161.994C20.456 162.078 20.302 162.195 20.19 162.344C20.0687 162.494 19.9847 162.676 19.938 162.89C19.8913 163.096 19.868 163.324 19.868 163.576C19.868 164.127 19.9893 164.603 20.232 165.004C20.4747 165.396 20.792 165.714 21.184 165.956L19.532 165.956ZM25.034 163.884C25.034 163.53 24.9827 163.231 24.88 162.988C24.7773 162.736 24.656 162.531 24.516 162.372C24.3667 162.214 24.2127 162.097 24.054 162.022C23.8953 161.938 23.7553 161.887 23.634 161.868L22.878 161.868L22.878 163.492C22.878 164.127 22.9433 164.589 23.074 164.878C23.2047 165.158 23.4707 165.298 23.872 165.298C24.2173 165.298 24.4973 165.182 24.712 164.948C24.9267 164.715 25.034 164.36 25.034 163.884ZM17.614 153.022L19 155.22L17.726 155.22L16.102 152.7L16.102 151.86L26 151.86L26 153.022L17.614 153.022Z" fill="#404040"/>
<circle cx="297" cy="55" r="50" fill="#5BD595"/>
<g opacity="0.5">
<rect x="297" y="80" width="2" height="25" fill="white"/>
<rect x="297" y="56" width="2" height="11" fill="white"/>
<rect x="297" width="5" height="55" fill="white"/>
<rect x="297" y="50" width="55" height="5" fill="white"/>
<rect x="247" y="54" width="105" height="2" fill="white"/>
</g>
<path d="M352 50C352 43.4339 350.707 36.9321 348.194 30.8658C345.681 24.7995 341.998 19.2876 337.355 14.6447C332.712 10.0017 327.2 6.31876 321.134 3.80602C315.068 1.29329 308.566 -2.87013e-07 302 0L302 50H352Z" fill="#5BD595"/>
<path d="M267.347 68.98H262.871V76H261.371V67.6H268.847V76H267.347V68.98ZM273.464 76.132C272.992 76.132 272.568 76.068 272.192 75.94C271.816 75.804 271.492 75.604 271.22 75.34C270.948 75.076 270.74 74.748 270.596 74.356C270.452 73.964 270.38 73.504 270.38 72.976C270.38 72.456 270.456 72.004 270.608 71.62C270.76 71.228 270.972 70.904 271.244 70.648C271.516 70.384 271.844 70.188 272.228 70.06C272.612 69.932 273.04 69.868 273.512 69.868C273.976 69.868 274.396 69.936 274.772 70.072C275.156 70.208 275.48 70.408 275.744 70.672C276.016 70.936 276.224 71.264 276.368 71.656C276.512 72.048 276.584 72.504 276.584 73.024C276.584 73.544 276.508 74 276.356 74.392C276.204 74.776 275.992 75.096 275.72 75.352C275.448 75.608 275.12 75.804 274.736 75.94C274.352 76.068 273.928 76.132 273.464 76.132ZM271.808 73.012C271.808 73.676 271.956 74.16 272.252 74.464C272.548 74.76 272.96 74.908 273.488 74.908C274.024 74.908 274.436 74.756 274.724 74.452C275.012 74.14 275.156 73.664 275.156 73.024V72.988C275.156 72.324 275.004 71.844 274.7 71.548C274.404 71.244 273.992 71.092 273.464 71.092C272.928 71.1 272.516 71.26 272.228 71.572C271.948 71.876 271.808 72.344 271.808 72.976V73.012ZM277.784 74.728C277.864 74.512 277.936 74.276 278 74.02C278.072 73.756 278.132 73.46 278.18 73.132C278.228 72.804 278.264 72.44 278.288 72.04C278.312 71.632 278.324 71.18 278.324 70.684V70H282.932V74.728H283.844V77.56H282.572V76H278.36V77.56H277.088V74.728H277.784ZM279.632 71.38C279.616 72.076 279.572 72.692 279.5 73.228C279.428 73.756 279.308 74.256 279.14 74.728H281.528V71.236H279.632V71.38ZM285.049 70H286.369V71.248C286.425 71.08 286.505 70.916 286.609 70.756C286.721 70.588 286.861 70.44 287.029 70.312C287.205 70.184 287.413 70.08 287.653 70C287.893 69.92 288.173 69.88 288.493 69.88C288.877 69.88 289.225 69.94 289.537 70.06C289.857 70.172 290.129 70.348 290.353 70.588C290.585 70.828 290.765 71.136 290.893 71.512C291.021 71.888 291.085 72.34 291.085 72.868C291.085 73.46 291.021 73.964 290.893 74.38C290.765 74.788 290.581 75.124 290.341 75.388C290.109 75.644 289.825 75.832 289.489 75.952C289.153 76.072 288.781 76.132 288.373 76.132C287.893 76.132 287.489 76.028 287.161 75.82C286.841 75.612 286.605 75.368 286.453 75.088V78.316H285.049V70ZM286.453 73.204C286.453 73.748 286.597 74.168 286.885 74.464C287.173 74.752 287.565 74.896 288.061 74.896C288.629 74.896 289.041 74.748 289.297 74.452C289.553 74.148 289.681 73.64 289.681 72.928C289.681 72.272 289.533 71.808 289.237 71.536C288.949 71.264 288.565 71.128 288.085 71.128C287.533 71.128 287.125 71.272 286.861 71.56C286.605 71.848 286.469 72.244 286.453 72.748V73.204ZM296.01 74.02H294.618L293.406 76H291.858L293.25 73.828C292.89 73.684 292.618 73.472 292.434 73.192C292.25 72.904 292.158 72.564 292.158 72.172C292.158 71.42 292.374 70.872 292.806 70.528C293.238 70.176 293.922 70 294.858 70H297.414V76H296.01V74.02ZM294.894 71.236C294.422 71.236 294.082 71.304 293.874 71.44C293.666 71.576 293.562 71.82 293.562 72.172C293.57 72.42 293.658 72.612 293.826 72.748C293.994 72.876 294.262 72.94 294.63 72.94H296.01V71.236H294.894ZM299.147 74.728C299.227 74.512 299.299 74.276 299.363 74.02C299.435 73.756 299.495 73.46 299.543 73.132C299.591 72.804 299.627 72.44 299.651 72.04C299.675 71.632 299.687 71.18 299.687 70.684V70H304.295V74.728H305.207V77.56H303.935V76H299.723V77.56H298.451V74.728H299.147ZM300.995 71.38C300.979 72.076 300.935 72.692 300.863 73.228C300.791 73.756 300.671 74.256 300.503 74.728H302.891V71.236H300.995V71.38ZM309.849 73.888C309.641 74.008 309.401 74.096 309.129 74.152C308.857 74.208 308.581 74.236 308.301 74.236C307.581 74.236 307.017 74.068 306.609 73.732C306.201 73.396 305.997 72.868 305.997 72.148V70H307.401V71.932C307.401 72.292 307.497 72.56 307.689 72.736C307.889 72.904 308.177 72.988 308.553 72.988C309.049 72.988 309.481 72.896 309.849 72.712V70H311.253V76H309.849V73.888ZM312.964 70H314.356V74.068L317.236 70H318.568V76H317.176V71.884L314.296 76H312.964V70ZM320.276 70H321.68V72.34H322.652L324.332 70H325.892L323.792 72.832L326.228 76H324.524L322.64 73.516H321.68V76H320.276V70ZM327.26 70H328.652V74.068L331.532 70H332.864V76H331.472V71.884L328.592 76H327.26V70Z" fill="white"/>
</svg>
