<svg width="290" height="293" viewBox="0 0 290 293" fill="none" xmlns="http://www.w3.org/2000/svg">
<circle cx="41.1932" cy="45.3123" r="41.1932" fill="#7BBEFD"/>
<path d="M55.8767 41.4026C55.5266 36.1364 48.3543 35.03 48.3543 35.03C46.5222 34.7143 45.7755 33.1968 45.4797 32.2142C46.888 30.6923 47.8736 28.7254 48.4183 26.8088C48.6259 26.0783 48.7377 25.3157 48.7377 24.5575C48.7377 24.1262 48.6929 23.7058 48.617 23.2955C49.5312 21.817 49.2619 20.1682 49.0451 19.376C48.9793 19.1354 48.7303 19.0166 48.4743 19.0166C48.4467 19.0166 48.4193 19.018 48.3919 19.0207C48.2943 19.0304 48.1913 19.0349 48.0835 19.0349C46.4461 19.0349 43.7385 17.9854 43.7385 17.9854C42.9125 17.6424 41.8952 17.4408 41.0047 17.3414C40.2256 17.2544 39.4376 17.3017 38.6895 17.5374C37.6498 17.8649 36.6926 18.5098 35.9171 19.2476C35.7584 19.3986 35.6227 19.5558 35.4972 19.7325C33.8469 20.2654 33.5677 22.3163 33.6657 24.1121C33.6563 24.2597 33.648 24.4076 33.648 24.5575C33.648 27.2568 34.8365 30.3529 36.6887 32.3931C36.7428 32.4528 36.7991 32.5099 36.8554 32.5671C36.4946 33.5262 35.7236 34.7503 34.1003 35.03C34.1003 35.03 26.9276 36.1364 26.5778 41.4026C26.5778 41.4026 26.1456 44.1549 26.5082 47.4374C26.6299 48.5404 27.6937 49.4315 28.8494 49.4315H53.6051C54.7609 49.4315 55.7985 48.5373 55.9039 47.4329C56.1855 44.4913 55.8767 41.4026 55.8767 41.4026ZM45.5647 34.7546L45.9457 35.1608L46.0373 35.2584L46.1516 35.3298L46.4864 35.5391L43.9176 39.0829L42.9107 37.4875L42.8696 37.4223L42.8186 37.3638C42.7388 37.2723 42.7327 37.0914 42.798 36.9823L45.5647 34.7546ZM41.8448 38.8883H40.5913L40.2147 38.2461L40.3638 38.0098C40.4614 37.8977 40.5332 37.7692 40.5845 37.6332H41.8012C41.8525 37.7692 41.9243 37.8977 42.0219 38.0098L42.1913 38.2783L41.8448 38.8883ZM42.7514 45.2499C42.7665 45.3059 42.7212 45.4422 42.6621 45.4856L41.4183 46.399C41.3822 46.4255 41.2781 46.4256 41.242 46.3989L39.9983 45.4858C39.9321 45.4372 39.8795 45.2894 39.895 45.221L41.0389 39.8924H41.3712L42.7514 45.2499ZM42.0465 36.2796C41.9512 36.3832 41.88 36.5028 41.8256 36.6292H40.5601C40.5057 36.5028 40.4345 36.3832 40.3392 36.2796L37.3668 33.8865C37.4905 33.6806 37.5957 33.4741 37.6859 33.2724C38.6953 33.9835 39.8942 34.3698 41.0911 34.3698C42.2512 34.3698 43.4084 34.0083 44.3883 33.2311C44.4795 33.1586 44.5679 33.0826 44.6564 33.0067C44.7628 33.2775 44.8978 33.5637 45.0659 33.8486L42.0465 36.2796ZM35.8275 20.6846C36.0423 20.6152 36.2278 20.4801 36.3559 20.2998C36.3701 20.2799 37.8038 18.3044 40.5522 18.3042H40.5526C41.4292 18.3042 42.3627 18.5073 43.3271 18.9078C43.3349 18.911 43.3426 18.9142 43.3505 18.9173C43.6468 19.032 46.2966 20.039 48.0835 20.039C48.1003 20.039 48.1171 20.039 48.1337 20.0388C48.3919 21.3763 48.2416 23.3964 45.5029 24.4545C45.4903 24.4593 44.2225 24.9308 42.6643 24.9308C41.1193 24.9308 39.8456 24.4772 38.8787 23.5825C38.6816 23.4002 38.4223 23.3031 38.1582 23.3031C38.0414 23.3031 37.9236 23.3221 37.8098 23.3611C37.4387 23.4885 37.174 23.8068 37.1256 24.1838L37.0589 24.704L36.7294 24.4802C36.5492 24.3577 36.3396 24.297 36.1304 24.297C35.8974 24.297 35.6649 24.3723 35.4745 24.5215C35.2714 24.6806 35.0341 24.9202 34.8166 25.2278C34.5545 23.373 34.5916 21.0838 35.8275 20.6846ZM35.2342 27.7507C34.9484 26.2312 36.1303 25.3011 36.1303 25.3011L37.5307 26.2525C37.6088 26.313 37.6817 26.342 37.7435 26.342C37.8572 26.342 37.9327 26.2439 37.9327 26.0652L38.1584 24.3073C39.5359 25.5818 41.2202 25.9349 42.6643 25.9349C44.4602 25.9349 45.8846 25.3886 45.8846 25.3886C46.6345 25.099 47.2251 24.7469 47.6885 24.3586C47.6911 24.4249 47.697 24.4908 47.697 24.5575C47.697 25.2159 47.602 25.8841 47.4147 26.5432C46.7181 28.9944 45.3741 31.1494 43.7274 32.4555C42.9765 33.051 42.0649 33.3658 41.0911 33.3658C39.7337 33.3658 38.4145 32.7701 37.4715 31.7314C36.5018 30.6634 35.7192 29.2394 35.2342 27.7507ZM36.234 35.3298L36.3484 35.2584L36.44 35.1608L36.8209 34.7546L39.5876 36.9823C39.6529 37.0914 39.6468 37.2723 39.5671 37.3638L39.5161 37.4223L39.475 37.4875L38.4681 39.0829L35.8993 35.5391L36.234 35.3298ZM54.8676 47.3408C54.8125 47.9196 54.2224 48.4274 53.6051 48.4274H28.8494C28.2179 48.4274 27.6074 47.915 27.543 47.331C27.2002 44.2276 27.6027 41.5787 27.6068 41.553L27.6135 41.5101L27.6163 41.4668C27.9082 37.0732 34.2026 36.0314 34.2645 36.0216L34.2739 36.0202L34.2833 36.0185C34.4918 35.9826 34.6863 35.9325 34.8731 35.8752L37.7992 39.9122C37.9522 40.2306 38.1944 40.3945 38.4518 40.3945C38.6577 40.3945 38.8733 40.2896 39.0604 40.0747L39.5949 39.228L39.9784 39.8819L38.8771 45.0122C38.7749 45.4654 38.9812 46.0005 39.3679 46.2848L40.6116 47.198C40.8166 47.3485 41.0733 47.4237 41.3302 47.4237C41.587 47.4237 41.8439 47.3484 42.0485 47.198L43.2926 46.2845C43.6795 46.0002 43.8799 45.4466 43.76 45.0023L42.4436 39.8924H42.4611L42.816 39.2678L43.3252 40.0747C43.5124 40.2896 43.7279 40.3945 43.9338 40.3945C44.1912 40.3945 44.4335 40.2306 44.5864 39.9122L47.5246 35.8584C47.7281 35.9237 47.9419 35.9791 48.1712 36.0185L48.1806 36.0201L48.19 36.0216C48.2535 36.0314 54.5447 37.0524 54.8382 41.4668L54.8392 41.483L54.8409 41.4989C54.8438 41.529 55.137 44.5259 54.8676 47.3408Z" fill="white"/>
<path d="M19.7151 57.1444C19.9128 56.9994 20.2061 56.861 20.5949 56.7292C20.9838 56.5974 21.4551 56.5315 22.0087 56.5315C22.3976 56.5315 22.7502 56.5677 23.0665 56.6402C23.3829 56.7061 23.6531 56.8116 23.8772 56.9566C24.1079 57.095 24.2826 57.2729 24.4012 57.4904C24.5264 57.7079 24.589 57.9683 24.589 58.2715C24.589 59.069 24.1804 59.6127 23.3631 59.9027C24.4177 60.0609 24.9449 60.6013 24.9449 61.5241C24.9449 61.8207 24.8856 62.1008 24.767 62.3644C24.6483 62.6215 24.4704 62.8456 24.2331 63.0367C23.9958 63.2212 23.6993 63.3695 23.3433 63.4816C22.994 63.5936 22.5887 63.6496 22.1273 63.6496C21.811 63.6496 21.5144 63.6233 21.2376 63.5706C20.9673 63.5244 20.7202 63.4618 20.4961 63.3827C20.2786 63.297 20.0874 63.2048 19.9227 63.1059C19.7645 63.0004 19.6393 62.895 19.547 62.7895V61.267C19.6524 61.445 19.7876 61.6098 19.9523 61.7613C20.1171 61.9129 20.3082 62.0448 20.5257 62.1568C20.7432 62.2688 20.9871 62.3578 21.2573 62.4237C21.5341 62.4831 21.8307 62.5127 22.1471 62.5127C22.358 62.5127 22.5557 62.4896 22.7403 62.4435C22.9248 62.3974 23.083 62.3315 23.2148 62.2458C23.3532 62.1535 23.462 62.0415 23.5411 61.9096C23.6202 61.7778 23.6597 61.6229 23.6597 61.445C23.6597 61.1352 23.5378 60.9078 23.2939 60.7628C23.0566 60.6178 22.6678 60.5453 22.1273 60.5453H21.0794V59.527H22.1174C22.3415 59.527 22.5294 59.504 22.681 59.4578C22.8326 59.4051 22.9545 59.3359 23.0468 59.2502C23.139 59.1645 23.2049 59.0657 23.2445 58.9536C23.2906 58.8416 23.3137 58.7196 23.3137 58.5878C23.3137 58.4296 23.2807 58.2945 23.2148 58.1825C23.1489 58.0638 23.0566 57.9683 22.938 57.8958C22.8194 57.8233 22.681 57.7706 22.5228 57.7376C22.3646 57.6981 22.1932 57.675 22.0087 57.6684C21.7451 57.6618 21.4946 57.6915 21.2573 57.7574C21.0266 57.8233 20.8124 57.9156 20.6147 58.0342C20.4236 58.1462 20.2489 58.2748 20.0907 58.4198C19.9391 58.5648 19.8139 58.7131 19.7151 58.8646V57.1444ZM26.2835 58.9536C26.4482 58.8284 26.6756 58.7229 26.9656 58.6373C27.2622 58.5516 27.6247 58.5087 28.0531 58.5087C28.7781 58.5087 29.3186 58.6438 29.6745 58.9141C30.0304 59.1843 30.2083 59.6424 30.2083 60.2883V63.5508H29.1208V62.661C29.0022 62.951 28.7979 63.185 28.5079 63.3629C28.2245 63.5409 27.885 63.6299 27.4896 63.6299C26.9887 63.6299 26.5965 63.4981 26.3131 63.2344C26.0363 62.9642 25.8979 62.5852 25.8979 62.0975C25.8979 61.8141 25.9473 61.5801 26.0462 61.3956C26.145 61.211 26.2835 61.066 26.4614 60.9606C26.6394 60.8485 26.8536 60.7694 27.104 60.7233C27.3545 60.6771 27.6313 60.6541 27.9345 60.6541H29.0516V60.4366C29.0516 60.0873 28.966 59.8467 28.7946 59.7149C28.6298 59.5831 28.3827 59.5171 28.0531 59.5171C27.5983 59.5171 27.2325 59.5995 26.9557 59.7643C26.6789 59.9225 26.4548 60.1334 26.2835 60.397V58.9536ZM27.8554 62.5918C28.0531 62.5918 28.2212 62.5687 28.3596 62.5226C28.5046 62.4699 28.6265 62.4073 28.7254 62.3348C28.8243 62.2557 28.9001 62.17 28.9528 62.0777C29.0055 61.9854 29.0385 61.8965 29.0516 61.8108V61.4054H28.0729C27.7302 61.4054 27.4764 61.445 27.3116 61.5241C27.1469 61.6032 27.0645 61.7548 27.0645 61.9788C27.0645 62.17 27.1304 62.3216 27.2622 62.4336C27.4006 62.5391 27.5983 62.5918 27.8554 62.5918ZM31.5425 58.6076H32.6992V60.5354H33.5L34.8841 58.6076H36.1693L34.4392 60.9408L36.4461 63.5508H35.0422L33.4901 61.5043H32.6992V63.5508H31.5425V58.6076ZM37.367 58.9536C37.5318 58.8284 37.7592 58.7229 38.0492 58.6373C38.3457 58.5516 38.7082 58.5087 39.1367 58.5087C39.8617 58.5087 40.4021 58.6438 40.758 58.9141C41.1139 59.1843 41.2919 59.6424 41.2919 60.2883V63.5508H40.2044V62.661C40.0857 62.951 39.8814 63.185 39.5914 63.3629C39.308 63.5409 38.9686 63.6299 38.5731 63.6299C38.0722 63.6299 37.6801 63.4981 37.3967 63.2344C37.1198 62.9642 36.9814 62.5852 36.9814 62.0975C36.9814 61.8141 37.0309 61.5801 37.1297 61.3956C37.2286 61.211 37.367 61.066 37.545 60.9606C37.7229 60.8485 37.9371 60.7694 38.1876 60.7233C38.438 60.6771 38.7148 60.6541 39.018 60.6541H40.1352V60.4366C40.1352 60.0873 40.0495 59.8467 39.8781 59.7149C39.7134 59.5831 39.4662 59.5171 39.1367 59.5171C38.6819 59.5171 38.3161 59.5995 38.0393 59.7643C37.7625 59.9225 37.5384 60.1334 37.367 60.397V58.9536ZM38.9389 62.5918C39.1367 62.5918 39.3047 62.5687 39.4431 62.5226C39.5881 62.4699 39.7101 62.4073 39.8089 62.3348C39.9078 62.2557 39.9836 62.17 40.0363 62.0777C40.089 61.9854 40.122 61.8965 40.1352 61.8108V61.4054H39.1564C38.8137 61.4054 38.56 61.445 38.3952 61.5241C38.2304 61.6032 38.148 61.7548 38.148 61.9788C38.148 62.17 38.2139 62.3216 38.3457 62.4336C38.4842 62.5391 38.6819 62.5918 38.9389 62.5918ZM42.3788 61.8602C42.5238 62.0777 42.7545 62.2623 43.0709 62.4138C43.3873 62.5654 43.7794 62.6412 44.2474 62.6412C44.5769 62.6412 44.8373 62.5918 45.0284 62.4929C45.2195 62.3941 45.3151 62.2392 45.3151 62.0283C45.3151 61.8371 45.2393 61.6987 45.0877 61.6131C44.9361 61.5274 44.6923 61.4845 44.3561 61.4845H43.5059V60.6442H44.2078C44.478 60.6442 44.6923 60.6013 44.8504 60.5157C45.0152 60.4234 45.0976 60.2718 45.0976 60.0609C45.0976 59.8895 45.035 59.7577 44.9098 59.6654C44.7911 59.5732 44.5802 59.5237 44.277 59.5171C43.8618 59.5171 43.5026 59.5995 43.1994 59.7643C42.9028 59.9225 42.659 60.1334 42.4678 60.397V58.9536C42.659 58.8284 42.9127 58.7229 43.2291 58.6373C43.5454 58.5516 43.8948 58.5087 44.277 58.5087H44.3166C45.002 58.5087 45.4996 58.6274 45.8094 58.8646C46.1192 59.0953 46.2741 59.4051 46.2741 59.794C46.2741 60.1103 46.1983 60.3542 46.0467 60.5256C45.9017 60.6969 45.704 60.8353 45.4535 60.9408C45.7896 61.0067 46.0434 61.1286 46.2148 61.3066C46.3927 61.4779 46.4817 61.7317 46.4817 62.0678C46.4817 62.3249 46.4257 62.5523 46.3136 62.75C46.2082 62.9477 46.0566 63.1158 45.8588 63.2542C45.6677 63.386 45.4337 63.4849 45.1569 63.5508C44.8867 63.6167 44.5835 63.6496 44.2474 63.6496C44.0299 63.6496 43.8223 63.6299 43.6245 63.5903C43.4268 63.5574 43.2455 63.5112 43.0808 63.4519C42.916 63.3926 42.771 63.33 42.6458 63.2641C42.5271 63.1916 42.4382 63.1191 42.3788 63.0466V61.8602ZM50.5454 61.8108C50.3741 61.9096 50.1764 61.9821 49.9523 62.0283C49.7282 62.0744 49.5008 62.0975 49.2701 62.0975C48.6769 62.0975 48.2123 61.9591 47.8761 61.6823C47.54 61.4054 47.3719 60.9704 47.3719 60.3773V58.6076H48.5286V60.1993C48.5286 60.4959 48.6077 60.7167 48.7659 60.8617C48.9307 61.0001 49.1679 61.0693 49.4777 61.0693C49.8864 61.0693 50.2423 60.9935 50.5454 60.8419V58.6076H51.7021V63.5508H50.5454V61.8108ZM53.1112 58.6076H54.258V61.9591L56.6307 58.6076H57.7281V63.5508H56.5813V60.1598L54.2086 63.5508H53.1112V58.6076ZM59.1355 58.6076H60.2922V60.5354H61.093L62.477 58.6076H63.7623L62.0322 60.9408L64.0391 63.5508H62.6352L61.0831 61.5043H60.2922V63.5508H59.1355V58.6076Z" fill="white"/>
<path d="M248.231 39.882C248.164 39.9199 246.583 40.8284 245.459 41.7073C245.189 41.917 245.131 42.3208 245.325 42.6088C245.442 42.7827 245.626 42.8762 245.811 42.8762C245.933 42.8762 246.057 42.8359 246.162 42.7526C247.218 41.9298 248.78 41.0332 248.794 41.0229C249.087 40.8564 249.197 40.465 249.042 40.1494C248.886 39.8313 248.52 39.7176 248.231 39.882ZM240.037 25.1323C239.847 25.3243 235.377 29.937 236.397 40.109C236.432 40.4395 236.692 40.6846 236.995 40.6846C237.016 40.6846 237.037 40.6846 237.06 40.6817C237.389 40.6418 237.628 40.3233 237.593 39.9673C236.638 30.4842 240.815 26.1187 240.857 26.0758C241.099 25.8311 241.111 25.4219 240.883 25.1619C240.656 24.8999 240.281 24.89 240.037 25.1323ZM264.367 32.6281C264.107 31.8481 263.396 31.4315 262.96 31.242C259.618 17.9793 251.857 17.3027 250.326 17.3027L250.154 17.3081C242.253 17.3081 238.149 22.7058 238.022 22.8825C233.205 28.0684 232.952 37.0715 232.943 38.4728C231.704 40.8968 230.295 42.7296 230.257 42.7827C229.87 43.3563 229.762 43.9921 229.948 44.6282C230.545 46.6934 234.228 48.1376 234.629 48.2892C236.47 49.0494 238.182 49.4334 239.718 49.4334C242.415 49.4334 243.682 48.2364 243.665 48.2364C248.811 44.8277 253.567 41.0406 253.544 41.0406C259.616 38.0665 263.378 35.7665 263.973 34.6734C264.562 33.7768 264.513 33.0673 264.367 32.6281ZM262.939 34.0195C262.901 34.0801 261.918 35.5189 252.936 39.9327C252.889 39.9706 248.159 43.7428 242.95 47.2068C242.941 47.2142 241.934 48.1404 239.718 48.1404C238.33 48.1404 236.761 47.7849 235.044 47.0749C233.686 46.5623 231.411 45.3406 231.092 44.2422C231.045 44.0802 231.019 43.8532 231.205 43.5755C231.254 43.5124 232.194 42.2804 233.233 40.4852C233.31 41.0987 233.388 41.4572 233.395 41.4926C233.416 41.5862 233.456 41.6743 233.512 41.7477C235.412 44.2702 240.18 44.8557 240.382 44.8783C240.405 44.8833 240.426 44.8833 240.447 44.8833C240.63 44.8833 240.804 44.7926 240.919 44.6361C241.048 44.4618 241.083 44.2269 241.012 44.0176C240.002 41.0027 241.003 37.9178 241.012 37.8848C241.123 37.549 240.961 37.1807 240.649 37.0591C240.346 36.9429 239.997 37.1118 239.882 37.4481C239.84 37.5766 238.93 40.3566 239.603 43.4395C238.245 43.1667 235.722 42.4877 234.535 41.0485C234.443 40.5482 234.169 38.7814 234.279 36.2264C234.584 33.0174 235.595 27.3239 238.916 23.7437C238.953 23.6934 242.823 18.6007 250.154 18.6007C250.166 18.6007 250.314 18.5982 250.326 18.5957C251.717 18.5957 258.809 19.2368 261.881 31.9066C261.938 32.1311 262.102 32.3079 262.311 32.3685C262.55 32.434 263.118 32.7043 263.237 33.0677C263.328 33.3401 263.145 33.6961 262.939 34.0195ZM258.579 33.3273C258.511 33.3652 256.93 34.2741 255.807 35.1526C255.537 35.3623 255.478 35.7661 255.673 36.0537C255.79 36.228 255.973 36.3216 256.159 36.3216C256.281 36.3216 256.405 36.2812 256.511 36.1979C257.566 35.3751 259.128 34.4785 259.142 34.4682C259.435 34.3018 259.545 33.9103 259.391 33.5947C259.233 33.2745 258.868 33.1662 258.579 33.3273Z" fill="white"/>
<path d="M217.358 61.8028L221.134 56.6323H222.479V63.5527H221.243V58.3031L217.447 63.5527H216.122V56.6323H217.358V61.8028ZM228.017 63.0584C227.905 63.1968 227.704 63.3319 227.414 63.4638C227.124 63.5956 226.778 63.6615 226.376 63.6615C225.981 63.6615 225.621 63.6088 225.299 63.5033C224.976 63.3913 224.699 63.2265 224.468 63.009C224.237 62.7915 224.059 62.5213 223.934 62.1983C223.809 61.8753 223.746 61.4964 223.746 61.0614C223.746 60.6396 223.809 60.2705 223.934 59.9541C224.066 59.6311 224.247 59.3642 224.478 59.1533C224.709 58.9358 224.985 58.7743 225.308 58.6689C225.631 58.5568 225.991 58.5008 226.386 58.5008C226.722 58.5074 227.029 58.5535 227.305 58.6392C227.582 58.7249 227.803 58.8303 227.968 58.9556V60.399C227.796 60.1353 227.579 59.9244 227.315 59.7663C227.058 59.6015 226.749 59.5158 226.386 59.5092C225.911 59.5092 225.549 59.6344 225.299 59.8849C225.048 60.1353 224.923 60.511 224.923 61.0119V61.1602C224.923 61.6743 225.051 62.0533 225.308 62.2972C225.572 62.5344 225.938 62.6531 226.406 62.6531C226.821 62.6531 227.16 62.5773 227.424 62.4257C227.694 62.2741 227.892 62.0896 228.017 61.8721V63.0584ZM232.386 59.6278H230.231V63.5527H229.074V58.6096H233.543V63.5527H232.386V59.6278ZM237.149 63.6615C236.76 63.6615 236.41 63.6088 236.101 63.5033C235.791 63.3913 235.524 63.2265 235.3 63.009C235.076 62.7915 234.904 62.5213 234.786 62.1983C234.667 61.8753 234.608 61.4964 234.608 61.0614C234.608 60.633 234.67 60.2606 234.796 59.9442C234.921 59.6213 235.096 59.3543 235.32 59.1434C235.544 58.9259 235.814 58.7644 236.13 58.659C236.447 58.5535 236.799 58.5008 237.188 58.5008C237.57 58.5008 237.916 58.5568 238.226 58.6689C238.543 58.7809 238.81 58.9457 239.027 59.1632C239.251 59.3807 239.423 59.6509 239.541 59.9739C239.66 60.2968 239.719 60.6725 239.719 61.1009C239.719 61.5293 239.656 61.905 239.531 62.228C239.406 62.5443 239.231 62.808 239.007 63.0189C238.783 63.2298 238.513 63.3913 238.197 63.5033C237.88 63.6088 237.531 63.6615 237.149 63.6615ZM235.784 61.091C235.784 61.6381 235.906 62.0368 236.15 62.2873C236.394 62.5311 236.733 62.6531 237.168 62.6531C237.61 62.6531 237.949 62.5278 238.187 62.2774C238.424 62.0203 238.543 61.6282 238.543 61.1009V61.0713C238.543 60.5242 238.417 60.1288 238.167 59.8849C237.923 59.6344 237.584 59.5092 237.149 59.5092C236.707 59.5158 236.368 59.6476 236.13 59.9047C235.9 60.1551 235.784 60.5407 235.784 61.0614V61.091ZM243.959 59.6278H242.358L242.328 60.2507C242.295 61.0218 242.226 61.6315 242.12 62.0797C242.022 62.5278 241.896 62.8673 241.745 63.098C241.593 63.3221 241.425 63.4638 241.241 63.5231C241.056 63.5824 240.868 63.6121 240.677 63.6121C240.585 63.6121 240.492 63.6055 240.4 63.5923C240.314 63.5857 240.245 63.5758 240.193 63.5626V62.3664C240.272 62.3927 240.357 62.4059 240.45 62.4059C240.555 62.4059 240.654 62.3861 240.746 62.3466C240.845 62.3005 240.931 62.1884 241.003 62.0105C241.076 61.8325 241.135 61.5623 241.181 61.1998C241.234 60.8373 241.27 60.3331 241.29 59.6872L241.329 58.6096H245.106V63.5527H243.959V59.6278ZM249.911 61.5557H247.677V63.5527H246.52V58.6096H247.677V60.5374H249.911V58.6096H251.068V63.5527H249.911V61.5557ZM252.477 58.6096H253.624V61.961L255.997 58.6096H257.094V63.5527H255.947V60.1617L253.574 63.5527H252.477V58.6096ZM259.628 59.6278H258.047V58.6096H262.377V59.6278H260.775V63.5527H259.628V59.6278ZM267.412 63.0584C267.352 63.1309 267.267 63.2034 267.155 63.2759C267.043 63.3418 266.908 63.4044 266.749 63.4638C266.591 63.5231 266.413 63.5692 266.215 63.6022C266.024 63.6351 265.817 63.6516 265.593 63.6516C264.769 63.6582 264.129 63.444 263.675 63.009C263.22 62.5674 262.993 61.9182 262.993 61.0614C262.993 60.6527 263.052 60.2902 263.17 59.9739C263.296 59.6509 263.47 59.3807 263.694 59.1632C263.919 58.9457 264.182 58.7809 264.485 58.6689C264.795 58.5568 265.138 58.5008 265.514 58.5008C266.232 58.5074 266.792 58.7216 267.194 59.1434C267.603 59.5652 267.807 60.165 267.807 60.9427V61.4173H264.139C264.232 62.2411 264.729 62.6531 265.632 62.6531C266.087 62.6531 266.463 62.5773 266.759 62.4257C267.062 62.2741 267.28 62.0896 267.412 61.8721V63.0584ZM265.484 59.5092C265.108 59.5092 264.808 59.6015 264.584 59.786C264.36 59.9706 264.218 60.2408 264.159 60.5967H266.65C266.637 60.2606 266.529 59.9969 266.324 59.8058C266.12 59.6081 265.84 59.5092 265.484 59.5092ZM271.977 59.6278H270.375L270.346 60.2507C270.313 61.0218 270.244 61.6315 270.138 62.0797C270.039 62.5278 269.914 62.8673 269.763 63.098C269.611 63.3221 269.443 63.4638 269.258 63.5231C269.074 63.5824 268.886 63.6121 268.695 63.6121C268.603 63.6121 268.51 63.6055 268.418 63.5923C268.332 63.5857 268.263 63.5758 268.21 63.5626V62.3664C268.289 62.3927 268.375 62.4059 268.467 62.4059C268.573 62.4059 268.672 62.3861 268.764 62.3466C268.863 62.3005 268.949 62.1884 269.021 62.0105C269.094 61.8325 269.153 61.5623 269.199 61.1998C269.252 60.8373 269.288 60.3331 269.308 59.6872L269.347 58.6096H273.124V63.5527H271.977V59.6278ZM278.749 61.7534C278.743 62.3861 278.565 62.8442 278.215 63.1276C277.866 63.411 277.303 63.5527 276.525 63.5527H274.538V58.6096H275.694V60.0727H276.653C276.99 60.0727 277.286 60.0991 277.543 60.1518C277.807 60.2046 278.028 60.2968 278.206 60.4286C278.384 60.5539 278.519 60.7252 278.611 60.9427C278.703 61.1602 278.749 61.4305 278.749 61.7534ZM277.593 61.7435C277.579 61.4865 277.497 61.3151 277.345 61.2294C277.2 61.1372 276.94 61.091 276.564 61.091H275.694V62.5344H276.495C276.891 62.5344 277.171 62.4784 277.336 62.3664C277.507 62.2477 277.593 62.0401 277.593 61.7435Z" fill="white"/>
<path d="M193.899 45.6038C194.06 45.4429 194.06 45.1821 193.899 45.0212L191.277 42.3997C191.116 42.2388 190.856 42.2388 190.695 42.3997C190.534 42.5606 190.534 42.8214 190.695 42.9823L193.025 45.3125L190.695 47.6427C190.534 47.8036 190.534 48.0644 190.695 48.2253C190.856 48.3862 191.116 48.3862 191.277 48.2253L193.899 45.6038ZM144.176 45.7244L146.235 45.7244L146.235 44.9006L144.176 44.9006L144.176 45.7244ZM150.355 45.7244L154.474 45.7244L154.474 44.9006L150.355 44.9006L150.355 45.7244ZM158.593 45.7244L162.713 45.7244L162.713 44.9006L158.593 44.9006L158.593 45.7244ZM166.832 45.7244L170.951 45.7244L170.951 44.9006L166.832 44.9006L166.832 45.7244ZM175.071 45.7244L179.19 45.7244L179.19 44.9006L175.071 44.9006L175.071 45.7244ZM183.309 45.7244L187.429 45.7244L187.429 44.9006L183.309 44.9006L183.309 45.7244ZM191.548 45.7244L193.608 45.7244L193.608 44.9006L191.548 44.9006L191.548 45.7244ZM194.19 45.8951C194.512 45.5733 194.512 45.0517 194.19 44.7299L188.947 39.4869C188.625 39.1652 188.104 39.1652 187.782 39.4869C187.46 39.8086 187.46 40.3303 187.782 40.652L192.442 45.3125L187.782 49.973C187.46 50.2947 187.46 50.8164 187.782 51.1381C188.104 51.4598 188.625 51.4598 188.947 51.1381L194.19 45.8951ZM144.176 46.1364L146.235 46.1364L146.235 44.4886L144.176 44.4886L144.176 46.1364ZM150.355 46.1364L154.474 46.1364L154.474 44.4886L150.355 44.4886L150.355 46.1364ZM158.593 46.1364L162.713 46.1364L162.713 44.4886L158.593 44.4886L158.593 46.1364ZM166.832 46.1364L170.951 46.1364L170.951 44.4886L166.832 44.4886L166.832 46.1364ZM175.071 46.1364L179.19 46.1364L179.19 44.4886L175.071 44.4886L175.071 46.1364ZM183.309 46.1364L187.429 46.1364L187.429 44.4886L183.309 44.4886L183.309 46.1364ZM191.548 46.1364L193.608 46.1364L193.608 44.4886L191.548 44.4886L191.548 46.1364Z" fill="#404040"/>
<path d="M94.4527 45.6038C94.2918 45.4429 94.2918 45.1821 94.4527 45.0212L97.0742 42.3997C97.2351 42.2388 97.4959 42.2388 97.6568 42.3997C97.8176 42.5606 97.8176 42.8214 97.6568 42.9823L95.3265 45.3125L97.6568 47.6427C97.8176 47.8036 97.8176 48.0644 97.6568 48.2253C97.4959 48.3862 97.2351 48.3862 97.0742 48.2253L94.4527 45.6038ZM144.176 45.7244H142.116V44.9006H144.176V45.7244ZM137.997 45.7244H133.877V44.9006H137.997V45.7244ZM129.758 45.7244H125.639V44.9006H129.758V45.7244ZM121.52 45.7244H117.4V44.9006H121.52V45.7244ZM113.281 45.7244H109.162V44.9006H113.281V45.7244ZM105.042 45.7244H100.923V44.9006H105.042V45.7244ZM96.8036 45.7244H94.744V44.9006H96.8036V45.7244ZM94.1614 45.8951C93.8397 45.5733 93.8397 45.0517 94.1614 44.7299L99.4044 39.4869C99.7262 39.1652 100.248 39.1652 100.57 39.4869C100.891 39.8086 100.891 40.3303 100.57 40.652L95.9091 45.3125L100.57 49.973C100.891 50.2947 100.891 50.8164 100.57 51.1381C100.248 51.4598 99.7262 51.4598 99.4044 51.1381L94.1614 45.8951ZM144.176 46.1364H142.116V44.4886H144.176V46.1364ZM137.997 46.1364H133.877V44.4886H137.997V46.1364ZM129.758 46.1364H125.639V44.4886H129.758V46.1364ZM121.52 46.1364H117.4V44.4886H121.52V46.1364ZM113.281 46.1364H109.162V44.4886H113.281V46.1364ZM105.042 46.1364H100.923V44.4886H105.042V46.1364ZM96.8036 46.1364H94.744V44.4886H96.8036V46.1364Z" fill="#404040"/>
<path d="M117.51 24.0831C117.741 23.5218 117.941 22.7836 118.11 21.8686C118.287 20.9459 118.383 19.8578 118.398 18.6044L118.421 16.932H123.842V24.0831H124.88V26.5053H123.911V25.0059H117.51V26.5053H116.541V24.0831H117.51ZM119.321 18.639C119.305 19.1773 119.275 19.704 119.229 20.2192C119.19 20.7267 119.136 21.215 119.067 21.684C118.998 22.1454 118.913 22.5799 118.813 22.9874C118.713 23.3949 118.606 23.7602 118.49 24.0831H122.804V17.8547H119.332L119.321 18.639ZM125.652 22.0993C125.652 21.5995 125.725 21.165 125.871 20.7959C126.018 20.4191 126.217 20.1077 126.471 19.8617C126.725 19.6156 127.025 19.431 127.371 19.308C127.717 19.185 128.094 19.1235 128.501 19.1235C129.409 19.1312 130.112 19.3849 130.612 19.8847C131.112 20.3845 131.362 21.1381 131.362 22.1454C131.362 22.6452 131.289 23.0835 131.142 23.4603C130.996 23.8294 130.796 24.137 130.543 24.383C130.289 24.6291 129.989 24.8136 129.643 24.9367C129.297 25.0597 128.92 25.1212 128.513 25.1212C127.598 25.1135 126.89 24.8636 126.39 24.3715C125.898 23.8717 125.652 23.1143 125.652 22.0993ZM126.621 22.1339C126.621 22.8797 126.783 23.4257 127.106 23.7717C127.429 24.1177 127.898 24.2907 128.513 24.2907C129.12 24.2907 129.585 24.1139 129.908 23.7602C130.231 23.3988 130.393 22.8605 130.393 22.1454V22.1108C130.393 21.3726 130.227 20.8305 129.897 20.4845C129.574 20.1385 129.109 19.9616 128.501 19.9539C127.894 19.9539 127.429 20.1346 127.106 20.496C126.783 20.8497 126.621 21.3842 126.621 22.0993V22.1339ZM132.77 19.2388H136.622V20.0923H133.727V25.0059H132.77V19.2388ZM137.682 22.0993C137.682 21.5995 137.755 21.165 137.901 20.7959C138.047 20.4191 138.247 20.1077 138.501 19.8617C138.755 19.6156 139.055 19.431 139.401 19.308C139.747 19.185 140.123 19.1235 140.531 19.1235C141.438 19.1312 142.142 19.3849 142.642 19.8847C143.141 20.3845 143.391 21.1381 143.391 22.1454C143.391 22.6452 143.318 23.0835 143.172 23.4603C143.026 23.8294 142.826 24.137 142.572 24.383C142.319 24.6291 142.019 24.8136 141.673 24.9367C141.327 25.0597 140.95 25.1212 140.542 25.1212C139.627 25.1135 138.92 24.8636 138.42 24.3715C137.928 23.8717 137.682 23.1143 137.682 22.0993ZM138.651 22.1339C138.651 22.8797 138.812 23.4257 139.135 23.7717C139.458 24.1177 139.927 24.2907 140.542 24.2907C141.15 24.2907 141.615 24.1139 141.938 23.7602C142.261 23.3988 142.422 22.8605 142.422 22.1454V22.1108C142.422 21.3726 142.257 20.8305 141.927 20.4845C141.604 20.1385 141.138 19.9616 140.531 19.9539C139.923 19.9539 139.458 20.1346 139.135 20.496C138.812 20.8497 138.651 21.3842 138.651 22.0993V22.1339ZM144.8 19.2388H147.372C148.102 19.2388 148.61 19.3542 148.894 19.5848C149.186 19.8078 149.333 20.1269 149.333 20.5422C149.333 20.9113 149.244 21.2111 149.067 21.4418C148.898 21.6648 148.656 21.8148 148.341 21.8917C148.525 21.9147 148.694 21.9532 148.848 22.007C149.01 22.0608 149.144 22.1416 149.252 22.2492C149.367 22.3569 149.456 22.4953 149.517 22.6644C149.586 22.8336 149.621 23.0451 149.621 23.2988C149.621 23.8755 149.436 24.3061 149.067 24.5906C148.698 24.8675 148.118 25.0059 147.326 25.0059H144.8V19.2388ZM147.314 24.1754C147.791 24.1754 148.133 24.1062 148.341 23.9678C148.556 23.8217 148.664 23.6025 148.664 23.3103C148.664 22.9643 148.56 22.7336 148.352 22.6183C148.145 22.4953 147.856 22.4338 147.487 22.4338H145.757V24.1754H147.314ZM147.176 21.6148C147.537 21.6148 147.825 21.5533 148.041 21.4303C148.256 21.3073 148.364 21.0843 148.364 20.7613C148.364 20.4768 148.271 20.2923 148.087 20.2077C147.902 20.1154 147.626 20.0693 147.256 20.0693L145.757 20.0808V21.6148H147.176ZM150.624 22.0993C150.624 21.5995 150.697 21.165 150.843 20.7959C150.989 20.4191 151.189 20.1077 151.443 19.8617C151.697 19.6156 151.997 19.431 152.343 19.308C152.689 19.185 153.065 19.1235 153.473 19.1235C154.38 19.1312 155.084 19.3849 155.584 19.8847C156.083 20.3845 156.333 21.1381 156.333 22.1454C156.333 22.6452 156.26 23.0835 156.114 23.4603C155.968 23.8294 155.768 24.137 155.514 24.383C155.261 24.6291 154.961 24.8136 154.615 24.9367C154.269 25.0597 153.892 25.1212 153.484 25.1212C152.569 25.1135 151.862 24.8636 151.362 24.3715C150.87 23.8717 150.624 23.1143 150.624 22.0993ZM151.593 22.1339C151.593 22.8797 151.754 23.4257 152.077 23.7717C152.4 24.1177 152.869 24.2907 153.484 24.2907C154.092 24.2907 154.557 24.1139 154.88 23.7602C155.203 23.3988 155.365 22.8605 155.365 22.1454V22.1108C155.365 21.3726 155.199 20.8305 154.869 20.4845C154.546 20.1385 154.08 19.9616 153.473 19.9539C152.865 19.9539 152.4 20.1346 152.077 20.496C151.754 20.8497 151.593 21.3842 151.593 22.0993V22.1339ZM157.742 19.2388H158.653V20.3461C158.799 20.0078 159.045 19.7194 159.391 19.481C159.737 19.2427 160.202 19.1235 160.787 19.1235C161.556 19.1235 162.167 19.3503 162.621 19.804C163.074 20.2577 163.301 20.9882 163.301 21.9955C163.301 22.5645 163.24 23.0489 163.117 23.4488C163.001 23.8409 162.828 24.1639 162.598 24.4176C162.375 24.6637 162.102 24.8444 161.779 24.9597C161.456 25.0751 161.087 25.1327 160.671 25.1327C160.187 25.1327 159.776 25.0328 159.437 24.8328C159.107 24.6252 158.861 24.3869 158.699 24.1177V27.082H157.742V19.2388ZM158.699 22.3646C158.699 22.9643 158.864 23.4334 159.195 23.7717C159.533 24.1024 159.975 24.2677 160.521 24.2677C161.152 24.2677 161.609 24.0985 161.894 23.7602C162.186 23.4218 162.332 22.8528 162.332 22.0531C162.332 21.6687 162.29 21.3457 162.205 21.0843C162.121 20.8151 161.998 20.5998 161.836 20.4384C161.683 20.2769 161.494 20.1615 161.271 20.0923C161.048 20.0231 160.802 19.9885 160.533 19.9885C159.933 19.9885 159.48 20.15 159.172 20.473C158.872 20.7882 158.714 21.2342 158.699 21.8109V22.3646ZM164.68 19.2388H165.638V21.0958H166.802C167.195 21.0958 167.537 21.1227 167.829 21.1765C168.129 21.2304 168.379 21.3265 168.579 21.4649C168.779 21.6033 168.929 21.7955 169.029 22.0416C169.136 22.28 169.19 22.5875 169.19 22.9643C169.19 23.3411 169.144 23.6602 169.052 23.9217C168.959 24.1754 168.809 24.383 168.602 24.5445C168.402 24.706 168.14 24.8252 167.817 24.9021C167.495 24.9713 167.106 25.0059 166.653 25.0059H164.68V19.2388ZM169.986 19.2388H170.943V25.0059H169.986V19.2388ZM168.233 22.9643C168.225 22.749 168.194 22.576 168.14 22.4453C168.094 22.3146 168.01 22.2146 167.887 22.1454C167.771 22.0685 167.614 22.0185 167.414 21.9955C167.222 21.9647 166.983 21.9493 166.699 21.9493H165.638V24.1523H166.641C166.918 24.1523 167.156 24.137 167.356 24.1062C167.556 24.0678 167.721 24.0062 167.852 23.9217C167.983 23.8294 168.079 23.7064 168.14 23.5526C168.202 23.3988 168.233 23.2027 168.233 22.9643Z" fill="#404040"/>
<circle cx="244.687" cy="251.279" r="41.1932" fill="#5BD595"/>
<path d="M234.057 262.597H238.971V263.734H235.293V264.97H236.647C237.603 264.97 238.318 265.151 238.793 265.514C239.274 265.876 239.514 266.44 239.514 267.204C239.514 267.586 239.445 267.923 239.307 268.213C239.175 268.496 238.981 268.737 238.724 268.934C238.473 269.125 238.17 269.27 237.814 269.369C237.458 269.468 237.059 269.518 236.618 269.518H234.057V262.597ZM235.293 266.107V268.381H236.608C236.852 268.381 237.073 268.361 237.27 268.321C237.475 268.282 237.646 268.216 237.784 268.124C237.929 268.031 238.038 267.909 238.111 267.758C238.19 267.6 238.229 267.405 238.229 267.175C238.229 266.759 238.091 266.479 237.814 266.334C237.544 266.183 237.142 266.107 236.608 266.107H235.293ZM240.794 264.92C240.959 264.795 241.186 264.69 241.476 264.604C241.773 264.518 242.136 264.476 242.564 264.476C243.289 264.476 243.829 264.611 244.185 264.881C244.541 265.151 244.719 265.609 244.719 266.255V269.518H243.632V268.628C243.513 268.918 243.309 269.152 243.019 269.33C242.735 269.508 242.396 269.597 242 269.597C241.499 269.597 241.107 269.465 240.824 269.201C240.547 268.931 240.409 268.552 240.409 268.064C240.409 267.781 240.458 267.547 240.557 267.362C240.656 267.178 240.794 267.033 240.972 266.927C241.15 266.815 241.364 266.736 241.615 266.69C241.865 266.644 242.142 266.621 242.445 266.621H243.562V266.403C243.562 266.054 243.477 265.813 243.305 265.682C243.141 265.55 242.893 265.484 242.564 265.484C242.109 265.484 241.743 265.566 241.467 265.731C241.19 265.889 240.966 266.1 240.794 266.364V264.92ZM242.366 268.559C242.564 268.559 242.732 268.536 242.87 268.489C243.015 268.437 243.137 268.374 243.236 268.302C243.335 268.222 243.411 268.137 243.464 268.045C243.516 267.952 243.549 267.863 243.562 267.778V267.372H242.584C242.241 267.372 241.987 267.412 241.822 267.491C241.658 267.57 241.575 267.722 241.575 267.946C241.575 268.137 241.641 268.288 241.773 268.4C241.911 268.506 242.109 268.559 242.366 268.559ZM249.444 267.521H247.21V269.518H246.053V264.574H247.21V266.502H249.444V264.574H250.601V269.518H249.444V267.521ZM252.001 264.574H253.157V266.502H253.958L255.342 264.574H256.627L254.897 266.908L256.904 269.518H255.5L253.948 267.471H253.157V269.518H252.001V264.574Z" fill="white"/>
<g clip-path="url(#clip0)">
<path d="M244.583 224.168L230.039 231.171V234.814H260.162V231.151L244.583 224.168ZM258.153 232.806H232.047V232.433L244.613 226.382L258.153 232.452V232.806Z" fill="white" stroke="#5BD595" stroke-width="0.823864"/>
<path d="M232.047 248.871H258.153V250.879H232.047V248.871Z" fill="white" stroke="#5BD595" stroke-width="0.823864"/>
<path d="M230.039 252.385H260.162V254.393H230.039V252.385Z" fill="white" stroke="#5BD595" stroke-width="0.823864"/>
<path d="M232.549 236.822H234.557V246.863H232.549V236.822Z" fill="white" stroke="#5BD595" stroke-width="0.823864"/>
<path d="M255.643 236.822H257.651V246.863H255.643V236.822Z" fill="white" stroke="#5BD595" stroke-width="0.823864"/>
<path d="M249.619 236.822H251.627V246.863H249.619V236.822Z" fill="white" stroke="#5BD595" stroke-width="0.823864"/>
<path d="M238.574 236.822H240.582V246.863H238.574V236.822Z" fill="white" stroke="#5BD595" stroke-width="0.823864"/>
<path d="M244.096 236.822H246.104V246.863H244.096V236.822Z" fill="white" stroke="#5BD595" stroke-width="0.823864"/>
</g>
<circle cx="42.0174" cy="251.279" r="41.1932" fill="#5BD595"/>
<path d="M31.3853 262.597H36.2988V263.734H32.6211V264.97H33.9755C34.9312 264.97 35.6463 265.151 36.1209 265.514C36.602 265.876 36.8426 266.44 36.8426 267.204C36.8426 267.586 36.7734 267.923 36.635 268.213C36.5031 268.496 36.3087 268.737 36.0517 268.934C35.8012 269.125 35.498 269.27 35.1421 269.369C34.7862 269.468 34.3875 269.518 33.9459 269.518H31.3853V262.597ZM32.6211 266.107V268.381H33.936C34.1798 268.381 34.4006 268.361 34.5984 268.321C34.8027 268.282 34.9741 268.216 35.1125 268.124C35.2575 268.031 35.3662 267.909 35.4387 267.758C35.5178 267.6 35.5573 267.405 35.5573 267.175C35.5573 266.759 35.4189 266.479 35.1421 266.334C34.8719 266.183 34.4698 266.107 33.936 266.107H32.6211ZM38.1224 264.92C38.2872 264.795 38.5146 264.69 38.8046 264.604C39.1011 264.518 39.4636 264.476 39.8921 264.476C40.6171 264.476 41.1575 264.611 41.5134 264.881C41.8693 265.151 42.0473 265.609 42.0473 266.255V269.518H40.9598V268.628C40.8411 268.918 40.6368 269.152 40.3468 269.33C40.0634 269.508 39.724 269.597 39.3285 269.597C38.8276 269.597 38.4355 269.465 38.1521 269.201C37.8752 268.931 37.7368 268.552 37.7368 268.064C37.7368 267.781 37.7863 267.547 37.8851 267.362C37.984 267.178 38.1224 267.033 38.3003 266.927C38.4783 266.815 38.6925 266.736 38.943 266.69C39.1934 266.644 39.4702 266.621 39.7734 266.621H40.8906V266.403C40.8906 266.054 40.8049 265.813 40.6335 265.682C40.4688 265.55 40.2216 265.484 39.8921 265.484C39.4373 265.484 39.0715 265.566 38.7947 265.731C38.5178 265.889 38.2938 266.1 38.1224 266.364V264.92ZM39.6943 268.559C39.8921 268.559 40.0601 268.536 40.1985 268.489C40.3435 268.437 40.4655 268.374 40.5643 268.302C40.6632 268.222 40.739 268.137 40.7917 268.045C40.8444 267.952 40.8774 267.863 40.8906 267.778V267.372H39.9118C39.5691 267.372 39.3153 267.412 39.1506 267.491C38.9858 267.57 38.9034 267.722 38.9034 267.946C38.9034 268.137 38.9693 268.288 39.1011 268.4C39.2396 268.506 39.4373 268.559 39.6943 268.559ZM46.7724 267.521H44.5381V269.518H43.3814V264.574H44.5381V266.502H46.7724V264.574H47.9291V269.518H46.7724V267.521ZM49.3287 264.574H50.4854V266.502H51.2862L52.6703 264.574H53.9555L52.2254 266.908L54.2323 269.518H52.8284L51.2763 267.471H50.4854V269.518H49.3287V264.574Z" fill="white"/>
<g clip-path="url(#clip1)">
<path d="M41.9113 224.168L27.3672 231.171V234.814H57.4897V231.151L41.9113 224.168ZM55.4815 232.806H29.3754V232.433L41.9415 226.382L55.4815 232.452V232.806Z" fill="white" stroke="#5BD595" stroke-width="0.823864"/>
<path d="M29.375 248.871H55.4812V250.879H29.375V248.871Z" fill="white" stroke="#5BD595" stroke-width="0.823864"/>
<path d="M27.3672 252.387H57.4897V254.395H27.3672V252.387Z" fill="white" stroke="#5BD595" stroke-width="0.823864"/>
<path d="M29.8789 236.822H31.8871V246.863H29.8789V236.822Z" fill="white" stroke="#5BD595" stroke-width="0.823864"/>
<path d="M52.9727 236.822H54.9808V246.863H52.9727V236.822Z" fill="white" stroke="#5BD595" stroke-width="0.823864"/>
<path d="M46.9473 236.822H48.9554V246.863H46.9473V236.822Z" fill="white" stroke="#5BD595" stroke-width="0.823864"/>
<path d="M35.9023 236.822H37.9105V246.863H35.9023V236.822Z" fill="white" stroke="#5BD595" stroke-width="0.823864"/>
<path d="M41.4258 236.822H43.4339V246.863H41.4258V236.822Z" fill="white" stroke="#5BD595" stroke-width="0.823864"/>
</g>
<path d="M244.979 98.5738C244.818 98.4129 244.557 98.4129 244.396 98.5738L241.775 101.195C241.614 101.356 241.614 101.617 241.775 101.778C241.936 101.939 242.196 101.939 242.357 101.778L244.688 99.4476L247.018 101.778C247.179 101.939 247.439 101.939 247.6 101.778C247.761 101.617 247.761 101.356 247.6 101.195L244.979 98.5738ZM245.099 148.297L245.099 146.237L244.276 146.237L244.276 148.297L245.099 148.297ZM245.099 142.118L245.099 137.999L244.276 137.999L244.276 142.118L245.099 142.118ZM245.099 133.879L245.099 129.76L244.276 129.76L244.276 133.879L245.099 133.879ZM245.099 125.641L245.099 121.521L244.276 121.521L244.276 125.641L245.099 125.641ZM245.099 117.402L245.099 113.283L244.276 113.283L244.276 117.402L245.099 117.402ZM245.099 109.163L245.099 105.044L244.276 105.044L244.276 109.163L245.099 109.163ZM245.099 100.925L245.099 98.8651L244.276 98.8651L244.276 100.925L245.099 100.925ZM245.27 98.2825C244.948 97.9608 244.427 97.9608 244.105 98.2825L238.862 103.526C238.54 103.847 238.54 104.369 238.862 104.691C239.184 105.012 239.705 105.012 240.027 104.691L244.688 100.03L249.348 104.691C249.67 105.012 250.191 105.012 250.513 104.691C250.835 104.369 250.835 103.847 250.513 103.526L245.27 98.2825ZM245.511 148.297L245.511 146.237L243.864 146.237L243.864 148.297L245.511 148.297ZM245.511 142.118L245.511 137.999L243.864 137.999L243.864 142.118L245.511 142.118ZM245.511 133.879L245.511 129.76L243.864 129.76L243.864 133.879L245.511 133.879ZM245.511 125.641L245.511 121.521L243.864 121.521L243.864 125.641L245.511 125.641ZM245.511 117.402L245.511 113.283L243.864 113.283L243.864 117.402L245.511 117.402ZM245.511 109.163L245.511 105.044L243.864 105.044L243.864 109.163L245.511 109.163ZM245.511 100.925L245.511 98.8651L243.864 98.8651L243.864 100.925L245.511 100.925Z" fill="#404040"/>
<path d="M244.979 198.02C244.818 198.181 244.557 198.181 244.396 198.02L241.775 195.398C241.614 195.238 241.614 194.977 241.775 194.816C241.936 194.655 242.196 194.655 242.357 194.816L244.688 197.146L247.018 194.816C247.179 194.655 247.439 194.655 247.6 194.816C247.761 194.977 247.761 195.238 247.6 195.398L244.979 198.02ZM245.099 148.297L245.099 150.357L244.276 150.357L244.276 148.297L245.099 148.297ZM245.099 154.476L245.099 158.595L244.276 158.595L244.276 154.476L245.099 154.476ZM245.099 162.714L245.099 166.834L244.276 166.834L244.276 162.714L245.099 162.714ZM245.099 170.953L245.099 175.072L244.276 175.072L244.276 170.953L245.099 170.953ZM245.099 179.192L245.099 183.311L244.276 183.311L244.276 179.192L245.099 179.192ZM245.099 187.43L245.099 191.55L244.276 191.55L244.276 187.43L245.099 187.43ZM245.099 195.669L245.099 197.729L244.276 197.729L244.276 195.669L245.099 195.669ZM245.27 198.311C244.948 198.633 244.427 198.633 244.105 198.311L238.862 193.068C238.54 192.746 238.54 192.225 238.862 191.903C239.184 191.581 239.705 191.581 240.027 191.903L244.688 196.564L249.348 191.903C249.67 191.581 250.191 191.581 250.513 191.903C250.835 192.225 250.835 192.746 250.513 193.068L245.27 198.311ZM245.511 148.297L245.511 150.357L243.864 150.357L243.864 148.297L245.511 148.297ZM245.511 154.476L245.511 158.595L243.864 158.595L243.864 154.476L245.511 154.476ZM245.511 162.714L245.511 166.834L243.864 166.834L243.864 162.714L245.511 162.714ZM245.511 170.953L245.511 175.072L243.864 175.072L243.864 170.953L245.511 170.953ZM245.511 179.192L245.511 183.311L243.864 183.311L243.864 179.192L245.511 179.192ZM245.511 187.43L245.511 191.55L243.864 191.55L243.864 187.43L245.511 187.43ZM245.511 195.669L245.511 197.729L243.864 197.729L243.864 195.669L245.511 195.669Z" fill="#404040"/>
<path d="M223.447 165.151C223.57 165.251 223.693 165.393 223.816 165.578C223.939 165.762 224.05 165.982 224.15 166.235C224.25 166.481 224.331 166.762 224.392 167.077C224.462 167.385 224.496 167.716 224.496 168.069C224.496 168.715 224.4 169.3 224.208 169.822C224.008 170.338 223.731 170.776 223.377 171.137C223.016 171.499 222.578 171.779 222.063 171.979C221.547 172.172 220.971 172.268 220.332 172.268C219.733 172.268 219.183 172.172 218.683 171.979C218.176 171.787 217.737 171.51 217.368 171.149C216.999 170.78 216.711 170.338 216.503 169.822C216.295 169.3 216.192 168.707 216.192 168.046C216.192 167.716 216.219 167.408 216.272 167.123C216.319 166.839 216.384 166.585 216.468 166.362C216.545 166.132 216.634 165.932 216.734 165.762C216.826 165.593 216.918 165.463 217.011 165.37L218.637 165.37C218.445 165.486 218.26 165.632 218.083 165.809C217.899 165.985 217.737 166.189 217.599 166.42C217.453 166.651 217.337 166.904 217.253 167.181C217.161 167.458 217.114 167.746 217.114 168.046C217.114 168.531 217.191 168.969 217.345 169.361C217.499 169.746 217.718 170.072 218.003 170.341C218.287 170.611 218.629 170.818 219.029 170.964C219.421 171.11 219.859 171.183 220.344 171.183C220.798 171.183 221.221 171.118 221.613 170.987C221.997 170.857 222.335 170.664 222.628 170.411C222.912 170.149 223.139 169.826 223.308 169.442C223.477 169.057 223.566 168.615 223.573 168.115C223.573 167.746 223.531 167.408 223.447 167.1C223.354 166.785 223.235 166.504 223.089 166.258C222.935 166.005 222.762 165.786 222.57 165.601C222.37 165.416 222.162 165.266 221.947 165.151L223.447 165.151ZM223.47 163.712C223.254 163.612 223.016 163.523 222.755 163.446C222.493 163.37 222.197 163.304 221.866 163.25C221.528 163.189 221.147 163.143 220.725 163.112C220.302 163.081 219.817 163.066 219.271 163.066L218.614 163.066L218.614 159.006L223.47 159.006L223.47 158.072L225.88 158.072L225.88 158.983L224.381 158.983L224.381 163.493L225.88 163.493L225.88 164.404L223.47 164.404L223.47 163.712ZM219.94 162.166C220.678 162.182 221.328 162.235 221.889 162.328C222.451 162.412 222.978 162.558 223.47 162.766L223.47 159.963L219.467 159.963L219.467 162.155L219.94 162.166ZM218.498 154.463C218.498 153.663 218.737 153.04 219.214 152.594C219.69 152.14 220.359 151.914 221.221 151.914L221.843 151.914L221.843 156.331C222.466 156.285 222.928 156.1 223.227 155.778C223.52 155.455 223.666 155.009 223.666 154.44C223.666 153.886 223.57 153.432 223.377 153.079C223.185 152.725 222.951 152.471 222.674 152.317L223.793 152.317C223.969 152.463 224.131 152.713 224.277 153.067C224.423 153.413 224.496 153.871 224.496 154.44C224.496 155.355 224.246 156.062 223.746 156.562C223.247 157.062 222.489 157.312 221.474 157.312C220.974 157.312 220.54 157.239 220.171 157.092C219.794 156.946 219.483 156.746 219.237 156.493C218.991 156.239 218.806 155.939 218.683 155.593C218.56 155.247 218.498 154.87 218.498 154.463ZM219.329 154.463C219.329 155.009 219.471 155.439 219.756 155.754C220.04 156.07 220.463 156.258 221.024 156.32L221.024 152.871L221.013 152.871C220.459 152.871 220.04 153.021 219.756 153.321C219.471 153.621 219.329 154.001 219.329 154.463ZM219.467 146.862L219.467 149.099L219.906 149.111C220.621 149.134 221.232 149.176 221.74 149.238C222.239 149.299 222.658 149.376 222.997 149.468C223.335 149.561 223.6 149.665 223.793 149.78C223.985 149.895 224.131 150.018 224.231 150.149C224.323 150.28 224.381 150.414 224.404 150.553C224.435 150.691 224.45 150.829 224.45 150.968C224.45 151.145 224.431 151.299 224.392 151.429L223.366 151.429C223.389 151.329 223.4 151.233 223.4 151.141C223.4 151.041 223.393 150.949 223.377 150.864C223.354 150.772 223.3 150.687 223.216 150.61C223.131 150.526 223.008 150.453 222.847 150.391C222.678 150.322 222.447 150.26 222.155 150.207C221.855 150.153 221.482 150.111 221.036 150.08C220.59 150.041 220.048 150.011 219.41 149.987L218.614 149.964L218.614 145.904L224.381 145.904L224.381 146.862L219.467 146.862ZM218.614 144.055L218.614 143.098L221.024 143.098L221.024 142.06L218.614 140.249L218.614 139.153L221.336 141.264L224.381 138.772L224.381 139.984L221.843 142.06L221.843 143.098L224.381 143.098L224.381 144.055L218.614 144.055ZM219.052 137.531C218.906 137.339 218.779 137.078 218.671 136.747C218.556 136.409 218.498 136.016 218.498 135.57C218.498 135.201 218.533 134.871 218.602 134.578C218.671 134.286 218.787 134.04 218.948 133.84C219.11 133.633 219.325 133.475 219.594 133.367C219.856 133.26 220.182 133.206 220.575 133.206L224.381 133.206L224.381 134.117L223.4 134.117C223.723 134.271 223.985 134.521 224.185 134.867C224.377 135.205 224.473 135.605 224.473 136.066C224.473 136.643 224.323 137.104 224.023 137.45C223.723 137.797 223.277 137.97 222.685 137.97C222.37 137.97 222.109 137.916 221.901 137.808C221.686 137.693 221.517 137.531 221.394 137.324C221.263 137.116 221.174 136.862 221.128 136.562C221.074 136.262 221.048 135.92 221.048 135.536L221.048 134.163L220.586 134.163C220.34 134.163 220.136 134.198 219.975 134.267C219.813 134.336 219.686 134.432 219.594 134.555C219.494 134.678 219.425 134.828 219.387 135.005C219.348 135.174 219.329 135.363 219.329 135.57C219.329 136.024 219.429 136.416 219.629 136.747C219.829 137.07 220.09 137.331 220.413 137.531L219.052 137.531ZM223.585 135.824C223.585 135.532 223.543 135.286 223.458 135.086C223.374 134.878 223.274 134.709 223.158 134.578C223.035 134.448 222.908 134.352 222.778 134.29C222.647 134.221 222.532 134.179 222.432 134.163L221.809 134.163L221.809 135.501C221.809 136.024 221.863 136.405 221.97 136.643C222.078 136.874 222.297 136.989 222.628 136.989C222.912 136.989 223.143 136.893 223.32 136.701C223.497 136.509 223.585 136.216 223.585 135.824ZM224.381 128.743L223.677 128.743C222.962 127.905 222.355 127.221 221.855 126.69C221.355 126.152 220.921 125.729 220.552 125.421C220.182 125.114 219.856 124.906 219.571 124.798C219.287 124.683 219.006 124.625 218.729 124.625C218.245 124.625 217.872 124.772 217.61 125.064C217.341 125.356 217.207 125.76 217.207 126.275C217.199 126.752 217.284 127.175 217.46 127.544C217.637 127.913 217.887 128.228 218.21 128.489L217.045 128.489C216.945 128.389 216.845 128.263 216.745 128.109C216.638 127.955 216.545 127.778 216.468 127.578C216.384 127.378 216.319 127.151 216.272 126.898C216.226 126.644 216.203 126.371 216.203 126.079C216.219 125.302 216.43 124.699 216.838 124.268C217.245 123.83 217.81 123.61 218.533 123.61C218.879 123.61 219.214 123.66 219.537 123.76C219.852 123.86 220.179 124.03 220.517 124.268C220.855 124.506 221.221 124.818 221.613 125.202C221.997 125.587 222.424 126.06 222.893 126.621L223.435 127.255L223.435 123.38L224.381 123.38L224.381 128.743Z" fill="#404040"/>
<path d="M42.3089 98.5738C42.148 98.4129 41.8872 98.4129 41.7263 98.5738L39.1048 101.195C38.9439 101.356 38.9439 101.617 39.1048 101.778C39.2657 101.939 39.5265 101.939 39.6873 101.778L42.0176 99.4476L44.3478 101.778C44.5087 101.939 44.7695 101.939 44.9304 101.778C45.0912 101.617 45.0912 101.356 44.9304 101.195L42.3089 98.5738ZM42.4295 148.297L42.4295 146.237L41.6056 146.237L41.6056 148.297L42.4295 148.297ZM42.4295 142.118L42.4295 137.999L41.6056 137.999L41.6056 142.118L42.4295 142.118ZM42.4295 133.879L42.4295 129.76L41.6056 129.76L41.6056 133.879L42.4295 133.879ZM42.4295 125.641L42.4295 121.521L41.6056 121.521L41.6056 125.641L42.4295 125.641ZM42.4295 117.402L42.4295 113.283L41.6056 113.283L41.6056 117.402L42.4295 117.402ZM42.4295 109.163L42.4295 105.044L41.6056 105.044L41.6056 109.163L42.4295 109.163ZM42.4295 100.925L42.4295 98.8651L41.6056 98.8651L41.6056 100.925L42.4295 100.925ZM42.6001 98.2825C42.2784 97.9608 41.7568 97.9608 41.435 98.2825L36.192 103.526C35.8702 103.847 35.8702 104.369 36.192 104.691C36.5137 105.012 37.0354 105.012 37.3571 104.691L42.0176 100.03L46.6781 104.691C46.9998 105.012 47.5214 105.012 47.8432 104.691C48.1649 104.369 48.1649 103.847 47.8432 103.526L42.6001 98.2825ZM42.8414 148.297L42.8414 146.237L41.1937 146.237L41.1937 148.297L42.8414 148.297ZM42.8414 142.118L42.8414 137.999L41.1937 137.999L41.1937 142.118L42.8414 142.118ZM42.8414 133.879L42.8414 129.76L41.1937 129.76L41.1937 133.879L42.8414 133.879ZM42.8414 125.641L42.8414 121.521L41.1937 121.521L41.1937 125.641L42.8414 125.641ZM42.8414 117.402L42.8414 113.283L41.1937 113.283L41.1937 117.402L42.8414 117.402ZM42.8414 109.163L42.8414 105.044L41.1937 105.044L41.1937 109.163L42.8414 109.163ZM42.8414 100.925L42.8414 98.8651L41.1937 98.8651L41.1937 100.925L42.8414 100.925Z" fill="#404040"/>
<path d="M42.3089 198.02C42.148 198.181 41.8872 198.181 41.7263 198.02L39.1048 195.398C38.9439 195.238 38.9439 194.977 39.1048 194.816C39.2657 194.655 39.5265 194.655 39.6873 194.816L42.0176 197.146L44.3478 194.816C44.5087 194.655 44.7695 194.655 44.9304 194.816C45.0912 194.977 45.0912 195.238 44.9304 195.398L42.3089 198.02ZM42.4295 148.297L42.4295 150.357L41.6056 150.357L41.6056 148.297L42.4295 148.297ZM42.4295 154.476L42.4295 158.595L41.6056 158.595L41.6056 154.476L42.4295 154.476ZM42.4295 162.714L42.4295 166.834L41.6056 166.834L41.6056 162.714L42.4295 162.714ZM42.4295 170.953L42.4295 175.072L41.6056 175.072L41.6056 170.953L42.4295 170.953ZM42.4295 179.192L42.4295 183.311L41.6056 183.311L41.6056 179.192L42.4295 179.192ZM42.4295 187.43L42.4295 191.55L41.6056 191.55L41.6056 187.43L42.4295 187.43ZM42.4295 195.669L42.4295 197.729L41.6056 197.729L41.6056 195.669L42.4295 195.669ZM42.6001 198.311C42.2784 198.633 41.7568 198.633 41.435 198.311L36.192 193.068C35.8702 192.746 35.8702 192.225 36.192 191.903C36.5137 191.581 37.0354 191.581 37.3571 191.903L42.0176 196.564L46.6781 191.903C46.9998 191.581 47.5214 191.581 47.8432 191.903C48.1649 192.225 48.1649 192.746 47.8432 193.068L42.6001 198.311ZM42.8414 148.297L42.8414 150.357L41.1937 150.357L41.1937 148.297L42.8414 148.297ZM42.8414 154.476L42.8414 158.595L41.1937 158.595L41.1937 154.476L42.8414 154.476ZM42.8414 162.714L42.8414 166.834L41.1937 166.834L41.1937 162.714L42.8414 162.714ZM42.8414 170.953L42.8414 175.072L41.1937 175.072L41.1937 170.953L42.8414 170.953ZM42.8414 179.192L42.8414 183.311L41.1937 183.311L41.1937 179.192L42.8414 179.192ZM42.8414 187.43L42.8414 191.55L41.1937 191.55L41.1937 187.43L42.8414 187.43ZM42.8414 195.669L42.8414 197.729L41.1937 197.729L41.1937 195.669L42.8414 195.669Z" fill="#404040"/>
<path d="M20.7767 164.347C20.8997 164.447 21.0227 164.59 21.1458 164.774C21.2688 164.959 21.3803 165.178 21.4803 165.432C21.5802 165.678 21.661 165.958 21.7225 166.274C21.7917 166.581 21.8263 166.912 21.8263 167.265C21.8263 167.911 21.7302 168.496 21.5379 169.019C21.338 169.534 21.0612 169.972 20.7075 170.334C20.3461 170.695 19.9078 170.976 19.3926 171.176C18.8774 171.368 18.3007 171.464 17.6625 171.464C17.0627 171.464 16.5129 171.368 16.0131 171.176C15.5056 170.983 15.0673 170.706 14.6982 170.345C14.3291 169.976 14.0408 169.534 13.8332 169.019C13.6255 168.496 13.5217 167.904 13.5217 167.242C13.5217 166.912 13.5486 166.604 13.6025 166.32C13.6486 166.035 13.714 165.781 13.7986 165.558C13.8754 165.328 13.9639 165.128 14.0638 164.959C14.1561 164.79 14.2484 164.659 14.3407 164.567L15.967 164.567C15.7747 164.682 15.5902 164.828 15.4133 165.005C15.2288 165.182 15.0673 165.385 14.9289 165.616C14.7828 165.847 14.6675 166.101 14.5829 166.377C14.4906 166.654 14.4445 166.943 14.4445 167.242C14.4445 167.727 14.5214 168.165 14.6751 168.557C14.8289 168.942 15.0481 169.269 15.3326 169.538C15.6171 169.807 15.9593 170.014 16.3591 170.161C16.7513 170.307 17.1896 170.38 17.674 170.38C18.1277 170.38 18.5506 170.314 18.9428 170.184C19.3272 170.053 19.6656 169.861 19.9578 169.607C20.2423 169.345 20.4691 169.023 20.6383 168.638C20.8074 168.254 20.8959 167.811 20.9036 167.312C20.9036 166.943 20.8613 166.604 20.7767 166.297C20.6844 165.981 20.5652 165.701 20.4191 165.455C20.2653 165.201 20.0923 164.982 19.9001 164.797C19.7002 164.613 19.4925 164.463 19.2772 164.347L20.7767 164.347ZM20.7997 162.908C20.5844 162.808 20.3461 162.72 20.0846 162.643C19.8232 162.566 19.5271 162.5 19.1965 162.447C18.8582 162.385 18.4775 162.339 18.0546 162.308C17.6317 162.277 17.1473 162.262 16.6013 162.262L15.9439 162.262L15.9439 158.202L20.7997 158.202L20.7997 157.268L23.2104 157.268L23.2104 158.179L21.7109 158.179L21.7109 162.689L23.2104 162.689L23.2104 163.6L20.7997 163.6L20.7997 162.908ZM17.2703 161.362C18.0085 161.378 18.6582 161.432 19.2196 161.524C19.7809 161.608 20.3076 161.755 20.7997 161.962L20.7997 159.159L16.7974 159.159L16.7974 161.351L17.2703 161.362ZM15.8285 153.659C15.8285 152.859 16.0669 152.236 16.5437 151.79C17.0204 151.337 17.6894 151.11 18.5506 151.11L19.1734 151.11L19.1734 155.527C19.7963 155.481 20.2576 155.297 20.5575 154.974C20.8497 154.651 20.9958 154.205 20.9958 153.636C20.9958 153.082 20.8997 152.628 20.7075 152.275C20.5152 151.921 20.2807 151.667 20.0039 151.514L21.1227 151.514C21.2996 151.66 21.461 151.91 21.6071 152.263C21.7532 152.609 21.8263 153.067 21.8263 153.636C21.8263 154.551 21.5764 155.258 21.0766 155.758C20.5768 156.258 19.8193 156.508 18.8043 156.508C18.3045 156.508 17.8701 156.435 17.501 156.289C17.1242 156.143 16.8128 155.943 16.5667 155.689C16.3207 155.435 16.1361 155.135 16.0131 154.789C15.8901 154.443 15.8285 154.066 15.8285 153.659ZM16.659 153.659C16.659 154.205 16.8013 154.635 17.0858 154.951C17.3703 155.266 17.7932 155.454 18.3545 155.516L18.3545 152.067L18.343 152.067C17.7893 152.067 17.3703 152.217 17.0858 152.517C16.8013 152.817 16.659 153.198 16.659 153.659ZM16.7974 146.058L16.7974 148.296L17.2357 148.307C17.9508 148.33 18.5621 148.373 19.0696 148.434C19.5694 148.496 19.9885 148.572 20.3268 148.665C20.6652 148.757 20.9305 148.861 21.1227 148.976C21.3149 149.091 21.461 149.214 21.561 149.345C21.6533 149.476 21.7109 149.61 21.734 149.749C21.7648 149.887 21.7801 150.026 21.7801 150.164C21.7801 150.341 21.7609 150.495 21.7225 150.625L20.6959 150.625C20.719 150.526 20.7305 150.429 20.7305 150.337C20.7305 150.237 20.7228 150.145 20.7075 150.06C20.6844 149.968 20.6306 149.883 20.546 149.807C20.4614 149.722 20.3384 149.649 20.1769 149.587C20.0077 149.518 19.7771 149.457 19.4849 149.403C19.185 149.349 18.812 149.307 18.366 149.276C17.9201 149.238 17.378 149.207 16.7397 149.184L15.9439 149.161L15.9439 145.101L21.7109 145.101L21.7109 146.058L16.7974 146.058ZM15.9439 143.251L15.9439 142.294L18.3545 142.294L18.3545 141.256L15.9439 139.445L15.9439 138.349L18.6659 140.46L21.7109 137.969L21.7109 139.18L19.1734 141.256L19.1734 142.294L21.7109 142.294L21.7109 143.251L15.9439 143.251ZM16.3822 136.727C16.2361 136.535 16.1092 136.274 16.0016 135.943C15.8862 135.605 15.8285 135.213 15.8285 134.767C15.8285 134.398 15.8632 134.067 15.9324 133.775C16.0016 133.483 16.1169 133.236 16.2784 133.037C16.4399 132.829 16.6552 132.671 16.9243 132.564C17.1857 132.456 17.5125 132.402 17.9047 132.402L21.7109 132.402L21.7109 133.313L20.7305 133.313C21.0535 133.467 21.3149 133.717 21.5149 134.063C21.7071 134.401 21.8032 134.801 21.8032 135.263C21.8032 135.839 21.6533 136.301 21.3534 136.647C21.0535 136.993 20.6075 137.166 20.0154 137.166C19.7002 137.166 19.4387 137.112 19.2311 137.004C19.0158 136.889 18.8466 136.727 18.7236 136.52C18.5929 136.312 18.5045 136.058 18.4583 135.759C18.4045 135.459 18.3776 135.117 18.3776 134.732L18.3776 133.36L17.9162 133.36C17.6702 133.36 17.4664 133.394 17.3049 133.463C17.1434 133.533 17.0166 133.629 16.9243 133.752C16.8243 133.875 16.7551 134.025 16.7167 134.201C16.6782 134.371 16.659 134.559 16.659 134.767C16.659 135.22 16.759 135.612 16.9589 135.943C17.1588 136.266 17.4203 136.528 17.7432 136.727L16.3822 136.727ZM20.9151 135.02C20.9151 134.728 20.8728 134.482 20.7882 134.282C20.7036 134.075 20.6037 133.905 20.4883 133.775C20.3653 133.644 20.2384 133.548 20.1077 133.486C19.977 133.417 19.8616 133.375 19.7617 133.36L19.1388 133.36L19.1388 134.697C19.1388 135.22 19.1927 135.601 19.3003 135.839C19.408 136.07 19.6271 136.185 19.9578 136.185C20.2423 136.185 20.4729 136.089 20.6498 135.897C20.8267 135.705 20.9151 135.413 20.9151 135.02ZM14.802 126.071L15.9439 127.882L14.8943 127.882L13.5563 125.806L13.5563 125.114L21.7109 125.114L21.7109 126.071L14.802 126.071Z" fill="#404040"/>
<circle cx="244.687" cy="45.3123" r="41.1932" fill="#5BD595"/>
<g opacity="0.5">
<rect x="244.688" y="65.9082" width="1.64773" height="20.5966" fill="white"/>
<rect x="244.688" y="46.1367" width="1.64773" height="9.0625" fill="white"/>
<rect x="244.688" width="4.11932" height="45.3125" fill="white"/>
<rect x="244.688" y="41.1934" width="45.3125" height="4.11932" fill="white"/>
<rect x="203.494" y="44.4883" width="86.5057" height="1.64773" fill="white"/>
</g>
<path d="M290 41.1932C290 35.7836 288.934 30.427 286.864 25.4292C284.794 20.4314 281.76 15.8903 277.934 12.0652C274.109 8.24006 269.568 5.20579 264.57 3.13564C259.573 1.06549 254.216 -2.3646e-07 248.806 0V41.1932H290Z" fill="#5BD595"/>
<path d="M220.258 57.7673H216.571V63.5508H215.335V56.6303H221.494V63.5508H220.258V57.7673ZM225.297 63.6595C224.908 63.6595 224.559 63.6068 224.249 63.5013C223.939 63.3893 223.673 63.2245 223.448 63.007C223.224 62.7895 223.053 62.5193 222.934 62.1963C222.816 61.8734 222.756 61.4944 222.756 61.0594C222.756 60.631 222.819 60.2586 222.944 59.9423C223.069 59.6193 223.244 59.3524 223.468 59.1415C223.692 58.924 223.963 58.7625 224.279 58.657C224.595 58.5516 224.948 58.4988 225.337 58.4988C225.719 58.4988 226.065 58.5549 226.375 58.6669C226.691 58.779 226.958 58.9437 227.176 59.1612C227.4 59.3787 227.571 59.649 227.69 59.9719C227.808 60.2949 227.868 60.6706 227.868 61.099C227.868 61.5274 227.805 61.9031 227.68 62.226C227.555 62.5424 227.38 62.806 227.156 63.0169C226.932 63.2278 226.662 63.3893 226.345 63.5013C226.029 63.6068 225.679 63.6595 225.297 63.6595ZM223.933 61.0891C223.933 61.6361 224.055 62.0349 224.299 62.2853C224.543 62.5292 224.882 62.6511 225.317 62.6511C225.759 62.6511 226.098 62.5259 226.335 62.2754C226.573 62.0184 226.691 61.6262 226.691 61.099V61.0693C226.691 60.5223 226.566 60.1268 226.315 59.8829C226.072 59.6325 225.732 59.5073 225.297 59.5073C224.856 59.5138 224.516 59.6457 224.279 59.9027C224.048 60.1532 223.933 60.5387 223.933 61.0594V61.0891ZM228.857 62.5028C228.923 62.3249 228.982 62.1304 229.035 61.9195C229.094 61.702 229.144 61.4582 229.183 61.1879C229.223 60.9177 229.252 60.6178 229.272 60.2883C229.292 59.9521 229.302 59.5798 229.302 59.1711V58.6076H233.098V62.5028H233.849V64.836H232.801V63.5508H229.331V64.836H228.283V62.5028H228.857ZM230.379 59.7445C230.366 60.3179 230.33 60.8254 230.271 61.267C230.211 61.702 230.112 62.114 229.974 62.5028H231.941V59.6259H230.379V59.7445ZM234.842 58.6076H235.93V59.6358C235.976 59.4974 236.042 59.3623 236.127 59.2304C236.22 59.092 236.335 58.9701 236.474 58.8646C236.619 58.7592 236.79 58.6735 236.988 58.6076C237.185 58.5417 237.416 58.5087 237.68 58.5087C237.996 58.5087 238.283 58.5582 238.54 58.657C238.803 58.7493 239.027 58.8943 239.212 59.092C239.403 59.2898 239.551 59.5435 239.657 59.8533C239.762 60.1631 239.815 60.5354 239.815 60.9704C239.815 61.4582 239.762 61.8734 239.657 62.2161C239.551 62.5523 239.4 62.8291 239.202 63.0466C239.011 63.2575 238.777 63.4124 238.5 63.5112C238.223 63.6101 237.917 63.6595 237.581 63.6595C237.185 63.6595 236.852 63.5738 236.582 63.4025C236.319 63.2311 236.124 63.0301 235.999 62.7994V65.4588H234.842V58.6076ZM235.999 61.2473C235.999 61.6954 236.118 62.0415 236.355 62.2853C236.592 62.5226 236.915 62.6412 237.324 62.6412C237.792 62.6412 238.131 62.5193 238.342 62.2754C238.553 62.025 238.658 61.6065 238.658 61.0199C238.658 60.4794 238.536 60.0971 238.293 59.8731C238.055 59.649 237.739 59.5369 237.344 59.5369C236.889 59.5369 236.553 59.6556 236.335 59.8928C236.124 60.1301 236.012 60.4563 235.999 60.8716V61.2473ZM243.872 61.9195H242.725L241.727 63.5508H240.452L241.598 61.7613C241.302 61.6427 241.078 61.4681 240.926 61.2374C240.774 61.0001 240.699 60.72 240.699 60.397C240.699 59.7775 240.877 59.326 241.233 59.0426C241.588 58.7526 242.152 58.6076 242.923 58.6076H245.029V63.5508H243.872V61.9195ZM242.953 59.6259C242.564 59.6259 242.284 59.6819 242.112 59.794C241.941 59.906 241.855 60.107 241.855 60.397C241.862 60.6013 241.934 60.7595 242.073 60.8716C242.211 60.977 242.432 61.0298 242.735 61.0298H243.872V59.6259H242.953ZM246.457 62.5028C246.523 62.3249 246.582 62.1304 246.635 61.9195C246.695 61.702 246.744 61.4582 246.784 61.1879C246.823 60.9177 246.853 60.6178 246.872 60.2883C246.892 59.9521 246.902 59.5798 246.902 59.1711V58.6076H250.699V62.5028H251.45V64.836H250.402V63.5508H246.932V64.836H245.884V62.5028H246.457ZM247.98 59.7445C247.967 60.3179 247.93 60.8254 247.871 61.267C247.812 61.702 247.713 62.114 247.574 62.5028H249.542V59.6259H247.98V59.7445ZM255.274 61.8108C255.103 61.9096 254.905 61.9821 254.681 62.0283C254.457 62.0744 254.229 62.0975 253.999 62.0975C253.406 62.0975 252.941 61.9591 252.605 61.6823C252.269 61.4054 252.101 60.9704 252.101 60.3773V58.6076H253.257V60.1993C253.257 60.4959 253.336 60.7167 253.495 60.8617C253.659 61.0001 253.897 61.0693 254.206 61.0693C254.615 61.0693 254.971 60.9935 255.274 60.8419V58.6076H256.431V63.5508H255.274V61.8108ZM257.84 58.6076H258.987V61.9591L261.359 58.6076H262.457V63.5508H261.31V60.1598L258.937 63.5508H257.84V58.6076ZM263.864 58.6076H265.021V60.5354H265.822L267.206 58.6076H268.491L266.761 60.9408L268.768 63.5508H267.364L265.812 61.5043H265.021V63.5508H263.864V58.6076ZM269.619 58.6076H270.765V61.9591L273.138 58.6076H274.235V63.5508H273.089V60.1598L270.716 63.5508H269.619V58.6076Z" fill="white"/>
<defs>
<clipPath id="clip0">
<rect width="32.1307" height="32.1307" fill="white" transform="translate(229.033 223.268)"/>
</clipPath>
<clipPath id="clip1">
<rect width="32.1307" height="32.1307" fill="white" transform="translate(26.3633 223.268)"/>
</clipPath>
</defs>
</svg>
