<svg width="210" height="161" viewBox="0 0 210 161" fill="none" xmlns="http://www.w3.org/2000/svg">
<g filter="url(#filter0_d)">
<path d="M72.6035 33.5508L58.0007 42.7451V33.5508H72.6035Z" fill="white"/>
<rect x="58.002" y="13" width="27.0423" height="20.5521" fill="white"/>
<path d="M63.9326 20.5036C64.084 20.3926 64.3087 20.2866 64.6065 20.1856C64.9043 20.0846 65.2653 20.0342 65.6893 20.0342C65.9871 20.0342 66.2572 20.0619 66.4995 20.1174C66.7418 20.1679 66.9487 20.2487 67.1204 20.3597C67.297 20.4658 67.4308 20.602 67.5217 20.7686C67.6176 20.9352 67.6655 21.1346 67.6655 21.3668C67.6655 21.9776 67.3526 22.394 66.7266 22.6162C67.5343 22.7373 67.9381 23.1512 67.9381 23.8579C67.9381 24.0851 67.8927 24.2996 67.8018 24.5015C67.711 24.6984 67.5747 24.87 67.3929 25.0164C67.2112 25.1578 66.9841 25.2713 66.7115 25.3572C66.4439 25.443 66.1335 25.4859 65.7801 25.4859C65.5378 25.4859 65.3107 25.4657 65.0987 25.4253C64.8917 25.39 64.7024 25.342 64.5308 25.2814C64.3642 25.2158 64.2178 25.1451 64.0916 25.0694C63.9705 24.9887 63.8746 24.9079 63.8039 24.8271V23.6611C63.8847 23.7974 63.9881 23.9236 64.1143 24.0397C64.2405 24.1558 64.3869 24.2567 64.5535 24.3425C64.7201 24.4283 64.9069 24.4965 65.1138 24.547C65.3258 24.5924 65.553 24.6151 65.7953 24.6151C65.9568 24.6151 66.1083 24.5974 66.2496 24.5621C66.3909 24.5268 66.5121 24.4763 66.613 24.4107C66.719 24.34 66.8023 24.2542 66.8629 24.1532C66.9235 24.0523 66.9538 23.9336 66.9538 23.7974C66.9538 23.5601 66.8604 23.386 66.6736 23.2749C66.4919 23.1638 66.1941 23.1083 65.7801 23.1083H64.9775V22.3284H65.7726C65.9442 22.3284 66.0881 22.3108 66.2042 22.2754C66.3203 22.235 66.4136 22.182 66.4843 22.1164C66.555 22.0508 66.6055 21.9751 66.6358 21.8893C66.6711 21.8034 66.6888 21.7101 66.6888 21.6091C66.6888 21.4879 66.6635 21.3845 66.613 21.2987C66.5626 21.2078 66.4919 21.1346 66.401 21.0791C66.3102 21.0235 66.2042 20.9832 66.083 20.9579C65.9619 20.9276 65.8306 20.91 65.6893 20.9049C65.4874 20.8999 65.2955 20.9226 65.1138 20.9731C64.9371 21.0235 64.7731 21.0942 64.6216 21.1851C64.4753 21.2709 64.3415 21.3693 64.2203 21.4804C64.1042 21.5914 64.0083 21.705 63.9326 21.8211V20.5036ZM73.4004 24.8271C73.3347 24.9079 73.2414 24.9887 73.1202 25.0694C73.0041 25.1451 72.8653 25.2158 72.7038 25.2814C72.5422 25.342 72.3605 25.3925 72.1586 25.4329C71.9617 25.4733 71.7497 25.4934 71.5225 25.4934C71.0884 25.4934 70.6947 25.4303 70.3413 25.3042C69.988 25.178 69.6851 24.9988 69.4327 24.7666C69.1854 24.5293 68.991 24.2416 68.8497 23.9034C68.7134 23.5652 68.6452 23.1815 68.6452 22.7524C68.6452 22.3537 68.7134 21.9877 68.8497 21.6545C68.986 21.3214 69.1803 21.0336 69.4327 20.7913C69.6851 20.549 69.988 20.3623 70.3413 20.231C70.6997 20.0947 71.0985 20.0266 71.5377 20.0266C71.9567 20.0266 72.3151 20.0796 72.6129 20.1856C72.9107 20.2866 73.1379 20.3926 73.2944 20.5036V21.8211C73.2136 21.705 73.1126 21.5914 72.9915 21.4804C72.8754 21.3693 72.7416 21.2709 72.5902 21.1851C72.4438 21.0993 72.2797 21.0311 72.098 20.9806C71.9213 20.9251 71.7346 20.8973 71.5377 20.8973C71.25 20.8973 70.99 20.9428 70.7578 21.0336C70.5256 21.1245 70.3287 21.2507 70.1672 21.4122C70.0057 21.5738 69.882 21.7706 69.7962 22.0028C69.7104 22.23 69.6674 22.4824 69.6674 22.76C69.6674 23.0175 69.7053 23.2598 69.781 23.4869C69.8618 23.709 69.9779 23.9034 70.1293 24.0699C70.2858 24.2365 70.4802 24.3703 70.7124 24.4712C70.9446 24.5672 71.2121 24.6176 71.515 24.6227C71.7472 24.6227 71.9592 24.5974 72.151 24.547C72.3479 24.4965 72.5246 24.4283 72.681 24.3425C72.8426 24.2567 72.9839 24.1558 73.1051 24.0397C73.2262 23.9236 73.3246 23.7974 73.4004 23.6611V24.8271ZM74.3907 24.5394C74.4664 24.3577 74.5346 24.1583 74.5952 23.9412C74.6608 23.7242 74.7163 23.4819 74.7618 23.2143C74.8122 22.9417 74.8526 22.6414 74.8829 22.3133C74.9132 21.9801 74.9309 21.6116 74.9359 21.2078L74.951 20.1099H78.6764V24.5394H79.2897V26.3945H78.4038V25.4102H74.7012V26.3945H73.8153V24.5394H74.3907ZM75.8142 21.2305C75.7839 22.6035 75.6174 23.7065 75.3145 24.5394H77.7299V20.9806H75.8142V21.2305Z" fill="#213782"/>
</g>
<g filter="url(#filter1_d)">
<path d="M22.1113 60.5469L36.7141 69.7412V60.5469H22.1113Z" fill="white"/>
<rect x="14" y="39.9961" width="22.7155" height="20.5521" fill="white"/>
<path d="M24.9659 48.4235L23.2623 51.2402H22.7852L21.0437 48.4613V52.4062H20.0972V47.106H21.2936L23.0503 49.9908L24.7918 47.106H25.9124V52.4062H24.9659V48.4235ZM29.3364 47.106H30.3434V50.2634H31.04V51.0888H30.3434V52.4062H29.4651V51.0888H26.8074V50.3921L29.3364 47.106ZM29.4651 50.2634V48.1585L27.8068 50.2634H29.4651Z" fill="#404040"/>
</g>
<g filter="url(#filter2_d)">
<path d="M68.4395 62.5523H56L68.4395 54.9805V62.5523Z" fill="white"/>
<rect x="68.4395" y="42" width="24.338" height="20.5521" fill="white"/>
<path d="M79.4073 50.4274L77.7037 53.2441H77.2266L75.4851 50.4652V54.4102H74.5386V49.1099H75.735L77.4917 51.9947L79.2332 49.1099H80.3538V54.4102H79.4073V50.4274ZM82.5814 50.1624L81.4456 50.8665V49.9352L82.8086 49.0569H83.4673V54.4102H82.5814V50.1624ZM85.6279 50.1624L84.4921 50.8665V49.9352L85.855 49.0569H86.5138V54.4102H85.6279V50.1624Z" fill="#404040"/>
</g>
<g filter="url(#filter3_d)">
<path d="M82.4395 85.5523H70L82.4395 77.9805V85.5523Z" fill="white"/>
<rect x="82.4395" y="65" width="102.761" height="20.5521" fill="white"/>
<path d="M91.9193 75.1159H89.4812V76.5394H92.2828V77.4102H88.5347V72.1099H92.1995V72.9806H89.4812V74.2451H91.9193V75.1159ZM93.2562 73.6242H95.1643C95.6186 73.6242 95.9417 73.7 96.1335 73.8514C96.3253 73.9978 96.4212 74.2148 96.4212 74.5026C96.4212 74.7297 96.3632 74.919 96.2471 75.0705C96.136 75.2168 95.977 75.3153 95.77 75.3658C95.8912 75.3809 96.0022 75.4087 96.1032 75.4491C96.2092 75.4844 96.2975 75.5374 96.3682 75.6081C96.4439 75.6787 96.502 75.7696 96.5424 75.8806C96.5878 75.9917 96.6105 76.128 96.6105 76.2895C96.6105 76.653 96.4894 76.9306 96.2471 77.1224C96.0098 77.3142 95.6413 77.4102 95.1416 77.4102H93.2562V73.6242ZM95.0583 76.6757C95.2955 76.6757 95.4672 76.6404 95.5732 76.5697C95.6792 76.494 95.7322 76.3804 95.7322 76.229C95.7322 76.0624 95.6792 75.9488 95.5732 75.8882C95.4722 75.8226 95.3183 75.7898 95.1113 75.7898H94.1421V76.6757H95.0583ZM94.9523 75.1538C95.129 75.1538 95.2703 75.1235 95.3763 75.0629C95.4823 74.9973 95.5353 74.8837 95.5353 74.7222C95.5353 74.5808 95.4874 74.4849 95.3914 74.4344C95.2955 74.3839 95.1517 74.3587 94.9599 74.3587L94.1421 74.3663V75.1538H94.9523ZM97.4192 73.6242H98.2521V74.4117C98.2875 74.3057 98.3379 74.2022 98.4036 74.1013C98.4742 73.9953 98.5626 73.9019 98.6686 73.8211C98.7796 73.7403 98.9109 73.6747 99.0623 73.6242C99.2137 73.5738 99.3904 73.5485 99.5923 73.5485C99.8346 73.5485 100.054 73.5864 100.251 73.6621C100.453 73.7328 100.625 73.8438 100.766 73.9953C100.912 74.1467 101.026 74.341 101.107 74.5783C101.187 74.8155 101.228 75.1007 101.228 75.4339C101.228 75.8075 101.187 76.1255 101.107 76.388C101.026 76.6454 100.91 76.8574 100.758 77.024C100.612 77.1855 100.433 77.3042 100.221 77.3799C100.009 77.4556 99.7741 77.4934 99.5166 77.4934C99.2137 77.4934 98.9588 77.4278 98.7519 77.2966C98.5499 77.1653 98.401 77.0114 98.3051 76.8347V78.8715H97.4192V73.6242ZM98.3051 75.6459C98.3051 75.9892 98.396 76.2542 98.5777 76.441C98.7594 76.6227 99.0068 76.7135 99.3197 76.7135C99.6781 76.7135 99.9381 76.6202 100.1 76.4334C100.261 76.2416 100.342 75.921 100.342 75.4718C100.342 75.0578 100.249 74.7651 100.062 74.5934C99.8801 74.4218 99.6378 74.336 99.3349 74.336C98.9866 74.336 98.7291 74.4269 98.5626 74.6086C98.401 74.7903 98.3152 75.0402 98.3051 75.3582V75.6459ZM103.722 77.4934C103.424 77.4934 103.156 77.4531 102.919 77.3723C102.682 77.2865 102.478 77.1603 102.306 76.9937C102.134 76.8271 102.003 76.6202 101.912 76.3728C101.821 76.1255 101.776 75.8352 101.776 75.5021C101.776 75.1739 101.824 74.8887 101.92 74.6464C102.016 74.3991 102.149 74.1947 102.321 74.0331C102.493 73.8665 102.7 73.7429 102.942 73.6621C103.184 73.5813 103.454 73.541 103.752 73.541C104.045 73.541 104.31 73.5839 104.547 73.6697C104.789 73.7555 104.994 73.8817 105.16 74.0483C105.332 74.2148 105.463 74.4218 105.554 74.6692C105.645 74.9165 105.69 75.2042 105.69 75.5323C105.69 75.8605 105.643 76.1482 105.547 76.3955C105.451 76.6378 105.317 76.8397 105.145 77.0013C104.974 77.1628 104.767 77.2865 104.524 77.3723C104.282 77.4531 104.015 77.4934 103.722 77.4934ZM102.677 75.5248C102.677 75.9437 102.77 76.2491 102.957 76.441C103.144 76.6277 103.404 76.7211 103.737 76.7211C104.075 76.7211 104.335 76.6252 104.517 76.4334C104.699 76.2365 104.789 75.9362 104.789 75.5323V75.5096C104.789 75.0907 104.694 74.7878 104.502 74.601C104.315 74.4092 104.055 74.3133 103.722 74.3133C103.384 74.3183 103.124 74.4193 102.942 74.6162C102.765 74.808 102.677 75.1033 102.677 75.5021V75.5248ZM109.043 74.4041H107.393V77.4102H106.507V73.6242H109.929V77.4102H109.043V74.4041ZM111.094 73.8893C111.22 73.7933 111.394 73.7126 111.616 73.647C111.843 73.5813 112.121 73.5485 112.449 73.5485C113.004 73.5485 113.418 73.652 113.691 73.859C113.963 74.0659 114.1 74.4168 114.1 74.9115V77.4102H113.267V76.7287C113.176 76.9508 113.019 77.13 112.797 77.2663C112.58 77.4026 112.32 77.4707 112.017 77.4707C111.634 77.4707 111.333 77.3698 111.116 77.1679C110.904 76.9609 110.798 76.6706 110.798 76.2971C110.798 76.08 110.836 75.9008 110.912 75.7595C110.988 75.6182 111.094 75.5071 111.23 75.4263C111.366 75.3405 111.53 75.2799 111.722 75.2446C111.914 75.2093 112.126 75.1916 112.358 75.1916H113.214V75.025C113.214 74.7575 113.148 74.5732 113.017 74.4723C112.891 74.3713 112.701 74.3208 112.449 74.3208C112.101 74.3208 111.82 74.3839 111.608 74.5101C111.396 74.6313 111.225 74.7928 111.094 74.9947V73.8893ZM112.297 76.6757C112.449 76.6757 112.578 76.658 112.684 76.6227C112.795 76.5823 112.888 76.5343 112.964 76.4788C113.039 76.4182 113.098 76.3526 113.138 76.282C113.178 76.2113 113.204 76.1431 113.214 76.0775V75.7671H112.464C112.202 75.7671 112.007 75.7974 111.881 75.8579C111.755 75.9185 111.692 76.0346 111.692 76.2062C111.692 76.3526 111.742 76.4687 111.843 76.5545C111.949 76.6353 112.101 76.6757 112.297 76.6757ZM115.182 74.7676H117.211V75.5853H115.182V74.7676ZM118.338 72.5036C118.489 72.3926 118.714 72.2866 119.011 72.1856C119.309 72.0846 119.67 72.0342 120.094 72.0342C120.392 72.0342 120.662 72.0619 120.904 72.1174C121.147 72.1679 121.354 72.2487 121.525 72.3597C121.702 72.4658 121.836 72.602 121.927 72.7686C122.022 72.9352 122.07 73.1346 122.07 73.3668C122.07 73.9776 121.757 74.394 121.132 74.6162C121.939 74.7373 122.343 75.1512 122.343 75.8579C122.343 76.0851 122.298 76.2996 122.207 76.5015C122.116 76.6984 121.98 76.87 121.798 77.0164C121.616 77.1578 121.389 77.2713 121.116 77.3572C120.849 77.443 120.538 77.4859 120.185 77.4859C119.943 77.4859 119.716 77.4657 119.504 77.4253C119.297 77.39 119.107 77.342 118.936 77.2814C118.769 77.2158 118.623 77.1451 118.497 77.0694C118.375 76.9887 118.279 76.9079 118.209 76.8271V75.6611C118.29 75.7974 118.393 75.9236 118.519 76.0397C118.645 76.1558 118.792 76.2567 118.958 76.3425C119.125 76.4283 119.312 76.4965 119.519 76.547C119.731 76.5924 119.958 76.6151 120.2 76.6151C120.362 76.6151 120.513 76.5974 120.655 76.5621C120.796 76.5268 120.917 76.4763 121.018 76.4107C121.124 76.34 121.207 76.2542 121.268 76.1532C121.328 76.0523 121.359 75.9336 121.359 75.7974C121.359 75.5601 121.265 75.386 121.079 75.2749C120.897 75.1638 120.599 75.1083 120.185 75.1083H119.382V74.3284H120.177C120.349 74.3284 120.493 74.3108 120.609 74.2754C120.725 74.235 120.819 74.182 120.889 74.1164C120.96 74.0508 121.01 73.9751 121.041 73.8893C121.076 73.8034 121.094 73.7101 121.094 73.6091C121.094 73.4879 121.068 73.3845 121.018 73.2987C120.967 73.2078 120.897 73.1346 120.806 73.0791C120.715 73.0235 120.609 72.9832 120.488 72.9579C120.367 72.9276 120.236 72.91 120.094 72.9049C119.892 72.8999 119.7 72.9226 119.519 72.9731C119.342 73.0235 119.178 73.0942 119.027 73.1851C118.88 73.2709 118.746 73.3693 118.625 73.4804C118.509 73.5914 118.413 73.705 118.338 73.8211V72.5036ZM123.368 73.8893C123.494 73.7933 123.669 73.7126 123.891 73.647C124.118 73.5813 124.395 73.5485 124.724 73.5485C125.279 73.5485 125.693 73.652 125.965 73.859C126.238 74.0659 126.374 74.4168 126.374 74.9115V77.4102H125.541V76.7287C125.45 76.9508 125.294 77.13 125.072 77.2663C124.855 77.4026 124.595 77.4707 124.292 77.4707C123.908 77.4707 123.608 77.3698 123.391 77.1679C123.179 76.9609 123.073 76.6706 123.073 76.2971C123.073 76.08 123.111 75.9008 123.186 75.7595C123.262 75.6182 123.368 75.5071 123.504 75.4263C123.641 75.3405 123.805 75.2799 123.997 75.2446C124.188 75.2093 124.4 75.1916 124.633 75.1916H125.488V75.025C125.488 74.7575 125.423 74.5732 125.291 74.4723C125.165 74.3713 124.976 74.3208 124.724 74.3208C124.375 74.3208 124.095 74.3839 123.883 74.5101C123.671 74.6313 123.499 74.7928 123.368 74.9947V73.8893ZM124.572 76.6757C124.724 76.6757 124.852 76.658 124.958 76.6227C125.069 76.5823 125.163 76.5343 125.238 76.4788C125.314 76.4182 125.372 76.3526 125.413 76.282C125.453 76.2113 125.478 76.1431 125.488 76.0775V75.7671H124.739C124.476 75.7671 124.282 75.7974 124.156 75.8579C124.029 75.9185 123.966 76.0346 123.966 76.2062C123.966 76.3526 124.017 76.4687 124.118 76.5545C124.224 76.6353 124.375 76.6757 124.572 76.6757ZM129.933 74.4041H128.282V77.4102H127.396V73.6242H130.818V77.4102H129.933V74.4041ZM131.983 73.8893C132.109 73.7933 132.283 73.7126 132.505 73.647C132.732 73.5813 133.01 73.5485 133.338 73.5485C133.893 73.5485 134.307 73.652 134.58 73.859C134.852 74.0659 134.989 74.4168 134.989 74.9115V77.4102H134.156V76.7287C134.065 76.9508 133.908 77.13 133.686 77.2663C133.469 77.4026 133.209 77.4707 132.906 77.4707C132.523 77.4707 132.222 77.3698 132.005 77.1679C131.793 76.9609 131.687 76.6706 131.687 76.2971C131.687 76.08 131.725 75.9008 131.801 75.7595C131.877 75.6182 131.983 75.5071 132.119 75.4263C132.255 75.3405 132.419 75.2799 132.611 75.2446C132.803 75.2093 133.015 75.1916 133.247 75.1916H134.103V75.025C134.103 74.7575 134.037 74.5732 133.906 74.4723C133.78 74.3713 133.59 74.3208 133.338 74.3208C132.99 74.3208 132.71 74.3839 132.498 74.5101C132.285 74.6313 132.114 74.7928 131.983 74.9947V73.8893ZM133.187 76.6757C133.338 76.6757 133.467 76.658 133.573 76.6227C133.684 76.5823 133.777 76.5343 133.853 76.4788C133.929 76.4182 133.987 76.3526 134.027 76.282C134.067 76.2113 134.093 76.1431 134.103 76.0775V75.7671H133.353C133.091 75.7671 132.896 75.7974 132.77 75.8579C132.644 75.9185 132.581 76.0346 132.581 76.2062C132.581 76.3526 132.631 76.4687 132.732 76.5545C132.838 76.6353 132.99 76.6757 133.187 76.6757ZM136.026 76.6075C136.076 76.4712 136.121 76.3223 136.162 76.1608C136.207 75.9942 136.245 75.8075 136.275 75.6005C136.306 75.3935 136.328 75.1638 136.344 74.9115C136.359 74.654 136.366 74.3688 136.366 74.0558V73.6242H139.274V76.6075H139.849V78.3945H139.047V77.4102H136.389V78.3945H135.586V76.6075H136.026ZM137.192 74.495C137.182 74.9342 137.154 75.3229 137.108 75.6611C137.063 75.9942 136.987 76.3097 136.881 76.6075H138.388V74.4041H137.192V74.495ZM143.133 75.8806H141.422V77.4102H140.536V73.6242H141.422V75.1007H143.133V73.6242H144.019V77.4102H143.133V75.8806ZM145.091 73.6242H145.977V74.7449H146.628C146.885 74.7449 147.112 74.7651 147.309 74.8054C147.511 74.8458 147.678 74.9165 147.809 75.0175C147.945 75.1134 148.049 75.2446 148.119 75.4112C148.19 75.5778 148.225 75.7847 148.225 76.0321C148.22 76.5167 148.084 76.8675 147.817 77.0846C147.549 77.3016 147.12 77.4102 146.529 77.4102H145.091V73.6242ZM148.657 73.6242H149.543V77.4102H148.657V73.6242ZM146.499 76.6303C146.802 76.6303 147.016 76.5874 147.143 76.5015C147.269 76.4157 147.334 76.2592 147.34 76.0321C147.334 75.8302 147.276 75.6964 147.165 75.6308C147.054 75.5601 146.852 75.5248 146.56 75.5248H145.977V76.6303H146.499ZM150.629 73.6242H151.508V76.1911L153.325 73.6242H154.165V77.4102H153.287V74.813L151.47 77.4102H150.629V73.6242ZM153.719 71.7389C153.719 71.9509 153.681 72.1326 153.605 72.284C153.534 72.4304 153.438 72.5516 153.317 72.6475C153.196 72.7383 153.057 72.8065 152.901 72.8519C152.749 72.8923 152.593 72.9125 152.431 72.9125C152.245 72.9125 152.068 72.8923 151.901 72.8519C151.735 72.8065 151.588 72.7383 151.462 72.6475C151.341 72.5516 151.245 72.4304 151.174 72.284C151.104 72.1326 151.068 71.9509 151.068 71.7389H151.886C151.886 71.9004 151.927 72.0266 152.007 72.1174C152.093 72.2083 152.229 72.2537 152.416 72.2537C152.568 72.2537 152.686 72.2159 152.772 72.1402C152.858 72.0644 152.901 71.9307 152.901 71.7389H153.719ZM158.308 77.4102H157.361V72.1099H158.308V74.336H159.103L160.807 72.1099H161.958L159.936 74.6313L162.283 77.4102H161.072L159.148 75.1159H158.308V77.4102ZM162.889 73.6242H163.767V76.1911L165.585 73.6242H166.425V77.4102H165.547V74.813L163.73 77.4102H162.889V73.6242ZM168.366 74.4041H167.155V73.6242H170.471V74.4041H169.245V77.4102H168.366V74.4041ZM171.225 73.8893C171.351 73.7933 171.525 73.7126 171.747 73.647C171.974 73.5813 172.252 73.5485 172.58 73.5485C173.135 73.5485 173.549 73.652 173.822 73.859C174.094 74.0659 174.231 74.4168 174.231 74.9115V77.4102H173.398V76.7287C173.307 76.9508 173.15 77.13 172.928 77.2663C172.711 77.4026 172.451 77.4707 172.148 77.4707C171.765 77.4707 171.464 77.3698 171.247 77.1679C171.035 76.9609 170.929 76.6706 170.929 76.2971C170.929 76.08 170.967 75.9008 171.043 75.7595C171.119 75.6182 171.225 75.5071 171.361 75.4263C171.497 75.3405 171.661 75.2799 171.853 75.2446C172.045 75.2093 172.257 75.1916 172.489 75.1916H173.345V75.025C173.345 74.7575 173.279 74.5732 173.148 74.4723C173.022 74.3713 172.832 74.3208 172.58 74.3208C172.232 74.3208 171.951 74.3839 171.739 74.5101C171.527 74.6313 171.356 74.7928 171.225 74.9947V73.8893ZM172.428 76.6757C172.58 76.6757 172.709 76.658 172.815 76.6227C172.926 76.5823 173.019 76.5343 173.095 76.4788C173.17 76.4182 173.229 76.3526 173.269 76.282C173.309 76.2113 173.335 76.1431 173.345 76.0775V75.7671H172.595C172.333 75.7671 172.138 75.7974 172.012 75.8579C171.886 75.9185 171.823 76.0346 171.823 76.2062C171.823 76.3526 171.873 76.4687 171.974 76.5545C172.08 76.6353 172.232 76.6757 172.428 76.6757ZM175.26 73.6242H176.138V76.1911L177.955 73.6242H178.796V77.4102H177.918V74.813L176.1 77.4102H175.26V73.6242ZM178.349 71.7389C178.349 71.9509 178.311 72.1326 178.236 72.284C178.165 72.4304 178.069 72.5516 177.948 72.6475C177.827 72.7383 177.688 72.8065 177.531 72.8519C177.38 72.8923 177.224 72.9125 177.062 72.9125C176.875 72.9125 176.699 72.8923 176.532 72.8519C176.365 72.8065 176.219 72.7383 176.093 72.6475C175.972 72.5516 175.876 72.4304 175.805 72.284C175.734 72.1326 175.699 71.9509 175.699 71.7389H176.517C176.517 71.9004 176.557 72.0266 176.638 72.1174C176.724 72.2083 176.86 72.2537 177.047 72.2537C177.198 72.2537 177.317 72.2159 177.403 72.1402C177.489 72.0644 177.531 71.9307 177.531 71.7389H178.349Z" fill="#404040"/>
</g>
<g filter="url(#filter4_d)">
<path d="M62.6016 89.1953L47.9987 80.0009V89.1953H62.6016Z" fill="white"/>
<rect x="48" y="89.1953" width="34.6141" height="20.5521" fill="white"/>
<path d="M54.0953 96.2974H55.0418V100.727H57.7752V96.2974H58.7217V100.727H59.335V102.582H58.4491V101.598H54.0953V96.2974ZM61.1569 101.598H60.2104V96.2974H61.1569V98.5235H61.9519L63.6556 96.2974H64.8065L62.7849 98.8188L65.1321 101.598H63.9206L61.9974 99.3034H61.1569V101.598ZM70.7409 101.598H69.7338L69.2265 100.341H66.796L66.2962 101.598H65.3346L67.485 96.2974H68.5602L70.7409 101.598ZM68.8782 99.47L68.0075 97.2969L67.1367 99.47H68.8782ZM71.6481 100.727C71.7238 100.545 71.792 100.346 71.8525 100.129C71.9182 99.9117 71.9737 99.6694 72.0191 99.4018C72.0696 99.1292 72.11 98.8289 72.1403 98.5008C72.1705 98.1676 72.1882 97.7991 72.1933 97.3953L72.2084 96.2974H75.9337V100.727H76.5471V102.582H75.6612V101.598H71.9585V102.582H71.0726V100.727H71.6481ZM73.0716 97.418C73.0413 98.791 72.8747 99.894 72.5719 100.727H74.9873V97.1681H73.0716V97.418Z" fill="#213782"/>
</g>
<g filter="url(#filter5_d)">
<path d="M35.6016 103.191L20.9987 93.997V103.191H35.6016Z" fill="white"/>
<rect x="20.998" y="103.191" width="21.6338" height="20.5521" fill="white"/>
<path d="M31.9659 111.611L30.2623 114.428H29.7852L28.0437 111.649V115.594H27.0972V110.293H28.2936L30.0503 113.178L31.7918 110.293H32.9124V115.594H31.9659V111.611ZM35.14 111.346L34.0042 112.05V111.119L35.3672 110.24H36.0259V115.594H35.14V111.346Z" fill="#404040"/>
</g>
<defs>
<filter id="filter0_d" x="33.2258" y="0.612904" width="76.5926" height="79.2935" filterUnits="userSpaceOnUse" color-interpolation-filters="sRGB">
<feFlood flood-opacity="0" result="BackgroundImageFix"/>
<feColorMatrix in="SourceAlpha" type="matrix" values="0 0 0 0 0 0 0 0 0 0 0 0 0 0 0 0 0 0 127 0"/>
<feOffset dy="12.3871"/>
<feGaussianBlur stdDeviation="12.3871"/>
<feColorMatrix type="matrix" values="0 0 0 0 0 0 0 0 0 0 0 0 0 0 0 0 0 0 0.15 0"/>
<feBlend mode="normal" in2="BackgroundImageFix" result="effect1_dropShadow"/>
<feBlend mode="normal" in="SourceGraphic" in2="effect1_dropShadow" result="shape"/>
</filter>
<filter id="filter1_d" x="-10.7742" y="27.609" width="72.2639" height="79.2935" filterUnits="userSpaceOnUse" color-interpolation-filters="sRGB">
<feFlood flood-opacity="0" result="BackgroundImageFix"/>
<feColorMatrix in="SourceAlpha" type="matrix" values="0 0 0 0 0 0 0 0 0 0 0 0 0 0 0 0 0 0 127 0"/>
<feOffset dy="12.3871"/>
<feGaussianBlur stdDeviation="12.3871"/>
<feColorMatrix type="matrix" values="0 0 0 0 0 0 0 0 0 0 0 0 0 0 0 0 0 0 0.15 0"/>
<feBlend mode="normal" in2="BackgroundImageFix" result="effect1_dropShadow"/>
<feBlend mode="normal" in="SourceGraphic" in2="effect1_dropShadow" result="shape"/>
</filter>
<filter id="filter2_d" x="31.2258" y="29.6129" width="86.3259" height="70.1007" filterUnits="userSpaceOnUse" color-interpolation-filters="sRGB">
<feFlood flood-opacity="0" result="BackgroundImageFix"/>
<feColorMatrix in="SourceAlpha" type="matrix" values="0 0 0 0 0 0 0 0 0 0 0 0 0 0 0 0 0 0 127 0"/>
<feOffset dy="12.3871"/>
<feGaussianBlur stdDeviation="12.3871"/>
<feColorMatrix type="matrix" values="0 0 0 0 0 0 0 0 0 0 0 0 0 0 0 0 0 0 0.15 0"/>
<feBlend mode="normal" in2="BackgroundImageFix" result="effect1_dropShadow"/>
<feBlend mode="normal" in="SourceGraphic" in2="effect1_dropShadow" result="shape"/>
</filter>
<filter id="filter3_d" x="45.2258" y="52.6129" width="164.748" height="70.1007" filterUnits="userSpaceOnUse" color-interpolation-filters="sRGB">
<feFlood flood-opacity="0" result="BackgroundImageFix"/>
<feColorMatrix in="SourceAlpha" type="matrix" values="0 0 0 0 0 0 0 0 0 0 0 0 0 0 0 0 0 0 127 0"/>
<feOffset dy="12.3871"/>
<feGaussianBlur stdDeviation="12.3871"/>
<feColorMatrix type="matrix" values="0 0 0 0 0 0 0 0 0 0 0 0 0 0 0 0 0 0 0.15 0"/>
<feBlend mode="normal" in2="BackgroundImageFix" result="effect1_dropShadow"/>
<feBlend mode="normal" in="SourceGraphic" in2="effect1_dropShadow" result="shape"/>
</filter>
<filter id="filter4_d" x="23.2239" y="67.6129" width="84.1644" height="79.2958" filterUnits="userSpaceOnUse" color-interpolation-filters="sRGB">
<feFlood flood-opacity="0" result="BackgroundImageFix"/>
<feColorMatrix in="SourceAlpha" type="matrix" values="0 0 0 0 0 0 0 0 0 0 0 0 0 0 0 0 0 0 127 0"/>
<feOffset dy="12.3871"/>
<feGaussianBlur stdDeviation="12.3871"/>
<feColorMatrix type="matrix" values="0 0 0 0 0 0 0 0 0 0 0 0 0 0 0 0 0 0 0.15 0"/>
<feBlend mode="normal" in2="BackgroundImageFix" result="effect1_dropShadow"/>
<feBlend mode="normal" in="SourceGraphic" in2="effect1_dropShadow" result="shape"/>
</filter>
<filter id="filter5_d" x="-3.77615" y="81.609" width="71.1822" height="79.2958" filterUnits="userSpaceOnUse" color-interpolation-filters="sRGB">
<feFlood flood-opacity="0" result="BackgroundImageFix"/>
<feColorMatrix in="SourceAlpha" type="matrix" values="0 0 0 0 0 0 0 0 0 0 0 0 0 0 0 0 0 0 127 0"/>
<feOffset dy="12.3871"/>
<feGaussianBlur stdDeviation="12.3871"/>
<feColorMatrix type="matrix" values="0 0 0 0 0 0 0 0 0 0 0 0 0 0 0 0 0 0 0.15 0"/>
<feBlend mode="normal" in2="BackgroundImageFix" result="effect1_dropShadow"/>
<feBlend mode="normal" in="SourceGraphic" in2="effect1_dropShadow" result="shape"/>
</filter>
</defs>
</svg>
