<svg width="172" height="207" viewBox="0 0 172 207" fill="none" xmlns="http://www.w3.org/2000/svg">
<path d="M105 9.5L103.543 27.4733C103.514 27.8234 103.523 28.1756 103.568 28.524L104.907 38.7854C104.969 39.2593 104.962 39.7397 104.888 40.2119L103.698 47.7488C103.568 48.57 103.236 49.3458 102.731 50.0062L97.7467 56.5236C97.2562 57.165 96.9283 57.9156 96.7912 58.7113L94.6041 71.3964C94.5349 71.7973 94.4172 72.1883 94.2533 72.5606L89 84.5" stroke="#2F87CE" stroke-width="3"/>
<path d="M107 8.5L114.5 22L120.605 30.9221C120.867 31.3055 121.075 31.7236 121.221 32.1643L123.878 40.1338C123.959 40.3776 124.022 40.6273 124.064 40.8806L129.397 72.3904C129.465 72.7953 129.583 73.1901 129.749 73.5661L138.217 92.8563C138.405 93.2833 138.532 93.7345 138.594 94.1967L141 112L152.5 155L155.243 163.23C155.413 163.74 155.664 164.219 155.987 164.649L159.435 169.246C159.808 169.744 160.086 170.308 160.252 170.908L165 188" stroke="#2F87CE" stroke-width="3"/>
<path d="M165 188L170 206" stroke="#2F87CE" stroke-width="3" stroke-dasharray="3 4"/>
<path d="M51.5 68.5L34.5 62.5" stroke="#2F87CE" stroke-width="3" stroke-dasharray="3 4"/>
<path d="M88 77L76.321 72.7956C75.7778 72.6 75.2048 72.5 74.6274 72.5H62.3565C61.7896 72.5 61.2269 72.4036 60.6924 72.215L53 69.5" stroke="#2F87CE" stroke-width="3"/>
<path d="M89 84L62.9692 102.664C62.6574 102.887 62.3724 103.146 62.1198 103.435L49.3222 118.06C48.7824 118.677 48.0991 119.152 47.3326 119.443L20.9366 129.455C20.0005 129.81 18.9793 129.876 18.0053 129.644L11.0718 127.993C9.74813 127.678 8.61008 126.837 7.92021 125.664L4 119" stroke="#2F87CE" stroke-width="3"/>
<path d="M77.8668 88.939L81.8513 93.2555C82.5963 94.0627 83.5864 94.602 84.6686 94.7902L92.3056 96.1184C93.7024 96.3613 95.1366 95.9998 96.2514 95.1239L100.417 91.851C101.126 91.2941 101.671 90.5558 101.994 89.7143L103.479 85.8535C103.819 84.9694 103.901 84.0069 103.716 83.078L102.71 78.0523C102.572 77.3587 102.287 76.7024 101.876 76.1267L98.6876 71.6626C97.9264 70.597 96.7775 69.8725 95.4879 69.6449L89.9267 68.6635C89.3143 68.5555 88.6871 68.5626 88.0772 68.6846L83.2555 69.6489C82.1205 69.8759 81.0993 70.4897 80.3663 71.3856L77.7396 74.5961C77.2531 75.1907 76.9101 75.8894 76.7374 76.638L75.7702 80.829C75.5926 81.5987 75.5999 82.3996 75.7915 83.1659L76.6901 86.7603C76.8934 87.5737 77.2981 88.3229 77.8668 88.939Z" stroke="#213782" stroke-width="2"/>
<path d="M98.913 14.5706L101.127 15.9546C101.703 16.3144 102.346 16.5532 103.017 16.6565L106.647 17.2149C107.842 17.3987 109.063 17.1434 110.084 16.4962L110.884 15.989C111.823 15.3936 112.537 14.502 112.913 13.4552L113.542 11.7025C113.842 10.8675 113.914 9.96782 113.751 9.09572L113.247 6.39275C113.085 5.52653 112.697 4.71842 112.123 4.05029L110.996 2.74005C110.046 1.63542 108.662 1 107.205 1H104L100.771 1.40268C100.26 1.46643 99.7619 1.6088 99.2942 1.82474L95.9604 3.36399C94.5003 4.03814 93.6558 5.59073 93.8833 7.1828C93.9601 7.72077 94.1565 8.23469 94.4579 8.68685L97.4028 13.1041C97.7964 13.6946 98.3112 14.1945 98.913 14.5706Z" stroke="#213782" stroke-width="2"/>
<circle cx="105" cy="8" r="4" fill="#2F87CE"/>
<circle cx="53" cy="69" r="4" fill="#2F87CE"/>
<circle cx="4" cy="118" r="4" fill="#2F87CE"/>
<circle cx="165" cy="187" r="4" fill="#2F87CE"/>
<circle cx="89.5" cy="81.5" r="7.5" fill="#E2581D"/>
</svg>
