<svg width="68" height="83" viewBox="0 0 68 83" fill="none" xmlns="http://www.w3.org/2000/svg">
<path d="M41.5986 4.65234L41.0214 11.7709C41.01 11.911 41.0135 12.0518 41.0316 12.1912L41.5613 16.2517C41.586 16.4413 41.5834 16.6335 41.5536 16.8223L41.0833 19.8008C41.0315 20.1292 40.8985 20.4396 40.6965 20.7037L38.7278 23.2782C38.5316 23.5347 38.4005 23.835 38.3456 24.1533L37.4804 29.1718C37.4527 29.3322 37.4056 29.4886 37.3401 29.6375L35.2598 34.3655" stroke="#2F87CE"/>
<path d="M42.3906 4.25781L45.3619 9.60617L47.7789 13.1387C47.8838 13.292 47.9669 13.4593 48.0257 13.6356L49.0768 16.7889C49.1093 16.8864 49.1342 16.9863 49.1514 17.0877L51.2633 29.5673C51.2907 29.7292 51.3379 29.8871 51.404 30.0375L54.7571 37.6752C54.8321 37.846 54.8828 38.0265 54.9078 38.2113L55.8606 45.2619L60.4166 62.2974L61.5025 65.5551C61.5704 65.759 61.6709 65.9507 61.7998 66.1227L63.1617 67.9385C63.3112 68.1378 63.4221 68.3632 63.4888 68.6032L65.3688 75.3712" stroke="#2F87CE"/>
<path d="M65.3672 75.3672L67.3481 82.4983" stroke="#2F87CE" stroke-dasharray="1.19 1.58"/>
<path d="M20.4029 28.0294L13.668 25.6523" stroke="#2F87CE" stroke-dasharray="1.19 1.58"/>
<path d="M34.8642 31.3932L30.2404 29.7286C30.0231 29.6504 29.7939 29.6104 29.5629 29.6104H24.7081C24.4814 29.6104 24.2563 29.5718 24.0425 29.4964L20.998 28.4219" stroke="#2F87CE"/>
<path d="M35.2608 34.168L24.9499 41.5607C24.8251 41.6501 24.7111 41.7536 24.6101 41.8691L19.5446 47.6582C19.3287 47.905 19.0554 48.0949 18.7488 48.2112L8.3013 52.174C7.92684 52.3161 7.51836 52.3424 7.12875 52.2497L4.39552 51.5989C3.86606 51.4728 3.41084 51.1364 3.13489 50.6673L1.58594 48.0341" stroke="#2F87CE"/>
<path d="M30.8531 36.1284L32.4239 37.8301C32.7219 38.153 33.118 38.3687 33.5508 38.444L36.5617 38.9676C37.1204 39.0648 37.6941 38.9202 38.14 38.5698L39.7794 37.2817C40.063 37.0589 40.281 36.7636 40.4104 36.427L40.9949 34.9075C41.1309 34.5539 41.1636 34.1689 41.0893 33.7973L40.693 31.8158C40.6375 31.5383 40.5238 31.2758 40.3593 31.0455L39.103 29.2867C38.7985 28.8604 38.339 28.5706 37.8231 28.4796L35.6312 28.0928C35.3862 28.0495 35.1353 28.0524 34.8914 28.1012L32.9914 28.4812C32.5373 28.572 32.1289 28.8175 31.8357 29.1758L30.8022 30.439C30.6076 30.6768 30.4704 30.9563 30.4013 31.2558L30.0202 32.9073C29.9492 33.2152 29.9521 33.5355 30.0287 33.8421L30.3824 35.2569C30.4637 35.5822 30.6256 35.8819 30.8531 36.1284Z" stroke="#213782"/>
<path d="M39.189 6.66369L40.0595 7.20771C40.2897 7.35164 40.5469 7.44716 40.8153 7.48846L42.2423 7.70799C42.7203 7.78153 43.2087 7.67939 43.6171 7.42051L43.9225 7.22694C44.2983 6.98877 44.5839 6.63212 44.7342 6.21341L44.9795 5.53011C45.0994 5.19611 45.1283 4.83622 45.0632 4.48738L44.8652 3.42669C44.8005 3.0802 44.6454 2.75696 44.4156 2.4897L43.9783 1.98118C43.5984 1.53932 43.0446 1.28516 42.4619 1.28516H41.2009L39.9247 1.44432C39.7202 1.46982 39.5209 1.52677 39.3339 1.61314L38.0158 2.22171C37.4373 2.48879 37.1027 3.10389 37.1929 3.73463C37.2233 3.94776 37.3011 4.15136 37.4205 4.33049L38.5849 6.07709C38.7424 6.31328 38.9483 6.51324 39.189 6.66369Z" stroke="#213782"/>
<circle cx="41.5984" cy="4.05736" r="1.5847" fill="#2F87CE"/>
<circle cx="20.9968" cy="28.2253" r="1.5847" fill="#2F87CE"/>
<circle cx="1.5847" cy="47.6394" r="1.5847" fill="#2F87CE"/>
<circle cx="65.3699" cy="74.9753" r="1.5847" fill="#2F87CE"/>
<circle cx="35.4576" cy="33.1783" r="2.97131" fill="#E2581D"/>
</svg>
