<svg width="362" height="239" viewBox="0 0 362 239" fill="none" xmlns="http://www.w3.org/2000/svg">
<path d="M34 201L7 184V201H34Z" fill="white"/>
<rect x="7" y="201" width="40" height="38" fill="white"/>
<path d="M27.2754 216.636L24.1254 221.844H23.2434L20.0234 216.706V224H18.2734V214.2H20.4854L23.7334 219.534L26.9534 214.2H29.0254V224H27.2754V216.636Z" fill="#404040"/>
<path d="M33.1442 216.146L31.0442 217.448V215.726L33.5642 214.102H34.7822V224H33.1442V216.146Z" fill="#404040"/>
<path d="M111 110H88L111 96V110Z" fill="white"/>
<rect x="111" y="72" width="45" height="38" fill="white"/>
<path d="M131.275 87.6356L128.125 92.8436H127.243L124.023 87.7056V94.9996H122.273V85.1996H124.485L127.733 90.5336L130.953 85.1996H133.025V94.9996H131.275V87.6356Z" fill="#404040"/>
<path d="M137.144 87.1456L135.044 88.4476V86.7256L137.564 85.1016H138.782V94.9996H137.144V87.1456Z" fill="#404040"/>
<path d="M142.777 87.1456L140.677 88.4476V86.7256L143.197 85.1016H144.415V94.9996H142.777V87.1456Z" fill="#404040"/>
<path d="M172 230H149L172 216V230Z" fill="white"/>
<rect x="172" y="192" width="190" height="38" fill="white"/>
<path d="M189.531 210.76H185.023V213.392H190.203V215.002H183.273V205.202H190.049V206.812H185.023V209.15H189.531V210.76Z" fill="#404040"/>
<path d="M192.003 208.002H195.531C196.371 208.002 196.969 208.142 197.323 208.422C197.678 208.692 197.855 209.094 197.855 209.626C197.855 210.046 197.748 210.396 197.533 210.676C197.328 210.946 197.034 211.128 196.651 211.222C196.875 211.25 197.081 211.301 197.267 211.376C197.463 211.441 197.627 211.539 197.757 211.67C197.897 211.8 198.005 211.968 198.079 212.174C198.163 212.379 198.205 212.631 198.205 212.93C198.205 213.602 197.981 214.115 197.533 214.47C197.095 214.824 196.413 215.002 195.489 215.002H192.003V208.002ZM195.335 213.644C195.774 213.644 196.091 213.578 196.287 213.448C196.483 213.308 196.581 213.098 196.581 212.818C196.581 212.51 196.483 212.3 196.287 212.188C196.101 212.066 195.816 212.006 195.433 212.006H193.641V213.644H195.335ZM195.139 210.83C195.466 210.83 195.727 210.774 195.923 210.662C196.119 210.54 196.217 210.33 196.217 210.032C196.217 209.77 196.129 209.593 195.951 209.5C195.774 209.406 195.508 209.36 195.153 209.36L193.641 209.374V210.83H195.139Z" fill="#404040"/>
<path d="M199.7 208.002H201.24V209.458C201.306 209.262 201.399 209.07 201.52 208.884C201.651 208.688 201.814 208.515 202.01 208.366C202.216 208.216 202.458 208.095 202.738 208.002C203.018 207.908 203.345 207.862 203.718 207.862C204.166 207.862 204.572 207.932 204.936 208.072C205.31 208.202 205.627 208.408 205.888 208.688C206.159 208.968 206.369 209.327 206.518 209.766C206.668 210.204 206.742 210.732 206.742 211.348C206.742 212.038 206.668 212.626 206.518 213.112C206.369 213.588 206.154 213.98 205.874 214.288C205.604 214.586 205.272 214.806 204.88 214.946C204.488 215.086 204.054 215.156 203.578 215.156C203.018 215.156 202.547 215.034 202.164 214.792C201.791 214.549 201.516 214.264 201.338 213.938V217.704H199.7V208.002ZM201.338 211.74C201.338 212.374 201.506 212.864 201.842 213.21C202.178 213.546 202.636 213.714 203.214 213.714C203.877 213.714 204.358 213.541 204.656 213.196C204.955 212.841 205.104 212.248 205.104 211.418C205.104 210.652 204.932 210.111 204.586 209.794C204.25 209.476 203.802 209.318 203.242 209.318C202.598 209.318 202.122 209.486 201.814 209.822C201.516 210.158 201.357 210.62 201.338 211.208V211.74Z" fill="#404040"/>
<path d="M211.354 215.156C210.803 215.156 210.308 215.081 209.87 214.932C209.431 214.773 209.053 214.54 208.736 214.232C208.418 213.924 208.176 213.541 208.008 213.084C207.84 212.626 207.756 212.09 207.756 211.474C207.756 210.867 207.844 210.34 208.022 209.892C208.199 209.434 208.446 209.056 208.764 208.758C209.081 208.45 209.464 208.221 209.912 208.072C210.36 207.922 210.859 207.848 211.41 207.848C211.951 207.848 212.441 207.927 212.88 208.086C213.328 208.244 213.706 208.478 214.014 208.786C214.331 209.094 214.574 209.476 214.742 209.934C214.91 210.391 214.994 210.923 214.994 211.53C214.994 212.136 214.905 212.668 214.728 213.126C214.55 213.574 214.303 213.947 213.986 214.246C213.668 214.544 213.286 214.773 212.838 214.932C212.39 215.081 211.895 215.156 211.354 215.156ZM209.422 211.516C209.422 212.29 209.594 212.855 209.94 213.21C210.285 213.555 210.766 213.728 211.382 213.728C212.007 213.728 212.488 213.55 212.824 213.196C213.16 212.832 213.328 212.276 213.328 211.53V211.488C213.328 210.713 213.15 210.153 212.796 209.808C212.45 209.453 211.97 209.276 211.354 209.276C210.728 209.285 210.248 209.472 209.912 209.836C209.585 210.19 209.422 210.736 209.422 211.474V211.516Z" fill="#404040"/>
<path d="M221.193 209.444H218.141V215.002H216.503V208.002H222.831V215.002H221.193V209.444Z" fill="#404040"/>
<path d="M224.984 208.492C225.217 208.314 225.539 208.165 225.95 208.044C226.37 207.922 226.883 207.862 227.49 207.862C228.516 207.862 229.282 208.053 229.786 208.436C230.29 208.818 230.542 209.467 230.542 210.382V215.002H229.002V213.742C228.834 214.152 228.544 214.484 228.134 214.736C227.732 214.988 227.252 215.114 226.692 215.114C225.982 215.114 225.427 214.927 225.026 214.554C224.634 214.171 224.438 213.634 224.438 212.944C224.438 212.542 224.508 212.211 224.648 211.95C224.788 211.688 224.984 211.483 225.236 211.334C225.488 211.175 225.791 211.063 226.146 210.998C226.5 210.932 226.892 210.9 227.322 210.9H228.904V210.592C228.904 210.097 228.782 209.756 228.54 209.57C228.306 209.383 227.956 209.29 227.49 209.29C226.846 209.29 226.328 209.406 225.936 209.64C225.544 209.864 225.226 210.162 224.984 210.536V208.492ZM227.21 213.644C227.49 213.644 227.728 213.611 227.924 213.546C228.129 213.471 228.302 213.382 228.442 213.28C228.582 213.168 228.689 213.046 228.764 212.916C228.838 212.785 228.885 212.659 228.904 212.538V211.964H227.518C227.032 211.964 226.673 212.02 226.44 212.132C226.206 212.244 226.09 212.458 226.09 212.776C226.09 213.046 226.183 213.261 226.37 213.42C226.566 213.569 226.846 213.644 227.21 213.644Z" fill="#404040"/>
<path d="M232.543 210.116H236.295V211.628H232.543V210.116Z" fill="#404040"/>
<path d="M238.378 205.93C238.658 205.724 239.073 205.528 239.624 205.342C240.174 205.155 240.842 205.062 241.626 205.062C242.176 205.062 242.676 205.113 243.124 205.216C243.572 205.309 243.954 205.458 244.272 205.664C244.598 205.86 244.846 206.112 245.014 206.42C245.191 206.728 245.28 207.096 245.28 207.526C245.28 208.655 244.701 209.425 243.544 209.836C245.037 210.06 245.784 210.825 245.784 212.132C245.784 212.552 245.7 212.948 245.532 213.322C245.364 213.686 245.112 214.003 244.776 214.274C244.44 214.535 244.02 214.745 243.516 214.904C243.021 215.062 242.447 215.142 241.794 215.142C241.346 215.142 240.926 215.104 240.534 215.03C240.151 214.964 239.801 214.876 239.484 214.764C239.176 214.642 238.905 214.512 238.672 214.372C238.448 214.222 238.27 214.073 238.14 213.924V211.768C238.289 212.02 238.48 212.253 238.714 212.468C238.947 212.682 239.218 212.869 239.526 213.028C239.834 213.186 240.179 213.312 240.562 213.406C240.954 213.49 241.374 213.532 241.822 213.532C242.12 213.532 242.4 213.499 242.662 213.434C242.923 213.368 243.147 213.275 243.334 213.154C243.53 213.023 243.684 212.864 243.796 212.678C243.908 212.491 243.964 212.272 243.964 212.02C243.964 211.581 243.791 211.259 243.446 211.054C243.11 210.848 242.559 210.746 241.794 210.746H240.31V209.304H241.78C242.097 209.304 242.363 209.271 242.578 209.206C242.792 209.131 242.965 209.033 243.096 208.912C243.226 208.79 243.32 208.65 243.376 208.492C243.441 208.333 243.474 208.16 243.474 207.974C243.474 207.75 243.427 207.558 243.334 207.4C243.24 207.232 243.11 207.096 242.942 206.994C242.774 206.891 242.578 206.816 242.354 206.77C242.13 206.714 241.887 206.681 241.626 206.672C241.252 206.662 240.898 206.704 240.562 206.798C240.235 206.891 239.932 207.022 239.652 207.19C239.381 207.348 239.134 207.53 238.91 207.736C238.695 207.941 238.518 208.151 238.378 208.366V205.93Z" fill="#404040"/>
<path d="M247.679 208.492C247.912 208.314 248.234 208.165 248.645 208.044C249.065 207.922 249.578 207.862 250.185 207.862C251.212 207.862 251.977 208.053 252.481 208.436C252.985 208.818 253.237 209.467 253.237 210.382V215.002H251.697V213.742C251.529 214.152 251.24 214.484 250.829 214.736C250.428 214.988 249.947 215.114 249.387 215.114C248.678 215.114 248.122 214.927 247.721 214.554C247.329 214.171 247.133 213.634 247.133 212.944C247.133 212.542 247.203 212.211 247.343 211.95C247.483 211.688 247.679 211.483 247.931 211.334C248.183 211.175 248.486 211.063 248.841 210.998C249.196 210.932 249.588 210.9 250.017 210.9H251.599V210.592C251.599 210.097 251.478 209.756 251.235 209.57C251.002 209.383 250.652 209.29 250.185 209.29C249.541 209.29 249.023 209.406 248.631 209.64C248.239 209.864 247.922 210.162 247.679 210.536V208.492ZM249.905 213.644C250.185 213.644 250.423 213.611 250.619 213.546C250.824 213.471 250.997 213.382 251.137 213.28C251.277 213.168 251.384 213.046 251.459 212.916C251.534 212.785 251.58 212.659 251.599 212.538V211.964H250.213C249.728 211.964 249.368 212.02 249.135 212.132C248.902 212.244 248.785 212.458 248.785 212.776C248.785 213.046 248.878 213.261 249.065 213.42C249.261 213.569 249.541 213.644 249.905 213.644Z" fill="#404040"/>
<path d="M259.816 209.444H256.764V215.002H255.126V208.002H261.454V215.002H259.816V209.444Z" fill="#404040"/>
<path d="M263.607 208.492C263.84 208.314 264.162 208.165 264.573 208.044C264.993 207.922 265.506 207.862 266.113 207.862C267.139 207.862 267.905 208.053 268.409 208.436C268.913 208.818 269.165 209.467 269.165 210.382V215.002H267.625V213.742C267.457 214.152 267.167 214.484 266.757 214.736C266.355 214.988 265.875 215.114 265.315 215.114C264.605 215.114 264.05 214.927 263.649 214.554C263.257 214.171 263.061 213.634 263.061 212.944C263.061 212.542 263.131 212.211 263.271 211.95C263.411 211.688 263.607 211.483 263.859 211.334C264.111 211.175 264.414 211.063 264.769 210.998C265.123 210.932 265.515 210.9 265.945 210.9H267.527V210.592C267.527 210.097 267.405 209.756 267.163 209.57C266.929 209.383 266.579 209.29 266.113 209.29C265.469 209.29 264.951 209.406 264.559 209.64C264.167 209.864 263.849 210.162 263.607 210.536V208.492ZM265.833 213.644C266.113 213.644 266.351 213.611 266.547 213.546C266.752 213.471 266.925 213.382 267.065 213.28C267.205 213.168 267.312 213.046 267.387 212.916C267.461 212.785 267.508 212.659 267.527 212.538V211.964H266.141C265.655 211.964 265.296 212.02 265.063 212.132C264.829 212.244 264.713 212.458 264.713 212.776C264.713 213.046 264.806 213.261 264.993 213.42C265.189 213.569 265.469 213.644 265.833 213.644Z" fill="#404040"/>
<path d="M271.082 213.518C271.175 213.266 271.259 212.99 271.334 212.692C271.418 212.384 271.488 212.038 271.544 211.656C271.6 211.273 271.642 210.848 271.67 210.382C271.698 209.906 271.712 209.378 271.712 208.8V208.002H277.088V213.518H278.152V216.822H276.668V215.002H271.754V216.822H270.27V213.518H271.082ZM273.238 209.612C273.219 210.424 273.168 211.142 273.084 211.768C273 212.384 272.86 212.967 272.664 213.518H275.45V209.444H273.238V209.612Z" fill="#404040"/>
<path d="M284.223 212.174H281.059V215.002H279.421V208.002H281.059V210.732H284.223V208.002H285.861V215.002H284.223V212.174Z" fill="#404040"/>
<path d="M287.843 208.002H289.481V210.074H290.685C291.161 210.074 291.581 210.111 291.945 210.186C292.318 210.26 292.626 210.391 292.869 210.578C293.121 210.755 293.312 210.998 293.443 211.306C293.574 211.614 293.639 211.996 293.639 212.454C293.63 213.35 293.378 213.998 292.883 214.4C292.388 214.801 291.595 215.002 290.503 215.002H287.843V208.002ZM294.437 208.002H296.075V215.002H294.437V208.002ZM290.447 213.56C291.007 213.56 291.404 213.48 291.637 213.322C291.87 213.163 291.992 212.874 292.001 212.454C291.992 212.08 291.884 211.833 291.679 211.712C291.474 211.581 291.1 211.516 290.559 211.516H289.481V213.56H290.447Z" fill="#404040"/>
<path d="M298.084 208.002H299.708V212.748L303.068 208.002H304.622V215.002H302.998V210.2L299.638 215.002H298.084V208.002ZM303.796 204.516C303.796 204.908 303.726 205.244 303.586 205.524C303.455 205.794 303.278 206.018 303.054 206.196C302.83 206.364 302.573 206.49 302.284 206.574C302.004 206.648 301.714 206.686 301.416 206.686C301.07 206.686 300.744 206.648 300.436 206.574C300.128 206.49 299.857 206.364 299.624 206.196C299.4 206.018 299.222 205.794 299.092 205.524C298.961 205.244 298.896 204.908 298.896 204.516H300.408C300.408 204.814 300.482 205.048 300.632 205.216C300.79 205.384 301.042 205.468 301.388 205.468C301.668 205.468 301.887 205.398 302.046 205.258C302.204 205.118 302.284 204.87 302.284 204.516H303.796Z" fill="#404040"/>
<path d="M312.281 215.002H310.531V205.202H312.281V209.318H313.751L316.901 205.202H319.029L315.291 209.864L319.631 215.002H317.391L313.835 210.76H312.281V215.002Z" fill="#404040"/>
<path d="M320.752 208.002H322.376V212.748L325.736 208.002H327.29V215.002H325.666V210.2L322.306 215.002H320.752V208.002Z" fill="#404040"/>
<path d="M330.878 209.444H328.639V208.002H334.771V209.444H332.503V215.002H330.878V209.444Z" fill="#404040"/>
<path d="M336.163 208.492C336.397 208.314 336.719 208.165 337.129 208.044C337.549 207.922 338.063 207.862 338.669 207.862C339.696 207.862 340.461 208.053 340.965 208.436C341.469 208.818 341.721 209.467 341.721 210.382V215.002H340.181V213.742C340.013 214.152 339.724 214.484 339.313 214.736C338.912 214.988 338.431 215.114 337.871 215.114C337.162 215.114 336.607 214.927 336.205 214.554C335.813 214.171 335.617 213.634 335.617 212.944C335.617 212.542 335.687 212.211 335.827 211.95C335.967 211.688 336.163 211.483 336.415 211.334C336.667 211.175 336.971 211.063 337.325 210.998C337.68 210.932 338.072 210.9 338.501 210.9H340.083V210.592C340.083 210.097 339.962 209.756 339.719 209.57C339.486 209.383 339.136 209.29 338.669 209.29C338.025 209.29 337.507 209.406 337.115 209.64C336.723 209.864 336.406 210.162 336.163 210.536V208.492ZM338.389 213.644C338.669 213.644 338.907 213.611 339.103 213.546C339.309 213.471 339.481 213.382 339.621 213.28C339.761 213.168 339.869 213.046 339.943 212.916C340.018 212.785 340.065 212.659 340.083 212.538V211.964H338.697C338.212 211.964 337.853 212.02 337.619 212.132C337.386 212.244 337.269 212.458 337.269 212.776C337.269 213.046 337.363 213.261 337.549 213.42C337.745 213.569 338.025 213.644 338.389 213.644Z" fill="#404040"/>
<path d="M343.625 208.002H345.249V212.748L348.609 208.002H350.163V215.002H348.539V210.2L345.179 215.002H343.625V208.002ZM349.337 204.516C349.337 204.908 349.267 205.244 349.127 205.524C348.996 205.794 348.819 206.018 348.595 206.196C348.371 206.364 348.114 206.49 347.825 206.574C347.545 206.648 347.255 206.686 346.957 206.686C346.611 206.686 346.285 206.648 345.977 206.574C345.669 206.49 345.398 206.364 345.165 206.196C344.941 206.018 344.763 205.794 344.633 205.524C344.502 205.244 344.437 204.908 344.437 204.516H345.949C345.949 204.814 346.023 205.048 346.173 205.216C346.331 205.384 346.583 205.468 346.929 205.468C347.209 205.468 347.428 205.398 347.587 205.258C347.745 205.118 347.825 204.87 347.825 204.516H349.337Z" fill="#404040"/>
<path d="M124 38L97 55V38H124Z" fill="white"/>
<rect x="97" width="50" height="38" fill="white"/>
<path d="M107.967 13.9289C108.247 13.7235 108.662 13.5275 109.213 13.3409C109.763 13.1542 110.431 13.0609 111.215 13.0609C111.765 13.0609 112.265 13.1122 112.713 13.2149C113.161 13.3082 113.543 13.4575 113.861 13.6629C114.187 13.8589 114.435 14.1109 114.603 14.4189C114.78 14.7269 114.869 15.0955 114.869 15.5249C114.869 16.6542 114.29 17.4242 113.133 17.8349C114.626 18.0589 115.373 18.8242 115.373 20.1309C115.373 20.5509 115.289 20.9475 115.121 21.3209C114.953 21.6849 114.701 22.0022 114.365 22.2729C114.029 22.5342 113.609 22.7442 113.105 22.9029C112.61 23.0615 112.036 23.1409 111.383 23.1409C110.935 23.1409 110.515 23.1035 110.123 23.0289C109.74 22.9635 109.39 22.8749 109.073 22.7629C108.765 22.6415 108.494 22.5109 108.261 22.3709C108.037 22.2215 107.859 22.0722 107.729 21.9229V19.7669C107.878 20.0189 108.069 20.2522 108.303 20.4669C108.536 20.6815 108.807 20.8682 109.115 21.0269C109.423 21.1855 109.768 21.3115 110.151 21.4049C110.543 21.4889 110.963 21.5309 111.411 21.5309C111.709 21.5309 111.989 21.4982 112.251 21.4329C112.512 21.3675 112.736 21.2742 112.923 21.1529C113.119 21.0222 113.273 20.8635 113.385 20.6769C113.497 20.4902 113.553 20.2709 113.553 20.0189C113.553 19.5802 113.38 19.2582 113.035 19.0529C112.699 18.8475 112.148 18.7449 111.383 18.7449H109.899V17.3029H111.369C111.686 17.3029 111.952 17.2702 112.167 17.2049C112.381 17.1302 112.554 17.0322 112.685 16.9109C112.815 16.7895 112.909 16.6495 112.965 16.4909C113.03 16.3322 113.063 16.1595 113.063 15.9729C113.063 15.7489 113.016 15.5575 112.923 15.3989C112.829 15.2309 112.699 15.0955 112.531 14.9929C112.363 14.8902 112.167 14.8155 111.943 14.7689C111.719 14.7129 111.476 14.6802 111.215 14.6709C110.841 14.6615 110.487 14.7035 110.151 14.7969C109.824 14.8902 109.521 15.0209 109.241 15.1889C108.97 15.3475 108.723 15.5295 108.499 15.7349C108.284 15.9402 108.107 16.1502 107.967 16.3649V13.9289Z" fill="#404040"/>
<path d="M125.472 21.9229C125.351 22.0722 125.178 22.2215 124.954 22.3709C124.739 22.5109 124.483 22.6415 124.184 22.7629C123.885 22.8749 123.549 22.9682 123.176 23.0429C122.812 23.1175 122.42 23.1549 122 23.1549C121.197 23.1549 120.469 23.0382 119.816 22.8049C119.163 22.5715 118.603 22.2402 118.136 21.8109C117.679 21.3722 117.319 20.8402 117.058 20.2149C116.806 19.5895 116.68 18.8802 116.68 18.0869C116.68 17.3495 116.806 16.6729 117.058 16.0569C117.31 15.4409 117.669 14.9089 118.136 14.4609C118.603 14.0129 119.163 13.6675 119.816 13.4249C120.479 13.1729 121.216 13.0469 122.028 13.0469C122.803 13.0469 123.465 13.1449 124.016 13.3409C124.567 13.5275 124.987 13.7235 125.276 13.9289V16.3649C125.127 16.1502 124.94 15.9402 124.716 15.7349C124.501 15.5295 124.254 15.3475 123.974 15.1889C123.703 15.0302 123.4 14.9042 123.064 14.8109C122.737 14.7082 122.392 14.6569 122.028 14.6569C121.496 14.6569 121.015 14.7409 120.586 14.9089C120.157 15.0769 119.793 15.3102 119.494 15.6089C119.195 15.9075 118.967 16.2715 118.808 16.7009C118.649 17.1209 118.57 17.5875 118.57 18.1009C118.57 18.5769 118.64 19.0249 118.78 19.4449C118.929 19.8555 119.144 20.2149 119.424 20.5229C119.713 20.8309 120.073 21.0782 120.502 21.2649C120.931 21.4422 121.426 21.5355 121.986 21.5449C122.415 21.5449 122.807 21.4982 123.162 21.4049C123.526 21.3115 123.853 21.1855 124.142 21.0269C124.441 20.8682 124.702 20.6815 124.926 20.4669C125.15 20.2522 125.332 20.0189 125.472 19.7669V21.9229Z" fill="#404040"/>
<path d="M127.303 21.3909C127.443 21.0549 127.569 20.6862 127.681 20.2849C127.802 19.8835 127.905 19.4355 127.989 18.9409C128.082 18.4369 128.157 17.8815 128.213 17.2749C128.269 16.6589 128.302 15.9775 128.311 15.2309L128.339 13.2009H135.227V21.3909H136.361V24.8209H134.723V23.0009H127.877V24.8209H126.239V21.3909H127.303ZM129.935 15.2729C129.879 17.8115 129.571 19.8509 129.011 21.3909H133.477V14.8109H129.935V15.2729Z" fill="#404040"/>
<path d="M15 106L42 123V106H15Z" fill="white"/>
<rect y="68" width="42" height="38" fill="white"/>
<path d="M20.2754 83.6352L17.1254 88.8432H16.2434L13.0234 83.7052V90.9992H11.2734V81.1992H13.4854L16.7334 86.5332L19.9534 81.1992H22.0254V90.9992H20.2754V83.6352Z" fill="#404040"/>
<path d="M28.3562 81.1992H30.2182V87.0372H31.5062V88.5632H30.2182V90.9992H28.5942V88.5632H23.6802V87.2752L28.3562 81.1992ZM28.5942 87.0372V83.1452L25.5282 87.0372H28.5942Z" fill="#404040"/>
<path d="M115 163L88 146V163H115Z" fill="white"/>
<rect x="88" y="163" width="64" height="38" fill="white"/>
<path d="M99.2734 176.199H101.023V184.389H106.077V176.199H107.827V184.389H108.961V187.819H107.323V185.999H99.2734V176.199Z" fill="#213782"/>
<path d="M112.33 185.999H110.58V176.199H112.33V180.315H113.8L116.95 176.199H119.078L115.34 180.861L119.68 185.999H117.44L113.884 181.757H112.33V185.999Z" fill="#213782"/>
<path d="M130.05 185.999H128.188L127.25 183.675H122.756L121.832 185.999H120.054L124.03 176.199H126.018L130.05 185.999ZM126.606 182.065L124.996 178.047L123.386 182.065H126.606Z" fill="#213782"/>
<path d="M131.728 184.389C131.868 184.053 131.994 183.685 132.106 183.283C132.227 182.882 132.33 182.434 132.414 181.939C132.507 181.435 132.582 180.88 132.638 180.273C132.694 179.657 132.727 178.976 132.736 178.229L132.764 176.199H139.652V184.389H140.786V187.819H139.148V185.999H132.302V187.819H130.664V184.389H131.728ZM134.36 178.271C134.304 180.81 133.996 182.849 133.436 184.389H137.902V177.809H134.36V178.271Z" fill="#213782"/>
</svg>
