<svg width="320" height="488" viewBox="0 0 320 488" fill="none" xmlns="http://www.w3.org/2000/svg">
<path d="M37.1103 200.095L38.7809 198.924C39.2556 198.591 39.8902 198.6 40.3555 198.946C40.8237 199.294 41.4629 199.3 41.938 198.962L45.5649 196.379C45.9036 196.138 46.3092 196.008 46.725 196.008H48.7659C49.1804 196.008 49.5847 195.879 49.9228 195.639L50.1561 195.474C50.6849 195.099 50.9992 194.491 50.9992 193.843V185.584C50.9992 184.943 51.3064 184.341 51.8254 183.965L52.9464 183.152C53.2878 182.904 53.6986 182.771 54.1202 182.771H61.0713C61.4821 182.771 61.8829 182.645 62.2193 182.409L66.2516 179.582C66.9401 179.099 67.857 179.099 68.546 179.581L71.8269 181.876C72.1629 182.111 72.5631 182.237 72.9732 182.237H79.9042C80.3196 182.237 80.7246 182.107 81.0631 181.867L83.7979 179.922C84.1962 179.639 84.197 179.048 83.7994 178.764C83.4008 178.479 83.4028 177.886 83.8034 177.603L85.0165 176.749C85.2638 176.575 85.5517 176.467 85.8526 176.436L90.6941 175.939C91.0354 175.904 91.362 175.782 91.6425 175.584L100.461 169.366C100.798 169.128 101.201 169 101.613 169H105.291C105.703 169 106.105 169.127 106.442 169.364L106.639 169.503C107.172 169.878 107.489 170.488 107.489 171.139V182.968C107.489 183.614 107.177 184.22 106.651 184.596L104.004 186.486C103.665 186.728 103.259 186.859 102.842 186.859H100.802C100.388 186.859 99.9839 186.73 99.6459 186.491L96.514 184.272C95.9106 183.845 95.9068 182.95 96.5065 182.518L96.6512 182.413C97.1783 182.033 97.1766 181.248 96.6479 180.87C96.3182 180.634 95.8752 180.634 95.5449 180.869L92.8695 182.771C92.3419 183.146 92.0284 183.753 92.0284 184.401V184.665C92.0284 185.329 91.6988 185.95 91.1487 186.322L89.6533 187.333C89.1032 187.705 88.7736 188.325 88.7736 188.99V189.285C88.7736 189.933 89.087 190.54 89.6146 190.915L93.0728 193.374C93.4113 193.615 93.8164 193.744 94.2318 193.744H96.2041C96.6034 193.744 96.9935 193.625 97.3242 193.401L99.6579 191.824C99.9887 191.6 100.379 191.48 100.778 191.48H104.44C104.855 191.48 105.261 191.351 105.6 191.11L106.398 190.541C107.089 190.049 108.015 190.046 108.709 190.534L109.205 190.883C109.738 191.258 110.055 191.868 110.055 192.519V192.929C110.055 193.439 109.804 193.917 109.384 194.208C108.495 194.822 108.489 196.134 109.372 196.756L109.525 196.864C109.809 197.064 110.148 197.171 110.495 197.171H114.286C114.649 197.171 115.003 197.282 115.301 197.489L115.744 197.797C116.54 198.35 116.547 199.524 115.758 200.086C114.974 200.644 114.974 201.809 115.759 202.367L120.287 205.582C120.966 206.064 121.873 206.076 122.563 205.61L123.381 205.059C123.711 204.836 124.101 204.717 124.499 204.717H126.55C126.956 204.717 127.353 204.593 127.688 204.362L129.438 203.151C130.073 202.711 130.913 202.707 131.553 203.14C131.918 203.387 132.185 203.755 132.305 204.18L133.682 209.032C133.743 209.25 133.883 209.438 134.074 209.56C134.69 209.954 135.499 209.511 135.499 208.78V207.749C135.499 207.267 135.732 206.815 136.125 206.535L142.159 202.239C142.483 202.008 142.916 202 143.248 202.219C143.813 202.59 143.83 203.411 143.282 203.806L140.273 205.974C139.751 206.349 139.442 206.953 139.442 207.596V208.087C139.442 208.439 139.611 208.77 139.895 208.976C140.503 209.417 140.499 210.324 139.888 210.76L137.027 212.797C136.5 213.172 136.187 213.779 136.187 214.426V216.953C136.187 217.583 135.89 218.176 135.386 218.554L135.124 218.75C134.778 219.009 134.358 219.149 133.926 219.149H131.93C131.523 219.149 131.126 219.273 130.791 219.505L129.566 220.353C128.412 221.152 128.418 222.859 129.577 223.65L129.981 223.926C130.314 224.152 130.707 224.274 131.109 224.274H133.178C133.588 224.274 133.989 224.147 134.326 223.911L138.988 220.643C139.324 220.407 139.725 220.281 140.136 220.281H142.225C142.653 220.281 143.071 220.143 143.415 219.888L144.453 219.12C144.963 218.742 145.263 218.146 145.263 217.512V215.093V211.513C145.263 210.86 145.582 210.248 146.117 209.874L146.577 209.552C147.271 209.066 148.196 209.071 148.886 209.563L150.591 210.781C151.281 211.274 152.206 211.278 152.9 210.793L153.36 210.471C153.895 210.096 154.214 209.485 154.214 208.832V207.478C154.214 206.831 154.527 206.224 155.054 205.848L155.522 205.515C156.218 205.019 157.153 205.021 157.848 205.519L158.811 206.21C159.506 206.709 160.44 206.711 161.137 206.215L165.147 203.359C165.486 203.118 165.892 202.988 166.308 202.988H173.27C173.679 202.988 174.079 202.862 174.415 202.628L176.669 201.053C177.005 200.819 177.405 200.693 177.815 200.693H183.003C183.413 200.693 183.812 200.567 184.148 200.332L185.683 199.261C186.018 199.026 186.418 198.901 186.828 198.901H195.413C195.832 198.901 196.24 199.032 196.579 199.276L198.509 200.66C199.032 201.036 199.343 201.641 199.343 202.285V203.916C199.343 204.418 199.587 204.889 199.998 205.179L200.417 205.474C201.074 205.937 201.083 206.907 200.436 207.382C200.234 207.53 199.99 207.61 199.74 207.61H197.391C197.032 207.61 196.682 207.722 196.391 207.932C195.431 208.62 195.438 210.049 196.403 210.729L202.8 215.231C203.137 215.469 203.539 215.596 203.951 215.596H207.758C208.148 215.596 208.53 215.482 208.856 215.267L210.391 214.258C210.717 214.044 211.099 213.929 211.49 213.929H213.417C213.83 213.929 214.233 214.057 214.571 214.296L223.54 220.63C224.231 221.118 225.155 221.119 225.846 220.632L246.815 205.859C247.308 205.512 247.964 205.503 248.467 205.836C248.965 206.167 249.614 206.161 250.106 205.822L250.385 205.63C250.712 205.404 251.101 205.283 251.499 205.283H260.207C260.619 205.283 261.021 205.156 261.357 204.919L264.391 202.786C264.728 202.549 265.129 202.422 265.541 202.422H267.534C267.944 202.422 268.343 202.548 268.679 202.782L271.112 204.48C271.803 204.962 272.722 204.959 273.41 204.473L291.336 191.815C291.673 191.577 292.076 191.449 292.489 191.449H294.567C294.981 191.449 295.384 191.577 295.722 191.817L298.49 193.775C299.019 194.15 299.334 194.759 299.334 195.408V195.62C299.334 196.276 299.012 196.891 298.472 197.265L298.374 197.333C297.23 198.124 297.223 199.813 298.361 200.613L304.15 204.686C304.682 205.06 304.999 205.67 304.999 206.321V207.705C304.999 208.355 304.683 208.965 304.151 209.339L300.247 212.091C299.679 212.491 299.36 213.156 299.403 213.849L300.017 223.82C300.059 224.512 299.74 225.177 299.173 225.577L297.349 226.864C297.011 227.101 296.609 227.229 296.196 227.229H294.121C293.725 227.229 293.337 227.347 293.008 227.567L292.52 227.894C292.13 228.155 291.845 228.545 291.713 228.995L289.787 235.59C289.545 236.417 289.861 237.307 290.57 237.796L291.493 238.434C291.751 238.612 292.048 238.727 292.358 238.77L295.526 239.204C295.848 239.248 296.155 239.37 296.419 239.56L299.094 241.476C299.686 241.9 300.001 242.613 299.915 243.337L299.371 247.936C299.329 248.294 299.483 248.646 299.774 248.858C300.326 249.26 300.318 250.086 299.759 250.478L296.868 252.508C296.334 252.882 296.017 253.493 296.017 254.145V254.39C296.017 255.043 296.335 255.655 296.87 256.029L300.108 258.293C300.643 258.668 300.961 259.279 300.961 259.932V260.188C300.961 260.851 300.633 261.471 300.084 261.844L299.057 262.54C298.67 262.803 298.387 263.192 298.257 263.642L297.216 267.254C296.969 268.11 296.185 268.7 295.294 268.7H293.294H287.565C287.139 268.7 286.724 268.564 286.381 268.312L285.282 267.505L284.291 266.774C283.939 266.514 283.682 266.146 283.559 265.727L280.475 255.198C280.406 254.962 280.262 254.755 280.065 254.609C279.445 254.148 279.46 253.215 280.094 252.774L283.848 250.164C284.996 249.367 284.992 247.668 283.841 246.875L282.935 246.251L282.212 245.746C281.322 245.124 281.329 243.804 282.226 243.192C282.65 242.903 282.904 242.423 282.904 241.91V230.915C282.904 230.361 282.626 229.843 282.164 229.537C281.607 229.167 280.884 229.169 280.329 229.541L279.691 229.968C279.137 230.339 278.804 230.962 278.804 231.63V238.856C278.804 239.51 278.484 240.123 277.948 240.497L274.746 242.73C274.21 243.104 273.89 243.717 273.89 244.37V248.041C273.89 248.693 273.573 249.304 273.039 249.678L271.371 250.847C270.895 251.182 270.258 251.173 269.79 250.826C269.323 250.478 268.686 250.469 268.21 250.803L254.244 260.588C253.709 260.963 253.391 261.574 253.391 262.226V262.538C253.391 263.188 253.075 263.798 252.543 264.173L242.405 271.314C241.421 272.007 241.408 273.461 242.378 274.173L243.157 274.744C243.742 275.174 243.735 276.051 243.142 276.47L242.998 276.572C242.467 276.949 242.47 277.739 243.005 278.111C243.323 278.332 243.745 278.335 244.067 278.119L244.873 277.575C245.556 277.115 246.451 277.12 247.129 277.589L254.188 282.472C254.728 282.846 255.05 283.461 255.05 284.117V288.854V294.717C255.05 295.359 255.359 295.962 255.88 296.338L257.444 297.467C257.965 297.843 258.274 298.447 258.274 299.089V302.765C258.274 303.408 257.965 304.011 257.444 304.387L255.88 305.516C255.359 305.892 255.05 306.496 255.05 307.138V317.804C255.05 318.45 254.738 319.056 254.213 319.431L251.632 321.276C251.215 321.575 250.698 321.701 250.189 321.629L247.538 321.255C247.036 321.184 246.525 321.306 246.11 321.597L245.78 321.829C245.344 322.135 245.047 322.603 244.957 323.129L244.546 325.531C244.458 326.045 244.174 326.503 243.753 326.81L242.306 327.865C241.654 328.34 240.772 328.352 240.107 327.895L239.057 327.171C238.468 326.766 238.467 325.896 239.055 325.49C239.636 325.088 239.644 324.232 239.07 323.82L237.011 322.34C236.488 321.964 236.178 321.36 236.178 320.716V316.957C236.178 316.292 236.509 315.67 237.061 315.299L238.144 314.568C238.474 314.346 238.864 314.227 239.262 314.227H241.288C241.71 314.227 242.121 314.094 242.462 313.846L243.583 313.034C244.102 312.658 244.409 312.055 244.409 311.414V304.732C244.409 304.554 244.324 304.386 244.181 304.281C243.872 304.054 243.877 303.592 244.19 303.371L244.358 303.253C244.753 302.975 244.76 302.392 244.372 302.104L243.603 301.535C243.114 301.173 242.447 301.169 241.953 301.525L239.056 303.614C238.364 304.114 237.432 304.119 236.734 303.627L231.299 299.796C230.767 299.421 230.451 298.811 230.451 298.161V297.975C230.451 297.323 230.133 296.711 229.599 296.337L225.272 293.304C224.936 293.068 224.535 292.941 224.124 292.941H222.104C221.691 292.941 221.288 292.813 220.951 292.575L211.127 285.637C210.44 285.152 209.524 285.148 208.834 285.627L206.526 287.226C206.151 287.486 205.876 287.867 205.747 288.305L204.635 292.084C204.39 292.914 204.708 293.807 205.421 294.297L205.477 294.335C206.202 294.833 206.516 295.747 206.252 296.586L203.612 304.946C203.482 305.358 203.222 305.717 202.871 305.969L202.153 306.484C201.463 306.979 200.536 306.984 199.84 306.498L197.211 304.659C196.519 304.175 195.597 304.178 194.908 304.667L188.264 309.381C187.571 309.873 186.642 309.872 185.948 309.38L185.729 309.224C185.02 308.72 184.068 308.732 183.372 309.253L182.508 309.9C181.816 310.418 180.869 310.433 180.161 309.936L171.494 303.859C171.002 303.515 170.348 303.513 169.855 303.856C169.369 304.194 168.725 304.198 168.235 303.866L167.776 303.554C167.175 303.147 167.159 302.269 167.743 301.839C168.013 301.642 168.172 301.327 168.172 300.993V300.29C168.172 299.644 167.86 299.038 167.335 298.663L163.29 295.771L157.065 291.372C156.37 290.881 155.44 290.883 154.747 291.378L153.486 292.28C152.961 292.656 152.649 293.262 152.649 293.907V298.739C152.649 299.383 152.339 299.987 151.817 300.363L150.637 301.211C150.297 301.456 149.889 301.588 149.469 301.588H145.913C145.491 301.588 145.079 301.454 144.737 301.205L143.974 300.65C142.997 299.94 143.013 298.478 144.005 297.788L144.061 297.748C145.029 297.075 145.04 295.647 144.082 294.959C143.792 294.751 143.444 294.639 143.087 294.639H140.947C140.518 294.639 140.101 294.501 139.757 294.247L139.07 293.738C138.377 293.225 137.432 293.214 136.727 293.711L131.69 297.265C131.007 297.747 130.097 297.753 129.407 297.281L126.934 295.586C126.601 295.358 126.207 295.236 125.804 295.236H118.756C118.389 295.236 118.032 295.121 117.735 294.907C116.763 294.205 116.77 292.756 117.748 292.064L119.398 290.899C120.398 290.192 120.399 288.709 119.4 288.002C119.142 287.819 118.839 287.708 118.524 287.681L112.095 287.139C111.743 287.109 111.405 286.986 111.115 286.784L110.031 286.024C109.497 285.65 109.179 285.038 109.179 284.386V279.571C109.179 278.925 109.491 278.318 110.017 277.943L115.073 274.337C116.197 273.535 116.19 271.862 115.058 271.07L112.23 269.093C111.894 268.858 111.494 268.732 111.084 268.732H109.034C108.619 268.732 108.215 268.602 107.876 268.362L104.325 265.84C103.797 265.464 103.483 264.857 103.483 264.209V260.472C103.483 259.816 103.161 259.202 102.623 258.828L97.4248 255.223C97.09 254.99 96.6923 254.866 96.2849 254.866H94.3217C93.9088 254.866 93.506 254.738 93.1686 254.5L85.466 249.065C84.9722 248.716 84.3125 248.715 83.8181 249.063L83.3835 249.369C82.7798 249.793 82.7836 250.689 83.3908 251.109C83.998 251.528 84.0019 252.424 83.3984 252.849L75.3459 258.514C74.9439 258.797 74.4518 258.922 73.9635 258.865L69.5202 258.347C69.2165 258.312 68.9269 258.199 68.6789 258.02C67.6734 257.295 67.6896 255.793 68.7106 255.089L69.0367 254.865C69.5785 254.491 69.9021 253.876 69.9021 253.218V251.904C69.9021 251.257 69.5892 250.65 69.0622 250.275L67.8792 249.432C67.585 249.223 67.2396 249.097 66.8796 249.068L60.4882 248.553C60.1768 248.528 59.8777 248.42 59.6223 248.24C58.6366 247.545 58.634 246.085 59.6173 245.387L61.0388 244.378C62.1689 243.576 62.1604 241.895 61.0224 241.105L60.0125 240.403L51.3344 234.35C50.6446 233.869 49.7276 233.871 49.0397 234.355L46.9665 235.813C46.4339 236.187 46.117 236.797 46.117 237.449V239.806V243.413C46.117 244.068 45.7963 244.682 45.2585 245.056L40.8334 248.131C40.5036 248.361 40.1124 248.485 39.7107 248.489L37.6461 248.509C37.2128 248.513 36.7899 248.376 36.441 248.119L35.7904 247.64C35.098 247.129 34.1571 247.119 33.4536 247.614L24.5083 253.905C24.1714 254.141 23.7696 254.269 23.3578 254.269H21.2964C20.8906 254.269 20.4943 254.145 20.1603 253.915L18.9193 253.058C17.7782 252.27 17.7652 250.589 18.8941 249.784L19.8345 249.113C20.3608 248.738 20.6732 248.131 20.6732 247.485V244.938C20.6732 244.283 20.3527 243.67 19.8152 243.296L19.0901 242.792C18.5526 242.418 18.2321 241.805 18.2321 241.15V234.017C18.2321 233.368 17.9175 232.76 17.3882 232.385L16.6349 231.851C16.1056 231.476 15.791 230.868 15.791 230.219V226.305C15.791 225.201 16.6864 224.305 17.791 224.305H18.7023C18.9459 224.305 19.1832 224.228 19.38 224.084L19.8826 223.718C20.2711 223.435 20.2674 222.854 19.8752 222.576C19.483 222.298 19.4792 221.717 19.8677 221.434L20.3703 221.067C20.5672 220.924 20.8044 220.847 21.048 220.847H30.3876C30.4834 220.847 30.5791 220.84 30.6739 220.826L34.238 220.311C34.5171 220.27 34.7827 220.165 35.0133 220.002L35.296 219.803C36.165 219.191 36.1705 217.904 35.3069 217.284C34.9024 216.994 34.6626 216.527 34.6626 216.029V210.915C34.6626 210.301 34.9601 209.726 35.4606 209.371C35.9612 209.016 36.2587 208.44 36.2587 207.826V201.733C36.2587 201.081 36.5765 200.47 37.1103 200.095Z" fill="#BBDFFD"/>
<path d="M255.906 276.747L257.431 275.641C257.925 275.282 258.583 275.245 259.114 275.547C259.601 275.824 259.901 276.34 259.901 276.9V277.413C259.901 278.079 260.232 278.701 260.784 279.073L262.411 280.167C262.973 280.545 263.306 281.182 263.295 281.859L263.236 285.468C263.225 286.13 263.543 286.755 264.085 287.137L270.235 291.459C270.826 291.874 270.825 292.75 270.234 293.165C269.956 293.36 269.791 293.678 269.791 294.018V294.727C269.791 295.361 269.481 295.957 268.961 296.321C268.441 296.686 268.132 297.281 268.132 297.916V298.343C268.132 298.859 268.383 299.343 268.806 299.641L268.964 299.751C269.781 300.326 269.786 301.536 268.973 302.117C268.47 302.478 267.793 302.478 267.289 302.12L262.432 298.664C261.904 298.289 261.591 297.682 261.591 297.035V293.3C261.591 292.679 261.294 292.096 260.793 291.731C260.291 291.365 259.995 290.782 259.995 290.162V289.899C259.995 289.244 259.674 288.631 259.137 288.257L258.412 287.753C257.874 287.379 257.554 286.766 257.554 286.111V284.829V282.424C257.554 281.765 257.229 281.148 256.686 280.775L255.949 280.269C255.406 279.896 255.081 279.279 255.081 278.62V278.366C255.081 277.725 255.388 277.124 255.906 276.747Z" fill="#BBDFFD"/>
<path d="M286.155 295.775L288.783 293.956C289.116 293.725 289.112 293.232 288.776 293.007C288.681 292.944 288.57 292.91 288.456 292.91H285.881C285.532 292.91 285.191 293.017 284.904 293.216L284.55 293.463C283.749 294.02 283.744 295.203 284.54 295.767C285.023 296.109 285.669 296.113 286.155 295.775Z" fill="#BBDFFD"/>
<path d="M290.267 289.436L291.322 288.702C291.614 288.498 291.621 288.068 291.335 287.856C291.246 287.789 291.137 287.753 291.025 287.753H287.951C287.844 287.753 287.738 287.786 287.649 287.847C287.338 288.059 287.338 288.518 287.648 288.731L288.681 289.44C289.16 289.769 289.791 289.767 290.267 289.436Z" fill="#BBDFFD"/>
<path d="M291.906 283.719L295.331 281.351C295.658 281.126 295.675 280.65 295.366 280.401C295.26 280.317 295.129 280.27 294.994 280.27H292.532C292.131 280.27 291.74 280.391 291.408 280.616L290.297 281.371C289.484 281.923 289.463 283.113 290.255 283.695C290.744 284.054 291.407 284.064 291.906 283.719Z" fill="#BBDFFD"/>
<path d="M295.715 277.528L298.791 275.41C299.457 274.951 299.45 273.966 298.778 273.516C298.59 273.389 298.368 273.322 298.141 273.322H295.836C295.424 273.322 295.022 273.449 294.685 273.686L291.616 275.847C290.975 276.298 290.984 277.25 291.633 277.689C291.818 277.814 292.036 277.881 292.26 277.881H294.581C294.986 277.881 295.382 277.758 295.715 277.528Z" fill="#BBDFFD"/>
<path d="M227.992 209.915L230.452 208.168C231.247 207.603 231.246 206.423 230.451 205.859C229.963 205.514 229.311 205.512 228.821 205.854L226.349 207.583C225.541 208.148 225.536 209.342 226.339 209.914C226.834 210.266 227.497 210.267 227.992 209.915Z" fill="#BBDFFD"/>
<path d="M236.194 201.832L234.558 200.669C233.769 200.108 233.762 198.94 234.543 198.369C235.034 198.01 235.699 198.005 236.196 198.355L237.837 199.513C238.634 200.075 238.64 201.256 237.849 201.827C237.355 202.183 236.69 202.185 236.194 201.832Z" fill="#BBDFFD"/>
<path d="M231.014 199.324L228.525 197.592C228.19 197.359 227.791 197.234 227.383 197.234H225.32C224.912 197.234 224.513 197.359 224.178 197.592L223.11 198.335C222.572 198.709 222.252 199.322 222.252 199.977V202.486C222.252 203.153 222.584 203.777 223.139 204.148L223.437 204.348C223.766 204.568 224.153 204.686 224.55 204.686H226.644C226.983 204.686 227.315 204.583 227.596 204.392L228.415 203.833C229.025 203.417 229.013 202.513 228.392 202.113L228.29 202.047C227.741 201.693 227.708 200.902 228.225 200.503C228.56 200.243 229.028 200.239 229.368 200.492L229.893 200.882C230.241 201.142 230.719 201.135 231.06 200.866C231.567 200.467 231.544 199.692 231.014 199.324Z" fill="#BBDFFD"/>
<path d="M187.517 193.389L191.622 190.522C192.311 190.041 193.229 190.042 193.917 190.526L194.662 191.05C195.057 191.327 195.338 191.739 195.453 192.208L195.68 193.127C195.87 193.9 195.574 194.711 194.931 195.18C194.585 195.431 194.167 195.563 193.739 195.555L188.143 195.449C187.916 195.444 187.696 195.372 187.51 195.24C186.871 194.787 186.875 193.838 187.517 193.389Z" fill="#BBDFFD"/>
<path d="M22.1381 201.263L18.4932 198.56C18.3203 198.431 18.1692 198.276 18.0458 198.1L16.605 196.04C16.1175 195.343 16.1241 194.414 16.6214 193.724L17.92 191.922C18.561 191.033 19.7985 190.826 20.6946 191.457L22.7508 192.906C22.994 193.078 23.1959 193.301 23.3418 193.561L24.7684 196.097C24.8577 196.256 24.9684 196.401 25.0973 196.53L26.2085 197.641C26.7276 198.161 26.5697 199.038 25.9021 199.344C25.6433 199.463 25.4435 199.681 25.3482 199.949L25.214 200.326C24.7638 201.593 23.2176 202.064 22.1381 201.263Z" fill="#BBDFFD"/>
<path d="M37.1103 200.095L38.7809 198.924C39.2556 198.591 39.8902 198.6 40.3555 198.946C40.8237 199.294 41.4629 199.3 41.938 198.962L45.5649 196.379C45.9036 196.138 46.3092 196.008 46.725 196.008H48.7659C49.1804 196.008 49.5847 195.879 49.9228 195.639L50.1561 195.474C50.6849 195.099 50.9992 194.491 50.9992 193.843V185.584C50.9992 184.943 51.3064 184.341 51.8254 183.965L52.9464 183.152C53.2878 182.904 53.6986 182.771 54.1202 182.771H61.0713C61.4821 182.771 61.8829 182.645 62.2193 182.409L66.2516 179.582C66.9401 179.099 67.857 179.099 68.546 179.581L71.8269 181.876C72.1629 182.111 72.5631 182.237 72.9732 182.237H79.9042C80.3196 182.237 80.7246 182.107 81.0631 181.867L83.7979 179.922C84.1962 179.639 84.197 179.048 83.7994 178.764C83.4008 178.479 83.4028 177.886 83.8034 177.603L85.0165 176.749C85.2638 176.575 85.5517 176.467 85.8526 176.436L90.6941 175.939C91.0354 175.904 91.362 175.782 91.6425 175.584L100.461 169.366C100.798 169.128 101.201 169 101.613 169H105.291C105.703 169 106.105 169.127 106.442 169.364L106.639 169.503C107.172 169.878 107.489 170.488 107.489 171.139V182.968C107.489 183.614 107.177 184.22 106.651 184.596L104.004 186.486C103.665 186.728 103.259 186.859 102.842 186.859H100.802C100.388 186.859 99.9839 186.73 99.6459 186.491L96.514 184.272C95.9106 183.845 95.9068 182.95 96.5065 182.518L96.6512 182.413C97.1783 182.033 97.1766 181.248 96.6479 180.87C96.3182 180.634 95.8752 180.634 95.5449 180.869L92.8695 182.771C92.3419 183.146 92.0284 183.753 92.0284 184.401V184.665C92.0284 185.329 91.6988 185.95 91.1487 186.322L89.6533 187.333C89.1032 187.705 88.7736 188.325 88.7736 188.99V189.285C88.7736 189.933 89.087 190.54 89.6146 190.915L93.0728 193.374C93.4113 193.615 93.8164 193.744 94.2318 193.744H96.2041C96.6034 193.744 96.9935 193.625 97.3242 193.401L99.6579 191.824C99.9887 191.6 100.379 191.48 100.778 191.48H104.44C104.855 191.48 105.261 191.351 105.6 191.11L106.398 190.541C107.089 190.049 108.015 190.046 108.709 190.534L109.205 190.883C109.738 191.258 110.055 191.868 110.055 192.519V192.929C110.055 193.439 109.804 193.917 109.384 194.208C108.495 194.822 108.489 196.134 109.372 196.756L109.525 196.864C109.809 197.064 110.148 197.171 110.495 197.171H114.286C114.649 197.171 115.003 197.282 115.301 197.489L115.744 197.797C116.54 198.35 116.547 199.524 115.758 200.086C114.974 200.644 114.974 201.809 115.759 202.367L120.287 205.582C120.966 206.064 121.873 206.076 122.563 205.61L123.381 205.059C123.711 204.836 124.101 204.717 124.499 204.717H126.55C126.956 204.717 127.353 204.593 127.688 204.362L129.438 203.151C130.073 202.711 130.913 202.707 131.553 203.14C131.918 203.387 132.185 203.755 132.305 204.18L133.682 209.032C133.743 209.25 133.883 209.438 134.074 209.56C134.69 209.954 135.499 209.511 135.499 208.78V207.749C135.499 207.267 135.732 206.815 136.125 206.535L142.159 202.239C142.483 202.008 142.916 202 143.248 202.219C143.813 202.59 143.83 203.411 143.282 203.806L140.273 205.974C139.751 206.349 139.442 206.953 139.442 207.596V208.087C139.442 208.439 139.611 208.77 139.895 208.976C140.503 209.417 140.499 210.324 139.888 210.76L137.027 212.797C136.5 213.172 136.187 213.779 136.187 214.426V216.953C136.187 217.583 135.89 218.176 135.386 218.554L135.124 218.75C134.778 219.009 134.358 219.149 133.926 219.149H131.93C131.523 219.149 131.126 219.273 130.791 219.505L129.566 220.353C128.412 221.152 128.418 222.859 129.577 223.65L129.981 223.926C130.314 224.152 130.707 224.274 131.109 224.274H133.178C133.588 224.274 133.989 224.147 134.326 223.911L138.988 220.643C139.324 220.407 139.725 220.281 140.136 220.281H142.225C142.653 220.281 143.071 220.143 143.415 219.888L144.453 219.12C144.963 218.742 145.263 218.146 145.263 217.512V215.093V211.513C145.263 210.86 145.582 210.248 146.117 209.874L146.577 209.552C147.271 209.066 148.196 209.071 148.886 209.563L150.591 210.781C151.281 211.274 152.206 211.278 152.9 210.793L153.36 210.471C153.895 210.096 154.214 209.485 154.214 208.832V207.478C154.214 206.831 154.527 206.224 155.054 205.848L155.522 205.515C156.218 205.019 157.153 205.021 157.848 205.519L158.811 206.21C159.506 206.709 160.44 206.711 161.137 206.215L165.147 203.359C165.486 203.118 165.892 202.988 166.308 202.988H173.27C173.679 202.988 174.079 202.862 174.415 202.628L176.669 201.053C177.005 200.819 177.405 200.693 177.815 200.693H183.003C183.413 200.693 183.812 200.567 184.148 200.332L185.683 199.261C186.018 199.026 186.418 198.901 186.828 198.901H195.413C195.832 198.901 196.24 199.032 196.579 199.276L198.509 200.66C199.032 201.036 199.343 201.641 199.343 202.285V203.916C199.343 204.418 199.587 204.889 199.998 205.179L200.417 205.474C201.074 205.937 201.083 206.907 200.436 207.382C200.234 207.53 199.99 207.61 199.74 207.61H197.391C197.032 207.61 196.682 207.722 196.391 207.932C195.431 208.62 195.438 210.049 196.403 210.729L202.8 215.231C203.137 215.469 203.539 215.596 203.951 215.596H207.758C208.148 215.596 208.53 215.482 208.856 215.267L210.391 214.258C210.717 214.044 211.099 213.929 211.49 213.929H213.417C213.83 213.929 214.233 214.057 214.571 214.296L223.54 220.63C224.231 221.118 225.155 221.119 225.846 220.632L246.815 205.859C247.308 205.512 247.964 205.503 248.467 205.836C248.965 206.167 249.614 206.161 250.106 205.822L250.385 205.63C250.712 205.404 251.101 205.283 251.499 205.283H260.207C260.619 205.283 261.021 205.156 261.357 204.919L264.391 202.786C264.728 202.549 265.129 202.422 265.541 202.422H267.534C267.944 202.422 268.343 202.548 268.679 202.782L271.112 204.48C271.803 204.962 272.722 204.959 273.41 204.473L291.336 191.815C291.673 191.577 292.076 191.449 292.489 191.449H294.567C294.981 191.449 295.384 191.577 295.722 191.817L298.49 193.775C299.019 194.15 299.334 194.759 299.334 195.408V195.62C299.334 196.276 299.012 196.891 298.472 197.265L298.374 197.333C297.23 198.124 297.223 199.813 298.361 200.613L304.15 204.686C304.682 205.06 304.999 205.67 304.999 206.321V207.705C304.999 208.355 304.683 208.965 304.151 209.339L300.247 212.091C299.679 212.491 299.36 213.156 299.403 213.849L300.017 223.82C300.059 224.512 299.74 225.177 299.173 225.577L297.349 226.864C297.011 227.101 296.609 227.229 296.196 227.229H294.121C293.725 227.229 293.337 227.347 293.008 227.567L292.52 227.894C292.13 228.155 291.845 228.545 291.713 228.995L289.787 235.59C289.545 236.417 289.861 237.307 290.57 237.796L291.493 238.434C291.751 238.612 292.048 238.727 292.358 238.77L295.526 239.204C295.848 239.248 296.155 239.37 296.419 239.56L299.094 241.476C299.686 241.9 300.001 242.613 299.915 243.337L299.371 247.936C299.329 248.294 299.483 248.646 299.774 248.858C300.326 249.26 300.318 250.086 299.759 250.478L296.868 252.508C296.334 252.882 296.017 253.493 296.017 254.145V254.39C296.017 255.043 296.335 255.655 296.87 256.029L300.108 258.293C300.643 258.668 300.961 259.279 300.961 259.932V260.188C300.961 260.851 300.633 261.471 300.084 261.844L299.057 262.54C298.67 262.803 298.387 263.192 298.257 263.642L297.216 267.254C296.969 268.11 296.185 268.7 295.294 268.7H293.294H287.565C287.139 268.7 286.724 268.564 286.381 268.312L285.282 267.505L284.291 266.774C283.939 266.514 283.682 266.146 283.559 265.727L280.475 255.198C280.406 254.962 280.262 254.755 280.065 254.609C279.445 254.148 279.46 253.215 280.094 252.774L283.848 250.164C284.996 249.367 284.992 247.668 283.841 246.875L282.935 246.251L282.212 245.746C281.322 245.124 281.329 243.804 282.226 243.192C282.65 242.903 282.904 242.423 282.904 241.91V230.915C282.904 230.361 282.626 229.843 282.164 229.537C281.607 229.167 280.884 229.169 280.329 229.541L279.691 229.968C279.137 230.339 278.804 230.962 278.804 231.63V238.856C278.804 239.51 278.484 240.123 277.948 240.497L274.746 242.73C274.21 243.104 273.89 243.717 273.89 244.37V248.041C273.89 248.693 273.573 249.304 273.039 249.678L271.371 250.847C270.895 251.182 270.258 251.173 269.79 250.826C269.323 250.478 268.686 250.469 268.21 250.803L254.244 260.588C253.709 260.963 253.391 261.574 253.391 262.226V262.538C253.391 263.188 253.075 263.798 252.543 264.173L242.405 271.314C241.421 272.007 241.408 273.461 242.378 274.173L243.157 274.744C243.742 275.174 243.735 276.051 243.142 276.47L242.998 276.572C242.467 276.949 242.47 277.739 243.005 278.111C243.323 278.332 243.745 278.335 244.067 278.119L244.873 277.575C245.556 277.115 246.451 277.12 247.129 277.589L254.188 282.472C254.728 282.846 255.05 283.461 255.05 284.117V288.854V294.717C255.05 295.359 255.359 295.962 255.88 296.338L257.444 297.467C257.965 297.843 258.274 298.447 258.274 299.089V302.765C258.274 303.408 257.965 304.011 257.444 304.387L255.88 305.516C255.359 305.892 255.05 306.496 255.05 307.138V317.804C255.05 318.45 254.738 319.056 254.213 319.431L251.632 321.276C251.215 321.575 250.698 321.701 250.189 321.629L247.538 321.255C247.036 321.184 246.525 321.306 246.11 321.597L245.78 321.829C245.344 322.135 245.047 322.603 244.957 323.129L244.546 325.531C244.458 326.045 244.174 326.503 243.753 326.81L242.306 327.865C241.654 328.34 240.772 328.352 240.107 327.895L239.057 327.171C238.468 326.766 238.467 325.896 239.055 325.49C239.636 325.088 239.644 324.232 239.07 323.82L237.011 322.34C236.488 321.964 236.178 321.36 236.178 320.716V316.957C236.178 316.292 236.509 315.67 237.061 315.299L238.144 314.568C238.474 314.346 238.864 314.227 239.262 314.227H241.288C241.71 314.227 242.121 314.094 242.462 313.846L243.583 313.034C244.102 312.658 244.409 312.055 244.409 311.414V304.732C244.409 304.554 244.324 304.386 244.181 304.281C243.872 304.054 243.877 303.592 244.19 303.371L244.358 303.253C244.753 302.975 244.76 302.392 244.372 302.104L243.603 301.535C243.114 301.173 242.447 301.169 241.953 301.525L239.056 303.614C238.364 304.114 237.432 304.119 236.734 303.627L231.299 299.796C230.767 299.421 230.451 298.811 230.451 298.161V297.975C230.451 297.323 230.133 296.711 229.599 296.337L225.272 293.304C224.936 293.068 224.535 292.941 224.124 292.941H222.104C221.691 292.941 221.288 292.813 220.951 292.575L211.127 285.637C210.44 285.152 209.524 285.148 208.834 285.627L206.526 287.226C206.151 287.486 205.876 287.867 205.747 288.305L204.635 292.084C204.39 292.914 204.708 293.807 205.421 294.297L205.477 294.335C206.202 294.833 206.516 295.747 206.252 296.586L203.612 304.946C203.482 305.358 203.222 305.717 202.871 305.969L202.153 306.484C201.463 306.979 200.536 306.984 199.84 306.498L197.211 304.659C196.519 304.175 195.597 304.178 194.908 304.667L188.264 309.381C187.571 309.873 186.642 309.872 185.948 309.38L185.729 309.224C185.02 308.72 184.068 308.732 183.372 309.253L182.508 309.9C181.816 310.418 180.869 310.433 180.161 309.936L171.494 303.859C171.002 303.515 170.348 303.513 169.855 303.856C169.369 304.194 168.725 304.198 168.235 303.866L167.776 303.554C167.175 303.147 167.159 302.269 167.743 301.839C168.013 301.642 168.172 301.327 168.172 300.993V300.29C168.172 299.644 167.86 299.038 167.335 298.663L163.29 295.771L157.065 291.372C156.37 290.881 155.44 290.883 154.747 291.378L153.486 292.28C152.961 292.656 152.649 293.262 152.649 293.907V298.739C152.649 299.383 152.339 299.987 151.817 300.363L150.637 301.211C150.297 301.456 149.889 301.588 149.469 301.588H145.913C145.491 301.588 145.079 301.454 144.737 301.205L143.974 300.65C142.997 299.94 143.013 298.478 144.005 297.788L144.061 297.748C145.029 297.075 145.04 295.647 144.082 294.959C143.792 294.751 143.444 294.639 143.087 294.639H140.947C140.518 294.639 140.101 294.501 139.757 294.247L139.07 293.738C138.377 293.225 137.432 293.214 136.727 293.711L131.69 297.265C131.007 297.747 130.097 297.753 129.407 297.281L126.934 295.586C126.601 295.358 126.207 295.236 125.804 295.236H118.756C118.389 295.236 118.032 295.121 117.735 294.907C116.763 294.205 116.77 292.756 117.748 292.064L119.398 290.899C120.398 290.192 120.399 288.709 119.4 288.002C119.142 287.819 118.839 287.708 118.524 287.681L112.095 287.139C111.743 287.109 111.405 286.986 111.115 286.784L110.031 286.024C109.497 285.65 109.179 285.038 109.179 284.386V279.571C109.179 278.925 109.491 278.318 110.017 277.943L115.073 274.337C116.197 273.535 116.19 271.862 115.058 271.07L112.23 269.093C111.894 268.858 111.494 268.732 111.084 268.732H109.034C108.619 268.732 108.215 268.602 107.876 268.362L104.325 265.84C103.797 265.464 103.483 264.857 103.483 264.209V260.472C103.483 259.816 103.161 259.202 102.623 258.828L97.4248 255.223C97.09 254.99 96.6923 254.866 96.2849 254.866H94.3217C93.9088 254.866 93.506 254.738 93.1686 254.5L85.466 249.065C84.9722 248.716 84.3125 248.715 83.8181 249.063L83.3835 249.369C82.7798 249.793 82.7836 250.689 83.3908 251.109C83.998 251.528 84.0019 252.424 83.3984 252.849L75.3459 258.514C74.9439 258.797 74.4518 258.922 73.9635 258.865L69.5202 258.347C69.2165 258.312 68.9269 258.199 68.6789 258.02C67.6734 257.295 67.6896 255.793 68.7106 255.089L69.0367 254.865C69.5785 254.491 69.9021 253.876 69.9021 253.218V251.904C69.9021 251.257 69.5892 250.65 69.0622 250.275L67.8792 249.432C67.585 249.223 67.2396 249.097 66.8796 249.068L60.4882 248.553C60.1768 248.528 59.8777 248.42 59.6223 248.24C58.6366 247.545 58.634 246.085 59.6173 245.387L61.0388 244.378C62.1689 243.576 62.1604 241.895 61.0224 241.105L60.0125 240.403L51.3344 234.35C50.6446 233.869 49.7276 233.871 49.0397 234.355L46.9665 235.813C46.4339 236.187 46.117 236.797 46.117 237.449V239.806V243.413C46.117 244.068 45.7963 244.682 45.2585 245.056L40.8334 248.131C40.5036 248.361 40.1124 248.485 39.7107 248.489L37.6461 248.509C37.2128 248.513 36.7899 248.376 36.441 248.119L35.7904 247.64C35.098 247.129 34.1571 247.119 33.4536 247.614L24.5083 253.905C24.1714 254.141 23.7696 254.269 23.3578 254.269H21.2964C20.8906 254.269 20.4943 254.145 20.1603 253.915L18.9193 253.058C17.7782 252.27 17.7652 250.589 18.8941 249.784L19.8345 249.113C20.3608 248.738 20.6732 248.131 20.6732 247.485V244.938C20.6732 244.283 20.3527 243.67 19.8152 243.296L19.0901 242.792C18.5526 242.418 18.2321 241.805 18.2321 241.15V234.017C18.2321 233.368 17.9175 232.76 17.3882 232.385L16.6349 231.851C16.1056 231.476 15.791 230.868 15.791 230.219V226.305C15.791 225.201 16.6864 224.305 17.791 224.305H18.7023C18.9459 224.305 19.1832 224.228 19.38 224.084L19.8826 223.718C20.2711 223.435 20.2674 222.854 19.8752 222.576C19.483 222.298 19.4792 221.717 19.8677 221.434L20.3703 221.067C20.5672 220.924 20.8044 220.847 21.048 220.847H30.3876C30.4834 220.847 30.5791 220.84 30.6739 220.826L34.238 220.311C34.5171 220.27 34.7827 220.165 35.0133 220.002L35.296 219.803C36.165 219.191 36.1705 217.904 35.3069 217.284C34.9024 216.994 34.6626 216.527 34.6626 216.029V210.915C34.6626 210.301 34.9601 209.726 35.4606 209.371C35.9612 209.016 36.2587 208.44 36.2587 207.826V201.733C36.2587 201.081 36.5765 200.47 37.1103 200.095Z" stroke="#7BBEFD" stroke-width="1.18852"/>
<path d="M255.906 276.747L257.431 275.641C257.925 275.282 258.583 275.245 259.114 275.547C259.601 275.824 259.901 276.34 259.901 276.9V277.413C259.901 278.079 260.232 278.701 260.784 279.073L262.411 280.167C262.973 280.545 263.306 281.182 263.295 281.859L263.236 285.468C263.225 286.13 263.543 286.755 264.085 287.137L270.235 291.459C270.826 291.874 270.825 292.75 270.234 293.165C269.956 293.36 269.791 293.678 269.791 294.018V294.727C269.791 295.361 269.481 295.957 268.961 296.321C268.441 296.686 268.132 297.281 268.132 297.916V298.343C268.132 298.859 268.383 299.343 268.806 299.641L268.964 299.751C269.781 300.326 269.786 301.536 268.973 302.117C268.47 302.478 267.793 302.478 267.289 302.12L262.432 298.664C261.904 298.289 261.591 297.682 261.591 297.035V293.3C261.591 292.679 261.294 292.096 260.793 291.731C260.291 291.365 259.995 290.782 259.995 290.162V289.899C259.995 289.244 259.674 288.631 259.137 288.257L258.412 287.753C257.874 287.379 257.554 286.766 257.554 286.111V284.829V282.424C257.554 281.765 257.229 281.148 256.686 280.775L255.949 280.269C255.406 279.896 255.081 279.279 255.081 278.62V278.366C255.081 277.725 255.388 277.124 255.906 276.747Z" stroke="#7BBEFD" stroke-width="1.18852"/>
<path d="M286.155 295.775L288.783 293.956C289.116 293.725 289.112 293.232 288.776 293.007C288.681 292.944 288.57 292.91 288.456 292.91H285.881C285.532 292.91 285.191 293.017 284.904 293.216L284.55 293.463C283.749 294.02 283.744 295.203 284.54 295.767C285.023 296.109 285.669 296.113 286.155 295.775Z" stroke="#7BBEFD" stroke-width="1.18852"/>
<path d="M290.267 289.436L291.322 288.702C291.614 288.498 291.621 288.068 291.335 287.856C291.246 287.789 291.137 287.753 291.025 287.753H287.951C287.844 287.753 287.738 287.786 287.649 287.847C287.338 288.059 287.338 288.518 287.648 288.731L288.681 289.44C289.16 289.769 289.791 289.767 290.267 289.436Z" stroke="#7BBEFD" stroke-width="1.18852"/>
<path d="M291.906 283.719L295.331 281.351C295.658 281.126 295.675 280.65 295.366 280.401C295.26 280.317 295.129 280.27 294.994 280.27H292.532C292.131 280.27 291.74 280.391 291.408 280.616L290.297 281.371C289.484 281.923 289.463 283.113 290.255 283.695C290.744 284.054 291.407 284.064 291.906 283.719Z" stroke="#7BBEFD" stroke-width="1.18852"/>
<path d="M295.715 277.528L298.791 275.41C299.457 274.951 299.45 273.966 298.778 273.516C298.59 273.389 298.368 273.322 298.141 273.322H295.836C295.424 273.322 295.022 273.449 294.685 273.686L291.616 275.847C290.975 276.298 290.984 277.25 291.633 277.689C291.818 277.814 292.036 277.881 292.26 277.881H294.581C294.986 277.881 295.382 277.758 295.715 277.528Z" stroke="#7BBEFD" stroke-width="1.18852"/>
<path d="M227.992 209.915L230.452 208.168C231.247 207.603 231.246 206.423 230.451 205.859C229.963 205.514 229.311 205.512 228.821 205.854L226.349 207.583C225.541 208.148 225.536 209.342 226.339 209.914C226.834 210.266 227.497 210.267 227.992 209.915Z" stroke="#7BBEFD" stroke-width="1.18852"/>
<path d="M236.194 201.832L234.558 200.669C233.769 200.108 233.762 198.94 234.543 198.369C235.034 198.01 235.699 198.005 236.196 198.355L237.837 199.513C238.634 200.075 238.64 201.256 237.849 201.827C237.355 202.183 236.69 202.185 236.194 201.832Z" stroke="#7BBEFD" stroke-width="1.18852"/>
<path d="M231.014 199.324L228.525 197.592C228.19 197.359 227.791 197.234 227.383 197.234H225.32C224.912 197.234 224.513 197.359 224.178 197.592L223.11 198.335C222.572 198.709 222.252 199.322 222.252 199.977V202.486C222.252 203.153 222.584 203.777 223.139 204.148L223.437 204.348C223.766 204.568 224.153 204.686 224.55 204.686H226.644C226.983 204.686 227.315 204.583 227.596 204.392L228.415 203.833C229.025 203.417 229.013 202.513 228.392 202.113L228.29 202.047C227.741 201.693 227.708 200.902 228.225 200.503C228.56 200.243 229.028 200.239 229.368 200.492L229.893 200.882C230.241 201.142 230.719 201.135 231.06 200.866C231.567 200.467 231.544 199.692 231.014 199.324Z" stroke="#7BBEFD" stroke-width="1.18852"/>
<path d="M187.517 193.389L191.622 190.522C192.311 190.041 193.229 190.042 193.917 190.526L194.662 191.05C195.057 191.327 195.338 191.739 195.453 192.208L195.68 193.127C195.87 193.9 195.574 194.711 194.931 195.18C194.585 195.431 194.167 195.563 193.739 195.555L188.143 195.449C187.916 195.444 187.696 195.372 187.51 195.24C186.871 194.787 186.875 193.838 187.517 193.389Z" stroke="#7BBEFD" stroke-width="1.18852"/>
<path d="M22.1381 201.263L18.4932 198.56C18.3203 198.431 18.1692 198.276 18.0458 198.1L16.605 196.04C16.1175 195.343 16.1241 194.414 16.6214 193.724L17.92 191.922C18.561 191.033 19.7985 190.826 20.6946 191.457L22.7508 192.906C22.994 193.078 23.1959 193.301 23.3418 193.561L24.7684 196.097C24.8577 196.256 24.9684 196.401 25.0973 196.53L26.2085 197.641C26.7276 198.161 26.5697 199.038 25.9021 199.344C25.6433 199.463 25.4435 199.681 25.3482 199.949L25.214 200.326C24.7638 201.593 23.2176 202.064 22.1381 201.263Z" stroke="#7BBEFD" stroke-width="1.18852"/>
<circle cx="18.7643" cy="239.721" r="2.97131" fill="#E2581D"/>
<circle cx="56.399" cy="184.256" r="2.97131" fill="#E2581D"/>
<circle cx="50.4576" cy="213.178" r="2.97131" fill="#E2581D"/>
<circle cx="168.915" cy="283.296" r="2.97131" fill="#E2581D"/>
<circle cx="137.616" cy="210.401" r="2.97131" fill="#E2581D"/>
<circle cx="19.5572" cy="225.85" r="2.97131" fill="#E2581D"/>
<circle cx="36.9889" cy="233.378" r="2.97131" fill="#E2581D"/>
<circle cx="157.424" cy="277.354" r="2.97131" fill="#E2581D"/>
</svg>
