<svg width="734" height="406" viewBox="0 0 734 406" fill="none" xmlns="http://www.w3.org/2000/svg">
<path d="M55.7922 80.5037L60.0297 77.5317C61.2279 76.6914 62.8297 76.7136 64.0042 77.5867C65.1859 78.4652 66.7992 78.4817 67.9987 77.6275L77.1659 71.0991C78.0128 70.496 79.0266 70.1719 80.0663 70.1719H85.2485C86.2848 70.1719 87.2955 69.8499 88.1408 69.2505L88.7626 68.8096C90.0846 67.872 90.8703 66.3518 90.8703 64.731V43.8353C90.8703 42.2328 91.6383 40.7274 92.9358 39.7869L95.798 37.7122C96.6514 37.0936 97.6785 36.7605 98.7325 36.7605H116.309C117.336 36.7605 118.338 36.4443 119.179 35.8547L129.397 28.6913C131.118 27.4847 133.411 27.4835 135.133 28.6883L143.455 34.5086C144.295 35.0962 145.295 35.4114 146.32 35.4114H163.846C164.884 35.4114 165.897 35.0881 166.743 34.4864L173.659 29.5697C174.664 28.8549 174.666 27.3626 173.662 26.6452C172.656 25.926 172.661 24.4286 173.673 23.7163L176.735 21.5589C177.359 21.1191 178.086 20.8472 178.845 20.7692L191.078 19.5139C191.932 19.4263 192.748 19.1206 193.449 18.6262L215.731 2.9138C216.574 2.31919 217.58 2 218.612 2H227.926C228.955 2 229.96 2.31783 230.802 2.91009L231.334 3.28412C232.665 4.22046 233.458 5.74631 233.458 7.37404V37.2825C233.458 38.8973 232.678 40.4127 231.364 41.3512L224.65 46.1464C223.802 46.752 222.786 47.0776 221.744 47.0776H216.564C215.529 47.0776 214.519 46.7561 213.674 46.1576L205.756 40.5485C204.233 39.4696 204.223 37.2125 205.737 36.1206L206.102 35.8572C207.433 34.8976 207.429 32.9153 206.094 31.9613C205.262 31.3664 204.144 31.3649 203.31 31.9578L196.536 36.7734C195.217 37.7113 194.434 39.2298 194.434 40.8485V41.5657C194.434 43.2259 193.61 44.7777 192.234 45.7077L188.417 48.2888C187.042 49.2187 186.218 50.7706 186.218 52.4307V53.2276C186.218 54.8461 187.002 56.3645 188.321 57.3024L197.082 63.5327C197.929 64.1345 198.941 64.4579 199.98 64.4579H204.989C205.987 64.4579 206.962 64.1591 207.789 63.6001L213.704 59.6015C214.531 59.0425 215.506 58.7438 216.504 58.7438H225.777C226.816 58.7438 227.83 58.4197 228.677 57.8166L230.733 56.3521C232.461 55.1221 234.776 55.1153 236.51 56.335L237.812 57.2503C239.143 58.1866 239.935 59.7124 239.935 61.3402V62.4C239.935 63.6886 239.302 64.895 238.242 65.6274C235.997 67.1779 235.982 70.4898 238.212 72.0612L238.597 72.3324C239.314 72.8373 240.169 73.1083 241.045 73.1083H250.615C251.531 73.1083 252.425 73.3882 253.177 73.9105L254.296 74.6878C256.304 76.0827 256.321 79.0471 254.329 80.4653C252.35 81.8745 252.352 84.8149 254.333 86.2217L265.79 94.3582C267.487 95.5634 269.754 95.5911 271.48 94.4278L273.585 93.009C274.41 92.4525 275.383 92.1552 276.379 92.1552H281.585C282.601 92.1552 283.594 91.8453 284.43 91.267L288.86 88.2015C290.464 87.0923 292.583 87.081 294.198 88.173C295.121 88.7972 295.794 89.7273 296.098 90.7992L299.572 103.047C299.728 103.597 300.08 104.071 300.562 104.379C302.118 105.374 304.159 104.256 304.159 102.409V99.8087C304.159 98.5918 304.747 97.4501 305.739 96.7443L320.971 85.8992C321.789 85.3169 322.881 85.2967 323.719 85.8483C325.144 86.7853 325.188 88.8593 323.805 89.856L316.19 95.341C314.885 96.2807 314.112 97.7903 314.112 99.3981V100.662C314.112 101.55 314.538 102.384 315.257 102.906C316.791 104.019 316.78 106.308 315.237 107.408L307.996 112.564C306.679 113.502 305.897 115.019 305.897 116.637V123.064C305.897 124.639 305.154 126.122 303.893 127.066L303.2 127.585C302.335 128.232 301.284 128.582 300.204 128.582H295.136C294.118 128.582 293.125 128.893 292.289 129.472L289.125 131.663C286.242 133.66 286.257 137.927 289.153 139.904L290.245 140.648C291.075 141.215 292.057 141.518 293.063 141.518H298.315C299.342 141.518 300.344 141.202 301.185 140.612L312.978 132.345C313.819 131.756 314.821 131.439 315.848 131.439H321.153C322.224 131.439 323.267 131.095 324.127 130.458L326.78 128.494C328.054 127.551 328.806 126.06 328.806 124.475V118.345V109.283C328.806 107.651 329.602 106.121 330.94 105.186L332.15 104.339C333.886 103.125 336.198 103.136 337.922 104.368L342.282 107.481C344.005 108.713 346.318 108.724 348.054 107.51L349.264 106.663C350.602 105.728 351.398 104.198 351.398 102.566V99.0977C351.398 97.4804 352.181 95.963 353.498 95.0249L354.728 94.1492C356.469 92.9091 358.806 92.9133 360.543 94.1597L363.03 95.9442C364.767 97.1905 367.104 97.1948 368.845 95.9548L379.009 88.7174C379.856 88.1143 380.869 87.7903 381.909 87.7903H399.513C400.538 87.7903 401.537 87.4758 402.376 86.8894L408.091 82.8977C408.931 82.3113 409.93 81.9968 410.954 81.9968H424.081C425.105 81.9968 426.105 81.6825 426.944 81.0962L430.842 78.3739C431.682 77.7876 432.681 77.4732 433.705 77.4732H455.407C456.453 77.4732 457.473 77.8012 458.322 78.4109L463.225 81.9292C464.534 82.8684 465.31 84.3806 465.31 85.9915V90.1334C465.31 91.4011 465.927 92.5895 466.963 93.3196L468.022 94.0655C469.679 95.233 469.703 97.6817 468.069 98.8813C467.56 99.255 466.945 99.4565 466.313 99.4565H460.384C459.478 99.4565 458.595 99.7405 457.859 100.269C455.437 102.006 455.454 105.613 457.891 107.329L474.048 118.703C474.891 119.296 475.896 119.614 476.926 119.614H486.565C487.541 119.614 488.496 119.329 489.311 118.793L493.209 116.23C494.025 115.694 494.98 115.408 495.956 115.408H500.851C501.884 115.408 502.891 115.728 503.735 116.324L526.416 132.341C528.143 133.561 530.451 133.562 532.18 132.345L585.136 95.0384C586.381 94.1613 588.036 94.1382 589.306 94.9801C590.563 95.8145 592.202 95.7998 593.445 94.9431L594.146 94.4592C594.973 93.889 595.954 93.5837 596.959 93.5837H618.955C619.984 93.5837 620.989 93.2659 621.831 92.6736L629.512 87.2718C630.354 86.6796 631.359 86.3618 632.388 86.3618H637.45C638.473 86.3618 639.472 86.6758 640.311 87.2615L646.492 91.575C648.219 92.7804 650.517 92.7741 652.238 91.5591L697.525 59.5801C698.369 58.9843 699.376 58.6644 700.409 58.6644H705.684C706.719 58.6644 707.728 58.9855 708.572 59.5833L715.59 64.5507C716.915 65.488 717.702 67.0095 717.702 68.6318V69.2178C717.702 70.8591 716.896 72.3958 715.547 73.3296L715.221 73.5546C712.362 75.5332 712.345 79.7545 715.189 81.7556L729.877 92.0901C731.208 93.0265 732 94.552 732 96.1793V99.7207C732 101.346 731.21 102.871 729.881 103.807L719.983 110.784C718.565 111.784 717.767 113.447 717.873 115.178L719.426 140.4C719.533 142.131 718.735 143.794 717.317 144.793L712.678 148.065C711.835 148.659 710.828 148.978 709.796 148.978H704.528C703.537 148.978 702.569 149.273 701.746 149.824L700.488 150.667C699.514 151.319 698.8 152.293 698.471 153.419L693.593 170.116C692.989 172.184 693.778 174.407 695.551 175.632L697.919 177.268C698.565 177.713 699.306 178.001 700.082 178.107L708.101 179.206C708.907 179.316 709.674 179.622 710.335 180.095L717.119 184.956C718.599 186.016 719.386 187.799 719.172 189.607L717.795 201.246C717.689 202.148 718.077 203.038 718.811 203.573C720.204 204.588 720.186 206.672 718.775 207.662L711.456 212.8C710.122 213.736 709.328 215.263 709.328 216.892V217.562C709.328 219.194 710.125 220.723 711.462 221.659L719.675 227.403C721.013 228.339 721.81 229.868 721.81 231.5V232.197C721.81 233.855 720.988 235.405 719.616 236.336L716.987 238.118C716.02 238.774 715.313 239.748 714.989 240.872L712.345 250.042C711.728 252.183 709.769 253.657 707.541 253.657H702.456H687.979C686.914 253.657 685.878 253.317 685.02 252.687L682.233 250.641L679.717 248.784C678.838 248.135 678.195 247.216 677.888 246.167L670.099 219.575C669.925 218.98 669.561 218.458 669.064 218.088C667.499 216.925 667.537 214.57 669.137 213.458L678.67 206.831C681.539 204.836 681.53 200.59 678.653 198.608L676.308 196.992L674.484 195.718C672.236 194.149 672.254 190.815 674.519 189.27C675.589 188.54 676.229 187.329 676.229 186.034V158.282C676.229 156.883 675.528 155.576 674.362 154.803C672.957 153.871 671.13 153.875 669.729 154.813L668.098 155.905C666.712 156.834 665.881 158.392 665.881 160.06V178.353C665.881 179.987 665.082 181.518 663.741 182.454L655.618 188.119C654.277 189.054 653.478 190.586 653.478 192.22V201.534C653.478 203.164 652.684 204.692 651.349 205.628L647.12 208.594C645.917 209.438 644.308 209.416 643.129 208.539C641.951 207.663 640.343 207.64 639.14 208.483L603.867 233.196C602.531 234.132 601.736 235.66 601.736 237.291V238.127C601.736 239.753 600.945 241.278 599.615 242.215L574.005 260.256C571.522 262.005 571.487 265.674 573.936 267.471L575.902 268.913C577.38 269.997 577.362 272.21 575.866 273.27L575.502 273.528C574.161 274.478 574.169 276.472 575.519 277.411C576.323 277.97 577.387 277.978 578.199 277.431L580.262 276.04C581.969 274.89 584.207 274.903 585.901 276.075L603.767 288.434C605.117 289.368 605.923 290.905 605.923 292.546V304.528V319.351C605.923 320.957 606.694 322.465 607.996 323.405L611.986 326.284C613.288 327.224 614.059 328.732 614.059 330.338V339.667C614.059 341.273 613.288 342.782 611.986 343.721L607.996 346.601C606.694 347.541 605.923 349.049 605.923 350.655V377.627C605.923 379.242 605.143 380.756 603.83 381.695L597.28 386.377C596.236 387.124 594.944 387.44 593.673 387.26L586.944 386.309C585.688 386.131 584.411 386.438 583.373 387.166L582.508 387.772C581.416 388.538 580.676 389.708 580.451 391.023L579.407 397.126C579.187 398.409 578.475 399.556 577.423 400.323L573.755 402.997C572.108 404.197 569.884 404.227 568.206 403.072L565.554 401.246C564.067 400.223 564.065 398.028 565.549 397.001C567.016 395.987 567.035 393.827 565.588 392.786L560.37 389.037C559.063 388.097 558.288 386.586 558.288 384.977V375.439C558.288 373.776 559.115 372.222 560.494 371.293L563.262 369.427C564.088 368.87 565.061 368.573 566.057 368.573H571.202C572.256 368.573 573.283 368.24 574.136 367.621L576.999 365.546C578.296 364.606 579.064 363.101 579.064 361.498V344.607C579.064 344.157 578.85 343.734 578.487 343.468C577.708 342.896 577.719 341.728 578.51 341.172L578.935 340.872C579.932 340.171 579.95 338.699 578.97 337.974L577.03 336.538C575.795 335.623 574.11 335.613 572.864 336.512L565.525 341.806C563.794 343.054 561.463 343.066 559.719 341.837L545.951 332.132C544.622 331.195 543.832 329.671 543.832 328.045V327.525C543.832 325.895 543.037 324.367 541.702 323.431L530.747 315.751C529.906 315.161 528.904 314.845 527.877 314.845H522.748C521.715 314.845 520.707 314.525 519.863 313.929L495.026 296.388C493.31 295.176 491.02 295.166 489.294 296.362L483.428 300.428C482.49 301.078 481.803 302.03 481.48 303.125L478.658 312.714C478.047 314.79 478.84 317.023 480.624 318.247L480.822 318.383C482.635 319.629 483.422 321.913 482.759 324.011L476.081 345.162C475.755 346.192 475.105 347.089 474.228 347.718L472.375 349.048C470.651 350.285 468.333 350.299 466.594 349.083L459.902 344.402C458.171 343.192 455.866 343.199 454.143 344.422L437.318 356.36C435.584 357.59 433.262 357.59 431.529 356.358L430.918 355.924C429.147 354.665 426.765 354.695 425.026 355.997L422.788 357.672C421.058 358.967 418.691 359.004 416.921 357.763L395.016 342.403C393.775 341.533 392.123 341.53 390.879 342.395C389.652 343.249 388.026 343.258 386.789 342.419L385.63 341.633C384.115 340.606 384.073 338.388 385.549 337.305C386.229 336.805 386.63 336.012 386.63 335.169V333.368C386.63 331.754 385.851 330.24 384.538 329.301L374.307 321.987L358.566 310.864C356.829 309.636 354.504 309.643 352.773 310.88L349.541 313.19C348.228 314.129 347.449 315.644 347.449 317.258V329.504C347.449 331.113 346.674 332.623 345.368 333.563L342.358 335.728C341.508 336.34 340.486 336.669 339.438 336.669H330.431C329.375 336.669 328.345 336.335 327.491 335.713L325.553 334.304C323.086 332.51 323.125 328.82 325.629 327.078L325.772 326.979C328.216 325.279 328.242 321.674 325.824 319.939C325.092 319.413 324.213 319.13 323.311 319.13H317.895C316.823 319.13 315.781 318.786 314.92 318.149L313.146 316.836C311.412 315.553 309.051 315.526 307.289 316.769L294.518 325.777C292.81 326.982 290.534 326.997 288.81 325.817L282.527 321.513C281.695 320.943 280.71 320.638 279.702 320.638H261.898C260.972 320.638 260.07 320.347 259.32 319.805C256.866 318.036 256.884 314.377 259.355 312.631L263.52 309.689C266.043 307.905 266.046 304.163 263.524 302.376C262.872 301.914 262.108 301.635 261.312 301.568L245.071 300.197C244.191 300.123 243.346 299.816 242.623 299.31L239.854 297.37C238.519 296.435 237.723 294.906 237.723 293.275V281.072C237.723 279.456 238.504 277.94 239.82 277.002L252.657 267.846C255.468 265.841 255.449 261.658 252.619 259.678L245.413 254.639C244.573 254.051 243.572 253.736 242.547 253.736H237.344C236.306 253.736 235.294 253.413 234.448 252.812L225.451 246.422C224.131 245.484 223.346 243.965 223.346 242.345V232.862C223.346 231.223 222.543 229.688 221.196 228.753L208.042 219.629C207.206 219.049 206.211 218.737 205.193 218.737H200.207C199.175 218.737 198.168 218.418 197.324 217.823L177.869 204.094C176.623 203.214 174.958 203.213 173.71 204.09L172.613 204.862C171.089 205.934 171.098 208.195 172.631 209.254C174.164 210.313 174.174 212.574 172.65 213.646L152.31 227.957C151.305 228.664 150.074 228.976 148.854 228.834L137.62 227.524C136.853 227.435 136.122 227.151 135.496 226.699C132.958 224.869 132.999 221.077 135.576 219.301L136.42 218.72C137.775 217.787 138.584 216.247 138.584 214.602V211.236C138.584 209.619 137.801 208.101 136.484 207.163L133.467 205.015C132.731 204.491 131.868 204.176 130.968 204.103L114.822 202.803C114.036 202.74 113.281 202.467 112.636 202.012C110.148 200.26 110.142 196.573 112.624 194.811L116.268 192.225C119.093 190.219 119.072 186.018 116.227 184.041L113.621 182.231L91.6885 166.933C89.9642 165.731 87.6716 165.735 85.9519 166.944L80.6707 170.658C79.3392 171.595 78.5469 173.121 78.5469 174.748V180.723V189.855C78.5469 191.492 77.7452 193.026 76.4007 193.961L65.1983 201.747C64.3737 202.32 63.3956 202.632 62.3914 202.641L57.1491 202.691C56.0658 202.701 55.0086 202.359 54.1364 201.716L52.4532 200.476C50.7223 199.201 48.3699 199.175 46.6113 200.412L23.991 216.32C23.1488 216.912 22.1444 217.23 21.1148 217.23H15.8813C14.8667 217.23 13.8761 216.921 13.0411 216.345L9.83965 214.135C6.98684 212.166 6.95444 207.962 9.77655 205.949L12.2266 204.202C13.5423 203.263 14.3233 201.747 14.3233 200.131V193.653C14.3233 192.016 13.5221 190.483 12.1783 189.548L10.3067 188.247C8.9629 187.312 8.16167 185.779 8.16167 184.142V166.087C8.16167 164.465 7.3752 162.944 6.05192 162.007L4.10975 160.631C2.78647 159.694 2 158.173 2 156.551V146.598C2 143.836 4.23858 141.598 7 141.598H9.34854C9.96332 141.598 10.5622 141.403 11.0591 141.04L12.3277 140.116C13.3084 139.401 13.2989 137.935 12.3089 137.233C11.319 136.531 11.3095 135.065 12.2902 134.35L13.5588 133.425C14.0557 133.063 14.6546 132.868 15.2694 132.868H38.8474C39.0868 132.868 39.326 132.851 39.563 132.816L48.5628 131.515C49.2673 131.413 49.9377 131.146 50.5196 130.736L51.2332 130.234C53.4267 128.688 53.4407 125.441 51.2608 123.877C50.2399 123.144 49.6345 121.964 49.6345 120.708V107.799C49.6345 106.25 50.3853 104.797 51.6488 103.901C52.9124 103.005 53.6632 101.552 53.6632 100.003V84.5973C53.6632 82.9673 54.4577 81.4396 55.7922 80.5037Z" fill="#BBDFFD"/>
<path d="M608.064 273.984L611.932 271.175C613.179 270.27 614.841 270.177 616.181 270.939C617.409 271.637 618.167 272.941 618.167 274.353V275.676C618.167 277.34 618.995 278.895 620.376 279.824L624.525 282.616C625.93 283.561 626.761 285.153 626.733 286.846L626.584 296.006C626.557 297.663 627.352 299.225 628.708 300.178L644.252 311.103C645.743 312.152 645.742 314.362 644.25 315.409C643.548 315.901 643.13 316.704 643.13 317.562V319.351C643.13 320.954 642.349 322.456 641.036 323.376C639.724 324.297 638.943 325.799 638.943 327.401V328.478C638.943 329.782 639.578 331.005 640.644 331.755L641.042 332.035C643.105 333.485 643.118 336.538 641.067 338.006C639.796 338.916 638.088 338.918 636.814 338.012L624.534 329.276C623.216 328.338 622.433 326.82 622.433 325.202V315.75C622.433 314.184 621.684 312.712 620.418 311.789C619.153 310.867 618.404 309.395 618.404 307.829V307.141C618.404 305.504 617.603 303.97 616.259 303.036L614.387 301.734C613.044 300.799 612.242 299.266 612.242 297.629V294.369V288.271C612.242 286.624 611.431 285.082 610.073 284.15L608.171 282.844C606.813 281.911 606.002 280.37 606.002 278.722V278.03C606.002 276.429 606.768 274.925 608.064 273.984Z" fill="#BBDFFD"/>
<path d="M684.437 321.999L691.07 317.405C691.909 316.823 691.9 315.579 691.051 315.01C690.812 314.851 690.532 314.765 690.245 314.765H683.745C682.863 314.765 682.003 315.035 681.279 315.539L680.385 316.161C678.363 317.567 678.35 320.554 680.36 321.977C681.579 322.841 683.208 322.85 684.437 321.999Z" fill="#BBDFFD"/>
<path d="M694.815 305.996L697.479 304.143C698.216 303.63 698.233 302.545 697.512 302.009C697.285 301.841 697.01 301.75 696.728 301.75H688.97C688.698 301.75 688.432 301.832 688.207 301.986C687.423 302.522 687.421 303.679 688.205 304.217L690.813 306.008C692.02 306.837 693.613 306.832 694.815 305.996Z" fill="#BBDFFD"/>
<path d="M698.952 291.565L707.598 285.59C708.422 285.021 708.465 283.819 707.685 283.192C707.419 282.978 707.088 282.862 706.747 282.862H700.517C699.515 282.862 698.537 283.163 697.708 283.726L694.891 285.639C692.84 287.033 692.785 290.038 694.784 291.506C696.019 292.412 697.692 292.436 698.952 291.565Z" fill="#BBDFFD"/>
<path d="M708.555 275.948L716.33 270.594C718.011 269.436 717.995 266.948 716.299 265.812C715.823 265.493 715.263 265.323 714.69 265.323H708.858C707.827 265.323 706.822 265.641 705.98 266.234L698.219 271.697C696.603 272.835 696.625 275.238 698.263 276.346C698.73 276.662 699.281 276.83 699.845 276.83H705.719C706.732 276.83 707.721 276.523 708.555 275.948Z" fill="#BBDFFD"/>
<path d="M537.625 105.275L543.834 100.865C545.84 99.4398 545.838 96.46 543.83 95.0373C542.599 94.1654 540.953 94.1605 539.717 95.025L533.477 99.3899C531.438 100.816 531.426 103.83 533.452 105.272C534.701 106.162 536.375 106.163 537.625 105.275Z" fill="#BBDFFD"/>
<path d="M558.328 84.8733L554.198 81.937C552.207 80.5218 552.188 77.5726 554.16 76.1318C555.4 75.2261 557.079 75.2121 558.334 76.0973L562.474 79.0186C564.487 80.4386 564.502 83.4181 562.505 84.859C561.259 85.7575 559.579 85.7633 558.328 84.8733Z" fill="#BBDFFD"/>
<path d="M545.253 78.5409L538.957 74.1622C538.12 73.5794 537.123 73.267 536.103 73.267H530.865C529.844 73.267 528.848 73.5794 528.01 74.1622L525.28 76.0607C523.936 76.9953 523.135 78.5286 523.135 80.1655V86.5497C523.135 88.2177 523.967 89.7759 525.353 90.704L526.138 91.2301C526.961 91.7815 527.93 92.0758 528.921 92.0758H534.221C535.079 92.0758 535.916 91.8173 536.625 91.3341L538.691 89.9245C540.232 88.8737 540.202 86.5925 538.635 85.5819L538.378 85.4158C536.992 84.522 536.907 82.526 538.212 81.5176C539.059 80.8625 540.239 80.8517 541.099 81.4913L542.422 82.4758C543.301 83.1298 544.509 83.1131 545.369 82.4351C546.648 81.4274 546.59 79.4706 545.253 78.5409Z" fill="#BBDFFD"/>
<path d="M435.46 63.5622L445.848 56.3061C447.573 55.1016 449.867 55.1053 451.588 56.3153L453.509 57.6669C454.497 58.3613 455.2 59.3895 455.488 60.5616L456.064 62.8995C456.544 64.8501 455.797 66.8975 454.174 68.0807C453.301 68.7166 452.245 69.0497 451.165 69.0292L437.041 68.7602C436.467 68.7492 435.911 68.566 435.443 68.2342C433.83 67.0907 433.839 64.6942 435.46 63.5622Z" fill="#BBDFFD"/>
<path d="M18.0732 83.4751L8.81448 76.6082C8.38211 76.2876 8.00436 75.8992 7.69582 75.4581L4.03495 70.2242C2.81631 68.4819 2.83278 66.1595 4.07601 64.4347L7.40179 59.8207C9.00437 57.5974 12.0981 57.0785 14.3383 58.6574L19.5765 62.3491C20.1845 62.7776 20.6892 63.3364 21.0539 63.9848L24.6633 70.4014C24.8867 70.7986 25.1634 71.1634 25.4856 71.4856L28.2951 74.2951C29.6055 75.6055 29.2069 77.821 27.5219 78.5926C26.8686 78.8917 26.3642 79.4425 26.1236 80.1195L25.763 81.1338C24.6376 84.2998 20.7721 85.4768 18.0732 83.4751Z" fill="#BBDFFD"/>
<path d="M55.7922 80.5037L60.0297 77.5317C61.2279 76.6914 62.8297 76.7136 64.0042 77.5867C65.1859 78.4652 66.7992 78.4817 67.9987 77.6275L77.1659 71.0991C78.0128 70.496 79.0266 70.1719 80.0663 70.1719H85.2485C86.2848 70.1719 87.2955 69.8499 88.1408 69.2505L88.7626 68.8096C90.0846 67.872 90.8703 66.3518 90.8703 64.731V43.8353C90.8703 42.2328 91.6383 40.7274 92.9358 39.7869L95.798 37.7122C96.6514 37.0936 97.6785 36.7605 98.7325 36.7605H116.309C117.336 36.7605 118.338 36.4443 119.179 35.8547L129.397 28.6913C131.118 27.4847 133.411 27.4835 135.133 28.6883L143.455 34.5086C144.295 35.0962 145.295 35.4114 146.32 35.4114H163.846C164.884 35.4114 165.897 35.0881 166.743 34.4864L173.659 29.5697C174.664 28.8549 174.666 27.3626 173.662 26.6452C172.656 25.926 172.661 24.4286 173.673 23.7163L176.735 21.5589C177.359 21.1191 178.086 20.8472 178.845 20.7692L191.078 19.5139C191.932 19.4263 192.748 19.1206 193.449 18.6262L215.731 2.9138C216.574 2.31919 217.58 2 218.612 2H227.926C228.955 2 229.96 2.31783 230.802 2.91009L231.334 3.28412C232.665 4.22046 233.458 5.74631 233.458 7.37404V37.2825C233.458 38.8973 232.678 40.4127 231.364 41.3512L224.65 46.1464C223.802 46.752 222.786 47.0776 221.744 47.0776H216.564C215.529 47.0776 214.519 46.7561 213.674 46.1576L205.756 40.5485C204.233 39.4696 204.223 37.2125 205.737 36.1206L206.102 35.8572C207.433 34.8976 207.429 32.9153 206.094 31.9613C205.262 31.3664 204.144 31.3649 203.31 31.9578L196.536 36.7734C195.217 37.7113 194.434 39.2298 194.434 40.8485V41.5657C194.434 43.2259 193.61 44.7777 192.234 45.7077L188.417 48.2888C187.042 49.2187 186.218 50.7706 186.218 52.4307V53.2276C186.218 54.8461 187.002 56.3645 188.321 57.3024L197.082 63.5327C197.929 64.1345 198.941 64.4579 199.98 64.4579H204.989C205.987 64.4579 206.962 64.1591 207.789 63.6001L213.704 59.6015C214.531 59.0425 215.506 58.7438 216.504 58.7438H225.777C226.816 58.7438 227.83 58.4197 228.677 57.8166L230.733 56.3521C232.461 55.1221 234.776 55.1153 236.51 56.335L237.812 57.2503C239.143 58.1866 239.935 59.7124 239.935 61.3402V62.4C239.935 63.6886 239.302 64.895 238.242 65.6274C235.997 67.1779 235.982 70.4898 238.212 72.0612L238.597 72.3324C239.314 72.8373 240.169 73.1083 241.045 73.1083H250.615C251.531 73.1083 252.425 73.3882 253.177 73.9105L254.296 74.6878C256.304 76.0827 256.321 79.0471 254.329 80.4653C252.35 81.8745 252.352 84.8149 254.333 86.2217L265.79 94.3582C267.487 95.5634 269.754 95.5911 271.48 94.4278L273.585 93.009C274.41 92.4525 275.383 92.1552 276.379 92.1552H281.585C282.601 92.1552 283.594 91.8453 284.43 91.267L288.86 88.2015C290.464 87.0923 292.583 87.081 294.198 88.173C295.121 88.7972 295.794 89.7273 296.098 90.7992L299.572 103.047C299.728 103.597 300.08 104.071 300.562 104.379C302.118 105.374 304.159 104.256 304.159 102.409V99.8087C304.159 98.5918 304.747 97.4501 305.739 96.7443L320.971 85.8992C321.789 85.3169 322.881 85.2967 323.719 85.8483C325.144 86.7853 325.188 88.8593 323.805 89.856L316.19 95.341C314.885 96.2807 314.112 97.7903 314.112 99.3981V100.662C314.112 101.55 314.538 102.384 315.257 102.906C316.791 104.019 316.78 106.308 315.237 107.408L307.996 112.564C306.679 113.502 305.897 115.019 305.897 116.637V123.064C305.897 124.639 305.154 126.122 303.893 127.066L303.2 127.585C302.335 128.232 301.284 128.582 300.204 128.582H295.136C294.118 128.582 293.125 128.893 292.289 129.472L289.125 131.663C286.242 133.66 286.257 137.927 289.153 139.904L290.245 140.648C291.075 141.215 292.057 141.518 293.063 141.518H298.315C299.342 141.518 300.344 141.202 301.185 140.612L312.978 132.345C313.819 131.756 314.821 131.439 315.848 131.439H321.153C322.224 131.439 323.267 131.095 324.127 130.458L326.78 128.494C328.054 127.551 328.806 126.06 328.806 124.475V118.345V109.283C328.806 107.651 329.602 106.121 330.94 105.186L332.15 104.339C333.886 103.125 336.198 103.136 337.922 104.368L342.282 107.481C344.005 108.713 346.318 108.724 348.054 107.51L349.264 106.663C350.602 105.728 351.398 104.198 351.398 102.566V99.0977C351.398 97.4804 352.181 95.963 353.498 95.0249L354.728 94.1492C356.469 92.9091 358.806 92.9133 360.543 94.1597L363.03 95.9442C364.767 97.1905 367.104 97.1948 368.845 95.9548L379.009 88.7174C379.856 88.1143 380.869 87.7903 381.909 87.7903H399.513C400.538 87.7903 401.537 87.4758 402.376 86.8894L408.091 82.8977C408.931 82.3113 409.93 81.9968 410.954 81.9968H424.081C425.105 81.9968 426.105 81.6825 426.944 81.0962L430.842 78.3739C431.682 77.7876 432.681 77.4732 433.705 77.4732H455.407C456.453 77.4732 457.473 77.8012 458.322 78.4109L463.225 81.9292C464.534 82.8684 465.31 84.3806 465.31 85.9915V90.1334C465.31 91.4011 465.927 92.5895 466.963 93.3196L468.022 94.0655C469.679 95.233 469.703 97.6817 468.069 98.8813C467.56 99.255 466.945 99.4565 466.313 99.4565H460.384C459.478 99.4565 458.595 99.7405 457.859 100.269C455.437 102.006 455.454 105.613 457.891 107.329L474.048 118.703C474.891 119.296 475.896 119.614 476.926 119.614H486.565C487.541 119.614 488.496 119.329 489.311 118.793L493.209 116.23C494.025 115.694 494.98 115.408 495.956 115.408H500.851C501.884 115.408 502.891 115.728 503.735 116.324L526.416 132.341C528.143 133.561 530.451 133.562 532.18 132.345L585.136 95.0384C586.381 94.1613 588.036 94.1382 589.306 94.9801C590.563 95.8145 592.202 95.7998 593.445 94.9431L594.146 94.4592C594.973 93.889 595.954 93.5837 596.959 93.5837H618.955C619.984 93.5837 620.989 93.2659 621.831 92.6736L629.512 87.2718C630.354 86.6796 631.359 86.3618 632.388 86.3618H637.45C638.473 86.3618 639.472 86.6758 640.311 87.2615L646.492 91.575C648.219 92.7804 650.517 92.7741 652.238 91.5591L697.525 59.5801C698.369 58.9843 699.376 58.6644 700.409 58.6644H705.684C706.719 58.6644 707.728 58.9855 708.572 59.5833L715.59 64.5507C716.915 65.488 717.702 67.0095 717.702 68.6318V69.2178C717.702 70.8591 716.896 72.3958 715.547 73.3296L715.221 73.5546C712.362 75.5332 712.345 79.7545 715.189 81.7556L729.877 92.0901C731.208 93.0265 732 94.552 732 96.1793V99.7207C732 101.346 731.21 102.871 729.881 103.807L719.983 110.784C718.565 111.784 717.767 113.447 717.873 115.178L719.426 140.4C719.533 142.131 718.735 143.794 717.317 144.793L712.678 148.065C711.835 148.659 710.828 148.978 709.796 148.978H704.528C703.537 148.978 702.569 149.273 701.746 149.824L700.488 150.667C699.514 151.319 698.8 152.293 698.471 153.419L693.593 170.116C692.989 172.184 693.778 174.407 695.551 175.632L697.919 177.268C698.565 177.713 699.306 178.001 700.082 178.107L708.101 179.206C708.907 179.316 709.674 179.622 710.335 180.095L717.119 184.956C718.599 186.016 719.386 187.799 719.172 189.607L717.795 201.246C717.689 202.148 718.077 203.038 718.811 203.573C720.204 204.588 720.186 206.672 718.775 207.662L711.456 212.8C710.122 213.736 709.328 215.263 709.328 216.892V217.562C709.328 219.194 710.125 220.723 711.462 221.659L719.675 227.403C721.013 228.339 721.81 229.868 721.81 231.5V232.197C721.81 233.855 720.988 235.405 719.616 236.336L716.987 238.118C716.02 238.774 715.313 239.748 714.989 240.872L712.345 250.042C711.728 252.183 709.769 253.657 707.541 253.657H702.456H687.979C686.914 253.657 685.878 253.317 685.02 252.687L682.233 250.641L679.717 248.784C678.838 248.135 678.195 247.216 677.888 246.167L670.099 219.575C669.925 218.98 669.561 218.458 669.064 218.088C667.499 216.925 667.537 214.57 669.137 213.458L678.67 206.831C681.539 204.836 681.53 200.59 678.653 198.608L676.308 196.992L674.484 195.718C672.236 194.149 672.254 190.815 674.519 189.27C675.589 188.54 676.229 187.329 676.229 186.034V158.282C676.229 156.883 675.528 155.576 674.362 154.803C672.957 153.871 671.13 153.875 669.729 154.813L668.098 155.905C666.712 156.834 665.881 158.392 665.881 160.06V178.353C665.881 179.987 665.082 181.518 663.741 182.454L655.618 188.119C654.277 189.054 653.478 190.586 653.478 192.22V201.534C653.478 203.164 652.684 204.692 651.349 205.628L647.12 208.594C645.917 209.438 644.308 209.416 643.129 208.539C641.951 207.663 640.343 207.64 639.14 208.483L603.867 233.196C602.531 234.132 601.736 235.66 601.736 237.291V238.127C601.736 239.753 600.945 241.278 599.615 242.215L574.005 260.256C571.522 262.005 571.487 265.674 573.936 267.471L575.902 268.913C577.38 269.997 577.362 272.21 575.866 273.27L575.502 273.528C574.161 274.478 574.169 276.472 575.519 277.411C576.323 277.97 577.387 277.978 578.199 277.431L580.262 276.04C581.969 274.89 584.207 274.903 585.901 276.075L603.767 288.434C605.117 289.368 605.923 290.905 605.923 292.546V304.528V319.351C605.923 320.957 606.694 322.465 607.996 323.405L611.986 326.284C613.288 327.224 614.059 328.732 614.059 330.338V339.667C614.059 341.273 613.288 342.782 611.986 343.721L607.996 346.601C606.694 347.541 605.923 349.049 605.923 350.655V377.627C605.923 379.242 605.143 380.756 603.83 381.695L597.28 386.377C596.236 387.124 594.944 387.44 593.673 387.26L586.944 386.309C585.688 386.131 584.411 386.438 583.373 387.166L582.508 387.772C581.416 388.538 580.676 389.708 580.451 391.023L579.407 397.126C579.187 398.409 578.475 399.556 577.423 400.323L573.755 402.997C572.108 404.197 569.884 404.227 568.206 403.072L565.554 401.246C564.067 400.223 564.065 398.028 565.549 397.001C567.016 395.987 567.035 393.827 565.588 392.786L560.37 389.037C559.063 388.097 558.288 386.586 558.288 384.977V375.439C558.288 373.776 559.115 372.222 560.494 371.293L563.262 369.427C564.088 368.87 565.061 368.573 566.057 368.573H571.202C572.256 368.573 573.283 368.24 574.136 367.621L576.999 365.546C578.296 364.606 579.064 363.101 579.064 361.498V344.607C579.064 344.157 578.85 343.734 578.487 343.468C577.708 342.896 577.719 341.728 578.51 341.172L578.935 340.872C579.932 340.171 579.95 338.699 578.97 337.974L577.03 336.538C575.795 335.623 574.11 335.613 572.864 336.512L565.525 341.806C563.794 343.054 561.463 343.066 559.719 341.837L545.951 332.132C544.622 331.195 543.832 329.671 543.832 328.045V327.525C543.832 325.895 543.037 324.367 541.702 323.431L530.747 315.751C529.906 315.161 528.904 314.845 527.877 314.845H522.748C521.715 314.845 520.707 314.525 519.863 313.929L495.026 296.388C493.31 295.176 491.02 295.166 489.294 296.362L483.428 300.428C482.49 301.078 481.803 302.03 481.48 303.125L478.658 312.714C478.047 314.79 478.84 317.023 480.624 318.247L480.822 318.383C482.635 319.629 483.422 321.913 482.759 324.011L476.081 345.162C475.755 346.192 475.105 347.089 474.228 347.718L472.375 349.048C470.651 350.285 468.333 350.299 466.594 349.083L459.902 344.402C458.171 343.192 455.866 343.199 454.143 344.422L437.318 356.36C435.584 357.59 433.262 357.59 431.529 356.358L430.918 355.924C429.147 354.665 426.765 354.695 425.026 355.997L422.788 357.672C421.058 358.967 418.691 359.004 416.921 357.763L395.016 342.403C393.775 341.533 392.123 341.53 390.879 342.395C389.652 343.249 388.026 343.258 386.789 342.419L385.63 341.633C384.115 340.606 384.073 338.388 385.549 337.305C386.229 336.805 386.63 336.012 386.63 335.169V333.368C386.63 331.754 385.851 330.24 384.538 329.301L374.307 321.987L358.566 310.864C356.829 309.636 354.504 309.643 352.773 310.88L349.541 313.19C348.228 314.129 347.449 315.644 347.449 317.258V329.504C347.449 331.113 346.674 332.623 345.368 333.563L342.358 335.728C341.508 336.34 340.486 336.669 339.438 336.669H330.431C329.375 336.669 328.345 336.335 327.491 335.713L325.553 334.304C323.086 332.51 323.125 328.82 325.629 327.078L325.772 326.979C328.216 325.279 328.242 321.674 325.824 319.939C325.092 319.413 324.213 319.13 323.311 319.13H317.895C316.823 319.13 315.781 318.786 314.92 318.149L313.146 316.836C311.412 315.553 309.051 315.526 307.289 316.769L294.518 325.777C292.81 326.982 290.534 326.997 288.81 325.817L282.527 321.513C281.695 320.943 280.71 320.638 279.702 320.638H261.898C260.972 320.638 260.07 320.347 259.32 319.805C256.866 318.036 256.884 314.377 259.355 312.631L263.52 309.689C266.043 307.905 266.046 304.163 263.524 302.376C262.872 301.914 262.108 301.635 261.312 301.568L245.071 300.197C244.191 300.123 243.346 299.816 242.623 299.31L239.854 297.37C238.519 296.435 237.723 294.906 237.723 293.275V281.072C237.723 279.456 238.504 277.94 239.82 277.002L252.657 267.846C255.468 265.841 255.449 261.658 252.619 259.678L245.413 254.639C244.573 254.051 243.572 253.736 242.547 253.736H237.344C236.306 253.736 235.294 253.413 234.448 252.812L225.451 246.422C224.131 245.484 223.346 243.965 223.346 242.345V232.862C223.346 231.223 222.543 229.688 221.196 228.753L208.042 219.629C207.206 219.049 206.211 218.737 205.193 218.737H200.207C199.175 218.737 198.168 218.418 197.324 217.823L177.869 204.094C176.623 203.214 174.958 203.213 173.71 204.09L172.613 204.862C171.089 205.934 171.098 208.195 172.631 209.254C174.164 210.313 174.174 212.574 172.65 213.646L152.31 227.957C151.305 228.664 150.074 228.976 148.854 228.834L137.62 227.524C136.853 227.435 136.122 227.151 135.496 226.699C132.958 224.869 132.999 221.077 135.576 219.301L136.42 218.72C137.775 217.787 138.584 216.247 138.584 214.602V211.236C138.584 209.619 137.801 208.101 136.484 207.163L133.467 205.015C132.731 204.491 131.868 204.176 130.968 204.103L114.822 202.803C114.036 202.74 113.281 202.467 112.636 202.012C110.148 200.26 110.142 196.573 112.624 194.811L116.268 192.225C119.093 190.219 119.072 186.018 116.227 184.041L113.621 182.231L91.6885 166.933C89.9642 165.731 87.6716 165.735 85.9519 166.944L80.6707 170.658C79.3392 171.595 78.5469 173.121 78.5469 174.748V180.723V189.855C78.5469 191.492 77.7452 193.026 76.4007 193.961L65.1983 201.747C64.3737 202.32 63.3956 202.632 62.3914 202.641L57.1491 202.691C56.0658 202.701 55.0086 202.359 54.1364 201.716L52.4532 200.476C50.7223 199.201 48.3699 199.175 46.6113 200.412L23.991 216.32C23.1488 216.912 22.1444 217.23 21.1148 217.23H15.8813C14.8667 217.23 13.8761 216.921 13.0411 216.345L9.83965 214.135C6.98684 212.166 6.95444 207.962 9.77655 205.949L12.2266 204.202C13.5423 203.263 14.3233 201.747 14.3233 200.131V193.653C14.3233 192.016 13.5221 190.483 12.1783 189.548L10.3067 188.247C8.9629 187.312 8.16167 185.779 8.16167 184.142V166.087C8.16167 164.465 7.3752 162.944 6.05192 162.007L4.10975 160.631C2.78647 159.694 2 158.173 2 156.551V146.598C2 143.836 4.23858 141.598 7 141.598H9.34854C9.96332 141.598 10.5622 141.403 11.0591 141.04L12.3277 140.116C13.3084 139.401 13.2989 137.935 12.3089 137.233C11.319 136.531 11.3095 135.065 12.2902 134.35L13.5588 133.425C14.0557 133.063 14.6546 132.868 15.2694 132.868H38.8474C39.0868 132.868 39.326 132.851 39.563 132.816L48.5628 131.515C49.2673 131.413 49.9377 131.146 50.5196 130.736L51.2332 130.234C53.4267 128.688 53.4407 125.441 51.2608 123.877C50.2399 123.144 49.6345 121.964 49.6345 120.708V107.799C49.6345 106.25 50.3853 104.797 51.6488 103.901C52.9124 103.005 53.6632 101.552 53.6632 100.003V84.5973C53.6632 82.9673 54.4577 81.4396 55.7922 80.5037Z" stroke="#7BBEFD" stroke-width="3"/>
<path d="M608.064 273.984L611.932 271.175C613.179 270.27 614.841 270.177 616.181 270.939C617.409 271.637 618.167 272.941 618.167 274.353V275.676C618.167 277.34 618.995 278.895 620.376 279.824L624.525 282.616C625.93 283.561 626.761 285.153 626.733 286.846L626.584 296.006C626.557 297.663 627.352 299.225 628.708 300.178L644.252 311.103C645.743 312.152 645.742 314.362 644.25 315.409C643.548 315.901 643.13 316.704 643.13 317.562V319.351C643.13 320.954 642.349 322.456 641.036 323.376C639.724 324.297 638.943 325.799 638.943 327.401V328.478C638.943 329.782 639.578 331.005 640.644 331.755L641.042 332.035C643.105 333.485 643.118 336.538 641.067 338.006C639.796 338.916 638.088 338.918 636.814 338.012L624.534 329.276C623.216 328.338 622.433 326.82 622.433 325.202V315.75C622.433 314.184 621.684 312.712 620.418 311.789C619.153 310.867 618.404 309.395 618.404 307.829V307.141C618.404 305.504 617.603 303.97 616.259 303.036L614.387 301.734C613.044 300.799 612.242 299.266 612.242 297.629V294.369V288.271C612.242 286.624 611.431 285.082 610.073 284.15L608.171 282.844C606.813 281.911 606.002 280.37 606.002 278.722V278.03C606.002 276.429 606.768 274.925 608.064 273.984Z" stroke="#7BBEFD" stroke-width="3"/>
<path d="M684.437 321.999L691.07 317.405C691.909 316.823 691.9 315.579 691.051 315.01C690.812 314.851 690.532 314.765 690.245 314.765H683.745C682.863 314.765 682.003 315.035 681.279 315.539L680.385 316.161C678.363 317.567 678.35 320.554 680.36 321.977C681.579 322.841 683.208 322.85 684.437 321.999Z" stroke="#7BBEFD" stroke-width="3"/>
<path d="M694.815 305.996L697.479 304.143C698.216 303.63 698.233 302.545 697.512 302.009C697.285 301.841 697.01 301.75 696.728 301.75H688.97C688.698 301.75 688.432 301.832 688.207 301.986C687.423 302.522 687.421 303.679 688.205 304.217L690.813 306.008C692.02 306.837 693.613 306.832 694.815 305.996Z" stroke="#7BBEFD" stroke-width="3"/>
<path d="M698.952 291.565L707.598 285.59C708.422 285.021 708.465 283.819 707.685 283.192C707.419 282.978 707.088 282.862 706.747 282.862H700.517C699.515 282.862 698.537 283.163 697.708 283.726L694.891 285.639C692.84 287.033 692.785 290.038 694.784 291.506C696.019 292.412 697.692 292.436 698.952 291.565Z" stroke="#7BBEFD" stroke-width="3"/>
<path d="M708.555 275.948L716.33 270.594C718.011 269.436 717.995 266.948 716.299 265.812C715.823 265.493 715.263 265.323 714.69 265.323H708.858C707.827 265.323 706.822 265.641 705.98 266.234L698.219 271.697C696.603 272.835 696.625 275.238 698.263 276.346C698.73 276.662 699.281 276.83 699.845 276.83H705.719C706.732 276.83 707.721 276.523 708.555 275.948Z" stroke="#7BBEFD" stroke-width="3"/>
<path d="M537.625 105.275L543.834 100.865C545.84 99.4398 545.838 96.46 543.83 95.0373C542.599 94.1654 540.953 94.1605 539.717 95.025L533.477 99.3899C531.438 100.816 531.426 103.83 533.452 105.272C534.701 106.162 536.375 106.163 537.625 105.275Z" stroke="#7BBEFD" stroke-width="3"/>
<path d="M558.328 84.8733L554.198 81.937C552.207 80.5218 552.188 77.5726 554.16 76.1318C555.4 75.2261 557.079 75.2121 558.334 76.0973L562.474 79.0186C564.487 80.4386 564.502 83.4181 562.505 84.859C561.259 85.7575 559.579 85.7633 558.328 84.8733Z" stroke="#7BBEFD" stroke-width="3"/>
<path d="M545.253 78.5409L538.957 74.1622C538.12 73.5794 537.123 73.267 536.103 73.267H530.865C529.844 73.267 528.848 73.5794 528.01 74.1622L525.28 76.0607C523.936 76.9953 523.135 78.5286 523.135 80.1655V86.5497C523.135 88.2177 523.967 89.7759 525.353 90.704L526.138 91.2301C526.961 91.7815 527.93 92.0758 528.921 92.0758H534.221C535.079 92.0758 535.916 91.8173 536.625 91.3341L538.691 89.9245C540.232 88.8737 540.202 86.5925 538.635 85.5819L538.378 85.4158C536.992 84.522 536.907 82.526 538.212 81.5176C539.059 80.8625 540.239 80.8517 541.099 81.4913L542.422 82.4758C543.301 83.1298 544.509 83.1131 545.369 82.4351C546.648 81.4274 546.59 79.4706 545.253 78.5409Z" stroke="#7BBEFD" stroke-width="3"/>
<path d="M435.46 63.5622L445.848 56.3061C447.573 55.1016 449.867 55.1053 451.588 56.3153L453.509 57.6669C454.497 58.3613 455.2 59.3895 455.488 60.5616L456.064 62.8995C456.544 64.8501 455.797 66.8975 454.174 68.0807C453.301 68.7166 452.245 69.0497 451.165 69.0292L437.041 68.7602C436.467 68.7492 435.911 68.566 435.443 68.2342C433.83 67.0907 433.839 64.6942 435.46 63.5622Z" stroke="#7BBEFD" stroke-width="3"/>
<path d="M18.0732 83.4751L8.81448 76.6082C8.38211 76.2876 8.00436 75.8992 7.69582 75.4581L4.03495 70.2242C2.81631 68.4819 2.83278 66.1595 4.07601 64.4347L7.40179 59.8207C9.00437 57.5974 12.0981 57.0785 14.3383 58.6574L19.5765 62.3491C20.1845 62.7776 20.6892 63.3364 21.0539 63.9848L24.6633 70.4014C24.8867 70.7986 25.1634 71.1634 25.4856 71.4856L28.2951 74.2951C29.6055 75.6055 29.2069 77.821 27.5219 78.5926C26.8686 78.8917 26.3642 79.4425 26.1236 80.1195L25.763 81.1338C24.6376 84.2998 20.7721 85.4768 18.0732 83.4751Z" stroke="#7BBEFD" stroke-width="3"/>
</svg>
