<svg width="734" height="494" viewBox="0 0 734 494" fill="none" xmlns="http://www.w3.org/2000/svg">
<path d="M55.7922 168.504L60.0297 165.532C61.2279 164.691 62.8297 164.714 64.0042 165.587C65.1859 166.465 66.7992 166.482 67.9987 165.628L77.1659 159.099C78.0128 158.496 79.0266 158.172 80.0663 158.172H85.2485C86.2848 158.172 87.2955 157.85 88.1408 157.25L88.7626 156.81C90.0846 155.872 90.8703 154.352 90.8703 152.731V131.835C90.8703 130.233 91.6383 128.727 92.9358 127.787L95.798 125.712C96.6514 125.094 97.6785 124.761 98.7325 124.761H116.309C117.336 124.761 118.338 124.444 119.179 123.855L129.397 116.691C131.118 115.485 133.411 115.483 135.133 116.688L143.455 122.509C144.295 123.096 145.295 123.411 146.32 123.411H163.846C164.884 123.411 165.897 123.088 166.743 122.486L173.659 117.57C174.664 116.855 174.666 115.363 173.662 114.645C172.656 113.926 172.661 112.429 173.673 111.716L176.735 109.559C177.359 109.119 178.086 108.847 178.845 108.769L191.078 107.514C191.932 107.426 192.748 107.121 193.449 106.626L215.731 90.9138C216.574 90.3192 217.58 90 218.612 90H227.926C228.955 90 229.96 90.3178 230.802 90.9101L231.334 91.2841C232.665 92.2205 233.458 93.7463 233.458 95.374V125.282C233.458 126.897 232.678 128.413 231.364 129.351L224.65 134.146C223.802 134.752 222.786 135.078 221.744 135.078H216.564C215.529 135.078 214.519 134.756 213.674 134.158L205.756 128.549C204.233 127.47 204.223 125.213 205.737 124.121L206.102 123.857C207.433 122.898 207.429 120.915 206.094 119.961C205.262 119.366 204.144 119.365 203.31 119.958L196.536 124.773C195.217 125.711 194.434 127.23 194.434 128.848V129.566C194.434 131.226 193.61 132.778 192.234 133.708L188.417 136.289C187.042 137.219 186.218 138.771 186.218 140.431V141.228C186.218 142.846 187.002 144.364 188.321 145.302L197.082 151.533C197.929 152.135 198.941 152.458 199.98 152.458H204.989C205.987 152.458 206.962 152.159 207.789 151.6L213.704 147.602C214.531 147.043 215.506 146.744 216.504 146.744H225.777C226.816 146.744 227.83 146.42 228.677 145.817L230.733 144.352C232.461 143.122 234.776 143.115 236.51 144.335L237.812 145.25C239.143 146.187 239.935 147.712 239.935 149.34V150.4C239.935 151.689 239.302 152.895 238.242 153.627C235.997 155.178 235.982 158.49 238.212 160.061L238.597 160.332C239.314 160.837 240.169 161.108 241.045 161.108H250.615C251.531 161.108 252.425 161.388 253.177 161.911L254.296 162.688C256.304 164.083 256.321 167.047 254.329 168.465C252.35 169.875 252.352 172.815 254.333 174.222L265.79 182.358C267.487 183.563 269.754 183.591 271.48 182.428L273.585 181.009C274.41 180.452 275.383 180.155 276.379 180.155H281.585C282.601 180.155 283.594 179.845 284.43 179.267L288.86 176.202C290.464 175.092 292.583 175.081 294.198 176.173C295.121 176.797 295.794 177.727 296.098 178.799L299.572 191.047C299.728 191.597 300.08 192.071 300.562 192.379C302.118 193.374 304.159 192.256 304.159 190.409V187.809C304.159 186.592 304.747 185.45 305.739 184.744L320.971 173.899C321.789 173.317 322.881 173.297 323.719 173.848C325.144 174.785 325.188 176.859 323.805 177.856L316.19 183.341C314.885 184.281 314.112 185.79 314.112 187.398V188.662C314.112 189.55 314.538 190.384 315.257 190.906C316.791 192.019 316.78 194.308 315.237 195.408L307.996 200.564C306.679 201.502 305.897 203.019 305.897 204.637V211.064C305.897 212.639 305.154 214.122 303.893 215.066L303.2 215.585C302.335 216.232 301.284 216.582 300.204 216.582H295.136C294.118 216.582 293.125 216.893 292.289 217.472L289.125 219.663C286.242 221.66 286.257 225.927 289.153 227.904L290.245 228.648C291.075 229.215 292.057 229.518 293.063 229.518H298.315C299.342 229.518 300.344 229.202 301.185 228.612L312.978 220.345C313.819 219.756 314.821 219.439 315.848 219.439H321.153C322.224 219.439 323.267 219.095 324.127 218.458L326.78 216.494C328.054 215.551 328.806 214.06 328.806 212.475V206.345V197.283C328.806 195.651 329.602 194.121 330.94 193.186L332.15 192.339C333.886 191.125 336.198 191.136 337.922 192.368L342.282 195.481C344.005 196.713 346.318 196.724 348.054 195.51L349.264 194.663C350.602 193.728 351.398 192.198 351.398 190.566V187.098C351.398 185.48 352.181 183.963 353.498 183.025L354.728 182.149C356.469 180.909 358.806 180.913 360.543 182.16L363.03 183.944C364.767 185.191 367.104 185.195 368.845 183.955L379.009 176.717C379.856 176.114 380.869 175.79 381.909 175.79H399.513C400.538 175.79 401.537 175.476 402.376 174.889L408.091 170.898C408.931 170.311 409.93 169.997 410.954 169.997H424.081C425.105 169.997 426.105 169.682 426.944 169.096L430.842 166.374C431.682 165.788 432.681 165.473 433.705 165.473H455.407C456.453 165.473 457.473 165.801 458.322 166.411L463.225 169.929C464.534 170.868 465.31 172.381 465.31 173.992V178.133C465.31 179.401 465.927 180.59 466.963 181.32L468.022 182.065C469.679 183.233 469.703 185.682 468.069 186.881C467.56 187.255 466.945 187.456 466.313 187.456H460.384C459.478 187.456 458.595 187.741 457.859 188.269C455.437 190.006 455.454 193.613 457.891 195.329L474.048 206.703C474.891 207.296 475.896 207.614 476.926 207.614H486.565C487.541 207.614 488.496 207.329 489.311 206.793L493.209 204.23C494.025 203.694 494.98 203.408 495.956 203.408H500.851C501.884 203.408 502.891 203.728 503.735 204.324L526.416 220.341C528.143 221.561 530.451 221.562 532.18 220.345L585.136 183.038C586.381 182.161 588.036 182.138 589.306 182.98C590.563 183.814 592.202 183.8 593.445 182.943L594.146 182.459C594.973 181.889 595.954 181.584 596.959 181.584H618.955C619.984 181.584 620.989 181.266 621.831 180.674L629.512 175.272C630.354 174.68 631.359 174.362 632.388 174.362H637.45C638.473 174.362 639.472 174.676 640.311 175.262L646.492 179.575C648.219 180.78 650.517 180.774 652.238 179.559L697.525 147.58C698.369 146.984 699.376 146.664 700.409 146.664H705.684C706.719 146.664 707.728 146.985 708.572 147.583L715.59 152.551C716.915 153.488 717.702 155.009 717.702 156.632V157.218C717.702 158.859 716.896 160.396 715.547 161.33L715.221 161.555C712.362 163.533 712.345 167.755 715.189 169.756L729.877 180.09C731.208 181.026 732 182.552 732 184.179V187.721C732 189.346 731.21 190.871 729.881 191.807L719.983 198.784C718.565 199.784 717.767 201.447 717.873 203.178L719.426 228.4C719.533 230.131 718.735 231.794 717.317 232.793L712.678 236.065C711.835 236.659 710.828 236.978 709.796 236.978H704.528C703.537 236.978 702.569 237.273 701.746 237.824L700.488 238.667C699.514 239.319 698.8 240.293 698.471 241.419L693.593 258.116C692.989 260.184 693.778 262.407 695.551 263.632L697.919 265.268C698.565 265.713 699.306 266.001 700.082 266.107L708.101 267.206C708.907 267.316 709.674 267.622 710.335 268.095L717.119 272.956C718.599 274.016 719.386 275.799 719.172 277.607L717.795 289.246C717.689 290.148 718.077 291.038 718.811 291.573C720.204 292.588 720.186 294.672 718.775 295.662L711.456 300.8C710.122 301.736 709.328 303.263 709.328 304.892V305.562C709.328 307.194 710.125 308.723 711.462 309.659L719.675 315.403C721.013 316.339 721.81 317.868 721.81 319.5V320.197C721.81 321.855 720.988 323.405 719.616 324.336L716.987 326.118C716.02 326.774 715.313 327.748 714.989 328.872L712.345 338.042C711.728 340.183 709.769 341.657 707.541 341.657H702.456H687.979C686.914 341.657 685.878 341.317 685.02 340.687L682.233 338.641L679.717 336.784C678.838 336.135 678.195 335.216 677.888 334.167L670.099 307.575C669.925 306.98 669.561 306.458 669.064 306.088C667.499 304.925 667.537 302.57 669.137 301.458L678.67 294.831C681.539 292.836 681.53 288.59 678.653 286.608L676.308 284.992L674.484 283.718C672.236 282.149 672.254 278.815 674.519 277.27C675.589 276.54 676.229 275.329 676.229 274.034V246.282C676.229 244.883 675.528 243.576 674.362 242.803C672.957 241.871 671.13 241.875 669.729 242.813L668.098 243.905C666.712 244.834 665.881 246.392 665.881 248.06V266.353C665.881 267.987 665.082 269.518 663.741 270.454L655.618 276.119C654.277 277.054 653.478 278.586 653.478 280.22V289.534C653.478 291.164 652.684 292.692 651.349 293.628L647.12 296.594C645.917 297.438 644.308 297.416 643.129 296.539C641.951 295.663 640.343 295.64 639.14 296.483L603.867 321.196C602.531 322.132 601.736 323.66 601.736 325.291V326.127C601.736 327.753 600.945 329.278 599.615 330.215L574.005 348.256C571.522 350.005 571.487 353.674 573.936 355.471L575.902 356.913C577.38 357.997 577.362 360.21 575.866 361.27L575.502 361.528C574.161 362.478 574.169 364.472 575.519 365.411C576.323 365.97 577.387 365.978 578.199 365.431L580.262 364.04C581.969 362.89 584.207 362.903 585.901 364.075L603.767 376.434C605.117 377.368 605.923 378.905 605.923 380.546V392.528V407.351C605.923 408.957 606.694 410.465 607.996 411.405L611.986 414.284C613.288 415.224 614.059 416.732 614.059 418.338V427.667C614.059 429.273 613.288 430.782 611.986 431.721L607.996 434.601C606.694 435.541 605.923 437.049 605.923 438.655V465.627C605.923 467.242 605.143 468.756 603.83 469.695L597.28 474.377C596.236 475.124 594.944 475.44 593.673 475.26L586.944 474.309C585.688 474.131 584.411 474.438 583.373 475.166L582.508 475.772C581.416 476.538 580.676 477.708 580.451 479.023L579.407 485.126C579.187 486.409 578.475 487.556 577.423 488.323L573.755 490.997C572.108 492.197 569.884 492.227 568.206 491.072L565.554 489.246C564.067 488.223 564.065 486.028 565.549 485.001C567.016 483.987 567.035 481.827 565.588 480.786L560.37 477.037C559.063 476.097 558.288 474.586 558.288 472.977V463.439C558.288 461.776 559.115 460.222 560.494 459.293L563.262 457.427C564.088 456.87 565.061 456.573 566.057 456.573H571.202C572.256 456.573 573.283 456.24 574.136 455.621L576.999 453.546C578.296 452.606 579.064 451.101 579.064 449.498V432.607C579.064 432.157 578.85 431.734 578.487 431.468C577.708 430.896 577.719 429.728 578.51 429.172L578.935 428.872C579.932 428.171 579.95 426.699 578.97 425.974L577.03 424.538C575.795 423.623 574.11 423.613 572.864 424.512L565.525 429.806C563.794 431.054 561.463 431.066 559.719 429.837L545.951 420.132C544.622 419.195 543.832 417.671 543.832 416.045V415.525C543.832 413.895 543.037 412.367 541.702 411.431L530.747 403.751C529.906 403.161 528.904 402.845 527.877 402.845H522.748C521.715 402.845 520.707 402.525 519.863 401.929L495.026 384.388C493.31 383.176 491.02 383.166 489.294 384.362L483.428 388.428C482.49 389.078 481.803 390.03 481.48 391.125L478.658 400.714C478.047 402.79 478.84 405.023 480.624 406.247L480.822 406.383C482.635 407.629 483.422 409.913 482.759 412.011L476.081 433.162C475.755 434.192 475.105 435.089 474.228 435.718L472.375 437.048C470.651 438.285 468.333 438.299 466.594 437.083L459.902 432.402C458.171 431.192 455.866 431.199 454.143 432.422L437.318 444.36C435.584 445.59 433.262 445.59 431.529 444.358L430.918 443.924C429.147 442.665 426.765 442.695 425.026 443.997L422.788 445.672C421.058 446.967 418.691 447.004 416.921 445.763L395.016 430.403C393.775 429.533 392.123 429.53 390.879 430.395C389.652 431.249 388.026 431.258 386.789 430.419L385.63 429.633C384.115 428.606 384.073 426.388 385.549 425.305C386.229 424.805 386.63 424.012 386.63 423.169V421.368C386.63 419.754 385.851 418.24 384.538 417.301L374.307 409.987L358.566 398.864C356.829 397.636 354.504 397.643 352.773 398.88L349.541 401.19C348.228 402.129 347.449 403.644 347.449 405.258V417.504C347.449 419.113 346.674 420.623 345.368 421.563L342.358 423.728C341.508 424.34 340.486 424.669 339.438 424.669H330.431C329.375 424.669 328.345 424.335 327.491 423.713L325.553 422.304C323.086 420.51 323.125 416.82 325.629 415.078L325.772 414.979C328.216 413.279 328.242 409.674 325.824 407.939C325.092 407.413 324.213 407.13 323.311 407.13H317.895C316.823 407.13 315.781 406.786 314.92 406.149L313.146 404.836C311.412 403.553 309.051 403.526 307.289 404.769L294.518 413.777C292.81 414.982 290.534 414.997 288.81 413.817L282.527 409.513C281.695 408.943 280.71 408.638 279.702 408.638H261.898C260.972 408.638 260.07 408.347 259.32 407.805C256.866 406.036 256.884 402.377 259.355 400.631L263.52 397.689C266.043 395.905 266.046 392.163 263.524 390.376C262.872 389.914 262.108 389.635 261.312 389.568L245.071 388.197C244.191 388.123 243.346 387.816 242.623 387.31L239.854 385.37C238.519 384.435 237.723 382.906 237.723 381.275V369.072C237.723 367.456 238.504 365.94 239.82 365.002L252.657 355.846C255.468 353.841 255.449 349.658 252.619 347.678L245.413 342.639C244.573 342.051 243.572 341.736 242.547 341.736H237.344C236.306 341.736 235.294 341.413 234.448 340.812L225.451 334.422C224.131 333.484 223.346 331.965 223.346 330.345V320.862C223.346 319.223 222.543 317.688 221.196 316.753L208.042 307.629C207.206 307.049 206.211 306.737 205.193 306.737H200.207C199.175 306.737 198.168 306.418 197.324 305.823L177.869 292.094C176.623 291.214 174.958 291.213 173.71 292.09L172.613 292.862C171.089 293.934 171.098 296.195 172.631 297.254C174.164 298.313 174.174 300.574 172.65 301.646L152.31 315.957C151.305 316.664 150.074 316.976 148.854 316.834L137.62 315.524C136.853 315.435 136.122 315.151 135.496 314.699C132.958 312.869 132.999 309.077 135.576 307.301L136.42 306.72C137.775 305.787 138.584 304.247 138.584 302.602V299.236C138.584 297.619 137.801 296.101 136.484 295.163L133.467 293.015C132.731 292.491 131.868 292.176 130.968 292.103L114.822 290.803C114.036 290.74 113.281 290.467 112.636 290.012C110.148 288.26 110.142 284.573 112.624 282.811L116.268 280.225C119.093 278.219 119.072 274.018 116.227 272.041L113.621 270.231L91.6885 254.933C89.9642 253.731 87.6716 253.735 85.9519 254.944L80.6707 258.658C79.3392 259.595 78.5469 261.121 78.5469 262.748V268.723V277.855C78.5469 279.492 77.7452 281.026 76.4007 281.961L65.1983 289.747C64.3737 290.32 63.3956 290.632 62.3914 290.641L57.1491 290.691C56.0658 290.701 55.0086 290.359 54.1364 289.716L52.4532 288.476C50.7223 287.201 48.3699 287.175 46.6113 288.412L23.991 304.32C23.1488 304.912 22.1444 305.23 21.1148 305.23H15.8813C14.8667 305.23 13.8761 304.921 13.0411 304.345L9.83965 302.135C6.98684 300.166 6.95444 295.962 9.77655 293.949L12.2266 292.202C13.5423 291.263 14.3233 289.747 14.3233 288.131V281.653C14.3233 280.016 13.5221 278.483 12.1783 277.548L10.3067 276.247C8.9629 275.312 8.16167 273.779 8.16167 272.142V254.087C8.16167 252.465 7.3752 250.944 6.05192 250.007L4.10975 248.631C2.78647 247.694 2 246.173 2 244.551V234.598C2 231.836 4.23858 229.598 7 229.598H9.34854C9.96332 229.598 10.5622 229.403 11.0591 229.04L12.3277 228.116C13.3084 227.401 13.2989 225.935 12.3089 225.233C11.319 224.531 11.3095 223.065 12.2902 222.35L13.5588 221.425C14.0557 221.063 14.6546 220.868 15.2694 220.868H38.8474C39.0868 220.868 39.326 220.851 39.563 220.816L48.5628 219.515C49.2673 219.413 49.9377 219.146 50.5196 218.736L51.2332 218.234C53.4267 216.688 53.4407 213.441 51.2608 211.877C50.2399 211.144 49.6345 209.964 49.6345 208.708V195.799C49.6345 194.25 50.3853 192.797 51.6488 191.901C52.9124 191.005 53.6632 189.552 53.6632 188.003V172.597C53.6632 170.967 54.4577 169.44 55.7922 168.504Z" fill="#BBDFFD"/>
<path d="M608.064 361.984L611.932 359.175C613.179 358.27 614.841 358.177 616.181 358.939C617.409 359.637 618.167 360.941 618.167 362.353V363.676C618.167 365.34 618.995 366.895 620.376 367.824L624.525 370.616C625.93 371.561 626.761 373.153 626.733 374.846L626.584 384.006C626.557 385.663 627.352 387.225 628.708 388.178L644.252 399.103C645.743 400.152 645.742 402.362 644.25 403.409C643.548 403.901 643.13 404.704 643.13 405.562V407.351C643.13 408.954 642.349 410.456 641.036 411.376C639.724 412.297 638.943 413.799 638.943 415.401V416.478C638.943 417.782 639.578 419.005 640.644 419.755L641.042 420.035C643.105 421.485 643.118 424.538 641.067 426.006C639.796 426.916 638.088 426.918 636.814 426.012L624.534 417.276C623.216 416.338 622.433 414.82 622.433 413.202V403.75C622.433 402.184 621.684 400.712 620.418 399.789C619.153 398.867 618.404 397.395 618.404 395.829V395.141C618.404 393.504 617.603 391.97 616.259 391.036L614.387 389.734C613.044 388.799 612.242 387.266 612.242 385.629V382.369V376.271C612.242 374.624 611.431 373.082 610.073 372.15L608.171 370.844C606.813 369.911 606.002 368.37 606.002 366.722V366.03C606.002 364.429 606.768 362.925 608.064 361.984Z" fill="#BBDFFD"/>
<path d="M684.437 409.999L691.07 405.405C691.909 404.823 691.9 403.579 691.051 403.01C690.812 402.851 690.532 402.765 690.245 402.765H683.745C682.863 402.765 682.003 403.035 681.279 403.539L680.385 404.161C678.363 405.567 678.35 408.554 680.36 409.977C681.579 410.841 683.208 410.85 684.437 409.999Z" fill="#BBDFFD"/>
<path d="M694.815 393.996L697.479 392.143C698.216 391.63 698.233 390.545 697.512 390.009C697.285 389.841 697.01 389.75 696.728 389.75H688.97C688.698 389.75 688.432 389.832 688.207 389.986C687.423 390.522 687.421 391.679 688.205 392.217L690.813 394.008C692.02 394.837 693.613 394.832 694.815 393.996Z" fill="#BBDFFD"/>
<path d="M698.952 379.565L707.598 373.59C708.422 373.021 708.465 371.819 707.685 371.192C707.419 370.978 707.088 370.862 706.747 370.862H700.517C699.515 370.862 698.537 371.163 697.708 371.726L694.891 373.639C692.84 375.033 692.785 378.038 694.784 379.506C696.019 380.412 697.692 380.436 698.952 379.565Z" fill="#BBDFFD"/>
<path d="M708.555 363.948L716.33 358.594C718.011 357.436 717.995 354.948 716.299 353.812C715.823 353.493 715.263 353.323 714.69 353.323H708.858C707.827 353.323 706.822 353.641 705.98 354.234L698.219 359.697C696.603 360.835 696.625 363.238 698.263 364.346C698.73 364.662 699.281 364.83 699.845 364.83H705.719C706.732 364.83 707.721 364.523 708.555 363.948Z" fill="#BBDFFD"/>
<path d="M537.625 193.275L543.834 188.865C545.84 187.44 545.838 184.46 543.83 183.037C542.599 182.165 540.953 182.16 539.717 183.025L533.477 187.39C531.438 188.816 531.426 191.83 533.452 193.272C534.701 194.162 536.375 194.163 537.625 193.275Z" fill="#BBDFFD"/>
<path d="M558.328 172.873L554.198 169.937C552.207 168.522 552.188 165.573 554.16 164.132C555.4 163.226 557.079 163.212 558.334 164.097L562.474 167.019C564.487 168.439 564.502 171.418 562.505 172.859C561.259 173.758 559.579 173.763 558.328 172.873Z" fill="#BBDFFD"/>
<path d="M545.253 166.541L538.957 162.162C538.12 161.579 537.123 161.267 536.103 161.267H530.865C529.844 161.267 528.848 161.579 528.01 162.162L525.28 164.061C523.936 164.995 523.135 166.529 523.135 168.165V174.55C523.135 176.218 523.967 177.776 525.353 178.704L526.138 179.23C526.961 179.781 527.93 180.076 528.921 180.076H534.221C535.079 180.076 535.916 179.817 536.625 179.334L538.691 177.924C540.232 176.874 540.202 174.592 538.635 173.582L538.378 173.416C536.992 172.522 536.907 170.526 538.212 169.518C539.059 168.862 540.239 168.852 541.099 169.491L542.422 170.476C543.301 171.13 544.509 171.113 545.369 170.435C546.648 169.427 546.59 167.471 545.253 166.541Z" fill="#BBDFFD"/>
<path d="M435.46 151.562L445.848 144.306C447.573 143.102 449.867 143.105 451.588 144.315L453.509 145.667C454.497 146.361 455.2 147.389 455.488 148.562L456.064 150.899C456.544 152.85 455.797 154.897 454.174 156.081C453.301 156.717 452.245 157.05 451.165 157.029L437.041 156.76C436.467 156.749 435.911 156.566 435.443 156.234C433.83 155.091 433.839 152.694 435.46 151.562Z" fill="#BBDFFD"/>
<path d="M18.0732 171.475L8.81448 164.608C8.38211 164.288 8.00436 163.899 7.69582 163.458L4.03495 158.224C2.81631 156.482 2.83278 154.16 4.07601 152.435L7.40179 147.821C9.00437 145.597 12.0981 145.079 14.3383 146.657L19.5765 150.349C20.1845 150.778 20.6892 151.336 21.0539 151.985L24.6633 158.401C24.8867 158.799 25.1634 159.163 25.4856 159.486L28.2951 162.295C29.6055 163.606 29.2069 165.821 27.5219 166.593C26.8686 166.892 26.3642 167.442 26.1236 168.119L25.763 169.134C24.6376 172.3 20.7721 173.477 18.0732 171.475Z" fill="#BBDFFD"/>
<path d="M55.7922 168.504L60.0297 165.532C61.2279 164.691 62.8297 164.714 64.0042 165.587C65.1859 166.465 66.7992 166.482 67.9987 165.628L77.1659 159.099C78.0128 158.496 79.0266 158.172 80.0663 158.172H85.2485C86.2848 158.172 87.2955 157.85 88.1408 157.25L88.7626 156.81C90.0846 155.872 90.8703 154.352 90.8703 152.731V131.835C90.8703 130.233 91.6383 128.727 92.9358 127.787L95.798 125.712C96.6514 125.094 97.6785 124.761 98.7325 124.761H116.309C117.336 124.761 118.338 124.444 119.179 123.855L129.397 116.691C131.118 115.485 133.411 115.483 135.133 116.688L143.455 122.509C144.295 123.096 145.295 123.411 146.32 123.411H163.846C164.884 123.411 165.897 123.088 166.743 122.486L173.659 117.57C174.664 116.855 174.666 115.363 173.662 114.645C172.656 113.926 172.661 112.429 173.673 111.716L176.735 109.559C177.359 109.119 178.086 108.847 178.845 108.769L191.078 107.514C191.932 107.426 192.748 107.121 193.449 106.626L215.731 90.9138C216.574 90.3192 217.58 90 218.612 90H227.926C228.955 90 229.96 90.3178 230.802 90.9101L231.334 91.2841C232.665 92.2205 233.458 93.7463 233.458 95.374V125.282C233.458 126.897 232.678 128.413 231.364 129.351L224.65 134.146C223.802 134.752 222.786 135.078 221.744 135.078H216.564C215.529 135.078 214.519 134.756 213.674 134.158L205.756 128.549C204.233 127.47 204.223 125.213 205.737 124.121L206.102 123.857C207.433 122.898 207.429 120.915 206.094 119.961C205.262 119.366 204.144 119.365 203.31 119.958L196.536 124.773C195.217 125.711 194.434 127.23 194.434 128.848V129.566C194.434 131.226 193.61 132.778 192.234 133.708L188.417 136.289C187.042 137.219 186.218 138.771 186.218 140.431V141.228C186.218 142.846 187.002 144.364 188.321 145.302L197.082 151.533C197.929 152.135 198.941 152.458 199.98 152.458H204.989C205.987 152.458 206.962 152.159 207.789 151.6L213.704 147.602C214.531 147.043 215.506 146.744 216.504 146.744H225.777C226.816 146.744 227.83 146.42 228.677 145.817L230.733 144.352C232.461 143.122 234.776 143.115 236.51 144.335L237.812 145.25C239.143 146.187 239.935 147.712 239.935 149.34V150.4C239.935 151.689 239.302 152.895 238.242 153.627C235.997 155.178 235.982 158.49 238.212 160.061L238.597 160.332C239.314 160.837 240.169 161.108 241.045 161.108H250.615C251.531 161.108 252.425 161.388 253.177 161.911L254.296 162.688C256.304 164.083 256.321 167.047 254.329 168.465C252.35 169.875 252.352 172.815 254.333 174.222L265.79 182.358C267.487 183.563 269.754 183.591 271.48 182.428L273.585 181.009C274.41 180.452 275.383 180.155 276.379 180.155H281.585C282.601 180.155 283.594 179.845 284.43 179.267L288.86 176.202C290.464 175.092 292.583 175.081 294.198 176.173C295.121 176.797 295.794 177.727 296.098 178.799L299.572 191.047C299.728 191.597 300.08 192.071 300.562 192.379C302.118 193.374 304.159 192.256 304.159 190.409V187.809C304.159 186.592 304.747 185.45 305.739 184.744L320.971 173.899C321.789 173.317 322.881 173.297 323.719 173.848C325.144 174.785 325.188 176.859 323.805 177.856L316.19 183.341C314.885 184.281 314.112 185.79 314.112 187.398V188.662C314.112 189.55 314.538 190.384 315.257 190.906C316.791 192.019 316.78 194.308 315.237 195.408L307.996 200.564C306.679 201.502 305.897 203.019 305.897 204.637V211.064C305.897 212.639 305.154 214.122 303.893 215.066L303.2 215.585C302.335 216.232 301.284 216.582 300.204 216.582H295.136C294.118 216.582 293.125 216.893 292.289 217.472L289.125 219.663C286.242 221.66 286.257 225.927 289.153 227.904L290.245 228.648C291.075 229.215 292.057 229.518 293.063 229.518H298.315C299.342 229.518 300.344 229.202 301.185 228.612L312.978 220.345C313.819 219.756 314.821 219.439 315.848 219.439H321.153C322.224 219.439 323.267 219.095 324.127 218.458L326.78 216.494C328.054 215.551 328.806 214.06 328.806 212.475V206.345V197.283C328.806 195.651 329.602 194.121 330.94 193.186L332.15 192.339C333.886 191.125 336.198 191.136 337.922 192.368L342.282 195.481C344.005 196.713 346.318 196.724 348.054 195.51L349.264 194.663C350.602 193.728 351.398 192.198 351.398 190.566V187.098C351.398 185.48 352.181 183.963 353.498 183.025L354.728 182.149C356.469 180.909 358.806 180.913 360.543 182.16L363.03 183.944C364.767 185.191 367.104 185.195 368.845 183.955L379.009 176.717C379.856 176.114 380.869 175.79 381.909 175.79H399.513C400.538 175.79 401.537 175.476 402.376 174.889L408.091 170.898C408.931 170.311 409.93 169.997 410.954 169.997H424.081C425.105 169.997 426.105 169.682 426.944 169.096L430.842 166.374C431.682 165.788 432.681 165.473 433.705 165.473H455.407C456.453 165.473 457.473 165.801 458.322 166.411L463.225 169.929C464.534 170.868 465.31 172.381 465.31 173.992V178.133C465.31 179.401 465.927 180.59 466.963 181.32L468.022 182.065C469.679 183.233 469.703 185.682 468.069 186.881C467.56 187.255 466.945 187.456 466.313 187.456H460.384C459.478 187.456 458.595 187.741 457.859 188.269C455.437 190.006 455.454 193.613 457.891 195.329L474.048 206.703C474.891 207.296 475.896 207.614 476.926 207.614H486.565C487.541 207.614 488.496 207.329 489.311 206.793L493.209 204.23C494.025 203.694 494.98 203.408 495.956 203.408H500.851C501.884 203.408 502.891 203.728 503.735 204.324L526.416 220.341C528.143 221.561 530.451 221.562 532.18 220.345L585.136 183.038C586.381 182.161 588.036 182.138 589.306 182.98C590.563 183.814 592.202 183.8 593.445 182.943L594.146 182.459C594.973 181.889 595.954 181.584 596.959 181.584H618.955C619.984 181.584 620.989 181.266 621.831 180.674L629.512 175.272C630.354 174.68 631.359 174.362 632.388 174.362H637.45C638.473 174.362 639.472 174.676 640.311 175.262L646.492 179.575C648.219 180.78 650.517 180.774 652.238 179.559L697.525 147.58C698.369 146.984 699.376 146.664 700.409 146.664H705.684C706.719 146.664 707.728 146.985 708.572 147.583L715.59 152.551C716.915 153.488 717.702 155.009 717.702 156.632V157.218C717.702 158.859 716.896 160.396 715.547 161.33L715.221 161.555C712.362 163.533 712.345 167.755 715.189 169.756L729.877 180.09C731.208 181.026 732 182.552 732 184.179V187.721C732 189.346 731.21 190.871 729.881 191.807L719.983 198.784C718.565 199.784 717.767 201.447 717.873 203.178L719.426 228.4C719.533 230.131 718.735 231.794 717.317 232.793L712.678 236.065C711.835 236.659 710.828 236.978 709.796 236.978H704.528C703.537 236.978 702.569 237.273 701.746 237.824L700.488 238.667C699.514 239.319 698.8 240.293 698.471 241.419L693.593 258.116C692.989 260.184 693.778 262.407 695.551 263.632L697.919 265.268C698.565 265.713 699.306 266.001 700.082 266.107L708.101 267.206C708.907 267.316 709.674 267.622 710.335 268.095L717.119 272.956C718.599 274.016 719.386 275.799 719.172 277.607L717.795 289.246C717.689 290.148 718.077 291.038 718.811 291.573C720.204 292.588 720.186 294.672 718.775 295.662L711.456 300.8C710.122 301.736 709.328 303.263 709.328 304.892V305.562C709.328 307.194 710.125 308.723 711.462 309.659L719.675 315.403C721.013 316.339 721.81 317.868 721.81 319.5V320.197C721.81 321.855 720.988 323.405 719.616 324.336L716.987 326.118C716.02 326.774 715.313 327.748 714.989 328.872L712.345 338.042C711.728 340.183 709.769 341.657 707.541 341.657H702.456H687.979C686.914 341.657 685.878 341.317 685.02 340.687L682.233 338.641L679.717 336.784C678.838 336.135 678.195 335.216 677.888 334.167L670.099 307.575C669.925 306.98 669.561 306.458 669.064 306.088C667.499 304.925 667.537 302.57 669.137 301.458L678.67 294.831C681.539 292.836 681.53 288.59 678.653 286.608L676.308 284.992L674.484 283.718C672.236 282.149 672.254 278.815 674.519 277.27C675.589 276.54 676.229 275.329 676.229 274.034V246.282C676.229 244.883 675.528 243.576 674.362 242.803C672.957 241.871 671.13 241.875 669.729 242.813L668.098 243.905C666.712 244.834 665.881 246.392 665.881 248.06V266.353C665.881 267.987 665.082 269.518 663.741 270.454L655.618 276.119C654.277 277.054 653.478 278.586 653.478 280.22V289.534C653.478 291.164 652.684 292.692 651.349 293.628L647.12 296.594C645.917 297.438 644.308 297.416 643.129 296.539C641.951 295.663 640.343 295.64 639.14 296.483L603.867 321.196C602.531 322.132 601.736 323.66 601.736 325.291V326.127C601.736 327.753 600.945 329.278 599.615 330.215L574.005 348.256C571.522 350.005 571.487 353.674 573.936 355.471L575.902 356.913C577.38 357.997 577.362 360.21 575.866 361.27L575.502 361.528C574.161 362.478 574.169 364.472 575.519 365.411C576.323 365.97 577.387 365.978 578.199 365.431L580.262 364.04C581.969 362.89 584.207 362.903 585.901 364.075L603.767 376.434C605.117 377.368 605.923 378.905 605.923 380.546V392.528V407.351C605.923 408.957 606.694 410.465 607.996 411.405L611.986 414.284C613.288 415.224 614.059 416.732 614.059 418.338V427.667C614.059 429.273 613.288 430.782 611.986 431.721L607.996 434.601C606.694 435.541 605.923 437.049 605.923 438.655V465.627C605.923 467.242 605.143 468.756 603.83 469.695L597.28 474.377C596.236 475.124 594.944 475.44 593.673 475.26L586.944 474.309C585.688 474.131 584.411 474.438 583.373 475.166L582.508 475.772C581.416 476.538 580.676 477.708 580.451 479.023L579.407 485.126C579.187 486.409 578.475 487.556 577.423 488.323L573.755 490.997C572.108 492.197 569.884 492.227 568.206 491.072L565.554 489.246C564.067 488.223 564.065 486.028 565.549 485.001C567.016 483.987 567.035 481.827 565.588 480.786L560.37 477.037C559.063 476.097 558.288 474.586 558.288 472.977V463.439C558.288 461.776 559.115 460.222 560.494 459.293L563.262 457.427C564.088 456.87 565.061 456.573 566.057 456.573H571.202C572.256 456.573 573.283 456.24 574.136 455.621L576.999 453.546C578.296 452.606 579.064 451.101 579.064 449.498V432.607C579.064 432.157 578.85 431.734 578.487 431.468C577.708 430.896 577.719 429.728 578.51 429.172L578.935 428.872C579.932 428.171 579.95 426.699 578.97 425.974L577.03 424.538C575.795 423.623 574.11 423.613 572.864 424.512L565.525 429.806C563.794 431.054 561.463 431.066 559.719 429.837L545.951 420.132C544.622 419.195 543.832 417.671 543.832 416.045V415.525C543.832 413.895 543.037 412.367 541.702 411.431L530.747 403.751C529.906 403.161 528.904 402.845 527.877 402.845H522.748C521.715 402.845 520.707 402.525 519.863 401.929L495.026 384.388C493.31 383.176 491.02 383.166 489.294 384.362L483.428 388.428C482.49 389.078 481.803 390.03 481.48 391.125L478.658 400.714C478.047 402.79 478.84 405.023 480.624 406.247L480.822 406.383C482.635 407.629 483.422 409.913 482.759 412.011L476.081 433.162C475.755 434.192 475.105 435.089 474.228 435.718L472.375 437.048C470.651 438.285 468.333 438.299 466.594 437.083L459.902 432.402C458.171 431.192 455.866 431.199 454.143 432.422L437.318 444.36C435.584 445.59 433.262 445.59 431.529 444.358L430.918 443.924C429.147 442.665 426.765 442.695 425.026 443.997L422.788 445.672C421.058 446.967 418.691 447.004 416.921 445.763L395.016 430.403C393.775 429.533 392.123 429.53 390.879 430.395C389.652 431.249 388.026 431.258 386.789 430.419L385.63 429.633C384.115 428.606 384.073 426.388 385.549 425.305C386.229 424.805 386.63 424.012 386.63 423.169V421.368C386.63 419.754 385.851 418.24 384.538 417.301L374.307 409.987L358.566 398.864C356.829 397.636 354.504 397.643 352.773 398.88L349.541 401.19C348.228 402.129 347.449 403.644 347.449 405.258V417.504C347.449 419.113 346.674 420.623 345.368 421.563L342.358 423.728C341.508 424.34 340.486 424.669 339.438 424.669H330.431C329.375 424.669 328.345 424.335 327.491 423.713L325.553 422.304C323.086 420.51 323.125 416.82 325.629 415.078L325.772 414.979C328.216 413.279 328.242 409.674 325.824 407.939C325.092 407.413 324.213 407.13 323.311 407.13H317.895C316.823 407.13 315.781 406.786 314.92 406.149L313.146 404.836C311.412 403.553 309.051 403.526 307.289 404.769L294.518 413.777C292.81 414.982 290.534 414.997 288.81 413.817L282.527 409.513C281.695 408.943 280.71 408.638 279.702 408.638H261.898C260.972 408.638 260.07 408.347 259.32 407.805C256.866 406.036 256.884 402.377 259.355 400.631L263.52 397.689C266.043 395.905 266.046 392.163 263.524 390.376C262.872 389.914 262.108 389.635 261.312 389.568L245.071 388.197C244.191 388.123 243.346 387.816 242.623 387.31L239.854 385.37C238.519 384.435 237.723 382.906 237.723 381.275V369.072C237.723 367.456 238.504 365.94 239.82 365.002L252.657 355.846C255.468 353.841 255.449 349.658 252.619 347.678L245.413 342.639C244.573 342.051 243.572 341.736 242.547 341.736H237.344C236.306 341.736 235.294 341.413 234.448 340.812L225.451 334.422C224.131 333.484 223.346 331.965 223.346 330.345V320.862C223.346 319.223 222.543 317.688 221.196 316.753L208.042 307.629C207.206 307.049 206.211 306.737 205.193 306.737H200.207C199.175 306.737 198.168 306.418 197.324 305.823L177.869 292.094C176.623 291.214 174.958 291.213 173.71 292.09L172.613 292.862C171.089 293.934 171.098 296.195 172.631 297.254C174.164 298.313 174.174 300.574 172.65 301.646L152.31 315.957C151.305 316.664 150.074 316.976 148.854 316.834L137.62 315.524C136.853 315.435 136.122 315.151 135.496 314.699C132.958 312.869 132.999 309.077 135.576 307.301L136.42 306.72C137.775 305.787 138.584 304.247 138.584 302.602V299.236C138.584 297.619 137.801 296.101 136.484 295.163L133.467 293.015C132.731 292.491 131.868 292.176 130.968 292.103L114.822 290.803C114.036 290.74 113.281 290.467 112.636 290.012C110.148 288.26 110.142 284.573 112.624 282.811L116.268 280.225C119.093 278.219 119.072 274.018 116.227 272.041L113.621 270.231L91.6885 254.933C89.9642 253.731 87.6716 253.735 85.9519 254.944L80.6707 258.658C79.3392 259.595 78.5469 261.121 78.5469 262.748V268.723V277.855C78.5469 279.492 77.7452 281.026 76.4007 281.961L65.1983 289.747C64.3737 290.32 63.3956 290.632 62.3914 290.641L57.1491 290.691C56.0658 290.701 55.0086 290.359 54.1364 289.716L52.4532 288.476C50.7223 287.201 48.3699 287.175 46.6113 288.412L23.991 304.32C23.1488 304.912 22.1444 305.23 21.1148 305.23H15.8813C14.8667 305.23 13.8761 304.921 13.0411 304.345L9.83965 302.135C6.98684 300.166 6.95444 295.962 9.77655 293.949L12.2266 292.202C13.5423 291.263 14.3233 289.747 14.3233 288.131V281.653C14.3233 280.016 13.5221 278.483 12.1783 277.548L10.3067 276.247C8.9629 275.312 8.16167 273.779 8.16167 272.142V254.087C8.16167 252.465 7.3752 250.944 6.05192 250.007L4.10975 248.631C2.78647 247.694 2 246.173 2 244.551V234.598C2 231.836 4.23858 229.598 7 229.598H9.34854C9.96332 229.598 10.5622 229.403 11.0591 229.04L12.3277 228.116C13.3084 227.401 13.2989 225.935 12.3089 225.233C11.319 224.531 11.3095 223.065 12.2902 222.35L13.5588 221.425C14.0557 221.063 14.6546 220.868 15.2694 220.868H38.8474C39.0868 220.868 39.326 220.851 39.563 220.816L48.5628 219.515C49.2673 219.413 49.9377 219.146 50.5196 218.736L51.2332 218.234C53.4267 216.688 53.4407 213.441 51.2608 211.877C50.2399 211.144 49.6345 209.964 49.6345 208.708V195.799C49.6345 194.25 50.3853 192.797 51.6488 191.901C52.9124 191.005 53.6632 189.552 53.6632 188.003V172.597C53.6632 170.967 54.4577 169.44 55.7922 168.504Z" stroke="#7BBEFD" stroke-width="3"/>
<path d="M608.064 361.984L611.932 359.175C613.179 358.27 614.841 358.177 616.181 358.939C617.409 359.637 618.167 360.941 618.167 362.353V363.676C618.167 365.34 618.995 366.895 620.376 367.824L624.525 370.616C625.93 371.561 626.761 373.153 626.733 374.846L626.584 384.006C626.557 385.663 627.352 387.225 628.708 388.178L644.252 399.103C645.743 400.152 645.742 402.362 644.25 403.409C643.548 403.901 643.13 404.704 643.13 405.562V407.351C643.13 408.954 642.349 410.456 641.036 411.376C639.724 412.297 638.943 413.799 638.943 415.401V416.478C638.943 417.782 639.578 419.005 640.644 419.755L641.042 420.035C643.105 421.485 643.118 424.538 641.067 426.006C639.796 426.916 638.088 426.918 636.814 426.012L624.534 417.276C623.216 416.338 622.433 414.82 622.433 413.202V403.75C622.433 402.184 621.684 400.712 620.418 399.789C619.153 398.867 618.404 397.395 618.404 395.829V395.141C618.404 393.504 617.603 391.97 616.259 391.036L614.387 389.734C613.044 388.799 612.242 387.266 612.242 385.629V382.369V376.271C612.242 374.624 611.431 373.082 610.073 372.15L608.171 370.844C606.813 369.911 606.002 368.37 606.002 366.722V366.03C606.002 364.429 606.768 362.925 608.064 361.984Z" stroke="#7BBEFD" stroke-width="3"/>
<path d="M684.437 409.999L691.07 405.405C691.909 404.823 691.9 403.579 691.051 403.01C690.812 402.851 690.532 402.765 690.245 402.765H683.745C682.863 402.765 682.003 403.035 681.279 403.539L680.385 404.161C678.363 405.567 678.35 408.554 680.36 409.977C681.579 410.841 683.208 410.85 684.437 409.999Z" stroke="#7BBEFD" stroke-width="3"/>
<path d="M694.815 393.996L697.479 392.143C698.216 391.63 698.233 390.545 697.512 390.009C697.285 389.841 697.01 389.75 696.728 389.75H688.97C688.698 389.75 688.432 389.832 688.207 389.986C687.423 390.522 687.421 391.679 688.205 392.217L690.813 394.008C692.02 394.837 693.613 394.832 694.815 393.996Z" stroke="#7BBEFD" stroke-width="3"/>
<path d="M698.952 379.565L707.598 373.59C708.422 373.021 708.465 371.819 707.685 371.192C707.419 370.978 707.088 370.862 706.747 370.862H700.517C699.515 370.862 698.537 371.163 697.708 371.726L694.891 373.639C692.84 375.033 692.785 378.038 694.784 379.506C696.019 380.412 697.692 380.436 698.952 379.565Z" stroke="#7BBEFD" stroke-width="3"/>
<path d="M708.555 363.948L716.33 358.594C718.011 357.436 717.995 354.948 716.299 353.812C715.823 353.493 715.263 353.323 714.69 353.323H708.858C707.827 353.323 706.822 353.641 705.98 354.234L698.219 359.697C696.603 360.835 696.625 363.238 698.263 364.346C698.73 364.662 699.281 364.83 699.845 364.83H705.719C706.732 364.83 707.721 364.523 708.555 363.948Z" stroke="#7BBEFD" stroke-width="3"/>
<path d="M537.625 193.275L543.834 188.865C545.84 187.44 545.838 184.46 543.83 183.037C542.599 182.165 540.953 182.16 539.717 183.025L533.477 187.39C531.438 188.816 531.426 191.83 533.452 193.272C534.701 194.162 536.375 194.163 537.625 193.275Z" stroke="#7BBEFD" stroke-width="3"/>
<path d="M558.328 172.873L554.198 169.937C552.207 168.522 552.188 165.573 554.16 164.132C555.4 163.226 557.079 163.212 558.334 164.097L562.474 167.019C564.487 168.439 564.502 171.418 562.505 172.859C561.259 173.758 559.579 173.763 558.328 172.873Z" stroke="#7BBEFD" stroke-width="3"/>
<path d="M545.253 166.541L538.957 162.162C538.12 161.579 537.123 161.267 536.103 161.267H530.865C529.844 161.267 528.848 161.579 528.01 162.162L525.28 164.061C523.936 164.995 523.135 166.529 523.135 168.165V174.55C523.135 176.218 523.967 177.776 525.353 178.704L526.138 179.23C526.961 179.781 527.93 180.076 528.921 180.076H534.221C535.079 180.076 535.916 179.817 536.625 179.334L538.691 177.924C540.232 176.874 540.202 174.592 538.635 173.582L538.378 173.416C536.992 172.522 536.907 170.526 538.212 169.518C539.059 168.862 540.239 168.852 541.099 169.491L542.422 170.476C543.301 171.13 544.509 171.113 545.369 170.435C546.648 169.427 546.59 167.471 545.253 166.541Z" stroke="#7BBEFD" stroke-width="3"/>
<path d="M435.46 151.562L445.848 144.306C447.573 143.102 449.867 143.105 451.588 144.315L453.509 145.667C454.497 146.361 455.2 147.389 455.488 148.562L456.064 150.899C456.544 152.85 455.797 154.897 454.174 156.081C453.301 156.717 452.245 157.05 451.165 157.029L437.041 156.76C436.467 156.749 435.911 156.566 435.443 156.234C433.83 155.091 433.839 152.694 435.46 151.562Z" stroke="#7BBEFD" stroke-width="3"/>
<path d="M18.0732 171.475L8.81448 164.608C8.38211 164.288 8.00436 163.899 7.69582 163.458L4.03495 158.224C2.81631 156.482 2.83278 154.16 4.07601 152.435L7.40179 147.821C9.00437 145.597 12.0981 145.079 14.3383 146.657L19.5765 150.349C20.1845 150.778 20.6892 151.336 21.0539 151.985L24.6633 158.401C24.8867 158.799 25.1634 159.163 25.4856 159.486L28.2951 162.295C29.6055 163.606 29.2069 165.821 27.5219 166.593C26.8686 166.892 26.3642 167.442 26.1236 168.119L25.763 169.134C24.6376 172.3 20.7721 173.477 18.0732 171.475Z" stroke="#7BBEFD" stroke-width="3"/>
<circle cx="9.5" cy="268.5" r="7.5" fill="#E2581D"/>
<circle cx="104.5" cy="128.5" r="7.5" fill="#E2581D"/>
<circle cx="388.5" cy="378.5" r="7.5" fill="#E2581D"/>
<circle cx="309.5" cy="194.5" r="7.5" fill="#E2581D"/>
<circle cx="11.5" cy="233.5" r="7.5" fill="#E2581D"/>
<circle cx="55.5" cy="252.5" r="7.5" fill="#E2581D"/>
<circle cx="359.5" cy="363.5" r="7.5" fill="#E2581D"/>
</svg>
