<svg width="45" height="50" viewBox="0 0 45 50" fill="none" xmlns="http://www.w3.org/2000/svg">
<path d="M40.2026 22.6744H38.8204V20.7379C38.8204 20.3076 38.4483 19.9311 38.023 19.9311H30.3678L29.1983 9.22677H37.1724V10.3564H35.7902C35.3649 10.3564 34.9928 10.7329 34.9928 11.1632C34.9928 11.5936 35.3649 11.9701 35.7902 11.9701H40.1494C40.5747 11.9701 40.9468 11.5936 40.9468 11.1632C40.9468 10.7329 40.5747 10.3564 40.1494 10.3564H38.7672V8.41991C38.7672 7.98958 38.3951 7.61305 37.9698 7.61305H28.7198L23.1379 0.297537C22.819 -0.0789971 22.3405 -0.078997 21.9684 0.189956C21.9152 0.243746 21.9152 0.243746 21.8621 0.297537L16.2802 7.55926H6.97701C6.55172 7.55926 6.1796 7.93579 6.1796 8.36612V10.3026H4.79741C4.37213 10.3026 4 10.6791 4 11.1094C4 11.5398 4.37213 11.9163 4.79741 11.9163H9.10345C9.52874 11.9163 9.90086 11.5398 9.90086 11.1094C9.90086 10.6791 9.52874 10.3026 9.10345 10.3026H7.72126V9.17298H15.6954L14.5259 19.8773H6.97701C6.55172 19.8773 6.1796 20.2538 6.1796 20.6842V22.6206H4.79741C4.37213 22.6206 4 22.9971 4 23.4275C4 23.8578 4.37213 24.2343 4.79741 24.2343H9.10345C9.52874 24.2343 9.90086 23.8578 9.90086 23.4275C9.90086 22.9971 9.52874 22.6206 9.10345 22.6206H7.72126V21.491H14.3664L11.3362 50H33.6638L30.5805 21.5448H37.2256V22.6744H35.8434C35.4181 22.6744 35.046 23.0509 35.046 23.4813C35.046 23.9116 35.4181 24.2881 35.8434 24.2881H40.2026C40.6279 24.2881 41 23.9116 41 23.4813C41 23.0509 40.6279 22.6744 40.2026 22.6744ZM15.4828 26.4935L21.0647 30.2589L14.6322 34.5621L15.4828 26.4935ZM22.5 31.2271L29.9957 36.2834L22.5 41.3397L15.0043 36.2834L22.5 31.2271ZM14.3132 37.7358L21.0647 42.308L13.25 47.5794L14.3132 37.7358ZM22.5 43.2762L30.102 48.3863H14.898L22.5 43.2762ZM23.9353 42.308L30.6868 37.7358L31.75 47.5794L23.9353 42.308ZM23.9353 30.2589L29.5172 26.4935L30.3678 34.5621L23.9353 30.2589ZM22.5 29.2906L16.5991 25.3101L22.2342 21.491H22.7126L28.3477 25.3101L22.5 29.2906ZM23.9353 11.9163L27.6566 9.44193L28.2414 14.821L23.9353 11.9163ZM22.5 10.9481L19.8951 9.22677H25.0517L22.5 10.9481ZM17.3434 9.38814L21.0647 11.8625L16.7586 14.7672L17.3434 9.38814ZM22.5 12.8845L27.3908 16.1657L22.5 19.447L17.6092 16.1657L22.5 12.8845ZM28.5072 17.3491L28.773 19.9311H24.6796L28.5072 17.3491ZM22.5 2.12642L26.6997 7.61305H18.3003L22.5 2.12642ZM16.4928 17.3491L20.3204 19.9311H16.227L16.4928 17.3491ZM19.3635 21.5448L15.7486 23.9654L16.0144 21.5448H19.3635ZM29.1983 23.9654L25.5833 21.5448H28.9325L29.1983 23.9654Z" fill="#F08FBF"/>
</svg>
