<svg width="1030" height="52" viewBox="0 0 1030 52" fill="none" xmlns="http://www.w3.org/2000/svg">
<path d="M239.009 25.9637H236.318C236.156 33.2035 236.318 40.4072 236.255 47.6469C236.255 49.4456 236.255 49.4456 234.461 49.4456H200.363C197.366 50.9115 199.663 29.0575 198.981 26.0627H196.344C196.945 24.5788 199.654 24.5338 201.062 23.5985V20.7296L200.47 20.4957C200.659 18.4273 202.112 17.9236 203.942 18.1844L205.18 20.3788L204.417 20.7655V22.1325C208.903 20.2349 211.962 21.1073 211.128 15.1626L210.446 14.7759C210.957 11.6282 214.24 11.6102 215.164 14.659L214.42 15.1087V18.1664C216.384 17.2671 217.909 16.5027 219.91 17.7348V15.1536L219.201 14.713C220.098 11.6282 223.104 11.5743 224.054 14.65L223.355 15.1626V19.1737L230.702 22.1595V19.5514L230.047 18.9579L231.15 16.9793H233.752L234.819 19.0028L234.138 19.5424V23.4995C235.725 24.3989 237.529 24.8126 239.098 25.7029L239.009 25.9637Z" fill="#213782"/>
<path d="M640.747 27.8544C640.845 26.9101 640.298 25.615 641.778 25.9928L641.895 27.7914H644.766C644.882 26.8921 644.497 25.5701 645.968 25.9928L646.084 27.7914H648.417V25.9928C649.457 25.7949 649.314 24.9495 649.413 24.1941L650.31 23.9243L650.462 22.7012C652.056 22.3461 653.702 22.2912 655.315 22.5393L655.468 23.9153L656.482 24.1581L656.634 25.606L657.388 25.9748C657.271 27.3867 657.854 28.6728 657.764 30.0848L658.545 30.4175V31.4697L657.782 31.8565C657.513 37.0637 657.684 42.2619 657.782 47.505L658.563 47.8828V49.6814C644.712 50.1221 630.278 50.0412 616.4 49.7354C616.095 48.2515 616.194 47.9367 617.208 47.496V31.8205C616.122 31.6946 615.916 30.0848 617.261 30.1657C617.218 29.5082 617.245 28.8479 617.342 28.1961C618.114 27.5486 617.656 26.7122 617.889 25.9208L618.58 25.624L618.697 24.1581L619.719 23.9243L619.89 22.4853C621.494 22.3729 623.103 22.3729 624.707 22.4853L624.869 23.8793L625.837 24.1671L626.08 25.597L626.743 25.9748L626.86 27.7734H628.179C628.322 27 627.802 25.7589 629.076 25.9208C629.596 26.4244 629.228 27.1439 629.515 27.7734H632.332C632.485 26.9281 631.946 25.66 633.391 25.9748L633.525 27.7734H636.513C636.674 26.9371 636.118 25.714 637.562 25.9748L637.715 27.7734C638.721 27.8901 639.736 27.9172 640.747 27.8544V27.8544Z" fill="#213782"/>
<path d="M459.096 50.4805H429.95C429.676 46.0188 429.643 41.5455 429.852 37.0803L430.973 36.8824C431.942 33.285 428.802 16.3684 432.965 16.7011C438.015 17.1238 440.877 14.7855 440.043 21.7465C442.375 21.9083 444.528 21.7465 446.887 21.8184C447.138 23.1944 446.887 24.5164 447.058 25.9104H448.305C448.448 21.6206 448.242 17.2947 448.403 13.0048C451.272 12.7911 454.152 12.767 457.024 12.9329C457.455 13.7153 457.473 14.5967 457.078 16.1615L456.253 16.3864V25.9104L459.061 25.9734C459.303 26.8098 459.303 49.3383 459.096 50.4805ZM434.391 36.9903C434.732 33.267 433.593 29.6966 434.615 26.1263L435.36 25.8924L435.728 21.8094H438.67V18.8416C436.754 18.6068 434.817 18.6068 432.902 18.8416V36.8284L434.391 36.9903ZM456.719 13.6074C454.156 13.4181 451.583 13.4332 449.022 13.6524V15.1543H451.274C451.274 14.2549 454.136 14.3179 454.396 15.1543H456.719V13.6074ZM457.616 26.7288C457.814 27.781 456.926 29.8495 458.639 29.4808C458.81 28.5734 458.837 27.6447 458.72 26.7288H457.616ZM447.255 26.7288C447.179 27.6746 447.179 28.625 447.255 29.5707C448.574 29.4358 448.439 27.6821 448.269 26.7288H447.255ZM435.261 29.4268C435.566 27.79 435.485 27.0436 434.866 26.531C435.18 27.5652 434.848 28.5095 435.234 29.3909L435.261 29.4268ZM456.979 27.889C456.935 27.0616 457.249 26.8997 456.423 26.5939L456.979 27.889ZM449.175 16.4134H449.058V17.2048H449.175V16.4134Z" fill="#213782"/>
<path d="M201.214 12.8425C203.394 15.8013 208.149 17.6 207.691 21.656L205.897 21.8089C205.744 31.0991 205.897 40.2095 205.843 49.5267C196.612 49.7965 187.408 49.5267 178.159 49.6256C178.159 44.1396 177.818 38.8335 178.285 33.3295H184.161V30.4246L183.147 30.2447C181.443 25.3883 189.875 24.39 188.045 18.913L187.247 18.4993C186.771 14.5602 191.535 12.6896 193.661 9.84766C195.607 11.3586 197.106 13.3371 199.043 14.857L201.214 12.8425Z" fill="#213782"/>
<path d="M286.167 24.7606C284.911 24.3559 284.777 24.1671 284.777 22.89C284.974 21.586 284.014 18.852 286.104 18.9779C288.643 18.9779 291.128 18.9149 293.676 19.0318C294.359 20.7847 294.391 22.7254 293.765 24.4998L292.662 24.6797V25.3452H297.228C297.641 26.0287 297.291 26.3435 296.771 26.5683C296.6 28.7357 297.39 30.6783 297.174 32.8008C296.546 33.835 296.86 35.0042 296.726 36.1643C295.56 36.7309 294.286 36.2183 293.012 36.533C292.824 41.0298 293.075 45.5265 292.904 49.9422C292.07 50.1491 262.619 50.1941 261.453 49.9872C261.264 45.6524 261.516 41.2996 261.453 36.9647C260.959 37.0457 260.556 37.0816 260.412 36.4701L260.897 35.6337H263.938C263.57 32.6209 263.938 29.707 263.758 26.8021C264.539 26.3435 265.337 26.7212 266.109 26.4784L266.261 24.8146C268.001 24.7427 269.688 24.8146 271.33 24.8146L272.307 24.0322L272.442 23.0429H284.104L284.212 25.2193C285.566 25.4981 285.925 25.4262 286.167 24.7606ZM268.665 26.6583C269.338 29.5541 268.665 32.6029 268.979 35.6517C270.127 35.6517 271.213 35.6966 272.334 35.5977V29.797L271.554 29.2484V25.4441C269.957 25.0934 268.468 25.5071 266.826 25.4441L266.88 26.5503L268.665 26.6583ZM291.819 25.3002L291.909 25.1114C290.59 24.6887 287.961 24.4639 286.777 25.3002H291.819Z" fill="#213782"/>
<path d="M507.979 20.8453C508.338 18.9837 507.225 14.6219 508.454 13.7225L508.643 14.8737C509.369 13.6956 510.966 12.1757 512.338 12.6883C512.925 12.8762 513.467 13.1832 513.93 13.5902C514.393 13.9971 514.767 14.4952 515.03 15.0536L515.173 13.7405C515.981 15.9889 515.326 18.4081 515.523 20.7644C517.102 21.322 517.936 20.6565 519.183 19.7481L520.394 21.259V28.166H522.484L523.695 26.5741C524.853 26.1335 525.095 27.0958 525.911 27.7523C525.723 35.1359 526.252 42.6004 525.911 49.8042C516.456 50.083 506.956 49.975 497.492 49.8042C497.079 48.7699 497.698 47.7716 497.034 46.8633C496.065 45.8201 497.51 44.8848 497.348 43.8145C497.922 41.3324 495.249 20.7644 500.838 28.085L503.108 28.184C503.17 25.7827 503.108 23.4264 503.108 21.277C505.323 18.2013 504.848 21.6997 507.979 20.8453Z" fill="#213782"/>
<path d="M18.7579 18.1861C18.7579 19.0854 20.2291 18.276 19.8164 19.4092L18.7758 19.5981V20.1287L19.8254 20.2996C20.1214 21.5317 18.8386 20.8032 18.7579 21.7025L19.8075 21.8464L19.8613 22.377C19.5383 22.8267 18.8924 22.377 18.6951 23.0965L19.8164 23.3393V24.0678C19.4845 24.3916 18.9194 24.0138 18.6771 24.6794L19.8344 24.9042L19.8882 25.6776L18.7399 25.9384C18.9642 26.4511 19.5025 26.1093 19.8344 26.469L19.8792 27.1615L18.7489 27.3504C18.8027 28.3307 20.3009 27.2605 19.8075 28.7354L18.722 28.9602C18.8207 29.6887 19.4845 29.257 19.8254 29.6707V30.2193L18.8386 30.3722C18.4977 31.3345 20.3098 30.5431 19.8434 31.7752L18.7938 32.009V32.5216L19.8523 32.6835L19.9151 33.1961C19.6011 33.6458 18.8745 33.1961 18.7669 33.9516L19.8882 34.1584V34.815C19.5204 35.2466 18.8745 34.8149 18.722 35.5164L19.7626 35.7233C19.9241 36.4338 19.9241 36.4338 18.7489 36.8295C18.9822 37.2432 19.4307 36.9914 19.8434 37.2612L19.9061 37.9986L18.7579 38.1965C18.8027 38.9969 19.5114 38.4303 19.8254 38.7451L19.9241 39.5275L18.7399 39.8153C18.8566 40.5348 19.5383 40.0491 19.8434 40.3909L19.9151 41.0024L18.8386 41.2003C18.8924 41.641 18.8924 41.641 19.8344 41.8388L19.9151 42.5853L18.7669 42.8281V43.3497L19.8164 43.4846L19.8882 44.0422L18.7758 44.2491L18.731 44.7617L19.8075 44.9595L19.8882 45.724L18.713 45.9848V51.2189H0C0 51.2189 0.11662 26.1183 0 13.6714L0.897077 13.2757C0.170445 9.31858 5.77718 9.30059 8.4415 7.93359V11.432L12.9269 11.5579C13.2409 12.7001 12.9269 13.8153 13.1512 14.9665C15.0171 15.1913 16.7933 14.9035 18.6771 15.1643L18.7579 16.963L19.7985 17.1698L19.9331 17.9253L18.7579 18.1861Z" fill="#213782"/>
<path d="M405.855 29.5067L406.008 28.4904C408.066 28.2087 410.15 28.1785 412.216 28.4005L412.395 29.4617C416.118 29.5786 419.742 29.4617 423.501 29.4617C423.591 31.2604 423.68 33.0141 423.77 34.8128C425.017 34.9747 426.282 34.8128 427.574 35.0017C427.852 38.0415 427.574 40.9283 427.681 43.9951L428.865 44.2559L428.991 46.2345L430.229 46.4143V49.3192C416.288 49.67 401.899 49.8498 388.066 49.2563V46.4863L389.277 46.2614C389.34 45.6139 389.412 44.9394 389.484 44.2559L390.731 44.0671C390.731 41.0453 390.731 38.0594 390.731 34.9477H394.66C394.92 33.0681 394.57 31.3503 394.893 29.5517L405.855 29.5067Z" fill="#213782"/>
<path d="M383.527 7.5181L385.519 7.644C386.012 13.5797 385.519 19.5873 385.94 25.5499H388.918C389.304 33.698 389.322 41.909 389.089 50.075C380.809 50.075 372.69 50.075 364.464 50.075C364.222 49.3196 364.159 26.863 364.401 25.6668C369.147 25.469 373.83 25.6668 378.611 25.6039C378.781 21.6198 378.136 17.7706 379.858 14.2452C379.903 12.6264 379.58 10.8277 380.073 9.2898C380.466 8.78663 380.749 8.20638 380.903 7.58667C381.058 6.96695 381.081 6.3216 380.97 5.69243C381.757 5.5014 382.574 5.46476 383.375 5.58451L383.527 7.5181ZM378.019 28.9404V26.1974L376.978 26.3863V28.9135L378.019 28.9404ZM376.297 28.9404C376.347 28.04 376.314 27.1368 376.198 26.2424L375.202 26.4762V28.8955L376.297 28.9404ZM367.703 28.9404C367.523 27.9152 368.348 25.7478 366.599 26.4223C366.482 27.2576 366.482 28.1051 366.599 28.9404H367.703ZM366.007 26.3863L364.922 26.2694C364.823 27.1678 364.847 28.0756 364.993 28.9674L366.007 28.8955V26.3863ZM373.569 29.0124L374.628 28.9225C374.728 28.0217 374.682 27.1107 374.493 26.2244L373.596 26.2784L373.569 29.0124ZM387.519 26.3144V29.0124L388.416 28.9494V26.3413L387.519 26.3144ZM371.049 26.3144H370.089C370.033 27.2137 370.051 28.1161 370.143 29.0124L371.04 28.9494L371.049 26.3144ZM371.946 26.3144C371.804 27.2081 371.804 28.1187 371.946 29.0124L372.843 28.9494V26.3413L371.946 26.3144ZM368.357 29.0124L369.255 28.9135V26.2154L368.357 26.3413V29.0124ZM383.052 6.07015H381.527V7.49112H383.052V6.07015ZM386.64 28.9764C386.779 28.0825 386.779 27.1723 386.64 26.2784L385.949 26.3593V28.8955L386.64 28.9764ZM385.079 8.59731C384.738 8.0667 384.388 8.12965 383.922 8.36348C384.254 8.8761 384.604 8.84013 385.07 8.59731H385.079ZM384.792 13.2829V14.3261C385.169 13.9214 385.133 13.6066 384.783 13.2829H384.792ZM384.792 9.54162C384.719 9.70916 384.692 9.89286 384.712 10.0744C384.733 10.2559 384.8 10.4288 384.909 10.5759C385.142 10.1352 385.16 9.82041 384.792 9.54162V9.54162ZM384.711 12.2396H384.98C385.052 11.9519 385.294 11.6641 384.792 11.1874C384.756 11.7 384.738 11.9878 384.711 12.2756V12.2396Z" fill="#213782"/>
<path d="M693.646 49.9595V29.7963C692.354 29.1847 692.946 28.1325 692.83 27.1612C698.786 26.6576 704.788 27.0353 710.771 27.0353C710.727 27.8537 711.005 28.6721 710.395 29.2477C710.244 29.376 710.127 29.5384 710.052 29.7214C709.977 29.9045 709.947 30.1028 709.964 30.2999C709.964 31.0194 710.152 31.7658 709.686 32.4044L710.099 33.9063H710.996C711.229 33.0069 711.363 32.1076 711.579 31.3072C711.032 30.6327 711.579 30.138 711.893 29.5085C711.48 27.1432 712.072 24.2563 712.539 21.8281C713.319 21.6811 714.123 21.7149 714.889 21.927C714.808 23.7257 715.786 25.6593 715.275 27.3231C716.064 29.4185 716.028 31.6309 716.279 33.8973L717.804 33.9782C718.522 30.129 718.917 26.1629 719.249 22.3407C719.618 22.1203 720.027 21.9772 720.453 21.92C720.878 21.8628 721.311 21.8927 721.725 22.008C722.407 25.8392 722.622 29.9222 723.268 33.8253L724.165 34.0771C724.407 34.3379 724.434 35.1294 724.254 36.3795L723.357 36.7572V49.9056C722.595 50.1214 694.938 50.1754 693.646 49.9595ZM706.761 33.6994L706.968 33.5465C706.663 33.3487 706.77 32.863 706.232 32.7191L706.761 33.6994Z" fill="#213782"/>
<path d="M665.821 9.18359H686.454C686.66 18.7346 686.454 28.2856 686.534 37.8367L687.629 38.1065V49.9058C680.075 50.6613 672.011 50.1577 664.305 50.0767C664.305 46.0297 664.305 42.0726 664.305 38.0795L665.632 37.8906C666.162 28.3396 665.444 18.7706 665.821 9.18359ZM679.824 16.1625C677.339 16.1625 674.989 16.0905 672.603 16.1625C672.369 23.3572 672.522 30.6419 672.603 37.8816H679.833L679.824 16.1625ZM679.824 11.4409H672.692C672.497 12.4266 672.497 13.4411 672.692 14.4268C675.059 14.5893 677.435 14.5622 679.797 14.3458L679.824 11.4409ZM669.804 14.2109C670.477 14.121 670.539 11.7917 669.804 12.0435V14.2109ZM682.578 14.148L682.838 14.058C682.986 13.3561 682.949 12.6278 682.731 11.9446C682.493 12.2558 682.35 12.6291 682.318 13.0198C682.286 13.4105 682.367 13.8022 682.551 14.148H682.578ZM671.383 11.9716C671.094 12.2799 670.934 12.6866 670.934 13.1092C670.934 13.5318 671.094 13.9385 671.383 14.2469C671.572 13.4992 671.563 12.7146 671.356 11.9716H671.383ZM667.166 14.3098C667.427 13.54 667.427 12.7055 667.166 11.9356C666.932 12.2858 666.805 12.697 666.8 13.1187C666.795 13.5404 666.913 13.9544 667.139 14.3098H667.166ZM684.103 14.058C684.379 13.3341 684.379 12.5336 684.103 11.8097C683.807 12.5279 683.797 13.3328 684.076 14.058H684.103ZM681.349 11.9626C681.175 12.2961 681.089 12.6691 681.1 13.0455C681.111 13.422 681.218 13.7892 681.412 14.112C681.616 13.4048 681.584 12.6503 681.322 11.9626H681.349ZM668.512 14.058C668.667 13.7465 668.747 13.4033 668.747 13.0553C668.747 12.7072 668.667 12.364 668.512 12.0525C668.379 12.37 668.31 12.7109 668.31 13.0553C668.31 13.3996 668.379 13.7405 668.512 14.058V14.058ZM685.556 14.058C685.789 13.3756 685.77 12.6321 685.503 11.9626C685.364 12.2917 685.294 12.6459 685.297 13.0032C685.3 13.3605 685.376 13.7133 685.521 14.04L685.556 14.058Z" fill="#213782"/>
<path d="M50.6133 19.3442C51.2054 17.8692 50.6851 16.4483 51.0081 15.0813L51.8154 14.7665C52.3537 12.4912 51.8154 10.1169 52.5421 7.67969C53.1341 10.2158 52.8381 12.2663 53.179 14.7665L54.1478 15.0363C55.1526 26.9076 54.6323 39.0128 54.6143 51.01C48.7474 51.3248 42.8177 51.1629 36.9419 51.082C36.9419 40.4068 36.3588 29.3988 37.1662 18.8585C37.7582 17.6084 36.3588 15.2611 38.1799 14.7935C38.3593 12.4462 38.5477 10.0809 38.7271 7.71566H38.9334C39.2179 10.0644 39.3677 12.4276 39.3819 14.7935L40.4315 15.0453C40.4618 17.0745 40.6719 19.097 41.0595 21.0889V14.2629L41.6785 13.8762V11.9426C44.3988 11.7402 47.1304 11.7402 49.8508 11.9426L49.7432 13.8762L50.3083 14.137C50.4967 15.9716 49.8957 17.8063 50.6133 19.3442ZM50.2366 21.0619V19.533V21.0619Z" fill="#213782"/>
<path d="M139.379 50.3363V45.3359C140.931 45.1021 142.465 45.336 144.089 45.1651C144.214 44.0499 143.739 42.8088 144.519 41.8915C145.641 40.8302 145.291 39.1934 145.3 37.8354C146.843 32.916 151.821 29.1388 154.71 24.8579L156.091 26.4408L159.258 22.4297C163.008 28.7251 173.988 38.7618 174.508 45.1921L178.007 45.291C178.157 46.9714 178.187 48.6605 178.097 50.3453C177.119 50.5611 140.312 50.5611 139.379 50.3363ZM175.415 49.437L176.069 49.6528C176.159 48.5665 176.159 47.4745 176.069 46.3882H175.423L175.415 49.437ZM177.11 49.7247C177.872 48.8254 177.298 47.5214 177.469 46.3972H176.85C176.569 47.4928 176.66 48.6512 177.11 49.6888V49.7247ZM141.227 46.3882V49.5179H141.864V46.3522L141.227 46.3882ZM140.159 49.6798C140.725 49.2571 140.805 46.613 140.079 46.3072C139.852 47.4116 139.883 48.5533 140.168 49.6438L140.159 49.6798ZM142.931 49.7787C143.264 48.6578 143.264 47.4641 142.931 46.3432C142.666 46.8707 142.529 47.4534 142.531 48.044C142.532 48.6347 142.673 49.2166 142.94 49.7427L142.931 49.7787ZM174.84 46.4152H174.499C174.625 47.4674 174.051 48.6545 174.715 49.5629C174.875 48.5097 174.92 47.4422 174.849 46.3792L174.84 46.4152ZM144.053 46.5231H143.972V49.2841H144.053V46.5231Z" fill="#213782"/>
<path d="M229.32 13.6623L230.271 13.3205C228.477 3.42778 233.259 9.22854 233.77 2.60938C234.245 2.8522 234.174 3.23892 234.12 3.50872C234.012 7.95147 239.556 4.72283 237.439 12.718H242.759C242.463 24.7152 242.525 37.5039 242.543 49.8249C241.646 50.0497 230.406 50.0857 229.374 49.9058C228.953 37.9895 229.177 25.6685 229.32 13.6623Z" fill="#213782"/>
<path d="M365.2 35.5141H367.434C367.313 35.9464 367.313 36.4038 367.434 36.8361C366.708 36.9247 365.976 36.9578 365.245 36.935C366.07 37.2228 366.913 36.7102 367.604 37.4656C366.77 37.9693 365.944 37.6005 365.191 37.7984C365.927 38.0142 366.725 37.6365 367.389 38.0232V40.1097H365.209C365.953 40.4335 366.797 40.0198 367.568 40.5684C366.994 41.5666 366.043 40.8202 365.424 41.1889L367.434 41.2878V42.5199H365.424C366.088 42.8707 366.913 42.3401 367.568 43.0955C366.958 43.8869 366.07 43.3024 365.263 43.6621H367.389V45.8565L365.254 45.9554V45.9824L367.523 46.0993C367.245 46.6209 367.245 46.6209 365.254 46.7918L367.362 46.8907L367.443 48.1138C366.815 48.5365 366.088 48.1678 365.424 48.4286C366.16 48.5545 367.075 48.0689 367.586 48.8513C366.868 49.3639 366.106 49.0042 365.379 49.1841C366.07 49.3909 366.806 49.0671 367.64 49.5528C363.774 50.1284 342.181 49.6787 340.961 49.5528C340.781 48.7973 340.746 37.8613 340.961 36.7282L341.903 36.3954C341.903 35.0104 343.473 35.577 344.397 35.1813C344.603 33.3826 344.244 31.6559 344.648 29.9111L345.733 29.7942C346.236 28.6521 345.868 28.3013 347.429 28.2204C350.389 27.8696 353.278 27.1592 356.256 26.9883L356.417 28.787H362.419L362.688 30.6396H367.452V31.9886L365.146 32.0965C365.971 32.3214 366.77 31.9616 367.586 32.4113C366.967 33.2567 366.079 32.6721 365.415 32.9509L367.389 33.0499V34.3089C366.725 34.6867 365.927 34.3089 365.191 34.5248C365.953 34.7586 366.824 34.3359 367.586 34.8575C366.967 35.6669 366.079 35.1453 365.263 35.2802L365.2 35.5141Z" fill="#213782"/>
<path d="M260.995 13.4795L262.045 14.7835V43.8143L263.417 43.9492C263.706 45.7695 263.755 47.6202 263.561 49.4532C258.447 49.837 253.312 49.87 248.194 49.5521C247.96 47.7298 247.924 45.8873 248.086 44.0571L248.858 43.7244V21.7984L249.755 21.3307V15.6739C248.858 15.2332 248.795 14.6126 248.858 13.6773L249.827 13.3625C248.23 13.0388 249.046 11.303 248.858 10.1159L249.755 9.7202L250.006 9.05469H255.936C256.292 9.38159 256.567 9.7879 256.739 10.2409C256.91 10.6939 256.973 11.181 256.922 11.6628H259.856C260.063 11.8761 260.195 12.1519 260.231 12.4477C260.266 12.7435 260.204 13.0428 260.053 13.2996H257.9V13.4795H260.995Z" fill="#213782"/>
<path d="M329.139 12.5376L329.865 12.2678C329.255 10.7389 330.251 8.83231 329.237 7.51027C331.794 5.9724 336.127 7.36638 339.267 6.9257C340.11 6.9257 340.164 7.11456 339.841 7.96894C339.473 9.3899 340.074 10.8828 339.419 12.2678C340.765 15.5144 339.59 20.2 340.11 23.9593L341.204 23.1319C341.483 31.9094 341.204 40.6331 341.312 49.4197C336.889 49.73 332.45 49.73 328.026 49.4197C328.26 43.9696 326.914 37.8901 329.13 33.0606C329.121 26.1986 329.139 19.3726 329.139 12.5376Z" fill="#213782"/>
<path d="M729.557 50.2476V4.61494C732.432 4.39398 735.32 4.39398 738.195 4.61494C738.438 5.67617 738.195 6.78236 738.339 7.94251C739.864 8.48212 738.653 10.5686 739.236 11.7827L740.196 12.0435V16.3064L741.093 16.6481V50.2116C737.252 50.4631 733.399 50.4751 729.557 50.2476V50.2476Z" fill="#213782"/>
<path d="M765.987 24.7132L763.619 24.6052L763.897 23.1483C764.534 22.5907 765.287 22.9594 765.951 22.6447C765.352 22.6604 764.753 22.6394 764.157 22.5817C764.112 21.7813 764.022 21.0438 764.848 20.6032C763.646 19.7038 764.848 18.5347 765.924 18.6786L764.955 18.5527C764.587 17.9411 764.892 17.4105 765.081 16.8349L765.978 16.709L765.081 16.2863L765.431 14.7664L766.005 14.5236C764.892 13.8131 765.933 12.5091 766.229 11.6367H773.056C773.585 14.0829 774.07 16.5022 774.402 18.9664C774.402 20.1985 775.236 19.9197 776.196 20.0636C776.546 29.9563 776.196 39.957 776.321 49.9128C772.072 50.2185 767.805 50.2185 763.556 49.9128C763.448 43.8692 764.049 37.7716 762.515 31.8629C761.977 28.6793 763.484 29.1649 765.906 28.9221H763.027C762.934 28.6227 762.907 28.3066 762.949 27.9959C762.991 27.6851 763.1 27.3874 763.269 27.1234H765.96C765.063 26.7187 764.166 27.1234 763.269 26.7187C763.125 26.0802 763.511 25.6395 763.672 24.92H765.924L765.987 24.7132Z" fill="#213782"/>
<path d="M26.9121 50.8475V12.6074L27.9527 12.3376C30.5632 9.94537 30.5004 6.04223 30.4825 2.49882C30.4825 2.18405 30.4825 1.81532 31.0566 1.73438C30.5812 13.7406 32.6893 4.06367 35.4164 11.5282C35.8111 11.6271 36.4032 11.5912 36.3135 12.2657C37.4707 12.6614 37.4797 12.6614 37.4797 13.8305C37.381 26.1965 37.5335 38.4995 37.381 50.8205C33.905 51.2498 30.3902 51.2589 26.9121 50.8475V50.8475Z" fill="#213782"/>
<path d="M791.869 34.0765L791.94 34.9758L793.896 35.4525L793.977 36.8734L791.976 37.6109C791.725 38.9599 793.053 38.6452 793.887 38.9689V40.4259L791.967 41.0464L791.869 41.8198L793.815 42.4674C793.916 42.6104 793.984 42.7743 794.013 42.947C794.042 43.1197 794.032 43.2968 793.984 43.4651C793.936 43.6335 793.851 43.7888 793.734 43.9197C793.618 44.0505 793.474 44.1535 793.313 44.2211C793.842 45.3183 793.035 46.3885 793.403 47.4587C793.569 48.0442 793.591 48.6616 793.466 49.2574C793.466 49.833 793.152 50.0218 792.568 49.8869C789.204 49.824 785.975 49.788 782.557 49.9949C782.261 48.0703 782.557 46.2446 782.387 44.4279C781.759 43.6365 781.759 43.6365 781.929 42.5213C784.62 41.9457 784.62 41.0374 781.929 40.4348V38.9959C782.826 38.6541 784.046 38.9959 784.037 37.6469L781.911 36.9364V35.5244L783.93 34.9668L783.983 34.0675L781.911 33.5189L781.848 32.1069L783.983 31.3785C784.163 29.9845 782.772 30.3982 781.911 30.0384V28.6085C784.549 28.0329 784.827 27.0616 781.911 26.522V25.0921L783.939 24.4535C784.351 23.2304 782.647 23.4283 781.893 23.0236V21.5756C782.79 21.1979 783.992 21.6476 784.001 20.2536L781.884 19.5251V18.1042L783.876 17.6185V16.7192L781.893 16.2245L781.812 14.7676L783.912 14.1021C784.217 12.6991 782.754 13.0768 781.884 12.7351V11.2961C782.71 10.7745 782.584 9.49746 783.813 10.0191L784.27 9.30859H791.51L791.905 9.90216L793.026 10.073C793.412 10.4867 793.026 11.2512 793.923 11.1253V12.6092C793.026 13.0319 791.618 12.5552 791.994 14.0391C792.648 14.1987 793.285 14.4216 793.896 14.7046V16.1616L791.949 16.6472L791.887 17.5466L793.86 18.0412L794.013 19.4532L791.985 20.2266C791.68 21.6026 793.062 21.2069 793.914 21.5486V23.0056L791.949 23.6531L791.887 24.4355L793.833 25.0831C793.932 25.3165 793.982 25.5672 793.982 25.8205C793.982 26.0738 793.932 26.3246 793.833 26.558L791.967 27.1156C791.483 28.3567 793.071 28.1858 793.86 28.5905V30.0474L791.976 30.5241L791.842 31.4234L793.86 32.062V33.5729L791.869 34.0765Z" fill="#213782"/>
<path d="M557.212 45.6461L557.086 43.6855C550.196 43.4697 543.379 43.7305 536.453 43.5686C537.099 42.7952 537.808 43.1189 538.418 42.8941L536.686 42.7682C536.507 41.8689 536.507 41.8689 538.05 41.716L537.951 40.7177L536.615 40.5648V40.4119C543.791 39.3867 552.762 39.2518 557.355 32.5607C558.324 30.9598 557.05 28.6935 558.378 27.2545C558.686 27.4892 558.922 27.8056 559.06 28.168C559.198 28.5304 559.232 28.9243 559.158 29.305C559.634 28.9183 560.055 28.6305 559.93 28.037C559.813 26.7689 561.23 27.1376 560.827 28.4507L561.634 29.4399C561.849 28.4956 561.634 27.5783 562.531 27.0387C563.348 27.6952 562.899 28.8374 563.482 29.6828C567.77 29.413 572.749 30.663 576.705 28.9993C580.939 30.672 586.044 29.2871 590.619 29.7187C590.825 28.8734 590.619 27.5963 591.579 27.2815C591.843 27.5646 592.033 27.9094 592.132 28.2846C592.231 28.6598 592.235 29.0538 592.144 29.4309L593.041 28.4776C592.888 27.9111 592.817 27.0747 593.642 27.3445C594.216 28.0639 593.696 28.9543 594.826 29.395C594.706 28.9712 594.709 28.5221 594.835 28.1001C594.96 27.6781 595.203 27.3006 595.535 27.0117C596.432 27.7582 596.324 28.9723 596.279 30.0335C597.804 38.8111 610.175 39.7014 617.423 40.0522C617.944 41.2393 617.486 42.3815 617.522 43.6496H596.961L596.782 45.4482C589.138 46.1497 581.944 42.4175 574.193 43.5866C568.362 43.6136 563.025 46.6354 557.212 45.6461ZM586.905 43.6046L586.151 42.9391L585.694 43.4967C586.124 43.8114 586.492 43.9643 586.896 43.5956H587.506L587.658 44.1082L589.21 44.342L588.313 42.8761L587.506 43.6046V42.8761C586.77 42.7412 586.941 43.2449 586.905 43.6046V43.6046ZM566.523 43.6046L565.716 42.9121L564.917 44.5849L566.451 44.1172L566.514 43.5866L567.035 43.6675L567.277 42.8941H566.478L566.523 43.6046ZM563.285 41.7429C572.354 41.7429 581.675 42.0847 590.637 41.617C590.814 38.2366 590.778 34.8483 590.529 31.4725H563.365C563.092 34.8895 563.065 38.322 563.285 41.7429V41.7429ZM596.342 33.0103C596.151 35.9382 596.198 38.8769 596.486 41.7969L597.688 41.7429C597.383 38.7481 598.648 35.3486 596.342 33.0103V33.0103ZM554.395 41.7609C554.623 39.967 554.59 38.1492 554.296 36.3649L553.462 36.9764C553.39 37.8758 553.668 39.8273 553.264 40.7447C552.879 39.9353 553.408 37.9297 552.861 37.3002C551.066 37.9477 551.964 40.1781 551.784 41.698H553.04L553.166 40.367H553.354L553.614 41.7699L554.395 41.7609ZM557.651 41.7609V33.2711C555.525 35.4745 556.754 38.928 556.557 41.734L557.651 41.7609ZM599.105 41.7609C598.612 39.5396 600.343 36.3019 597.903 35.2317C597.903 37.4261 597.84 39.5665 597.948 41.7609H599.105ZM556.108 41.7609C556.018 39.5396 556.305 37.4531 555.992 35.2677C554.915 36.0321 554.987 35.9062 555.094 37.0034C555.211 38.6042 554.897 40.268 555.256 41.8149L556.108 41.7609ZM600.648 36.8685L599.571 36.221C599.383 38.0684 599.422 39.9321 599.688 41.7699L600.648 41.689V36.8685ZM602.119 41.707C602.173 40.313 602.971 37.597 601.097 37.2103C600.857 38.6996 600.857 40.2177 601.097 41.707H602.119ZM603.626 41.707V38.2985L602.559 37.9477V41.734L603.626 41.707ZM551.533 41.707C551.579 40.4688 551.561 39.229 551.479 37.9927C549.631 38.1546 550.501 40.4209 550.394 41.707H551.533ZM605.169 41.707V38.883L604.003 38.5233V41.734L605.169 41.707ZM550.098 38.6672C547.918 38.7481 549.201 40.4029 548.985 41.7789L550.107 41.725C550.134 40.6278 550.16 39.6475 550.098 38.6672ZM605.546 39.0989V41.716H606.64C606.744 40.8977 606.71 40.068 606.542 39.2608L605.546 39.0989ZM548.474 41.734V39.1079L547.424 39.4586V41.734H548.474ZM547.092 41.734C547.2 40.9815 547.163 40.2154 546.985 39.4766C545.828 39.7374 545.684 40.1061 546.088 41.734H547.092ZM607.134 39.3597V41.7789L608.094 41.725V39.7104L607.134 39.3597ZM608.56 39.7824V41.734H609.619V40.0792L608.56 39.7824ZM545.505 41.734C545.61 41.1177 545.582 40.486 545.424 39.8813L544.419 40.1061V41.734H545.505ZM544.132 41.734L544.033 39.9892L542.858 40.4029L543.002 41.734H544.132ZM611.171 41.734V40.34L610.13 39.9892V41.734H611.171ZM612.606 41.734V40.4659H611.556V41.7429L612.606 41.734ZM542.508 40.34L541.342 40.6278L541.414 41.707H542.508V40.34ZM541.118 41.7519L541.064 40.6547H539.853L540.006 41.7519H541.118ZM538.364 41.7519H539.548L539.485 40.6817L538.418 40.7267L538.364 41.7519ZM614.257 41.7519L614.194 40.6637H613.081L613.126 41.7519H614.257ZM615.683 41.7519L615.629 40.6997H614.544V41.7519H615.683ZM617.02 40.7357H616.123L615.943 41.725H617.011L617.02 40.7357ZM564.029 42.7952C563.897 43.1331 563.837 43.4953 563.854 43.858C563.871 44.2207 563.964 44.5757 564.128 44.8996C564.277 44.5625 564.346 44.1951 564.329 43.8267C564.312 43.4583 564.209 43.099 564.029 42.7772V42.7952ZM567.923 42.8851L567.304 43.9373L568.371 43.7215L567.923 42.8851ZM554.574 42.8851C555.094 43.2269 555.471 43.2988 555.812 42.8851H554.574ZM565.339 42.8851C564.729 42.984 564.729 42.984 564.944 43.7215L565.339 42.8851ZM546.088 42.8851V43.029H547.218V42.8941L546.088 42.8851ZM548.097 42.8851V43.101C548.501 42.8581 548.994 43.3078 549.55 42.8851H548.097ZM569.78 42.9661L569.152 43.5776L570.049 43.5326L569.78 42.9661ZM539.476 42.9031V43.029H540.642V42.8941L539.476 42.9031ZM545.056 43.029V42.8941H543.8V43.029H545.056ZM550.268 42.9121V43.074L551.551 43.002V42.9121H550.268ZM590.107 43.02H589.991V44.5399H590.107V43.02ZM584.653 43.6136C584.752 43.1279 584.653 42.9301 584.088 43.1549L584.653 43.6136ZM541.593 42.8761V42.975H542.921V42.8761H541.593ZM601.653 42.9661V42.8761H600.298V42.9661H601.653ZM608.291 42.9661V42.8941H606.954V42.9661H608.291ZM613.521 42.8761V42.9661H614.822V42.8761H613.521ZM553.713 42.984V42.8851H552.421V42.984H553.713ZM599.464 42.984V42.8941H598.351V42.984H599.464ZM610.292 42.984V42.8941H609.116V42.984H610.292ZM569.026 42.9031H568.38L568.883 43.5326L569.026 42.9031ZM573.206 43.056C572.901 42.8491 572.632 42.7682 572.408 43.2269L573.206 43.056ZM588.816 42.8851L589.264 43.6496C589.327 43.1639 589.381 42.8491 588.789 42.8671L588.816 42.8851ZM605.923 42.975V42.8851H604.9V42.975H605.923ZM611.53 42.8761V42.9661H612.48V42.8761H611.53ZM602.702 42.8761V42.9661H603.734V42.8761H602.702ZM585.111 43.1639L585.29 43.3258L585.577 42.975L585.46 42.8581L585.111 43.1639ZM570.623 43.1639L570.569 42.9391L570.21 43.065V43.2179L570.623 43.1639ZM616.472 43.038V42.9571H615.683V43.038H616.472Z" fill="#213782"/>
<path d="M525.58 18.1023L526.98 17.8955C527.993 15.9619 528.119 13.9474 529.276 12.1577C529.725 13.9564 530.2 15.7551 530.568 17.6167V6.07812C536.991 11.6091 537.072 14.2891 536.632 22.3742V49.8132C532.952 50.056 529.26 50.056 525.58 49.8132V18.1023Z" fill="#213782"/>
<path d="M490.521 24.7316C490.455 27.1981 490.572 29.6662 490.871 32.1152C491.472 31.099 492.002 30.1996 492.531 29.2823C494.657 29.3812 497.644 28.4999 499.385 29.723C504.04 35.4518 501.708 42.8174 502.237 49.6524H481.82C481.604 44.9309 481.82 40.2183 481.739 35.5058C482.25 32.457 485.758 32.2501 488.288 32.367C488.727 31.3508 488.171 30.2986 488.611 29.3722C488.521 25.523 488.763 21.6918 488.916 17.7617C490.62 18.3643 490.351 18.8679 490.494 20.3968C490.3 21.0297 490.275 21.7028 490.423 22.3484" fill="#213782"/>
<path d="M482.574 49.6985C479.054 49.9716 475.52 49.9986 471.997 49.7795C471.665 49.051 471.997 48.2236 471.8 47.4951C471.405 46.8836 470.05 47.7469 470.346 46.5418L471.773 46.4159C472.177 44.1046 470.625 45.7144 470.302 44.1586L471.782 44.0237C472.185 41.6764 470.553 43.3671 470.293 41.7843L471.782 41.6134V40.4083C470.346 40.1205 470.346 40.1205 470.4 39.3561L471.8 39.2212V38.043C471.19 37.7193 470.05 38.133 470.346 36.9638L471.782 36.8379V35.6328C471.127 35.327 470.167 35.5788 470.337 34.5896L471.8 34.4367V33.1866L470.373 33.0157L470.32 32.1973L471.8 32.0354V30.7853L470.445 30.6324C470.293 29.85 470.293 29.85 471.791 29.6252V28.4021C469.808 28.4021 469.79 27.3948 471.791 27.3049V26.0098C471.226 25.9649 470.625 26.0098 470.293 25.4792C470.669 24.9486 471.19 25.0205 471.791 24.9936V23.8154C471.118 23.5007 470.176 23.7525 470.302 22.7542L471.782 22.6013V21.3962C471.297 21.0634 470.436 21.5671 470.149 20.6767C470.454 19.9033 471.235 20.5148 471.773 20.1371V18.932C469.638 19.1568 469.566 17.574 471.773 17.8798V16.5397C469.001 16.6387 470.185 15.0918 472.248 15.5055C474.608 13.8597 478.662 15.2987 481.542 14.831L482.627 15.9642C482.825 17.556 482.753 48.9701 482.574 49.6985Z" fill="#213782"/>
<path d="M317.852 23.3919L317.978 24.2912C319.673 23.23 318.157 20.1633 319.027 18.3916L319.198 19.129C320.454 17.9509 319.144 15.118 319.835 13.3912L320.041 14.1107C320.848 13.2113 319.556 11.017 320.983 10.3964C323.163 9.39813 321.476 6.63715 322.346 4.86545C322.005 3.2826 322.445 1.76271 322.436 0L323.459 0.449671C323.548 3.0038 323.638 5.477 323.737 8.0761L323.243 8.3459L323.862 8.94846L323.943 9.77586C325.854 10.5223 325.495 12.1591 325.486 13.9038L326.078 14.3715C326.347 15.8824 325.863 17.9689 326.554 19.165L326.787 18.4545C327.065 20.0553 326.787 21.944 326.886 23.6887L327.684 24.3992C327.801 24.0125 327.89 23.7157 327.971 23.4189C328.168 24.3182 328.213 48.6634 327.971 49.8506C326.177 49.7337 317.206 51.1726 317.511 48.8523C317.574 40.3805 317.341 31.9087 317.646 23.4459L317.852 23.3919Z" fill="#213782"/>
<path d="M818 49.0233C817.668 49.0953 817.398 49.9227 817.102 49.9227C814.22 50.0552 811.331 50.0042 808.455 49.7698C808.284 49.0503 808.221 18.1669 808.401 16.7459L809.145 16.4491C809.038 14.2457 809.755 10.8282 811.639 9.66807C812.823 9.91988 814.752 9.06551 815.452 10.2886C816.349 12.3391 817.461 14.2277 817.138 16.584L817.91 16.8088C818.009 27.7898 817.991 38.0064 818 49.0233Z" fill="#213782"/>
<path d="M757.663 14.7137C758.093 13.0679 757.717 11.3232 758.174 9.60547C758.694 22.8708 758.174 36.28 758.362 49.5992C754.668 49.8689 750.959 49.8629 747.266 49.5813C747.266 40.345 747.266 31.1267 747.266 21.8905C748.423 17.6276 753.958 16.3056 757.663 14.7137ZM756.864 16.9441C754.584 17.0809 752.416 17.9838 750.71 19.5072C752.768 19.5782 754.827 19.4638 756.864 19.1655V16.9441Z" fill="#213782"/>
<path d="M89.5906 20.8462L81.3285 14.4069L82.9612 12.2305C83.8583 12.5003 90.134 17.3319 91.5424 18.7169L92.9995 19.7169L100.804 12.5003C101.562 13.1166 102.246 13.8199 102.84 14.5957C100.535 16.9071 95.8432 21.2869 95.8432 21.2869C95.8432 21.2869 100.185 25.6217 102.823 28.7064C102.661 29.7227 101.836 30.2533 101.253 31.1077C98.992 29.5518 96.9108 27.8251 94.6142 26.1973C94.9551 29.7227 95.5113 33.1042 96.0316 36.5307L98.0052 36.6746C95.8971 40.0202 95.9957 43.3927 96.1393 47.2868L97.1709 47.5836C97.3393 48.3208 97.3758 49.0821 97.2786 49.832C93.7309 50.0698 90.1724 50.0998 86.6213 49.9219C86.4682 49.241 86.4682 48.5344 86.6213 47.8534L87.5184 47.4577C86.9622 44.5259 88.4154 41.2163 86.7559 38.6172C86.3245 38.0364 86.019 37.3717 85.8588 36.6656L87.8234 36.5577C88.6048 32.5106 89.144 28.4203 89.4381 24.3086L81.5618 30.3612C81.1222 29.5158 79.2563 28.5625 80.2431 27.6632C82.6741 25.8645 84.9438 23.886 87.4735 22.1682L89.5906 20.8462Z" fill="#213782"/>
<path d="M124.03 10.8916C124.066 10.6076 124.102 10.3308 124.152 9.98852L124.869 9.58066C125.65 10.5348 125.729 11.7292 126.446 12.6542C126.159 11.5981 125.88 10.542 125.579 9.42772L126.568 9.07812C127.213 10.36 126.611 11.7947 127.364 12.9382V9.17281H128.339C128.475 10.5785 127.837 11.8239 127.937 13.164C128.597 11.9914 128.819 10.695 129.428 9.42043L130.331 9.69719C129.944 11.0373 129.12 12.0933 128.783 13.3825L131.357 10.1852L131.995 11.1538L129.127 14.0015L129.242 14.1472L132.582 12.0569L133.149 12.9819C132.144 13.5316 131.108 14.018 130.045 14.4385C131.249 14.5041 132.195 13.6155 133.4 13.8049L133.543 14.708L131.335 15.196H134.009C134.009 14.6352 134.066 14.1108 134.095 13.499L135.973 13.1858C136.308 14.643 136.424 16.1434 136.317 17.6358C135.597 17.7641 134.857 17.704 134.167 17.461C133.823 16.8784 134.296 16.1573 133.722 15.5528L133.529 16.3613C132.346 16.689 131.048 15.9753 129.801 16.1136C130.955 16.5215 132.331 16.5215 133.335 17.2353L133.041 18.1384C131.973 18.0218 131.184 17.1624 130.102 17.0896L132.697 18.7647L132.073 19.6096C131.07 19.1871 130.532 18.2767 129.658 17.6795L129.55 17.7961C130.224 18.5681 130.862 19.2527 131.557 20.0684C130.374 21.8746 129.794 18.874 128.898 18.284C129.141 19.2745 129.801 20.0903 130.124 21.0371C129.961 21.2408 129.744 21.3925 129.498 21.4738C129.253 21.5552 128.99 21.5629 128.74 21.4959C128.647 22.4937 128.417 23.557 129.328 24.2125L128.869 24.6859V27.3734C129.227 27.6502 129.586 27.9269 129.156 28.4222C129.105 29.1496 129.105 29.8797 129.156 30.6071C128.926 31.2043 129.923 31.5175 129.536 32.0638C129.034 32.8867 129.435 34.0448 129.313 34.9406C129.851 35.4504 129.844 35.4504 129.557 36.1423C129.486 37.2639 129.421 38.4438 130.088 39.4197C129.435 40.1481 129.937 41.5464 129.794 42.4787C130.31 42.9666 130.296 42.9593 130.009 43.6731C129.968 44.5885 130.016 45.5058 130.152 46.4116C130.919 46.9359 130.926 47.0379 130.202 47.5332C130.26 48.4071 130.288 49.3103 130.274 50.177C133.751 51.772 123.442 51.0655 122.625 51.0291V50.4027L123.493 50.2571V47.5186C122.941 46.9068 122.941 46.8922 123.679 46.3897C123.722 45.523 123.758 44.6345 123.801 43.6877L123.227 43.0904L124.037 42.4787C123.873 41.561 124.453 40.0607 123.55 39.3979C124.575 38.5895 124.088 37.3586 124.188 36.0986L123.679 35.5087L124.46 35.028V32.3842C123.908 31.8744 124.045 31.6559 124.632 31.1169V28.6261L124.023 27.6137L122.231 27.5482V27.3734C122.948 27.1403 123.665 27.3734 124.331 27.235L124.955 26.1717V24.7151C124.425 24.2562 124.439 24.2635 124.833 23.7828C125.242 23.1346 125.063 22.1878 125.177 21.5105L124.138 20.9788C124.46 19.879 125.263 19.0706 125.571 17.9927C124.855 18.874 124.245 19.6751 123.55 20.6074L122.704 19.879C123.422 19.2052 124.086 18.4746 124.69 17.6941C124.976 17.6941 125.113 17.5484 125.098 17.2425C124.26 17.9709 123.328 19.0706 122.188 19.158L121.722 18.3714L124.46 16.9148C123.414 17.024 122.546 17.6431 121.45 17.7669L121.163 16.9585C122.317 16.0918 123.6 16.3831 125.005 15.866C123.614 15.6548 122.417 16.3831 121.105 16.0481V15.0357C122.396 14.7153 123.607 15.3926 124.797 15.196C123.693 14.606 122.31 14.8974 121.134 14.1836L121.428 13.2805C122.654 13.4917 123.693 14.1181 124.869 14.3293C123.815 13.6519 122.589 13.5427 121.772 12.5085L122.188 11.7802C123.299 12.006 123.865 13.0839 124.969 13.4699C124.252 12.5595 123.328 12.0132 122.718 11.0883L123.435 10.4255L124.073 10.8552C124.267 11.7001 125.113 12.2609 125.593 12.9819L125.722 12.8872C125.127 12.2827 124.926 11.0082 124.03 10.8916ZM124.331 47.4531C124.058 48.2733 123.999 49.1516 124.159 50.0022L125.428 49.2738V47.8318C125.32 47.6459 125.15 47.5055 124.949 47.436C124.748 47.3665 124.529 47.3726 124.331 47.4531V47.4531ZM126.661 14.5186L126.804 14.424C127.693 14.4822 128.324 15.1887 129.213 14.8974C128.396 13.2951 127.163 12.8945 126.181 13.9069L126.661 14.5186ZM128.367 48.0211C128.116 49.1282 128.532 49.6598 129.736 49.8201C129.802 49.0099 129.684 48.1954 129.392 47.4385L128.367 48.0211ZM129.514 46.2805L129.27 43.542C127.385 43.7969 128.066 45.9163 129.514 46.2805ZM125.464 42.0854C125.399 41.1167 126.116 40.2063 124.933 39.7183C124.532 40.3156 124.425 41.2769 124.625 42.6316L125.464 42.0854ZM125.88 50.2498H127.808V49.3831C127.091 48.8077 127.048 48.7495 126.769 48.9825C126.489 49.2156 125.629 49.3685 125.88 50.2498ZM128.41 15.429C128.094 15.6376 127.858 15.951 127.743 16.3161C127.628 16.6811 127.641 17.0754 127.779 17.4319C128.848 17.1333 129.342 16.4487 129.213 15.48L128.41 15.429ZM125.442 44.0955L124.589 43.4983C124.355 44.3806 124.294 45.3013 124.41 46.2076L125.442 45.3846V44.0955ZM125.987 46.5572C126.661 46.5572 127.156 46.5572 127.772 46.5208C128.023 45.5667 127.213 45.472 126.812 45.0642L125.987 45.6104V46.5572ZM128.955 38.939C129.019 37.9986 128.964 37.0538 128.79 36.1278C127.629 36.7541 127.722 38.0505 128.955 38.939ZM129.012 40.0679L128.231 40.6579C127.98 41.6484 128.668 41.9324 129.278 42.4058C129.341 41.6164 129.251 40.8221 129.012 40.0679V40.0679ZM128.819 34.8314C128.697 34.0375 128.998 33.2509 128.518 32.508C127.55 33.3092 127.672 34.256 128.819 34.8314ZM126.037 39.0119H127.471C127.729 38.2107 127.005 38.0942 126.711 37.6572L125.994 38.2981L126.037 39.0119ZM125.83 14.2492C125.242 14.7007 125.113 15.2251 125.399 16.1719L126.324 15.6184C126.482 14.8537 126.482 14.8537 125.83 14.22V14.2492ZM125.93 42.6535C126.482 42.7987 127.062 42.7987 127.615 42.6535C127.722 41.9251 127.722 41.9251 127.235 41.4809C126.783 41.7649 126.188 41.9179 125.93 42.5806V42.6535ZM125.55 38.0942C125.758 36.8124 125.643 36.4773 124.833 36.2443V38.6186L125.55 38.0942ZM125.077 34.8969C125.923 34.5182 125.951 32.5954 125.077 32.3842V34.8969ZM126.511 15.9607L125.5 16.7327C125.959 17.0896 126.217 17.5484 126.84 17.5484C126.898 16.8929 127.163 16.303 126.518 15.8879L126.511 15.9607ZM127.464 39.7766H125.887L127.113 40.8181C127.751 40.3957 127.751 40.3957 127.471 39.7038L127.464 39.7766ZM126.03 35.2101H127.464C127.464 34.4818 127.464 34.4818 126.826 34.1759C126.253 34.4526 126.252 34.4526 126.073 35.1372L126.03 35.2101ZM126.948 30.1119C126.625 30.4979 126.066 30.7164 126.296 31.3791H127.407C127.531 31.1405 127.557 30.8616 127.479 30.6036C127.401 30.3455 127.225 30.1294 126.991 30.0026L126.948 30.1119ZM126.69 44.6199C127.063 44.263 127.529 44.1611 127.701 43.6877H125.923C126.045 44.081 126.446 44.1611 126.733 44.5107L126.69 44.6199ZM125.371 30.9276C125.787 30.3741 126.088 29.1432 125.528 28.4295L125.371 28.4877V30.9276ZM128.432 30.7018V28.7426C127.521 29.0485 127.736 30.3449 128.432 30.7091V30.7018ZM127.084 48.276C127.328 48.0066 127.858 48.0284 127.801 47.4094C127.207 47.3188 126.601 47.3712 126.03 47.5623L127.084 48.276ZM127.442 32.2531C127.226 32.1641 126.991 32.1301 126.759 32.1543C126.527 32.1784 126.303 32.2598 126.109 32.3915L126.905 33.2655C127.163 32.945 127.665 32.843 127.442 32.2604V32.2531ZM127.507 36.0768H126.073L125.994 36.237L126.855 37.06C127.041 36.6813 127.564 36.6594 127.507 36.0841V36.0768ZM128.281 24.97H128.073C127.736 25.4361 127.658 26.8126 128.281 27.0529V24.97ZM126.217 27.1549C126.585 27.2579 126.935 27.4175 127.256 27.6283C127.442 26.849 127.442 26.849 126.754 26.3902L126.217 27.1549ZM125.772 26.6597C126.002 25.3851 125.973 25.203 125.528 24.9554C125.593 25.5308 125.299 26.1353 125.772 26.6451V26.6597ZM126.389 24.9263L126.955 25.5308C127.134 25.2103 127.27 24.9627 127.45 24.6568C126.991 24.5403 126.675 24.4601 126.389 24.9117V24.9263ZM126.31 23.4696L127.285 23.6226C127.457 23.1565 127.206 22.9889 126.876 22.7996L126.31 23.4696ZM125.837 20.0538C126.234 19.5439 126.435 18.9045 126.403 18.2549C126.041 18.7858 125.843 19.415 125.837 20.0611V20.0538ZM127.063 29.2306L127.493 28.5023H126.496L126.389 28.6917L127.063 29.2306ZM126.016 41.6994L126.733 41.1094C126.496 40.8764 126.439 40.5413 126.016 40.6506V41.6994ZM127.88 18.2258C128.037 18.8375 128.188 19.4493 128.339 20.0611C128.413 19.7402 128.41 19.406 128.33 19.0865C128.25 18.7671 128.096 18.4718 127.88 18.2258V18.2258ZM125.83 49.0335L126.668 48.5164L125.951 48.1595L125.83 49.0335ZM127.98 21.9984C127.686 22.7268 127.686 22.7268 127.98 23.12V21.9984ZM127.02 21.8164L127.399 20.9497C126.926 21.1245 126.926 21.1245 127.02 21.8164V21.8164ZM125.815 23.2074H125.887V21.8164H125.815V23.2074ZM128.518 49.7982C128.403 50.4464 128.733 50.2716 129.17 50.2789L128.518 49.7982ZM127.163 44.853L127.844 45.035L127.765 44.4233L127.163 44.853ZM125.435 49.7691L124.683 50.3008C125.091 50.2716 125.421 50.4246 125.428 49.7691H125.435ZM124.898 46.4917C125.399 46.4917 125.399 46.4917 125.385 46.0547L124.898 46.4917ZM126.296 29.8934C126.554 29.5656 126.554 29.5656 126.296 29.3399V29.8934ZM126.296 33.8991C126.446 33.5495 126.446 33.5495 126.138 33.3092L126.296 33.8991ZM127.536 37.0527C127.149 37.3513 127.242 37.5188 127.536 37.7228V37.0527ZM128.195 42.2092C128.195 42.7336 128.446 42.719 128.79 42.6389L128.195 42.2092ZM128.152 46.0911C128.288 46.5791 128.475 46.5718 128.805 46.5062L128.152 46.0911ZM126.331 22.4354H126.518L126.432 22.0931H126.317L126.331 22.4354ZM126.023 44.4524C125.951 44.8748 126.023 44.9549 126.374 44.853L126.023 44.4524ZM125.607 38.7788L125.457 38.6769L125.278 38.99L125.385 39.0701L125.607 38.7788ZM126.324 37.3222L126.217 37.1765L125.959 37.4606L126.052 37.5552L126.324 37.3222Z" fill="#213782"/>
<path d="M66.0256 42.9888C66.2229 41.8736 65.4604 40.3627 66.7791 39.931V19.1922C68.5733 18.2479 66.51 14.6505 69.0039 14.3357C69.1474 13.4364 68.5912 12.3572 69.4345 11.7096C69.9099 9.81203 69.4345 7.54569 70.0714 5.62109C70.6724 7.56367 70.0714 9.77606 70.6455 11.6467C71.0955 12.4696 71.2775 13.413 71.1658 14.3447L72.0629 14.5426C72.0629 15.9815 72.96 17.1327 72.8523 18.5806C74.3863 25.2088 72.8523 32.8892 73.4354 39.8681C74.476 40.3897 73.8212 41.8916 74.0006 42.8719L74.799 43.2586V45.7228L76.0998 46.0106L76.2164 47.4405L76.943 47.9082V49.9407C72.7088 50.2915 68.4118 49.9407 64.1507 50.0666C62.7602 50.2375 63.0742 49.0234 63.0383 48.0341L63.9354 47.4855C63.9196 46.9832 63.9496 46.4804 64.0251 45.9836L65.0478 45.7768C65.6309 44.9044 64.5185 43.2226 66.0256 42.9888Z" fill="#213782"/>
<path d="M808.949 50.0742C806.172 50.4076 803.365 50.4076 800.588 50.0742V22.0777L801.611 21.8888C801.581 21.1287 801.707 20.3705 801.98 19.6608C802.253 18.951 802.668 18.3045 803.198 17.7609C805.89 17.1403 808.15 18.984 807.765 21.8619L808.94 22.0957C808.85 31.4668 808.931 40.6851 808.949 50.0742Z" fill="#213782"/>
<path d="M302.046 50.211C301.974 49.4825 301.974 49.4825 302.835 49.1318C302.71 47.7647 303.239 46.3348 302.503 44.9768C303.086 43.6368 303.4 40.9297 302.835 40.1563C303.006 38.5825 303.454 37.2334 303.149 35.7315C302.844 34.9581 302.817 34.9761 303.463 34.3825C303.32 33.0335 303.858 31.4597 303.024 30.2276C303.394 29.5043 303.617 28.714 303.679 27.9031C303.741 27.0923 303.64 26.2772 303.382 25.506C303.905 23.6913 303.936 21.7698 303.472 19.9391L301.857 19.8042V19.6513L303.526 19.5704C303.84 18.962 304.02 18.293 304.054 17.6088C304.089 16.9246 303.976 16.241 303.723 15.6043C304.08 14.578 304.259 13.4982 304.253 12.4116C304.486 11.0356 303.077 10.3971 305.15 9.98336C304.181 9.98336 304.181 9.98336 303.759 9.48872C304.154 8.76026 304.154 8.76025 305.15 8.98509V5.94531H305.338C305.751 7.03352 305.338 8.17568 305.67 9.33583H307.805C307.007 9.92041 306.163 9.33583 305.58 9.90242C306.092 10.514 306.863 10.1093 307.536 10.3161C307.742 11.0985 307.859 11.7731 307.222 12.3486C307.294 13.1401 307.374 13.9315 307.464 14.7859L309.213 14.8848C308.819 15.4334 308.263 15.0736 307.814 15.3974C307.321 17.1194 307.321 18.9456 307.814 20.6676C307.479 22.2539 307.565 23.9009 308.065 25.4431C307.24 26.963 308.065 28.9775 308.254 30.5513C307.922 31.9813 307.796 33.798 308.55 35.048C308.071 36.7316 308.124 38.5224 308.702 40.1743C307.931 41.3255 308.28 43.4929 308.882 44.752C308.655 46.1638 308.577 47.5956 308.648 49.0238C308.944 49.4105 309.501 49.5904 309.196 50.157C306.819 50.3901 304.426 50.4081 302.046 50.211V50.211ZM303.84 49.2307H307.697L305.903 47.432L303.84 49.2307ZM303.562 45.3815V48.799C304.163 48.0795 304.943 47.7378 305.356 46.9463C304.905 46.2729 304.282 45.7327 303.553 45.3815H303.562ZM307.85 44.0415C307.993 41.91 307.931 41.1456 307.527 40.4441L306.065 42.0449L307.85 44.0415ZM307.24 44.4012C306.834 43.6874 306.309 43.0487 305.688 42.5126L303.957 44.4012H307.24ZM305.544 37.4493C304.89 36.2622 304.576 35.9384 303.939 35.7945V39.3289L305.544 37.4493ZM303.535 43.7447L303.75 43.8256L305.32 42.1798L303.822 40.588C303.373 41.6942 303.652 42.7194 303.526 43.6997L303.535 43.7447ZM307.482 34.6164L307.67 34.5264C307.446 33.4382 307.617 32.305 307.276 31.0819L305.984 32.6288L307.482 34.6164ZM307.895 45.5524C307.365 46.2449 306.648 46.5057 306.415 47.2341L307.967 48.6821L308.164 48.5832C308.074 47.6298 307.984 46.6586 307.886 45.5074L307.895 45.5524ZM304.217 29.2743C305.428 28.321 305.688 27.1518 304.217 26.2435V29.2743ZM307.348 39.4728C306.827 38.8972 306.576 38.3037 305.975 37.9889C305.434 38.3624 305.003 38.875 304.728 39.4728H307.348ZM304.656 24.9484H306.675C306.602 24.2856 306.282 23.6749 305.778 23.2397L304.656 24.9484ZM305.796 28.1861C305.347 28.8156 305.105 29.1484 304.611 29.7959H306.881L305.796 28.1861ZM304.297 34.6254H306.693L305.661 33.0605L304.297 34.6254ZM307.617 38.9692V36.0913L306.415 37.4223L307.617 38.9692ZM307.249 26.3784C305.984 27.4846 305.993 27.9073 307.249 29.0764V26.3784ZM305.32 32.5389L304.244 31.1899L304.064 31.2708V33.9688L305.32 32.5389ZM305.535 22.4842L304.513 20.8025V24.175L305.535 22.4842ZM307.168 45.5164H304.916L305.903 46.6765L307.168 45.5164ZM305.051 35.7046L306.002 36.9906L307.186 35.7046H305.051ZM305.751 41.6942C305.993 41.1726 306.459 41.0197 306.54 40.5071C305.896 40.4466 305.246 40.5014 304.62 40.6689L305.751 41.6942ZM307.069 19.1387L306.746 16.7464H306.585L306.119 17.8346C306.477 18.3383 306.433 18.9408 307.069 19.1387V19.1387ZM307.069 21.396C306.119 22.4662 306.119 22.826 307.069 23.6714V21.396ZM304.979 26.0726L305.831 27.1068L306.729 26.0186C306.448 25.8849 306.14 25.82 305.829 25.8294C305.519 25.8388 305.215 25.9221 304.943 26.0726H304.979ZM305.715 32.0712L306.702 30.8661H304.818L305.715 32.0712ZM305.715 18.3293L305.159 19.5074L306.379 19.9841L306.531 19.7952L305.715 18.3293ZM304.764 12.0339V14.2462C305.571 13.1401 305.571 12.9872 304.764 12.0159V12.0339ZM304.71 18.752C305.509 17.8976 305.491 17.5468 304.71 16.8094V18.752ZM305.903 22.0166C306.092 21.5489 306.54 21.414 306.424 20.9733H305.302L305.903 22.0166ZM305.814 12.3936L306.415 11.2155L305.248 11.2964L305.814 12.3936ZM306.711 14.0754V12.0249C306.566 12.1523 306.45 12.3083 306.369 12.4831C306.288 12.6578 306.244 12.8476 306.24 13.0403C306.235 13.233 306.271 13.4244 306.344 13.6026C306.418 13.7808 306.527 13.9417 306.666 14.0754H306.711ZM305.814 17.1421L306.459 16.0449L305.275 16.1259L305.814 17.1421ZM305.284 14.7499H306.307L305.849 13.7606C305.517 14.2193 305.517 14.2193 305.221 14.7499H305.284Z" fill="#213782"/>
<path d="M1028 49.2188H0V51.2187H1028V49.2188Z" fill="#213782"/>
<path d="M967.028 25.9637H969.72C969.881 33.2035 969.72 40.4072 969.782 47.6469C969.782 49.4456 969.782 49.4456 971.577 49.4456H1005.67C1008.67 50.9115 1006.37 29.0575 1007.06 26.0627H1009.69C1009.09 24.5788 1006.38 24.5338 1004.97 23.5985V20.7296L1005.57 20.4957C1005.38 18.4273 1003.93 17.9236 1002.1 18.1844L1000.86 20.3788L1001.62 20.7655V22.1325C997.134 20.2349 994.075 21.1073 994.91 15.1626L995.591 14.7759C995.08 11.6282 991.797 11.6102 990.873 14.659L991.617 15.1087V18.1664C989.653 17.2671 988.128 16.5027 986.127 17.7348V15.1536L986.836 14.713C985.939 11.6282 982.934 11.5743 981.983 14.65L982.682 15.1626V19.1737L975.335 22.1595V19.5514L975.99 18.9579L974.887 16.9793H972.285L971.218 19.0028L971.899 19.5424V23.4995C970.312 24.3989 968.509 24.8126 966.939 25.7029L967.028 25.9637Z" fill="#213782"/>
<path d="M1023.18 12.8425C1025.36 15.8013 1030.25 17.5085 1029.79 21.5645L1028 21.7174L1028 50.2174H1000L1000 33.3295H1006.12V30.4246L1005.11 30.2447C1003.4 25.3883 1011.84 24.39 1010.01 18.913L1009.21 18.4993C1008.73 14.5602 1013.5 12.6896 1015.62 9.84766C1017.57 11.3586 1019.07 13.3371 1021 14.857L1023.18 12.8425Z" fill="#213782"/>
<path d="M919.87 24.7606C921.126 24.3559 921.26 24.1671 921.26 22.89C921.063 21.586 922.023 18.852 919.933 18.9779C917.394 18.9779 914.909 18.9149 912.361 19.0318C911.678 20.7847 911.646 22.7254 912.272 24.4998L913.375 24.6797V25.3452H908.809C908.396 26.0287 908.746 26.3435 909.266 26.5683C909.437 28.7357 908.647 30.6783 908.863 32.8008C909.491 33.835 909.177 35.0042 909.311 36.1643C910.478 36.7309 911.751 36.2183 913.025 36.533C913.214 41.0298 912.962 45.5265 913.133 49.9422C913.967 50.1491 943.418 50.1941 944.584 49.9872C944.773 45.6524 944.522 41.2996 944.584 36.9647C945.078 37.0457 945.481 37.0816 945.625 36.4701L945.141 35.6337H942.099C942.467 32.6209 942.1 29.707 942.279 26.8021C941.498 26.3435 940.7 26.7212 939.929 26.4784L939.776 24.8146C938.036 24.7427 936.349 24.8146 934.708 24.8146L933.73 24.0322L933.595 23.0429H921.933L921.826 25.2193C920.471 25.4981 920.112 25.4262 919.87 24.7606ZM937.372 26.6583C936.699 29.5541 937.372 32.6029 937.058 35.6517C935.91 35.6517 934.824 35.6966 933.703 35.5977V29.797L934.483 29.2484V25.4441C936.08 25.0934 937.569 25.5071 939.211 25.4441L939.157 26.5503L937.372 26.6583ZM914.218 25.3002L914.129 25.1114C915.447 24.6887 918.076 24.4639 919.26 25.3002H914.218Z" fill="#213782"/>
<path d="M822.51 7.5181L820.519 7.644C820.025 13.5797 820.519 19.5873 820.097 25.5499H817.119L816.998 50.2172C816.998 50.2172 833.347 50.075 841.573 50.075C841.815 49.3195 841.878 26.863 841.636 25.6668C836.89 25.469 832.208 25.6668 827.426 25.6039C827.256 21.6198 827.902 17.7706 826.179 14.2452C826.134 12.6264 826.457 10.8277 825.964 9.2898C825.571 8.78663 825.289 8.20638 825.134 7.58667C824.98 6.96695 824.957 6.3216 825.067 5.69243C824.28 5.5014 823.463 5.46476 822.663 5.58451L822.51 7.5181ZM828.018 28.9404V26.1974L829.059 26.3863V28.9135L828.018 28.9404ZM829.741 28.9404C829.69 28.04 829.723 27.1368 829.839 26.2424L830.835 26.4762V28.8955L829.741 28.9404ZM838.335 28.9404C838.514 27.9152 837.689 25.7478 839.438 26.4223C839.555 27.2576 839.555 28.1051 839.438 28.9404H838.335ZM840.03 26.3863L841.115 26.2694C841.215 27.1678 841.19 28.0756 841.044 28.9674L840.03 28.8955V26.3863ZM832.468 29.0124L831.409 28.9225C831.309 28.0217 831.355 27.1107 831.544 26.2244L832.441 26.2784L832.468 29.0124ZM818.518 26.3144V29.0124L817.621 28.9494V26.3413L818.518 26.3144ZM834.988 26.3144H835.948C836.004 27.2137 835.986 28.1161 835.894 29.0124L834.997 28.9494L834.988 26.3144ZM834.091 26.3144C834.233 27.2081 834.233 28.1187 834.091 29.0124L833.194 28.9494V26.3413L834.091 26.3144ZM837.68 29.0124L836.783 28.9135V26.2154L837.68 26.3413V29.0124ZM822.986 6.07015H824.511V7.49112H822.986V6.07015ZM819.397 28.9764C819.258 28.0825 819.258 27.1723 819.397 26.2784L820.088 26.3593V28.8955L819.397 28.9764ZM820.958 8.59731C821.299 8.0667 821.649 8.12965 822.115 8.36348C821.783 8.8761 821.434 8.84013 820.967 8.59731H820.958ZM821.245 13.2829V14.3261C820.868 13.9214 820.904 13.6066 821.254 13.2829H821.245ZM821.245 9.54162C821.318 9.70916 821.345 9.89286 821.325 10.0744C821.304 10.2559 821.237 10.4288 821.129 10.5759C820.895 10.1352 820.877 9.82041 821.245 9.54162ZM821.326 12.2396H821.057C820.985 11.9519 820.743 11.6641 821.245 11.1874C821.281 11.7 821.299 11.9878 821.326 12.2756V12.2396Z" fill="#213782"/>
<path d="M976.717 13.6623L975.766 13.3205C977.56 3.42778 972.779 9.22854 972.267 2.60938C971.792 2.8522 971.863 3.23892 971.917 3.50872C972.025 7.95147 966.481 4.72283 968.598 12.718H963.278C963.575 24.7152 963.512 37.5039 963.494 49.8249C964.391 50.0497 975.631 50.0857 976.663 49.9058C977.084 37.9895 976.86 25.6685 976.717 13.6623Z" fill="#213782"/>
<path d="M840.837 35.5141H838.603C838.725 35.9464 838.725 36.4038 838.603 36.8361C839.33 36.9247 840.061 36.9578 840.792 36.935C839.967 37.2228 839.124 36.7102 838.433 37.4656C839.267 37.9693 840.093 37.6005 840.846 37.7984C840.111 38.0142 839.312 37.6365 838.648 38.0232V40.1097H840.828C840.084 40.4335 839.24 40.0198 838.469 40.5684C839.043 41.5666 839.994 40.8202 840.613 41.1889L838.603 41.2878V42.5199H840.613C839.949 42.8707 839.124 42.3401 838.469 43.0955C839.079 43.8869 839.967 43.3024 840.774 43.6621H838.648V45.8565L840.783 45.9554V45.9824L838.514 46.0993C838.792 46.6209 838.792 46.6209 840.783 46.7918L838.675 46.8907L838.595 48.1138C839.222 48.5365 839.949 48.1678 840.613 48.4286C839.877 48.5545 838.962 48.0689 838.451 48.8513C839.169 49.3639 839.931 49.0042 840.658 49.1841C839.967 49.3909 839.231 49.0671 838.397 49.5528C842.264 50.1284 863.856 49.6787 865.076 49.5528C865.256 48.7973 865.292 37.8613 865.076 36.7282L864.134 36.3954C864.134 35.0104 862.564 35.577 861.64 35.1813C861.434 33.3826 861.793 31.6559 861.389 29.9111L860.304 29.7942C859.801 28.6521 860.169 28.3013 858.608 28.2204C855.648 27.8696 852.759 27.1592 849.781 26.9883L849.62 28.787H843.618L843.349 30.6396H838.586V31.9886L840.891 32.0965C840.066 32.3214 839.267 31.9616 838.451 32.4113C839.07 33.2567 839.958 32.6721 840.622 32.9509L838.648 33.0499V34.3089C839.312 34.6867 840.111 34.3089 840.846 34.5248C840.084 34.7586 839.213 34.3359 838.451 34.8575C839.07 35.6669 839.958 35.1453 840.774 35.2802L840.837 35.5141Z" fill="#213782"/>
<path d="M945.042 13.4795L943.992 14.7835V43.8143L942.62 43.9492C942.331 45.7695 942.283 47.6202 942.476 49.4532C947.59 49.837 952.725 49.87 957.843 49.5521C958.077 47.7298 958.114 45.8873 957.951 44.0571L957.179 43.7244V21.7984L956.282 21.3307V15.6739C957.179 15.2332 957.242 14.6126 957.179 13.6773L956.211 13.3625C957.807 13.0388 956.991 11.303 957.179 10.1159L956.282 9.7202L956.031 9.05469H950.101C949.745 9.38159 949.47 9.7879 949.298 10.2409C949.127 10.6939 949.064 11.181 949.115 11.6628H946.181C945.974 11.8761 945.842 12.1519 945.806 12.4477C945.771 12.7435 945.833 13.0428 945.984 13.2996H948.137V13.4795H945.042Z" fill="#213782"/>
<path d="M876.898 12.5376L876.172 12.2678C876.782 10.7389 875.786 8.83231 876.8 7.51027C874.243 5.9724 869.91 7.36638 866.77 6.9257C865.927 6.9257 865.873 7.11456 866.196 7.96894C866.564 9.3899 865.963 10.8828 866.618 12.2678C865.272 15.5144 866.447 20.2 865.927 23.9593L864.833 23.1319C864.555 31.9094 864.833 40.6331 864.725 49.4197C869.148 49.73 873.588 49.73 878.011 49.4197C877.777 43.9696 879.123 37.8901 876.907 33.0606C876.916 26.1986 876.898 19.3726 876.898 12.5376Z" fill="#213782"/>
<path d="M888.185 23.3919L888.06 24.2912C886.364 23.23 887.88 20.1633 887.01 18.3916L886.84 19.129C885.584 17.9509 886.893 15.118 886.203 13.3912L885.996 14.1107C885.189 13.2113 886.481 11.017 885.054 10.3964C882.874 9.39813 884.561 6.63715 883.691 4.86545C884.032 3.2826 883.592 1.76271 883.601 0L882.578 0.449671C882.489 3.0038 882.399 5.477 882.3 8.0761L882.794 8.3459L882.175 8.94846L882.094 9.77586C880.183 10.5223 880.542 12.1591 880.551 13.9038L879.959 14.3715C879.69 15.8824 880.174 17.9689 879.483 19.165L879.25 18.4545C878.972 20.0553 879.25 21.944 879.152 23.6887L878.353 24.3992C878.237 24.0125 878.147 23.7157 878.066 23.4189C877.869 24.3182 877.824 48.6634 878.066 49.8506C879.86 49.7337 888.831 51.1726 888.526 48.8523C888.463 40.3805 888.696 31.9087 888.391 23.4459L888.185 23.3919Z" fill="#213782"/>
<path d="M903.991 50.211C904.063 49.4825 904.063 49.4825 903.202 49.1318C903.327 47.7647 902.798 46.3348 903.534 44.9768C902.951 43.6368 902.637 40.9297 903.202 40.1563C903.031 38.5825 902.583 37.2334 902.888 35.7315C903.193 34.9581 903.22 34.9761 902.574 34.3825C902.717 33.0335 902.179 31.4597 903.013 30.2276C902.643 29.5043 902.42 28.714 902.358 27.9031C902.297 27.0923 902.397 26.2772 902.655 25.506C902.132 23.6913 902.101 21.7698 902.565 19.9391L904.18 19.8042V19.6513L902.511 19.5704C902.197 18.962 902.017 18.293 901.983 17.6088C901.949 16.9246 902.061 16.241 902.314 15.6043C901.957 14.578 901.778 13.4982 901.784 12.4116C901.551 11.0356 902.96 10.3971 900.887 9.98336C901.856 9.98336 901.856 9.98336 902.278 9.48872C901.883 8.76026 901.883 8.76025 900.887 8.98509V5.94531H900.699C900.286 7.03352 900.699 8.17568 900.367 9.33583H898.232C899.03 9.92041 899.874 9.33583 900.457 9.90242C899.945 10.514 899.174 10.1093 898.501 10.3161C898.295 11.0985 898.178 11.7731 898.815 12.3486C898.743 13.1401 898.663 13.9315 898.573 14.7859L896.824 14.8848C897.218 15.4334 897.775 15.0736 898.223 15.3974C898.716 17.1194 898.716 18.9456 898.223 20.6676C898.559 22.2539 898.472 23.9009 897.972 25.4431C898.797 26.963 897.972 28.9775 897.784 30.5513C898.115 31.9813 898.241 33.798 897.487 35.048C897.966 36.7316 897.913 38.5224 897.335 40.1743C898.106 41.3255 897.757 43.4929 897.156 44.752C897.382 46.1638 897.46 47.5956 897.389 49.0238C897.093 49.4105 896.537 49.5904 896.842 50.157C899.218 50.3901 901.611 50.4081 903.991 50.211V50.211ZM902.197 49.2307H898.34L900.134 47.432L902.197 49.2307ZM902.475 45.3815V48.799C901.874 48.0795 901.094 47.7378 900.681 46.9463C901.132 46.2729 901.755 45.7327 902.484 45.3815H902.475ZM898.187 44.0415C898.044 41.91 898.106 41.1456 898.51 40.4441L899.972 42.0449L898.187 44.0415ZM898.797 44.4012C899.203 43.6874 899.728 43.0487 900.349 42.5126L902.081 44.4012H898.797ZM900.493 37.4493C901.148 36.2622 901.462 35.9384 902.098 35.7945V39.3289L900.493 37.4493ZM902.502 43.7447L902.287 43.8256L900.717 42.1798L902.215 40.588C902.664 41.6942 902.386 42.7194 902.511 43.6997L902.502 43.7447ZM898.555 34.6164L898.367 34.5264C898.591 33.4382 898.42 32.305 898.761 31.0819L900.053 32.6288L898.555 34.6164ZM898.142 45.5524C898.672 46.2449 899.389 46.5057 899.623 47.2341L898.071 48.6821L897.873 48.5832C897.963 47.6298 898.053 46.6586 898.151 45.5074L898.142 45.5524ZM901.82 29.2743C900.609 28.321 900.349 27.1518 901.82 26.2435V29.2743ZM898.69 39.4728C899.21 38.8972 899.461 38.3037 900.062 37.9889C900.603 38.3624 901.034 38.875 901.309 39.4728H898.69ZM901.381 24.9484H899.362C899.435 24.2856 899.756 23.6749 900.259 23.2397L901.381 24.9484ZM900.242 28.1861C900.69 28.8156 900.932 29.1484 901.426 29.7959H899.156L900.242 28.1861ZM901.74 34.6254H899.344L900.376 33.0605L901.74 34.6254ZM898.42 38.9692V36.0913L899.623 37.4223L898.42 38.9692ZM898.788 26.3784C900.053 27.4846 900.044 27.9073 898.788 29.0764V26.3784ZM900.717 32.5389L901.793 31.1899L901.973 31.2708V33.9688L900.717 32.5389ZM900.502 22.4842L901.524 20.8025V24.175L900.502 22.4842ZM898.869 45.5164H901.121L900.134 46.6765L898.869 45.5164ZM900.986 35.7046L900.035 36.9906L898.851 35.7046H900.986ZM900.286 41.6942C900.044 41.1726 899.578 41.0197 899.497 40.5071C900.141 40.4466 900.791 40.5014 901.417 40.6689L900.286 41.6942ZM898.968 19.1387L899.291 16.7464H899.452L899.919 17.8346C899.56 18.3383 899.605 18.9408 898.968 19.1387V19.1387ZM898.968 21.396C899.919 22.4662 899.919 22.826 898.968 23.6714V21.396ZM901.058 26.0726L900.206 27.1068L899.309 26.0186C899.589 25.8849 899.897 25.82 900.208 25.8294C900.518 25.8388 900.822 25.9221 901.094 26.0726H901.058ZM900.322 32.0712L899.335 30.8661H901.219L900.322 32.0712ZM900.322 18.3293L900.878 19.5074L899.658 19.9841L899.506 19.7952L900.322 18.3293ZM901.273 12.0339V14.2462C900.466 13.1401 900.466 12.9872 901.273 12.0159V12.0339ZM901.327 18.752C900.529 17.8976 900.547 17.5468 901.327 16.8094V18.752ZM900.134 22.0166C899.945 21.5489 899.497 21.414 899.614 20.9733H900.735L900.134 22.0166ZM900.224 12.3936L899.623 11.2155L900.789 11.2964L900.224 12.3936ZM899.327 14.0754V12.0249C899.471 12.1523 899.587 12.3083 899.668 12.4831C899.749 12.6578 899.793 12.8476 899.797 13.0403C899.802 13.233 899.766 13.4244 899.693 13.6026C899.619 13.7808 899.51 13.9417 899.371 14.0754H899.327ZM900.224 17.1421L899.578 16.0449L900.762 16.1259L900.224 17.1421ZM900.753 14.7499H899.73L900.188 13.7606C900.52 14.2193 900.52 14.2193 900.816 14.7499H900.753Z" fill="#213782"/>
</svg>
