<svg width="1030" height="51" viewBox="0 0 1030 51" fill="none" xmlns="http://www.w3.org/2000/svg">
<path d="M1023.35 12.8072L1021.18 14.7975C1019.25 13.2849 1017.75 11.3145 1015.8 9.82185C1013.68 12.648 1008.91 14.5089 1009.39 18.4297L1010.19 18.8377C1011.08 21.4847 1009.55 23.0769 1007.94 24.5696C1006.98 24.323 1006.05 23.9691 1005.18 23.5147V20.6587L1005.78 20.4299C1005.59 18.37 1004.14 17.8624 1002.3 18.1212L1001.06 20.3104L1001.82 20.6985V22.0519C997.344 20.1711 994.284 21.0568 995.114 15.086L995.794 14.7079C995.284 11.5733 992.003 11.5534 991.073 14.5885L991.823 15.0363V18.0814C989.823 17.1858 988.332 16.4195 986.332 17.6535V15.106L987.042 14.6681C986.142 11.6031 983.132 11.5434 982.181 14.6084L982.882 15.1159V19.0964L977.01 21.4747C977.01 18.8476 976.951 16.2205 976.92 13.6133L975.92 13.2749C977.711 3.43317 972.92 9.20488 972.42 2.61717C972.255 2.69122 972.126 2.82646 972.061 2.9939C971.995 3.16133 971.999 3.34761 972.07 3.51278C972.18 7.93112 966.629 4.71688 968.749 12.6779H963.428C963.718 24.4203 963.658 36.919 963.648 48.9998H958.027C958.22 47.2947 958.244 45.5747 958.097 43.865L957.327 43.5366V21.7235L956.427 21.2558V15.6334C957.327 15.1856 957.427 14.5686 957.327 13.6431L956.327 13.3247C957.927 13.0062 957.107 11.2747 957.327 10.1005L956.427 9.70244L956.167 9.04566H950.266C949.908 9.36742 949.634 9.77021 949.466 10.2199C949.294 10.6701 949.229 11.1537 949.276 11.633H946.345C946.141 11.8479 946.011 12.1224 945.975 12.4162C945.939 12.7099 945.999 13.0074 946.145 13.265H948.305V13.4441H945.165L944.165 14.7477V35.486H942.264C942.634 32.5007 942.264 29.5949 942.444 26.6991C941.664 26.2414 940.864 26.6195 940.094 26.3807L939.944 24.7188C938.194 24.6492 936.513 24.7188 934.873 24.7188L933.873 23.9426L933.733 22.9475H922.091L921.991 25.1169C920.631 25.3955 920.271 25.3159 919.991 24.6591C921.251 24.2511 921.381 24.072 921.381 22.7982C921.181 21.4946 922.141 18.8178 920.051 18.9073C917.51 18.9073 915.05 18.8377 912.479 18.9571C911.8 20.7033 911.768 22.6329 912.389 24.4004L913.489 24.5795V25.2363H908.929C908.519 25.9229 908.859 26.2314 909.389 26.4603C909.559 28.6098 908.769 30.5502 908.979 32.6599C909.609 33.655 909.299 34.8492 909.429 36.0035C910.599 36.5707 911.869 36.0632 913.139 36.3717C913.319 40.601 913.139 44.8302 913.239 48.9998H903.528L903.318 48.9102C903.448 47.5469 902.918 46.1239 903.648 44.7805C903.068 43.447 902.758 40.8 903.318 39.984C903.148 38.4117 902.698 37.0683 903.008 35.5756C903.308 34.8094 903.338 34.8293 902.688 34.2322C902.838 32.8888 902.297 31.3264 903.128 30.1024C902.759 29.38 902.538 28.5919 902.477 27.7838C902.418 26.9798 902.517 26.172 902.768 25.4055C902.248 23.5979 902.217 21.686 902.678 19.8626L904.298 19.7233V19.574L902.628 19.4944C902.313 18.8751 902.133 18.1971 902.097 17.5042C902.067 16.8252 902.18 16.1474 902.427 15.514C902.076 14.4921 901.897 13.4195 901.897 12.3395C901.667 10.9762 903.078 10.3493 901.007 9.92136C902.007 9.92136 902.007 9.92137 902.397 9.43376C901.997 8.70732 901.997 8.70732 901.007 8.92624V5.94088H900.817C900.407 7.02556 900.817 8.16995 900.487 9.32429H898.347C899.147 9.90146 899.987 9.32429 900.577 9.88156C900.067 10.4886 899.287 10.0905 898.577 10.2995C898.367 11.0757 898.257 11.7424 898.897 12.2898C898.817 13.0759 898.737 13.862 898.647 14.7179L896.896 14.8074C897.297 15.3547 897.847 14.9965 898.297 15.3249C898.797 17.0376 898.797 18.8564 898.297 20.5692C898.635 22.1457 898.549 23.7832 898.047 25.3159C898.877 26.8285 898.047 28.8386 897.857 30.401C898.307 31.8794 898.204 33.4703 897.567 34.879C898.043 36.5525 897.991 38.3312 897.417 39.974C898.187 41.1184 897.837 43.2779 897.237 44.5317C897.458 45.9367 897.535 47.3604 897.467 48.7809L897.287 48.9799H888.555C888.581 48.8586 888.581 48.7331 888.555 48.6117C888.485 40.183 888.725 31.7543 888.415 23.3356L888.205 23.2759L888.085 24.1715C886.385 23.1167 887.905 20.0617 887.085 18.3003L886.915 19.0367C885.655 17.8624 886.915 15.0562 886.275 13.3247L886.075 14.0412C885.264 13.1456 886.555 10.9662 885.074 10.3493C882.894 9.35415 884.584 6.60761 883.714 4.84624C884.054 3.264 883.614 1.75141 883.624 0L882.624 0.447805C882.534 2.98537 882.444 5.42341 882.344 8.04059L882.834 8.30927L882.214 8.90634L882.134 9.73229C880.224 10.4687 880.584 12.1007 880.594 13.8322L880.004 14.2999C879.733 15.8025 880.214 17.8823 879.523 19.0765L879.293 18.36C879.169 20.0952 879.135 21.8357 879.193 23.5744L878.393 24.281C878.283 23.8929 878.193 23.6043 878.113 23.2859C878.013 23.7337 877.953 29.9333 877.943 36.2224C877.758 35.0723 877.422 33.9515 876.943 32.8888C876.943 26.0622 876.943 19.2656 876.943 12.4689L876.213 12.2002C876.823 10.6777 875.833 8.77698 876.843 7.46341C874.283 5.93093 869.952 7.3241 866.841 6.87629C866.001 6.87629 865.941 7.06537 866.271 7.87142C866.641 9.28449 866.031 10.7672 866.691 12.1504C865.341 15.3746 866.521 20.0418 866.001 23.7834L864.901 22.9575C864.761 27.4355 864.761 31.9136 864.791 36.3618L864.201 36.1627C864.201 34.7795 862.63 35.3467 861.71 34.9487C861.5 33.1575 861.86 31.4459 861.46 29.7044L860.37 29.5949C859.87 28.4505 860.24 28.1022 858.68 28.0226C855.679 27.6743 852.829 26.9678 849.848 26.7986L849.688 28.5899H843.687L843.417 30.4308H841.837C841.837 27.7639 841.767 25.8135 841.707 25.4552C836.956 25.2562 832.275 25.4552 827.484 25.3856C827.324 21.4051 827.964 17.5938 826.244 14.0909C826.244 12.4788 826.524 10.6876 826.024 9.11532C825.63 8.61476 825.346 8.03664 825.193 7.41911C825.039 6.80158 825.019 6.15869 825.134 5.53288C824.344 5.34752 823.527 5.3104 822.724 5.42341L822.574 7.35395L820.573 7.47337C820.073 13.3844 820.573 19.4148 820.153 25.296H818.143C818.143 22.43 818.143 19.5442 818.083 16.5986L817.313 16.3698C817.633 14.0312 816.522 12.1504 815.622 10.1104C814.922 8.89639 812.992 9.74224 811.812 9.49346C809.931 10.6478 809.211 14.0511 809.321 16.2404L808.571 16.5389C808.571 16.8673 808.501 18.8775 808.481 21.7335L807.941 21.624C808.061 21.0194 808.021 20.3941 807.825 19.8095C807.629 19.2249 807.284 18.7011 806.823 18.2895C806.362 17.878 805.801 17.5928 805.196 17.4621C804.59 17.3314 803.961 17.3596 803.37 17.544C802.838 18.0856 802.423 18.7294 802.15 19.436C801.876 20.1426 801.75 20.8973 801.78 21.6539L800.78 21.8429V49.0098H793.659C793.776 48.4287 793.752 47.8283 793.589 47.2583C793.218 46.1936 794.029 45.1288 793.498 44.0341C793.66 43.9667 793.805 43.8636 793.921 43.7326C794.037 43.6016 794.122 43.4461 794.169 43.2779C794.209 43.111 794.209 42.9372 794.169 42.7703C794.143 42.5987 794.078 42.4352 793.979 42.2927L791.978 41.6459L792.078 40.8796L793.999 40.2626V38.8396C793.158 38.5112 791.828 38.8396 792.088 37.4862L794.089 36.7499L794.009 35.3368L792.008 34.8691L791.938 33.9735L793.939 33.466V31.9335L791.938 31.2966L792.078 30.401L793.959 29.9333V28.4804C793.168 28.0823 791.578 28.2515 792.068 27.0176L793.929 26.4603C794.028 26.2273 794.079 25.9769 794.079 25.7239C794.079 25.4709 794.028 25.2205 793.929 24.9875L791.988 24.3506L792.048 23.5645L794.049 22.9276V21.4747C793.198 21.1364 791.818 21.5245 792.118 20.1612L794.119 19.385L793.999 17.942L791.998 17.4544L792.058 16.5588L794.009 16.0712V14.6581C793.408 14.3689 792.782 14.1357 792.138 13.9616C791.768 12.4788 793.138 12.9664 794.069 12.5385V11.0956C793.178 11.225 793.558 10.4687 793.178 10.1005L792.038 9.88156L791.648 9.29444H784.407L783.947 10.001C782.717 9.48351 782.847 10.7473 782.016 11.2747V12.6978C782.887 13.046 784.357 12.6978 784.017 14.0611L781.916 14.7278L781.996 16.1707L783.997 16.6683V17.5639L781.996 18.0416V19.4546L784.117 20.1811C784.117 21.5742 782.907 21.1264 782.006 21.5046V22.9177C782.767 23.3257 784.467 23.1266 784.057 24.3407L782.056 24.9776V26.4006C784.977 26.938 784.697 27.9032 782.056 28.4804V29.8835C782.917 30.2418 784.307 29.8238 784.127 31.217L781.996 31.9434L782.056 33.3465L784.127 33.8939L784.077 34.7895L782.076 35.3368V36.7499L784.207 37.4564C784.207 38.7998 782.997 38.4515 782.096 38.7998V40.2228C784.787 40.8299 784.787 41.7354 782.096 42.3026C781.926 43.4172 781.926 43.4172 782.557 44.2033C782.697 45.7657 782.557 47.338 782.657 48.97H776.485C776.375 39.2874 776.706 29.575 776.365 19.9522C775.365 19.8129 774.565 20.0915 774.565 18.8675C774.235 16.4096 773.755 14.0014 773.225 11.5733H766.394C766.094 12.439 765.053 13.7327 766.174 14.4392L765.594 14.688L765.244 16.2006L766.144 16.6185L765.244 16.7479C765.053 17.3151 764.753 17.8425 765.123 18.4496L766.124 18.5789C765.053 18.4396 763.853 19.574 765.053 20.4896C764.223 20.9274 764.313 21.6638 764.363 22.4798C764.958 22.538 765.556 22.5612 766.154 22.5495C765.494 22.858 764.733 22.4898 764.103 23.047L763.823 24.4999L766.194 24.5994L766.124 24.8084H763.873C763.713 25.5249 763.333 25.9627 763.473 26.5996C764.373 26.9977 765.264 26.5996 766.164 26.9977H763.473C763.294 27.2673 763.178 27.5733 763.133 27.8933C763.089 28.2005 763.117 28.5136 763.213 28.8088H766.094C763.663 29.0576 762.163 28.57 762.703 31.7344C764.173 37.3967 763.703 43.2181 763.703 49.0098H758.512C758.342 35.8741 758.842 22.6589 758.322 9.59297C757.872 11.2946 758.242 13.0361 757.812 14.6681C754.112 16.2603 748.571 17.5739 747.42 21.8131V49.0098H741.239V16.5986L740.349 16.2603V11.9713L739.349 11.7126C738.759 10.5085 739.969 8.42868 738.449 7.89132C738.309 6.73698 738.549 5.63239 738.309 4.57756C735.432 4.35865 732.544 4.35865 729.667 4.57756V49.0098H723.466V36.6105L724.366 36.2324C724.536 34.9885 724.516 34.2421 724.276 33.9436L723.376 33.6849C722.726 29.8039 722.516 25.7239 721.836 21.9325C721.42 21.8135 720.984 21.783 720.556 21.8429C720.132 21.9023 719.724 22.0443 719.356 22.2609C719.025 26.0622 718.625 30.0129 717.905 33.8441L716.385 33.7645C716.135 31.5056 716.175 29.3063 715.385 27.2166C715.895 25.5647 714.915 23.6341 714.995 21.8529C714.23 21.6361 713.425 21.602 712.644 21.7534C712.174 24.1715 711.584 27.0375 711.994 29.3959C711.684 30.0228 711.134 30.5104 711.684 31.1871C711.464 31.9832 711.334 32.8788 711.104 33.7744H710.204L709.794 32.2718C710.116 31.625 710.215 30.8903 710.074 30.182C710.055 29.9861 710.082 29.7883 710.154 29.6049C710.228 29.4217 710.349 29.2607 710.504 29.1372C711.114 28.56 710.834 27.744 710.874 26.928C704.873 26.928 698.872 26.5598 692.931 27.0574C693.051 28.0525 692.451 29.0476 693.751 29.6845V49.0098H687.75V37.9539L686.65 37.6853C686.57 28.1719 686.78 18.6685 686.57 9.16507H665.936C665.556 18.7083 666.276 28.2316 665.746 37.735L664.416 37.9241V49.0098H658.675V47.6763L657.895 47.2981C657.795 42.0837 657.625 36.9091 657.895 31.7245L658.655 31.3463V30.3512L657.875 30.0129C657.965 28.6098 657.385 27.336 657.505 25.9229L656.745 25.5547L656.595 24.1218L655.594 23.873L655.444 22.5097C653.828 22.2581 652.179 22.3121 650.583 22.6689L650.434 23.8829L649.533 24.1516C649.433 24.9079 649.583 25.7438 648.533 25.9428V27.734H646.193L646.113 25.903C644.642 25.4851 645.023 26.7986 644.913 27.6942H642.012L641.892 25.903C640.412 25.5249 640.952 26.8185 640.892 27.754C639.891 27.8196 638.887 27.793 637.891 27.6743L637.741 25.8831C636.301 25.6244 636.851 26.8782 636.741 27.6743H633.741L633.601 25.8831C632.16 25.5746 632.69 26.8782 632.54 27.6743H629.73C629.44 27.0474 629.81 26.3309 629.29 25.8334C628.01 25.6741 628.53 26.9081 628.39 27.6743H627.069L626.949 25.8831L626.289 25.5149L626.049 24.0919L625.049 23.8033L624.889 22.4101C623.284 22.3007 621.673 22.3007 620.068 22.4101L619.898 23.8431L618.898 24.082L618.778 25.5348L618.088 25.8334C617.858 26.6195 618.308 27.4554 617.538 28.0923C617.439 28.7509 617.412 29.4182 617.458 30.0825C616.107 30.0029 616.318 31.6051 617.458 31.7344V39.8347C610.176 39.4765 598.034 38.5311 596.524 29.8835C596.524 28.8287 596.674 27.6246 595.774 26.8981C595.445 27.1887 595.202 27.564 595.074 27.9828C594.954 28.4024 594.954 28.8469 595.074 29.2665C593.944 28.8287 594.464 27.943 593.884 27.2265C593.064 26.9579 593.133 27.7938 593.284 28.361L592.383 29.3063C592.478 28.9307 592.478 28.5376 592.383 28.162C592.283 27.7911 592.094 27.4497 591.833 27.1668C590.833 27.4853 591.073 28.7491 590.833 29.5949C586.252 29.167 581.151 30.59 576.911 28.8784C572.91 30.5303 567.979 29.2864 563.688 29.5551C563.108 28.7192 563.558 27.5649 562.688 26.928C561.788 27.4654 562.008 28.3709 561.788 29.3163L560.988 28.3212C561.388 27.0176 559.988 26.6494 560.088 27.9132C560.208 28.5003 559.788 28.7889 559.318 29.167C559.39 28.7902 559.356 28.4008 559.218 28.0425C559.078 27.6821 558.843 27.3658 558.537 27.127C557.207 28.56 558.477 30.8189 557.537 32.4111C552.946 39.0685 543.985 39.2078 536.814 40.2228V22.3106C537.254 14.2601 537.174 11.5932 530.753 6.09015V17.5639C530.383 15.713 529.902 13.9218 529.462 12.1305C528.212 13.9616 528.092 15.9518 527.092 17.8425L525.692 18.0416V27.336C525.112 26.7389 524.792 26.102 523.811 26.4802L522.591 28.0624H520.491V21.1861L519.271 19.6835C518.03 20.5891 517.19 21.2459 515.61 20.6786C515.42 18.3301 516.07 15.922 515.26 13.7128L515.09 15.0164C514.827 14.4593 514.453 13.9615 513.99 13.5536C513.527 13.1497 512.986 12.8449 512.399 12.658C511.029 12.1504 509.399 13.6531 508.699 14.8373L508.519 13.6829C507.289 14.5785 508.399 18.9272 508.039 20.7781C504.908 21.624 505.378 18.1411 503.168 21.2061C503.168 23.3456 503.228 25.6841 503.168 28.0823L500.897 27.9828C498.817 25.2761 497.897 26.4006 497.497 28.978C495.907 28.8386 494.046 29.2168 492.586 29.1471C492.056 30.0626 491.526 30.9582 490.926 31.9733C490.629 29.5337 490.512 27.0758 490.576 24.6193L490.476 22.2509C490.325 21.5927 490.349 20.9067 490.546 20.2607C490.406 18.7381 490.676 18.2704 488.975 17.6336C488.815 21.5444 488.575 25.3557 488.665 29.1869C488.225 30.1124 488.785 31.1772 488.345 32.1723C486.495 32.0827 484.134 32.1723 482.794 33.4062C482.794 25.1567 482.794 16.6484 482.684 15.8423L481.594 14.7179C478.714 15.1856 474.663 13.7227 472.302 15.3846C470.232 14.9766 469.052 16.519 471.822 16.3797V17.7132C469.622 17.4047 469.692 18.9869 471.822 18.758V19.9621C471.282 20.3303 470.502 19.7233 470.202 20.4995C470.492 21.3852 471.352 20.8777 471.832 21.216V22.4101L470.352 22.5594C470.232 23.5545 471.172 23.3058 471.842 23.6142V24.9079C471.242 24.9079 470.722 24.9079 470.342 25.3955C470.682 25.9229 471.282 25.8732 471.842 25.9229V27.1967C469.842 27.2862 469.842 28.2913 471.842 28.2913V29.5054C470.342 29.7342 470.342 29.7342 470.502 30.5005L471.852 30.6498V31.8738L470.372 32.0429L470.422 32.849L471.852 33.0281V34.272L470.392 34.4213C470.222 35.4164 471.182 35.1577 471.832 35.4164V36.6205L470.402 36.7399C470.102 37.9042 471.242 37.4962 471.852 37.8146V38.9889L470.452 39.1282C470.452 39.8845 470.452 39.8845 471.832 40.1233V41.3175L470.342 41.4866C470.602 43.0689 472.242 41.3871 471.832 43.7157L470.352 43.855C470.682 45.3975 472.232 43.7953 471.822 46.104L470.402 46.2234C470.102 47.4275 471.462 46.5618 471.852 47.2185C471.919 47.7898 471.936 48.3659 471.902 48.9401H459.24C459.38 43.9645 459.36 26.5399 459.14 25.8035L456.33 25.7438V16.3399L457.16 16.111C457.55 14.5586 457.54 13.673 457.11 12.8968C454.234 12.7359 451.351 12.7591 448.478 12.9664C448.318 17.2355 448.528 21.5444 448.388 25.8135H447.138C446.968 24.4302 447.218 23.1067 446.968 21.7434C444.608 21.6738 442.457 21.833 440.117 21.6738C440.957 14.7079 438.116 17.0663 433.046 16.6484C428.875 16.32 432.045 33.1475 431.045 36.7299L429.925 36.929C429.785 40.0039 429.765 43.0788 429.845 46.1538L429.065 46.0443L428.945 44.0541L427.755 43.8152C427.645 40.7602 427.925 37.8445 427.645 34.8591C426.354 34.67 425.094 34.8591 423.844 34.67C423.754 32.8788 423.664 31.1374 423.574 29.3461C419.813 29.3461 416.193 29.4656 412.472 29.3461L412.292 28.2913C410.226 28.0722 408.14 28.1023 406.081 28.3809L405.931 29.376H394.929C394.609 31.1672 394.929 32.8788 394.699 34.7497H390.768V43.8252L389.518 44.0142C389.448 44.6909 389.378 45.3577 389.318 46.0045H389.208C389.338 39.1282 389.288 32.232 388.958 25.3756H385.957C385.537 19.4049 386.027 13.4341 385.537 7.55298L383.537 7.43356L383.387 5.50302C382.584 5.38977 381.766 5.4269 380.976 5.61249C381.088 6.24052 381.065 6.88509 380.906 7.50322C380.758 8.12089 380.474 8.69844 380.076 9.19493C379.586 10.7274 379.906 12.5186 379.866 14.1705C378.146 17.6734 378.786 21.5046 378.616 25.4652C373.835 25.5348 369.154 25.3358 364.404 25.5348C364.344 25.8632 364.294 27.8137 364.274 30.5104H362.693L362.423 28.6695H356.422L356.262 26.8782C353.262 27.0474 350.391 27.754 347.431 28.1022C345.87 28.1819 346.24 28.5301 345.73 29.6745L344.65 29.784C344.24 31.5255 344.65 33.2371 344.4 35.0283C343.47 35.4263 341.9 34.8591 341.9 36.2423L341.32 36.4414C341.32 31.9832 341.32 27.4853 341.2 23.0371L340.109 23.863C339.589 20.1214 340.759 15.4542 339.419 12.23C340.069 10.8468 339.469 9.3641 339.839 7.95102C340.159 7.09522 340.109 6.9559 339.269 6.9559C336.129 7.40371 331.788 5.96078 329.267 7.54303C330.268 8.85659 329.267 10.7573 329.888 12.2798L329.167 12.5485C329.167 19.3452 329.167 26.1419 329.167 32.9684C328.684 34.0294 328.347 35.1509 328.167 36.302C328.167 30.0228 328.097 23.8232 327.997 23.3655C327.917 23.664 327.827 23.9526 327.707 24.3606L326.917 23.654C326.975 21.9154 326.942 20.1748 326.817 18.4396L326.577 19.1561C325.887 17.962 326.377 15.8821 326.107 14.3795L325.517 13.9118C325.517 12.1803 325.877 10.5483 323.967 9.8119L323.917 8.98595L323.296 8.38888L323.796 8.1202C323.696 5.53288 323.606 3.06498 323.516 0.527415L322.516 0.0796098C322.516 1.83102 322.086 3.34361 322.426 4.92585C321.556 6.68722 323.236 9.43376 321.056 10.4289C319.636 11.0459 320.926 13.2252 320.116 14.1208L319.916 13.4043C319.216 15.1259 320.526 17.942 319.276 19.1163L319.106 18.3799C318.236 20.1413 319.746 23.1963 318.105 24.2511L317.975 23.3555L317.775 23.4152C317.465 31.834 317.695 40.2626 317.635 48.6913C317.616 48.8163 317.633 48.9443 317.685 49.0595H308.954C308.889 48.998 308.829 48.9314 308.774 48.8605C308.705 47.44 308.783 46.0163 309.004 44.6113C308.404 43.3575 308.054 41.198 308.824 40.0537C308.245 38.4117 308.193 36.6315 308.674 34.9586C308.033 33.5512 307.926 31.9603 308.374 30.4806C308.194 28.9182 307.374 26.9081 308.194 25.3955C307.694 23.8627 307.604 22.2266 307.934 20.6488C307.444 18.9347 307.444 17.1186 307.934 15.4045C308.384 15.0761 308.934 15.4045 309.334 14.887L307.584 14.7975C307.504 13.9417 307.414 13.1555 307.344 12.3694C307.984 11.7922 307.864 11.1255 307.664 10.3791C306.984 10.1701 306.213 10.5682 305.663 9.96117C306.243 9.4039 307.094 9.96117 307.884 9.4039H305.753C305.423 8.24956 305.833 7.10517 305.423 6.02049H305.233V8.98595C304.233 8.76702 304.233 8.76702 303.843 9.49346C304.263 9.98107 304.263 9.98107 305.233 9.98107C303.163 10.399 304.573 11.0359 304.333 12.3992C304.343 13.48 304.164 14.5543 303.803 15.5737C304.06 16.2044 304.173 16.8843 304.133 17.5639C304.107 18.257 303.93 18.9362 303.613 19.5541L301.943 19.6338V19.783L303.553 19.9223C304.024 21.7445 303.993 23.6591 303.463 25.4652C303.722 26.23 303.824 27.0387 303.763 27.8435C303.704 28.653 303.479 29.4419 303.103 30.1621C303.943 31.3861 303.403 32.9485 303.543 34.2919C302.903 34.889 302.923 34.8691 303.233 35.6353C303.533 37.128 303.093 38.4714 302.923 40.0437C303.483 40.8099 303.173 43.5067 302.583 44.8402C303.323 46.1836 302.793 47.6066 302.923 48.97L302.713 49.0595H293.001C293.121 44.8899 292.911 40.6607 293.091 36.4314C294.371 36.1229 295.642 36.6304 296.812 36.0632C296.942 34.9089 296.632 33.7446 297.252 32.7196C297.472 30.6099 296.682 28.6695 296.852 26.52C297.372 26.2911 297.722 25.9826 297.312 25.296H292.741V24.6392L293.851 24.4601C294.472 22.6926 294.44 20.763 293.761 19.0168C291.211 18.8974 288.76 18.967 286.19 18.967C284.1 18.8377 285.06 21.5543 284.86 22.858C284.86 24.1317 284.99 24.3108 286.25 24.7188C286 25.3756 285.65 25.4552 284.25 25.1766L284.15 22.9177H272.488L272.358 23.9128L271.357 24.689C269.717 24.689 268.027 24.6193 266.286 24.689L266.136 26.3508C265.366 26.5897 264.566 26.2115 263.786 26.6693C263.966 29.5651 263.596 32.4609 263.966 35.4562H262.076V14.7477L261.046 13.4441H257.945V13.265H260.095C260.253 13.0129 260.317 12.7134 260.275 12.4191C260.24 12.1244 260.11 11.8487 259.905 11.633H256.965C257.015 11.1544 256.954 10.6708 256.785 10.2199C256.614 9.77179 256.34 9.36967 255.985 9.04566H250.044L249.794 9.70244L248.893 10.1005C249.083 11.2747 248.263 13.0062 249.894 13.3247L248.893 13.6431C248.823 14.5686 248.893 15.1856 249.794 15.6334V21.2558L248.893 21.7235V43.5465L248.123 43.8749C247.967 45.5843 247.99 47.3053 248.193 49.0098H242.572C242.572 36.929 242.502 24.4302 242.792 12.6878H237.471C239.592 4.72683 234.041 7.94107 234.151 3.52273C234.217 3.35704 234.217 3.17268 234.152 3.0066C234.088 2.84051 233.962 2.70497 233.801 2.62712C233.291 9.21483 228.51 3.44312 230.3 13.2849L229.3 13.6232C229.3 16.2304 229.23 18.8576 229.2 21.4847L223.329 19.1063V15.1259L224.029 14.6183C223.029 11.5534 220.028 11.633 219.178 14.678L219.888 15.1159V17.6933C217.888 16.4593 216.358 17.2256 214.397 18.1212V15.0661L215.138 14.6183C214.217 11.5832 210.937 11.633 210.427 14.7378L211.107 15.1159C211.707 19.4248 210.257 20.0915 207.686 20.9274C207.596 17.345 203.245 15.5936 201.185 12.8072L199.015 14.7975C197.084 13.2849 195.584 11.3145 193.634 9.82185C191.513 12.648 186.743 14.5089 187.223 18.4297L188.013 18.8377C189.853 24.2909 181.412 25.286 183.122 30.1124L184.122 30.2915V33.1873H178.251C177.791 38.5311 178.101 43.6859 178.121 48.9998C178.154 47.6952 178.118 46.3897 178.011 45.089L174.51 44.9895C174.03 38.6008 163.028 28.6098 159.288 22.3504L156.117 26.3309L154.737 24.7586C151.846 29.0178 146.866 32.7793 145.325 37.6952C145.325 39.0386 145.665 40.6806 144.545 41.6757C143.765 42.5912 144.235 43.8252 144.115 44.9298C142.495 45.1089 140.955 44.87 139.404 45.1089V48.97H130.293C130.293 48.4127 130.293 47.8455 130.223 47.2882C130.953 46.8006 130.943 46.7011 130.223 46.1737C130.091 45.2711 130.044 44.3583 130.083 43.447C130.373 42.7405 130.383 42.7504 129.863 42.2628C130.013 41.3374 129.503 39.9442 130.163 39.2178C129.617 38.2217 129.43 37.0701 129.633 35.9538C129.913 35.2671 129.923 35.2671 129.383 34.7596C129.503 33.874 129.103 32.7694 129.613 31.9036C129.993 31.3563 129.003 31.0478 129.233 30.4507C129.173 29.7255 129.173 28.9966 129.233 28.2714C129.663 27.7838 129.303 27.5052 128.943 27.2763V24.5994L129.403 24.1218C128.492 23.4749 128.722 22.4201 128.812 21.425C129.061 21.4947 129.324 21.4947 129.573 21.425C129.815 21.3369 130.029 21.1857 130.193 20.9871C129.873 20.0418 129.193 19.2357 128.973 18.2505C129.863 18.8377 130.443 21.823 131.633 20.0219C130.933 19.2059 130.293 18.5292 129.633 17.7629L129.743 17.6435C130.613 18.2406 131.153 19.1461 132.153 19.5641L132.783 18.7282L130.183 17.0564C131.263 17.1261 132.053 17.9819 133.123 18.1013L133.423 17.2057C132.423 16.4892 131.043 16.4892 129.883 16.0911C131.133 15.9518 132.433 16.6583 133.613 16.33L133.803 15.5239C134.383 16.1309 133.903 16.8474 134.253 17.4246C134.942 17.6723 135.684 17.7341 136.404 17.6037C136.508 16.1185 136.39 14.6261 136.054 13.1754L134.183 13.4839C134.183 14.0909 134.093 14.6183 134.093 15.1756H131.423L133.623 14.688L133.483 13.7924C132.283 13.6033 131.333 14.489 130.123 14.4193C131.169 13.9977 132.187 13.5125 133.173 12.9664L132.603 12.0509L129.263 14.1307L129.153 13.9815L132.023 11.1354L131.393 10.1403L128.812 13.3147C129.153 12.031 129.973 10.9861 130.363 9.65268L129.463 9.37405C128.852 10.6478 128.632 11.9315 127.972 13.1058C127.872 11.7723 128.512 10.5284 128.372 9.12527H127.372V12.8769C126.622 11.7424 127.222 10.3095 126.582 9.03571L125.582 9.384C125.882 10.4886 126.162 11.5434 126.452 12.5982C125.732 11.6728 125.652 10.4886 124.872 9.53327L124.152 9.94127C124.152 10.2597 124.072 10.5184 124.042 10.7772L123.432 10.3791L122.721 11.0359C123.332 11.9514 124.252 12.4987 124.972 13.4043C123.862 13.0261 123.302 11.9514 122.191 11.7225L121.771 12.449C122.591 13.4441 123.772 13.5834 124.872 14.2601C123.692 14.0511 122.651 13.4242 121.431 13.2152L121.131 14.1208C122.311 14.8273 123.692 14.5387 124.802 15.1159C123.612 15.305 122.401 14.6382 121.101 14.9567V15.9518C122.421 16.2802 123.612 15.5637 125.012 15.7727C123.602 16.2802 122.321 15.9916 121.161 16.8574L121.451 17.6634C122.551 17.534 123.452 16.927 124.452 16.8176L121.711 18.2605L122.181 19.0466C123.322 18.9571 124.252 17.8624 125.092 17.136C125.092 17.4445 124.972 17.5938 124.682 17.5938C124.076 18.3706 123.407 19.0963 122.681 19.7631L123.532 20.4896C124.222 19.5641 124.832 18.768 125.532 17.8823C125.222 18.9571 124.422 19.7631 124.102 20.8677L125.102 21.3951C124.982 22.0718 125.162 23.0172 124.752 23.654C124.362 24.1417 124.342 24.1317 124.882 24.5895V26.0324L124.252 27.0972C123.549 27.0957 122.847 27.1422 122.151 27.2365V27.4057L123.942 27.4753L124.552 28.4704V30.9483C123.962 31.4857 123.832 31.7046 124.382 32.2121V34.8591L123.602 35.3368L124.112 35.9239C124.012 37.1778 124.502 38.4018 123.472 39.2078C124.372 39.8646 123.792 41.3573 123.962 42.2728L123.151 42.8798L123.722 43.4769C123.722 44.472 123.642 45.298 123.602 46.1637C122.861 46.6613 122.861 46.6812 123.412 47.2882V48.9799H97.317C97.3438 48.4326 97.3001 47.8841 97.187 47.3479L96.1868 47.0593C96.0168 43.2082 95.9167 39.8347 98.0171 36.5309L96.0168 36.3817C95.5267 32.9684 95.0166 29.6049 94.6265 26.1021C96.9269 27.7241 99.0073 29.4357 101.268 30.9881C101.858 30.1323 102.678 29.6049 102.838 28.5998C100.207 25.5249 95.8367 21.216 95.8367 21.216C95.8367 21.216 100.538 16.8574 102.838 14.5586C102.256 13.7859 101.585 13.0844 100.838 12.4689L93.0162 19.6537L91.556 18.6585C90.1457 17.2753 83.8746 12.4689 82.9745 12.2002L81.3442 14.3696L89.6056 20.7781L87.4853 22.0917C84.9548 23.8033 82.6844 25.7737 80.254 27.5549C79.2538 28.4505 81.1342 29.4059 81.5742 30.2418L89.4556 24.2213C89.1607 28.3132 88.6197 32.3839 87.8353 36.4115L85.835 36.521C85.9977 37.2225 86.3041 37.8831 86.7351 38.4615C88.3954 41.0488 86.9352 44.3426 87.4953 47.2583L86.5951 47.6464C86.4952 48.0936 86.4648 48.5534 86.5051 49.0098H76.9534V47.7061L76.2333 47.2384L76.1133 45.8055L74.8131 45.5169V43.0788L74.0129 42.6907C73.8329 41.6956 74.493 40.2228 73.4428 39.7054C72.8627 32.7395 74.443 25.1169 72.8627 18.5192C72.9727 17.0763 72.0726 15.9319 72.0726 14.5387L71.1824 14.3397C71.2899 13.4143 71.1046 12.4785 70.6523 11.6628C70.0822 9.80195 70.6523 7.59278 70.0822 5.6921C69.4421 7.61268 69.9222 9.86166 69.4421 11.7524C68.602 12.3992 69.1621 13.474 69.012 14.3696C66.5216 14.678 68.582 18.2605 66.7917 19.1959V39.7651C65.4714 40.193 66.2316 41.6956 66.0315 42.8101C64.5313 43.039 65.6414 44.7108 65.0313 45.5865L64.0112 45.8055C63.9411 46.3032 63.911 46.8056 63.9212 47.3081L63.011 47.7957C63.011 48.1938 63.011 48.6117 63.011 48.9799H54.6295C54.6895 37.6256 55.1096 26.1916 54.1595 14.9666L53.1593 14.698C52.8192 12.2101 53.1593 10.1701 52.5192 7.64254C51.799 10.0706 52.3291 12.4291 51.799 14.698L50.9889 15.0064C50.6588 16.3698 51.1889 17.7828 50.5888 19.2457C49.8787 17.7231 50.4788 15.8921 50.2888 14.071L49.7187 13.8123L49.8287 11.8818C47.1086 11.6827 44.3774 11.6827 41.6573 11.8818V13.8123L41.0372 14.1904V20.9871C40.6497 19.0194 40.4389 17.0213 40.4071 15.0164L39.4069 14.7577C39.3968 12.4057 39.2465 10.0564 38.9568 7.72215H38.7568C38.5767 10.0706 38.3867 12.4291 38.2067 14.7577C37.9296 14.8199 37.6804 14.9701 37.4965 15.1856C37.4965 14.7278 37.4965 14.27 37.4965 13.8023C37.4965 12.638 37.4965 12.638 36.3263 12.25C36.4164 11.5733 35.8263 11.6131 35.4362 11.5136C32.7057 4.08995 30.5953 13.7128 31.0754 1.77132C30.4953 1.85093 30.4953 2.21912 30.4953 2.52761C30.5053 6.00059 30.5653 9.98107 28.0049 12.3097L27.0047 12.5783V49.0098H18.8033V45.8055L19.9835 45.5467L19.8135 44.8103L18.7333 44.6113L18.7833 44.1038L19.8935 43.8152L19.8235 43.2579L18.7733 43.1286V42.6111L19.9235 42.3623L19.8335 41.6259C18.8933 41.4269 18.8933 41.4269 18.8333 40.9891L19.9135 40.79L19.8335 40.183C19.5334 39.8447 18.8333 40.3223 18.7333 39.6059L19.9135 39.3272L19.8235 38.5411C19.5034 38.2326 18.8233 38.7998 18.7533 38.0037L19.9035 37.8047L19.8335 37.0683C19.4234 36.7996 18.9733 37.0683 18.7433 36.6404C19.9135 36.2423 19.9135 36.2423 19.7434 35.5358L18.7433 35.3368C18.8933 34.6302 19.5434 35.0681 19.9135 34.6302V33.9834L18.7733 33.864C18.8733 33.1077 19.6034 33.5555 19.9235 33.1077L19.8535 32.6002L18.7933 32.441V31.8738L19.8435 31.6349C20.3135 30.4109 18.5032 31.1971 18.8433 30.2418L19.8435 30.0925V29.5452C19.4934 29.1372 18.8433 29.5452 18.7333 28.8386L19.8235 28.6098C20.3135 27.1469 18.8233 28.2117 18.7633 27.2365L19.8935 27.0474L19.8435 26.3608C19.5134 26.0025 18.9733 26.3608 18.7533 25.8334L19.9035 25.5746L19.8435 24.7984L18.6933 24.5795C18.9333 23.9128 19.4934 24.2909 19.8335 23.9725V23.246L18.7033 23.0172C18.8933 22.3007 19.5434 22.7485 19.8635 22.3007L19.8135 21.7733L18.8133 21.624C18.8933 20.7284 20.1735 21.4548 19.8835 20.2308L18.8833 20.0617V19.5342L19.8835 19.3452C20.2935 18.2107 18.8233 19.0168 18.8233 18.1212L19.9935 17.8624L19.8635 17.1161L18.8633 16.9071L18.7833 15.1159C16.8929 14.8572 15.1226 15.1159 13.2523 14.9268C13.0323 13.7725 13.3423 12.6679 13.0323 11.5335L8.54149 11.4041V7.92117C5.78101 9.28449 0.17003 9.30439 0.900157 13.2351L0 13.6332C0.100017 23.9128 0 42.8201 0 49.0098V51H1028.18V21.6439L1029.97 21.4847C1030.43 17.4544 1025.53 15.7528 1023.35 12.8072ZM756.992 16.8872V19.1063C754.956 19.3983 752.897 19.5115 750.841 19.4447C752.543 17.9269 754.711 17.0257 756.992 16.8872ZM707.123 33.4162L706.913 33.5655L706.383 32.5703C706.893 32.7296 706.783 33.2172 707.123 33.4162ZM685.62 11.9713C685.873 12.6452 685.873 13.3872 685.62 14.0611C685.482 13.7467 685.408 13.4087 685.4 13.066C685.388 12.6891 685.463 12.3146 685.62 11.9713ZM684.219 11.822C684.499 12.5424 684.499 13.3407 684.219 14.0611C683.924 13.3299 683.924 12.5134 684.219 11.7822V11.822ZM682.849 11.9514C683.065 12.6339 683.103 13.36 682.959 14.0611L682.699 14.1506C682.518 13.8045 682.438 13.4143 682.47 13.0252C682.502 12.636 682.644 12.2638 682.879 11.9514H682.849ZM681.449 12.0111C681.7 12.6847 681.728 13.4203 681.529 14.1108C681.34 13.7956 681.233 13.4381 681.219 13.0711C681.205 12.7042 681.284 12.3397 681.449 12.0111ZM672.807 11.4539H679.939V14.3397C677.574 14.5585 675.196 14.5885 672.827 14.4293C672.626 13.4349 672.619 12.411 672.807 11.414V11.4539ZM672.717 16.1508C675.108 16.0812 677.458 16.1508 679.939 16.1508V37.7251H672.717C672.637 30.5204 672.487 23.2759 672.717 16.111V16.1508ZM671.477 11.9713C671.672 12.705 671.672 13.4766 671.477 14.2103C671.195 13.9053 671.038 13.5057 671.038 13.0908C671.038 12.676 671.195 12.2764 671.477 11.9713ZM669.917 11.9713C670.657 11.7225 670.597 14.0412 669.917 14.1307V11.9713ZM668.627 11.9713C668.783 12.2799 668.865 12.6208 668.865 12.9664C668.865 13.3121 668.783 13.6529 668.627 13.9616C668.363 13.324 668.363 12.6088 668.627 11.9713ZM667.276 11.8519C667.546 12.6185 667.546 13.4537 667.276 14.2203C667.047 13.8683 666.928 13.4558 666.936 13.0361C666.942 12.634 667.06 12.2413 667.276 11.9017V11.8519ZM933.863 29.6845L934.643 29.1372V25.3458C936.243 24.9975 937.734 25.4154 939.374 25.3458L939.324 26.4503L937.534 26.5598C936.863 29.4357 937.534 32.4708 937.224 35.5159C936.073 35.5159 934.983 35.5159 933.863 35.5159V29.6845ZM919.42 25.2064H914.42L914.33 25.0174C915.61 24.5994 918.24 24.3705 919.42 25.2064ZM900.917 16.0812L900.377 17.0763L899.737 15.9817L900.917 16.0812ZM899.917 14.7079L900.377 13.7128C900.614 14.027 900.825 14.3598 901.007 14.7079H899.917ZM900.507 18.2704L901.067 19.4447L899.847 19.9124L899.697 19.7233L900.507 18.2704ZM900.917 20.8976L900.317 21.9424C900.137 21.4747 899.687 21.3354 899.797 20.8976H900.917ZM900.447 23.1565L901.537 24.9079H899.537C899.591 24.2325 899.906 23.6043 900.417 23.1565H900.447ZM900.447 25.7339C900.755 25.7424 901.057 25.8242 901.327 25.9727L900.477 26.9678L899.577 25.8831C899.826 25.7769 900.096 25.726 900.367 25.7339H900.447ZM900.447 28.0823C900.897 28.7093 901.137 29.0775 901.627 29.6845H899.367L900.447 28.0823ZM901.447 30.7493L900.547 31.9434L899.547 30.7493H901.447ZM900.607 32.9286L901.967 34.481H899.567L900.607 32.9286ZM901.157 35.5557L900.157 36.8494L898.977 35.5657L901.157 35.5557ZM899.787 37.2673L898.577 38.8396V35.9438L899.787 37.2673ZM900.227 37.8345C900.769 38.2052 901.201 38.7138 901.477 39.3073H898.857C899.367 38.7401 899.617 38.143 900.217 37.8445L900.227 37.8345ZM901.587 40.5015L900.457 41.4966C900.207 40.9791 899.747 40.8299 899.667 40.3223C900.309 40.2686 900.956 40.3292 901.577 40.5015H901.587ZM900.517 42.3325L902.247 44.2133H898.957C899.362 43.5032 899.887 42.8672 900.507 42.3325H900.517ZM901.287 45.3179L900.287 46.4722L899.027 45.3179H901.287ZM902.638 45.1885V48.5918C902.037 47.8753 901.257 47.537 900.847 46.7508C901.293 46.0868 901.907 45.5514 902.628 45.1984L902.638 45.1885ZM902.638 43.5067L902.427 43.5963L900.857 41.9543L902.357 40.3721C902.619 41.3989 902.723 42.459 902.668 43.5167L902.638 43.5067ZM902.227 35.6353V39.158L900.617 37.2872C901.307 36.113 901.617 35.7945 902.257 35.6453L902.227 35.6353ZM902.157 33.864L900.907 32.441L901.977 31.0976L902.157 31.1772V33.864ZM902.007 26.1717V29.1571C900.767 28.2117 900.507 27.0474 901.977 26.1419L902.007 26.1717ZM901.707 24.1118L900.707 22.43L901.707 20.7582V24.1118ZM901.517 18.7182C900.717 17.8724 900.737 17.5241 901.517 16.7877V18.7182ZM901.427 11.9713V14.1805C900.627 13.1058 900.627 12.9664 901.427 11.9713ZM900.947 11.2548L900.377 12.3395L899.777 11.1653L900.947 11.2548ZM899.487 11.9713C899.628 12.1013 899.744 12.2566 899.827 12.4291C899.904 12.6054 899.948 12.7942 899.957 12.9863C899.96 13.1777 899.923 13.3677 899.847 13.5436C899.777 13.7216 899.668 13.8815 899.527 14.0113L899.487 11.9713ZM899.487 16.6782H899.647L900.117 17.753C899.757 18.2605 899.797 18.8576 899.167 19.0566L899.487 16.6782ZM899.157 21.3255C900.107 22.3902 900.107 22.7485 899.157 23.5844V21.3255ZM898.977 26.3011C900.237 27.3957 900.227 27.8236 898.977 28.9879V26.3011ZM898.977 30.9781L900.267 32.5206L898.767 34.5108L898.587 34.4213C898.747 33.3067 898.577 32.1723 898.917 30.9582L898.977 30.9781ZM898.727 40.2925L900.157 41.825L898.377 43.8152C898.157 41.7354 898.267 40.9692 898.667 40.2726L898.727 40.2925ZM898.367 45.3875C898.897 46.0642 899.607 46.3329 899.837 47.0494L898.287 48.4923L898.087 48.3928C898.157 47.4375 898.207 46.4921 898.307 45.3676L898.367 45.3875ZM900.367 47.2484L902.367 49.0297H898.537L900.367 47.2484ZM821.383 13.255V14.2501C821.31 14.1894 821.251 14.1134 821.21 14.0274C821.17 13.9414 821.149 13.8476 821.149 13.7526C821.149 13.6576 821.17 13.5638 821.21 13.4778C821.251 13.3918 821.31 13.3157 821.383 13.255ZM878.153 48.0942C878.153 48.4624 878.153 48.761 878.153 49.0098C878.153 48.7013 878.153 48.4027 878.153 48.0942ZM840.147 26.2911L841.227 26.1717C841.328 27.0765 841.301 27.991 841.147 28.8884L840.147 28.8187V26.2911ZM839.556 26.2911C839.667 27.1234 839.667 27.9665 839.556 28.7988H838.446C838.656 27.8137 837.836 25.6542 839.586 26.321L839.556 26.2911ZM836.896 26.0921L837.796 26.2115V28.8884L836.896 28.7889V26.0921ZM836.066 26.1817C836.121 27.0774 836.101 27.9761 836.006 28.8685L835.146 28.8884V26.2115L836.066 26.1817ZM833.305 26.1817H834.206C834.346 27.0718 834.346 27.9783 834.206 28.8685L833.305 28.8088V26.1817ZM831.655 26.0622L832.555 26.122V28.8386L831.495 28.7491C831.419 27.8689 831.483 26.9823 831.685 26.122L831.655 26.0622ZM829.955 26.0622L830.955 26.3011V28.7889H829.865C829.822 27.9047 829.863 27.0186 829.985 26.1419L829.955 26.0622ZM828.135 26.0622L829.135 26.2513V28.759H828.135V26.0622ZM823.144 6.07024H824.674V7.48332H823.144V6.07024ZM822.273 8.34907C821.943 8.86654 821.593 8.82673 821.133 8.5879C821.443 8.06049 821.793 8.12019 822.253 8.34907H822.273ZM821.483 10.0507C821.468 10.2341 821.403 10.4098 821.293 10.5582C821.063 10.1204 821.043 9.80195 821.403 9.56312C821.464 9.71811 821.485 9.88576 821.463 10.0507H821.483ZM821.403 11.1653C821.403 11.6529 821.463 11.9315 821.483 12.2101H821.223C821.143 11.9713 820.883 11.633 821.383 11.1653H821.403ZM819.543 26.1817L820.233 26.2613V28.7889L819.543 28.8685C819.403 27.9783 819.403 27.0718 819.543 26.1817ZM818.663 26.1817V28.8884H818.143C818.143 28.0127 818.143 27.127 818.143 26.2513L818.663 26.1817ZM616.228 40.5612H617.128V41.5563H616.057L616.228 40.5612ZM616.578 42.7803V42.8201H615.787L616.578 42.7803ZM614.647 40.5313H615.737V41.5264H614.597L614.647 40.5313ZM614.927 42.7007V42.8201H613.627V42.7305L614.927 42.7007ZM614.297 40.4915L614.367 41.5762H613.237V40.4915H614.297ZM611.657 40.2925H612.707V41.5563H611.657V40.2925ZM611.657 42.7007H612.657V42.8201H611.657V42.7007ZM610.237 39.8347L611.237 40.183V41.5662H610.237V39.8347ZM610.396 42.7206V42.8201H609.216V42.7305L610.396 42.7206ZM608.666 39.6258L609.726 39.9243V41.5662H608.666V39.6258ZM607.236 39.2078L608.236 39.5561V41.5463L607.236 41.606V39.2078ZM607.106 42.7106H608.446V42.8201H607.106V42.7106ZM605.696 38.9391L606.696 39.0983C606.864 39.9034 606.898 40.7304 606.796 41.5463H605.696V38.9391ZM606.076 42.7007V42.8201H605.076V42.7305L606.076 42.7007ZM604.105 38.3619L605.276 38.7202V41.5364H604.105V38.3619ZM602.665 37.8445L603.735 38.1928V41.5861H602.665V37.8445ZM603.835 42.7504V42.8201H602.835V42.7305L603.835 42.7504ZM601.205 37.1081C603.075 37.4962 602.275 40.193 602.205 41.5861H601.205C600.959 40.0868 600.959 38.5577 601.205 37.0583V37.1081ZM601.755 42.7504V42.8201H600.405V42.7305L601.755 42.7504ZM599.675 36.1229L600.755 36.7698V41.5662L599.755 41.6459C599.494 39.7989 599.467 37.9268 599.675 36.0732V36.1229ZM599.565 42.7604V42.8201H598.454V42.7305L599.565 42.7604ZM598.004 35.1378C600.445 36.2025 598.714 39.4267 599.205 41.6359H598.104C597.944 39.4068 598.004 37.2773 598.004 35.088V35.1378ZM596.444 32.8689C598.755 35.1975 597.444 38.5809 597.794 41.5563L596.584 41.616C596.302 38.7087 596.256 35.7836 596.444 32.8689ZM563.438 31.3364H590.613C590.86 34.6977 590.896 38.071 590.723 41.4369C581.721 41.8946 572.43 41.5563 563.358 41.5563C563.147 38.155 563.18 34.7429 563.458 31.3463L563.438 31.3364ZM590.213 42.8201V44.3327H590.103V42.8201H590.213ZM587.613 42.6808V43.3873H587.002C587.042 43.0589 586.872 42.5614 587.613 42.7007V42.6808ZM588.923 42.6808C589.513 42.6808 589.463 42.9694 589.393 43.457L588.923 42.6808ZM589.313 44.1337L587.763 43.9048L587.613 43.3973L588.413 42.6808L589.313 44.1337ZM586.992 43.3973C586.592 43.7555 586.222 43.6062 585.792 43.2978L586.252 42.7405L586.992 43.3973ZM585.682 42.8201L585.392 43.1684L585.212 43.0092L585.562 42.7106L585.682 42.8201ZM584.752 43.457L584.192 42.9992C584.752 42.7504 584.852 42.9495 584.752 43.4271V43.457ZM573.31 42.9097L572.51 43.0788C572.73 42.5912 573 42.6708 573.31 42.8798V42.9097ZM570.72 43.0092L570.31 43.0689V42.9097L570.67 42.7902L570.72 43.0092ZM570.149 43.3774H569.249L569.879 42.7703L570.149 43.3774ZM569.149 42.7504L568.999 43.3774L568.499 42.7504H569.149ZM568.489 43.5664L567.419 43.7854L568.039 42.7305L568.489 43.5664ZM565.839 42.7604L566.629 43.4371L566.569 43.9645L565.039 44.4222L565.839 42.7604ZM565.459 42.7604L565.059 43.5963C564.829 42.8201 564.829 42.8201 565.439 42.7007L565.459 42.7604ZM566.639 43.4669V42.7703H567.439L567.189 43.5465L566.639 43.4669ZM564.448 43.7058C564.462 44.071 564.394 44.4347 564.248 44.7705C564.088 44.4613 563.992 44.1227 563.968 43.7754C563.957 43.4121 564.018 43.0503 564.148 42.7106C564.305 42.9999 564.401 43.3184 564.429 43.646L564.448 43.7058ZM574.31 43.4669C582.062 42.3026 589.263 46.0144 596.904 45.3179L597.084 43.5266H617.338V47.3479C616.448 47.736 616.268 48.0246 616.428 49.0695H536.724V43.3873C543.595 43.5366 550.346 43.2878 557.187 43.4968L557.307 45.487C563.098 46.4324 568.459 43.4271 574.29 43.4072L574.31 43.4669ZM536.744 43.2679V42.3723C536.744 42.4519 536.744 42.5415 536.744 42.6509L538.484 42.7703C537.954 42.9196 537.324 42.6808 536.724 43.2082L536.744 43.2679ZM539.584 42.9097V42.7206H540.754V42.8201L539.584 42.9097ZM541.705 42.8499V42.7604H543.035V42.8201L541.705 42.8499ZM543.915 42.9097V42.7703H545.165V42.8201L543.915 42.9097ZM548.216 42.9793V42.7604H549.666C549.096 43.1286 548.596 42.6808 548.196 42.9196L548.216 42.9793ZM552.536 42.8599V42.7604H553.827V42.8201L552.536 42.8599ZM557.767 33.1973V41.6459H556.677C556.847 38.77 555.617 35.3268 557.747 33.1376L557.767 33.1973ZM556.107 35.1875C556.257 37.3369 556.297 39.4924 556.227 41.6459L555.377 41.6956C555.017 40.1631 555.377 38.5013 555.207 36.9091C555.097 35.7647 555.007 35.8542 556.097 35.1278L556.107 35.1875ZM555.927 42.7604C555.587 43.1783 555.207 43.1087 554.687 42.7604H555.927ZM553.557 36.8494L554.387 36.2324C554.685 38.009 554.719 39.8196 554.487 41.606H553.707L553.457 40.2626C553.582 39.1294 553.615 37.9879 553.557 36.8494ZM552.956 37.1678C553.437 37.7151 553.086 39.3272 553.257 40.2527L553.096 41.5264H551.836C552.096 40.0139 551.166 37.8445 552.956 37.1479V37.1678ZM551.576 37.8544C551.641 39.0875 551.641 40.3232 551.576 41.5563H550.436C550.596 40.2527 549.726 37.9938 551.576 37.8445V37.8544ZM550.366 42.7504H551.646V42.8201L550.366 42.8898V42.7504ZM550.196 38.5311C550.256 39.5262 550.196 40.5214 550.196 41.5165L549.066 41.5762C549.296 40.2328 548.016 38.5908 550.196 38.5112V38.5311ZM547.516 39.3173L548.566 38.969V41.5762H547.516V39.3173ZM547.315 42.8699H546.185V42.7206H547.315V42.8699ZM547.095 39.3173C547.277 40.0495 547.314 40.8099 547.205 41.5563H546.205C545.775 39.9442 545.925 39.576 547.095 39.3173ZM544.535 39.9442L545.535 39.7153C545.696 40.3159 545.724 40.9442 545.615 41.5563H544.535V39.9442ZM544.095 39.8347L544.195 41.5662H543.095L542.955 40.2427L544.095 39.8347ZM542.575 40.183V41.5463H541.474L541.404 40.4716L542.575 40.183ZM541.124 40.4915L541.184 41.5861H540.094L539.934 40.4915H541.124ZM538.484 40.5711H539.544L539.614 41.6359H538.424L538.484 40.5711ZM538.014 40.5711L538.114 41.5662C537.114 41.6558 536.784 41.6956 536.694 41.9245V40.402L538.014 40.5711ZM434.946 26.4304C435.566 26.938 435.646 27.6843 435.336 29.3163C434.926 28.4008 435.256 27.4554 434.946 26.4304ZM449.138 17.146V16.3598H449.258V17.146H449.138ZM457.7 26.6295H458.8C458.918 27.5402 458.891 28.4637 458.72 29.366C457.01 29.7342 457.9 27.6743 457.7 26.6295ZM457.08 27.7838L456.52 26.4901C457.33 26.7986 457.01 26.9579 457.08 27.7838ZM449.078 13.6133C451.641 13.4093 454.217 13.4093 456.78 13.6133V15.1458H454.479C454.219 14.3198 451.359 14.2501 451.359 15.1458H449.078V13.6133ZM447.318 26.6295H448.318C448.488 27.5748 448.628 29.3262 447.318 29.4556C447.245 28.5147 447.251 27.5693 447.338 26.6295H447.318ZM432.976 18.778C434.892 18.5491 436.83 18.5491 438.747 18.778V21.7633H435.806L435.436 25.8234L434.696 26.0622C433.696 29.6148 434.806 33.1674 434.466 36.8693L432.976 36.71V18.778ZM384.857 13.255C384.932 13.3147 384.993 13.3904 385.034 13.4765C385.076 13.5627 385.098 13.657 385.098 13.7526C385.098 13.8482 385.076 13.9425 385.034 14.0286C384.993 14.1148 384.932 14.1905 384.857 14.2501V13.255ZM387.588 26.1916H388.488V28.8884L387.588 28.9481V26.1916ZM386.017 26.2414L386.707 26.1618C386.848 27.0519 386.848 27.9584 386.707 28.8486L386.067 28.7889L386.017 26.2414ZM385.017 12.1902H384.757C384.757 11.9116 384.757 11.633 384.827 11.1454C385.367 11.633 385.117 11.9713 385.067 12.2101L385.017 12.1902ZM384.747 10.0308C384.729 9.85113 384.756 9.66974 384.827 9.50342C385.197 9.78205 385.177 10.1005 384.947 10.4985C384.855 10.3653 384.796 10.2115 384.777 10.0507L384.747 10.0308ZM385.117 8.568C384.647 8.80683 384.297 8.84663 383.967 8.32917C384.457 8.1202 384.807 8.06049 385.147 8.5879L385.117 8.568ZM381.567 6.05034H383.087V7.48332H381.567V6.05034ZM377.066 26.2911L378.066 26.1021V28.8287H377.066V26.2911ZM375.285 26.3807L376.286 26.1419C376.399 27.0328 376.432 27.9319 376.386 28.8287H375.285V26.3807ZM373.685 26.1817L374.575 26.122C374.767 27.0043 374.814 27.9115 374.715 28.8088L373.655 28.8983L373.685 26.1817ZM372.035 26.1817H372.925V28.8884H372.065C371.916 28.0022 371.916 27.0977 372.065 26.2115L372.035 26.1817ZM370.175 26.1817H371.175V28.8884L370.275 28.9481C370.157 28.0409 370.117 27.1254 370.155 26.2115L370.175 26.1817ZM368.444 26.1817L369.344 26.0622V28.7391L368.444 28.8386V26.1817ZM366.684 26.2613C368.434 25.5945 367.604 27.754 367.784 28.769H366.684C366.563 27.9579 366.556 27.1339 366.664 26.321L366.684 26.2613ZM365.004 26.112L366.094 26.2314V28.7889L365.064 28.8884C364.914 27.9905 364.887 27.0767 364.984 26.1717L365.004 26.112ZM328.107 48.1241C328.107 48.4226 328.107 48.7112 328.107 49.0098C328.057 48.7908 328.057 48.4724 328.107 48.1241ZM308.214 48.3729L308.024 48.4724L306.473 47.0295C306.704 46.313 307.414 46.0343 307.944 45.3676C308.054 46.4921 308.134 47.4375 308.214 48.3729ZM303.613 45.1984C304.342 45.5469 304.963 46.0828 305.413 46.7508C304.993 47.537 304.213 47.8753 303.613 48.5918V45.1984ZM306.513 15.9518L305.863 17.0464L305.333 16.0513L306.513 15.9518ZM305.273 14.6681C305.456 14.32 305.667 13.9872 305.903 13.673L306.363 14.6681H305.273ZM306.583 19.6437L306.433 19.8328L305.213 19.3651L305.773 18.1908L306.583 19.6437ZM306.473 20.9274C306.594 21.3653 306.143 21.5046 305.953 21.9723L305.353 20.9274H306.473ZM307.124 21.3553V23.6142C306.173 22.7485 306.173 22.3902 307.124 21.3255V21.3553ZM306.724 24.888H304.723L305.843 23.1863C306.348 23.6263 306.663 24.2428 306.724 24.9079V24.888ZM305.883 25.7637C306.195 25.7512 306.504 25.8162 306.784 25.9528L305.883 27.0375L305.033 26.0423C305.289 25.8762 305.58 25.7707 305.883 25.7339V25.7637ZM306.934 29.7442H304.663C305.163 29.0974 305.403 28.7491 305.853 28.142L306.934 29.7442ZM306.754 30.809L305.753 32.0031L304.853 30.809H306.754ZM306.754 34.5407H304.353L305.713 32.9883L306.754 34.5407ZM307.254 35.6154L306.053 36.8494L305.103 35.5657L307.254 35.6154ZM307.684 36.0035V38.8396L306.483 37.2972L307.684 36.0035ZM306.053 37.8445C306.654 38.153 306.904 38.75 307.424 39.3173H304.803C305.073 38.7197 305.506 38.2094 306.053 37.8445ZM306.613 40.3522C306.533 40.8597 306.063 41.009 305.823 41.5264L304.693 40.5313C305.31 40.3569 305.954 40.2929 306.594 40.3422L306.613 40.3522ZM307.314 44.2232H304.053L305.783 42.3424C306.386 42.8799 306.896 43.5119 307.294 44.2133L307.314 44.2232ZM304.993 45.3378H307.244L305.973 46.4921L304.993 45.3378ZM307.904 43.8152L306.123 41.825L307.584 40.2328C307.984 40.9692 308.054 41.7354 307.904 43.8152ZM307.724 34.3516L307.534 34.4412L306.033 32.4509L307.334 30.9085C307.674 32.1723 307.504 33.3067 307.724 34.3914V34.3516ZM307.304 26.2414V28.9282C306.053 27.8037 306.053 27.3758 307.304 26.2812V26.2414ZM307.124 19.0367C306.483 18.8377 306.533 18.2406 306.173 17.7331L306.643 16.6583H306.804L307.124 19.0367ZM306.764 11.9713V14.0113C306.623 13.8815 306.513 13.7216 306.443 13.5436C306.368 13.3677 306.33 13.1777 306.333 12.9863C306.337 12.7936 306.382 12.6038 306.463 12.4291C306.535 12.2597 306.637 12.1046 306.764 11.9713ZM306.473 11.1653L305.863 12.3395L305.303 11.2548L306.473 11.1653ZM304.813 11.9813C305.623 12.9764 305.623 13.0958 304.813 14.2004V11.9813ZM304.763 16.738C305.543 17.4743 305.563 17.8226 304.763 18.6685V16.738ZM304.563 20.7184L305.563 22.3902L304.563 24.072V20.7184ZM304.273 26.1319C305.743 27.0375 305.483 28.2018 304.273 29.1173V26.1319ZM304.113 31.1075L304.293 31.0279L305.373 32.3713L304.113 33.864V31.1075ZM303.993 35.6055C304.633 35.7547 304.943 36.0732 305.603 37.2574L303.993 39.1282V35.6055ZM303.873 40.382L305.373 41.9643L303.803 43.6062L303.593 43.5167C303.703 42.5415 303.423 41.5165 303.873 40.4219V40.382ZM305.953 47.1887L307.744 48.97H303.903L305.953 47.1887ZM291.951 24.9776L291.861 25.1666H286.86C288.05 24.3705 290.641 24.5994 291.961 25.0174L291.951 24.9776ZM271.587 25.306V29.0974L272.378 29.6447V35.4164C271.247 35.506 270.167 35.4164 269.017 35.4164C268.707 32.431 269.377 29.3461 268.707 26.4603L266.917 26.3508L266.867 25.2462C268.517 25.4154 270.047 24.9975 271.597 25.3458L271.587 25.306ZM176.871 46.2035H177.491C177.351 47.129 177.701 48.1938 177.411 49.0098H177.031C176.716 48.107 176.664 47.1343 176.881 46.2035H176.871ZM176.091 46.2035C176.156 47.1411 176.156 48.0821 176.091 49.0197H175.421V46.1936L176.091 46.2035ZM174.52 46.2035H174.861C174.917 47.1466 174.884 48.0929 174.76 49.0297H174.53C174.21 48.1639 174.64 47.1389 174.53 46.2234L174.52 46.2035ZM144.065 46.303V48.9899H144.025V46.303H144.065ZM142.945 46.1239C143.218 47.0553 143.26 48.039 143.065 48.9899H142.765C142.627 48.6133 142.552 48.2165 142.545 47.8156C142.553 47.2347 142.693 46.663 142.955 46.1438L142.945 46.1239ZM141.875 46.1239V48.9799H141.245V46.1936L141.875 46.1239ZM140.094 46.1239C140.685 46.3727 140.735 48.1141 140.435 49.0197H140.094C139.901 48.0603 139.905 47.072 140.104 46.114L140.094 46.1239ZM129.763 49.0197H128.482C128.384 48.8381 128.325 48.6384 128.308 48.433C128.29 48.2275 128.316 48.0208 128.382 47.8256L129.383 47.2484C129.611 47.8096 129.743 48.405 129.773 49.0098L129.763 49.0197ZM125.852 19.992C125.859 19.3565 126.054 18.7371 126.412 18.2107C126.443 18.8471 126.248 19.4741 125.862 19.982L125.852 19.992ZM125.852 21.7534V23.1366H125.782V21.7434L125.852 21.7534ZM126.182 27.0673L126.712 26.3011C127.402 26.7588 127.402 26.7588 127.222 27.535C126.921 27.329 126.59 27.1681 126.242 27.0574L126.182 27.0673ZM126.262 29.2367C126.512 29.4656 126.512 29.4656 126.262 29.784V29.2367ZM126.872 33.1475L126.072 32.2718C126.266 32.142 126.489 32.0633 126.722 32.0429C126.953 32.0174 127.186 32.0482 127.402 32.1325C127.682 32.7097 127.182 32.8689 126.932 33.1376L126.872 33.1475ZM126.262 33.7744L126.102 33.1873C126.472 33.4162 126.472 33.4162 126.322 33.7645L126.262 33.7744ZM126.792 34.0531C127.422 34.3516 127.422 34.3516 127.422 35.0482H126.022V34.9785C126.272 34.3118 126.272 34.3118 126.852 34.0431L126.792 34.0531ZM126.032 35.9438H127.472C127.472 36.511 127.002 36.5309 126.812 36.9389L125.952 36.1229L126.032 35.9438ZM127.432 38.8595H126.022V38.143L126.742 37.5061C127.022 37.944 127.752 38.0535 127.492 38.8396L127.432 38.8595ZM127.502 36.8693V37.536C127.262 37.3668 127.172 37.1977 127.562 36.8991L127.502 36.8693ZM127.372 31.2269H126.322C126.092 30.5701 126.652 30.3512 126.972 29.9631V29.8537C127.207 29.9872 127.382 30.204 127.462 30.4607C127.513 30.5883 127.536 30.7249 127.531 30.8619C127.526 30.9988 127.492 31.1333 127.432 31.2568L127.372 31.2269ZM127.022 29.0874L126.352 28.55L126.462 28.361H127.462L127.022 29.0874ZM126.922 25.4055L126.352 24.8084C126.632 24.3606 126.952 24.4402 127.412 24.5596C127.292 24.9079 127.152 25.1169 127.022 25.4353L126.922 25.4055ZM127.252 23.5048L126.252 23.3555L126.822 22.6888C127.232 22.9177 127.482 23.0769 127.312 23.5346L127.252 23.5048ZM127.422 20.9274L127.042 21.7932C126.952 21.0568 126.952 21.0568 127.422 20.9274ZM126.352 22.4101V22.0619H126.462L126.552 22.4101H126.352ZM126.242 37.0782L126.342 37.2176L126.072 37.4564L125.982 37.3569L126.242 37.0782ZM127.482 39.6656V39.5959C127.762 40.2825 127.762 40.2825 127.122 40.7005L125.902 39.7054L127.482 39.6656ZM128.482 28.7192V30.7095C127.762 30.2318 127.542 28.9381 128.452 28.6297L128.482 28.7192ZM128.092 24.9079H128.302V26.9778C127.682 26.7091 127.762 25.3458 128.092 24.9079ZM128.362 20.0219C128.212 19.4148 128.062 18.8078 127.902 18.2008C128.121 18.445 128.275 18.7389 128.352 19.0566C128.426 19.3637 128.429 19.6834 128.362 19.992V20.0219ZM128.022 21.9225V23.0371C127.712 22.649 127.712 22.649 128.022 21.9225ZM127.812 44.2332L127.882 44.8501L127.202 44.6611L127.812 44.2332ZM127.812 46.3229C127.202 46.3229 126.702 46.3229 126.032 46.3229V45.3278L126.852 44.7904C127.232 45.278 128.022 45.3776 127.792 46.3229H127.812ZM127.812 47.2086C127.872 47.8256 127.342 47.8057 127.092 48.0743L126.092 47.3579C126.649 47.1759 127.242 47.1248 127.822 47.2086H127.812ZM126.032 44.2232L126.382 44.6213C126.022 44.8103 126.022 44.6909 126.022 44.263L126.032 44.2232ZM126.702 44.3924V44.2829C126.422 43.9346 126.012 43.855 125.892 43.4669H127.672C127.552 43.9744 127.082 44.0739 126.712 44.4322L126.702 44.3924ZM127.622 42.4021C127.071 42.5416 126.493 42.5416 125.942 42.4021V42.3225C126.202 41.6658 126.792 41.5165 127.242 41.2279C127.742 41.7553 127.742 41.7553 127.632 42.4818L127.622 42.4021ZM126.032 41.407V40.4816C126.452 40.3721 126.512 40.7104 126.742 40.9393L126.032 41.407ZM126.022 47.9549L126.742 48.3132L125.902 48.8306L126.022 47.9549ZM126.442 49.0098C126.581 48.9398 126.715 48.86 126.842 48.7709C127.092 48.5719 127.152 48.5918 127.672 49.0098H126.442ZM128.222 45.895L128.872 46.313C128.502 46.3727 128.312 46.3826 128.172 45.895H128.222ZM129.583 46.0841C128.142 45.7259 127.462 43.6162 129.343 43.3575L129.583 46.0841ZM128.272 42.034L128.862 42.4619C128.472 42.5415 128.222 42.5614 128.222 42.034H128.272ZM129.353 42.233C128.742 41.7553 128.052 41.4767 128.302 40.4915L129.083 39.9044C129.305 40.6594 129.38 41.4499 129.303 42.233H129.353ZM129.023 38.7799C127.782 37.8942 127.692 36.6105 128.852 35.9836C129.024 36.9053 129.081 37.8444 129.023 38.7799ZM128.882 34.69C127.732 34.1227 127.612 33.1774 128.582 32.3813C129.023 33.1177 128.722 33.864 128.842 34.69H128.882ZM127.882 17.3748C127.757 17.0171 127.757 16.6279 127.882 16.2702C127.996 15.907 128.233 15.5942 128.552 15.3846L129.353 15.4343C129.391 15.6648 129.38 15.9006 129.321 16.1266C129.262 16.3527 129.156 16.5639 129.01 16.7467C128.864 16.9295 128.681 17.0799 128.473 17.1881C128.265 17.2963 128.037 17.3599 127.802 17.3748H127.882ZM129.313 14.8572C128.422 15.1458 127.792 14.4392 126.902 14.3895L126.762 14.479L126.282 13.872C127.182 12.8669 128.422 13.265 129.233 14.8572H129.313ZM124.192 10.8767C125.032 11.0459 125.192 12.2599 125.822 12.8669L125.692 12.9565C125.142 12.25 124.332 11.7026 124.112 10.8866L124.192 10.8767ZM125.932 14.2004C126.582 14.8373 126.582 14.8373 126.422 15.5936L125.502 16.1409C125.132 15.1856 125.262 14.6581 125.852 14.2103L125.932 14.2004ZM125.602 16.6683L126.602 15.902V15.8324C127.242 16.2404 126.982 16.8275 126.922 17.4843C126.242 17.4942 126.022 17.0365 125.522 16.6782L125.602 16.6683ZM125.602 24.8581C126.042 25.097 126.072 25.286 125.842 26.5499C125.322 26.0423 125.612 25.4353 125.552 24.9079L125.602 24.8581ZM125.442 28.3709L125.602 28.3112C125.82 28.6969 125.921 29.1372 125.892 29.5787C125.864 30.0202 125.707 30.4441 125.442 30.799V28.3709ZM125.152 32.2519C126.022 32.4609 125.992 34.3715 125.152 34.7497V32.2519ZM124.902 36.0931C125.712 36.322 125.832 36.6503 125.622 37.934L124.902 38.4515V36.0931ZM125.682 38.6107L125.462 38.8993L125.352 38.8197L125.532 38.5112L125.682 38.6107ZM125.002 39.5461C126.192 40.0338 125.472 40.9393 125.532 41.9046L124.702 42.4419C124.435 41.4813 124.524 40.4572 124.952 39.5561L125.002 39.5461ZM124.662 43.3077L125.512 43.9048V45.1885L124.512 46.0045C124.366 45.1111 124.4 44.1979 124.612 43.3177L124.662 43.3077ZM124.972 46.2931L125.462 45.8652C125.422 46.2931 125.422 46.2931 124.922 46.2931H124.972ZM124.402 47.2882C124.602 47.2133 124.822 47.2133 125.022 47.2882C125.222 47.3586 125.392 47.4957 125.502 47.6763V49.0595H124.152C124.107 48.4487 124.175 47.835 124.352 47.2484L124.402 47.2882Z" fill="white"/>
</svg>
