<svg width="13" height="17" viewBox="0 0 13 17" fill="none" xmlns="http://www.w3.org/2000/svg">
<path d="M3.33392 0.695842L11.8228 7.96569C11.9006 8.03244 11.963 8.11487 12.0057 8.20743C12.0485 8.29999 12.0706 8.40052 12.0706 8.50223C12.0706 8.60394 12.0485 8.70447 12.0057 8.79703C11.963 8.88959 11.9006 8.97202 11.8228 9.03877L3.28 16.3507C3.24854 16.3796 3.20585 16.3951 3.16316 16.3951H1.10721C0.940939 16.3951 0.864543 16.1933 0.990371 16.0847L9.71402 8.50119L0.992618 0.919768C0.86679 0.813348 0.943186 0.609375 1.10946 0.609375H3.098C3.18563 0.609375 3.26876 0.640414 3.33392 0.695842Z" fill="#E2581D"/>
</svg>
