<svg width="271" height="193" viewBox="0 0 271 193" fill="none" xmlns="http://www.w3.org/2000/svg">
<path d="M70.5116 96.0123C68.7249 82.0782 71.6468 67.9468 78.8127 55.8637C85.9787 43.7807 96.9775 34.4394 110.061 29.3245C123.145 24.2095 137.563 23.6142 151.024 27.6334C164.485 31.6525 176.217 40.0555 184.354 51.5067" stroke="#7BBEFD" stroke-width="2" stroke-dasharray="5 5"/>
<path d="M195.488 93.986C197.275 107.92 194.354 122.052 187.188 134.135C180.023 146.218 169.024 155.56 155.94 160.675C142.857 165.79 128.438 166.386 114.977 162.367C101.516 158.348 89.7848 149.946 81.6469 138.495" stroke="#5BD595" stroke-width="2" stroke-dasharray="5 5"/>
<path d="M98.3789 7.89922V11.8192H100.493V9.99922H106.401V11.8192H108.501V7.89922H107.493V0.199219H100.297L100.269 2.22922C100.227 5.14122 99.8909 6.62522 99.3589 7.89922H98.3789ZM102.397 2.29922H105.253V7.89922H101.571C102.103 6.41522 102.341 4.80522 102.397 2.29922Z" fill="#7BBEFD"/>
<path d="M113.133 2.83122C110.739 2.84522 109.283 4.07722 109.283 6.48522C109.283 8.93522 110.851 10.1672 113.007 10.1672C115.387 10.1532 116.857 8.93522 116.857 6.51322C116.857 4.06322 115.289 2.83122 113.133 2.83122ZM111.453 6.47122C111.453 5.21122 112.041 4.67922 113.063 4.67922C114.015 4.69322 114.687 5.22522 114.687 6.48522V6.52722C114.687 7.78722 114.099 8.31922 113.077 8.31922C112.111 8.31922 111.453 7.78722 111.453 6.51322V6.47122Z" fill="#7BBEFD"/>
<path d="M118.18 9.99922H120.28V4.84722H123.542V2.99922H118.18V9.99922Z" fill="#7BBEFD"/>
<path d="M128.103 2.83122C125.709 2.84522 124.253 4.07722 124.253 6.48522C124.253 8.93522 125.821 10.1672 127.977 10.1672C130.357 10.1532 131.827 8.93522 131.827 6.51322C131.827 4.06322 130.259 2.83122 128.103 2.83122ZM126.423 6.47122C126.423 5.21122 127.011 4.67922 128.033 4.67922C128.985 4.69322 129.657 5.22522 129.657 6.48522V6.52722C129.657 7.78722 129.069 8.31922 128.047 8.31922C127.081 8.31922 126.423 7.78722 126.423 6.51322V6.47122Z" fill="#7BBEFD"/>
<path d="M133.151 9.99922H137.029C138.807 9.99922 139.689 9.22922 139.689 7.92722C139.689 6.77922 139.031 6.33122 138.135 6.21922C138.891 6.03722 139.339 5.46322 139.339 4.66522C139.339 3.57322 138.639 2.99922 137.071 2.99922H133.151V9.99922ZM135.251 8.27722V7.11522H136.735C137.365 7.11522 137.589 7.31122 137.589 7.68922C137.589 8.09522 137.351 8.27722 136.763 8.27722H135.251ZM135.251 5.77122V4.73522L136.455 4.72122C136.973 4.72122 137.225 4.87522 137.225 5.21122C137.225 5.61722 136.959 5.77122 136.525 5.77122H135.251Z" fill="#7BBEFD"/>
<path d="M144.359 2.83122C141.965 2.84522 140.509 4.07722 140.509 6.48522C140.509 8.93522 142.077 10.1672 144.233 10.1672C146.613 10.1532 148.083 8.93522 148.083 6.51322C148.083 4.06322 146.515 2.83122 144.359 2.83122ZM142.679 6.47122C142.679 5.21122 143.267 4.67922 144.289 4.67922C145.241 4.69322 145.913 5.22522 145.913 6.48522V6.52722C145.913 7.78722 145.325 8.31922 144.303 8.31922C143.337 8.31922 142.679 7.78722 142.679 6.51322V6.47122Z" fill="#7BBEFD"/>
<path d="M149.406 12.8832H151.506V9.00522C151.842 9.64922 152.514 10.1532 153.564 10.1532C155.398 10.1532 156.714 9.10322 156.714 6.34522C156.714 3.89522 155.398 2.87322 153.704 2.87322C152.276 2.87322 151.604 3.67122 151.38 4.41322V2.99922H149.406V12.8832ZM151.506 6.21922C151.548 5.28122 151.982 4.72122 153.088 4.72122C153.998 4.72122 154.6 5.19722 154.6 6.41522C154.6 7.78722 154.124 8.30522 153.018 8.30522C152.052 8.30522 151.506 7.75922 151.506 6.66722V6.21922Z" fill="#7BBEFD"/>
<path d="M158.033 9.99922H160.931C163.101 9.99922 164.137 9.08922 164.137 7.36722C164.123 5.54722 163.003 4.88922 161.113 4.88922H160.133V2.99922H158.033V9.99922ZM164.767 9.99922H166.881V2.99922H164.767V9.99922ZM160.861 8.15122H160.133V6.72322H160.987C161.729 6.72322 162.023 6.93322 162.037 7.38122C162.023 7.88522 161.729 8.15122 160.861 8.15122Z" fill="#7BBEFD"/>
<path d="M98.3789 187.899V191.819H100.493V189.999H106.401V191.819H108.501V187.899H107.493V180.199H100.297L100.269 182.229C100.227 185.141 99.8909 186.625 99.3589 187.899H98.3789ZM102.397 182.299H105.253V187.899H101.571C102.103 186.415 102.341 184.805 102.397 182.299Z" fill="#5BD595"/>
<path d="M113.133 182.831C110.739 182.845 109.283 184.077 109.283 186.485C109.283 188.935 110.851 190.167 113.007 190.167C115.387 190.153 116.857 188.935 116.857 186.513C116.857 184.063 115.289 182.831 113.133 182.831ZM111.453 186.471C111.453 185.211 112.041 184.679 113.063 184.679C114.015 184.693 114.687 185.225 114.687 186.485V186.527C114.687 187.787 114.099 188.319 113.077 188.319C112.111 188.319 111.453 187.787 111.453 186.513V186.471Z" fill="#5BD595"/>
<path d="M118.18 189.999H120.28V184.847H123.542V182.999H118.18V189.999Z" fill="#5BD595"/>
<path d="M128.103 182.831C125.709 182.845 124.253 184.077 124.253 186.485C124.253 188.935 125.821 190.167 127.977 190.167C130.357 190.153 131.827 188.935 131.827 186.513C131.827 184.063 130.259 182.831 128.103 182.831ZM126.423 186.471C126.423 185.211 127.011 184.679 128.033 184.679C128.985 184.693 129.657 185.225 129.657 186.485V186.527C129.657 187.787 129.069 188.319 128.047 188.319C127.081 188.319 126.423 187.787 126.423 186.513V186.471Z" fill="#5BD595"/>
<path d="M133.151 189.999H137.029C138.807 189.999 139.689 189.229 139.689 187.927C139.689 186.779 139.031 186.331 138.135 186.219C138.891 186.037 139.339 185.463 139.339 184.665C139.339 183.573 138.639 182.999 137.071 182.999H133.151V189.999ZM135.251 188.277V187.115H136.735C137.365 187.115 137.589 187.311 137.589 187.689C137.589 188.095 137.351 188.277 136.763 188.277H135.251ZM135.251 185.771V184.735L136.455 184.721C136.973 184.721 137.225 184.875 137.225 185.211C137.225 185.617 136.959 185.771 136.525 185.771H135.251Z" fill="#5BD595"/>
<path d="M144.359 182.831C141.965 182.845 140.509 184.077 140.509 186.485C140.509 188.935 142.077 190.167 144.233 190.167C146.613 190.153 148.083 188.935 148.083 186.513C148.083 184.063 146.515 182.831 144.359 182.831ZM142.679 186.471C142.679 185.211 143.267 184.679 144.289 184.679C145.241 184.693 145.913 185.225 145.913 186.485V186.527C145.913 187.787 145.325 188.319 144.303 188.319C143.337 188.319 142.679 187.787 142.679 186.513V186.471Z" fill="#5BD595"/>
<path d="M149.406 192.883H151.506V189.005C151.842 189.649 152.514 190.153 153.564 190.153C155.398 190.153 156.714 189.103 156.714 186.345C156.714 183.895 155.398 182.873 153.704 182.873C152.276 182.873 151.604 183.671 151.38 184.413V182.999H149.406V192.883ZM151.506 186.219C151.548 185.281 151.982 184.721 153.088 184.721C153.998 184.721 154.6 185.197 154.6 186.415C154.6 187.787 154.124 188.305 153.018 188.305C152.052 188.305 151.506 187.759 151.506 186.667V186.219Z" fill="#5BD595"/>
<path d="M158.033 189.999H160.931C163.101 189.999 164.137 189.089 164.137 187.367C164.123 185.547 163.003 184.889 161.113 184.889H160.133V182.999H158.033V189.999ZM164.767 189.999H166.881V182.999H164.767V189.999ZM160.861 188.151H160.133V186.723H160.987C161.729 186.723 162.023 186.933 162.037 187.381C162.023 187.885 161.729 188.151 160.861 188.151Z" fill="#5BD595"/>
<circle cx="50" cy="95" r="50" fill="#7BBEFD"/>
<path d="M67.8232 90.2546C67.3983 83.8626 58.6925 82.5196 58.6925 82.5196C56.4687 82.1364 55.5624 80.2944 55.2034 79.1018C56.9128 77.2545 58.109 74.8672 58.7702 72.5408C59.0222 71.6541 59.1579 70.7285 59.1579 69.8082C59.1579 69.2846 59.1036 68.7743 59.0114 68.2764C60.1211 66.4817 59.7942 64.4805 59.531 63.5189C59.4511 63.2269 59.1489 63.0827 58.8382 63.0827C58.8048 63.0827 58.7715 63.0844 58.7382 63.0876C58.6197 63.0994 58.4947 63.1049 58.3638 63.1049C56.3764 63.1049 53.0899 61.831 53.0899 61.831C52.0873 61.4147 50.8525 61.1699 49.7717 61.0493C48.826 60.9437 47.8695 61.0011 46.9615 61.2872C45.6995 61.6847 44.5377 62.4675 43.5964 63.363C43.4038 63.5463 43.2391 63.7372 43.0867 63.9516C41.0836 64.5984 40.7447 67.0878 40.8636 69.2675C40.8522 69.4466 40.8421 69.6262 40.8421 69.8082C40.8421 73.0846 42.2848 76.8426 44.5329 79.3189C44.5986 79.3914 44.6669 79.4607 44.7352 79.5302C44.2973 80.6943 43.3615 82.1801 41.3911 82.5196C41.3911 82.5196 32.685 83.8626 32.2603 90.2546C32.2603 90.2546 31.7358 93.5953 32.1758 97.5796C32.3236 98.9184 33.6148 100 35.0177 100H65.066C66.4688 100 67.7282 98.9147 67.8562 97.5741C68.1979 94.0037 67.8232 90.2546 67.8232 90.2546ZM55.3066 82.1853L55.769 82.6784L55.8802 82.7968L56.019 82.8835L56.4253 83.1375L53.3073 87.4389L52.0852 85.5025L52.0352 85.4234L51.9734 85.3524C51.8766 85.2413 51.8691 85.0217 51.9484 84.8893L55.3066 82.1853ZM50.7913 87.2028H49.2699L48.8127 86.4233L48.9938 86.1364C49.1122 86.0004 49.1993 85.8444 49.2616 85.6794H50.7385C50.8007 85.8444 50.8878 86.0004 51.0063 86.1364L51.212 86.4624L50.7913 87.2028ZM51.8918 94.9245C51.9102 94.9924 51.8551 95.1579 51.7834 95.2106L50.2737 96.3192C50.2299 96.3513 50.1035 96.3515 50.0597 96.319L48.5501 95.2108C48.4698 95.1518 48.4059 94.9724 48.4248 94.8894L49.8131 88.4216H50.2165L51.8918 94.9245ZM51.0362 84.0363C50.9205 84.1621 50.834 84.3073 50.768 84.4607H49.232C49.166 84.3073 49.0795 84.1621 48.9638 84.0363L45.356 81.1316C45.5062 80.8818 45.6339 80.6311 45.7433 80.3862C46.9686 81.2494 48.4237 81.7183 49.8765 81.7183C51.2846 81.7183 52.6893 81.2794 53.8786 80.3361C53.9893 80.2481 54.0966 80.1559 54.2041 80.0637C54.3332 80.3925 54.4971 80.7398 54.7011 81.0856L51.0362 84.0363ZM43.4876 65.1072C43.7484 65.023 43.9735 64.8591 44.1289 64.6402C44.1462 64.616 45.8864 62.2182 49.2224 62.2179H49.2229C50.287 62.2179 51.42 62.4644 52.5906 62.9506C52.6 62.9545 52.6094 62.9583 52.619 62.9621C52.9786 63.1013 56.1949 64.3236 58.3638 64.3236C58.3843 64.3236 58.4046 64.3236 58.4248 64.3233C58.7382 65.9469 58.5558 68.3988 55.2315 69.6832C55.2162 69.689 53.6774 70.2613 51.786 70.2613C49.9107 70.2613 48.3648 69.7107 47.1911 68.6247C46.9519 68.4034 46.6372 68.2856 46.3166 68.2856C46.1748 68.2856 46.0318 68.3087 45.8937 68.356C45.4433 68.5106 45.1219 68.8969 45.0632 69.3545L44.9823 69.9859L44.5823 69.7143C44.3636 69.5657 44.1092 69.492 43.8552 69.492C43.5725 69.492 43.2903 69.5834 43.0591 69.7644C42.8126 69.9575 42.5245 70.2484 42.2606 70.6218C41.9425 68.3704 41.9875 65.5918 43.4876 65.1072ZM42.7674 73.684C42.4206 71.8397 43.8551 70.7108 43.8551 70.7108L45.5549 71.8655C45.6497 71.939 45.7383 71.9741 45.8132 71.9741C45.9512 71.9741 46.0429 71.8551 46.0429 71.6382L46.3168 69.5045C47.9888 71.0515 50.0332 71.4801 51.786 71.4801C53.9659 71.4801 55.6948 70.817 55.6948 70.817C56.605 70.4654 57.3219 70.038 57.8844 69.5667C57.8876 69.6472 57.8947 69.7272 57.8947 69.8082C57.8947 70.6074 57.7794 71.4183 57.5521 72.2184C56.7065 75.1936 55.0751 77.8093 53.0765 79.3946C52.1651 80.1175 51.0586 80.4996 49.8765 80.4996C48.2289 80.4996 46.6276 79.7765 45.4831 78.5158C44.3061 77.2194 43.3561 75.491 42.7674 73.684ZM43.9811 82.8835L44.1198 82.7968L44.231 82.6784L44.6934 82.1853L48.0516 84.8893C48.1309 85.0217 48.1235 85.2413 48.0267 85.3524L47.9648 85.4234L47.9149 85.5025L46.6927 87.4389L43.5748 83.1375L43.9811 82.8835ZM66.5983 97.4624C66.5314 98.1649 65.8152 98.7812 65.066 98.7812H35.0177C34.2511 98.7812 33.5101 98.1594 33.4319 97.4505C33.0159 93.6835 33.5044 90.4684 33.5093 90.4372L33.5175 90.3851L33.5209 90.3326C33.8752 84.9997 41.5153 83.7351 41.5904 83.7232L41.6019 83.7215L41.6133 83.7195C41.8663 83.6759 42.1024 83.615 42.3292 83.5456L45.8809 88.4455C46.0665 88.8321 46.3606 89.031 46.673 89.031C46.9229 89.031 47.1846 88.9036 47.4117 88.6428L48.0604 87.6151L48.5259 88.4088L47.1892 94.636C47.0651 95.186 47.3155 95.8355 47.7849 96.1806L49.2946 97.289C49.5433 97.4717 49.8549 97.563 50.1667 97.563C50.4785 97.563 50.7902 97.4716 51.0387 97.289L52.5487 96.1803C53.0183 95.8351 53.2615 95.1632 53.116 94.6239L51.5182 88.4216H51.5395L51.9702 87.6634L52.5883 88.6428C52.8154 88.9036 53.0771 89.031 53.327 89.031C53.6394 89.031 53.9335 88.8321 54.1191 88.4455L57.6855 83.5252C57.9325 83.6043 58.192 83.6716 58.4703 83.7195L58.4817 83.7214L58.4931 83.7232C58.5703 83.7351 66.2064 84.9744 66.5627 90.3326L66.5639 90.3522L66.566 90.3716C66.5695 90.408 66.9254 94.0457 66.5983 97.4624Z" fill="white"/>
<path d="M23.9286 111.312C24.4206 110.568 25.4406 109.836 26.7126 109.86C27.6006 109.884 28.2966 110.196 28.2966 110.976C28.2966 111.6 27.9246 112.116 26.8446 112.116H25.5846V113.352H26.8566C28.1646 113.352 28.7166 113.7 28.7166 114.444C28.7166 115.296 27.9006 115.728 26.8806 115.74C25.3326 115.752 24.2406 115.08 23.7246 114.228V116.076C24.1686 116.58 25.3326 117.132 26.8566 117.12C29.1126 117.108 30.2766 115.992 30.2766 114.54C30.2766 113.436 29.6526 112.764 28.3566 112.572C29.3286 112.224 29.8446 111.576 29.8446 110.592C29.8446 109.116 28.5966 108.492 26.7126 108.48C25.3806 108.48 24.4086 108.876 23.9286 109.224V111.312Z" fill="white"/>
<path d="M31.9013 113.172C32.3093 112.536 32.9453 112.104 34.0493 112.104C34.8533 112.104 35.2613 112.368 35.2613 113.22V113.484H33.9053C32.4293 113.484 31.4333 113.868 31.4333 115.236C31.4333 116.412 32.1533 117.096 33.3653 117.096C34.3253 117.096 35.0573 116.616 35.3453 115.92V117H36.6653V113.04C36.6653 111.48 35.8013 110.88 34.0493 110.88C33.0173 110.88 32.2973 111.12 31.9013 111.42V113.172ZM33.8093 115.836C33.1853 115.836 32.8493 115.548 32.8493 115.092C32.8493 114.552 33.2453 114.396 34.0733 114.396H35.2613V114.888C35.2013 115.296 34.7573 115.836 33.8093 115.836Z" fill="white"/>
<path d="M38.2846 117H39.6886V114.516H40.6486L42.5326 117H44.2366L41.8006 113.832L43.9006 111H42.3406L40.6606 113.34H39.6886V111H38.2846V117Z" fill="white"/>
<path d="M45.3544 113.172C45.7624 112.536 46.3984 112.104 47.5024 112.104C48.3064 112.104 48.7144 112.368 48.7144 113.22V113.484H47.3584C45.8824 113.484 44.8864 113.868 44.8864 115.236C44.8864 116.412 45.6064 117.096 46.8184 117.096C47.7784 117.096 48.5104 116.616 48.7984 115.92V117H50.1184V113.04C50.1184 111.48 49.2544 110.88 47.5024 110.88C46.4704 110.88 45.7504 111.12 45.3544 111.42V113.172ZM47.2624 115.836C46.6384 115.836 46.3024 115.548 46.3024 115.092C46.3024 114.552 46.6984 114.396 47.5264 114.396H48.7144V114.888C48.6544 115.296 48.2104 115.836 47.2624 115.836Z" fill="white"/>
<path d="M51.4378 116.388C51.7378 116.724 52.6498 117.12 53.7058 117.12C55.3258 117.12 56.4178 116.46 56.4178 115.2C56.4178 114.396 55.9738 113.988 55.1698 113.832C55.7698 113.58 56.1658 113.196 56.1658 112.44C56.1658 111.492 55.4578 110.88 53.7898 110.88H53.7418C52.8178 110.88 52.0018 111.12 51.5458 111.42V113.172C52.0138 112.536 52.7338 112.104 53.7418 112.104C54.4738 112.116 54.7378 112.356 54.7378 112.764C54.7378 113.268 54.3058 113.472 53.6578 113.472H52.8058V114.492H53.8378C54.6538 114.492 55.0018 114.684 55.0018 115.152C55.0018 115.656 54.4978 115.896 53.7058 115.896C52.5778 115.896 51.7858 115.476 51.4378 114.948V116.388Z" fill="white"/>
<path d="M61.3503 117H62.7543V111H61.3503V113.712C60.9903 113.892 60.5343 113.988 60.0543 113.988C59.3103 113.988 58.9023 113.652 58.9023 112.932V111H57.4983V113.148C57.4983 114.588 58.3623 115.236 59.8023 115.236C60.3543 115.236 60.9303 115.128 61.3503 114.888V117Z" fill="white"/>
<path d="M64.4646 116.916H64.6446V117H65.7966L65.8566 116.916L68.6766 112.884V117H70.0686V111.096H69.8766V111H68.7366L65.8566 115.068V111H64.4646V116.916Z" fill="white"/>
<path d="M71.7768 117H73.1808V114.516H74.1408L76.0248 117H77.7288L75.2928 113.832L77.3928 111H75.8328L74.1528 113.34H73.1808V111H71.7768V117Z" fill="white"/>
<circle cx="216" cy="95" r="50" fill="#5BD595"/>
<g opacity="0.5">
<rect x="216" y="120" width="2" height="25" fill="white"/>
<rect x="216" y="96" width="2" height="11" fill="white"/>
<rect x="216" y="40" width="5" height="55" fill="white"/>
<rect x="216" y="90" width="55" height="5" fill="white"/>
<rect x="166" y="94" width="105" height="2" fill="white"/>
</g>
<path d="M271 90C271 83.4339 269.707 76.9321 267.194 70.8658C264.681 64.7995 260.998 59.2876 256.355 54.6447C251.712 50.0017 246.2 46.3188 240.134 43.806C234.068 41.2933 227.566 40 221 40L221 90H271Z" fill="#5BD595"/>
<path d="M186.341 117.002H187.841V108.602H180.365V117.002H181.865V109.982H186.341V117.002Z" fill="white"/>
<path d="M192.457 117.134C194.317 117.122 195.577 116.102 195.577 114.026C195.577 111.938 194.365 110.882 192.505 110.87C190.633 110.87 189.373 111.902 189.373 113.978C189.373 116.078 190.585 117.134 192.457 117.134ZM190.801 113.978C190.801 112.718 191.389 112.106 192.457 112.094C193.513 112.094 194.149 112.67 194.149 113.99V114.026C194.149 115.298 193.549 115.91 192.481 115.91C191.425 115.91 190.801 115.334 190.801 114.014V113.978Z" fill="white"/>
<path d="M196.082 115.73V118.562H197.354V117.002H201.566V118.562H202.838V115.73H201.926V111.002H197.318V111.686C197.318 113.678 197.114 114.866 196.778 115.73H196.082ZM198.626 112.382V112.238H200.522V115.73H198.134C198.47 114.794 198.59 113.762 198.626 112.382Z" fill="white"/>
<path d="M204.043 119.318H205.447V116.09C205.747 116.654 206.407 117.134 207.367 117.134C209.011 117.134 210.079 116.234 210.079 113.87C210.079 111.77 209.011 110.882 207.487 110.882C206.215 110.882 205.579 111.578 205.363 112.25V111.002H204.043V119.318ZM205.447 113.75C205.471 112.742 205.975 112.13 207.079 112.13C208.039 112.13 208.675 112.61 208.675 113.93C208.675 115.346 208.183 115.898 207.055 115.898C206.071 115.898 205.447 115.286 205.447 114.206V113.75Z" fill="white"/>
<path d="M215.015 117.002H216.419V111.002H213.863C212.003 111.002 211.163 111.674 211.163 113.174C211.163 113.954 211.547 114.542 212.255 114.83L210.863 117.002H212.411L213.623 115.022H215.015V117.002ZM213.899 112.238H215.015V113.942H213.635C212.903 113.942 212.579 113.666 212.567 113.174C212.567 112.478 212.963 112.238 213.899 112.238Z" fill="white"/>
<path d="M217.457 115.73V118.562H218.729V117.002H222.941V118.562H224.213V115.73H223.301V111.002H218.693V111.686C218.693 113.678 218.489 114.866 218.153 115.73H217.457ZM220.001 112.382V112.238H221.897V115.73H219.509C219.845 114.794 219.965 113.762 220.001 112.382Z" fill="white"/>
<path d="M228.855 117.002H230.259V111.002H228.855V113.714C228.495 113.894 228.039 113.99 227.559 113.99C226.815 113.99 226.407 113.654 226.407 112.934V111.002H225.003V113.15C225.003 114.59 225.867 115.238 227.307 115.238C227.859 115.238 228.435 115.13 228.855 114.89V117.002Z" fill="white"/>
<path d="M231.969 116.918H232.149V117.002H233.301L233.361 116.918L236.181 112.886V117.002H237.573V111.098H237.381V111.002H236.241L233.361 115.07V111.002H231.969V116.918Z" fill="white"/>
<path d="M239.281 117.002H240.685V114.518H241.645L243.529 117.002H245.233L242.797 113.834L244.897 111.002H243.337L241.657 113.342H240.685V111.002H239.281V117.002Z" fill="white"/>
<path d="M246.266 116.918H246.446V117.002H247.598L247.658 116.918L250.478 112.886V117.002H251.87V111.098H251.678V111.002H250.538L247.658 115.07V111.002H246.266V116.918Z" fill="white"/>
</svg>
