<svg width="290" height="130" viewBox="0 0 290 130" fill="none" xmlns="http://www.w3.org/2000/svg">
<path d="M47.335 65.1384C46.1357 55.7846 48.0971 46.2982 52.9076 38.1869C57.718 30.0756 65.1015 23.8048 73.8847 20.3712C82.6678 16.9375 92.3466 16.5379 101.383 19.236C110.419 21.934 118.294 27.5748 123.757 35.262" stroke="#7BBEFD" stroke-width="1.34259" stroke-dasharray="3.36 3.36"/>
<path d="M131.231 63.7784C132.431 73.1322 130.47 82.6187 125.659 90.7301C120.849 98.8415 113.466 105.112 104.683 108.546C95.8998 111.98 86.221 112.38 77.1846 109.682C68.1483 106.985 60.2729 101.344 54.81 93.6569" stroke="#F3B36A" stroke-width="1.34259" stroke-dasharray="3.36 3.36"/>
<path d="M69.5857 7.00058H68.082V0.421875H69.5857V3.03456H70.4504L72.1608 0.421875H73.9465L71.7473 3.50447L74.3882 7.00058H72.4898L70.5349 4.32211H69.5857V7.00058Z" fill="#7BBEFD"/>
<path d="M77.1347 2.18873C77.498 2.18873 77.8301 2.24198 78.1309 2.3485C78.4379 2.44874 78.701 2.60225 78.9203 2.80901C79.1459 3.01576 79.3213 3.27265 79.4466 3.57965C79.5719 3.88666 79.6346 4.24692 79.6346 4.66044C79.6346 5.06769 79.575 5.42482 79.456 5.73183C79.337 6.03257 79.1647 6.28632 78.9391 6.49308C78.7198 6.69984 78.4504 6.85647 78.1309 6.96299C77.8113 7.06323 77.4511 7.11336 77.0501 7.11336C76.6867 7.11336 76.3515 7.06323 76.0445 6.96299C75.7437 6.85647 75.4806 6.69984 75.255 6.49308C75.0357 6.28632 74.8634 6.02944 74.7381 5.72243C74.6128 5.41543 74.5502 5.05516 74.5502 4.64164C74.5502 3.8334 74.7788 3.22566 75.2362 2.8184C75.6999 2.40488 76.3327 2.19499 77.1347 2.18873ZM76.0069 4.66044C76.0069 5.09276 76.1071 5.40289 76.3076 5.59086C76.5081 5.77882 76.7713 5.8728 77.0971 5.8728C77.4417 5.8728 77.7079 5.77882 77.8959 5.59086C78.0839 5.40289 78.1778 5.09589 78.1778 4.66984V4.64164C78.1778 4.21559 78.0745 3.90859 77.8677 3.72063C77.6672 3.5264 77.4072 3.42928 77.0877 3.42928C76.7431 3.42928 76.4768 3.52326 76.2888 3.71123C76.1009 3.89919 76.0069 4.2062 76.0069 4.63225V4.66044Z" fill="#7BBEFD"/>
<path d="M83.6994 5.23373H81.9326V7.00058H80.5228V2.30151H81.9326V3.99317H83.6994V2.30151H85.1091V7.00058H83.6994V5.23373Z" fill="#7BBEFD"/>
<path d="M87.3671 3.54206H85.9386V2.30151H90.2711V3.54206H88.7768V7.00058H87.3671V3.54206Z" fill="#7BBEFD"/>
<path d="M91.0957 2.30151H92.4209V3.25072C92.4585 3.12541 92.5149 3.00323 92.5901 2.88419C92.6715 2.75888 92.7749 2.6461 92.9002 2.54586C93.0255 2.44561 93.1759 2.36729 93.3513 2.3109C93.533 2.24825 93.7429 2.21692 93.981 2.21692C94.2629 2.21692 94.5261 2.26078 94.7704 2.3485C95.021 2.43621 95.2372 2.57405 95.4189 2.76201C95.6006 2.94998 95.7416 3.1912 95.8418 3.48567C95.9483 3.78015 96.0016 4.13414 96.0016 4.54766C96.0016 5.0113 95.9483 5.40603 95.8418 5.73183C95.7416 6.05137 95.5975 6.31451 95.4095 6.52127C95.2215 6.72177 94.996 6.86901 94.7328 6.96299C94.4759 7.05697 94.194 7.10396 93.887 7.10396C93.5299 7.10396 93.2385 7.03191 93.013 6.8878C92.7874 6.73743 92.6182 6.5526 92.5055 6.33331V8.9366H91.0957V2.30151ZM92.5055 4.76382C92.5055 5.13348 92.5932 5.40916 92.7686 5.59086C92.944 5.77255 93.1947 5.8634 93.5205 5.8634C93.8964 5.8634 94.1658 5.76942 94.3287 5.58146C94.4979 5.38723 94.5825 5.0583 94.5825 4.59465C94.5825 4.18113 94.4885 3.88979 94.3005 3.72063C94.1188 3.54519 93.8745 3.45748 93.5675 3.45748C93.1915 3.45748 92.9221 3.54519 92.7592 3.72063C92.6026 3.89606 92.518 4.14354 92.5055 4.46308V4.76382Z" fill="#7BBEFD"/>
<path d="M97.028 2.61164C97.1846 2.4926 97.4039 2.39549 97.6858 2.3203C97.974 2.24512 98.3406 2.20752 98.7854 2.20752C99.5623 2.20752 100.117 2.34536 100.449 2.62104C100.787 2.89046 100.956 3.31651 100.956 3.89919V7.00058H99.6218V6.15475C99.5091 6.43043 99.3242 6.65285 99.0674 6.82201C98.8105 6.99118 98.4972 7.07576 98.1275 7.07576C97.6388 7.07576 97.2692 6.94419 97.0186 6.68104C96.7679 6.41163 96.6426 6.05763 96.6426 5.61905C96.6426 5.33711 96.6896 5.10529 96.7836 4.92359C96.8839 4.74189 97.0186 4.59779 97.1877 4.49127C97.3569 4.38476 97.5574 4.30958 97.7892 4.26572C98.021 4.22186 98.2685 4.19993 98.5317 4.19993H99.5467V4.16234C99.5467 3.89919 99.4934 3.71436 99.3869 3.60785C99.2804 3.49507 99.0799 3.43868 98.7854 3.43868C98.5348 3.43868 98.3155 3.46061 98.1275 3.50447C97.9458 3.54206 97.7861 3.59845 97.6482 3.67363C97.5167 3.74255 97.4008 3.82714 97.3005 3.92738C97.2003 4.02137 97.1094 4.12788 97.028 4.24692V2.61164ZM98.6162 5.83521C98.8857 5.83521 99.1018 5.78509 99.2647 5.68484C99.4276 5.58459 99.5216 5.45302 99.5467 5.29012V5.01757H98.7666C98.5411 5.01757 98.3656 5.0489 98.2403 5.11155C98.1213 5.17421 98.0618 5.28072 98.0618 5.43109C98.0618 5.7005 98.2466 5.83521 98.6162 5.83521Z" fill="#7BBEFD"/>
<path d="M102.082 2.30151H103.491V4.01197H104.159L105.315 2.30151H106.865L105.315 4.51947L107.1 7.00058H105.409L104.149 5.18674H103.491V7.00058H102.082V2.30151Z" fill="#7BBEFD"/>
<path d="M108.797 3.54206H107.369V2.30151H111.701V3.54206H110.207V7.00058H108.797V3.54206Z" fill="#7BBEFD"/>
<path d="M69.5857 127.833H68.082V121.254H69.5857V123.867H70.4504L72.1608 121.254H73.9465L71.7473 124.336L74.3882 127.833H72.4898L70.5349 125.154H69.5857V127.833Z" fill="#F3B36A"/>
<path d="M77.1347 123.021C77.498 123.021 77.8301 123.074 78.1309 123.181C78.4379 123.281 78.701 123.434 78.9203 123.641C79.1459 123.848 79.3213 124.105 79.4466 124.412C79.5719 124.719 79.6346 125.079 79.6346 125.492C79.6346 125.9 79.575 126.257 79.456 126.564C79.337 126.865 79.1647 127.118 78.9391 127.325C78.7198 127.532 78.4504 127.689 78.1309 127.795C77.8113 127.895 77.4511 127.945 77.0501 127.945C76.6867 127.945 76.3515 127.895 76.0445 127.795C75.7437 127.689 75.4806 127.532 75.255 127.325C75.0357 127.118 74.8634 126.861 74.7381 126.554C74.6128 126.247 74.5502 125.887 74.5502 125.474C74.5502 124.665 74.7788 124.058 75.2362 123.65C75.6999 123.237 76.3327 123.027 77.1347 123.021ZM76.0069 125.492C76.0069 125.925 76.1071 126.235 76.3076 126.423C76.5081 126.611 76.7713 126.705 77.0971 126.705C77.4417 126.705 77.7079 126.611 77.8959 126.423C78.0839 126.235 78.1778 125.928 78.1778 125.502V125.474C78.1778 125.048 78.0745 124.741 77.8677 124.553C77.6672 124.358 77.4072 124.261 77.0877 124.261C76.7431 124.261 76.4768 124.355 76.2888 124.543C76.1009 124.731 76.0069 125.038 76.0069 125.464V125.492Z" fill="#F3B36A"/>
<path d="M83.6994 126.066H81.9326V127.833H80.5228V123.134H81.9326V124.825H83.6994V123.134H85.1091V127.833H83.6994V126.066Z" fill="#F3B36A"/>
<path d="M87.3671 124.374H85.9386V123.134H90.2711V124.374H88.7768V127.833H87.3671V124.374Z" fill="#F3B36A"/>
<path d="M91.0957 123.134H92.4209V124.083C92.4585 123.957 92.5149 123.835 92.5901 123.716C92.6715 123.591 92.7749 123.478 92.9002 123.378C93.0255 123.278 93.1759 123.199 93.3513 123.143C93.533 123.08 93.7429 123.049 93.981 123.049C94.2629 123.049 94.5261 123.093 94.7704 123.181C95.021 123.268 95.2372 123.406 95.4189 123.594C95.6006 123.782 95.7416 124.023 95.8418 124.318C95.9483 124.612 96.0016 124.966 96.0016 125.38C96.0016 125.843 95.9483 126.238 95.8418 126.564C95.7416 126.883 95.5975 127.147 95.4095 127.353C95.2215 127.554 94.996 127.701 94.7328 127.795C94.4759 127.889 94.194 127.936 93.887 127.936C93.5299 127.936 93.2385 127.864 93.013 127.72C92.7874 127.569 92.6182 127.385 92.5055 127.165V129.769H91.0957V123.134ZM92.5055 125.596C92.5055 125.966 92.5932 126.241 92.7686 126.423C92.944 126.605 93.1947 126.695 93.5205 126.695C93.8964 126.695 94.1658 126.601 94.3287 126.413C94.4979 126.219 94.5825 125.89 94.5825 125.427C94.5825 125.013 94.4885 124.722 94.3005 124.553C94.1188 124.377 93.8745 124.29 93.5675 124.29C93.1915 124.29 92.9221 124.377 92.7592 124.553C92.6026 124.728 92.518 124.976 92.5055 125.295V125.596Z" fill="#F3B36A"/>
<path d="M97.028 123.444C97.1846 123.325 97.4039 123.228 97.6858 123.152C97.974 123.077 98.3406 123.04 98.7854 123.04C99.5623 123.04 100.117 123.177 100.449 123.453C100.787 123.722 100.956 124.149 100.956 124.731V127.833H99.6218V126.987C99.5091 127.262 99.3242 127.485 99.0674 127.654C98.8105 127.823 98.4972 127.908 98.1275 127.908C97.6388 127.908 97.2692 127.776 97.0186 127.513C96.7679 127.244 96.6426 126.89 96.6426 126.451C96.6426 126.169 96.6896 125.937 96.7836 125.756C96.8839 125.574 97.0186 125.43 97.1877 125.323C97.3569 125.217 97.5574 125.142 97.7892 125.098C98.021 125.054 98.2685 125.032 98.5317 125.032H99.5467V124.994C99.5467 124.731 99.4934 124.546 99.3869 124.44C99.2804 124.327 99.0799 124.271 98.7854 124.271C98.5348 124.271 98.3155 124.293 98.1275 124.336C97.9458 124.374 97.7861 124.43 97.6482 124.506C97.5167 124.575 97.4008 124.659 97.3005 124.759C97.2003 124.853 97.1094 124.96 97.028 125.079V123.444ZM98.6162 126.667C98.8857 126.667 99.1018 126.617 99.2647 126.517C99.4276 126.417 99.5216 126.285 99.5467 126.122V125.85H98.7666C98.5411 125.85 98.3656 125.881 98.2403 125.944C98.1213 126.006 98.0618 126.113 98.0618 126.263C98.0618 126.533 98.2466 126.667 98.6162 126.667Z" fill="#F3B36A"/>
<path d="M102.082 123.134H103.491V124.844H104.159L105.315 123.134H106.865L105.315 125.351L107.1 127.833H105.409L104.149 126.019H103.491V127.833H102.082V123.134Z" fill="#F3B36A"/>
<path d="M108.797 124.374H107.369V123.134H111.701V124.374H110.207V127.833H108.797V124.374Z" fill="#F3B36A"/>
<path d="M158.769 65.1384C157.569 55.7846 159.531 46.2982 164.341 38.1869C169.152 30.0756 176.535 23.8048 185.318 20.3712C194.101 16.9375 203.78 16.5379 212.816 19.236C221.853 21.934 229.728 27.5748 235.191 35.262" stroke="#F3B36A" stroke-width="1.34259" stroke-dasharray="3.36 3.36"/>
<path d="M242.665 63.7784C243.864 73.1322 241.903 82.6187 237.093 90.7301C232.283 98.8415 224.899 105.112 216.116 108.546C207.333 111.98 197.655 112.38 188.618 109.682C179.582 106.985 171.706 101.344 166.244 93.6569" stroke="#5BD595" stroke-width="1.34259" stroke-dasharray="3.36 3.36"/>
<path d="M190.326 6.32341C190.245 6.42366 190.132 6.52077 189.988 6.61475C189.844 6.70873 189.671 6.79332 189.471 6.8685C189.277 6.94369 189.057 7.00321 188.813 7.04707C188.575 7.09092 188.315 7.11285 188.033 7.11285C187.488 7.11285 186.987 7.03767 186.529 6.8873C186.078 6.73066 185.69 6.50824 185.364 6.22003C185.038 5.92555 184.784 5.56842 184.603 5.14864C184.421 4.72886 184.33 4.24642 184.33 3.70133C184.33 3.19383 184.418 2.73332 184.593 2.3198C184.775 1.90001 185.029 1.54288 185.354 1.24841C185.687 0.947668 186.078 0.715847 186.529 0.552945C186.987 0.390044 187.494 0.308594 188.052 0.308594C188.553 0.308594 188.985 0.36185 189.349 0.468362C189.712 0.574874 190.007 0.693918 190.232 0.825492V2.77091C190.126 2.63307 190 2.50149 189.856 2.37619C189.712 2.25088 189.546 2.14123 189.358 2.04725C189.176 1.947 188.976 1.86869 188.757 1.8123C188.537 1.74964 188.302 1.71832 188.052 1.71832C187.732 1.71832 187.444 1.76844 187.187 1.86869C186.93 1.96267 186.711 2.09737 186.529 2.27281C186.354 2.44197 186.216 2.64873 186.116 2.89308C186.022 3.13744 185.975 3.40998 185.975 3.71072C185.975 3.9864 186.019 4.24642 186.106 4.49077C186.194 4.72886 186.322 4.93875 186.492 5.12045C186.667 5.29588 186.883 5.43685 187.14 5.54336C187.403 5.64987 187.707 5.70313 188.052 5.70313C188.603 5.70313 189.07 5.60915 189.452 5.42119C189.834 5.22696 190.126 4.97008 190.326 4.65054V6.32341Z" fill="#F3B36A"/>
<path d="M191.35 5.75952C191.456 5.42745 191.538 5.03273 191.594 4.57535C191.657 4.11171 191.688 3.53216 191.688 2.8367V2.301H195.598V5.75952H196.274V8.22184H195.034V7.00008H192.102V8.22184H190.852V5.75952H191.35ZM193.004 3.54156C192.991 3.9864 192.96 4.38739 192.91 4.74452C192.866 5.10165 192.794 5.43998 192.694 5.75952H194.188V3.54156H193.004Z" fill="#F3B36A"/>
<path d="M201.071 6.54896C201.021 6.60535 200.94 6.66801 200.827 6.73693C200.714 6.79958 200.579 6.8591 200.423 6.91549C200.266 6.97188 200.097 7.01574 199.915 7.04707C199.733 7.08466 199.545 7.10346 199.351 7.10346C198.944 7.10346 198.577 7.0502 198.252 6.94369C197.932 6.83717 197.66 6.68054 197.434 6.47378C197.208 6.26075 197.033 6.00074 196.908 5.69373C196.789 5.38046 196.729 5.02646 196.729 4.63174C196.729 4.26208 196.786 3.92688 196.898 3.62614C197.017 3.3254 197.183 3.07165 197.396 2.86489C197.609 2.65187 197.869 2.48583 198.176 2.36679C198.483 2.24774 198.825 2.18822 199.201 2.18822C199.928 2.18822 200.492 2.39498 200.893 2.8085C201.294 3.21575 201.494 3.82037 201.494 4.62234V5.01707H198.129C198.18 5.29275 198.308 5.50577 198.515 5.65614C198.728 5.80025 199.032 5.8723 199.426 5.8723C199.84 5.8723 200.185 5.80651 200.46 5.67494C200.736 5.54336 200.94 5.38046 201.071 5.18623V6.54896ZM199.154 3.42878C198.891 3.42878 198.675 3.4883 198.505 3.60734C198.343 3.72012 198.227 3.88616 198.158 4.10545H200.056C200.025 3.91748 199.937 3.75771 199.793 3.62614C199.655 3.49457 199.442 3.42878 199.154 3.42878Z" fill="#F3B36A"/>
<path d="M205.287 3.54156H204.074L204.027 4.36859C203.996 4.95754 203.93 5.43058 203.83 5.78771C203.73 6.13858 203.605 6.40799 203.454 6.59596C203.31 6.78392 203.147 6.90923 202.966 6.97188C202.784 7.02827 202.596 7.05646 202.402 7.05646C202.295 7.05646 202.192 7.0502 202.091 7.03767C201.991 7.02514 201.916 7.01261 201.866 7.00008V5.58096C201.91 5.59975 201.951 5.61228 201.988 5.61855C202.032 5.62481 202.073 5.62795 202.11 5.62795C202.192 5.62795 202.27 5.61228 202.345 5.58096C202.42 5.54336 202.486 5.46191 202.543 5.3366C202.605 5.20503 202.655 5.0108 202.693 4.75392C202.737 4.49704 202.765 4.14617 202.778 3.70133L202.815 2.301H206.706V7.00008H205.287V3.54156Z" fill="#F3B36A"/>
<path d="M207.878 2.301H209.288V4.01146H209.955L211.111 2.301H212.662L211.111 4.51896L212.897 7.00008H211.205L209.946 5.18623H209.288V7.00008H207.878V2.301Z" fill="#F3B36A"/>
<path d="M213.627 2.61114C213.783 2.4921 214.003 2.39498 214.284 2.3198C214.573 2.24461 214.939 2.20702 215.384 2.20702C216.161 2.20702 216.715 2.34486 217.048 2.62054C217.386 2.88995 217.555 3.316 217.555 3.89869V7.00008H216.22V6.15424C216.108 6.42992 215.923 6.65234 215.666 6.82151C215.409 6.99068 215.096 7.07526 214.726 7.07526C214.237 7.07526 213.868 6.94369 213.617 6.68054C213.367 6.41113 213.241 6.05713 213.241 5.61855C213.241 5.3366 213.288 5.10478 213.382 4.92308C213.482 4.74139 213.617 4.59728 213.786 4.49077C213.956 4.38426 214.156 4.30907 214.388 4.26521C214.62 4.22136 214.867 4.19943 215.13 4.19943H216.145V4.16183C216.145 3.89869 216.092 3.71386 215.986 3.60734C215.879 3.49457 215.679 3.43818 215.384 3.43818C215.133 3.43818 214.914 3.46011 214.726 3.50396C214.544 3.54156 214.385 3.59795 214.247 3.67313C214.115 3.74205 213.999 3.82663 213.899 3.92688C213.799 4.02086 213.708 4.12737 213.627 4.24642V2.61114ZM215.215 5.83471C215.484 5.83471 215.7 5.78458 215.863 5.68433C216.026 5.58409 216.12 5.45251 216.145 5.28961V5.01707H215.365C215.14 5.01707 214.964 5.04839 214.839 5.11105C214.72 5.1737 214.66 5.28021 214.66 5.43058C214.66 5.7 214.845 5.83471 215.215 5.83471Z" fill="#F3B36A"/>
<path d="M190.326 127.157C190.245 127.258 190.132 127.355 189.988 127.449C189.844 127.543 189.671 127.627 189.471 127.702C189.277 127.778 189.057 127.837 188.813 127.881C188.575 127.925 188.315 127.947 188.033 127.947C187.488 127.947 186.987 127.872 186.529 127.721C186.078 127.565 185.69 127.342 185.364 127.054C185.038 126.76 184.784 126.402 184.603 125.983C184.421 125.563 184.33 125.08 184.33 124.535C184.33 124.028 184.418 123.567 184.593 123.154C184.775 122.734 185.029 122.377 185.354 122.082C185.687 121.782 186.078 121.55 186.529 121.387C186.987 121.224 187.494 121.143 188.052 121.143C188.553 121.143 188.985 121.196 189.349 121.302C189.712 121.409 190.007 121.528 190.232 121.659V123.605C190.126 123.467 190 123.335 189.856 123.21C189.712 123.085 189.546 122.975 189.358 122.881C189.176 122.781 188.976 122.703 188.757 122.646C188.537 122.584 188.302 122.552 188.052 122.552C187.732 122.552 187.444 122.602 187.187 122.703C186.93 122.797 186.711 122.931 186.529 123.107C186.354 123.276 186.216 123.483 186.116 123.727C186.022 123.971 185.975 124.244 185.975 124.545C185.975 124.82 186.019 125.08 186.106 125.325C186.194 125.563 186.322 125.773 186.492 125.954C186.667 126.13 186.883 126.271 187.14 126.377C187.403 126.484 187.707 126.537 188.052 126.537C188.603 126.537 189.07 126.443 189.452 126.255C189.834 126.061 190.126 125.804 190.326 125.485V127.157Z" fill="#5BD595"/>
<path d="M191.35 126.594C191.456 126.261 191.538 125.867 191.594 125.409C191.657 124.946 191.688 124.366 191.688 123.671V123.135H195.598V126.594H196.274V129.056H195.034V127.834H192.102V129.056H190.852V126.594H191.35ZM193.004 124.376C192.991 124.82 192.96 125.221 192.91 125.579C192.866 125.936 192.794 126.274 192.694 126.594H194.188V124.376H193.004Z" fill="#5BD595"/>
<path d="M201.071 127.383C201.021 127.439 200.94 127.502 200.827 127.571C200.714 127.634 200.579 127.693 200.423 127.749C200.266 127.806 200.097 127.85 199.915 127.881C199.733 127.919 199.545 127.937 199.351 127.937C198.944 127.937 198.577 127.884 198.252 127.778C197.932 127.671 197.66 127.515 197.434 127.308C197.208 127.095 197.033 126.835 196.908 126.528C196.789 126.214 196.729 125.86 196.729 125.466C196.729 125.096 196.786 124.761 196.898 124.46C197.017 124.159 197.183 123.906 197.396 123.699C197.609 123.486 197.869 123.32 198.176 123.201C198.483 123.082 198.825 123.022 199.201 123.022C199.928 123.022 200.492 123.229 200.893 123.642C201.294 124.05 201.494 124.654 201.494 125.456V125.851H198.129C198.18 126.127 198.308 126.34 198.515 126.49C198.728 126.634 199.032 126.706 199.426 126.706C199.84 126.706 200.185 126.64 200.46 126.509C200.736 126.377 200.94 126.214 201.071 126.02V127.383ZM199.154 124.263C198.891 124.263 198.675 124.322 198.505 124.441C198.343 124.554 198.227 124.72 198.158 124.939H200.056C200.025 124.751 199.937 124.592 199.793 124.46C199.655 124.329 199.442 124.263 199.154 124.263Z" fill="#5BD595"/>
<path d="M205.287 124.376H204.074L204.027 125.203C203.996 125.792 203.93 126.265 203.83 126.622C203.73 126.973 203.605 127.242 203.454 127.43C203.31 127.618 203.147 127.743 202.966 127.806C202.784 127.862 202.596 127.89 202.402 127.89C202.295 127.89 202.192 127.884 202.091 127.872C201.991 127.859 201.916 127.847 201.866 127.834V126.415C201.91 126.434 201.951 126.446 201.988 126.453C202.032 126.459 202.073 126.462 202.11 126.462C202.192 126.462 202.27 126.446 202.345 126.415C202.42 126.377 202.486 126.296 202.543 126.171C202.605 126.039 202.655 125.845 202.693 125.588C202.737 125.331 202.765 124.98 202.778 124.535L202.815 123.135H206.706V127.834H205.287V124.376Z" fill="#5BD595"/>
<path d="M207.878 123.135H209.288V124.845H209.955L211.111 123.135H212.662L211.111 125.353L212.897 127.834H211.205L209.946 126.02H209.288V127.834H207.878V123.135Z" fill="#5BD595"/>
<path d="M213.627 123.445C213.783 123.326 214.003 123.229 214.284 123.154C214.573 123.079 214.939 123.041 215.384 123.041C216.161 123.041 216.715 123.179 217.048 123.455C217.386 123.724 217.555 124.15 217.555 124.733V127.834H216.22V126.988C216.108 127.264 215.923 127.486 215.666 127.655C215.409 127.825 215.096 127.909 214.726 127.909C214.237 127.909 213.868 127.778 213.617 127.515C213.367 127.245 213.241 126.891 213.241 126.453C213.241 126.171 213.288 125.939 213.382 125.757C213.482 125.575 213.617 125.431 213.786 125.325C213.956 125.218 214.156 125.143 214.388 125.099C214.62 125.055 214.867 125.033 215.13 125.033H216.145V124.996C216.145 124.733 216.092 124.548 215.986 124.441C215.879 124.329 215.679 124.272 215.384 124.272C215.133 124.272 214.914 124.294 214.726 124.338C214.544 124.376 214.385 124.432 214.247 124.507C214.115 124.576 213.999 124.661 213.899 124.761C213.799 124.855 213.708 124.961 213.627 125.08V123.445ZM215.215 126.669C215.484 126.669 215.7 126.619 215.863 126.518C216.026 126.418 216.12 126.286 216.145 126.124V125.851H215.365C215.14 125.851 214.964 125.882 214.839 125.945C214.72 126.008 214.66 126.114 214.66 126.265C214.66 126.534 214.845 126.669 215.215 126.669Z" fill="#5BD595"/>
<circle cx="33.5648" cy="64.4594" r="33.5648" fill="#7BBEFD"/>
<path d="M45.5304 61.2733C45.2452 56.9823 39.401 56.0808 39.401 56.0808C37.9082 55.8235 37.2998 54.587 37.0588 53.7865C38.2063 52.5464 39.0093 50.9438 39.4532 49.3821C39.6223 48.7868 39.7134 48.1654 39.7134 47.5476C39.7134 47.1962 39.677 46.8536 39.6151 46.5194C40.36 45.3146 40.1406 43.9712 39.9639 43.3257C39.9103 43.1297 39.7074 43.0329 39.4988 43.0329C39.4764 43.0329 39.454 43.034 39.4316 43.0362C39.3522 43.0441 39.2682 43.0478 39.1803 43.0478C37.8462 43.0478 35.64 42.1926 35.64 42.1926C34.967 41.9131 34.1381 41.7488 33.4125 41.6679C32.7776 41.5969 32.1356 41.6355 31.526 41.8276C30.6789 42.0944 29.8989 42.6199 29.267 43.2211C29.1377 43.3441 29.0272 43.4722 28.9249 43.6161C27.5802 44.0504 27.3527 45.7215 27.4325 47.1847C27.4248 47.305 27.4181 47.4255 27.4181 47.5476C27.4181 49.7471 28.3866 52.2698 29.8957 53.9322C29.9398 53.9808 29.9857 54.0274 30.0315 54.074C29.7376 54.8555 29.1094 55.8529 27.7866 56.0808C27.7866 56.0808 21.9423 56.9823 21.6572 61.2733C21.6572 61.2733 21.3051 63.5159 21.6005 66.1905C21.6996 67.0893 22.5664 67.8153 23.5082 67.8153H43.6795C44.6212 67.8153 45.4667 67.0868 45.5526 66.1868C45.782 63.79 45.5304 61.2733 45.5304 61.2733ZM37.128 55.8564L37.4385 56.1874L37.5131 56.2669L37.6063 56.3251L37.879 56.4956L35.7859 59.3831L34.9655 58.0832L34.932 58.0301L34.8905 57.9824C34.8255 57.9078 34.8205 57.7604 34.8737 57.6716L37.128 55.8564ZM34.097 59.2246H33.0756L32.7687 58.7013L32.8903 58.5088C32.9698 58.4175 33.0282 58.3127 33.0701 58.202H34.0615C34.1033 58.3127 34.1618 58.4175 34.2413 58.5088L34.3794 58.7276L34.097 59.2246ZM34.8357 64.4081C34.848 64.4538 34.8111 64.5648 34.763 64.6002L33.7495 65.3444C33.7201 65.366 33.6352 65.3661 33.6058 65.3443L32.5925 64.6004C32.5385 64.5607 32.4957 64.4403 32.5083 64.3846L33.4403 60.0428H33.7111L34.8357 64.4081ZM34.2614 57.099C34.1837 57.1834 34.1256 57.2809 34.0813 57.3838H33.0502C33.0059 57.2809 32.9478 57.1834 32.8702 57.099L30.4483 55.149C30.5491 54.9813 30.6348 54.813 30.7083 54.6487C31.5308 55.2281 32.5076 55.5429 33.4829 55.5429C34.4281 55.5429 35.3711 55.2483 36.1694 54.615C36.2438 54.556 36.3158 54.4941 36.388 54.4321C36.4746 54.6529 36.5846 54.886 36.7216 55.1182L34.2614 57.099ZM29.194 44.3919C29.3691 44.3354 29.5202 44.2253 29.6245 44.0784C29.6361 44.0622 30.8043 42.4525 33.0438 42.4523H33.0441C33.7584 42.4523 34.519 42.6178 35.3048 42.9442C35.3111 42.9468 35.3175 42.9494 35.3239 42.9519C35.5652 43.0454 37.7244 43.8659 39.1803 43.8659C39.1941 43.8659 39.2077 43.8659 39.2213 43.8657C39.4316 44.9556 39.3092 46.6016 37.0776 47.4637C37.0674 47.4677 36.0344 47.8519 34.7647 47.8519C33.5058 47.8519 32.468 47.4822 31.6801 46.7532C31.5196 46.6047 31.3083 46.5256 31.0931 46.5256C30.9979 46.5256 30.9019 46.541 30.8092 46.5728C30.5068 46.6766 30.2911 46.9359 30.2517 47.2431L30.1974 47.667L29.9289 47.4846C29.7821 47.3849 29.6113 47.3354 29.4408 47.3354C29.251 47.3354 29.0615 47.3967 28.9064 47.5183C28.7409 47.6479 28.5475 47.8432 28.3703 48.0938C28.1568 46.5825 28.187 44.7172 29.194 44.3919ZM28.7105 50.1495C28.4777 48.9114 29.4407 48.1536 29.4407 48.1536L30.5818 48.9288C30.6454 48.9781 30.7049 49.0017 30.7552 49.0017C30.8478 49.0017 30.9094 48.9218 30.9094 48.7761L31.0932 47.3438C32.2157 48.3823 33.588 48.67 34.7647 48.67C36.228 48.67 37.3887 48.2249 37.3887 48.2249C37.9997 47.9889 38.4809 47.702 38.8585 47.3856C38.8607 47.4396 38.8655 47.4933 38.8655 47.5476C38.8655 48.0841 38.788 48.6286 38.6354 49.1656C38.0678 51.1629 36.9727 52.9188 35.631 53.983C35.0192 54.4683 34.2764 54.7248 33.4829 54.7248C32.3769 54.7248 31.3019 54.2394 30.5336 53.3931C29.7435 52.5228 29.1057 51.3625 28.7105 50.1495ZM29.5253 56.3251L29.6184 56.2669L29.693 56.1874L30.0035 55.8564L32.2578 57.6716C32.311 57.7604 32.306 57.9078 32.2411 57.9824L32.1995 58.0301L32.166 58.0832L31.3456 59.3831L29.2525 56.4956L29.5253 56.3251ZM44.7081 66.1118C44.6632 66.5834 44.1824 66.9972 43.6795 66.9972H23.5082C22.9936 66.9972 22.4961 66.5797 22.4437 66.1038C22.1644 63.5751 22.4923 61.4168 22.4956 61.3958L22.5011 61.3609L22.5034 61.3256C22.7413 57.7457 27.87 56.8968 27.9204 56.8888L27.9281 56.8877L27.9358 56.8863C28.1056 56.857 28.2641 56.8161 28.4164 56.7695L30.8006 60.0588C30.9252 60.3183 31.1226 60.4518 31.3323 60.4518C31.5001 60.4518 31.6758 60.3664 31.8282 60.1913L32.2637 59.5014L32.5762 60.0342L31.6789 64.2145C31.5956 64.5837 31.7637 65.0197 32.0788 65.2513L33.0922 65.9955C33.2592 66.1181 33.4684 66.1793 33.6776 66.1793C33.8869 66.1793 34.0962 66.118 34.263 65.9955L35.2767 65.2511C35.592 65.0194 35.7552 64.5684 35.6575 64.2064L34.5849 60.0428H34.5992L34.8883 59.5338L35.3033 60.1913C35.4557 60.3664 35.6314 60.4518 35.7992 60.4518C36.0089 60.4518 36.2063 60.3183 36.3309 60.0588L38.725 56.7558C38.8908 56.809 39.065 56.8541 39.2519 56.8863L39.2595 56.8876L39.2672 56.8888C39.3189 56.8968 44.445 57.7287 44.6842 61.3256L44.6851 61.3388L44.6864 61.3518C44.6888 61.3763 44.9277 63.8182 44.7081 66.1118Z" fill="white"/>
<path d="M16.0647 75.3523C16.395 74.8528 17.0797 74.3614 17.9336 74.3776C18.5297 74.3937 18.9969 74.6031 18.9969 75.1267C18.9969 75.5456 18.7472 75.892 18.0222 75.892H17.1763V76.7217H18.0302C18.9083 76.7217 19.2788 76.9553 19.2788 77.4548C19.2788 78.0267 18.7311 78.3167 18.0463 78.3248C17.0072 78.3328 16.2741 77.8817 15.9277 77.3098V78.5503C16.2258 78.8887 17.0072 79.2592 18.0302 79.2512C19.5447 79.2431 20.3261 78.4939 20.3261 77.5192C20.3261 76.7781 19.9072 76.327 19.0372 76.1981C19.6897 75.9645 20.0361 75.5295 20.0361 74.8689C20.0361 73.8781 19.1983 73.4592 17.9336 73.4512C17.0394 73.4512 16.3869 73.717 16.0647 73.9506V75.3523Z" fill="white"/>
<path d="M21.4167 76.6009C21.6906 76.1739 22.1175 75.8839 22.8587 75.8839C23.3984 75.8839 23.6723 76.0612 23.6723 76.6331V76.8103H22.762C21.7712 76.8103 21.1025 77.0681 21.1025 77.9864C21.1025 78.7759 21.5859 79.2351 22.3995 79.2351C23.0439 79.2351 23.5353 78.9128 23.7287 78.4456V79.1706H24.6148V76.5123C24.6148 75.4651 24.0348 75.0623 22.8587 75.0623C22.1659 75.0623 21.6825 75.2234 21.4167 75.4248V76.6009ZM22.6975 78.3892C22.2787 78.3892 22.0531 78.1959 22.0531 77.8898C22.0531 77.5273 22.3189 77.4226 22.8748 77.4226H23.6723V77.7528C23.632 78.0267 23.3339 78.3892 22.6975 78.3892Z" fill="white"/>
<path d="M25.7018 79.1706H26.6443V77.5031H27.2888L28.5535 79.1706H29.6974L28.0621 77.0439L29.4718 75.1428H28.4246L27.2968 76.7137H26.6443V75.1428H25.7018V79.1706Z" fill="white"/>
<path d="M30.4477 76.6009C30.7216 76.1739 31.1486 75.8839 31.8897 75.8839C32.4294 75.8839 32.7033 76.0612 32.7033 76.6331V76.8103H31.793C30.8022 76.8103 30.1336 77.0681 30.1336 77.9864C30.1336 78.7759 30.6169 79.2351 31.4305 79.2351C32.075 79.2351 32.5664 78.9128 32.7597 78.4456V79.1706H33.6458V76.5123C33.6458 75.4651 33.0658 75.0623 31.8897 75.0623C31.1969 75.0623 30.7136 75.2234 30.4477 75.4248V76.6009ZM31.7286 78.3892C31.3097 78.3892 31.0841 78.1959 31.0841 77.8898C31.0841 77.5273 31.35 77.4226 31.9058 77.4226H32.7033V77.7528C32.663 78.0267 32.365 78.3892 31.7286 78.3892Z" fill="white"/>
<path d="M34.5315 78.7598C34.7329 78.9853 35.3451 79.2512 36.054 79.2512C37.1415 79.2512 37.8745 78.8081 37.8745 77.9623C37.8745 77.4226 37.5765 77.1487 37.0368 77.0439C37.4395 76.8748 37.7054 76.617 37.7054 76.1095C37.7054 75.4731 37.2301 75.0623 36.1104 75.0623H36.0781C35.4579 75.0623 34.9101 75.2234 34.604 75.4248V76.6009C34.9181 76.1739 35.4015 75.8839 36.0781 75.8839C36.5695 75.892 36.7468 76.0531 36.7468 76.327C36.7468 76.6653 36.4568 76.8023 36.0218 76.8023H35.4498V77.487H36.1426C36.6904 77.487 36.924 77.6159 36.924 77.9301C36.924 78.2684 36.5856 78.4295 36.054 78.4295C35.2968 78.4295 34.7651 78.1476 34.5315 77.7931V78.7598Z" fill="white"/>
<path d="M41.1857 79.1706H42.1282V75.1428H41.1857V76.9634C40.9441 77.0842 40.638 77.1487 40.3157 77.1487C39.8163 77.1487 39.5424 76.9231 39.5424 76.4398V75.1428H38.5999V76.5848C38.5999 77.5514 39.1799 77.9864 40.1466 77.9864C40.5171 77.9864 40.9038 77.9139 41.1857 77.7528V79.1706Z" fill="white"/>
<path d="M43.2763 79.1142H43.3972V79.1706H44.1705L44.2108 79.1142L46.1038 76.4076V79.1706H47.0383V75.2073H46.9094V75.1428H46.1441L44.2108 77.8737V75.1428H43.2763V79.1142Z" fill="white"/>
<path d="M48.185 79.1706H49.1275V77.5031H49.772L51.0367 79.1706H52.1806L50.5453 77.0439L51.955 75.1428H50.9078L49.78 76.7137H49.1275V75.1428H48.185V79.1706Z" fill="white"/>
<circle cx="145" cy="64.4594" r="33.5648" fill="#F3B36A"/>
<path d="M145.872 60.0327C145.817 60.0636 144.529 60.8038 143.613 61.52C143.393 61.6909 143.346 62.0199 143.504 62.2546C143.6 62.3962 143.749 62.4724 143.9 62.4724C143.999 62.4724 144.1 62.4395 144.186 62.3717C145.046 61.7013 146.319 60.9707 146.33 60.9623C146.569 60.8267 146.659 60.5077 146.533 60.2506C146.405 59.9914 146.107 59.8987 145.872 60.0327ZM139.195 48.0144C139.04 48.1708 135.398 51.9294 136.229 60.2177C136.258 60.4869 136.47 60.6867 136.716 60.6867C136.733 60.6867 136.751 60.6867 136.77 60.6843C137.037 60.6518 137.232 60.3922 137.203 60.1022C136.426 52.3752 139.829 48.8181 139.864 48.7832C140.06 48.5838 140.07 48.2504 139.885 48.0386C139.7 47.825 139.394 47.817 139.195 48.0144ZM159.02 54.1221C158.808 53.4865 158.229 53.1471 157.873 52.9927C155.15 42.186 148.826 41.6348 147.579 41.6348L147.439 41.6391C141.001 41.6391 137.657 46.0372 137.553 46.1813C133.629 50.4068 133.422 57.7426 133.415 58.8845C132.406 60.8596 131.257 62.3529 131.227 62.3962C130.911 62.8636 130.823 63.3816 130.974 63.9C131.461 65.5827 134.462 66.7594 134.789 66.883C136.289 67.5024 137.684 67.8153 138.935 67.8153C141.133 67.8153 142.165 66.84 142.152 66.84C146.344 64.0625 150.22 60.9768 150.201 60.9768C155.148 58.5534 158.214 56.6794 158.699 55.7886C159.178 55.0581 159.138 54.48 159.02 54.1221ZM157.856 55.2558C157.825 55.3052 157.025 56.4776 149.706 60.074C149.668 60.1048 145.813 63.1785 141.569 66.001C141.561 66.0071 140.741 66.7618 138.935 66.7618C137.804 66.7618 136.526 66.472 135.127 65.8936C134.02 65.4759 132.167 64.4805 131.907 63.5854C131.868 63.4535 131.847 63.2685 131.998 63.0422C132.038 62.9908 132.805 61.987 133.651 60.5242C133.714 61.0241 133.777 61.3162 133.783 61.3451C133.8 61.4213 133.833 61.4931 133.879 61.5529C135.427 63.6082 139.312 64.0853 139.476 64.1038C139.495 64.1078 139.512 64.1078 139.529 64.1078C139.678 64.1078 139.82 64.0339 139.914 63.9064C140.019 63.7644 140.047 63.573 139.99 63.4024C139.166 60.9459 139.982 58.4322 139.99 58.4054C140.08 58.1317 139.948 57.8316 139.694 57.7326C139.447 57.6379 139.163 57.7755 139.069 58.0495C139.035 58.1542 138.293 60.4194 138.842 62.9314C137.735 62.7091 135.679 62.1558 134.712 60.9831C134.637 60.5755 134.414 59.1359 134.504 57.054C134.752 54.4393 135.576 49.8002 138.282 46.883C138.312 46.842 141.465 42.6923 147.439 42.6923C147.449 42.6923 147.569 42.6903 147.579 42.6883C148.712 42.6883 154.491 43.2107 156.994 53.5342C157.04 53.7172 157.174 53.8612 157.344 53.9106C157.539 53.9639 158.002 54.1842 158.099 54.4803C158.173 54.7022 158.024 54.9923 157.856 55.2558ZM154.303 54.6918C154.248 54.7227 152.96 55.4633 152.045 56.1791C151.825 56.35 151.777 56.679 151.936 56.9134C152.031 57.0554 152.18 57.1316 152.332 57.1316C152.431 57.1316 152.532 57.0987 152.618 57.0309C153.478 56.3604 154.751 55.6298 154.762 55.6215C155.001 55.4858 155.091 55.1669 154.965 54.9097C154.837 54.6488 154.539 54.5605 154.303 54.6918Z" fill="white"/>
<path d="M120.718 76.746L123.795 72.533H124.89V78.1719H123.883V73.8944L120.79 78.1719H119.711V72.533H120.718V76.746ZM129.403 77.7691C129.312 77.8819 129.148 77.992 128.912 78.0994C128.675 78.2068 128.393 78.2605 128.066 78.2605C127.744 78.2605 127.451 78.2175 127.188 78.1316C126.925 78.0403 126.699 77.906 126.511 77.7288C126.323 77.5516 126.178 77.3314 126.076 77.0683C125.974 76.8051 125.923 76.4963 125.923 76.1419C125.923 75.7982 125.974 75.4974 126.076 75.2397C126.184 74.9765 126.331 74.759 126.519 74.5872C126.707 74.4099 126.933 74.2784 127.196 74.1924C127.459 74.1011 127.752 74.0555 128.074 74.0555C128.348 74.0609 128.598 74.0984 128.823 74.1683C129.049 74.2381 129.229 74.324 129.363 74.426V75.6022C129.223 75.3873 129.046 75.2155 128.831 75.0866C128.622 74.9523 128.369 74.8825 128.074 74.8772C127.687 74.8772 127.392 74.9792 127.188 75.1833C126.984 75.3873 126.882 75.6934 126.882 76.1016V76.2224C126.882 76.6413 126.986 76.9501 127.196 77.1488C127.411 77.3422 127.709 77.4388 128.09 77.4388C128.428 77.4388 128.705 77.3771 128.92 77.2535C129.14 77.13 129.301 76.9797 129.403 76.8024V77.7691ZM132.963 74.9738H131.207V78.1719H130.264V74.1441H133.905V78.1719H132.963V74.9738ZM136.843 78.2605C136.527 78.2605 136.242 78.2175 135.99 78.1316C135.737 78.0403 135.52 77.906 135.337 77.7288C135.155 77.5516 135.015 77.3314 134.918 77.0683C134.822 76.8051 134.773 76.4963 134.773 76.1419C134.773 75.7928 134.824 75.4894 134.926 75.2316C135.028 74.9684 135.171 74.7509 135.353 74.5791C135.536 74.4019 135.756 74.2703 136.014 74.1844C136.272 74.0984 136.559 74.0555 136.876 74.0555C137.187 74.0555 137.469 74.1011 137.722 74.1924C137.979 74.2837 138.197 74.418 138.374 74.5952C138.557 74.7724 138.696 74.9926 138.793 75.2558C138.89 75.5189 138.938 75.825 138.938 76.1741C138.938 76.5232 138.887 76.8293 138.785 77.0924C138.683 77.3502 138.541 77.565 138.358 77.7369C138.175 77.9087 137.955 78.0403 137.697 78.1316C137.44 78.2175 137.155 78.2605 136.843 78.2605ZM135.732 76.166C135.732 76.6118 135.831 76.9367 136.03 77.1408C136.229 77.3395 136.505 77.4388 136.86 77.4388C137.219 77.4388 137.496 77.3368 137.689 77.1327C137.883 76.9233 137.979 76.6037 137.979 76.1741V76.1499C137.979 75.7042 137.877 75.382 137.673 75.1833C137.475 74.9792 137.198 74.8772 136.843 74.8772C136.484 74.8825 136.207 74.9899 136.014 75.1994C135.826 75.4034 135.732 75.7176 135.732 76.1419V76.166ZM142.393 74.9738H141.088L141.064 75.4813C141.037 76.1097 140.98 76.6064 140.895 76.9716C140.814 77.3368 140.712 77.6134 140.588 77.8013C140.465 77.9839 140.328 78.0994 140.178 78.1477C140.027 78.196 139.874 78.2202 139.718 78.2202C139.643 78.2202 139.568 78.2148 139.493 78.2041C139.423 78.1987 139.367 78.1907 139.324 78.1799V77.2052C139.388 77.2267 139.458 77.2374 139.533 77.2374C139.619 77.2374 139.7 77.2213 139.775 77.1891C139.855 77.1515 139.925 77.0602 139.984 76.9152C140.043 76.7702 140.092 76.55 140.129 76.2547C140.172 75.9593 140.202 75.5484 140.218 75.0222L140.25 74.1441H143.327V78.1719H142.393V74.9738ZM147.242 76.5447H145.422V78.1719H144.479V74.1441H145.422V75.7149H147.242V74.1441H148.185V78.1719H147.242V76.5447ZM149.333 74.1441H150.268V76.8749L152.201 74.1441H153.095V78.1719H152.161V75.4088L150.227 78.1719H149.333V74.1441ZM155.16 74.9738H153.871V74.1441H157.4V74.9738H156.095V78.1719H155.16V74.9738ZM161.502 77.7691C161.454 77.8282 161.384 77.8872 161.293 77.9463C161.202 78 161.091 78.051 160.963 78.0994C160.834 78.1477 160.689 78.1853 160.528 78.2122C160.372 78.239 160.203 78.2524 160.02 78.2524C159.349 78.2578 158.828 78.0833 158.457 77.7288C158.087 77.369 157.901 76.84 157.901 76.1419C157.901 75.8089 157.95 75.5135 158.046 75.2558C158.149 74.9926 158.291 74.7724 158.473 74.5952C158.656 74.418 158.871 74.2837 159.118 74.1924C159.37 74.1011 159.65 74.0555 159.956 74.0555C160.541 74.0609 160.997 74.2354 161.325 74.5791C161.658 74.9228 161.825 75.4115 161.825 76.0452V76.4319H158.836C158.911 77.1032 159.317 77.4388 160.052 77.4388C160.423 77.4388 160.729 77.3771 160.971 77.2535C161.218 77.13 161.395 76.9797 161.502 76.8024V77.7691ZM159.931 74.8772C159.625 74.8772 159.381 74.9523 159.198 75.1027C159.016 75.2531 158.9 75.4733 158.852 75.7633H160.882C160.871 75.4894 160.783 75.2746 160.616 75.1188C160.45 74.9577 160.221 74.8772 159.931 74.8772ZM165.222 74.9738H163.917L163.893 75.4813C163.866 76.1097 163.81 76.6064 163.724 76.9716C163.643 77.3368 163.541 77.6134 163.418 77.8013C163.294 77.9839 163.157 78.0994 163.007 78.1477C162.857 78.196 162.703 78.2202 162.548 78.2202C162.473 78.2202 162.397 78.2148 162.322 78.2041C162.252 78.1987 162.196 78.1907 162.153 78.1799V77.2052C162.217 77.2267 162.287 77.2374 162.362 77.2374C162.448 77.2374 162.529 77.2213 162.604 77.1891C162.685 77.1515 162.755 77.0602 162.814 76.9152C162.873 76.7702 162.921 76.55 162.959 76.2547C163.002 75.9593 163.031 75.5484 163.047 75.0222L163.079 74.1441H166.157V78.1719H165.222V74.9738ZM170.74 76.7058C170.735 77.2213 170.59 77.5946 170.305 77.8255C170.021 78.0564 169.562 78.1719 168.928 78.1719H167.309V74.1441H168.251V75.3363H169.033C169.306 75.3363 169.548 75.3578 169.758 75.4008C169.972 75.4437 170.152 75.5189 170.297 75.6263C170.442 75.7284 170.552 75.868 170.628 76.0452C170.703 76.2224 170.74 76.4426 170.74 76.7058ZM169.798 76.6977C169.787 76.4883 169.72 76.3486 169.596 76.2788C169.478 76.2036 169.266 76.166 168.96 76.166H168.251V77.3422H168.904C169.226 77.3422 169.454 77.2965 169.588 77.2052C169.728 77.1085 169.798 76.9394 169.798 76.6977Z" fill="white"/>
<circle cx="256.436" cy="64.4594" r="33.5648" fill="#5BD595"/>
<path d="M247.771 72.5332H251.775V73.4596H248.778V74.4665H249.882C250.661 74.4665 251.243 74.6142 251.63 74.9096C252.022 75.205 252.218 75.6641 252.218 76.2871C252.218 76.5986 252.162 76.8725 252.049 77.1088C251.942 77.3397 251.783 77.5357 251.574 77.6968C251.37 77.8526 251.123 77.9707 250.833 78.0513C250.543 78.1318 250.218 78.1721 249.858 78.1721H247.771V72.5332ZM248.778 75.3929V77.2457H249.85C250.049 77.2457 250.228 77.2296 250.39 77.1974C250.556 77.1651 250.696 77.1114 250.808 77.0363C250.927 76.9611 251.015 76.8617 251.074 76.7382C251.139 76.6093 251.171 76.4509 251.171 76.2629C251.171 75.9246 251.058 75.6964 250.833 75.5782C250.612 75.4547 250.285 75.3929 249.85 75.3929H248.778Z" fill="white"/>
<path d="M253.261 74.4263C253.395 74.3242 253.581 74.2383 253.817 74.1685C254.058 74.0987 254.354 74.0638 254.703 74.0638C255.294 74.0638 255.734 74.1739 256.024 74.394C256.314 74.6142 256.459 74.9875 256.459 75.5138V78.1721H255.573V77.4471C255.476 77.6834 255.31 77.874 255.073 78.019C254.843 78.164 254.566 78.2365 254.244 78.2365C253.836 78.2365 253.516 78.1291 253.285 77.9143C253.06 77.6941 252.947 77.3853 252.947 76.9879C252.947 76.757 252.987 76.5664 253.068 76.416C253.148 76.2656 253.261 76.1475 253.406 76.0615C253.551 75.9702 253.726 75.9058 253.93 75.8682C254.134 75.8306 254.359 75.8118 254.606 75.8118H255.517V75.6346C255.517 75.35 255.447 75.1539 255.307 75.0465C255.173 74.9391 254.971 74.8854 254.703 74.8854C254.332 74.8854 254.034 74.9526 253.809 75.0868C253.583 75.2157 253.401 75.3876 253.261 75.6024V74.4263ZM254.542 77.3907C254.703 77.3907 254.84 77.3719 254.953 77.3343C255.071 77.2914 255.17 77.2403 255.251 77.1813C255.331 77.1168 255.393 77.047 255.436 76.9718C255.479 76.8966 255.506 76.8241 255.517 76.7543V76.424H254.719C254.44 76.424 254.233 76.4563 254.099 76.5207C253.964 76.5851 253.897 76.7087 253.897 76.8913C253.897 77.047 253.951 77.1705 254.058 77.2618C254.171 77.3477 254.332 77.3907 254.542 77.3907Z" fill="white"/>
<path d="M260.309 76.5449H258.489V78.1721H257.546V74.1443H258.489V75.7151H260.309V74.1443H261.252V78.1721H260.309V76.5449Z" fill="white"/>
<path d="M262.392 74.1443H263.335V75.7151H263.987L265.115 74.1443H266.162L264.752 76.0454L266.388 78.1721H265.244L263.979 76.5046H263.335V78.1721H262.392V74.1443Z" fill="white"/>
<g clip-path="url(#clip0)">
<path d="M256.349 42.3691L244.498 48.0751V51.0436H269.042V48.0593L256.349 42.3691ZM267.406 49.4073H246.134V49.1033L256.373 44.1733L267.406 49.119V49.4073Z" fill="white" stroke="#5BD595" stroke-width="0.671296"/>
<path d="M246.135 62.498H267.406V64.1343H246.135V62.498Z" fill="white" stroke="#5BD595" stroke-width="0.671296"/>
<path d="M244.498 65.3613H269.042V66.9976H244.498V65.3613Z" fill="white" stroke="#5BD595" stroke-width="0.671296"/>
<path d="M246.543 52.6797H248.179V60.8611H246.543V52.6797Z" fill="white" stroke="#5BD595" stroke-width="0.671296"/>
<path d="M265.361 52.6797H266.998V60.8611H265.361V52.6797Z" fill="white" stroke="#5BD595" stroke-width="0.671296"/>
<path d="M260.451 52.6797H262.087V60.8611H260.451V52.6797Z" fill="white" stroke="#5BD595" stroke-width="0.671296"/>
<path d="M251.453 52.6797H253.089V60.8611H251.453V52.6797Z" fill="white" stroke="#5BD595" stroke-width="0.671296"/>
<path d="M255.951 52.6797H257.587V60.8611H255.951V52.6797Z" fill="white" stroke="#5BD595" stroke-width="0.671296"/>
</g>
<defs>
<clipPath id="clip0">
<rect width="26.1806" height="26.1806" fill="white" transform="translate(243.68 41.6348)"/>
</clipPath>
</defs>
</svg>
