<svg width="605" height="356" viewBox="0 0 605 356" fill="none" xmlns="http://www.w3.org/2000/svg">
<circle cx="50" cy="56" r="50" fill="#7BBEFD"/>
<path d="M67.8232 51.2546C67.3983 44.8626 58.6925 43.5196 58.6925 43.5196C56.4687 43.1364 55.5624 41.2944 55.2034 40.1018C56.9128 38.2545 58.109 35.8672 58.7702 33.5408C59.0222 32.6541 59.1579 31.7285 59.1579 30.8082C59.1579 30.2846 59.1036 29.7743 59.0114 29.2764C60.1211 27.4817 59.7942 25.4805 59.531 24.5189C59.4511 24.2269 59.1489 24.0827 58.8382 24.0827C58.8048 24.0827 58.7715 24.0844 58.7382 24.0876C58.6197 24.0994 58.4947 24.1049 58.3638 24.1049C56.3764 24.1049 53.0899 22.831 53.0899 22.831C52.0873 22.4147 50.8525 22.1699 49.7717 22.0493C48.826 21.9437 47.8695 22.0011 46.9615 22.2872C45.6995 22.6847 44.5377 23.4675 43.5964 24.363C43.4038 24.5463 43.2391 24.7372 43.0867 24.9516C41.0836 25.5984 40.7447 28.0878 40.8636 30.2675C40.8522 30.4466 40.8421 30.6262 40.8421 30.8082C40.8421 34.0846 42.2848 37.8426 44.5329 40.3189C44.5986 40.3914 44.6669 40.4607 44.7352 40.5302C44.2973 41.6943 43.3615 43.1801 41.3911 43.5196C41.3911 43.5196 32.685 44.8626 32.2603 51.2546C32.2603 51.2546 31.7358 54.5953 32.1758 58.5796C32.3236 59.9184 33.6148 61 35.0177 61H65.066C66.4688 61 67.7282 59.9147 67.8562 58.5741C68.1979 55.0037 67.8232 51.2546 67.8232 51.2546ZM55.3066 43.1853L55.769 43.6784L55.8802 43.7968L56.019 43.8835L56.4253 44.1375L53.3073 48.4389L52.0852 46.5025L52.0352 46.4234L51.9734 46.3524C51.8766 46.2413 51.8691 46.0217 51.9484 45.8893L55.3066 43.1853ZM50.7913 48.2028H49.2699L48.8127 47.4233L48.9938 47.1364C49.1122 47.0004 49.1993 46.8444 49.2616 46.6794H50.7385C50.8007 46.8444 50.8878 47.0004 51.0063 47.1364L51.212 47.4624L50.7913 48.2028ZM51.8918 55.9245C51.9102 55.9924 51.8551 56.1579 51.7834 56.2106L50.2737 57.3192C50.2299 57.3513 50.1035 57.3515 50.0597 57.319L48.5501 56.2108C48.4698 56.1518 48.4059 55.9724 48.4248 55.8894L49.8131 49.4216H50.2165L51.8918 55.9245ZM51.0362 45.0363C50.9205 45.1621 50.834 45.3073 50.768 45.4607H49.232C49.166 45.3073 49.0795 45.1621 48.9638 45.0363L45.356 42.1316C45.5062 41.8818 45.6339 41.6311 45.7433 41.3862C46.9686 42.2494 48.4237 42.7183 49.8765 42.7183C51.2846 42.7183 52.6893 42.2794 53.8786 41.3361C53.9893 41.2481 54.0966 41.1559 54.2041 41.0637C54.3332 41.3925 54.4971 41.7398 54.7011 42.0856L51.0362 45.0363ZM43.4876 26.1072C43.7484 26.023 43.9735 25.8591 44.1289 25.6402C44.1462 25.616 45.8864 23.2182 49.2224 23.2179H49.2229C50.287 23.2179 51.42 23.4644 52.5906 23.9506C52.6 23.9545 52.6094 23.9583 52.619 23.9621C52.9786 24.1013 56.1949 25.3236 58.3638 25.3236C58.3843 25.3236 58.4046 25.3236 58.4248 25.3233C58.7382 26.9469 58.5558 29.3988 55.2315 30.6832C55.2162 30.689 53.6774 31.2613 51.786 31.2613C49.9107 31.2613 48.3648 30.7107 47.1911 29.6247C46.9519 29.4034 46.6372 29.2856 46.3166 29.2856C46.1748 29.2856 46.0318 29.3087 45.8937 29.356C45.4433 29.5106 45.1219 29.8969 45.0632 30.3545L44.9823 30.9859L44.5823 30.7143C44.3636 30.5657 44.1092 30.492 43.8552 30.492C43.5725 30.492 43.2903 30.5834 43.0591 30.7644C42.8126 30.9575 42.5245 31.2484 42.2606 31.6218C41.9425 29.3704 41.9875 26.5918 43.4876 26.1072ZM42.7674 34.684C42.4206 32.8397 43.8551 31.7108 43.8551 31.7108L45.5549 32.8655C45.6497 32.939 45.7383 32.9741 45.8132 32.9741C45.9512 32.9741 46.0429 32.8551 46.0429 32.6382L46.3168 30.5045C47.9888 32.0515 50.0332 32.4801 51.786 32.4801C53.9659 32.4801 55.6948 31.817 55.6948 31.817C56.605 31.4654 57.3219 31.038 57.8844 30.5667C57.8876 30.6472 57.8947 30.7272 57.8947 30.8082C57.8947 31.6074 57.7794 32.4183 57.5521 33.2184C56.7065 36.1936 55.0751 38.8093 53.0765 40.3946C52.1651 41.1175 51.0586 41.4996 49.8765 41.4996C48.2289 41.4996 46.6276 40.7765 45.4831 39.5158C44.3061 38.2194 43.3561 36.491 42.7674 34.684ZM43.9811 43.8835L44.1198 43.7968L44.231 43.6784L44.6934 43.1853L48.0516 45.8893C48.1309 46.0217 48.1235 46.2413 48.0267 46.3524L47.9648 46.4234L47.9149 46.5025L46.6927 48.4389L43.5748 44.1375L43.9811 43.8835ZM66.5983 58.4624C66.5314 59.1649 65.8152 59.7812 65.066 59.7812H35.0177C34.2511 59.7812 33.5101 59.1594 33.4319 58.4505C33.0159 54.6835 33.5044 51.4684 33.5093 51.4372L33.5175 51.3851L33.5209 51.3326C33.8752 45.9997 41.5153 44.7351 41.5904 44.7232L41.6019 44.7215L41.6133 44.7195C41.8663 44.6759 42.1024 44.615 42.3292 44.5456L45.8809 49.4455C46.0665 49.8321 46.3606 50.031 46.673 50.031C46.9229 50.031 47.1846 49.9036 47.4117 49.6428L48.0604 48.6151L48.5259 49.4088L47.1892 55.636C47.0651 56.186 47.3155 56.8355 47.7849 57.1806L49.2946 58.289C49.5433 58.4717 49.8549 58.563 50.1667 58.563C50.4785 58.563 50.7902 58.4716 51.0387 58.289L52.5487 57.1803C53.0183 56.8351 53.2615 56.1632 53.116 55.6239L51.5182 49.4216H51.5395L51.9702 48.6634L52.5883 49.6428C52.8154 49.9036 53.0771 50.031 53.327 50.031C53.6394 50.031 53.9335 49.8321 54.1191 49.4455L57.6855 44.5252C57.9325 44.6043 58.192 44.6716 58.4703 44.7195L58.4817 44.7214L58.4931 44.7232C58.5703 44.7351 66.2064 45.9744 66.5627 51.3326L66.5639 51.3522L66.566 51.3716C66.5695 51.408 66.9254 55.0457 66.5983 58.4624Z" fill="white"/>
<path d="M23.9296 72.312C24.4216 71.568 25.4416 70.836 26.7136 70.86C27.6016 70.884 28.2976 71.196 28.2976 71.976C28.2976 72.6 27.9256 73.116 26.8456 73.116H25.5856V74.352H26.8576C28.1656 74.352 28.7176 74.7 28.7176 75.444C28.7176 76.296 27.9016 76.728 26.8816 76.74C25.3336 76.752 24.2416 76.08 23.7256 75.228V77.076C24.1696 77.58 25.3336 78.132 26.8576 78.12C29.1136 78.108 30.2776 76.992 30.2776 75.54C30.2776 74.436 29.6536 73.764 28.3576 73.572C29.3296 73.224 29.8456 72.576 29.8456 71.592C29.8456 70.116 28.5976 69.492 26.7136 69.48C25.3816 69.48 24.4096 69.876 23.9296 70.224V72.312ZM31.9023 74.172C32.3103 73.536 32.9463 73.104 34.0503 73.104C34.8543 73.104 35.2623 73.368 35.2623 74.22V74.484H33.9062C32.4303 74.484 31.4343 74.868 31.4343 76.236C31.4343 77.412 32.1543 78.096 33.3663 78.096C34.3263 78.096 35.0583 77.616 35.3463 76.92V78H36.6663V74.04C36.6663 72.48 35.8023 71.88 34.0503 71.88C33.0183 71.88 32.2983 72.12 31.9023 72.42V74.172ZM33.8103 76.836C33.1863 76.836 32.8503 76.548 32.8503 76.092C32.8503 75.552 33.2463 75.396 34.0742 75.396H35.2623V75.888C35.2023 76.296 34.7583 76.836 33.8103 76.836ZM38.2856 78H39.6896V75.516H40.6496L42.5336 78H44.2376L41.8016 74.832L43.9016 72H42.3416L40.6616 74.34H39.6896V72H38.2856V78ZM45.3554 74.172C45.7634 73.536 46.3994 73.104 47.5034 73.104C48.3074 73.104 48.7154 73.368 48.7154 74.22V74.484H47.3594C45.8834 74.484 44.8874 74.868 44.8874 76.236C44.8874 77.412 45.6074 78.096 46.8194 78.096C47.7794 78.096 48.5114 77.616 48.7994 76.92V78H50.1194V74.04C50.1194 72.48 49.2554 71.88 47.5034 71.88C46.4714 71.88 45.7514 72.12 45.3554 72.42V74.172ZM47.2634 76.836C46.6394 76.836 46.3034 76.548 46.3034 76.092C46.3034 75.552 46.6994 75.396 47.5274 75.396H48.7154V75.888C48.6554 76.296 48.2114 76.836 47.2634 76.836ZM51.4387 77.388C51.7387 77.724 52.6507 78.12 53.7067 78.12C55.3267 78.12 56.4187 77.46 56.4187 76.2C56.4187 75.396 55.9747 74.988 55.1707 74.832C55.7707 74.58 56.1667 74.196 56.1667 73.44C56.1667 72.492 55.4587 71.88 53.7907 71.88H53.7427C52.8187 71.88 52.0027 72.12 51.5467 72.42V74.172C52.0147 73.536 52.7347 73.104 53.7427 73.104C54.4747 73.116 54.7387 73.356 54.7387 73.764C54.7387 74.268 54.3067 74.472 53.6587 74.472H52.8067V75.492H53.8387C54.6547 75.492 55.0027 75.684 55.0027 76.152C55.0027 76.656 54.4987 76.896 53.7067 76.896C52.5787 76.896 51.7867 76.476 51.4387 75.948V77.388ZM61.3513 78H62.7553V72H61.3513V74.712C60.9913 74.892 60.5353 74.988 60.0553 74.988C59.3113 74.988 58.9033 74.652 58.9033 73.932V72H57.4993V74.148C57.4993 75.588 58.3633 76.236 59.8033 76.236C60.3553 76.236 60.9313 76.128 61.3513 75.888V78ZM64.4656 77.916H64.6456V78H65.7976L65.8576 77.916L68.6776 73.884V78H70.0696V72.096H69.8776V72H68.7376L65.8576 76.068V72H64.4656V77.916ZM71.7778 78H73.1818V75.516H74.1418L76.0258 78H77.7298L75.2938 74.832L77.3938 72H75.8338L74.1538 74.34H73.1818V72H71.7778V78Z" fill="white"/>
<circle cx="300" cy="56" r="50" fill="#F3B36A"/>
<path d="M301.3 49.4065C301.218 49.4525 299.298 50.5553 297.935 51.6221C297.607 51.8767 297.536 52.3668 297.772 52.7164C297.914 52.9274 298.137 53.041 298.361 53.041C298.51 53.041 298.66 52.9919 298.788 52.8909C300.07 51.8922 301.966 50.8039 301.982 50.7914C302.338 50.5893 302.472 50.1142 302.284 49.7311C302.094 49.345 301.65 49.207 301.3 49.4065ZM291.353 31.5034C291.123 31.7365 285.697 37.3354 286.935 49.6821C286.978 50.0832 287.294 50.3808 287.661 50.3808C287.686 50.3808 287.712 50.3808 287.74 50.3773C288.139 50.3288 288.429 49.9422 288.387 49.5101C287.228 37.9996 292.298 32.7007 292.349 32.6487C292.642 32.3517 292.657 31.855 292.38 31.5394C292.105 31.2214 291.65 31.2094 291.353 31.5034ZM320.885 40.6018C320.569 39.655 319.707 39.1494 319.178 38.9193C315.12 22.8212 305.701 22 303.842 22L303.634 22.0065C294.043 22.0065 289.062 28.5582 288.908 28.7727C283.061 35.0674 282.754 45.9952 282.742 47.6961C281.24 50.6383 279.528 52.8629 279.483 52.9274C279.013 53.6236 278.882 54.3953 279.107 55.1675C279.833 57.6741 284.302 59.4271 284.789 59.6111C287.024 60.5339 289.102 61 290.966 61C294.24 61 295.777 59.5471 295.757 59.5471C302.003 55.4096 307.776 50.8129 307.748 50.8129C315.118 47.203 319.684 44.4112 320.407 43.0844C321.121 41.9961 321.062 41.1349 320.885 40.6018ZM319.152 42.2907C319.106 42.3642 317.913 44.1107 307.01 49.468C306.954 49.5141 301.212 54.0927 294.889 58.2973C294.878 58.3063 293.657 59.4306 290.966 59.4306C289.281 59.4306 287.377 58.999 285.293 58.1373C283.645 57.5151 280.884 56.0322 280.496 54.6989C280.439 54.5023 280.408 54.2268 280.633 53.8897C280.692 53.8132 281.834 52.3178 283.095 50.1387C283.189 50.8834 283.283 51.3185 283.292 51.3615C283.317 51.4751 283.365 51.5821 283.434 51.6711C285.74 54.7329 291.527 55.4436 291.772 55.4711C291.8 55.4771 291.826 55.4771 291.851 55.4771C292.073 55.4771 292.284 55.3671 292.424 55.177C292.58 54.9655 292.623 54.6804 292.537 54.4263C291.311 50.7669 292.526 47.0224 292.537 46.9824C292.671 46.5748 292.475 46.1277 292.096 45.9802C291.729 45.8391 291.305 46.0442 291.166 46.4523C291.115 46.6083 290.01 49.9827 290.827 53.7246C289.179 53.3936 286.116 52.5693 284.675 50.8224C284.564 50.2152 284.231 48.0707 284.365 44.9694C284.735 41.0744 285.962 34.1636 289.993 29.818C290.038 29.757 294.735 23.5754 303.634 23.5754C303.648 23.5754 303.828 23.5724 303.842 23.5694C305.53 23.5694 314.138 24.3476 317.868 39.726C317.936 39.9986 318.136 40.2132 318.389 40.2867C318.68 40.3662 319.369 40.6943 319.513 41.1354C319.624 41.466 319.402 41.8981 319.152 42.2907ZM313.86 41.4505C313.777 41.4965 311.858 42.5998 310.495 43.6661C310.167 43.9206 310.096 44.4107 310.333 44.7598C310.475 44.9714 310.697 45.0849 310.922 45.0849C311.07 45.0849 311.221 45.0359 311.349 44.9349C312.63 43.9361 314.526 42.8478 314.543 42.8353C314.899 42.6333 315.033 42.1582 314.845 41.7751C314.654 41.3865 314.21 41.2549 313.86 41.4505Z" fill="white"/>
<path d="M263.826 69.6H262.326V78H263.934L268.542 71.628V78H270.042V69.6H268.41L263.826 75.876V69.6ZM276.765 77.4V75.96C276.465 76.488 275.805 76.908 274.809 76.908C273.681 76.908 273.009 76.332 273.009 75.096V74.916C273.009 73.704 273.633 73.092 274.785 73.092C275.661 73.104 276.297 73.536 276.705 74.172V72.42C276.309 72.12 275.589 71.88 274.785 71.868C272.877 71.88 271.581 72.912 271.581 74.976C271.581 77.076 272.853 78.132 274.773 78.132C275.745 78.132 276.501 77.736 276.765 77.4ZM282.067 78H283.471V72H278.047V78H279.451V73.236H282.067V78ZM287.848 78.132C289.708 78.12 290.968 77.1 290.968 75.024C290.968 72.936 289.756 71.88 287.896 71.868C286.024 71.868 284.764 72.9 284.764 74.976C284.764 77.076 285.976 78.132 287.848 78.132ZM286.192 74.976C286.192 73.716 286.78 73.104 287.848 73.092C288.904 73.092 289.54 73.668 289.54 74.988V75.024C289.54 76.296 288.94 76.908 287.872 76.908C286.816 76.908 286.192 76.332 286.192 75.012V74.976ZM296.115 78H297.507V72H292.923L292.875 73.308C292.791 76.44 292.371 76.608 291.855 76.608C291.759 76.608 291.651 76.596 291.543 76.56V78.012C291.663 78.048 291.903 78.072 292.131 78.072C293.067 78.072 293.979 77.736 294.135 73.992L294.171 73.236H296.115V78ZM303.339 78H304.743V72H303.339V74.34H300.627V72H299.223V78H300.627V75.576H303.339V78ZM306.454 77.916H306.634V78H307.786L307.846 77.916L310.666 73.884V78H312.058V72.096H311.866V72H310.726L307.846 76.068V72H306.454V77.916ZM315.134 78H316.526V73.236H318.47V72H313.214V73.236H315.134V78ZM324.581 77.4V75.96C324.257 76.488 323.525 76.908 322.421 76.908C321.329 76.908 320.717 76.404 320.609 75.408H325.061V74.832C325.061 72.948 324.017 71.88 322.277 71.868C320.465 71.868 319.217 72.984 319.217 74.976C319.217 77.04 320.393 78.132 322.373 78.12C323.465 78.132 324.293 77.736 324.581 77.4ZM322.241 73.092C323.093 73.092 323.621 73.596 323.657 74.412H320.633C320.777 73.548 321.341 73.092 322.241 73.092ZM330.123 78H331.515V72H326.931L326.883 73.308C326.799 76.44 326.379 76.608 325.863 76.608C325.767 76.608 325.659 76.596 325.551 76.56V78.012C325.671 78.048 325.911 78.072 326.139 78.072C327.075 78.072 327.987 77.736 328.143 73.992L328.179 73.236H330.123V78ZM338.343 75.816C338.343 74.244 337.431 73.776 335.799 73.776H334.635V72H333.231V78H335.643C337.515 78 338.331 77.34 338.343 75.816ZM336.939 75.804C336.939 76.524 336.567 76.764 335.607 76.764H334.635V75.012H335.691C336.603 75.012 336.915 75.18 336.939 75.804Z" fill="white"/>
<circle cx="550" cy="56" r="50" fill="#5BD595"/>
<g opacity="0.5">
<rect x="550" y="81" width="2" height="25" fill="white"/>
<rect x="550" y="57" width="2" height="11" fill="white"/>
<rect x="550" y="1" width="5" height="55" fill="white"/>
<rect x="550" y="51" width="55" height="5" fill="white"/>
<rect x="500" y="55" width="105" height="2" fill="white"/>
</g>
<path d="M605 51C605 44.4339 603.707 37.9321 601.194 31.8658C598.681 25.7995 594.998 20.2876 590.355 15.6447C585.712 11.0017 580.2 7.31876 574.134 4.80602C568.068 2.29329 561.566 1 555 1L555 51H605Z" fill="#5BD595"/>
<path d="M520.347 69.98H515.871V77H514.371V68.6H521.847V77H520.347V69.98ZM526.464 77.132C525.992 77.132 525.568 77.068 525.192 76.94C524.816 76.804 524.492 76.604 524.22 76.34C523.948 76.076 523.74 75.748 523.596 75.356C523.452 74.964 523.38 74.504 523.38 73.976C523.38 73.456 523.456 73.004 523.608 72.62C523.76 72.228 523.972 71.904 524.244 71.648C524.516 71.384 524.844 71.188 525.228 71.06C525.612 70.932 526.04 70.868 526.512 70.868C526.976 70.868 527.396 70.936 527.772 71.072C528.156 71.208 528.48 71.408 528.744 71.672C529.016 71.936 529.224 72.264 529.368 72.656C529.512 73.048 529.584 73.504 529.584 74.024C529.584 74.544 529.508 75 529.356 75.392C529.204 75.776 528.992 76.096 528.72 76.352C528.448 76.608 528.12 76.804 527.736 76.94C527.352 77.068 526.928 77.132 526.464 77.132ZM524.808 74.012C524.808 74.676 524.956 75.16 525.252 75.464C525.548 75.76 525.96 75.908 526.488 75.908C527.024 75.908 527.436 75.756 527.724 75.452C528.012 75.14 528.156 74.664 528.156 74.024V73.988C528.156 73.324 528.004 72.844 527.7 72.548C527.404 72.244 526.992 72.092 526.464 72.092C525.928 72.1 525.516 72.26 525.228 72.572C524.948 72.876 524.808 73.344 524.808 73.976V74.012ZM530.784 75.728C530.864 75.512 530.936 75.276 531 75.02C531.072 74.756 531.132 74.46 531.18 74.132C531.228 73.804 531.264 73.44 531.288 73.04C531.312 72.632 531.324 72.18 531.324 71.684V71H535.932V75.728H536.844V78.56H535.572V77H531.36V78.56H530.088V75.728H530.784ZM532.632 72.38C532.616 73.076 532.572 73.692 532.5 74.228C532.428 74.756 532.308 75.256 532.14 75.728H534.528V72.236H532.632V72.38ZM538.049 71H539.369V72.248C539.425 72.08 539.505 71.916 539.609 71.756C539.721 71.588 539.861 71.44 540.029 71.312C540.205 71.184 540.413 71.08 540.653 71C540.893 70.92 541.173 70.88 541.493 70.88C541.877 70.88 542.225 70.94 542.537 71.06C542.857 71.172 543.129 71.348 543.353 71.588C543.585 71.828 543.765 72.136 543.893 72.512C544.021 72.888 544.085 73.34 544.085 73.868C544.085 74.46 544.021 74.964 543.893 75.38C543.765 75.788 543.581 76.124 543.341 76.388C543.109 76.644 542.825 76.832 542.489 76.952C542.153 77.072 541.781 77.132 541.373 77.132C540.893 77.132 540.489 77.028 540.161 76.82C539.841 76.612 539.605 76.368 539.453 76.088V79.316H538.049V71ZM539.453 74.204C539.453 74.748 539.597 75.168 539.885 75.464C540.173 75.752 540.565 75.896 541.061 75.896C541.629 75.896 542.041 75.748 542.297 75.452C542.553 75.148 542.681 74.64 542.681 73.928C542.681 73.272 542.533 72.808 542.237 72.536C541.949 72.264 541.565 72.128 541.085 72.128C540.533 72.128 540.125 72.272 539.861 72.56C539.605 72.848 539.469 73.244 539.453 73.748V74.204ZM549.01 75.02H547.618L546.406 77H544.858L546.25 74.828C545.89 74.684 545.618 74.472 545.434 74.192C545.25 73.904 545.158 73.564 545.158 73.172C545.158 72.42 545.374 71.872 545.806 71.528C546.238 71.176 546.922 71 547.858 71H550.414V77H549.01V75.02ZM547.894 72.236C547.422 72.236 547.082 72.304 546.874 72.44C546.666 72.576 546.562 72.82 546.562 73.172C546.57 73.42 546.658 73.612 546.826 73.748C546.994 73.876 547.262 73.94 547.63 73.94H549.01V72.236H547.894ZM552.147 75.728C552.227 75.512 552.299 75.276 552.363 75.02C552.435 74.756 552.495 74.46 552.543 74.132C552.591 73.804 552.627 73.44 552.651 73.04C552.675 72.632 552.687 72.18 552.687 71.684V71H557.295V75.728H558.207V78.56H556.935V77H552.723V78.56H551.451V75.728H552.147ZM553.995 72.38C553.979 73.076 553.935 73.692 553.863 74.228C553.791 74.756 553.671 75.256 553.503 75.728H555.891V72.236H553.995V72.38ZM562.849 74.888C562.641 75.008 562.401 75.096 562.129 75.152C561.857 75.208 561.581 75.236 561.301 75.236C560.581 75.236 560.017 75.068 559.609 74.732C559.201 74.396 558.997 73.868 558.997 73.148V71H560.401V72.932C560.401 73.292 560.497 73.56 560.689 73.736C560.889 73.904 561.177 73.988 561.553 73.988C562.049 73.988 562.481 73.896 562.849 73.712V71H564.253V77H562.849V74.888ZM565.964 71H567.356V75.068L570.236 71H571.568V77H570.176V72.884L567.296 77H565.964V71ZM573.276 71H574.68V73.34H575.652L577.332 71H578.892L576.792 73.832L579.228 77H577.524L575.64 74.516H574.68V77H573.276V71ZM580.26 71H581.652V75.068L584.532 71H585.864V77H584.472V72.884L581.592 77H580.26V71Z" fill="white"/>
<circle cx="300" cy="306" r="50" fill="#5BD595"/>
<path d="M287.096 318.6H293.06V319.98H288.596V321.48H290.24C291.4 321.48 292.268 321.7 292.844 322.14C293.428 322.58 293.72 323.264 293.72 324.192C293.72 324.656 293.636 325.064 293.468 325.416C293.308 325.76 293.072 326.052 292.76 326.292C292.456 326.524 292.088 326.7 291.656 326.82C291.224 326.94 290.74 327 290.204 327H287.096V318.6ZM288.596 322.86V325.62H290.192C290.488 325.62 290.756 325.596 290.996 325.548C291.244 325.5 291.452 325.42 291.62 325.308C291.796 325.196 291.928 325.048 292.016 324.864C292.112 324.672 292.16 324.436 292.16 324.156C292.16 323.652 291.992 323.312 291.656 323.136C291.328 322.952 290.84 322.86 290.192 322.86H288.596ZM295.273 321.42C295.473 321.268 295.749 321.14 296.101 321.036C296.461 320.932 296.901 320.88 297.421 320.88C298.301 320.88 298.957 321.044 299.389 321.372C299.821 321.7 300.037 322.256 300.037 323.04V327H298.717V325.92C298.573 326.272 298.325 326.556 297.973 326.772C297.629 326.988 297.217 327.096 296.737 327.096C296.129 327.096 295.653 326.936 295.309 326.616C294.973 326.288 294.805 325.828 294.805 325.236C294.805 324.892 294.865 324.608 294.985 324.384C295.105 324.16 295.273 323.984 295.489 323.856C295.705 323.72 295.965 323.624 296.269 323.568C296.573 323.512 296.909 323.484 297.277 323.484H298.633V323.22C298.633 322.796 298.529 322.504 298.321 322.344C298.121 322.184 297.821 322.104 297.421 322.104C296.869 322.104 296.425 322.204 296.089 322.404C295.753 322.596 295.481 322.852 295.273 323.172V321.42ZM297.181 325.836C297.421 325.836 297.625 325.808 297.793 325.752C297.969 325.688 298.117 325.612 298.237 325.524C298.357 325.428 298.449 325.324 298.513 325.212C298.577 325.1 298.617 324.992 298.633 324.888V324.396H297.445C297.029 324.396 296.721 324.444 296.521 324.54C296.321 324.636 296.221 324.82 296.221 325.092C296.221 325.324 296.301 325.508 296.461 325.644C296.629 325.772 296.869 325.836 297.181 325.836ZM305.773 324.576H303.061V327H301.657V321H303.061V323.34H305.773V321H307.177V327H305.773V324.576ZM308.875 321H310.279V323.34H311.251L312.931 321H314.491L312.391 323.832L314.827 327H313.123L311.239 324.516H310.279V327H308.875V321Z" fill="white"/>
<path d="M299.872 273.094L282.219 281.594V286.016H318.781V281.57L299.872 273.094ZM316.344 283.578H284.656V283.125L299.909 275.781L316.344 283.149V283.578Z" fill="white" stroke="#5BD595"/>
<path d="M284.656 303.078H316.344V305.516H284.656V303.078Z" fill="white" stroke="#5BD595"/>
<path d="M282.219 307.344H318.781V309.781H282.219V307.344Z" fill="white" stroke="#5BD595"/>
<path d="M285.266 288.453H287.703V300.641H285.266V288.453Z" fill="white" stroke="#5BD595"/>
<path d="M313.297 288.453H315.734V300.641H313.297V288.453Z" fill="white" stroke="#5BD595"/>
<path d="M305.984 288.453H308.422V300.641H305.984V288.453Z" fill="white" stroke="#5BD595"/>
<path d="M292.578 288.453H295.016V300.641H292.578V288.453Z" fill="white" stroke="#5BD595"/>
<path d="M299.281 288.453H301.719V300.641H299.281V288.453Z" fill="white" stroke="#5BD595"/>
<circle cx="550" cy="306" r="50" fill="#5BD595"/>
<path d="M537.096 318.6H543.06V319.98H538.596V321.48H540.24C541.4 321.48 542.268 321.7 542.844 322.14C543.428 322.58 543.72 323.264 543.72 324.192C543.72 324.656 543.636 325.064 543.468 325.416C543.308 325.76 543.072 326.052 542.76 326.292C542.456 326.524 542.088 326.7 541.656 326.82C541.224 326.94 540.74 327 540.204 327H537.096V318.6ZM538.596 322.86V325.62H540.192C540.488 325.62 540.756 325.596 540.996 325.548C541.244 325.5 541.452 325.42 541.62 325.308C541.796 325.196 541.928 325.048 542.016 324.864C542.112 324.672 542.16 324.436 542.16 324.156C542.16 323.652 541.992 323.312 541.656 323.136C541.328 322.952 540.84 322.86 540.192 322.86H538.596ZM545.273 321.42C545.473 321.268 545.749 321.14 546.101 321.036C546.461 320.932 546.901 320.88 547.421 320.88C548.301 320.88 548.957 321.044 549.389 321.372C549.821 321.7 550.037 322.256 550.037 323.04V327H548.717V325.92C548.573 326.272 548.325 326.556 547.973 326.772C547.629 326.988 547.217 327.096 546.737 327.096C546.129 327.096 545.653 326.936 545.309 326.616C544.973 326.288 544.805 325.828 544.805 325.236C544.805 324.892 544.865 324.608 544.985 324.384C545.105 324.16 545.273 323.984 545.489 323.856C545.705 323.72 545.965 323.624 546.269 323.568C546.573 323.512 546.909 323.484 547.277 323.484H548.633V323.22C548.633 322.796 548.529 322.504 548.321 322.344C548.121 322.184 547.821 322.104 547.421 322.104C546.869 322.104 546.425 322.204 546.089 322.404C545.753 322.596 545.481 322.852 545.273 323.172V321.42ZM547.181 325.836C547.421 325.836 547.625 325.808 547.793 325.752C547.969 325.688 548.117 325.612 548.237 325.524C548.357 325.428 548.449 325.324 548.513 325.212C548.577 325.1 548.617 324.992 548.633 324.888V324.396H547.445C547.029 324.396 546.721 324.444 546.521 324.54C546.321 324.636 546.221 324.82 546.221 325.092C546.221 325.324 546.301 325.508 546.461 325.644C546.629 325.772 546.869 325.836 547.181 325.836ZM555.773 324.576H553.061V327H551.657V321H553.061V323.34H555.773V321H557.177V327H555.773V324.576ZM558.875 321H560.279V323.34H561.251L562.931 321H564.491L562.391 323.832L564.827 327H563.123L561.239 324.516H560.279V327H558.875V321Z" fill="white"/>
<path d="M549.872 273.094L532.219 281.594V286.016H568.781V281.57L549.872 273.094ZM566.344 283.578H534.656V283.125L549.909 275.781L566.344 283.149V283.578Z" fill="white" stroke="#5BD595"/>
<path d="M534.656 303.078H566.344V305.516H534.656V303.078Z" fill="white" stroke="#5BD595"/>
<path d="M532.219 307.344H568.781V309.781H532.219V307.344Z" fill="white" stroke="#5BD595"/>
<path d="M535.266 288.453H537.703V300.641H535.266V288.453Z" fill="white" stroke="#5BD595"/>
<path d="M563.297 288.453H565.734V300.641H563.297V288.453Z" fill="white" stroke="#5BD595"/>
<path d="M555.984 288.453H558.422V300.641H555.984V288.453Z" fill="white" stroke="#5BD595"/>
<path d="M542.578 288.453H545.016V300.641H542.578V288.453Z" fill="white" stroke="#5BD595"/>
<path d="M549.281 288.453H551.719V300.641H549.281V288.453Z" fill="white" stroke="#5BD595"/>
<path d="M235.354 56.3536C235.549 56.1583 235.549 55.8417 235.354 55.6465L232.172 52.4645C231.976 52.2692 231.66 52.2692 231.464 52.4645C231.269 52.6597 231.269 52.9763 231.464 53.1716L234.293 56L231.464 58.8284C231.269 59.0237 231.269 59.3403 231.464 59.5355C231.66 59.7308 231.976 59.7308 232.172 59.5355L235.354 56.3536ZM175 56.5L177.5 56.5L177.5 55.5L175 55.5L175 56.5ZM182.5 56.5L187.5 56.5L187.5 55.5L182.5 55.5L182.5 56.5ZM192.5 56.5L197.5 56.5L197.5 55.5L192.5 55.5L192.5 56.5ZM202.5 56.5L207.5 56.5L207.5 55.5L202.5 55.5L202.5 56.5ZM212.5 56.5L217.5 56.5L217.5 55.5L212.5 55.5L212.5 56.5ZM222.5 56.5L227.5 56.5L227.5 55.5L222.5 55.5L222.5 56.5ZM232.5 56.5L235 56.5L235 55.5L232.5 55.5L232.5 56.5ZM235.707 56.7071C236.098 56.3166 236.098 55.6834 235.707 55.2929L229.343 48.9289C228.953 48.5384 228.319 48.5384 227.929 48.9289C227.538 49.3195 227.538 49.9526 227.929 50.3432L233.586 56L227.929 61.6569C227.538 62.0474 227.538 62.6805 227.929 63.0711C228.319 63.4616 228.953 63.4616 229.343 63.0711L235.707 56.7071ZM175 57L177.5 57L177.5 55L175 55L175 57ZM182.5 57L187.5 57L187.5 55L182.5 55L182.5 57ZM192.5 57L197.5 57L197.5 55L192.5 55L192.5 57ZM202.5 57L207.5 57L207.5 55L202.5 55L202.5 57ZM212.5 57L217.5 57L217.5 55L212.5 55L212.5 57ZM222.5 57L227.5 57L227.5 55L222.5 55L222.5 57ZM232.5 57L235 57L235 55L232.5 55L232.5 57Z" fill="#404040"/>
<path d="M114.646 56.3536C114.451 56.1583 114.451 55.8417 114.646 55.6464L117.828 52.4645C118.024 52.2692 118.34 52.2692 118.536 52.4645C118.731 52.6597 118.731 52.9763 118.536 53.1716L115.707 56L118.536 58.8284C118.731 59.0237 118.731 59.3403 118.536 59.5355C118.34 59.7308 118.024 59.7308 117.828 59.5355L114.646 56.3536ZM175 56.5H172.5V55.5H175V56.5ZM167.5 56.5H162.5V55.5H167.5V56.5ZM157.5 56.5H152.5V55.5H157.5V56.5ZM147.5 56.5H142.5V55.5H147.5V56.5ZM137.5 56.5H132.5V55.5H137.5V56.5ZM127.5 56.5H122.5V55.5H127.5V56.5ZM117.5 56.5H115V55.5H117.5V56.5ZM114.293 56.7071C113.902 56.3166 113.902 55.6834 114.293 55.2929L120.657 48.9289C121.047 48.5384 121.681 48.5384 122.071 48.9289C122.462 49.3195 122.462 49.9526 122.071 50.3431L116.414 56L122.071 61.6569C122.462 62.0474 122.462 62.6805 122.071 63.0711C121.681 63.4616 121.047 63.4616 120.657 63.0711L114.293 56.7071ZM175 57H172.5V55H175V57ZM167.5 57H162.5V55H167.5V57ZM157.5 57H152.5V55H157.5V57ZM147.5 57H142.5V55H147.5V57ZM137.5 57H132.5V55H137.5V57ZM127.5 57H122.5V55H127.5V57ZM117.5 57H115V55H117.5V57Z" fill="#404040"/>
<path d="M145.996 31H144.736V21.2H145.996V25.54H147.578L151.386 21.2H152.982L148.782 25.932L153.528 31H151.876L147.648 26.52H145.996V31ZM153.986 27.472C153.986 26.8653 154.075 26.338 154.252 25.89C154.43 25.4327 154.672 25.0547 154.98 24.756C155.288 24.4573 155.652 24.2333 156.072 24.084C156.492 23.9347 156.95 23.86 157.444 23.86C158.546 23.8693 159.4 24.1773 160.006 24.784C160.613 25.3907 160.916 26.3053 160.916 27.528C160.916 28.1347 160.828 28.6667 160.65 29.124C160.473 29.572 160.23 29.9453 159.922 30.244C159.614 30.5427 159.25 30.7667 158.83 30.916C158.41 31.0653 157.953 31.14 157.458 31.14C156.348 31.1307 155.489 30.8273 154.882 30.23C154.285 29.6233 153.986 28.704 153.986 27.472ZM155.162 27.514C155.162 28.4193 155.358 29.082 155.75 29.502C156.142 29.922 156.712 30.132 157.458 30.132C158.196 30.132 158.76 29.9173 159.152 29.488C159.544 29.0493 159.74 28.396 159.74 27.528V27.486C159.74 26.59 159.54 25.932 159.138 25.512C158.746 25.092 158.182 24.8773 157.444 24.868C156.707 24.868 156.142 25.0873 155.75 25.526C155.358 25.9553 155.162 26.604 155.162 27.472V27.514ZM167.484 27.976H163.788V31H162.626V24H163.788V26.926H167.484V24H168.646V31H167.484V27.976ZM172.452 25.036H170.114V24H175.938V25.036H173.614V31H172.452V25.036ZM177.405 24H178.511V25.344C178.688 24.9333 178.987 24.5833 179.407 24.294C179.827 24.0047 180.392 23.86 181.101 23.86C182.034 23.86 182.776 24.1353 183.327 24.686C183.878 25.2367 184.153 26.1233 184.153 27.346C184.153 28.0367 184.078 28.6247 183.929 29.11C183.789 29.586 183.579 29.978 183.299 30.286C183.028 30.5847 182.697 30.804 182.305 30.944C181.913 31.084 181.465 31.154 180.961 31.154C180.373 31.154 179.874 31.0327 179.463 30.79C179.062 30.538 178.763 30.2487 178.567 29.922V33.52H177.405V24ZM178.567 27.794C178.567 28.522 178.768 29.0913 179.169 29.502C179.58 29.9033 180.116 30.104 180.779 30.104C181.544 30.104 182.1 29.8987 182.445 29.488C182.8 29.0773 182.977 28.3867 182.977 27.416C182.977 26.9493 182.926 26.5573 182.823 26.24C182.72 25.9133 182.571 25.652 182.375 25.456C182.188 25.26 181.96 25.12 181.689 25.036C181.418 24.952 181.12 24.91 180.793 24.91C180.065 24.91 179.514 25.106 179.141 25.498C178.777 25.8807 178.586 26.422 178.567 27.122V27.794ZM185.939 24.532C186.172 24.3547 186.49 24.2007 186.891 24.07C187.302 23.93 187.778 23.86 188.319 23.86C188.767 23.86 189.168 23.902 189.523 23.986C189.878 24.07 190.176 24.21 190.419 24.406C190.671 24.602 190.862 24.8633 190.993 25.19C191.124 25.5073 191.189 25.904 191.189 26.38V31H190.083V29.81C189.896 30.202 189.593 30.5193 189.173 30.762C188.762 30.9953 188.277 31.112 187.717 31.112C187.017 31.112 186.457 30.93 186.037 30.566C185.617 30.202 185.407 29.6607 185.407 28.942C185.407 28.5593 185.472 28.242 185.603 27.99C185.743 27.7287 185.939 27.5233 186.191 27.374C186.443 27.2153 186.751 27.108 187.115 27.052C187.479 26.9867 187.894 26.954 188.361 26.954H190.027V26.394C190.027 26.0953 189.985 25.848 189.901 25.652C189.817 25.456 189.7 25.302 189.551 25.19C189.402 25.0687 189.22 24.9847 189.005 24.938C188.8 24.8913 188.571 24.868 188.319 24.868C187.768 24.868 187.292 24.9893 186.891 25.232C186.499 25.4747 186.182 25.792 185.939 26.184V24.532ZM188.011 30.034C188.366 30.034 188.664 29.9827 188.907 29.88C189.159 29.7773 189.364 29.656 189.523 29.516C189.682 29.3667 189.798 29.2127 189.873 29.054C189.957 28.8953 190.008 28.7553 190.027 28.634V27.878H188.403C187.768 27.878 187.306 27.9433 187.017 28.074C186.737 28.2047 186.597 28.4707 186.597 28.872C186.597 29.2173 186.714 29.4973 186.947 29.712C187.18 29.9267 187.535 30.034 188.011 30.034ZM193.319 24H194.481V26.926H195.741L197.939 24H199.269L196.707 27.304L199.731 31H198.261L195.741 27.92H194.481V31H193.319V24ZM202.831 25.036H200.493V24H206.317V25.036H203.993V31H202.831V25.036Z" fill="#404040"/>
<path d="M300.354 120.646C300.158 120.451 299.842 120.451 299.646 120.646L296.464 123.828C296.269 124.024 296.269 124.34 296.464 124.536C296.66 124.731 296.976 124.731 297.172 124.536L300 121.707L302.828 124.536C303.024 124.731 303.34 124.731 303.536 124.536C303.731 124.34 303.731 124.024 303.536 123.828L300.354 120.646ZM300.5 181L300.5 178.5L299.5 178.5L299.5 181L300.5 181ZM300.5 173.5L300.5 168.5L299.5 168.5L299.5 173.5L300.5 173.5ZM300.5 163.5L300.5 158.5L299.5 158.5L299.5 163.5L300.5 163.5ZM300.5 153.5L300.5 148.5L299.5 148.5L299.5 153.5L300.5 153.5ZM300.5 143.5L300.5 138.5L299.5 138.5L299.5 143.5L300.5 143.5ZM300.5 133.5L300.5 128.5L299.5 128.5L299.5 133.5L300.5 133.5ZM300.5 123.5L300.5 121L299.5 121L299.5 123.5L300.5 123.5ZM300.707 120.293C300.317 119.902 299.683 119.902 299.293 120.293L292.929 126.657C292.538 127.047 292.538 127.681 292.929 128.071C293.319 128.462 293.953 128.462 294.343 128.071L300 122.414L305.657 128.071C306.047 128.462 306.681 128.462 307.071 128.071C307.462 127.681 307.462 127.047 307.071 126.657L300.707 120.293ZM301 181L301 178.5L299 178.5L299 181L301 181ZM301 173.5L301 168.5L299 168.5L299 173.5L301 173.5ZM301 163.5L301 158.5L299 158.5L299 163.5L301 163.5ZM301 153.5L301 148.5L299 148.5L299 153.5L301 153.5ZM301 143.5L301 138.5L299 138.5L299 143.5L301 143.5ZM301 133.5L301 128.5L299 128.5L299 133.5L301 133.5ZM301 123.5L301 121L299 121L299 123.5L301 123.5Z" fill="#404040"/>
<path d="M300.354 241.354C300.158 241.549 299.842 241.549 299.646 241.354L296.464 238.172C296.269 237.976 296.269 237.66 296.464 237.464C296.66 237.269 296.976 237.269 297.172 237.464L300 240.293L302.828 237.464C303.024 237.269 303.34 237.269 303.536 237.464C303.731 237.66 303.731 237.976 303.536 238.172L300.354 241.354ZM300.5 181L300.5 183.5L299.5 183.5L299.5 181L300.5 181ZM300.5 188.5L300.5 193.5L299.5 193.5L299.5 188.5L300.5 188.5ZM300.5 198.5L300.5 203.5L299.5 203.5L299.5 198.5L300.5 198.5ZM300.5 208.5L300.5 213.5L299.5 213.5L299.5 208.5L300.5 208.5ZM300.5 218.5L300.5 223.5L299.5 223.5L299.5 218.5L300.5 218.5ZM300.5 228.5L300.5 233.5L299.5 233.5L299.5 228.5L300.5 228.5ZM300.5 238.5L300.5 241L299.5 241L299.5 238.5L300.5 238.5ZM300.707 241.707C300.317 242.098 299.683 242.098 299.293 241.707L292.929 235.343C292.538 234.953 292.538 234.319 292.929 233.929C293.319 233.538 293.953 233.538 294.343 233.929L300 239.586L305.657 233.929C306.047 233.538 306.681 233.538 307.071 233.929C307.462 234.319 307.462 234.953 307.071 235.343L300.707 241.707ZM301 181L301 183.5L299 183.5L299 181L301 181ZM301 188.5L301 193.5L299 193.5L299 188.5L301 188.5ZM301 198.5L301 203.5L299 203.5L299 198.5L301 198.5ZM301 208.5L301 213.5L299 213.5L299 208.5L301 208.5ZM301 218.5L301 223.5L299 223.5L299 218.5L301 218.5ZM301 228.5L301 233.5L299 233.5L299 228.5L301 228.5ZM301 238.5L301 241L299 241L299 238.5L301 238.5Z" fill="#404040"/>
<path d="M273.866 200.481C274.015 200.603 274.165 200.775 274.314 200.999C274.463 201.223 274.599 201.489 274.72 201.797C274.841 202.096 274.939 202.437 275.014 202.819C275.098 203.193 275.14 203.594 275.14 204.023C275.14 204.807 275.023 205.517 274.79 206.151C274.547 206.777 274.211 207.309 273.782 207.747C273.343 208.186 272.811 208.527 272.186 208.769C271.561 209.003 270.861 209.119 270.086 209.119C269.358 209.119 268.691 209.003 268.084 208.769C267.468 208.536 266.936 208.2 266.488 207.761C266.04 207.313 265.69 206.777 265.438 206.151C265.186 205.517 265.06 204.798 265.06 203.995C265.06 203.594 265.093 203.221 265.158 202.875C265.214 202.53 265.293 202.222 265.396 201.951C265.489 201.671 265.597 201.429 265.718 201.223C265.83 201.018 265.942 200.859 266.054 200.747L268.028 200.747C267.795 200.887 267.571 201.065 267.356 201.279C267.132 201.494 266.936 201.741 266.768 202.021C266.591 202.301 266.451 202.609 266.348 202.945C266.236 203.281 266.18 203.631 266.18 203.995C266.18 204.583 266.273 205.115 266.46 205.591C266.647 206.058 266.913 206.455 267.258 206.781C267.603 207.108 268.019 207.36 268.504 207.537C268.98 207.715 269.512 207.803 270.1 207.803C270.651 207.803 271.164 207.724 271.64 207.565C272.107 207.407 272.517 207.173 272.872 206.865C273.217 206.548 273.493 206.156 273.698 205.689C273.903 205.223 274.011 204.686 274.02 204.079C274.02 203.631 273.969 203.221 273.866 202.847C273.754 202.465 273.609 202.124 273.432 201.825C273.245 201.517 273.035 201.251 272.802 201.027C272.559 200.803 272.307 200.621 272.046 200.481L273.866 200.481ZM273.894 198.734C273.633 198.613 273.343 198.506 273.026 198.412C272.709 198.319 272.349 198.24 271.948 198.174C271.537 198.1 271.075 198.044 270.562 198.006C270.049 197.969 269.461 197.95 268.798 197.95L268 197.95L268 193.022L273.894 193.022L273.894 191.888L276.82 191.888L276.82 192.994L275 192.994L275 198.468L276.82 198.468L276.82 199.574L273.894 199.574L273.894 198.734ZM269.61 196.858C270.506 196.877 271.295 196.942 271.976 197.054C272.657 197.157 273.297 197.334 273.894 197.586L273.894 194.184L269.036 194.184L269.036 196.844L269.61 196.858ZM267.86 187.508C267.86 186.537 268.149 185.781 268.728 185.24C269.307 184.689 270.119 184.414 271.164 184.414L271.92 184.414L271.92 189.776C272.676 189.72 273.236 189.496 273.6 189.104C273.955 188.712 274.132 188.17 274.132 187.48C274.132 186.808 274.015 186.257 273.782 185.828C273.549 185.398 273.264 185.09 272.928 184.904L274.286 184.904C274.501 185.081 274.697 185.384 274.874 185.814C275.051 186.234 275.14 186.789 275.14 187.48C275.14 188.59 274.837 189.449 274.23 190.056C273.623 190.662 272.704 190.966 271.472 190.966C270.865 190.966 270.338 190.877 269.89 190.7C269.433 190.522 269.055 190.28 268.756 189.972C268.457 189.664 268.233 189.3 268.084 188.88C267.935 188.46 267.86 188.002 267.86 187.508ZM268.868 187.508C268.868 188.17 269.041 188.693 269.386 189.076C269.731 189.458 270.245 189.687 270.926 189.762L270.926 185.576L270.912 185.576C270.24 185.576 269.731 185.758 269.386 186.122C269.041 186.486 268.868 186.948 268.868 187.508ZM269.036 178.282L269.036 180.998L269.568 181.012C270.436 181.04 271.178 181.091 271.794 181.166C272.401 181.24 272.909 181.334 273.32 181.446C273.731 181.558 274.053 181.684 274.286 181.824C274.519 181.964 274.697 182.113 274.818 182.272C274.93 182.43 275 182.594 275.028 182.762C275.065 182.93 275.084 183.098 275.084 183.266C275.084 183.48 275.061 183.667 275.014 183.826L273.768 183.826C273.796 183.704 273.81 183.588 273.81 183.476C273.81 183.354 273.801 183.242 273.782 183.14C273.754 183.028 273.689 182.925 273.586 182.832C273.483 182.729 273.334 182.64 273.138 182.566C272.933 182.482 272.653 182.407 272.298 182.342C271.934 182.276 271.481 182.225 270.94 182.188C270.399 182.141 269.741 182.104 268.966 182.076L268 182.048L268 177.12L275 177.12L275 178.282L269.036 178.282ZM268 174.875L268 173.713L270.926 173.713L270.926 172.453L268 170.255L268 168.925L271.304 171.487L275 168.463L275 169.933L271.92 172.453L271.92 173.713L275 173.713L275 174.875L268 174.875ZM268.532 166.956C268.355 166.723 268.201 166.406 268.07 166.004C267.93 165.594 267.86 165.118 267.86 164.576C267.86 164.128 267.902 163.727 267.986 163.372C268.07 163.018 268.21 162.719 268.406 162.476C268.602 162.224 268.863 162.033 269.19 161.902C269.507 161.772 269.904 161.706 270.38 161.706L275 161.706L275 162.812L273.81 162.812C274.202 162.999 274.519 163.302 274.762 163.722C274.995 164.133 275.112 164.618 275.112 165.178C275.112 165.878 274.93 166.438 274.566 166.858C274.202 167.278 273.661 167.488 272.942 167.488C272.559 167.488 272.242 167.423 271.99 167.292C271.729 167.152 271.523 166.956 271.374 166.704C271.215 166.452 271.108 166.144 271.052 165.78C270.987 165.416 270.954 165.001 270.954 164.534L270.954 162.868L270.394 162.868C270.095 162.868 269.848 162.91 269.652 162.994C269.456 163.078 269.302 163.195 269.19 163.344C269.069 163.494 268.985 163.676 268.938 163.89C268.891 164.096 268.868 164.324 268.868 164.576C268.868 165.127 268.989 165.603 269.232 166.004C269.475 166.396 269.792 166.714 270.184 166.956L268.532 166.956ZM274.034 164.884C274.034 164.53 273.983 164.231 273.88 163.988C273.777 163.736 273.656 163.531 273.516 163.372C273.367 163.214 273.213 163.097 273.054 163.022C272.895 162.938 272.755 162.887 272.634 162.868L271.878 162.868L271.878 164.492C271.878 165.127 271.943 165.589 272.074 165.878C272.205 166.158 272.471 166.298 272.872 166.298C273.217 166.298 273.497 166.182 273.712 165.948C273.927 165.715 274.034 165.36 274.034 164.884ZM266.614 154.022L268 156.22L266.726 156.22L265.102 153.7L265.102 152.86L275 152.86L275 154.022L266.614 154.022Z" fill="#404040"/>
<path d="M550.354 120.646C550.158 120.451 549.842 120.451 549.646 120.646L546.464 123.828C546.269 124.024 546.269 124.34 546.464 124.536C546.66 124.731 546.976 124.731 547.172 124.536L550 121.707L552.828 124.536C553.024 124.731 553.34 124.731 553.536 124.536C553.731 124.34 553.731 124.024 553.536 123.828L550.354 120.646ZM550.5 181L550.5 178.5L549.5 178.5L549.5 181L550.5 181ZM550.5 173.5L550.5 168.5L549.5 168.5L549.5 173.5L550.5 173.5ZM550.5 163.5L550.5 158.5L549.5 158.5L549.5 163.5L550.5 163.5ZM550.5 153.5L550.5 148.5L549.5 148.5L549.5 153.5L550.5 153.5ZM550.5 143.5L550.5 138.5L549.5 138.5L549.5 143.5L550.5 143.5ZM550.5 133.5L550.5 128.5L549.5 128.5L549.5 133.5L550.5 133.5ZM550.5 123.5L550.5 121L549.5 121L549.5 123.5L550.5 123.5ZM550.707 120.293C550.317 119.902 549.683 119.902 549.293 120.293L542.929 126.657C542.538 127.047 542.538 127.681 542.929 128.071C543.319 128.462 543.953 128.462 544.343 128.071L550 122.414L555.657 128.071C556.047 128.462 556.681 128.462 557.071 128.071C557.462 127.681 557.462 127.047 557.071 126.657L550.707 120.293ZM551 181L551 178.5L549 178.5L549 181L551 181ZM551 173.5L551 168.5L549 168.5L549 173.5L551 173.5ZM551 163.5L551 158.5L549 158.5L549 163.5L551 163.5ZM551 153.5L551 148.5L549 148.5L549 153.5L551 153.5ZM551 143.5L551 138.5L549 138.5L549 143.5L551 143.5ZM551 133.5L551 128.5L549 128.5L549 133.5L551 133.5ZM551 123.5L551 121L549 121L549 123.5L551 123.5Z" fill="#404040"/>
<path d="M550.354 241.354C550.158 241.549 549.842 241.549 549.646 241.354L546.464 238.172C546.269 237.976 546.269 237.66 546.464 237.464C546.66 237.269 546.976 237.269 547.172 237.464L550 240.293L552.828 237.464C553.024 237.269 553.34 237.269 553.536 237.464C553.731 237.66 553.731 237.976 553.536 238.172L550.354 241.354ZM550.5 181L550.5 183.5L549.5 183.5L549.5 181L550.5 181ZM550.5 188.5L550.5 193.5L549.5 193.5L549.5 188.5L550.5 188.5ZM550.5 198.5L550.5 203.5L549.5 203.5L549.5 198.5L550.5 198.5ZM550.5 208.5L550.5 213.5L549.5 213.5L549.5 208.5L550.5 208.5ZM550.5 218.5L550.5 223.5L549.5 223.5L549.5 218.5L550.5 218.5ZM550.5 228.5L550.5 233.5L549.5 233.5L549.5 228.5L550.5 228.5ZM550.5 238.5L550.5 241L549.5 241L549.5 238.5L550.5 238.5ZM550.707 241.707C550.317 242.098 549.683 242.098 549.293 241.707L542.929 235.343C542.538 234.953 542.538 234.319 542.929 233.929C543.319 233.538 543.953 233.538 544.343 233.929L550 239.586L555.657 233.929C556.047 233.538 556.681 233.538 557.071 233.929C557.462 234.319 557.462 234.953 557.071 235.343L550.707 241.707ZM551 181L551 183.5L549 183.5L549 181L551 181ZM551 188.5L551 193.5L549 193.5L549 188.5L551 188.5ZM551 198.5L551 203.5L549 203.5L549 198.5L551 198.5ZM551 208.5L551 213.5L549 213.5L549 208.5L551 208.5ZM551 218.5L551 223.5L549 223.5L549 218.5L551 218.5ZM551 228.5L551 233.5L549 233.5L549 228.5L551 228.5ZM551 238.5L551 241L549 241L549 238.5L551 238.5Z" fill="#404040"/>
<path d="M523.866 201.459C524.015 201.58 524.165 201.753 524.314 201.977C524.463 202.201 524.599 202.467 524.72 202.775C524.841 203.074 524.939 203.414 525.014 203.797C525.098 204.17 525.14 204.572 525.14 205.001C525.14 205.785 525.023 206.494 524.79 207.129C524.547 207.754 524.211 208.286 523.782 208.725C523.343 209.164 522.811 209.504 522.186 209.747C521.561 209.98 520.861 210.097 520.086 210.097C519.358 210.097 518.691 209.98 518.084 209.747C517.468 209.514 516.936 209.178 516.488 208.739C516.04 208.291 515.69 207.754 515.438 207.129C515.186 206.494 515.06 205.776 515.06 204.973C515.06 204.572 515.093 204.198 515.158 203.853C515.214 203.508 515.293 203.2 515.396 202.929C515.489 202.649 515.597 202.406 515.718 202.201C515.83 201.996 515.942 201.837 516.054 201.725L518.028 201.725C517.795 201.865 517.571 202.042 517.356 202.257C517.132 202.472 516.936 202.719 516.768 202.999C516.591 203.279 516.451 203.587 516.348 203.923C516.236 204.259 516.18 204.609 516.18 204.973C516.18 205.561 516.273 206.093 516.46 206.569C516.647 207.036 516.913 207.432 517.258 207.759C517.603 208.086 518.019 208.338 518.504 208.515C518.98 208.692 519.512 208.781 520.1 208.781C520.651 208.781 521.164 208.702 521.64 208.543C522.107 208.384 522.517 208.151 522.872 207.843C523.217 207.526 523.493 207.134 523.698 206.667C523.903 206.2 524.011 205.664 524.02 205.057C524.02 204.609 523.969 204.198 523.866 203.825C523.754 203.442 523.609 203.102 523.432 202.803C523.245 202.495 523.035 202.229 522.802 202.005C522.559 201.781 522.307 201.599 522.046 201.459L523.866 201.459ZM523.894 199.712C523.633 199.59 523.343 199.483 523.026 199.39C522.709 199.296 522.349 199.217 521.948 199.152C521.537 199.077 521.075 199.021 520.562 198.984C520.049 198.946 519.461 198.928 518.798 198.928L518 198.928L518 194L523.894 194L523.894 192.866L526.82 192.866L526.82 193.972L525 193.972L525 199.446L526.82 199.446L526.82 200.552L523.894 200.552L523.894 199.712ZM519.61 197.836C520.506 197.854 521.295 197.92 521.976 198.032C522.657 198.134 523.297 198.312 523.894 198.564L523.894 195.162L519.036 195.162L519.036 197.822L519.61 197.836ZM517.86 188.485C517.86 187.515 518.149 186.759 518.728 186.217C519.307 185.667 520.119 185.391 521.164 185.391L521.92 185.391L521.92 190.753C522.676 190.697 523.236 190.473 523.6 190.081C523.955 189.689 524.132 189.148 524.132 188.457C524.132 187.785 524.015 187.235 523.782 186.805C523.549 186.376 523.264 186.068 522.928 185.881L524.286 185.881C524.501 186.059 524.697 186.362 524.874 186.791C525.051 187.211 525.14 187.767 525.14 188.457C525.14 189.568 524.837 190.427 524.23 191.033C523.623 191.64 522.704 191.943 521.472 191.943C520.865 191.943 520.338 191.855 519.89 191.677C519.433 191.5 519.055 191.257 518.756 190.949C518.457 190.641 518.233 190.277 518.084 189.857C517.935 189.437 517.86 188.98 517.86 188.485ZM518.868 188.485C518.868 189.148 519.041 189.671 519.386 190.053C519.731 190.436 520.245 190.665 520.926 190.739L520.926 186.553L520.912 186.553C520.24 186.553 519.731 186.735 519.386 187.099C519.041 187.463 518.868 187.925 518.868 188.485ZM519.036 179.259L519.036 181.975L519.568 181.989C520.436 182.017 521.178 182.069 521.794 182.143C522.401 182.218 522.909 182.311 523.32 182.423C523.731 182.535 524.053 182.661 524.286 182.801C524.519 182.941 524.697 183.091 524.818 183.249C524.93 183.408 525 183.571 525.028 183.739C525.065 183.907 525.084 184.075 525.084 184.243C525.084 184.458 525.061 184.645 525.014 184.803L523.768 184.803C523.796 184.682 523.81 184.565 523.81 184.453C523.81 184.332 523.801 184.22 523.782 184.117C523.754 184.005 523.689 183.903 523.586 183.809C523.483 183.707 523.334 183.618 523.138 183.543C522.933 183.459 522.653 183.385 522.298 183.319C521.934 183.254 521.481 183.203 520.94 183.165C520.399 183.119 519.741 183.081 518.966 183.053L518 183.025L518 178.097L525 178.097L525 179.259L519.036 179.259ZM518 175.853L518 174.691L520.926 174.691L520.926 173.431L518 171.233L518 169.903L521.304 172.465L525 169.441L525 170.911L521.92 173.431L521.92 174.691L525 174.691L525 175.853L518 175.853ZM518.532 167.934C518.355 167.701 518.201 167.383 518.07 166.982C517.93 166.571 517.86 166.095 517.86 165.554C517.86 165.106 517.902 164.705 517.986 164.35C518.07 163.995 518.21 163.697 518.406 163.454C518.602 163.202 518.863 163.011 519.19 162.88C519.507 162.749 519.904 162.684 520.38 162.684L525 162.684L525 163.79L523.81 163.79C524.202 163.977 524.519 164.28 524.762 164.7C524.995 165.111 525.112 165.596 525.112 166.156C525.112 166.856 524.93 167.416 524.566 167.836C524.202 168.256 523.661 168.466 522.942 168.466C522.559 168.466 522.242 168.401 521.99 168.27C521.729 168.13 521.523 167.934 521.374 167.682C521.215 167.43 521.108 167.122 521.052 166.758C520.987 166.394 520.954 165.979 520.954 165.512L520.954 163.846L520.394 163.846C520.095 163.846 519.848 163.888 519.652 163.972C519.456 164.056 519.302 164.173 519.19 164.322C519.069 164.471 518.985 164.653 518.938 164.868C518.891 165.073 518.868 165.302 518.868 165.554C518.868 166.105 518.989 166.581 519.232 166.982C519.475 167.374 519.792 167.691 520.184 167.934L518.532 167.934ZM524.034 165.862C524.034 165.507 523.983 165.209 523.88 164.966C523.777 164.714 523.656 164.509 523.516 164.35C523.367 164.191 523.213 164.075 523.054 164C522.895 163.916 522.755 163.865 522.634 163.846L521.878 163.846L521.878 165.47C521.878 166.105 521.943 166.567 522.074 166.856C522.205 167.136 522.471 167.276 522.872 167.276C523.217 167.276 523.497 167.159 523.712 166.926C523.927 166.693 524.034 166.338 524.034 165.862ZM525 157.267L524.146 157.267C523.278 156.25 522.541 155.419 521.934 154.775C521.327 154.122 520.8 153.608 520.352 153.235C519.904 152.862 519.507 152.61 519.162 152.479C518.817 152.339 518.476 152.269 518.14 152.269C517.552 152.269 517.099 152.446 516.782 152.801C516.455 153.156 516.292 153.646 516.292 154.271C516.283 154.85 516.385 155.363 516.6 155.811C516.815 156.259 517.118 156.642 517.51 156.959L516.096 156.959C515.975 156.838 515.853 156.684 515.732 156.497C515.601 156.31 515.489 156.096 515.396 155.853C515.293 155.61 515.214 155.335 515.158 155.027C515.102 154.719 515.074 154.388 515.074 154.033C515.093 153.09 515.349 152.358 515.844 151.835C516.339 151.303 517.025 151.037 517.902 151.037C518.322 151.037 518.728 151.098 519.12 151.219C519.503 151.34 519.899 151.546 520.31 151.835C520.721 152.124 521.164 152.502 521.64 152.969C522.107 153.436 522.625 154.01 523.194 154.691L523.852 155.461L523.852 150.757L525 150.757L525 157.267Z" fill="#404040"/>
<path d="M485.354 56.3536C485.549 56.1583 485.549 55.8417 485.354 55.6465L482.172 52.4645C481.976 52.2692 481.66 52.2692 481.464 52.4645C481.269 52.6597 481.269 52.9763 481.464 53.1716L484.293 56L481.464 58.8284C481.269 59.0237 481.269 59.3403 481.464 59.5355C481.66 59.7308 481.976 59.7308 482.172 59.5355L485.354 56.3536ZM425 56.5L427.5 56.5L427.5 55.5L425 55.5L425 56.5ZM432.5 56.5L437.5 56.5L437.5 55.5L432.5 55.5L432.5 56.5ZM442.5 56.5L447.5 56.5L447.5 55.5L442.5 55.5L442.5 56.5ZM452.5 56.5L457.5 56.5L457.5 55.5L452.5 55.5L452.5 56.5ZM462.5 56.5L467.5 56.5L467.5 55.5L462.5 55.5L462.5 56.5ZM472.5 56.5L477.5 56.5L477.5 55.5L472.5 55.5L472.5 56.5ZM482.5 56.5L485 56.5L485 55.5L482.5 55.5L482.5 56.5ZM485.707 56.7071C486.098 56.3166 486.098 55.6834 485.707 55.2929L479.343 48.9289C478.953 48.5384 478.319 48.5384 477.929 48.9289C477.538 49.3195 477.538 49.9526 477.929 50.3432L483.586 56L477.929 61.6569C477.538 62.0474 477.538 62.6805 477.929 63.0711C478.319 63.4616 478.953 63.4616 479.343 63.0711L485.707 56.7071ZM425 57L427.5 57L427.5 55L425 55L425 57ZM432.5 57L437.5 57L437.5 55L432.5 55L432.5 57ZM442.5 57L447.5 57L447.5 55L442.5 55L442.5 57ZM452.5 57L457.5 57L457.5 55L452.5 55L452.5 57ZM462.5 57L467.5 57L467.5 55L462.5 55L462.5 57ZM472.5 57L477.5 57L477.5 55L472.5 55L472.5 57ZM482.5 57L485 57L485 55L482.5 55L482.5 57Z" fill="#404040"/>
<path d="M364.646 56.3536C364.451 56.1583 364.451 55.8417 364.646 55.6464L367.828 52.4645C368.024 52.2692 368.34 52.2692 368.536 52.4645C368.731 52.6597 368.731 52.9763 368.536 53.1716L365.707 56L368.536 58.8284C368.731 59.0237 368.731 59.3403 368.536 59.5355C368.34 59.7308 368.024 59.7308 367.828 59.5355L364.646 56.3536ZM425 56.5H422.5V55.5H425V56.5ZM417.5 56.5H412.5V55.5H417.5V56.5ZM407.5 56.5H402.5V55.5H407.5V56.5ZM397.5 56.5H392.5V55.5H397.5V56.5ZM387.5 56.5H382.5V55.5H387.5V56.5ZM377.5 56.5H372.5V55.5H377.5V56.5ZM367.5 56.5H365V55.5H367.5V56.5ZM364.293 56.7071C363.902 56.3166 363.902 55.6834 364.293 55.2929L370.657 48.9289C371.047 48.5384 371.681 48.5384 372.071 48.9289C372.462 49.3195 372.462 49.9526 372.071 50.3431L366.414 56L372.071 61.6569C372.462 62.0474 372.462 62.6805 372.071 63.0711C371.681 63.4616 371.047 63.4616 370.657 63.0711L364.293 56.7071ZM425 57H422.5V55H425V57ZM417.5 57H412.5V55H417.5V57ZM407.5 57H402.5V55H407.5V57ZM397.5 57H392.5V55H397.5V57ZM387.5 57H382.5V55H387.5V57ZM377.5 57H372.5V55H377.5V57ZM367.5 57H365V55H367.5V57Z" fill="#404040"/>
<path d="M392.634 11.88C392.914 11.1987 393.156 10.3027 393.362 9.192C393.576 8.072 393.693 6.75133 393.712 5.23L393.74 3.2H400.32V11.88H401.58V14.82H400.404V13H392.634V14.82H391.458V11.88H392.634ZM394.832 5.272C394.813 5.92533 394.776 6.56467 394.72 7.19C394.673 7.806 394.608 8.39867 394.524 8.968C394.44 9.528 394.337 10.0553 394.216 10.55C394.094 11.0447 393.964 11.488 393.824 11.88H399.06V4.32H394.846L394.832 5.272ZM402.517 9.472C402.517 8.86533 402.605 8.338 402.783 7.89C402.96 7.43267 403.203 7.05467 403.511 6.756C403.819 6.45733 404.183 6.23333 404.603 6.084C405.023 5.93467 405.48 5.86 405.975 5.86C407.076 5.86933 407.93 6.17733 408.537 6.784C409.143 7.39067 409.447 8.30533 409.447 9.528C409.447 10.1347 409.358 10.6667 409.181 11.124C409.003 11.572 408.761 11.9453 408.453 12.244C408.145 12.5427 407.781 12.7667 407.361 12.916C406.941 13.0653 406.483 13.14 405.989 13.14C404.878 13.1307 404.019 12.8273 403.413 12.23C402.815 11.6233 402.517 10.704 402.517 9.472ZM403.693 9.514C403.693 10.4193 403.889 11.082 404.281 11.502C404.673 11.922 405.242 12.132 405.989 12.132C406.726 12.132 407.291 11.9173 407.683 11.488C408.075 11.0493 408.271 10.396 408.271 9.528V9.486C408.271 8.59 408.07 7.932 407.669 7.512C407.277 7.092 406.712 6.87733 405.975 6.868C405.237 6.868 404.673 7.08733 404.281 7.526C403.889 7.95533 403.693 8.604 403.693 9.472V9.514ZM411.156 6H415.832V7.036H412.318V13H411.156V6ZM417.118 9.472C417.118 8.86533 417.207 8.338 417.384 7.89C417.562 7.43267 417.804 7.05467 418.112 6.756C418.42 6.45733 418.784 6.23333 419.204 6.084C419.624 5.93467 420.082 5.86 420.576 5.86C421.678 5.86933 422.532 6.17733 423.138 6.784C423.745 7.39067 424.048 8.30533 424.048 9.528C424.048 10.1347 423.96 10.6667 423.782 11.124C423.605 11.572 423.362 11.9453 423.054 12.244C422.746 12.5427 422.382 12.7667 421.962 12.916C421.542 13.0653 421.085 13.14 420.59 13.14C419.48 13.1307 418.621 12.8273 418.014 12.23C417.417 11.6233 417.118 10.704 417.118 9.472ZM418.294 9.514C418.294 10.4193 418.49 11.082 418.882 11.502C419.274 11.922 419.844 12.132 420.59 12.132C421.328 12.132 421.892 11.9173 422.284 11.488C422.676 11.0493 422.872 10.396 422.872 9.528V9.486C422.872 8.59 422.672 7.932 422.27 7.512C421.878 7.092 421.314 6.87733 420.576 6.868C419.839 6.868 419.274 7.08733 418.882 7.526C418.49 7.95533 418.294 8.604 418.294 9.472V9.514ZM425.758 6H428.88C429.766 6 430.382 6.14 430.728 6.42C431.082 6.69067 431.26 7.078 431.26 7.582C431.26 8.03 431.152 8.394 430.938 8.674C430.732 8.94467 430.438 9.12667 430.056 9.22C430.28 9.248 430.485 9.29467 430.672 9.36C430.868 9.42533 431.031 9.52333 431.162 9.654C431.302 9.78467 431.409 9.95267 431.484 10.158C431.568 10.3633 431.61 10.62 431.61 10.928C431.61 11.628 431.386 12.1507 430.938 12.496C430.49 12.832 429.785 13 428.824 13H425.758V6ZM428.81 11.992C429.388 11.992 429.804 11.908 430.056 11.74C430.317 11.5627 430.448 11.2967 430.448 10.942C430.448 10.522 430.322 10.242 430.07 10.102C429.818 9.95267 429.468 9.878 429.02 9.878H426.92V11.992H428.81ZM428.642 8.884C429.08 8.884 429.43 8.80933 429.692 8.66C429.953 8.51067 430.084 8.24 430.084 7.848C430.084 7.50267 429.972 7.27867 429.748 7.176C429.524 7.064 429.188 7.008 428.74 7.008L426.92 7.022V8.884H428.642ZM432.827 9.472C432.827 8.86533 432.916 8.338 433.093 7.89C433.271 7.43267 433.513 7.05467 433.821 6.756C434.129 6.45733 434.493 6.23333 434.913 6.084C435.333 5.93467 435.791 5.86 436.285 5.86C437.387 5.86933 438.241 6.17733 438.847 6.784C439.454 7.39067 439.757 8.30533 439.757 9.528C439.757 10.1347 439.669 10.6667 439.491 11.124C439.314 11.572 439.071 11.9453 438.763 12.244C438.455 12.5427 438.091 12.7667 437.671 12.916C437.251 13.0653 436.794 13.14 436.299 13.14C435.189 13.1307 434.33 12.8273 433.723 12.23C433.126 11.6233 432.827 10.704 432.827 9.472ZM434.003 9.514C434.003 10.4193 434.199 11.082 434.591 11.502C434.983 11.922 435.553 12.132 436.299 12.132C437.037 12.132 437.601 11.9173 437.993 11.488C438.385 11.0493 438.581 10.396 438.581 9.528V9.486C438.581 8.59 438.381 7.932 437.979 7.512C437.587 7.092 437.023 6.87733 436.285 6.868C435.548 6.868 434.983 7.08733 434.591 7.526C434.199 7.95533 434.003 8.604 434.003 9.472V9.514ZM441.467 6H442.573V7.344C442.75 6.93333 443.049 6.58333 443.469 6.294C443.889 6.00467 444.453 5.86 445.163 5.86C446.096 5.86 446.838 6.13533 447.389 6.686C447.939 7.23667 448.215 8.12333 448.215 9.346C448.215 10.0367 448.14 10.6247 447.991 11.11C447.851 11.586 447.641 11.978 447.361 12.286C447.09 12.5847 446.759 12.804 446.367 12.944C445.975 13.084 445.527 13.154 445.023 13.154C444.435 13.154 443.935 13.0327 443.525 12.79C443.123 12.538 442.825 12.2487 442.629 11.922V15.52H441.467V6ZM442.629 9.794C442.629 10.522 442.829 11.0913 443.231 11.502C443.641 11.9033 444.178 12.104 444.841 12.104C445.606 12.104 446.161 11.8987 446.507 11.488C446.861 11.0773 447.039 10.3867 447.039 9.416C447.039 8.94933 446.987 8.55733 446.885 8.24C446.782 7.91333 446.633 7.652 446.437 7.456C446.25 7.26 446.021 7.12 445.751 7.036C445.48 6.952 445.181 6.91 444.855 6.91C444.127 6.91 443.576 7.106 443.203 7.498C442.839 7.88067 442.647 8.422 442.629 9.122V9.794ZM449.889 6H451.051V8.254H452.465C452.941 8.254 453.356 8.28667 453.711 8.352C454.075 8.41733 454.378 8.534 454.621 8.702C454.863 8.87 455.045 9.10333 455.167 9.402C455.297 9.69133 455.363 10.0647 455.363 10.522C455.363 10.9793 455.307 11.3667 455.195 11.684C455.083 11.992 454.901 12.244 454.649 12.44C454.406 12.636 454.089 12.7807 453.697 12.874C453.305 12.958 452.833 13 452.283 13H449.889V6ZM456.329 6H457.491V13H456.329V6ZM454.201 10.522C454.191 10.2607 454.154 10.0507 454.089 9.892C454.033 9.73333 453.93 9.612 453.781 9.528C453.641 9.43467 453.449 9.374 453.207 9.346C452.973 9.30867 452.684 9.29 452.339 9.29H451.051V11.964H452.269C452.605 11.964 452.894 11.9453 453.137 11.908C453.379 11.8613 453.58 11.7867 453.739 11.684C453.897 11.572 454.014 11.4227 454.089 11.236C454.163 11.0493 454.201 10.8113 454.201 10.522ZM402.702 25.036H399.118V31H397.956V24H403.864V31H402.702V25.036ZM405.572 27.472C405.572 26.8653 405.661 26.338 405.838 25.89C406.016 25.4327 406.258 25.0547 406.566 24.756C406.874 24.4573 407.238 24.2333 407.658 24.084C408.078 23.9347 408.536 23.86 409.03 23.86C410.132 23.8693 410.986 24.1773 411.592 24.784C412.199 25.3907 412.502 26.3053 412.502 27.528C412.502 28.1347 412.414 28.6667 412.236 29.124C412.059 29.572 411.816 29.9453 411.508 30.244C411.2 30.5427 410.836 30.7667 410.416 30.916C409.996 31.0653 409.539 31.14 409.044 31.14C407.934 31.1307 407.075 30.8273 406.468 30.23C405.871 29.6233 405.572 28.704 405.572 27.472ZM406.748 27.514C406.748 28.4193 406.944 29.082 407.336 29.502C407.728 29.922 408.298 30.132 409.044 30.132C409.782 30.132 410.346 29.9173 410.738 29.488C411.13 29.0493 411.326 28.396 411.326 27.528V27.486C411.326 26.59 411.126 25.932 410.724 25.512C410.332 25.092 409.768 24.8773 409.03 24.868C408.293 24.868 407.728 25.0873 407.336 25.526C406.944 25.9553 406.748 26.604 406.748 27.472V27.514ZM414.005 29.894C414.126 29.6327 414.234 29.3433 414.327 29.026C414.42 28.7087 414.5 28.3493 414.565 27.948C414.64 27.5373 414.696 27.0753 414.733 26.562C414.77 26.0487 414.789 25.4607 414.789 24.798V24H419.717V29.894H420.851V32.82H419.745V31H414.271V32.82H413.165V29.894H414.005ZM415.881 25.61C415.862 26.506 415.797 27.2947 415.685 27.976C415.582 28.6573 415.405 29.2967 415.153 29.894H418.555V25.036H415.895L415.881 25.61ZM422.442 24H423.548V25.344C423.726 24.9333 424.024 24.5833 424.444 24.294C424.864 24.0047 425.429 23.86 426.138 23.86C427.072 23.86 427.814 24.1353 428.364 24.686C428.915 25.2367 429.19 26.1233 429.19 27.346C429.19 28.0367 429.116 28.6247 428.966 29.11C428.826 29.586 428.616 29.978 428.336 30.286C428.066 30.5847 427.734 30.804 427.342 30.944C426.95 31.084 426.502 31.154 425.998 31.154C425.41 31.154 424.911 31.0327 424.5 30.79C424.099 30.538 423.8 30.2487 423.604 29.922V33.52H422.442V24ZM423.604 27.794C423.604 28.522 423.805 29.0913 424.206 29.502C424.617 29.9033 425.154 30.104 425.816 30.104C426.582 30.104 427.137 29.8987 427.482 29.488C427.837 29.0773 428.014 28.3867 428.014 27.416C428.014 26.9493 427.963 26.5573 427.86 26.24C427.758 25.9133 427.608 25.652 427.412 25.456C427.226 25.26 426.997 25.12 426.726 25.036C426.456 24.952 426.157 24.91 425.83 24.91C425.102 24.91 424.552 25.106 424.178 25.498C423.814 25.8807 423.623 26.422 423.604 27.122V27.794ZM435.162 28.48H433.342L431.438 31H430.094L432.096 28.354C431.639 28.2233 431.279 28.004 431.018 27.696C430.757 27.3787 430.626 26.968 430.626 26.464C430.626 26.016 430.682 25.638 430.794 25.33C430.906 25.0127 431.083 24.756 431.326 24.56C431.578 24.364 431.9 24.224 432.292 24.14C432.684 24.0467 433.155 24 433.706 24H436.324V31H435.162V28.48ZM433.72 25.036C433.384 25.036 433.095 25.0593 432.852 25.106C432.609 25.1433 432.409 25.218 432.25 25.33C432.091 25.4327 431.975 25.5773 431.9 25.764C431.825 25.9413 431.788 26.1747 431.788 26.464C431.797 26.7907 431.919 27.0567 432.152 27.262C432.385 27.4673 432.768 27.57 433.3 27.57H435.162V25.036H433.72ZM438.491 29.894C438.613 29.6327 438.72 29.3433 438.813 29.026C438.907 28.7087 438.986 28.3493 439.051 27.948C439.126 27.5373 439.182 27.0753 439.219 26.562C439.257 26.0487 439.275 25.4607 439.275 24.798V24H444.203V29.894H445.337V32.82H444.231V31H438.757V32.82H437.651V29.894H438.491ZM440.367 25.61C440.349 26.506 440.283 27.2947 440.171 27.976C440.069 28.6573 439.891 29.2967 439.639 29.894H443.041V25.036H440.381L440.367 25.61ZM446.904 24.532C447.137 24.3547 447.455 24.2007 447.856 24.07C448.267 23.93 448.743 23.86 449.284 23.86C449.732 23.86 450.133 23.902 450.488 23.986C450.843 24.07 451.141 24.21 451.384 24.406C451.636 24.602 451.827 24.8633 451.958 25.19C452.089 25.5073 452.154 25.904 452.154 26.38V31H451.048V29.81C450.861 30.202 450.558 30.5193 450.138 30.762C449.727 30.9953 449.242 31.112 448.682 31.112C447.982 31.112 447.422 30.93 447.002 30.566C446.582 30.202 446.372 29.6607 446.372 28.942C446.372 28.5593 446.437 28.242 446.568 27.99C446.708 27.7287 446.904 27.5233 447.156 27.374C447.408 27.2153 447.716 27.108 448.08 27.052C448.444 26.9867 448.859 26.954 449.326 26.954H450.992V26.394C450.992 26.0953 450.95 25.848 450.866 25.652C450.782 25.456 450.665 25.302 450.516 25.19C450.367 25.0687 450.185 24.9847 449.97 24.938C449.765 24.8913 449.536 24.868 449.284 24.868C448.733 24.868 448.257 24.9893 447.856 25.232C447.464 25.4747 447.147 25.792 446.904 26.184V24.532ZM448.976 30.034C449.331 30.034 449.629 29.9827 449.872 29.88C450.124 29.7773 450.329 29.656 450.488 29.516C450.647 29.3667 450.763 29.2127 450.838 29.054C450.922 28.8953 450.973 28.7553 450.992 28.634V27.878H449.368C448.733 27.878 448.271 27.9433 447.982 28.074C447.702 28.2047 447.562 28.4707 447.562 28.872C447.562 29.2173 447.679 29.4973 447.912 29.712C448.145 29.9267 448.5 30.034 448.976 30.034Z" fill="#404040"/>
</svg>
