<svg width="290" height="171" viewBox="0 0 290 171" fill="none" xmlns="http://www.w3.org/2000/svg">
<circle cx="23.9669" cy="26.8439" r="23.9669" fill="#7BBEFD"/>
<path d="M32.5094 24.5678C32.3057 21.5038 28.1327 20.8601 28.1327 20.8601C27.0667 20.6764 26.6323 19.7935 26.4602 19.2218C27.2796 18.3363 27.853 17.192 28.1699 16.0769C28.2907 15.6519 28.3557 15.2082 28.3557 14.767C28.3557 14.5161 28.3297 14.2715 28.2855 14.0328C28.8174 13.1725 28.6607 12.2132 28.5346 11.7523C28.4963 11.6124 28.3514 11.5432 28.2025 11.5432C28.1865 11.5432 28.1705 11.544 28.1545 11.5456C28.0978 11.5512 28.0378 11.5539 27.9751 11.5539C27.0224 11.5539 25.4471 10.9432 25.4471 10.9432C24.9665 10.7437 24.3746 10.6264 23.8565 10.5685C23.4032 10.5179 22.9448 10.5454 22.5095 10.6826C21.9046 10.8731 21.3477 11.2484 20.8965 11.6776C20.8042 11.7655 20.7252 11.857 20.6522 11.9597C19.692 12.2698 19.5296 13.4631 19.5866 14.5079C19.5811 14.5937 19.5763 14.6798 19.5763 14.767C19.5763 16.3375 20.2678 18.1389 21.3454 19.3259C21.3769 19.3606 21.4096 19.3939 21.4424 19.4272C21.2325 19.9852 20.7839 20.6974 19.8394 20.8601C19.8394 20.8601 15.6662 21.5038 15.4627 24.5678C15.4627 24.5678 15.2112 26.1691 15.4222 28.079C15.493 28.7207 16.1119 29.2391 16.7844 29.2391H31.1877C31.8601 29.2391 32.4638 28.7189 32.5252 28.0763C32.689 26.3649 32.5094 24.5678 32.5094 24.5678ZM26.5096 20.6999L26.7313 20.9362L26.7846 20.993L26.8511 21.0345L27.0459 21.1563L25.5513 23.2181L24.9655 22.2899L24.9415 22.252L24.9119 22.218C24.8655 22.1647 24.8619 22.0594 24.8999 21.996L26.5096 20.6999ZM24.3453 23.105H23.616L23.3969 22.7313L23.4837 22.5938C23.5404 22.5286 23.5822 22.4538 23.612 22.3747H24.32C24.3498 22.4538 24.3916 22.5286 24.4483 22.5938L24.5469 22.75L24.3453 23.105ZM24.8728 26.8062C24.8816 26.8388 24.8552 26.9181 24.8209 26.9434L24.0972 27.4748C24.0762 27.4902 24.0156 27.4903 23.9946 27.4747L23.271 26.9435C23.2325 26.9152 23.2019 26.8292 23.2109 26.7894L23.8764 23.6892H24.0698L24.8728 26.8062ZM24.4627 21.5871C24.4072 21.6474 24.3658 21.717 24.3341 21.7905H23.5978C23.5662 21.717 23.5248 21.6474 23.4693 21.5871L21.7399 20.1948C21.8119 20.075 21.8731 19.9549 21.9256 19.8375C22.5129 20.2512 23.2104 20.476 23.9068 20.476C24.5818 20.476 25.2551 20.2656 25.8251 19.8135C25.8782 19.7713 25.9297 19.7271 25.9812 19.6829C26.043 19.8405 26.1216 20.007 26.2194 20.1727L24.4627 21.5871ZM20.8444 12.5137C20.9693 12.4733 21.0773 12.3947 21.1518 12.2898C21.16 12.2782 21.9942 11.1288 23.5933 11.1287H23.5935C24.1035 11.1287 24.6466 11.2469 25.2078 11.4799C25.2123 11.4818 25.2168 11.4836 25.2214 11.4854C25.3937 11.5522 26.9354 12.1381 27.9751 12.1381C27.9849 12.1381 27.9947 12.1381 28.0043 12.1379C28.1545 12.9162 28.0671 14.0915 26.4736 14.7071C26.4663 14.7099 25.7287 14.9842 24.8221 14.9842C23.9232 14.9842 23.1822 14.7203 22.6196 14.1997C22.5049 14.0937 22.3541 14.0372 22.2004 14.0372C22.1324 14.0372 22.0639 14.0483 21.9977 14.0709C21.7818 14.145 21.6277 14.3302 21.5996 14.5496L21.5608 14.8522L21.3691 14.722C21.2643 14.6508 21.1423 14.6155 21.0206 14.6155C20.885 14.6155 20.7498 14.6593 20.639 14.746C20.5208 14.8386 20.3827 14.978 20.2562 15.157C20.1037 14.0778 20.1253 12.7459 20.8444 12.5137ZM20.4991 16.6249C20.3329 15.7408 21.0205 15.1997 21.0205 15.1997L21.8353 15.7532C21.8807 15.7884 21.9232 15.8053 21.9591 15.8053C22.0252 15.8053 22.0692 15.7482 22.0692 15.6442L22.2005 14.6215C23.002 15.363 23.9819 15.5684 24.8221 15.5684C25.867 15.5684 26.6957 15.2506 26.6957 15.2506C27.132 15.0821 27.4757 14.8772 27.7453 14.6513C27.7468 14.6899 27.7502 14.7282 27.7502 14.767C27.7502 15.1501 27.695 15.5388 27.586 15.9223C27.1807 17.3485 26.3987 18.6023 25.4407 19.3622C25.0038 19.7087 24.4734 19.8918 23.9068 19.8918C23.1171 19.8918 22.3495 19.5452 21.8008 18.9409C21.2367 18.3195 20.7813 17.491 20.4991 16.6249ZM21.0809 21.0345L21.1474 20.993L21.2007 20.9362L21.4223 20.6999L23.0321 21.996C23.0701 22.0594 23.0665 22.1647 23.0201 22.218L22.9904 22.252L22.9665 22.2899L22.3807 23.2181L20.8861 21.1563L21.0809 21.0345ZM31.9222 28.0228C31.8901 28.3595 31.5468 28.6549 31.1877 28.6549H16.7844C16.4169 28.6549 16.0617 28.3569 16.0243 28.017C15.8249 26.2114 16.059 24.6703 16.0614 24.6553L16.0653 24.6303L16.0669 24.6052C16.2368 22.0489 19.899 21.4427 19.935 21.437L19.9404 21.4362L19.9459 21.4352C20.0672 21.4143 20.1803 21.3852 20.2891 21.3519L21.9915 23.7006C22.0805 23.8859 22.2215 23.9812 22.3712 23.9812C22.491 23.9812 22.6165 23.9202 22.7253 23.7952L23.0363 23.3026L23.2594 23.683L22.6187 26.668C22.5592 26.9316 22.6792 27.2429 22.9042 27.4083L23.6279 27.9397C23.7471 28.0272 23.8964 28.071 24.0459 28.071C24.1953 28.071 24.3448 28.0272 24.4639 27.9397L25.1877 27.4082C25.4128 27.2427 25.5294 26.9207 25.4596 26.6622L24.6937 23.6892H24.7039L24.9104 23.3257L25.2067 23.7952C25.3155 23.9202 25.441 23.9812 25.5608 23.9812C25.7105 23.9812 25.8515 23.8859 25.9404 23.7006L27.6499 21.3421C27.7683 21.3801 27.8927 21.4123 28.0262 21.4352L28.0316 21.4362L28.0371 21.437C28.074 21.4427 31.7343 22.0368 31.9051 24.6052L31.9057 24.6146L31.9067 24.6238C31.9084 24.6413 32.079 26.385 31.9222 28.0228Z" fill="white"/>
<path d="M11.4708 34.9083C11.7067 34.5516 12.1956 34.2008 12.8053 34.2123C13.231 34.2238 13.5646 34.3733 13.5646 34.7472C13.5646 35.0463 13.3863 35.2937 12.8686 35.2937H12.2646V35.8861H12.8743C13.5013 35.8861 13.7659 36.0529 13.7659 36.4096C13.7659 36.818 13.3748 37.025 12.8858 37.0308C12.1438 37.0365 11.6204 36.7144 11.373 36.306V37.1918C11.5859 37.4334 12.1438 37.698 12.8743 37.6923C13.9557 37.6865 14.5137 37.1516 14.5137 36.4556C14.5137 35.9264 14.2146 35.6043 13.5933 35.5122C14.0593 35.3454 14.3066 35.0348 14.3066 34.5631C14.3066 33.8556 13.7084 33.5565 12.8053 33.5508C12.1668 33.5508 11.7009 33.7406 11.4708 33.9074V34.9083Z" fill="white"/>
<path d="M15.2925 35.7998C15.488 35.495 15.7929 35.2879 16.3221 35.2879C16.7075 35.2879 16.903 35.4145 16.903 35.8228V35.9494H16.253C15.5455 35.9494 15.0681 36.1335 15.0681 36.7892C15.0681 37.3529 15.4132 37.6808 15.9942 37.6808C16.4544 37.6808 16.8052 37.4507 16.9433 37.1171V37.6347H17.576V35.7366C17.576 34.9888 17.1619 34.7012 16.3221 34.7012C15.8274 34.7012 15.4823 34.8162 15.2925 34.96V35.7998ZM16.207 37.0768C15.9079 37.0768 15.7469 36.9387 15.7469 36.7202C15.7469 36.4613 15.9367 36.3865 16.3336 36.3865H16.903V36.6224C16.8743 36.818 16.6614 37.0768 16.207 37.0768Z" fill="white"/>
<path d="M18.3522 37.6347H19.0252V36.4441H19.4854L20.3885 37.6347H21.2053L20.0376 36.1162L21.0442 34.7587H20.2964L19.4911 35.8804H19.0252V34.7587H18.3522V37.6347Z" fill="white"/>
<path d="M21.7411 35.7998C21.9366 35.495 22.2415 35.2879 22.7707 35.2879C23.1561 35.2879 23.3516 35.4145 23.3516 35.8228V35.9494H22.7017C21.9941 35.9494 21.5167 36.1335 21.5167 36.7892C21.5167 37.3529 21.8618 37.6808 22.4428 37.6808C22.903 37.6808 23.2538 37.4507 23.3919 37.1171V37.6347H24.0246V35.7366C24.0246 34.9888 23.6105 34.7012 22.7707 34.7012C22.276 34.7012 21.9309 34.8162 21.7411 34.96V35.7998ZM22.6556 37.0768C22.3565 37.0768 22.1955 36.9387 22.1955 36.7202C22.1955 36.4613 22.3853 36.3865 22.7822 36.3865H23.3516V36.6224C23.3229 36.818 23.11 37.0768 22.6556 37.0768Z" fill="white"/>
<path d="M24.657 37.3414C24.8008 37.5025 25.238 37.6923 25.7442 37.6923C26.5207 37.6923 27.0441 37.3759 27.0441 36.7719C27.0441 36.3866 26.8313 36.191 26.4459 36.1162C26.7335 35.9954 26.9234 35.8113 26.9234 35.449C26.9234 34.9945 26.584 34.7012 25.7844 34.7012H25.7614C25.3185 34.7012 24.9274 34.8162 24.7088 34.96V35.7998C24.9331 35.495 25.2783 35.2879 25.7614 35.2879C26.1123 35.2937 26.2389 35.4087 26.2389 35.6043C26.2389 35.8459 26.0318 35.9436 25.7212 35.9436H25.3128V36.4326H25.8075C26.1986 36.4326 26.3654 36.5246 26.3654 36.7489C26.3654 36.9905 26.1238 37.1056 25.7442 37.1056C25.2035 37.1056 24.8238 36.9042 24.657 36.6511V37.3414Z" fill="white"/>
<path d="M29.4085 37.6347H30.0815V34.7587H29.4085V36.0587C29.236 36.145 29.0174 36.191 28.7873 36.191C28.4307 36.191 28.2351 36.0299 28.2351 35.6848V34.7587H27.5621V35.7883C27.5621 36.4786 27.9763 36.7892 28.6665 36.7892C28.9311 36.7892 29.2072 36.7374 29.4085 36.6224V37.6347Z" fill="white"/>
<path d="M30.9013 37.5945H30.9876V37.6347H31.5398L31.5686 37.5945L32.9203 35.6618V37.6347H33.5875V34.8047H33.4955V34.7587H32.949L31.5686 36.7087V34.7587H30.9013V37.5945Z" fill="white"/>
<path d="M34.4063 37.6347H35.0793V36.4441H35.5395L36.4426 37.6347H37.2594L36.0917 36.1162L37.0983 34.7587H36.3505L35.5452 35.8804H35.0793V34.7587H34.4063V37.6347Z" fill="white"/>
<circle cx="143.801" cy="26.8439" r="23.9669" fill="#F3B36A"/>
<path d="M144.426 23.6819C144.386 23.704 143.466 24.2326 142.813 24.7439C142.656 24.866 142.622 25.1009 142.735 25.2685C142.803 25.3696 142.909 25.4241 143.017 25.4241C143.088 25.4241 143.16 25.4006 143.222 25.3521C143.836 24.8734 144.745 24.3517 144.753 24.3458C144.923 24.2489 144.987 24.0212 144.897 23.8375C144.806 23.6524 144.593 23.5863 144.426 23.6819ZM139.658 15.1003C139.547 15.212 136.947 17.8958 137.54 23.814C137.56 24.0063 137.712 24.1489 137.888 24.1489C137.9 24.1489 137.912 24.1489 137.926 24.1473C138.117 24.124 138.256 23.9387 138.236 23.7316C137.68 18.2142 140.11 15.6742 140.135 15.6493C140.276 15.5069 140.283 15.2688 140.15 15.1175C140.018 14.9651 139.8 14.9593 139.658 15.1003ZM153.814 19.4615C153.662 19.0077 153.249 18.7653 152.995 18.655C151.05 10.9386 146.535 10.5449 145.644 10.5449L145.544 10.548C140.947 10.548 138.559 13.6885 138.486 13.7914C135.683 16.8086 135.536 22.0467 135.53 22.8621C134.81 24.2724 133.99 25.3387 133.968 25.3696C133.743 25.7033 133.68 26.0733 133.788 26.4434C134.136 27.6449 136.278 28.4852 136.511 28.5734C137.583 29.0157 138.579 29.2391 139.472 29.2391C141.042 29.2391 141.778 28.5427 141.769 28.5427C144.763 26.5594 147.53 24.3561 147.516 24.3561C151.049 22.6257 153.238 21.2875 153.584 20.6515C153.927 20.1298 153.898 19.717 153.814 19.4615ZM152.983 20.271C152.961 20.3063 152.389 21.1434 147.163 23.7114C147.136 23.7335 144.383 25.9282 141.353 27.9436C141.347 27.9479 140.762 28.4869 139.472 28.4869C138.665 28.4869 137.752 28.28 136.753 27.8669C135.963 27.5687 134.639 26.8579 134.454 26.2188C134.426 26.1246 134.411 25.9925 134.519 25.8309C134.547 25.7942 135.095 25.0774 135.699 24.0329C135.744 24.3899 135.789 24.5984 135.793 24.619C135.805 24.6735 135.829 24.7248 135.862 24.7674C136.967 26.2351 139.741 26.5757 139.858 26.5889C139.872 26.5918 139.884 26.5918 139.896 26.5918C140.003 26.5918 140.104 26.539 140.171 26.448C140.246 26.3465 140.266 26.2099 140.225 26.0881C139.637 24.334 140.22 22.5391 140.225 22.52C140.29 22.3246 140.195 22.1103 140.014 22.0395C139.838 21.9719 139.635 22.0702 139.568 22.2658C139.543 22.3406 139.014 23.9581 139.405 25.7518C138.615 25.5931 137.147 25.198 136.457 24.3606C136.403 24.0696 136.244 23.0416 136.308 21.555C136.485 19.688 137.073 16.3754 139.005 14.2924C139.027 14.2631 141.279 11.3001 145.544 11.3001C145.551 11.3001 145.637 11.2986 145.644 11.2972C146.453 11.2972 150.58 11.6702 152.367 19.0417C152.4 19.1724 152.496 19.2752 152.617 19.3104C152.756 19.3486 153.087 19.5058 153.156 19.7173C153.209 19.8757 153.103 20.0829 152.983 20.271ZM150.446 19.8683C150.406 19.8904 149.487 20.4192 148.833 20.9303C148.676 21.0523 148.642 21.2873 148.755 21.4546C148.823 21.556 148.93 21.6104 149.038 21.6104C149.109 21.6104 149.181 21.5869 149.242 21.5385C149.856 21.0598 150.765 20.5381 150.773 20.5321C150.944 20.4353 151.008 20.2075 150.918 20.0239C150.827 19.8376 150.614 19.7746 150.446 19.8683Z" fill="white"/>
<path d="M126.463 33.6094H125.744V37.6358H126.515L128.724 34.5815V37.6358H129.443V33.6094H128.66L126.463 36.6177V33.6094Z" fill="white"/>
<path d="M132.665 37.3482V36.658C132.521 36.9111 132.205 37.1124 131.727 37.1124C131.187 37.1124 130.865 36.8363 130.865 36.2438V36.1575C130.865 35.5766 131.164 35.2832 131.716 35.2832C132.136 35.289 132.441 35.4961 132.636 35.8009V34.9611C132.446 34.8173 132.101 34.7023 131.716 34.6965C130.801 34.7023 130.18 35.1969 130.18 36.1863C130.18 37.1929 130.79 37.6991 131.71 37.6991C132.176 37.6991 132.538 37.5093 132.665 37.3482Z" fill="white"/>
<path d="M135.207 37.6358H135.88V34.7598H133.28V37.6358H133.953V35.3523H135.207V37.6358Z" fill="white"/>
<path d="M137.978 37.6991C138.869 37.6933 139.473 37.2044 139.473 36.2093C139.473 35.2084 138.892 34.7023 138.001 34.6965C137.103 34.6965 136.5 35.1912 136.5 36.1863C136.5 37.1929 137.08 37.6991 137.978 37.6991ZM137.184 36.1863C137.184 35.5823 137.466 35.289 137.978 35.2832C138.484 35.2832 138.789 35.5593 138.789 36.1921V36.2093C138.789 36.819 138.501 37.1124 137.989 37.1124C137.483 37.1124 137.184 36.8363 137.184 36.2036V36.1863Z" fill="white"/>
<path d="M141.94 37.6358H142.608V34.7598H140.41L140.387 35.3868C140.347 36.8881 140.146 36.9686 139.898 36.9686C139.852 36.9686 139.801 36.9628 139.749 36.9456V37.6416C139.806 37.6588 139.921 37.6703 140.031 37.6703C140.479 37.6703 140.916 37.5093 140.991 35.7146L141.009 35.3523H141.94V37.6358Z" fill="white"/>
<path d="M145.403 37.6358H146.076V34.7598H145.403V35.8814H144.103V34.7598H143.43V37.6358H144.103V36.4739H145.403V37.6358Z" fill="white"/>
<path d="M146.896 37.5956H146.982V37.6358H147.535L147.563 37.5956L148.915 35.6629V37.6358H149.582V34.8058H149.49V34.7598H148.944L147.563 36.7097V34.7598H146.896V37.5956Z" fill="white"/>
<path d="M151.057 37.6358H151.724V35.3523H152.656V34.7598H150.137V35.3523H151.057V37.6358Z" fill="white"/>
<path d="M155.585 37.3482V36.658C155.43 36.9111 155.079 37.1124 154.55 37.1124C154.027 37.1124 153.733 36.8708 153.681 36.3934H155.815V36.1173C155.815 35.2142 155.315 34.7023 154.481 34.6965C153.612 34.6965 153.014 35.2315 153.014 36.1863C153.014 37.1757 153.578 37.6991 154.527 37.6933C155.05 37.6991 155.447 37.5093 155.585 37.3482ZM154.464 35.2832C154.872 35.2832 155.125 35.5248 155.143 35.916H153.693C153.762 35.5018 154.032 35.2832 154.464 35.2832Z" fill="white"/>
<path d="M158.242 37.6358H158.909V34.7598H156.712L156.689 35.3868C156.648 36.8881 156.447 36.9686 156.2 36.9686C156.154 36.9686 156.102 36.9628 156.05 36.9456V37.6416C156.108 37.6588 156.223 37.6703 156.332 37.6703C156.781 37.6703 157.218 37.5093 157.293 35.7146L157.31 35.3523H158.242V37.6358Z" fill="white"/>
<path d="M162.182 36.5889C162.182 35.8354 161.745 35.6111 160.962 35.6111H160.404V34.7598H159.731V37.6358H160.888C161.785 37.6358 162.176 37.3195 162.182 36.5889ZM161.509 36.5832C161.509 36.9283 161.331 37.0434 160.87 37.0434H160.404V36.2036H160.911C161.348 36.2036 161.497 36.2841 161.509 36.5832Z" fill="white"/>
<circle cx="263.635" cy="26.8439" r="23.9669" fill="#5BD595"/>
<g opacity="0.5">
<rect x="263.635" y="38.8281" width="0.958678" height="11.9835" fill="white"/>
<rect x="263.635" y="27.3242" width="0.958678" height="5.27273" fill="white"/>
<rect x="263.635" y="0.480469" width="2.39669" height="26.3636" fill="white"/>
<rect x="263.635" y="24.4473" width="26.3636" height="2.39669" fill="white"/>
<rect x="239.668" y="26.3652" width="50.3306" height="0.958678" fill="white"/>
</g>
<path d="M289.998 24.4474C289.998 21.3 289.378 18.1835 288.174 15.2757C286.97 12.3679 285.204 9.72576 282.979 7.50022C280.753 5.27469 278.111 3.50929 275.203 2.30484C272.295 1.10039 269.179 0.480469 266.031 0.480469L266.031 24.4474H289.998Z" fill="#5BD595"/>
<path d="M249.419 37.6378H250.138V33.6113H246.555V37.6378H247.274V34.2728H249.419V37.6378Z" fill="white"/>
<path d="M252.351 37.701C253.243 37.6953 253.847 37.2064 253.847 36.2113C253.847 35.2104 253.266 34.7042 252.374 34.6985C251.477 34.6985 250.873 35.1931 250.873 36.1883C250.873 37.1949 251.454 37.701 252.351 37.701ZM251.557 36.1883C251.557 35.5843 251.839 35.2909 252.351 35.2852C252.857 35.2852 253.162 35.5613 253.162 36.194V36.2113C253.162 36.821 252.874 37.1143 252.362 37.1143C251.856 37.1143 251.557 36.8382 251.557 36.2055V36.1883Z" fill="white"/>
<path d="M254.088 37.0281V38.3855H254.698V37.6378H256.717V38.3855H257.327V37.0281H256.89V34.7617H254.681V35.0896C254.681 36.0445 254.583 36.6139 254.422 37.0281H254.088ZM255.308 35.4232V35.3542H256.217V37.0281H255.072C255.233 36.5794 255.291 36.0847 255.308 35.4232Z" fill="white"/>
<path d="M257.904 38.7479H258.577V37.2006C258.721 37.471 259.038 37.701 259.498 37.701C260.286 37.701 260.798 37.2696 260.798 36.1365C260.798 35.1299 260.286 34.7042 259.555 34.7042C258.946 34.7042 258.641 35.0378 258.537 35.36V34.7617H257.904V38.7479ZM258.577 36.079C258.589 35.5958 258.831 35.3024 259.36 35.3024C259.82 35.3024 260.125 35.5325 260.125 36.1652C260.125 36.844 259.889 37.1086 259.348 37.1086C258.877 37.1086 258.577 36.8152 258.577 36.2975V36.079Z" fill="white"/>
<path d="M263.164 37.6378H263.837V34.7617H262.612C261.72 34.7617 261.317 35.0839 261.317 35.8029C261.317 36.1767 261.502 36.4586 261.841 36.5967L261.174 37.6378H261.916L262.497 36.6887H263.164V37.6378ZM262.629 35.3542H263.164V36.171H262.502C262.152 36.171 261.996 36.0387 261.99 35.8029C261.99 35.4692 262.18 35.3542 262.629 35.3542Z" fill="white"/>
<path d="M264.334 37.0281V38.3855H264.944V37.6378H266.963V38.3855H267.573V37.0281H267.136V34.7617H264.927V35.0896C264.927 36.0445 264.829 36.6139 264.668 37.0281H264.334ZM265.554 35.4232V35.3542H266.463V37.0281H265.318C265.479 36.5794 265.536 36.0847 265.554 35.4232Z" fill="white"/>
<path d="M269.798 37.6378H270.471V34.7617H269.798V36.0617C269.625 36.148 269.407 36.194 269.176 36.194C268.82 36.194 268.624 36.0329 268.624 35.6878V34.7617H267.951V35.7914C267.951 36.4816 268.365 36.7922 269.056 36.7922C269.32 36.7922 269.596 36.7405 269.798 36.6254V37.6378Z" fill="white"/>
<path d="M271.291 37.5975H271.377V37.6378H271.929L271.958 37.5975L273.309 35.6648V37.6378H273.977V34.8078H273.885V34.7617H273.338L271.958 36.7117V34.7617H271.291V37.5975Z" fill="white"/>
<path d="M274.796 37.6378H275.469V36.4471H275.929L276.832 37.6378H277.649L276.481 36.1192L277.488 34.7617H276.74L275.934 35.8834H275.469V34.7617H274.796V37.6378Z" fill="white"/>
<path d="M278.144 37.5975H278.23V37.6378H278.782L278.811 37.5975L280.163 35.6648V37.6378H280.83V34.8078H280.738V34.7617H280.191L278.811 36.7117V34.7617H278.144V37.5975Z" fill="white"/>
<circle cx="143.801" cy="146.678" r="23.9669" fill="#5BD595"/>
<path d="M137.617 152.443H140.476V153.105H138.336V153.824H139.124C139.68 153.824 140.096 153.929 140.372 154.14C140.652 154.351 140.792 154.679 140.792 155.124C140.792 155.346 140.752 155.542 140.672 155.711C140.595 155.875 140.482 156.015 140.332 156.13C140.186 156.242 140.01 156.326 139.803 156.384C139.596 156.441 139.364 156.47 139.107 156.47H137.617V152.443ZM138.336 154.485V155.808H139.101C139.243 155.808 139.372 155.797 139.487 155.774C139.605 155.751 139.705 155.712 139.786 155.659C139.87 155.605 139.933 155.534 139.976 155.446C140.022 155.354 140.045 155.241 140.045 155.107C140.045 154.865 139.964 154.702 139.803 154.618C139.646 154.529 139.412 154.485 139.101 154.485H138.336Z" fill="white"/>
<path d="M141.537 153.795C141.633 153.722 141.765 153.661 141.934 153.611C142.106 153.561 142.317 153.536 142.567 153.536C142.988 153.536 143.303 153.615 143.51 153.772C143.717 153.929 143.821 154.196 143.821 154.572V156.47H143.188V155.952C143.119 156.121 143 156.257 142.831 156.361C142.666 156.464 142.469 156.516 142.239 156.516C141.947 156.516 141.719 156.439 141.554 156.286C141.393 156.129 141.313 155.908 141.313 155.624C141.313 155.459 141.341 155.323 141.399 155.216C141.456 155.108 141.537 155.024 141.64 154.963C141.744 154.898 141.869 154.852 142.014 154.825C142.16 154.798 142.321 154.784 142.498 154.784H143.148V154.658C143.148 154.455 143.098 154.315 142.998 154.238C142.902 154.161 142.758 154.123 142.567 154.123C142.302 154.123 142.089 154.171 141.928 154.267C141.767 154.359 141.637 154.482 141.537 154.635V153.795ZM142.452 155.912C142.567 155.912 142.664 155.898 142.745 155.872C142.829 155.841 142.9 155.804 142.958 155.762C143.015 155.716 143.059 155.666 143.09 155.613C143.121 155.559 143.14 155.507 143.148 155.457V155.222H142.578C142.379 155.222 142.231 155.245 142.135 155.291C142.039 155.337 141.991 155.425 141.991 155.555C141.991 155.666 142.03 155.755 142.106 155.82C142.187 155.881 142.302 155.912 142.452 155.912Z" fill="white"/>
<path d="M146.57 155.308H145.27V156.47H144.597V153.594H145.27V154.715H146.57V153.594H147.243V156.47H146.57V155.308Z" fill="white"/>
<path d="M148.057 153.594H148.73V154.715H149.196L150.001 153.594H150.749L149.742 154.951L150.91 156.47H150.093L149.19 155.279H148.73V156.47H148.057V153.594Z" fill="white"/>
<g clip-path="url(#clip0)">
<path d="M143.739 130.904L135.277 134.979V137.098H152.803V134.967L143.739 130.904ZM151.635 135.93H136.446V135.713L143.757 132.193L151.635 135.724V135.93Z" fill="white" stroke="#5BD595" stroke-width="0.479339"/>
<path d="M136.445 145.277H151.634V146.446H136.445V145.277Z" fill="white" stroke="#5BD595" stroke-width="0.479339"/>
<path d="M135.277 147.322H152.803V148.491H135.277V147.322Z" fill="white" stroke="#5BD595" stroke-width="0.479339"/>
<path d="M136.738 138.268H137.907V144.11H136.738V138.268Z" fill="white" stroke="#5BD595" stroke-width="0.479339"/>
<path d="M150.174 138.268H151.342V144.11H150.174V138.268Z" fill="white" stroke="#5BD595" stroke-width="0.479339"/>
<path d="M146.67 138.268H147.838V144.11H146.67V138.268Z" fill="white" stroke="#5BD595" stroke-width="0.479339"/>
<path d="M140.242 138.268H141.411V144.11H140.242V138.268Z" fill="white" stroke="#5BD595" stroke-width="0.479339"/>
<path d="M143.457 138.268H144.625V144.11H143.457V138.268Z" fill="white" stroke="#5BD595" stroke-width="0.479339"/>
</g>
<circle cx="263.637" cy="146.678" r="23.9669" fill="#5BD595"/>
<path d="M257.451 152.443H260.31V153.105H258.17V153.824H258.958C259.514 153.824 259.93 153.929 260.206 154.14C260.486 154.351 260.626 154.679 260.626 155.124C260.626 155.346 260.586 155.542 260.506 155.711C260.429 155.875 260.316 156.015 260.166 156.13C260.02 156.242 259.844 156.326 259.637 156.384C259.43 156.441 259.198 156.47 258.941 156.47H257.451V152.443ZM258.17 154.485V155.808H258.935C259.077 155.808 259.206 155.797 259.321 155.774C259.439 155.751 259.539 155.712 259.62 155.659C259.704 155.605 259.767 155.534 259.81 155.446C259.856 155.354 259.879 155.241 259.879 155.107C259.879 154.865 259.798 154.702 259.637 154.618C259.48 154.529 259.246 154.485 258.935 154.485H258.17Z" fill="white"/>
<path d="M261.371 153.795C261.467 153.722 261.599 153.661 261.768 153.611C261.94 153.561 262.151 153.536 262.401 153.536C262.822 153.536 263.137 153.615 263.344 153.772C263.551 153.929 263.655 154.196 263.655 154.572V156.47H263.022V155.952C262.953 156.121 262.834 156.257 262.665 156.361C262.5 156.464 262.303 156.516 262.073 156.516C261.781 156.516 261.553 156.439 261.388 156.286C261.227 156.129 261.147 155.908 261.147 155.624C261.147 155.459 261.175 155.323 261.233 155.216C261.29 155.108 261.371 155.024 261.474 154.963C261.578 154.898 261.703 154.852 261.848 154.825C261.994 154.798 262.155 154.784 262.332 154.784H262.982V154.658C262.982 154.455 262.932 154.315 262.832 154.238C262.736 154.161 262.592 154.123 262.401 154.123C262.136 154.123 261.923 154.171 261.762 154.267C261.601 154.359 261.471 154.482 261.371 154.635V153.795ZM262.286 155.912C262.401 155.912 262.498 155.898 262.579 155.872C262.663 155.841 262.734 155.804 262.792 155.762C262.849 155.716 262.893 155.666 262.924 155.613C262.955 155.559 262.974 155.507 262.982 155.457V155.222H262.412C262.213 155.222 262.065 155.245 261.969 155.291C261.873 155.337 261.825 155.425 261.825 155.555C261.825 155.666 261.864 155.755 261.94 155.82C262.021 155.881 262.136 155.912 262.286 155.912Z" fill="white"/>
<path d="M266.404 155.308H265.104V156.47H264.431V153.594H265.104V154.715H266.404V153.594H267.077V156.47H266.404V155.308Z" fill="white"/>
<path d="M267.891 153.594H268.564V154.715H269.03L269.835 153.594H270.583L269.576 154.951L270.744 156.47H269.927L269.024 155.279H268.564V156.47H267.891V153.594Z" fill="white"/>
<g clip-path="url(#clip1)">
<path d="M263.575 130.904L255.113 134.979V137.098H272.639V134.967L263.575 130.904ZM271.471 135.93H256.282V135.713L263.593 132.193L271.471 135.724V135.93Z" fill="white" stroke="#5BD595" stroke-width="0.479339"/>
<path d="M256.281 145.277H271.47V146.446H256.281V145.277Z" fill="white" stroke="#5BD595" stroke-width="0.479339"/>
<path d="M255.113 147.322H272.639V148.491H255.113V147.322Z" fill="white" stroke="#5BD595" stroke-width="0.479339"/>
<path d="M256.574 138.268H257.743V144.11H256.574V138.268Z" fill="white" stroke="#5BD595" stroke-width="0.479339"/>
<path d="M270.01 138.268H271.178V144.11H270.01V138.268Z" fill="white" stroke="#5BD595" stroke-width="0.479339"/>
<path d="M266.506 138.268H267.674V144.11H266.506V138.268Z" fill="white" stroke="#5BD595" stroke-width="0.479339"/>
<path d="M260.078 138.268H261.247V144.11H260.078V138.268Z" fill="white" stroke="#5BD595" stroke-width="0.479339"/>
<path d="M263.293 138.268H264.461V144.11H263.293V138.268Z" fill="white" stroke="#5BD595" stroke-width="0.479339"/>
</g>
<path d="M69.9825 15.6272H69.3785V10.9297H69.9825V13.01H70.7408L72.5661 10.9297H73.3311L71.3179 13.1979L73.5928 15.6272H72.801L70.7743 13.4798H69.9825V15.6272Z" fill="#404040"/>
<path d="M73.8126 13.9361C73.8126 13.6453 73.8551 13.3925 73.9401 13.1778C74.0251 12.9586 74.1414 12.7774 74.2891 12.6342C74.4367 12.4911 74.6112 12.3837 74.8125 12.3121C75.0138 12.2405 75.2331 12.2047 75.4702 12.2047C75.9981 12.2092 76.4074 12.3568 76.6982 12.6476C76.989 12.9384 77.1344 13.3769 77.1344 13.9629C77.1344 14.2537 77.0919 14.5088 77.0069 14.728C76.9219 14.9427 76.8056 15.1217 76.658 15.2648C76.5103 15.408 76.3359 15.5154 76.1345 15.5869C75.9332 15.6585 75.714 15.6943 75.4769 15.6943C74.9445 15.6898 74.5329 15.5444 74.2421 15.2581C73.9558 14.9673 73.8126 14.5266 73.8126 13.9361ZM74.3763 13.9562C74.3763 14.3902 74.4703 14.7078 74.6582 14.9092C74.8461 15.1105 75.119 15.2111 75.4769 15.2111C75.8303 15.2111 76.101 15.1082 76.2889 14.9024C76.4768 14.6922 76.5707 14.379 76.5707 13.9629V13.9428C76.5707 13.5133 76.4745 13.1979 76.2822 12.9966C76.0943 12.7953 75.8236 12.6924 75.4702 12.6879C75.1167 12.6879 74.8461 12.793 74.6582 13.0033C74.4703 13.2091 74.3763 13.52 74.3763 13.9361V13.9562Z" fill="#404040"/>
<path d="M80.2825 14.1777H78.5108V15.6272H77.9538V12.2718H78.5108V13.6744H80.2825V12.2718H80.8394V15.6272H80.2825V14.1777Z" fill="#404040"/>
<path d="M82.6637 12.7684H81.543V12.2718H84.3347V12.7684H83.2207V15.6272H82.6637V12.7684Z" fill="#404040"/>
<path d="M85.0381 12.2718H85.5683V12.9161C85.6533 12.7192 85.7964 12.5515 85.9978 12.4128C86.1991 12.2741 86.4697 12.2047 86.8098 12.2047C87.2571 12.2047 87.6128 12.3367 87.8768 12.6007C88.1407 12.8646 88.2727 13.2896 88.2727 13.8757C88.2727 14.2068 88.2369 14.4886 88.1653 14.7213C88.0982 14.9494 87.9976 15.1373 87.8633 15.285C87.7336 15.4281 87.5748 15.5333 87.3869 15.6004C87.199 15.6675 86.9842 15.701 86.7426 15.701C86.4608 15.701 86.2214 15.6429 86.0246 15.5265C85.8322 15.4058 85.6891 15.2671 85.5951 15.1105V16.8351H85.0381V12.2718ZM85.5951 14.0904C85.5951 14.4394 85.6913 14.7123 85.8837 14.9092C86.0805 15.1015 86.3378 15.1977 86.6554 15.1977C87.0223 15.1977 87.2885 15.0993 87.454 14.9024C87.624 14.7056 87.709 14.3745 87.709 13.9093C87.709 13.6856 87.6844 13.4977 87.6352 13.3456C87.586 13.189 87.5144 13.0637 87.4204 12.9698C87.331 12.8758 87.2213 12.8087 87.0916 12.7684C86.9619 12.7282 86.8187 12.708 86.6621 12.708C86.3132 12.708 86.0492 12.802 85.8702 12.9899C85.6958 13.1733 85.6041 13.4328 85.5951 13.7683V14.0904Z" fill="#404040"/>
<path d="M89.1287 12.5268C89.2406 12.4418 89.3927 12.368 89.5851 12.3054C89.7819 12.2383 90.0101 12.2047 90.2696 12.2047C90.4843 12.2047 90.6767 12.2249 90.8467 12.2651C91.0167 12.3054 91.1599 12.3725 91.2762 12.4664C91.397 12.5604 91.4887 12.6857 91.5513 12.8422C91.6139 12.9944 91.6453 13.1845 91.6453 13.4127V15.6272H91.1151V15.0568C91.0256 15.2447 90.8802 15.3968 90.6789 15.5131C90.4821 15.625 90.2494 15.6809 89.981 15.6809C89.6455 15.6809 89.377 15.5937 89.1757 15.4192C88.9744 15.2447 88.8737 14.9852 88.8737 14.6407C88.8737 14.4573 88.905 14.3052 88.9677 14.1844C89.0348 14.0591 89.1287 13.9607 89.2495 13.8891C89.3703 13.8131 89.518 13.7616 89.6924 13.7348C89.8669 13.7035 90.066 13.6878 90.2897 13.6878H91.0883V13.4194C91.0883 13.2762 91.0681 13.1577 91.0279 13.0637C90.9876 12.9698 90.9317 12.8959 90.8601 12.8422C90.7885 12.7841 90.7013 12.7438 90.5984 12.7215C90.5 12.6991 90.3904 12.6879 90.2696 12.6879C90.0056 12.6879 89.7774 12.7461 89.5851 12.8624C89.3972 12.9787 89.2451 13.1308 89.1287 13.3187V12.5268ZM90.1219 15.1642C90.2919 15.1642 90.4351 15.1396 90.5514 15.0903C90.6722 15.0411 90.7706 14.983 90.8467 14.9159C90.9227 14.8443 90.9787 14.7705 91.0145 14.6944C91.0547 14.6184 91.0793 14.5513 91.0883 14.4931V14.1307H90.3098C90.0056 14.1307 89.7842 14.162 89.6455 14.2247C89.5112 14.2873 89.4441 14.4148 89.4441 14.6072C89.4441 14.7727 89.5001 14.9069 89.6119 15.0098C89.7238 15.1127 89.8938 15.1642 90.1219 15.1642Z" fill="#404040"/>
<path d="M92.6663 12.2718H93.2233V13.6744H93.8273L94.8809 12.2718H95.5184L94.2903 13.8556L95.7399 15.6272H95.0352L93.8273 14.1508H93.2233V15.6272H92.6663V12.2718Z" fill="#404040"/>
<path d="M97.2255 12.7684H96.1048V12.2718H98.8965V12.7684H97.7825V15.6272H97.2255V12.7684Z" fill="#404040"/>
<path d="M132.043 96.0966C132.115 96.1547 132.186 96.2375 132.258 96.3449C132.33 96.4523 132.395 96.5798 132.453 96.7274C132.511 96.8706 132.558 97.0339 132.594 97.2173C132.634 97.3962 132.654 97.5886 132.654 97.7944C132.654 98.1702 132.598 98.5102 132.486 98.8144C132.37 99.1142 132.209 99.3692 132.003 99.5795C131.793 99.7897 131.538 99.953 131.238 100.069C130.938 100.181 130.603 100.237 130.231 100.237C129.882 100.237 129.563 100.181 129.272 100.069C128.977 99.9575 128.722 99.7964 128.507 99.5862C128.292 99.3714 128.124 99.1142 128.003 98.8144C127.883 98.5102 127.822 98.1657 127.822 97.781C127.822 97.5886 127.838 97.4096 127.869 97.2441C127.896 97.0786 127.934 96.931 127.983 96.8012C128.028 96.667 128.08 96.5507 128.138 96.4523C128.191 96.3538 128.245 96.2778 128.299 96.2241H129.245C129.133 96.2912 129.026 96.3762 128.923 96.4791C128.815 96.582 128.722 96.7005 128.641 96.8348C128.556 96.969 128.489 97.1166 128.44 97.2777C128.386 97.4387 128.359 97.6065 128.359 97.781C128.359 98.0628 128.404 98.3178 128.493 98.546C128.583 98.7697 128.71 98.9598 128.876 99.1164C129.041 99.273 129.24 99.3938 129.473 99.4788C129.701 99.5638 129.956 99.6063 130.238 99.6063C130.502 99.6063 130.748 99.5683 130.976 99.4922C131.2 99.4162 131.397 99.3043 131.567 99.1567C131.732 99.0046 131.864 98.8167 131.963 98.593C132.061 98.3693 132.113 98.112 132.117 97.8212C132.117 97.6065 132.093 97.4097 132.043 97.2307C131.99 97.0473 131.92 96.884 131.835 96.7408C131.746 96.5932 131.645 96.4657 131.533 96.3583C131.417 96.2509 131.296 96.1637 131.171 96.0966H132.043Z" fill="#404040"/>
<path d="M132.057 95.2591C131.931 95.2009 131.793 95.1495 131.641 95.1048C131.489 95.06 131.316 95.022 131.124 94.9907C130.927 94.9549 130.706 94.928 130.46 94.9101C130.214 94.8922 129.932 94.8833 129.614 94.8833H129.232L129.232 92.5211H132.057V91.9776H133.459V92.5077H132.587V95.1316H133.459V95.6617H132.057V95.2591ZM130.003 94.3599C130.433 94.3688 130.811 94.4001 131.137 94.4538C131.464 94.503 131.77 94.588 132.057 94.7088V93.0781H129.728V94.3532L130.003 94.3599Z" fill="#404040"/>
<path d="M129.164 89.8778C129.164 89.4125 129.303 89.0502 129.58 88.7907C129.858 88.5267 130.247 88.3947 130.748 88.3947H131.111V90.965C131.473 90.9381 131.741 90.8307 131.916 90.6428C132.086 90.4549 132.171 90.1955 132.171 89.8644C132.171 89.5423 132.115 89.2783 132.003 89.0725C131.891 88.8667 131.755 88.7191 131.594 88.6296H132.245C132.348 88.7146 132.441 88.86 132.526 89.0658C132.611 89.2671 132.654 89.5333 132.654 89.8644C132.654 90.3968 132.509 90.8084 132.218 91.0992C131.927 91.39 131.486 91.5354 130.896 91.5354C130.605 91.5354 130.352 91.4929 130.137 91.4079C129.918 91.3229 129.737 91.2065 129.594 91.0589C129.451 90.9113 129.343 90.7368 129.272 90.5355C129.2 90.3342 129.164 90.1149 129.164 89.8778ZM129.648 89.8778C129.648 90.1955 129.73 90.446 129.896 90.6294C130.061 90.8129 130.307 90.9225 130.634 90.9582L130.634 88.9517H130.627C130.305 88.9517 130.061 89.039 129.896 89.2135C129.73 89.3879 129.648 89.6094 129.648 89.8778Z" fill="#404040"/>
<path d="M129.728 85.4555L129.728 86.7574L129.983 86.7641C130.399 86.7775 130.755 86.8021 131.05 86.8379C131.341 86.8737 131.585 86.9184 131.782 86.9721C131.978 87.0258 132.133 87.0862 132.245 87.1533C132.356 87.2204 132.441 87.292 132.5 87.3681C132.553 87.4441 132.587 87.5224 132.6 87.6029C132.618 87.6835 132.627 87.764 132.627 87.8445C132.627 87.9474 132.616 88.0369 132.594 88.1129H131.996C132.01 88.0548 132.016 87.9989 132.016 87.9452C132.016 87.887 132.012 87.8333 132.003 87.7841C131.99 87.7304 131.958 87.6812 131.909 87.6365C131.86 87.5873 131.788 87.5448 131.694 87.509C131.596 87.4687 131.462 87.4329 131.292 87.4016C131.117 87.3703 130.9 87.3457 130.641 87.3278C130.381 87.3054 130.066 87.2875 129.695 87.2741L129.232 87.2607L129.232 84.8985H132.587V85.4555H129.728Z" fill="#404040"/>
<path d="M129.232 83.8225V83.2655H130.634V82.6616L129.232 81.608V80.9705L130.815 82.1985L132.587 80.749L132.587 81.4536L131.111 82.6616V83.2655H132.587V83.8225H129.232Z" fill="#404040"/>
<path d="M129.487 80.0268C129.402 79.915 129.328 79.7629 129.265 79.5705C129.198 79.3736 129.164 79.1455 129.164 78.886C129.164 78.6712 129.185 78.4789 129.225 78.3089C129.265 78.1389 129.332 77.9957 129.426 77.8794C129.52 77.7586 129.645 77.6669 129.802 77.6042C129.954 77.5416 130.144 77.5103 130.372 77.5103H132.587V78.0404H132.016C132.204 78.1299 132.356 78.2753 132.473 78.4766C132.585 78.6735 132.641 78.9061 132.641 79.1746C132.641 79.5101 132.553 79.7785 132.379 79.9798C132.204 80.1812 131.945 80.2818 131.6 80.2818C131.417 80.2818 131.265 80.2505 131.144 80.1879C131.019 80.1208 130.92 80.0268 130.849 79.906C130.773 79.7852 130.721 79.6376 130.694 79.4631C130.663 79.2886 130.647 79.0895 130.647 78.8659V78.0673H130.379C130.236 78.0673 130.117 78.0874 130.023 78.1277C129.929 78.1679 129.856 78.2239 129.802 78.2954C129.744 78.367 129.704 78.4543 129.681 78.5572C129.659 78.6556 129.648 78.7652 129.648 78.886C129.648 79.1499 129.706 79.3781 129.822 79.5705C129.938 79.7584 130.09 79.9105 130.278 80.0268H129.487ZM132.124 79.0336C132.124 78.8636 132.099 78.7205 132.05 78.6041C132.001 78.4833 131.943 78.3849 131.876 78.3089C131.804 78.2328 131.73 78.1769 131.654 78.1411C131.578 78.1008 131.511 78.0762 131.453 78.0673H131.09V78.8457C131.09 79.1499 131.122 79.3714 131.184 79.5101C131.247 79.6443 131.374 79.7114 131.567 79.7114C131.732 79.7114 131.867 79.6555 131.97 79.5436C132.072 79.4318 132.124 79.2618 132.124 79.0336Z" fill="#404040"/>
<path d="M128.567 73.8266L129.232 74.8802H128.621L127.842 73.6723L127.842 73.2696H132.587V73.8266H128.567Z" fill="#404040"/>
<path d="M251.877 96.5652C251.949 96.6233 252.02 96.7061 252.092 96.8135C252.164 96.9208 252.229 97.0483 252.287 97.196C252.345 97.3391 252.392 97.5024 252.428 97.6859C252.468 97.8648 252.488 98.0572 252.488 98.263C252.488 98.6388 252.432 98.9788 252.32 99.283C252.204 99.5828 252.043 99.8378 251.837 100.048C251.627 100.258 251.372 100.422 251.072 100.538C250.772 100.65 250.437 100.706 250.065 100.706C249.716 100.706 249.397 100.65 249.106 100.538C248.81 100.426 248.555 100.265 248.341 100.055C248.126 99.84 247.958 99.5828 247.837 99.283C247.717 98.9788 247.656 98.6343 247.656 98.2496C247.656 98.0572 247.672 97.8782 247.703 97.7127C247.73 97.5472 247.768 97.3995 247.817 97.2698C247.862 97.1356 247.913 97.0193 247.972 96.9208C248.025 96.8224 248.079 96.7463 248.133 96.6927H249.079C248.967 96.7598 248.86 96.8448 248.757 96.9477C248.649 97.0506 248.555 97.1691 248.475 97.3033C248.39 97.4376 248.323 97.5852 248.274 97.7463C248.22 97.9073 248.193 98.0751 248.193 98.2496C248.193 98.5314 248.238 98.7864 248.327 99.0146C248.417 99.2383 248.544 99.4284 248.71 99.585C248.875 99.7416 249.074 99.8624 249.307 99.9474C249.535 100.032 249.79 100.075 250.072 100.075C250.336 100.075 250.582 100.037 250.81 99.9608C251.034 99.8847 251.231 99.7729 251.401 99.6253C251.566 99.4731 251.698 99.2852 251.797 99.0616C251.895 98.8379 251.947 98.5806 251.951 98.2898C251.951 98.0751 251.927 97.8782 251.877 97.6993C251.824 97.5158 251.754 97.3526 251.669 97.2094C251.58 97.0618 251.479 96.9342 251.367 96.8269C251.251 96.7195 251.13 96.6323 251.005 96.5652H251.877Z" fill="#404040"/>
<path d="M251.891 95.7277C251.765 95.6695 251.627 95.6181 251.475 95.5733C251.323 95.5286 251.15 95.4906 250.958 95.4592C250.761 95.4235 250.54 95.3966 250.294 95.3787C250.048 95.3608 249.766 95.3519 249.448 95.3519H249.066L249.066 92.9897H251.891V92.4461H253.293V92.9763H252.421V95.6002H253.293V96.1303H251.891V95.7277ZM249.837 94.8284C250.267 94.8374 250.645 94.8687 250.971 94.9224C251.298 94.9716 251.604 95.0566 251.891 95.1774V93.5467H249.562V94.8217L249.837 94.8284Z" fill="#404040"/>
<path d="M248.998 90.3464C248.998 89.8811 249.137 89.5187 249.414 89.2593C249.692 88.9953 250.081 88.8633 250.582 88.8633H250.945V91.4335C251.307 91.4067 251.575 91.2993 251.75 91.1114C251.92 90.9235 252.005 90.664 252.005 90.333C252.005 90.0109 251.949 89.7469 251.837 89.5411C251.725 89.3353 251.589 89.1877 251.428 89.0982H252.079C252.182 89.1832 252.275 89.3286 252.36 89.5344C252.445 89.7357 252.488 90.0019 252.488 90.333C252.488 90.8654 252.343 91.277 252.052 91.5678C251.761 91.8586 251.32 92.004 250.73 92.004C250.439 92.004 250.186 91.9614 249.971 91.8764C249.752 91.7914 249.571 91.6751 249.428 91.5275C249.285 91.3799 249.177 91.2054 249.106 91.0041C249.034 90.8027 248.998 90.5835 248.998 90.3464ZM249.482 90.3464C249.482 90.664 249.564 90.9146 249.73 91.098C249.895 91.2814 250.141 91.391 250.468 91.4268L250.468 89.4203H250.461C250.139 89.4203 249.895 89.5076 249.73 89.682C249.564 89.8565 249.482 90.078 249.482 90.3464Z" fill="#404040"/>
<path d="M249.562 85.9241L249.562 87.226L249.817 87.2327C250.233 87.2461 250.589 87.2707 250.884 87.3065C251.175 87.3423 251.419 87.387 251.616 87.4407C251.812 87.4944 251.967 87.5548 252.079 87.6219C252.19 87.689 252.275 87.7606 252.334 87.8366C252.387 87.9127 252.421 87.991 252.434 88.0715C252.452 88.152 252.461 88.2326 252.461 88.3131C252.461 88.416 252.45 88.5055 252.428 88.5815H251.83C251.844 88.5234 251.85 88.4674 251.85 88.4138C251.85 88.3556 251.846 88.3019 251.837 88.2527C251.824 88.199 251.792 88.1498 251.743 88.1051C251.694 88.0558 251.622 88.0133 251.528 87.9776C251.43 87.9373 251.296 87.9015 251.126 87.8702C250.951 87.8389 250.734 87.8143 250.475 87.7964C250.215 87.774 249.9 87.7561 249.529 87.7427L249.066 87.7293L249.066 85.3671H252.421V85.9241H249.562Z" fill="#404040"/>
<path d="M249.066 84.2911V83.7341H250.468V83.1301L249.066 82.0766V81.439L250.649 82.6671L252.421 81.2176L252.421 81.9222L250.945 83.1301V83.7341H252.421V84.2911H249.066Z" fill="#404040"/>
<path d="M249.321 80.4954C249.236 80.3835 249.162 80.2314 249.099 80.0391C249.032 79.8422 248.998 79.614 248.998 79.3546C248.998 79.1398 249.019 78.9474 249.059 78.7774C249.099 78.6074 249.166 78.4643 249.26 78.348C249.354 78.2272 249.479 78.1354 249.636 78.0728C249.788 78.0102 249.978 77.9789 250.206 77.9789H252.421V78.509H251.85C252.038 78.5985 252.19 78.7439 252.307 78.9452C252.419 79.1421 252.475 79.3747 252.475 79.6431C252.475 79.9787 252.387 80.2471 252.213 80.4484C252.038 80.6497 251.779 80.7504 251.434 80.7504C251.251 80.7504 251.099 80.7191 250.978 80.6564C250.853 80.5893 250.754 80.4954 250.683 80.3746C250.607 80.2538 250.555 80.1062 250.528 79.9317C250.497 79.7572 250.481 79.5581 250.481 79.3344V78.5359H250.213C250.07 78.5359 249.951 78.556 249.857 78.5963C249.763 78.6365 249.69 78.6924 249.636 78.764C249.578 78.8356 249.537 78.9228 249.515 79.0257C249.493 79.1242 249.482 79.2338 249.482 79.3546C249.482 79.6185 249.54 79.8467 249.656 80.0391C249.772 80.227 249.924 80.3791 250.112 80.4954H249.321ZM251.958 79.5022C251.958 79.3322 251.933 79.189 251.884 79.0727C251.835 78.9519 251.777 78.8535 251.71 78.7774C251.638 78.7014 251.564 78.6455 251.488 78.6097C251.412 78.5694 251.345 78.5448 251.287 78.5359H250.924V79.3143C250.924 79.6185 250.956 79.84 251.018 79.9787C251.081 80.1129 251.208 80.18 251.401 80.18C251.566 80.18 251.701 80.1241 251.803 80.0122C251.906 79.9004 251.958 79.7304 251.958 79.5022Z" fill="#404040"/>
<path d="M252.421 75.3823H252.012C251.595 74.8947 251.242 74.4965 250.951 74.1878C250.66 73.8746 250.408 73.6286 250.193 73.4496C249.978 73.2707 249.788 73.1499 249.622 73.0873C249.457 73.0201 249.294 72.9866 249.133 72.9866C248.851 72.9866 248.634 73.0716 248.482 73.2416C248.325 73.4116 248.247 73.6465 248.247 73.9462C248.242 74.2236 248.292 74.4697 248.394 74.6844C248.497 74.8992 248.643 75.0826 248.831 75.2347H248.153C248.095 75.1765 248.037 75.1027 247.978 75.0132C247.916 74.9238 247.862 74.8209 247.817 74.7045C247.768 74.5882 247.73 74.4562 247.703 74.3086C247.676 74.161 247.663 74.0022 247.663 73.8321C247.672 73.3803 247.795 73.0291 248.032 72.7786C248.269 72.5235 248.598 72.396 249.019 72.396C249.22 72.396 249.414 72.4251 249.602 72.4833C249.786 72.5414 249.976 72.6399 250.173 72.7786C250.37 72.9172 250.582 73.0984 250.81 73.3221C251.034 73.5458 251.282 73.821 251.555 74.1476L251.871 74.5166V72.2618H252.421V75.3823Z" fill="#404040"/>
<path d="M188.204 5.4634C188.338 5.13681 188.455 4.70732 188.553 4.17493C188.656 3.63807 188.712 3.00503 188.721 2.27579L188.734 1.30273H191.888V5.4634H192.492V6.87265H191.929V6.00026H188.204V6.87265H187.641V5.4634H188.204ZM189.258 2.29592C189.249 2.60909 189.231 2.91555 189.204 3.2153C189.182 3.51057 189.15 3.79466 189.11 4.06756C189.07 4.33599 189.021 4.58876 188.963 4.82588C188.904 5.06299 188.842 5.2755 188.775 5.4634H191.285V1.83959H189.265L189.258 2.29592Z" fill="#404040"/>
<path d="M192.942 4.30915C192.942 4.01835 192.984 3.76558 193.069 3.55083C193.154 3.33162 193.27 3.15043 193.418 3.00726C193.566 2.8641 193.74 2.75673 193.941 2.68515C194.143 2.61357 194.362 2.57778 194.599 2.57778C195.127 2.58225 195.536 2.72989 195.827 3.02068C196.118 3.31148 196.263 3.74992 196.263 4.33599C196.263 4.62679 196.221 4.8818 196.136 5.10102C196.051 5.31576 195.935 5.49471 195.787 5.63788C195.639 5.78104 195.465 5.88841 195.264 5.95999C195.062 6.03157 194.843 6.06736 194.606 6.06736C194.073 6.06289 193.662 5.91749 193.371 5.63116C193.085 5.34037 192.942 4.89969 192.942 4.30915ZM193.505 4.32928C193.505 4.76324 193.599 5.08088 193.787 5.28221C193.975 5.48353 194.248 5.58419 194.606 5.58419C194.959 5.58419 195.23 5.48129 195.418 5.2755C195.606 5.06523 195.7 4.75206 195.7 4.33599V4.31586C195.7 3.88637 195.604 3.57097 195.411 3.36964C195.223 3.16832 194.953 3.06542 194.599 3.06095C194.246 3.06095 193.975 3.16608 193.787 3.37635C193.599 3.58215 193.505 3.89308 193.505 4.30915V4.32928Z" fill="#404040"/>
<path d="M197.083 2.64488H199.324V3.14148H197.64V6.00026H197.083V2.64488Z" fill="#404040"/>
<path d="M199.941 4.30915C199.941 4.01835 199.983 3.76558 200.068 3.55083C200.153 3.33162 200.27 3.15043 200.417 3.00726C200.565 2.8641 200.739 2.75673 200.941 2.68515C201.142 2.61357 201.361 2.57778 201.598 2.57778C202.126 2.58225 202.536 2.72989 202.826 3.02068C203.117 3.31148 203.263 3.74992 203.263 4.33599C203.263 4.62679 203.22 4.8818 203.135 5.10102C203.05 5.31576 202.934 5.49471 202.786 5.63788C202.638 5.78104 202.464 5.88841 202.263 5.95999C202.061 6.03157 201.842 6.06736 201.605 6.06736C201.073 6.06289 200.661 5.91749 200.37 5.63116C200.084 5.34037 199.941 4.89969 199.941 4.30915ZM200.504 4.32928C200.504 4.76324 200.598 5.08088 200.786 5.28221C200.974 5.48353 201.247 5.58419 201.605 5.58419C201.958 5.58419 202.229 5.48129 202.417 5.2755C202.605 5.06523 202.699 4.75206 202.699 4.33599V4.31586C202.699 3.88637 202.603 3.57097 202.41 3.36964C202.222 3.16832 201.952 3.06542 201.598 3.06095C201.245 3.06095 200.974 3.16608 200.786 3.37635C200.598 3.58215 200.504 3.89308 200.504 4.30915V4.32928Z" fill="#404040"/>
<path d="M204.082 2.64488H205.578C206.003 2.64488 206.299 2.71199 206.464 2.84621C206.634 2.97595 206.719 3.16161 206.719 3.4032C206.719 3.61794 206.668 3.79242 206.565 3.92664C206.466 4.05638 206.326 4.14362 206.142 4.18835C206.249 4.20178 206.348 4.22415 206.437 4.25546C206.531 4.28678 206.61 4.33375 206.672 4.39639C206.739 4.45902 206.791 4.53955 206.827 4.63797C206.867 4.7364 206.887 4.85943 206.887 5.00707C206.887 5.3426 206.78 5.59314 206.565 5.75867C206.35 5.91973 206.012 6.00026 205.552 6.00026H204.082V2.64488ZM205.545 5.51708C205.822 5.51708 206.021 5.47682 206.142 5.39629C206.267 5.31129 206.33 5.18378 206.33 5.01378C206.33 4.81245 206.27 4.67824 206.149 4.61113C206.028 4.53955 205.86 4.50376 205.646 4.50376H204.639V5.51708H205.545ZM205.464 4.0273C205.675 4.0273 205.842 3.99151 205.968 3.91992C206.093 3.84834 206.156 3.7186 206.156 3.5307C206.156 3.36517 206.102 3.2578 205.994 3.20859C205.887 3.1549 205.726 3.12806 205.511 3.12806L204.639 3.13477V4.0273H205.464Z" fill="#404040"/>
<path d="M207.471 4.30915C207.471 4.01835 207.513 3.76558 207.598 3.55083C207.683 3.33162 207.799 3.15043 207.947 3.00726C208.095 2.8641 208.269 2.75673 208.471 2.68515C208.672 2.61357 208.891 2.57778 209.128 2.57778C209.656 2.58225 210.065 2.72989 210.356 3.02068C210.647 3.31148 210.792 3.74992 210.792 4.33599C210.792 4.62679 210.75 4.8818 210.665 5.10102C210.58 5.31576 210.464 5.49471 210.316 5.63788C210.168 5.78104 209.994 5.88841 209.793 5.95999C209.591 6.03157 209.372 6.06736 209.135 6.06736C208.602 6.06289 208.191 5.91749 207.9 5.63116C207.614 5.34037 207.471 4.89969 207.471 4.30915ZM208.034 4.32928C208.034 4.76324 208.128 5.08088 208.316 5.28221C208.504 5.48353 208.777 5.58419 209.135 5.58419C209.488 5.58419 209.759 5.48129 209.947 5.2755C210.135 5.06523 210.229 4.75206 210.229 4.33599V4.31586C210.229 3.88637 210.133 3.57097 209.94 3.36964C209.752 3.16832 209.482 3.06542 209.128 3.06095C208.775 3.06095 208.504 3.16608 208.316 3.37635C208.128 3.58215 208.034 3.89308 208.034 4.30915V4.32928Z" fill="#404040"/>
<path d="M211.612 2.64488H212.142V3.28911C212.227 3.09227 212.37 2.9245 212.571 2.78581C212.773 2.64712 213.043 2.57778 213.383 2.57778C213.831 2.57778 214.187 2.70975 214.45 2.97371C214.714 3.23767 214.846 3.66268 214.846 4.24875C214.846 4.57981 214.811 4.86167 214.739 5.09431C214.672 5.32247 214.571 5.51037 214.437 5.65801C214.307 5.80117 214.148 5.90631 213.961 5.97341C213.773 6.04052 213.558 6.07407 213.316 6.07407C213.035 6.07407 212.795 6.01591 212.598 5.89959C212.406 5.7788 212.263 5.64011 212.169 5.48353V7.20819H211.612V2.64488ZM212.169 4.4635C212.169 4.81245 212.265 5.08536 212.457 5.28221C212.654 5.47458 212.911 5.57077 213.229 5.57077C213.596 5.57077 213.862 5.47234 214.028 5.2755C214.198 5.07865 214.283 4.74758 214.283 4.28231C214.283 4.05861 214.258 3.87071 214.209 3.7186C214.16 3.56202 214.088 3.43675 213.994 3.3428C213.905 3.24885 213.795 3.18174 213.665 3.14148C213.536 3.10121 213.392 3.08108 213.236 3.08108C212.887 3.08108 212.623 3.17503 212.444 3.36293C212.269 3.54636 212.178 3.80584 212.169 4.14138V4.4635Z" fill="#404040"/>
<path d="M215.649 2.64488H216.206V3.72531H216.884C217.112 3.72531 217.311 3.74097 217.481 3.77229C217.655 3.80361 217.801 3.85953 217.917 3.94006C218.033 4.02059 218.121 4.13243 218.179 4.27559C218.241 4.41428 218.273 4.59324 218.273 4.81245C218.273 5.03167 218.246 5.21734 218.192 5.36945C218.138 5.51708 218.051 5.63788 217.93 5.73183C217.814 5.82578 217.662 5.89512 217.474 5.93986C217.286 5.98012 217.06 6.00026 216.796 6.00026H215.649V2.64488ZM218.736 2.64488H219.293V6.00026H218.736V2.64488ZM217.716 4.81245C217.711 4.68719 217.693 4.58653 217.662 4.51047C217.635 4.43442 217.586 4.37626 217.514 4.33599C217.447 4.29125 217.356 4.26217 217.239 4.24875C217.127 4.23086 216.989 4.22191 216.823 4.22191H216.206V5.50366H216.79C216.951 5.50366 217.089 5.49471 217.206 5.47682C217.322 5.45445 217.418 5.41866 217.494 5.36945C217.57 5.31576 217.626 5.24418 217.662 5.1547C217.698 5.06523 217.716 4.95114 217.716 4.81245Z" fill="#404040"/>
<path d="M193.03 12.1415H191.312V15.0003H190.755V11.6449H193.587V15.0003H193.03V12.1415Z" fill="#404040"/>
<path d="M194.406 13.3091C194.406 13.0183 194.449 12.7656 194.534 12.5508C194.619 12.3316 194.735 12.1504 194.883 12.0073C195.03 11.8641 195.205 11.7567 195.406 11.6851C195.608 11.6136 195.827 11.5778 196.064 11.5778C196.592 11.5822 197.001 11.7299 197.292 12.0207C197.583 12.3115 197.728 12.7499 197.728 13.336C197.728 13.6268 197.686 13.8818 197.601 14.101C197.516 14.3158 197.399 14.4947 197.252 14.6379C197.104 14.781 196.93 14.8884 196.728 14.96C196.527 15.0316 196.308 15.0674 196.071 15.0674C195.538 15.0629 195.127 14.9175 194.836 14.6312C194.549 14.3404 194.406 13.8997 194.406 13.3091ZM194.97 13.3293C194.97 13.7632 195.064 14.0809 195.252 14.2822C195.44 14.4835 195.713 14.5842 196.071 14.5842C196.424 14.5842 196.695 14.4813 196.883 14.2755C197.07 14.0652 197.164 13.7521 197.164 13.336V13.3159C197.164 12.8864 197.068 12.571 196.876 12.3696C196.688 12.1683 196.417 12.0654 196.064 12.0609C195.71 12.0609 195.44 12.1661 195.252 12.3764C195.064 12.5822 194.97 12.8931 194.97 13.3091V13.3293Z" fill="#404040"/>
<path d="M198.448 14.4701C198.507 14.3448 198.558 14.2062 198.603 14.054C198.647 13.9019 198.686 13.7297 198.717 13.5373C198.753 13.3405 198.779 13.119 198.797 12.8729C198.815 12.6269 198.824 12.345 198.824 12.0274V11.6449H201.186V14.4701H201.73V15.8727H201.2V15.0003H198.576V15.8727H198.046V14.4701H198.448ZM199.348 12.4166C199.339 12.8461 199.307 13.2241 199.254 13.5507C199.204 13.8773 199.119 14.1838 198.999 14.4701H200.629V12.1415H199.354L199.348 12.4166Z" fill="#404040"/>
<path d="M202.493 11.6449H203.023V12.2891C203.108 12.0923 203.251 11.9245 203.452 11.7858C203.654 11.6471 203.924 11.5778 204.264 11.5778C204.712 11.5778 205.067 11.7098 205.331 11.9737C205.595 12.2377 205.727 12.6627 205.727 13.2488C205.727 13.5798 205.691 13.8617 205.62 14.0943C205.553 14.3225 205.452 14.5104 205.318 14.658C205.188 14.8012 205.029 14.9063 204.841 14.9734C204.654 15.0405 204.439 15.0741 204.197 15.0741C203.915 15.0741 203.676 15.0159 203.479 14.8996C203.287 14.7788 203.144 14.6401 203.05 14.4835V16.2082H202.493V11.6449ZM203.05 13.4635C203.05 13.8125 203.146 14.0854 203.338 14.2822C203.535 14.4746 203.792 14.5708 204.11 14.5708C204.477 14.5708 204.743 14.4723 204.909 14.2755C205.079 14.0786 205.164 13.7476 205.164 13.2823C205.164 13.0586 205.139 12.8707 205.09 12.7186C205.041 12.562 204.969 12.4368 204.875 12.3428C204.786 12.2489 204.676 12.1817 204.546 12.1415C204.416 12.1012 204.273 12.0811 204.117 12.0811C203.768 12.0811 203.504 12.175 203.325 12.3629C203.15 12.5464 203.059 12.8058 203.05 13.1414V13.4635Z" fill="#404040"/>
<path d="M208.59 13.7923H207.717L206.805 15.0003H206.161L207.12 13.7319C206.901 13.6693 206.729 13.5642 206.603 13.4165C206.478 13.2644 206.416 13.0676 206.416 12.826C206.416 12.6112 206.442 12.43 206.496 12.2824C206.55 12.1303 206.635 12.0073 206.751 11.9133C206.872 11.8194 207.026 11.7523 207.214 11.712C207.402 11.6673 207.628 11.6449 207.892 11.6449H209.147V15.0003H208.59V13.7923ZM207.899 12.1415C207.738 12.1415 207.599 12.1527 207.483 12.175C207.366 12.1929 207.27 12.2287 207.194 12.2824C207.118 12.3316 207.062 12.401 207.026 12.4904C206.99 12.5754 206.973 12.6873 206.973 12.826C206.977 12.9826 207.035 13.1101 207.147 13.2085C207.259 13.3069 207.442 13.3561 207.697 13.3561H208.59V12.1415H207.899Z" fill="#404040"/>
<path d="M210.186 14.4701C210.244 14.3448 210.295 14.2062 210.34 14.054C210.385 13.9019 210.423 13.7297 210.454 13.5373C210.49 13.3405 210.517 13.119 210.535 12.8729C210.553 12.6269 210.561 12.345 210.561 12.0274V11.6449H212.924V14.4701H213.467V15.8727H212.937V15.0003H210.313V15.8727H209.783V14.4701H210.186ZM211.085 12.4166C211.076 12.8461 211.045 13.2241 210.991 13.5507C210.942 13.8773 210.857 14.1838 210.736 14.4701H212.367V12.1415H211.092L211.085 12.4166Z" fill="#404040"/>
<path d="M214.218 11.8999C214.33 11.8149 214.482 11.7411 214.674 11.6784C214.871 11.6113 215.099 11.5778 215.359 11.5778C215.574 11.5778 215.766 11.5979 215.936 11.6382C216.106 11.6784 216.249 11.7455 216.366 11.8395C216.486 11.9334 216.578 12.0587 216.641 12.2153C216.703 12.3674 216.735 12.5575 216.735 12.7857V15.0003H216.204V14.4298C216.115 14.6177 215.97 14.7699 215.768 14.8862C215.571 14.998 215.339 15.0539 215.07 15.0539C214.735 15.0539 214.466 14.9667 214.265 14.7922C214.064 14.6177 213.963 14.3583 213.963 14.0138C213.963 13.8303 213.994 13.6782 214.057 13.5574C214.124 13.4322 214.218 13.3338 214.339 13.2622C214.46 13.1861 214.607 13.1347 214.782 13.1078C214.956 13.0765 215.155 13.0609 215.379 13.0609H216.178V12.7924C216.178 12.6493 216.157 12.5307 216.117 12.4368C216.077 12.3428 216.021 12.269 215.949 12.2153C215.878 12.1571 215.791 12.1169 215.688 12.0945C215.589 12.0721 215.48 12.0609 215.359 12.0609C215.095 12.0609 214.867 12.1191 214.674 12.2354C214.487 12.3517 214.334 12.5039 214.218 12.6918V11.8999ZM215.211 14.5372C215.381 14.5372 215.524 14.5126 215.641 14.4634C215.762 14.4142 215.86 14.356 215.936 14.2889C216.012 14.2173 216.068 14.1435 216.104 14.0675C216.144 13.9914 216.169 13.9243 216.178 13.8661V13.5038H215.399C215.095 13.5038 214.873 13.5351 214.735 13.5977C214.601 13.6603 214.533 13.7878 214.533 13.9802C214.533 14.1458 214.589 14.28 214.701 14.3829C214.813 14.4858 214.983 14.5372 215.211 14.5372Z" fill="#404040"/>
<path d="M113.171 27.1709C113.265 27.0765 113.265 26.9235 113.171 26.8291L111.633 25.2912C111.539 25.1968 111.386 25.1968 111.291 25.2912C111.197 25.3855 111.197 25.5386 111.291 25.6329L112.658 27L111.291 28.3671C111.197 28.4615 111.197 28.6145 111.291 28.7088C111.386 28.8032 111.539 28.8032 111.633 28.7088L113.171 27.1709ZM84 27.2417L85.2083 27.2417L85.2083 26.7583L84 26.7583L84 27.2417ZM87.625 27.2417L90.0417 27.2417L90.0417 26.7583L87.625 26.7583L87.625 27.2417ZM92.4583 27.2417L94.875 27.2417L94.875 26.7583L92.4583 26.7583L92.4583 27.2417ZM97.2917 27.2417L99.7083 27.2417L99.7083 26.7583L97.2917 26.7583L97.2917 27.2417ZM102.125 27.2417L104.542 27.2417L104.542 26.7583L102.125 26.7583L102.125 27.2417ZM106.958 27.2417L109.375 27.2417L109.375 26.7583L106.958 26.7583L106.958 27.2417ZM111.792 27.2417L113 27.2417L113 26.7583L111.792 26.7583L111.792 27.2417ZM113.342 27.3418C113.531 27.153 113.531 26.847 113.342 26.6582L110.266 23.5823C110.077 23.3936 109.771 23.3936 109.582 23.5823C109.394 23.7711 109.394 24.0771 109.582 24.2659L112.316 27L109.582 29.7341C109.394 29.9229 109.394 30.2289 109.582 30.4177C109.771 30.6064 110.077 30.6064 110.266 30.4177L113.342 27.3418ZM84 27.4833L85.2083 27.4833L85.2083 26.5167L84 26.5167L84 27.4833ZM87.625 27.4833L90.0417 27.4833L90.0417 26.5167L87.625 26.5167L87.625 27.4833ZM92.4583 27.4833L94.875 27.4833L94.875 26.5167L92.4583 26.5167L92.4583 27.4833ZM97.2917 27.4833L99.7083 27.4833L99.7083 26.5167L97.2917 26.5167L97.2917 27.4833ZM102.125 27.4833L104.542 27.4833L104.542 26.5167L102.125 26.5167L102.125 27.4833ZM106.958 27.4833L109.375 27.4833L109.375 26.5167L106.958 26.5167L106.958 27.4833ZM111.792 27.4833L113 27.4833L113 26.5167L111.792 26.5167L111.792 27.4833Z" fill="#404040"/>
<path d="M54.8291 27.1709C54.7347 27.0765 54.7347 26.9235 54.8291 26.8291L56.3671 25.2912C56.4614 25.1968 56.6145 25.1968 56.7088 25.2912C56.8032 25.3855 56.8032 25.5386 56.7088 25.6329L55.3418 27L56.7088 28.3671C56.8032 28.4614 56.8032 28.6145 56.7088 28.7088C56.6145 28.8032 56.4614 28.8032 56.3671 28.7088L54.8291 27.1709ZM84 27.2417H82.7917V26.7583H84V27.2417ZM80.375 27.2417H77.9583V26.7583H80.375V27.2417ZM75.5417 27.2417H73.125V26.7583H75.5417V27.2417ZM70.7083 27.2417H68.2917V26.7583H70.7083V27.2417ZM65.875 27.2417H63.4583V26.7583H65.875V27.2417ZM61.0417 27.2417H58.625V26.7583H61.0417V27.2417ZM56.2083 27.2417H55V26.7583H56.2083V27.2417ZM54.6582 27.3418C54.4695 27.153 54.4695 26.847 54.6582 26.6582L57.7341 23.5823C57.9229 23.3936 58.2289 23.3936 58.4177 23.5823C58.6064 23.7711 58.6064 24.0771 58.4177 24.2659L55.6835 27L58.4177 29.7341C58.6064 29.9229 58.6064 30.2289 58.4177 30.4177C58.2289 30.6064 57.9229 30.6064 57.7341 30.4177L54.6582 27.3418ZM84 27.4833H82.7917V26.5167H84V27.4833ZM80.375 27.4833H77.9583V26.5167H80.375V27.4833ZM75.5417 27.4833H73.125V26.5167H75.5417V27.4833ZM70.7083 27.4833H68.2917V26.5167H70.7083V27.4833ZM65.875 27.4833H63.4583V26.5167H65.875V27.4833ZM61.0417 27.4833H58.625V26.5167H61.0417V27.4833ZM56.2083 27.4833H55V26.5167H56.2083V27.4833Z" fill="#404040"/>
<path d="M113.171 27.1709C113.265 27.0765 113.265 26.9235 113.171 26.8291L111.633 25.2912C111.539 25.1968 111.386 25.1968 111.291 25.2912C111.197 25.3855 111.197 25.5386 111.291 25.6329L112.658 27L111.291 28.3671C111.197 28.4615 111.197 28.6145 111.291 28.7088C111.386 28.8032 111.539 28.8032 111.633 28.7088L113.171 27.1709ZM84 27.2417L85.2083 27.2417L85.2083 26.7583L84 26.7583L84 27.2417ZM87.625 27.2417L90.0417 27.2417L90.0417 26.7583L87.625 26.7583L87.625 27.2417ZM92.4583 27.2417L94.875 27.2417L94.875 26.7583L92.4583 26.7583L92.4583 27.2417ZM97.2917 27.2417L99.7083 27.2417L99.7083 26.7583L97.2917 26.7583L97.2917 27.2417ZM102.125 27.2417L104.542 27.2417L104.542 26.7583L102.125 26.7583L102.125 27.2417ZM106.958 27.2417L109.375 27.2417L109.375 26.7583L106.958 26.7583L106.958 27.2417ZM111.792 27.2417L113 27.2417L113 26.7583L111.792 26.7583L111.792 27.2417ZM113.342 27.3418C113.531 27.153 113.531 26.847 113.342 26.6582L110.266 23.5823C110.077 23.3936 109.771 23.3936 109.582 23.5823C109.394 23.7711 109.394 24.0771 109.582 24.2659L112.316 27L109.582 29.7341C109.394 29.9229 109.394 30.2289 109.582 30.4177C109.771 30.6064 110.077 30.6064 110.266 30.4177L113.342 27.3418ZM84 27.4833L85.2083 27.4833L85.2083 26.5167L84 26.5167L84 27.4833ZM87.625 27.4833L90.0417 27.4833L90.0417 26.5167L87.625 26.5167L87.625 27.4833ZM92.4583 27.4833L94.875 27.4833L94.875 26.5167L92.4583 26.5167L92.4583 27.4833ZM97.2917 27.4833L99.7083 27.4833L99.7083 26.5167L97.2917 26.5167L97.2917 27.4833ZM102.125 27.4833L104.542 27.4833L104.542 26.5167L102.125 26.5167L102.125 27.4833ZM106.958 27.4833L109.375 27.4833L109.375 26.5167L106.958 26.5167L106.958 27.4833ZM111.792 27.4833L113 27.4833L113 26.5167L111.792 26.5167L111.792 27.4833Z" fill="#404040"/>
<path d="M54.8291 27.1709C54.7347 27.0765 54.7347 26.9235 54.8291 26.8291L56.3671 25.2912C56.4614 25.1968 56.6145 25.1968 56.7088 25.2912C56.8032 25.3855 56.8032 25.5386 56.7088 25.6329L55.3418 27L56.7088 28.3671C56.8032 28.4614 56.8032 28.6145 56.7088 28.7088C56.6145 28.8032 56.4614 28.8032 56.3671 28.7088L54.8291 27.1709ZM84 27.2417H82.7917V26.7583H84V27.2417ZM80.375 27.2417H77.9583V26.7583H80.375V27.2417ZM75.5417 27.2417H73.125V26.7583H75.5417V27.2417ZM70.7083 27.2417H68.2917V26.7583H70.7083V27.2417ZM65.875 27.2417H63.4583V26.7583H65.875V27.2417ZM61.0417 27.2417H58.625V26.7583H61.0417V27.2417ZM56.2083 27.2417H55V26.7583H56.2083V27.2417ZM54.6582 27.3418C54.4695 27.153 54.4695 26.847 54.6582 26.6582L57.7341 23.5823C57.9229 23.3936 58.2289 23.3936 58.4177 23.5823C58.6064 23.7711 58.6064 24.0771 58.4177 24.2659L55.6835 27L58.4177 29.7341C58.6064 29.9229 58.6064 30.2289 58.4177 30.4177C58.2289 30.6064 57.9229 30.6064 57.7341 30.4177L54.6582 27.3418ZM84 27.4833H82.7917V26.5167H84V27.4833ZM80.375 27.4833H77.9583V26.5167H80.375V27.4833ZM75.5417 27.4833H73.125V26.5167H75.5417V27.4833ZM70.7083 27.4833H68.2917V26.5167H70.7083V27.4833ZM65.875 27.4833H63.4583V26.5167H65.875V27.4833ZM61.0417 27.4833H58.625V26.5167H61.0417V27.4833ZM56.2083 27.4833H55V26.5167H56.2083V27.4833Z" fill="#404040"/>
<path d="M233.171 27.1709C233.265 27.0765 233.265 26.9235 233.171 26.8291L231.633 25.2912C231.539 25.1968 231.386 25.1968 231.291 25.2912C231.197 25.3855 231.197 25.5386 231.291 25.6329L232.658 27L231.291 28.3671C231.197 28.4615 231.197 28.6145 231.291 28.7088C231.386 28.8032 231.539 28.8032 231.633 28.7088L233.171 27.1709ZM204 27.2417L205.208 27.2417L205.208 26.7583L204 26.7583L204 27.2417ZM207.625 27.2417L210.042 27.2417L210.042 26.7583L207.625 26.7583L207.625 27.2417ZM212.458 27.2417L214.875 27.2417L214.875 26.7583L212.458 26.7583L212.458 27.2417ZM217.292 27.2417L219.708 27.2417L219.708 26.7583L217.292 26.7583L217.292 27.2417ZM222.125 27.2417L224.542 27.2417L224.542 26.7583L222.125 26.7583L222.125 27.2417ZM226.958 27.2417L229.375 27.2417L229.375 26.7583L226.958 26.7583L226.958 27.2417ZM231.792 27.2417L233 27.2417L233 26.7583L231.792 26.7583L231.792 27.2417ZM233.342 27.3418C233.531 27.153 233.531 26.847 233.342 26.6582L230.266 23.5823C230.077 23.3936 229.771 23.3936 229.582 23.5823C229.394 23.7711 229.394 24.0771 229.582 24.2659L232.316 27L229.582 29.7341C229.394 29.9229 229.394 30.2289 229.582 30.4177C229.771 30.6064 230.077 30.6064 230.266 30.4177L233.342 27.3418ZM204 27.4833L205.208 27.4833L205.208 26.5167L204 26.5167L204 27.4833ZM207.625 27.4833L210.042 27.4833L210.042 26.5167L207.625 26.5167L207.625 27.4833ZM212.458 27.4833L214.875 27.4833L214.875 26.5167L212.458 26.5167L212.458 27.4833ZM217.292 27.4833L219.708 27.4833L219.708 26.5167L217.292 26.5167L217.292 27.4833ZM222.125 27.4833L224.542 27.4833L224.542 26.5167L222.125 26.5167L222.125 27.4833ZM226.958 27.4833L229.375 27.4833L229.375 26.5167L226.958 26.5167L226.958 27.4833ZM231.792 27.4833L233 27.4833L233 26.5167L231.792 26.5167L231.792 27.4833Z" fill="#404040"/>
<path d="M174.829 27.1709C174.735 27.0765 174.735 26.9235 174.829 26.8291L176.367 25.2912C176.461 25.1968 176.614 25.1968 176.709 25.2912C176.803 25.3855 176.803 25.5386 176.709 25.6329L175.342 27L176.709 28.3671C176.803 28.4614 176.803 28.6145 176.709 28.7088C176.614 28.8032 176.461 28.8032 176.367 28.7088L174.829 27.1709ZM204 27.2417H202.792V26.7583H204V27.2417ZM200.375 27.2417H197.958V26.7583H200.375V27.2417ZM195.542 27.2417H193.125V26.7583H195.542V27.2417ZM190.708 27.2417H188.292V26.7583H190.708V27.2417ZM185.875 27.2417H183.458V26.7583H185.875V27.2417ZM181.042 27.2417H178.625V26.7583H181.042V27.2417ZM176.208 27.2417H175V26.7583H176.208V27.2417ZM174.658 27.3418C174.469 27.153 174.469 26.847 174.658 26.6582L177.734 23.5823C177.923 23.3936 178.229 23.3936 178.418 23.5823C178.606 23.7711 178.606 24.0771 178.418 24.2659L175.684 27L178.418 29.7341C178.606 29.9229 178.606 30.2289 178.418 30.4177C178.229 30.6064 177.923 30.6064 177.734 30.4177L174.658 27.3418ZM204 27.4833H202.792V26.5167H204V27.4833ZM200.375 27.4833H197.958V26.5167H200.375V27.4833ZM195.542 27.4833H193.125V26.5167H195.542V27.4833ZM190.708 27.4833H188.292V26.5167H190.708V27.4833ZM185.875 27.4833H183.458V26.5167H185.875V27.4833ZM181.042 27.4833H178.625V26.5167H181.042V27.4833ZM176.208 27.4833H175V26.5167H176.208V27.4833Z" fill="#404040"/>
<path d="M145.169 55.8252C145.075 55.7308 144.922 55.7308 144.827 55.8252L143.289 57.3632C143.195 57.4575 143.195 57.6106 143.289 57.7049C143.384 57.7993 143.537 57.7993 143.631 57.7049L144.998 56.3379L146.365 57.7049C146.459 57.7993 146.613 57.7993 146.707 57.7049C146.801 57.6106 146.801 57.4575 146.707 57.3632L145.169 55.8252ZM145.24 84.9961L145.24 83.7878L144.756 83.7878L144.756 84.9961L145.24 84.9961ZM145.24 81.3711L145.24 78.9544L144.756 78.9544L144.756 81.3711L145.24 81.3711ZM145.24 76.5378L145.24 74.1211L144.756 74.1211L144.756 76.5378L145.24 76.5378ZM145.24 71.7044L145.24 69.2878L144.756 69.2878L144.756 71.7044L145.24 71.7044ZM145.24 66.8711L145.24 64.4544L144.756 64.4544L144.756 66.8711L145.24 66.8711ZM145.24 62.0378L145.24 59.6211L144.756 59.6211L144.756 62.0378L145.24 62.0378ZM145.24 57.2044L145.24 55.9961L144.756 55.9961L144.756 57.2044L145.24 57.2044ZM145.34 55.6543C145.151 55.4656 144.845 55.4656 144.656 55.6543L141.58 58.7302C141.392 58.919 141.392 59.225 141.58 59.4138C141.769 59.6025 142.075 59.6025 142.264 59.4138L144.998 56.6796L147.732 59.4138C147.921 59.6025 148.227 59.6025 148.416 59.4138C148.604 59.225 148.604 58.919 148.416 58.7302L145.34 55.6543ZM145.481 84.9961L145.481 83.7878L144.515 83.7878L144.515 84.9961L145.481 84.9961ZM145.481 81.3711L145.481 78.9544L144.515 78.9544L144.515 81.3711L145.481 81.3711ZM145.481 76.5378L145.481 74.1211L144.515 74.1211L144.515 76.5378L145.481 76.5378ZM145.481 71.7044L145.481 69.2878L144.515 69.2878L144.515 71.7044L145.481 71.7044ZM145.481 66.8711L145.481 64.4544L144.515 64.4544L144.515 66.8711L145.481 66.8711ZM145.481 62.0378L145.481 59.6211L144.515 59.6211L144.515 62.0378L145.481 62.0378ZM145.481 57.2044L145.481 55.9961L144.515 55.9961L144.515 57.2044L145.481 57.2044Z" fill="#404040"/>
<path d="M145.169 114.167C145.075 114.261 144.922 114.261 144.827 114.167L143.289 112.629C143.195 112.535 143.195 112.382 143.289 112.287C143.384 112.193 143.537 112.193 143.631 112.287L144.998 113.654L146.365 112.287C146.459 112.193 146.613 112.193 146.707 112.287C146.801 112.382 146.801 112.535 146.707 112.629L145.169 114.167ZM145.24 84.9961L145.24 86.2044L144.756 86.2044L144.756 84.9961L145.24 84.9961ZM145.24 88.6211L145.24 91.0378L144.756 91.0378L144.756 88.6211L145.24 88.6211ZM145.24 93.4544L145.24 95.8711L144.756 95.8711L144.756 93.4544L145.24 93.4544ZM145.24 98.2878L145.24 100.704L144.756 100.704L144.756 98.2878L145.24 98.2878ZM145.24 103.121L145.24 105.538L144.756 105.538L144.756 103.121L145.24 103.121ZM145.24 107.954L145.24 110.371L144.756 110.371L144.756 107.954L145.24 107.954ZM145.24 112.788L145.24 113.996L144.756 113.996L144.756 112.788L145.24 112.788ZM145.34 114.338C145.151 114.527 144.845 114.527 144.656 114.338L141.58 111.262C141.392 111.073 141.392 110.767 141.58 110.578C141.769 110.39 142.075 110.39 142.264 110.578L144.998 113.313L147.732 110.578C147.921 110.39 148.227 110.39 148.416 110.578C148.604 110.767 148.604 111.073 148.416 111.262L145.34 114.338ZM145.481 84.9961L145.481 86.2044L144.515 86.2044L144.515 84.9961L145.481 84.9961ZM145.481 88.6211L145.481 91.0378L144.515 91.0378L144.515 88.6211L145.481 88.6211ZM145.481 93.4544L145.481 95.8711L144.515 95.8711L144.515 93.4544L145.481 93.4544ZM145.481 98.2878L145.481 100.704L144.515 100.704L144.515 98.2878L145.481 98.2878ZM145.481 103.121L145.481 105.538L144.515 105.538L144.515 103.121L145.481 103.121ZM145.481 107.954L145.481 110.371L144.515 110.371L144.515 107.954L145.481 107.954ZM145.481 112.788L145.481 113.996L144.515 113.996L144.515 112.788L145.481 112.788Z" fill="#404040"/>
<path d="M264.171 55.8291C264.077 55.7347 263.923 55.7347 263.829 55.8291L262.291 57.3671C262.197 57.4615 262.197 57.6145 262.291 57.7088C262.386 57.8032 262.539 57.8032 262.633 57.7088L264 56.3418L265.367 57.7088C265.461 57.8032 265.614 57.8032 265.709 57.7088C265.803 57.6145 265.803 57.4615 265.709 57.3671L264.171 55.8291ZM264.242 85L264.242 83.7917L263.758 83.7917L263.758 85L264.242 85ZM264.242 81.375L264.242 78.9583L263.758 78.9583L263.758 81.375L264.242 81.375ZM264.242 76.5417L264.242 74.125L263.758 74.125L263.758 76.5417L264.242 76.5417ZM264.242 71.7083L264.242 69.2917L263.758 69.2917L263.758 71.7083L264.242 71.7083ZM264.242 66.875L264.242 64.4583L263.758 64.4583L263.758 66.875L264.242 66.875ZM264.242 62.0417L264.242 59.625L263.758 59.625L263.758 62.0417L264.242 62.0417ZM264.242 57.2083L264.242 56L263.758 56L263.758 57.2083L264.242 57.2083ZM264.342 55.6582C264.153 55.4695 263.847 55.4695 263.658 55.6582L260.582 58.7341C260.394 58.9229 260.394 59.2289 260.582 59.4177C260.771 59.6064 261.077 59.6064 261.266 59.4177L264 56.6835L266.734 59.4177C266.923 59.6064 267.229 59.6064 267.418 59.4177C267.606 59.2289 267.606 58.9229 267.418 58.7341L264.342 55.6582ZM264.483 85L264.483 83.7917L263.517 83.7917L263.517 85L264.483 85ZM264.483 81.375L264.483 78.9583L263.517 78.9583L263.517 81.375L264.483 81.375ZM264.483 76.5417L264.483 74.125L263.517 74.125L263.517 76.5417L264.483 76.5417ZM264.483 71.7083L264.483 69.2917L263.517 69.2917L263.517 71.7083L264.483 71.7083ZM264.483 66.875L264.483 64.4583L263.517 64.4583L263.517 66.875L264.483 66.875ZM264.483 62.0417L264.483 59.625L263.517 59.625L263.517 62.0417L264.483 62.0417ZM264.483 57.2083L264.483 56L263.517 56L263.517 57.2083L264.483 57.2083Z" fill="#404040"/>
<path d="M264.171 114.171C264.077 114.265 263.923 114.265 263.829 114.171L262.291 112.633C262.197 112.539 262.197 112.386 262.291 112.291C262.386 112.197 262.539 112.197 262.633 112.291L264 113.658L265.367 112.291C265.461 112.197 265.614 112.197 265.709 112.291C265.803 112.386 265.803 112.539 265.709 112.633L264.171 114.171ZM264.242 85L264.242 86.2083L263.758 86.2083L263.758 85L264.242 85ZM264.242 88.625L264.242 91.0417L263.758 91.0417L263.758 88.625L264.242 88.625ZM264.242 93.4583L264.242 95.875L263.758 95.875L263.758 93.4583L264.242 93.4583ZM264.242 98.2917L264.242 100.708L263.758 100.708L263.758 98.2917L264.242 98.2917ZM264.242 103.125L264.242 105.542L263.758 105.542L263.758 103.125L264.242 103.125ZM264.242 107.958L264.242 110.375L263.758 110.375L263.758 107.958L264.242 107.958ZM264.242 112.792L264.242 114L263.758 114L263.758 112.792L264.242 112.792ZM264.342 114.342C264.153 114.531 263.847 114.531 263.658 114.342L260.582 111.266C260.394 111.077 260.394 110.771 260.582 110.582C260.771 110.394 261.077 110.394 261.266 110.582L264 113.316L266.734 110.582C266.923 110.394 267.229 110.394 267.418 110.582C267.606 110.771 267.606 111.077 267.418 111.266L264.342 114.342ZM264.483 85L264.483 86.2083L263.517 86.2083L263.517 85L264.483 85ZM264.483 88.625L264.483 91.0417L263.517 91.0417L263.517 88.625L264.483 88.625ZM264.483 93.4583L264.483 95.875L263.517 95.875L263.517 93.4583L264.483 93.4583ZM264.483 98.2917L264.483 100.708L263.517 100.708L263.517 98.2917L264.483 98.2917ZM264.483 103.125L264.483 105.542L263.517 105.542L263.517 103.125L264.483 103.125ZM264.483 107.958L264.483 110.375L263.517 110.375L263.517 107.958L264.483 107.958ZM264.483 112.792L264.483 114L263.517 114L263.517 112.792L264.483 112.792Z" fill="#404040"/>
<defs>
<clipPath id="clip0">
<rect width="18.6942" height="18.6942" fill="white" transform="translate(134.693 130.381)"/>
</clipPath>
<clipPath id="clip1">
<rect width="18.6942" height="18.6942" fill="white" transform="translate(254.529 130.381)"/>
</clipPath>
</defs>
</svg>
