<svg width="290" height="131" viewBox="0 0 290 131" fill="none" xmlns="http://www.w3.org/2000/svg">
<path d="M46.7922 66.3744C45.6065 57.1275 47.5455 47.7497 52.3009 39.7312C57.0564 31.7127 64.3554 25.5137 73.038 22.1193C81.7207 18.7249 91.2887 18.3299 100.222 20.9971C109.154 23.6643 116.94 29.2406 122.34 36.8398" stroke="#7BBEFD" stroke-width="1.32723" stroke-dasharray="3.32 3.32"/>
<path d="M129.729 65.0268C130.915 74.2736 128.976 83.6516 124.221 91.6702C119.466 99.6888 112.167 105.888 103.485 109.283C94.802 112.677 85.2339 113.072 76.301 110.406C67.368 107.739 59.5827 102.163 54.1823 94.5635" stroke="#F3B36A" stroke-width="1.32723" stroke-dasharray="3.32 3.32"/>
<path d="M68.7892 9.00343H67.3027V2.5H68.7892V5.08279H69.644L71.3349 2.5H73.1001L70.9261 5.54732L73.5367 9.00343H71.66L69.7276 6.35561H68.7892V9.00343Z" fill="#7BBEFD"/>
<path d="M76.2518 4.24664C76.611 4.24664 76.9393 4.29928 77.2366 4.40458C77.5401 4.50368 77.8002 4.65542 78.017 4.85982C78.24 5.06421 78.4134 5.31815 78.5373 5.62165C78.6611 5.92514 78.7231 6.28128 78.7231 6.69007C78.7231 7.09266 78.6642 7.44571 78.5466 7.7492C78.4289 8.0465 78.2586 8.29735 78.0356 8.50174C77.8188 8.70613 77.5525 8.86098 77.2366 8.96627C76.9207 9.06537 76.5646 9.11492 76.1682 9.11492C75.8089 9.11492 75.4776 9.06537 75.1741 8.96627C74.8768 8.86098 74.6166 8.70613 74.3937 8.50174C74.1769 8.29735 74.0065 8.0434 73.8827 7.73991C73.7588 7.43642 73.6969 7.08028 73.6969 6.67149C73.6969 5.87249 73.9229 5.2717 74.3751 4.86911C74.8334 4.46032 75.459 4.25283 76.2518 4.24664ZM75.1369 6.69007C75.1369 7.11744 75.236 7.42403 75.4342 7.60984C75.6324 7.79565 75.8925 7.88856 76.2146 7.88856C76.5553 7.88856 76.8185 7.79565 77.0043 7.60984C77.1901 7.42403 77.283 7.12053 77.283 6.69936V6.67149C77.283 6.25031 77.1808 5.94682 76.9764 5.76101C76.7782 5.569 76.5212 5.473 76.2053 5.473C75.8647 5.473 75.6014 5.5659 75.4156 5.75172C75.2298 5.93753 75.1369 6.24102 75.1369 6.6622V6.69007Z" fill="#7BBEFD"/>
<path d="M82.7414 7.2568H80.9948V9.00343H79.6012V4.35812H80.9948V6.03044H82.7414V4.35812H84.135V9.00343H82.7414V7.2568Z" fill="#7BBEFD"/>
<path d="M86.3672 5.58449H84.955V4.35812H89.238V5.58449H87.7607V9.00343H86.3672V5.58449Z" fill="#7BBEFD"/>
<path d="M90.0531 4.35812H91.3631V5.29648C91.4003 5.1726 91.456 5.05182 91.5303 4.93414C91.6109 4.81027 91.7131 4.69878 91.8369 4.59968C91.9608 4.50058 92.1095 4.42316 92.2829 4.36741C92.4625 4.30548 92.67 4.27451 92.9054 4.27451C93.1841 4.27451 93.4442 4.31786 93.6858 4.40458C93.9335 4.49129 94.1472 4.62755 94.3268 4.81336C94.5064 4.99918 94.6458 5.23764 94.7449 5.52874C94.8502 5.81985 94.9028 6.16979 94.9028 6.57858C94.9028 7.03692 94.8502 7.42712 94.7449 7.7492C94.6458 8.06508 94.5033 8.32522 94.3175 8.52961C94.1317 8.72781 93.9087 8.87336 93.6486 8.96627C93.3947 9.05918 93.1159 9.10563 92.8125 9.10563C92.4594 9.10563 92.1714 9.0344 91.9484 8.89195C91.7254 8.7433 91.5582 8.56058 91.4467 8.3438V10.9173H90.0531V4.35812ZM91.4467 6.79227C91.4467 7.1577 91.5334 7.43022 91.7069 7.60984C91.8803 7.78946 92.128 7.87927 92.4501 7.87927C92.8217 7.87927 93.0881 7.78636 93.2491 7.60055C93.4163 7.40854 93.5 7.08337 93.5 6.62503C93.5 6.21625 93.407 5.92824 93.2212 5.76101C93.0416 5.58758 92.8001 5.50087 92.4966 5.50087C92.1249 5.50087 91.8586 5.58758 91.6976 5.76101C91.5427 5.93443 91.4591 6.17909 91.4467 6.49497V6.79227Z" fill="#7BBEFD"/>
<path d="M95.9175 4.66471C96.0723 4.54703 96.2891 4.45103 96.5678 4.37671C96.8527 4.30238 97.2151 4.26522 97.6548 4.26522C98.4228 4.26522 98.971 4.40148 99.2993 4.674C99.6337 4.94034 99.801 5.36151 99.801 5.93753V9.00343H98.4817V8.16728C98.3702 8.4398 98.1875 8.65968 97.9335 8.82691C97.6796 8.99414 97.3699 9.07776 97.0045 9.07776C96.5214 9.07776 96.1559 8.94769 95.9082 8.68755C95.6604 8.42122 95.5366 8.07127 95.5366 7.63771C95.5366 7.35899 95.583 7.12982 95.6759 6.95021C95.775 6.77059 95.9082 6.62813 96.0754 6.52284C96.2426 6.41754 96.4408 6.34322 96.67 6.29986C96.8992 6.25651 97.1438 6.23483 97.404 6.23483H98.4074V6.19767C98.4074 5.93753 98.3547 5.75481 98.2494 5.64952C98.1441 5.53803 97.9459 5.48229 97.6548 5.48229C97.4071 5.48229 97.1903 5.50397 97.0045 5.54732C96.8249 5.58449 96.6669 5.64023 96.5307 5.71455C96.4006 5.78269 96.286 5.8663 96.1869 5.9654C96.0878 6.05831 95.998 6.1636 95.9175 6.28128V4.66471ZM97.4876 7.8514C97.7539 7.8514 97.9676 7.80185 98.1286 7.70275C98.2897 7.60365 98.3826 7.47358 98.4074 7.31254V7.04311H97.6362C97.4133 7.04311 97.2398 7.07408 97.116 7.13602C96.9983 7.19796 96.9394 7.30325 96.9394 7.4519C96.9394 7.71823 97.1222 7.8514 97.4876 7.8514Z" fill="#7BBEFD"/>
<path d="M100.913 4.35812H102.307V6.04902H102.967L104.109 4.35812H105.642L104.109 6.55071L105.875 9.00343H104.202L102.957 7.21034H102.307V9.00343H100.913V4.35812Z" fill="#7BBEFD"/>
<path d="M107.552 5.58449H106.14V4.35812H110.423V5.58449H108.946V9.00343H107.552V5.58449Z" fill="#7BBEFD"/>
<path d="M68.7892 125.809H69.7276L71.66 128.457H73.5367L70.9261 125L73.1001 121.953H71.3349L69.644 124.536H68.7892V121.953H67.3027V128.457H68.7892V125.809Z" fill="#F3B36A"/>
<path d="M76.2518 123.7C74.6631 123.709 73.6969 124.527 73.6969 126.125C73.6969 127.75 74.7374 128.568 76.1682 128.568C77.7476 128.559 78.7231 127.75 78.7231 126.143C78.7231 124.517 77.6825 123.7 76.2518 123.7ZM75.1369 126.115C75.1369 125.279 75.5271 124.926 76.2053 124.926C76.8371 124.935 77.283 125.288 77.283 126.125V126.152C77.283 126.989 76.8928 127.342 76.2146 127.342C75.5736 127.342 75.1369 126.989 75.1369 126.143V126.115Z" fill="#F3B36A"/>
<path d="M82.7414 128.457H84.135V123.811H82.7414V125.484H80.9948V123.811H79.6012V128.457H80.9948V126.71H82.7414V128.457Z" fill="#F3B36A"/>
<path d="M86.3672 128.457H87.7607V125.038H89.238V123.811H84.955V125.038H86.3672V128.457Z" fill="#F3B36A"/>
<path d="M90.0531 130.37H91.4467V127.797C91.6697 128.224 92.1157 128.559 92.8125 128.559C94.0295 128.559 94.9028 127.862 94.9028 126.032C94.9028 124.406 94.0295 123.728 92.9054 123.728C91.9577 123.728 91.5118 124.257 91.3631 124.75V123.811H90.0531V130.37ZM91.4467 125.948C91.4746 125.326 91.7626 124.954 92.4966 124.954C93.1005 124.954 93.5 125.27 93.5 126.078C93.5 126.989 93.1841 127.332 92.4501 127.332C91.8091 127.332 91.4467 126.97 91.4467 126.245V125.948Z" fill="#F3B36A"/>
<path d="M95.9175 125.734C96.2334 125.27 96.67 124.935 97.6548 124.935C98.2308 124.935 98.4074 125.131 98.4074 125.651V125.688H97.404C96.3541 125.688 95.5366 125.985 95.5366 127.091C95.5366 127.955 96.0383 128.531 97.0045 128.531C97.7291 128.531 98.2587 128.159 98.4817 127.62V128.457H99.801V125.391C99.801 124.239 99.1878 123.718 97.6548 123.718C96.7815 123.718 96.2241 123.886 95.9175 124.118V125.734ZM97.4876 127.305C97.1345 127.305 96.9394 127.156 96.9394 126.905C96.9394 126.608 97.1903 126.496 97.6362 126.496H98.4074V126.766C98.3609 127.082 98.0172 127.305 97.4876 127.305Z" fill="#F3B36A"/>
<path d="M100.913 128.457H102.307V126.663H102.957L104.202 128.457H105.875L104.109 126.004L105.642 123.811H104.109L102.967 125.502H102.307V123.811H100.913V128.457Z" fill="#F3B36A"/>
<path d="M107.552 128.457H108.946V125.038H110.423V123.811H106.14V125.038H107.552V128.457Z" fill="#F3B36A"/>
<path d="M156.952 66.3744C155.767 57.1275 157.706 47.7497 162.461 39.7312C167.217 31.7127 174.516 25.5137 183.198 22.1193C191.881 18.7249 201.449 18.3299 210.382 20.9971C219.315 23.6643 227.1 29.2406 232.5 36.8398" stroke="#F3B36A" stroke-width="1.32723" stroke-dasharray="3.32 3.32"/>
<path d="M239.887 65.0268C241.073 74.2736 239.135 83.6516 234.379 91.6702C229.624 99.6888 222.325 105.888 213.643 109.283C204.96 112.677 195.392 113.072 186.459 110.406C177.526 107.739 169.741 102.163 164.341 94.5635" stroke="#5BD595" stroke-width="1.32723" stroke-dasharray="3.32 3.32"/>
<path d="M154.832 7.60984V10.2112H156.235V9.00343H160.156V10.2112H161.549V7.60984H160.88V2.5H156.105L156.086 3.84714C156.058 5.77959 155.835 6.76439 155.482 7.60984H154.832ZM157.498 3.89359H159.394V7.60984H156.95C157.303 6.62503 157.461 5.55661 157.498 3.89359Z" fill="#F3B36A"/>
<path d="M164.623 4.24664C163.034 4.25593 162.068 5.0735 162.068 6.67149C162.068 8.29735 163.108 9.11492 164.539 9.11492C166.119 9.10563 167.094 8.29735 167.094 6.69007C167.094 5.06421 166.054 4.24664 164.623 4.24664ZM163.508 6.6622C163.508 5.82604 163.898 5.473 164.576 5.473C165.208 5.48229 165.654 5.83533 165.654 6.67149V6.69936C165.654 7.53552 165.264 7.88856 164.586 7.88856C163.945 7.88856 163.508 7.53552 163.508 6.69007V6.6622Z" fill="#F3B36A"/>
<path d="M167.972 9.00343H169.366V5.58449H171.531V4.35812H167.972V9.00343Z" fill="#F3B36A"/>
<path d="M174.558 4.24664C172.969 4.25593 172.003 5.0735 172.003 6.67149C172.003 8.29735 173.043 9.11492 174.474 9.11492C176.053 9.10563 177.029 8.29735 177.029 6.69007C177.029 5.06421 175.988 4.24664 174.558 4.24664ZM173.443 6.6622C173.443 5.82604 173.833 5.473 174.511 5.473C175.143 5.48229 175.589 5.83533 175.589 6.67149V6.69936C175.589 7.53552 175.199 7.88856 174.52 7.88856C173.879 7.88856 173.443 7.53552 173.443 6.69007V6.6622Z" fill="#F3B36A"/>
<path d="M177.907 9.00343H180.481C181.66 9.00343 182.246 8.49245 182.246 7.62842C182.246 6.86659 181.809 6.56929 181.214 6.49497C181.716 6.37419 182.013 5.99327 182.013 5.46371C182.013 4.73904 181.549 4.35812 180.508 4.35812H177.907V9.00343ZM179.301 7.86069V7.08957H180.285C180.703 7.08957 180.852 7.21963 180.852 7.47048C180.852 7.73991 180.694 7.86069 180.304 7.86069H179.301ZM179.301 6.19767V5.51016L180.1 5.50087C180.443 5.50087 180.611 5.60307 180.611 5.82604C180.611 6.09547 180.434 6.19767 180.146 6.19767H179.301Z" fill="#F3B36A"/>
<path d="M185.345 4.24664C183.757 4.25593 182.79 5.0735 182.79 6.67149C182.79 8.29735 183.831 9.11492 185.262 9.11492C186.841 9.10563 187.817 8.29735 187.817 6.69007C187.817 5.06421 186.776 4.24664 185.345 4.24664ZM184.23 6.6622C184.23 5.82604 184.621 5.473 185.299 5.473C185.931 5.48229 186.377 5.83533 186.377 6.67149V6.69936C186.377 7.53552 185.986 7.88856 185.308 7.88856C184.667 7.88856 184.23 7.53552 184.23 6.69007V6.6622Z" fill="#F3B36A"/>
<path d="M188.695 10.9173H190.088V8.3438C190.311 8.77117 190.757 9.10563 191.454 9.10563C192.671 9.10563 193.544 8.40883 193.544 6.57858C193.544 4.95272 192.671 4.27451 191.547 4.27451C190.599 4.27451 190.153 4.80407 190.005 5.29648V4.35812H188.695V10.9173ZM190.088 6.49497C190.116 5.87249 190.404 5.50087 191.138 5.50087C191.742 5.50087 192.141 5.81675 192.141 6.62503C192.141 7.53552 191.826 7.87927 191.092 7.87927C190.451 7.87927 190.088 7.51693 190.088 6.79227V6.49497Z" fill="#F3B36A"/>
<path d="M194.42 9.00343H196.343C197.783 9.00343 198.47 8.39954 198.47 7.2568C198.461 6.04902 197.718 5.61236 196.464 5.61236H195.813V4.35812H194.42V9.00343ZM198.888 9.00343H200.291V4.35812H198.888V9.00343ZM196.296 7.77707H195.813V6.82943H196.38C196.872 6.82943 197.067 6.96879 197.077 7.26609C197.067 7.60055 196.872 7.77707 196.296 7.77707Z" fill="#F3B36A"/>
<path d="M206.94 9.00343H208.333V4.35812H203.865V9.00343H205.258V5.58449H206.94V9.00343Z" fill="#F3B36A"/>
<path d="M211.765 4.24664C210.177 4.25593 209.211 5.0735 209.211 6.67149C209.211 8.29735 210.251 9.11492 211.682 9.11492C213.261 9.10563 214.237 8.29735 214.237 6.69007C214.237 5.06421 213.196 4.24664 211.765 4.24664ZM210.651 6.6622C210.651 5.82604 211.041 5.473 211.719 5.473C212.351 5.48229 212.797 5.83533 212.797 6.67149V6.69936C212.797 7.53552 212.407 7.88856 211.728 7.88856C211.087 7.88856 210.651 7.53552 210.651 6.69007V6.6622Z" fill="#F3B36A"/>
<path d="M214.578 7.77707V10.2112H215.814V9.00343H218.713V10.2112H219.939V7.77707H219.27V4.35812H215.405V4.88769C215.405 6.25341 215.275 7.12673 215.071 7.77707H214.578ZM216.706 5.58449H217.876V7.77707H216.399C216.594 7.1546 216.678 6.4578 216.706 5.58449Z" fill="#F3B36A"/>
<path d="M220.767 10.9173H222.161V8.3438C222.384 8.77117 222.83 9.10563 223.527 9.10563C224.744 9.10563 225.617 8.40883 225.617 6.57858C225.617 4.95272 224.744 4.27451 223.619 4.27451C222.672 4.27451 222.226 4.80407 222.077 5.29648V4.35812H220.767V10.9173ZM222.161 6.49497C222.189 5.87249 222.477 5.50087 223.211 5.50087C223.815 5.50087 224.214 5.81675 224.214 6.62503C224.214 7.53552 223.898 7.87927 223.164 7.87927C222.523 7.87927 222.161 7.51693 222.161 6.79227V6.49497Z" fill="#F3B36A"/>
<path d="M229.279 9.00343H230.682V4.35812H228.453C227.031 4.35812 226.344 4.95272 226.334 6.08618C226.334 6.63433 226.567 7.11744 227.059 7.38687L226.223 9.00343H227.719L228.369 7.61913H229.279V9.00343ZM227.728 6.10476C227.728 5.7703 227.923 5.58449 228.508 5.58449H229.279V6.55071H228.378C227.96 6.55071 227.746 6.41135 227.728 6.10476Z" fill="#F3B36A"/>
<path d="M231.399 7.77707V10.2112H232.635V9.00343H235.534V10.2112H236.76V7.77707H236.091V4.35812H232.226V4.88769C232.226 6.25341 232.096 7.12673 231.892 7.77707H231.399ZM233.527 5.58449H234.697V7.77707H233.22C233.415 7.1546 233.499 6.4578 233.527 5.58449Z" fill="#F3B36A"/>
<path d="M237.682 6.28128C237.998 5.81675 238.435 5.48229 239.42 5.48229C239.996 5.48229 240.172 5.67739 240.172 6.19767V6.23483H239.169C238.119 6.23483 237.301 6.53213 237.301 7.63771C237.301 8.50174 237.803 9.07776 238.769 9.07776C239.494 9.07776 240.024 8.70613 240.247 8.16728V9.00343H241.566V5.93753C241.566 4.78549 240.953 4.26522 239.42 4.26522C238.546 4.26522 237.989 4.43245 237.682 4.66471V6.28128ZM239.252 7.8514C238.899 7.8514 238.704 7.70275 238.704 7.4519C238.704 7.1546 238.955 7.04311 239.401 7.04311H240.172V7.31254C240.126 7.62842 239.782 7.8514 239.252 7.8514Z" fill="#F3B36A"/>
<path d="M154.832 127.059V129.66H156.235V128.453H160.156V129.66H161.549V127.059H160.88V121.949H156.105L156.086 123.296C156.058 125.229 155.835 126.214 155.482 127.059H154.832ZM157.498 123.343H159.394V127.059H156.95C157.303 126.074 157.461 125.006 157.498 123.343Z" fill="#5BD595"/>
<path d="M164.623 123.696C163.034 123.705 162.068 124.523 162.068 126.121C162.068 127.747 163.108 128.564 164.539 128.564C166.119 128.555 167.094 127.747 167.094 126.139C167.094 124.513 166.054 123.696 164.623 123.696ZM163.508 126.111C163.508 125.275 163.898 124.922 164.576 124.922C165.208 124.932 165.654 125.285 165.654 126.121V126.149C165.654 126.985 165.264 127.338 164.586 127.338C163.945 127.338 163.508 126.985 163.508 126.139V126.111Z" fill="#5BD595"/>
<path d="M167.972 128.453H169.366V125.034H171.531V123.807H167.972V128.453Z" fill="#5BD595"/>
<path d="M174.558 123.696C172.969 123.705 172.003 124.523 172.003 126.121C172.003 127.747 173.043 128.564 174.474 128.564C176.053 128.555 177.029 127.747 177.029 126.139C177.029 124.513 175.988 123.696 174.558 123.696ZM173.443 126.111C173.443 125.275 173.833 124.922 174.511 124.922C175.143 124.932 175.589 125.285 175.589 126.121V126.149C175.589 126.985 175.199 127.338 174.52 127.338C173.879 127.338 173.443 126.985 173.443 126.139V126.111Z" fill="#5BD595"/>
<path d="M177.907 128.453H180.481C181.66 128.453 182.246 127.942 182.246 127.078C182.246 126.316 181.809 126.019 181.214 125.944C181.716 125.823 182.013 125.442 182.013 124.913C182.013 124.188 181.549 123.807 180.508 123.807H177.907V128.453ZM179.301 127.31V126.539H180.285C180.703 126.539 180.852 126.669 180.852 126.92C180.852 127.189 180.694 127.31 180.304 127.31H179.301ZM179.301 125.647V124.959L180.1 124.95C180.443 124.95 180.611 125.052 180.611 125.275C180.611 125.545 180.434 125.647 180.146 125.647H179.301Z" fill="#5BD595"/>
<path d="M185.345 123.696C183.757 123.705 182.79 124.523 182.79 126.121C182.79 127.747 183.831 128.564 185.262 128.564C186.841 128.555 187.817 127.747 187.817 126.139C187.817 124.513 186.776 123.696 185.345 123.696ZM184.23 126.111C184.23 125.275 184.621 124.922 185.299 124.922C185.931 124.932 186.377 125.285 186.377 126.121V126.149C186.377 126.985 185.986 127.338 185.308 127.338C184.667 127.338 184.23 126.985 184.23 126.139V126.111Z" fill="#5BD595"/>
<path d="M188.695 130.367H190.088V127.793C190.311 128.22 190.757 128.555 191.454 128.555C192.671 128.555 193.544 127.858 193.544 126.028C193.544 124.402 192.671 123.724 191.547 123.724C190.599 123.724 190.153 124.253 190.005 124.746V123.807H188.695V130.367ZM190.088 125.944C190.116 125.322 190.404 124.95 191.138 124.95C191.742 124.95 192.141 125.266 192.141 126.074C192.141 126.985 191.826 127.328 191.092 127.328C190.451 127.328 190.088 126.966 190.088 126.241V125.944Z" fill="#5BD595"/>
<path d="M194.42 128.453H196.343C197.783 128.453 198.47 127.849 198.47 126.706C198.461 125.498 197.718 125.062 196.464 125.062H195.813V123.807H194.42V128.453ZM198.888 128.453H200.291V123.807H198.888V128.453ZM196.296 127.226H195.813V126.279H196.38C196.872 126.279 197.067 126.418 197.077 126.715C197.067 127.05 196.872 127.226 196.296 127.226Z" fill="#5BD595"/>
<path d="M206.94 128.453H208.333V123.807H203.865V128.453H205.258V125.034H206.94V128.453Z" fill="#5BD595"/>
<path d="M211.765 123.696C210.177 123.705 209.211 124.523 209.211 126.121C209.211 127.747 210.251 128.564 211.682 128.564C213.261 128.555 214.237 127.747 214.237 126.139C214.237 124.513 213.196 123.696 211.765 123.696ZM210.651 126.111C210.651 125.275 211.041 124.922 211.719 124.922C212.351 124.932 212.797 125.285 212.797 126.121V126.149C212.797 126.985 212.407 127.338 211.728 127.338C211.087 127.338 210.651 126.985 210.651 126.139V126.111Z" fill="#5BD595"/>
<path d="M214.578 127.226V129.66H215.814V128.453H218.713V129.66H219.939V127.226H219.27V123.807H215.405V124.337C215.405 125.703 215.275 126.576 215.071 127.226H214.578ZM216.706 125.034H217.876V127.226H216.399C216.594 126.604 216.678 125.907 216.706 125.034Z" fill="#5BD595"/>
<path d="M220.767 130.367H222.161V127.793C222.384 128.22 222.83 128.555 223.527 128.555C224.744 128.555 225.617 127.858 225.617 126.028C225.617 124.402 224.744 123.724 223.619 123.724C222.672 123.724 222.226 124.253 222.077 124.746V123.807H220.767V130.367ZM222.161 125.944C222.189 125.322 222.477 124.95 223.211 124.95C223.815 124.95 224.214 125.266 224.214 126.074C224.214 126.985 223.898 127.328 223.164 127.328C222.523 127.328 222.161 126.966 222.161 126.241V125.944Z" fill="#5BD595"/>
<path d="M229.279 128.453H230.682V123.807H228.453C227.031 123.807 226.344 124.402 226.334 125.535C226.334 126.084 226.567 126.567 227.059 126.836L226.223 128.453H227.719L228.369 127.068H229.279V128.453ZM227.728 125.554C227.728 125.22 227.923 125.034 228.508 125.034H229.279V126H228.378C227.96 126 227.746 125.861 227.728 125.554Z" fill="#5BD595"/>
<path d="M231.399 127.226V129.66H232.635V128.453H235.534V129.66H236.76V127.226H236.091V123.807H232.226V124.337C232.226 125.703 232.096 126.576 231.892 127.226H231.399ZM233.527 125.034H234.697V127.226H233.22C233.415 126.604 233.499 125.907 233.527 125.034Z" fill="#5BD595"/>
<path d="M237.682 125.731C237.998 125.266 238.435 124.932 239.42 124.932C239.996 124.932 240.172 125.127 240.172 125.647V125.684H239.169C238.119 125.684 237.301 125.981 237.301 127.087C237.301 127.951 237.803 128.527 238.769 128.527C239.494 128.527 240.024 128.155 240.247 127.616V128.453H241.566V125.387C241.566 124.235 240.953 123.714 239.42 123.714C238.546 123.714 237.989 123.882 237.682 124.114V125.731ZM239.252 127.301C238.899 127.301 238.704 127.152 238.704 126.901C238.704 126.604 238.955 126.492 239.401 126.492H240.172V126.762C240.126 127.078 239.782 127.301 239.252 127.301Z" fill="#5BD595"/>
<circle cx="33.1808" cy="65.7003" r="33.1808" fill="#7BBEFD"/>
<path d="M45.0092 62.5505C44.7272 58.3087 38.9499 57.4175 38.9499 57.4175C37.4742 57.1631 36.8727 55.9408 36.6345 55.1494C37.7689 53.9235 38.5627 52.3392 39.0015 50.7954C39.1687 50.207 39.2587 49.5927 39.2587 48.9819C39.2587 48.6345 39.2227 48.2959 39.1615 47.9654C39.8979 46.7745 39.681 45.4464 39.5063 44.8083C39.4533 44.6145 39.2528 44.5188 39.0466 44.5188C39.0244 44.5188 39.0023 44.5199 38.9802 44.5221C38.9016 44.5299 38.8186 44.5336 38.7318 44.5336C37.4129 44.5336 35.2319 43.6882 35.2319 43.6882C34.5666 43.4119 33.7472 43.2495 33.0299 43.1694C32.4023 43.0993 31.7676 43.1374 31.165 43.3273C30.3276 43.5911 29.5565 44.1106 28.9319 44.7049C28.804 44.8265 28.6948 44.9532 28.5937 45.0954C27.2643 45.5247 27.0394 47.1767 27.1183 48.6232C27.1108 48.742 27.1041 48.8612 27.1041 48.9819C27.1041 51.1562 28.0615 53.6501 29.5534 55.2934C29.597 55.3415 29.6423 55.3875 29.6876 55.4336C29.397 56.2062 28.776 57.1922 27.4684 57.4175C27.4684 57.4175 21.6909 58.3087 21.4091 62.5505C21.4091 62.5505 21.061 64.7675 21.353 67.4115C21.4511 68.3 22.3079 69.0177 23.2389 69.0177H43.1794C44.1104 69.0177 44.9461 68.2975 45.0311 67.4079C45.2579 65.0385 45.0092 62.5505 45.0092 62.5505ZM36.7029 57.1956L37.0098 57.5228L37.0836 57.6014L37.1757 57.659L37.4453 57.8275L35.3762 60.682L34.5652 59.397L34.532 59.3444L34.491 59.2974C34.4267 59.2236 34.4218 59.0779 34.4744 58.99L36.7029 57.1956ZM33.7066 60.5253H32.6969L32.3935 60.008L32.5136 59.8176C32.5922 59.7274 32.6501 59.6238 32.6914 59.5144H33.6715C33.7128 59.6238 33.7706 59.7274 33.8492 59.8176L33.9857 60.034L33.7066 60.5253ZM34.4368 65.6495C34.449 65.6946 34.4125 65.8044 34.3649 65.8394L33.363 66.5751C33.334 66.5964 33.2501 66.5965 33.221 66.575L32.2193 65.8396C32.1659 65.8004 32.1236 65.6813 32.1361 65.6262L33.0574 61.3341H33.3251L34.4368 65.6495ZM33.8691 58.424C33.7923 58.5074 33.7349 58.6038 33.6911 58.7056H32.6717C32.6279 58.6038 32.5705 58.5074 32.4938 58.424L30.0996 56.4963C30.1992 56.3306 30.284 56.1642 30.3566 56.0017C31.1697 56.5745 32.1353 56.8857 33.0995 56.8857C34.0339 56.8857 34.9661 56.5945 35.7553 55.9684C35.8288 55.9101 35.9 55.8489 35.9713 55.7877C36.057 56.0059 36.1657 56.2364 36.3011 56.4658L33.8691 58.424ZM28.8597 45.8623C29.0327 45.8065 29.1821 45.6977 29.2853 45.5524C29.2967 45.5363 30.4516 43.9451 32.6654 43.9449H32.6657C33.3718 43.9449 34.1237 44.1085 34.9006 44.4312C34.9068 44.4338 34.9131 44.4363 34.9194 44.4388C35.158 44.5312 37.2924 45.3423 38.7318 45.3423C38.7454 45.3423 38.7588 45.3423 38.7723 45.3421C38.9802 46.4196 38.8591 48.0467 36.6531 48.899C36.643 48.9029 35.6218 49.2827 34.3667 49.2827C33.1222 49.2827 32.0963 48.9173 31.3174 48.1966C31.1587 48.0497 30.9498 47.9716 30.7371 47.9716C30.6429 47.9716 30.5481 47.9869 30.4564 48.0183C30.1575 48.1208 29.9442 48.3772 29.9053 48.6809L29.8516 49.0999L29.5861 48.9197C29.441 48.821 29.2722 48.7722 29.1037 48.7722C28.916 48.7722 28.7287 48.8328 28.5753 48.9529C28.4117 49.0811 28.2206 49.2741 28.0454 49.5219C27.8343 48.0278 27.8642 46.1839 28.8597 45.8623ZM28.3818 51.554C28.1516 50.3301 29.1035 49.5809 29.1035 49.5809L30.2316 50.3473C30.2945 50.396 30.3532 50.4193 30.403 50.4193C30.4946 50.4193 30.5554 50.3404 30.5554 50.1964L30.7372 48.7804C31.8468 49.807 33.2034 50.0915 34.3667 50.0915C35.8132 50.0915 36.9606 49.6514 36.9606 49.6514C37.5646 49.4181 38.0403 49.1345 38.4136 48.8217C38.4158 48.8751 38.4205 48.9282 38.4205 48.9819C38.4205 49.5123 38.3439 50.0505 38.1931 50.5814C37.6319 52.5558 36.5494 54.2916 35.223 55.3437C34.6182 55.8234 33.8839 56.0769 33.0995 56.0769C32.0061 56.0769 30.9435 55.5971 30.1839 54.7605C29.4028 53.9002 28.7724 52.7532 28.3818 51.554ZM29.1871 57.659L29.2792 57.6014L29.353 57.5228L29.6599 57.1956L31.8884 58.99C31.941 59.0779 31.9361 59.2236 31.8719 59.2974L31.8308 59.3444L31.7977 59.397L30.9867 60.682L28.9175 57.8275L29.1871 57.659ZM44.1963 67.3337C44.1519 67.7999 43.6766 68.2089 43.1794 68.2089H23.2389C22.7302 68.2089 22.2384 67.7963 22.1866 67.3258C21.9105 64.826 22.2347 62.6924 22.2379 62.6717L22.2434 62.6371L22.2456 62.6023C22.4808 59.0633 27.5509 58.2241 27.6007 58.2162L27.6083 58.2151L27.6158 58.2137C27.7838 58.1848 27.9404 58.1444 28.0909 58.0983L30.4479 61.35C30.5711 61.6065 30.7662 61.7385 30.9736 61.7385C31.1394 61.7385 31.3131 61.654 31.4638 61.4809L31.8943 60.7989L32.2032 61.3256L31.3161 65.4581C31.2338 65.8231 31.3999 66.2541 31.7114 66.4831L32.7133 67.2187C32.8783 67.3399 33.0851 67.4005 33.292 67.4005C33.4989 67.4005 33.7058 67.3398 33.8707 67.2187L34.8727 66.4829C35.1844 66.2538 35.3458 65.808 35.2492 65.4501L34.1889 61.3341H34.203L34.4888 60.831L34.899 61.4809C35.0498 61.654 35.2234 61.7385 35.3893 61.7385C35.5966 61.7385 35.7917 61.6065 35.9149 61.35L38.2816 58.0848C38.4455 58.1373 38.6177 58.1819 38.8025 58.2137L38.81 58.215L38.8176 58.2162C38.8688 58.2241 43.9362 59.0465 44.1727 62.6023L44.1735 62.6153L44.1748 62.6281C44.1772 62.6523 44.4134 65.0663 44.1963 67.3337Z" fill="white"/>
<path d="M15.8795 76.559C16.206 76.0653 16.8829 75.5796 17.727 75.5955C18.3163 75.6114 18.7782 75.8185 18.7782 76.3361C18.7782 76.7502 18.5313 77.0926 17.8146 77.0926H16.9785V77.9128H17.8226C18.6906 77.9128 19.0569 78.1438 19.0569 78.6375C19.0569 79.2029 18.5154 79.4896 17.8385 79.4975C16.8112 79.5055 16.0866 79.0596 15.7441 78.4942V79.7205C16.0388 80.055 16.8112 80.4213 17.8226 80.4133C19.3197 80.4054 20.0922 79.6648 20.0922 78.7012C20.0922 77.9686 19.6781 77.5226 18.818 77.3952C19.463 77.1643 19.8055 76.7342 19.8055 76.0812C19.8055 75.1017 18.9773 74.6877 17.727 74.6797C16.8431 74.6797 16.1981 74.9425 15.8795 75.1734V76.559Z" fill="white"/>
<path d="M21.1703 77.7934C21.4411 77.3713 21.8631 77.0846 22.5958 77.0846C23.1293 77.0846 23.4001 77.2598 23.4001 77.8252V78.0004H22.5002C21.5207 78.0004 20.8597 78.2552 20.8597 79.1631C20.8597 79.9435 21.3375 80.3974 22.1419 80.3974C22.7789 80.3974 23.2647 80.0789 23.4558 79.617V80.3337H24.3318V77.7058C24.3318 76.6705 23.7584 76.2724 22.5958 76.2724C21.9109 76.2724 21.4331 76.4316 21.1703 76.6307V77.7934ZM22.4365 79.5612C22.0224 79.5612 21.7994 79.3701 21.7994 79.0675C21.7994 78.7092 22.0622 78.6056 22.6117 78.6056H23.4001V78.9321C23.3602 79.2029 23.0656 79.5612 22.4365 79.5612Z" fill="white"/>
<path d="M25.4064 80.3337H26.3381V78.6853H26.9752L28.2254 80.3337H29.3562L27.7397 78.2314L29.1333 76.352H28.098L26.9832 77.9049H26.3381V76.352H25.4064V80.3337Z" fill="white"/>
<path d="M30.098 77.7934C30.3688 77.3713 30.7908 77.0846 31.5235 77.0846C32.057 77.0846 32.3278 77.2598 32.3278 77.8252V78.0004H31.4279C30.4484 78.0004 29.7874 78.2552 29.7874 79.1631C29.7874 79.9435 30.2653 80.3974 31.0696 80.3974C31.7066 80.3974 32.1924 80.0789 32.3835 79.617V80.3337H33.2595V77.7058C33.2595 76.6705 32.6861 76.2724 31.5235 76.2724C30.8386 76.2724 30.3608 76.4316 30.098 76.6307V77.7934ZM31.3642 79.5612C30.9501 79.5612 30.7271 79.3701 30.7271 79.0675C30.7271 78.7092 30.9899 78.6056 31.5394 78.6056H32.3278V78.9321C32.288 79.2029 31.9933 79.5612 31.3642 79.5612Z" fill="white"/>
<path d="M34.135 79.9276C34.3341 80.1505 34.9393 80.4133 35.6401 80.4133C36.7152 80.4133 37.4398 79.9753 37.4398 79.1392C37.4398 78.6056 37.1452 78.3349 36.6116 78.2314C37.0098 78.0641 37.2726 77.8093 37.2726 77.3076C37.2726 76.6785 36.8028 76.2724 35.6958 76.2724H35.664C35.0508 76.2724 34.5093 76.4316 34.2067 76.6307V77.7934C34.5173 77.3713 34.9951 77.0846 35.664 77.0846C36.1498 77.0926 36.325 77.2519 36.325 77.5226C36.325 77.8571 36.0383 77.9925 35.6082 77.9925H35.0429V78.6693H35.7277C36.2692 78.6693 36.5002 78.7968 36.5002 79.1073C36.5002 79.4418 36.1657 79.6011 35.6401 79.6011C34.8915 79.6011 34.366 79.3223 34.135 78.972V79.9276Z" fill="white"/>
<path d="M40.7132 80.3337H41.6449V76.352H40.7132V78.1517C40.4743 78.2712 40.1716 78.3349 39.8531 78.3349C39.3594 78.3349 39.0886 78.1119 39.0886 77.6341V76.352H38.1569V77.7774C38.1569 78.7331 38.7303 79.1631 39.6859 79.1631C40.0522 79.1631 40.4344 79.0914 40.7132 78.9321V80.3337Z" fill="white"/>
<path d="M42.7798 80.2779H42.8993V80.3337H43.6638L43.7036 80.2779L45.575 77.6023V80.3337H46.4987V76.4157H46.3713V76.352H45.6148L43.7036 79.0516V76.352H42.7798V80.2779Z" fill="white"/>
<path d="M47.6323 80.3337H48.5641V78.6853H49.2011L50.4514 80.3337H51.5822L49.9656 78.2314L51.3592 76.352H50.324L49.2091 77.9049H48.5641V76.352H47.6323V80.3337Z" fill="white"/>
<circle cx="143.341" cy="65.7003" r="33.1808" fill="#F3B36A"/>
<path d="M144.203 61.3241C144.148 61.3546 142.875 62.0865 141.97 62.7944C141.752 62.9633 141.705 63.2886 141.862 63.5206C141.956 63.6606 142.104 63.736 142.253 63.736C142.351 63.736 142.451 63.7035 142.536 63.6364C143.386 62.9736 144.645 62.2514 144.656 62.2431C144.892 62.109 144.981 61.7937 144.856 61.5395C144.73 61.2833 144.435 61.1917 144.203 61.3241ZM137.602 49.4433C137.449 49.598 133.849 53.3135 134.67 61.507C134.699 61.7732 134.908 61.9706 135.152 61.9706C135.169 61.9706 135.186 61.9706 135.204 61.9683C135.469 61.9361 135.662 61.6796 135.633 61.3928C134.864 53.7543 138.229 50.2379 138.263 50.2034C138.458 50.0062 138.467 49.6767 138.284 49.4672C138.101 49.2562 137.799 49.2482 137.602 49.4433ZM157.2 55.4811C156.99 54.8529 156.418 54.5173 156.067 54.3647C153.374 43.6817 147.123 43.1367 145.89 43.1367L145.752 43.141C139.387 43.141 136.081 47.4888 135.979 47.6312C132.099 51.8084 131.895 59.0603 131.888 60.189C130.89 62.1416 129.755 63.6178 129.725 63.6606C129.413 64.1226 129.326 64.6347 129.475 65.1472C129.957 66.8106 132.923 67.9739 133.246 68.0961C134.729 68.7084 136.108 69.0177 137.345 69.0177C139.518 69.0177 140.538 68.0536 140.525 68.0536C144.67 65.3078 148.501 62.2574 148.482 62.2574C153.373 59.8618 156.403 58.0092 156.883 57.1287C157.357 56.4065 157.317 55.8349 157.2 55.4811ZM156.05 56.6019C156.019 56.6507 155.228 57.8097 147.992 61.3649C147.955 61.3955 144.144 64.434 139.949 67.2242C139.941 67.2301 139.131 67.9762 137.345 67.9762C136.227 67.9762 134.963 67.6898 133.58 67.118C132.487 66.7051 130.654 65.721 130.397 64.8362C130.359 64.7058 130.339 64.5229 130.488 64.2992C130.527 64.2484 131.285 63.2561 132.122 61.81C132.184 62.3042 132.246 62.5929 132.252 62.6215C132.269 62.6968 132.301 62.7678 132.347 62.8269C133.877 64.8588 137.717 65.3304 137.88 65.3486C137.899 65.3526 137.916 65.3526 137.933 65.3526C138.08 65.3526 138.22 65.2796 138.312 65.1535C138.416 65.0131 138.445 64.8239 138.388 64.6553C137.574 62.2269 138.38 59.742 138.388 59.7154C138.477 59.4449 138.346 59.1482 138.095 59.0503C137.852 58.9567 137.57 59.0928 137.478 59.3636C137.444 59.4672 136.711 61.7065 137.253 64.1897C136.159 63.97 134.126 63.423 133.17 62.2637C133.097 61.8608 132.876 60.4376 132.964 58.3796C133.21 55.7948 134.024 51.2087 136.699 48.3249C136.729 48.2844 139.847 44.1822 145.752 44.1822C145.761 44.1822 145.88 44.1802 145.89 44.1782C147.01 44.1782 152.723 44.6946 155.198 54.9C155.243 55.0809 155.375 55.2233 155.544 55.2721C155.736 55.3248 156.193 55.5425 156.29 55.8353C156.363 56.0547 156.216 56.3414 156.05 56.6019ZM152.538 56.0444C152.483 56.0749 151.21 56.8071 150.305 57.5146C150.087 57.6836 150.04 58.0088 150.197 58.2405C150.291 58.3809 150.439 58.4562 150.588 58.4562C150.687 58.4562 150.787 58.4237 150.872 58.3567C151.722 57.6939 152.98 56.9717 152.991 56.9634C153.227 56.8293 153.316 56.514 153.192 56.2598C153.065 56.0019 152.77 55.9146 152.538 56.0444Z" fill="white"/>
<path d="M119.335 74.7617H118.34V80.3361H119.407L122.465 76.1075V80.3361H123.46V74.7617H122.377L119.335 78.9266V74.7617Z" fill="white"/>
<path d="M127.921 79.9379V78.9823C127.722 79.3327 127.284 79.6114 126.623 79.6114C125.875 79.6114 125.429 79.2292 125.429 78.409V78.2895C125.429 77.4852 125.843 77.0791 126.607 77.0791C127.189 77.087 127.611 77.3737 127.882 77.7958V76.6331C127.619 76.434 127.141 76.2748 126.607 76.2668C125.341 76.2748 124.481 76.9596 124.481 78.3293C124.481 79.7229 125.325 80.4237 126.599 80.4237C127.244 80.4237 127.746 80.1609 127.921 79.9379Z" fill="white"/>
<path d="M131.44 80.3361H132.372V76.3544H128.773V80.3361H129.704V77.1746H131.44V80.3361Z" fill="white"/>
<path d="M135.277 80.4237C136.511 80.4157 137.347 79.7388 137.347 78.3612C137.347 76.9755 136.543 76.2748 135.308 76.2668C134.066 76.2668 133.23 76.9517 133.23 78.3293C133.23 79.7229 134.034 80.4237 135.277 80.4237ZM134.178 78.3293C134.178 77.4932 134.568 77.087 135.277 77.0791C135.977 77.0791 136.399 77.4613 136.399 78.3373V78.3612C136.399 79.2053 136.001 79.6114 135.293 79.6114C134.592 79.6114 134.178 79.2292 134.178 78.3532V78.3293Z" fill="white"/>
<path d="M140.763 80.3361H141.686V76.3544H138.644L138.612 77.2224C138.557 79.3008 138.278 79.4123 137.935 79.4123C137.872 79.4123 137.8 79.4044 137.728 79.3805V80.3441C137.808 80.3679 137.967 80.3839 138.119 80.3839C138.74 80.3839 139.345 80.1609 139.449 77.6763L139.472 77.1746H140.763V80.3361Z" fill="white"/>
<path d="M145.557 80.3361H146.488V76.3544H145.557V77.9073H143.757V76.3544H142.825V80.3361H143.757V78.7275H145.557V80.3361Z" fill="white"/>
<path d="M147.624 80.2803H147.743V80.3361H148.507L148.547 80.2803L150.419 77.6046V80.3361H151.342V76.4181H151.215V76.3544H150.458L148.547 79.054V76.3544H147.624V80.2803Z" fill="white"/>
<path d="M153.384 80.3361H154.308V77.1746H155.598V76.3544H152.11V77.1746H153.384V80.3361Z" fill="white"/>
<path d="M159.653 79.9379V78.9823C159.438 79.3327 158.952 79.6114 158.22 79.6114C157.495 79.6114 157.089 79.277 157.017 78.616H159.972V78.2338C159.972 76.9835 159.279 76.2748 158.124 76.2668C156.922 76.2668 156.094 77.0074 156.094 78.3293C156.094 79.699 156.874 80.4237 158.188 80.4157C158.913 80.4237 159.462 80.1609 159.653 79.9379ZM158.1 77.0791C158.666 77.0791 159.016 77.4135 159.04 77.955H157.033C157.129 77.3817 157.503 77.0791 158.1 77.0791Z" fill="white"/>
<path d="M163.331 80.3361H164.254V76.3544H161.212L161.181 77.2224C161.125 79.3008 160.846 79.4123 160.504 79.4123C160.44 79.4123 160.368 79.4044 160.297 79.3805V80.3441C160.376 80.3679 160.535 80.3839 160.687 80.3839C161.308 80.3839 161.913 80.1609 162.017 77.6763L162.041 77.1746H163.331V80.3361Z" fill="white"/>
<path d="M168.786 78.8868C168.786 77.8435 168.18 77.533 167.097 77.533H166.325V76.3544H165.393V80.3361H166.994C168.236 80.3361 168.778 79.8981 168.786 78.8868ZM167.854 78.8788C167.854 79.3566 167.607 79.5159 166.97 79.5159H166.325V78.3532H167.026C167.631 78.3532 167.838 78.4647 167.854 78.8788Z" fill="white"/>
<circle cx="253.501" cy="65.7003" r="33.1808" fill="#5BD595"/>
<g opacity="0.5">
<rect x="253.502" y="82.293" width="1.32723" height="16.5904" fill="white"/>
<rect x="253.502" y="66.3672" width="1.32723" height="7.29977" fill="white"/>
<rect x="253.502" y="29.2031" width="3.31808" height="36.4989" fill="white"/>
<rect x="253.502" y="62.3828" width="36.4989" height="3.31808" fill="white"/>
<rect x="220.32" y="65.0391" width="69.6796" height="1.32723" fill="white"/>
</g>
<path d="M290 62.3839C290 58.0265 289.142 53.7118 287.474 49.6862C285.807 45.6605 283.363 42.0027 280.282 38.9215C277.201 35.8404 273.543 33.3964 269.517 31.7289C265.492 30.0614 261.177 29.2031 256.819 29.2031V62.3839H290Z" fill="#5BD595"/>
<path d="M233.823 74.6775H230.853V79.3361H229.857V73.7617H234.819V79.3361H233.823V74.6775Z" fill="white"/>
<path d="M237.882 79.4237C237.569 79.4237 237.287 79.3812 237.038 79.2963C236.788 79.206 236.573 79.0733 236.393 78.8981C236.212 78.7229 236.074 78.5052 235.979 78.2451C235.883 77.985 235.835 77.6797 235.835 77.3293C235.835 76.9842 235.886 76.6843 235.987 76.4295C236.088 76.1693 236.228 75.9543 236.409 75.7844C236.589 75.6092 236.807 75.4792 237.062 75.3942C237.317 75.3093 237.601 75.2668 237.914 75.2668C238.222 75.2668 238.501 75.3119 238.75 75.4022C239.005 75.4924 239.22 75.6252 239.395 75.8003C239.576 75.9755 239.714 76.1932 239.809 76.4533C239.905 76.7135 239.953 77.0161 239.953 77.3612C239.953 77.7063 239.902 78.0089 239.801 78.269C239.7 78.5238 239.56 78.7362 239.379 78.9061C239.199 79.076 238.981 79.206 238.726 79.2963C238.471 79.3812 238.19 79.4237 237.882 79.4237ZM236.783 77.3532C236.783 77.7938 236.881 78.115 237.078 78.3168C237.274 78.5132 237.548 78.6114 237.898 78.6114C238.254 78.6114 238.527 78.5106 238.718 78.3088C238.909 78.1018 239.005 77.7859 239.005 77.3612V77.3373C239.005 76.8966 238.904 76.5781 238.702 76.3817C238.506 76.1799 238.232 76.0791 237.882 76.0791C237.526 76.0844 237.253 76.1906 237.062 76.3976C236.876 76.5993 236.783 76.9099 236.783 77.3293V77.3532Z" fill="white"/>
<path d="M240.749 78.492C240.802 78.3486 240.85 78.192 240.893 78.0221C240.94 77.8469 240.98 77.6505 241.012 77.4328C241.044 77.2152 241.068 76.9736 241.084 76.7082C241.1 76.4374 241.108 76.1375 241.108 75.8083V75.3544H244.166V78.492H244.771V80.3713H243.927V79.3361H241.132V80.3713H240.287V78.492H240.749ZM241.976 76.2702C241.965 76.7321 241.936 77.1408 241.888 77.4965C241.84 77.8469 241.761 78.1787 241.649 78.492H243.234V76.1746H241.976V76.2702Z" fill="white"/>
<path d="M245.57 75.3544H246.446V76.1826C246.484 76.0711 246.537 75.9623 246.606 75.8561C246.68 75.7446 246.773 75.6464 246.884 75.5614C247.001 75.4765 247.139 75.4075 247.299 75.3544C247.458 75.3013 247.644 75.2748 247.856 75.2748C248.111 75.2748 248.342 75.3146 248.549 75.3942C248.761 75.4685 248.942 75.5853 249.09 75.7446C249.244 75.9039 249.364 76.1083 249.449 76.3578C249.534 76.6073 249.576 76.9073 249.576 77.2576C249.576 77.6505 249.534 77.985 249.449 78.261C249.364 78.5318 249.242 78.7548 249.082 78.93C248.928 79.0998 248.74 79.2246 248.517 79.3042C248.294 79.3839 248.047 79.4237 247.776 79.4237C247.458 79.4237 247.19 79.3547 246.972 79.2166C246.76 79.0786 246.603 78.9167 246.502 78.7309V80.873H245.57V75.3544ZM246.502 77.4806C246.502 77.8416 246.598 78.1203 246.789 78.3168C246.98 78.5079 247.24 78.6035 247.569 78.6035C247.946 78.6035 248.22 78.5052 248.39 78.3088C248.559 78.1071 248.644 77.77 248.644 77.2975C248.644 76.8621 248.546 76.5542 248.35 76.3737C248.159 76.1932 247.904 76.103 247.585 76.103C247.219 76.103 246.948 76.1985 246.773 76.3896C246.603 76.5808 246.513 76.8435 246.502 77.178V77.4806Z" fill="white"/>
<path d="M252.844 78.0221H251.92L251.116 79.3361H250.089L251.012 77.8947C250.774 77.7992 250.593 77.6585 250.471 77.4727C250.349 77.2815 250.288 77.0559 250.288 76.7958C250.288 76.2967 250.431 75.9331 250.718 75.7048C251.005 75.4712 251.458 75.3544 252.08 75.3544H253.776V79.3361H252.844V78.0221ZM252.103 76.1746C251.79 76.1746 251.565 76.2198 251.427 76.31C251.289 76.4003 251.22 76.5622 251.22 76.7958C251.225 76.9603 251.283 77.0878 251.395 77.178C251.506 77.263 251.684 77.3054 251.928 77.3054H252.844V76.1746H252.103Z" fill="white"/>
<path d="M254.926 78.492C254.979 78.3486 255.027 78.192 255.07 78.0221C255.117 77.8469 255.157 77.6505 255.189 77.4328C255.221 77.2152 255.245 76.9736 255.261 76.7082C255.277 76.4374 255.285 76.1375 255.285 75.8083V75.3544H258.343V78.492H258.948V80.3713H258.104V79.3361H255.309V80.3713H254.464V78.492H254.926ZM256.153 76.2702C256.142 76.7321 256.113 77.1408 256.065 77.4965C256.017 77.8469 255.938 78.1787 255.826 78.492H257.411V76.1746H256.153V76.2702Z" fill="white"/>
<path d="M262.028 77.9345C261.89 78.0142 261.731 78.0726 261.55 78.1097C261.37 78.1469 261.187 78.1655 261.001 78.1655C260.523 78.1655 260.149 78.054 259.878 77.831C259.607 77.608 259.472 77.2576 259.472 76.7798V75.3544H260.404V76.6365C260.404 76.8754 260.467 77.0533 260.595 77.17C260.728 77.2815 260.919 77.3373 261.168 77.3373C261.497 77.3373 261.784 77.2762 262.028 77.1541V75.3544H262.96V79.3361H262.028V77.9345Z" fill="white"/>
<path d="M264.095 75.3544H265.019V78.054L266.93 75.3544H267.814V79.3361H266.89V76.6046L264.979 79.3361H264.095V75.3544Z" fill="white"/>
<path d="M268.947 75.3544H269.879V76.9073H270.524L271.639 75.3544H272.674L271.281 77.2338L272.897 79.3361H271.766L270.516 77.6877H269.879V79.3361H268.947V75.3544Z" fill="white"/>
<path d="M273.583 75.3544H274.506V78.054L276.417 75.3544H277.301V79.3361H276.378V76.6046L274.466 79.3361H273.583V75.3544Z" fill="white"/>
</svg>
