<svg width="437" height="198" viewBox="0 0 437 198" fill="none" xmlns="http://www.w3.org/2000/svg">
<path d="M70.5116 100.012C68.7249 86.0782 71.6468 71.9468 78.8127 59.8637C85.9787 47.7807 96.9775 38.4394 110.061 33.3245C123.145 28.2095 137.563 27.6142 151.024 31.6334C164.485 35.6525 176.217 44.0555 184.354 55.5067" stroke="#7BBEFD" stroke-width="2" stroke-dasharray="5 5"/>
<path d="M195.488 97.986C197.275 111.92 194.354 126.052 187.188 138.135C180.023 150.218 169.024 159.56 155.94 164.675C142.857 169.79 128.438 170.386 114.977 166.367C101.516 162.348 89.7848 153.946 81.6469 142.495" stroke="#F3B36A" stroke-width="2" stroke-dasharray="5 5"/>
<path d="M103.659 13H101.419V3.2H103.659V7.092H104.947L107.495 3.2H110.155L106.879 7.792L110.813 13H107.985L105.073 9.01H103.659V13ZM114.904 5.832C115.445 5.832 115.94 5.91133 116.388 6.07C116.845 6.21933 117.237 6.448 117.564 6.756C117.9 7.064 118.161 7.44667 118.348 7.904C118.535 8.36133 118.628 8.898 118.628 9.514C118.628 10.1207 118.539 10.6527 118.362 11.11C118.185 11.558 117.928 11.936 117.592 12.244C117.265 12.552 116.864 12.7853 116.388 12.944C115.912 13.0933 115.375 13.168 114.778 13.168C114.237 13.168 113.737 13.0933 113.28 12.944C112.832 12.7853 112.44 12.552 112.104 12.244C111.777 11.936 111.521 11.5533 111.334 11.096C111.147 10.6387 111.054 10.102 111.054 9.486C111.054 8.282 111.395 7.37667 112.076 6.77C112.767 6.154 113.709 5.84133 114.904 5.832ZM113.224 9.514C113.224 10.158 113.373 10.62 113.672 10.9C113.971 11.18 114.363 11.32 114.848 11.32C115.361 11.32 115.758 11.18 116.038 10.9C116.318 10.62 116.458 10.1627 116.458 9.528V9.486C116.458 8.85133 116.304 8.394 115.996 8.114C115.697 7.82467 115.31 7.68 114.834 7.68C114.321 7.68 113.924 7.82 113.644 8.1C113.364 8.38 113.224 8.83733 113.224 9.472V9.514ZM124.683 10.368H122.051V13H119.951V6H122.051V8.52H124.683V6H126.783V13H124.683V10.368ZM130.147 7.848H128.019V6H134.473V7.848H132.247V13H130.147V7.848ZM135.701 6H137.675V7.414C137.731 7.22733 137.815 7.04533 137.927 6.868C138.049 6.68133 138.203 6.51333 138.389 6.364C138.576 6.21467 138.8 6.098 139.061 6.014C139.332 5.92067 139.645 5.874 139.999 5.874C140.419 5.874 140.811 5.93933 141.175 6.07C141.549 6.20067 141.871 6.406 142.141 6.686C142.412 6.966 142.622 7.32533 142.771 7.764C142.93 8.20267 143.009 8.73 143.009 9.346C143.009 10.0367 142.93 10.6247 142.771 11.11C142.622 11.586 142.407 11.978 142.127 12.286C141.847 12.5847 141.511 12.804 141.119 12.944C140.737 13.084 140.317 13.154 139.859 13.154C139.327 13.154 138.893 13.0467 138.557 12.832C138.221 12.608 137.969 12.3327 137.801 12.006V15.884H135.701V6ZM137.801 9.668C137.801 10.2187 137.932 10.6293 138.193 10.9C138.455 11.1707 138.828 11.306 139.313 11.306C139.873 11.306 140.275 11.166 140.517 10.886C140.769 10.5967 140.895 10.1067 140.895 9.416C140.895 8.8 140.755 8.366 140.475 8.114C140.205 7.85267 139.841 7.722 139.383 7.722C138.823 7.722 138.422 7.85267 138.179 8.114C137.946 8.37533 137.82 8.744 137.801 9.22V9.668ZM144.538 6.462C144.772 6.28467 145.098 6.14 145.518 6.028C145.948 5.916 146.494 5.86 147.156 5.86C148.314 5.86 149.14 6.06533 149.634 6.476C150.138 6.87733 150.39 7.512 150.39 8.38V13H148.402V11.74C148.234 12.1507 147.959 12.482 147.576 12.734C147.194 12.986 146.727 13.112 146.176 13.112C145.448 13.112 144.898 12.916 144.524 12.524C144.151 12.1227 143.964 11.5953 143.964 10.942C143.964 10.522 144.034 10.1767 144.174 9.906C144.324 9.63533 144.524 9.42067 144.776 9.262C145.028 9.10333 145.327 8.99133 145.672 8.926C146.018 8.86067 146.386 8.828 146.778 8.828H148.29V8.772C148.29 8.38 148.211 8.10467 148.052 7.946C147.894 7.778 147.595 7.694 147.156 7.694C146.783 7.694 146.456 7.72667 146.176 7.792C145.906 7.848 145.668 7.932 145.462 8.044C145.266 8.14667 145.094 8.27267 144.944 8.422C144.795 8.562 144.66 8.72067 144.538 8.898V6.462ZM146.904 11.264C147.306 11.264 147.628 11.1893 147.87 11.04C148.113 10.8907 148.253 10.6947 148.29 10.452V10.046H147.128C146.792 10.046 146.531 10.0927 146.344 10.186C146.167 10.2793 146.078 10.438 146.078 10.662C146.078 11.0633 146.354 11.264 146.904 11.264ZM152.067 6H154.167V8.548H155.161L156.883 6H159.193L156.883 9.304L159.543 13H157.023L155.147 10.298H154.167V13H152.067V6ZM162.071 7.848H159.943V6H166.397V7.848H164.171V13H162.071V7.848Z" fill="#7BBEFD"/>
<path d="M103.659 193H101.419V183.2H103.659V187.092H104.947L107.495 183.2H110.155L106.879 187.792L110.813 193H107.985L105.073 189.01H103.659V193ZM114.904 185.832C115.445 185.832 115.94 185.911 116.388 186.07C116.845 186.219 117.237 186.448 117.564 186.756C117.9 187.064 118.161 187.447 118.348 187.904C118.535 188.361 118.628 188.898 118.628 189.514C118.628 190.121 118.539 190.653 118.362 191.11C118.185 191.558 117.928 191.936 117.592 192.244C117.265 192.552 116.864 192.785 116.388 192.944C115.912 193.093 115.375 193.168 114.778 193.168C114.237 193.168 113.737 193.093 113.28 192.944C112.832 192.785 112.44 192.552 112.104 192.244C111.777 191.936 111.521 191.553 111.334 191.096C111.147 190.639 111.054 190.102 111.054 189.486C111.054 188.282 111.395 187.377 112.076 186.77C112.767 186.154 113.709 185.841 114.904 185.832ZM113.224 189.514C113.224 190.158 113.373 190.62 113.672 190.9C113.971 191.18 114.363 191.32 114.848 191.32C115.361 191.32 115.758 191.18 116.038 190.9C116.318 190.62 116.458 190.163 116.458 189.528V189.486C116.458 188.851 116.304 188.394 115.996 188.114C115.697 187.825 115.31 187.68 114.834 187.68C114.321 187.68 113.924 187.82 113.644 188.1C113.364 188.38 113.224 188.837 113.224 189.472V189.514ZM124.683 190.368H122.051V193H119.951V186H122.051V188.52H124.683V186H126.783V193H124.683V190.368ZM130.147 187.848H128.019V186H134.473V187.848H132.247V193H130.147V187.848ZM135.701 186H137.675V187.414C137.731 187.227 137.815 187.045 137.927 186.868C138.049 186.681 138.203 186.513 138.389 186.364C138.576 186.215 138.8 186.098 139.061 186.014C139.332 185.921 139.645 185.874 139.999 185.874C140.419 185.874 140.811 185.939 141.175 186.07C141.549 186.201 141.871 186.406 142.141 186.686C142.412 186.966 142.622 187.325 142.771 187.764C142.93 188.203 143.009 188.73 143.009 189.346C143.009 190.037 142.93 190.625 142.771 191.11C142.622 191.586 142.407 191.978 142.127 192.286C141.847 192.585 141.511 192.804 141.119 192.944C140.737 193.084 140.317 193.154 139.859 193.154C139.327 193.154 138.893 193.047 138.557 192.832C138.221 192.608 137.969 192.333 137.801 192.006V195.884H135.701V186ZM137.801 189.668C137.801 190.219 137.932 190.629 138.193 190.9C138.455 191.171 138.828 191.306 139.313 191.306C139.873 191.306 140.275 191.166 140.517 190.886C140.769 190.597 140.895 190.107 140.895 189.416C140.895 188.8 140.755 188.366 140.475 188.114C140.205 187.853 139.841 187.722 139.383 187.722C138.823 187.722 138.422 187.853 138.179 188.114C137.946 188.375 137.82 188.744 137.801 189.22V189.668ZM144.538 186.462C144.772 186.285 145.098 186.14 145.518 186.028C145.948 185.916 146.494 185.86 147.156 185.86C148.314 185.86 149.14 186.065 149.634 186.476C150.138 186.877 150.39 187.512 150.39 188.38V193H148.402V191.74C148.234 192.151 147.959 192.482 147.576 192.734C147.194 192.986 146.727 193.112 146.176 193.112C145.448 193.112 144.898 192.916 144.524 192.524C144.151 192.123 143.964 191.595 143.964 190.942C143.964 190.522 144.034 190.177 144.174 189.906C144.324 189.635 144.524 189.421 144.776 189.262C145.028 189.103 145.327 188.991 145.672 188.926C146.018 188.861 146.386 188.828 146.778 188.828H148.29V188.772C148.29 188.38 148.211 188.105 148.052 187.946C147.894 187.778 147.595 187.694 147.156 187.694C146.783 187.694 146.456 187.727 146.176 187.792C145.906 187.848 145.668 187.932 145.462 188.044C145.266 188.147 145.094 188.273 144.944 188.422C144.795 188.562 144.66 188.721 144.538 188.898V186.462ZM146.904 191.264C147.306 191.264 147.628 191.189 147.87 191.04C148.113 190.891 148.253 190.695 148.29 190.452V190.046H147.128C146.792 190.046 146.531 190.093 146.344 190.186C146.167 190.279 146.078 190.438 146.078 190.662C146.078 191.063 146.354 191.264 146.904 191.264ZM152.067 186H154.167V188.548H155.161L156.883 186H159.193L156.883 189.304L159.543 193H157.023L155.147 190.298H154.167V193H152.067V186ZM162.071 187.848H159.943V186H166.397V187.848H164.171V193H162.071V187.848Z" fill="#F3B36A"/>
<path d="M236.512 100.012C234.725 86.0782 237.647 71.9468 244.813 59.8637C251.979 47.7807 262.978 38.4394 276.061 33.3245C289.145 28.2095 303.563 27.6142 317.024 31.6334C330.485 35.6525 342.217 44.0555 350.354 55.5067" stroke="#F3B36A" stroke-width="2" stroke-dasharray="5 5"/>
<path d="M361.488 97.986C363.275 111.92 360.354 126.052 353.188 138.135C346.023 150.218 335.024 159.56 321.94 164.675C308.857 169.79 294.438 170.386 280.977 166.367C267.516 162.348 255.785 153.946 247.647 142.495" stroke="#5BD595" stroke-width="2" stroke-dasharray="5 5"/>
<path d="M234.296 10.9C234.427 10.5827 234.544 10.2467 234.646 9.892C234.758 9.528 234.852 9.122 234.926 8.674C235.01 8.226 235.076 7.722 235.122 7.162C235.169 6.602 235.197 5.958 235.206 5.23L235.234 3.2H242.43V10.9H243.438V14.82H241.338V13H235.43V14.82H233.316V10.9H234.296ZM237.334 5.3C237.316 5.92533 237.288 6.49933 237.25 7.022C237.213 7.54467 237.162 8.03467 237.096 8.492C237.031 8.94 236.947 9.36 236.844 9.752C236.751 10.144 236.639 10.5267 236.508 10.9H240.19V5.3H237.334ZM248.07 5.832C248.611 5.832 249.106 5.91133 249.554 6.07C250.011 6.21933 250.403 6.448 250.73 6.756C251.066 7.064 251.327 7.44667 251.514 7.904C251.701 8.36133 251.794 8.898 251.794 9.514C251.794 10.1207 251.705 10.6527 251.528 11.11C251.351 11.558 251.094 11.936 250.758 12.244C250.431 12.552 250.03 12.7853 249.554 12.944C249.078 13.0933 248.541 13.168 247.944 13.168C247.403 13.168 246.903 13.0933 246.446 12.944C245.998 12.7853 245.606 12.552 245.27 12.244C244.943 11.936 244.687 11.5533 244.5 11.096C244.313 10.6387 244.22 10.102 244.22 9.486C244.22 8.282 244.561 7.37667 245.242 6.77C245.933 6.154 246.875 5.84133 248.07 5.832ZM246.39 9.514C246.39 10.158 246.539 10.62 246.838 10.9C247.137 11.18 247.529 11.32 248.014 11.32C248.527 11.32 248.924 11.18 249.204 10.9C249.484 10.62 249.624 10.1627 249.624 9.528V9.486C249.624 8.85133 249.47 8.394 249.162 8.114C248.863 7.82467 248.476 7.68 248 7.68C247.487 7.68 247.09 7.82 246.81 8.1C246.53 8.38 246.39 8.83733 246.39 9.472V9.514ZM253.117 6H258.479V7.848H255.217V13H253.117V6ZM263.041 5.832C263.582 5.832 264.077 5.91133 264.525 6.07C264.982 6.21933 265.374 6.448 265.701 6.756C266.037 7.064 266.298 7.44667 266.485 7.904C266.672 8.36133 266.765 8.898 266.765 9.514C266.765 10.1207 266.676 10.6527 266.499 11.11C266.322 11.558 266.065 11.936 265.729 12.244C265.402 12.552 265.001 12.7853 264.525 12.944C264.049 13.0933 263.512 13.168 262.915 13.168C262.374 13.168 261.874 13.0933 261.417 12.944C260.969 12.7853 260.577 12.552 260.241 12.244C259.914 11.936 259.658 11.5533 259.471 11.096C259.284 10.6387 259.191 10.102 259.191 9.486C259.191 8.282 259.532 7.37667 260.213 6.77C260.904 6.154 261.846 5.84133 263.041 5.832ZM261.361 9.514C261.361 10.158 261.51 10.62 261.809 10.9C262.108 11.18 262.5 11.32 262.985 11.32C263.498 11.32 263.895 11.18 264.175 10.9C264.455 10.62 264.595 10.1627 264.595 9.528V9.486C264.595 8.85133 264.441 8.394 264.133 8.114C263.834 7.82467 263.447 7.68 262.971 7.68C262.458 7.68 262.061 7.82 261.781 8.1C261.501 8.38 261.361 8.83733 261.361 9.472V9.514ZM268.088 6H272.008C272.801 6 273.375 6.14 273.73 6.42C274.094 6.7 274.276 7.11533 274.276 7.666C274.276 8.06733 274.169 8.40333 273.954 8.674C273.749 8.94467 273.455 9.12667 273.072 9.22C273.52 9.276 273.889 9.43467 274.178 9.696C274.477 9.948 274.626 10.3587 274.626 10.928C274.626 11.5813 274.407 12.09 273.968 12.454C273.529 12.818 272.862 13 271.966 13H268.088V6ZM271.7 11.278C271.999 11.278 272.209 11.2313 272.33 11.138C272.461 11.0447 272.526 10.8953 272.526 10.69C272.526 10.5033 272.461 10.3633 272.33 10.27C272.209 10.1673 271.989 10.116 271.672 10.116H270.188V11.278H271.7ZM271.462 8.772C271.677 8.772 271.845 8.73 271.966 8.646C272.097 8.562 272.162 8.41733 272.162 8.212C272.162 7.88533 271.905 7.722 271.392 7.722L270.188 7.736V8.772H271.462ZM279.297 5.832C279.838 5.832 280.333 5.91133 280.781 6.07C281.238 6.21933 281.63 6.448 281.957 6.756C282.293 7.064 282.554 7.44667 282.741 7.904C282.927 8.36133 283.021 8.898 283.021 9.514C283.021 10.1207 282.932 10.6527 282.755 11.11C282.577 11.558 282.321 11.936 281.985 12.244C281.658 12.552 281.257 12.7853 280.781 12.944C280.305 13.0933 279.768 13.168 279.171 13.168C278.629 13.168 278.13 13.0933 277.673 12.944C277.225 12.7853 276.833 12.552 276.497 12.244C276.17 11.936 275.913 11.5533 275.727 11.096C275.54 10.6387 275.447 10.102 275.447 9.486C275.447 8.282 275.787 7.37667 276.469 6.77C277.159 6.154 278.102 5.84133 279.297 5.832ZM277.617 9.514C277.617 10.158 277.766 10.62 278.065 10.9C278.363 11.18 278.755 11.32 279.241 11.32C279.754 11.32 280.151 11.18 280.431 10.9C280.711 10.62 280.851 10.1627 280.851 9.528V9.486C280.851 8.85133 280.697 8.394 280.389 8.114C280.09 7.82467 279.703 7.68 279.227 7.68C278.713 7.68 278.317 7.82 278.037 8.1C277.757 8.38 277.617 8.83733 277.617 9.472V9.514ZM284.344 6H286.318V7.414C286.374 7.22733 286.458 7.04533 286.57 6.868C286.691 6.68133 286.845 6.51333 287.032 6.364C287.219 6.21467 287.443 6.098 287.704 6.014C287.975 5.92067 288.287 5.874 288.642 5.874C289.062 5.874 289.454 5.93933 289.818 6.07C290.191 6.20067 290.513 6.406 290.784 6.686C291.055 6.966 291.265 7.32533 291.414 7.764C291.573 8.20267 291.652 8.73 291.652 9.346C291.652 10.0367 291.573 10.6247 291.414 11.11C291.265 11.586 291.05 11.978 290.77 12.286C290.49 12.5847 290.154 12.804 289.762 12.944C289.379 13.084 288.959 13.154 288.502 13.154C287.97 13.154 287.536 13.0467 287.2 12.832C286.864 12.608 286.612 12.3327 286.444 12.006V15.884H284.344V6ZM286.444 9.668C286.444 10.2187 286.575 10.6293 286.836 10.9C287.097 11.1707 287.471 11.306 287.956 11.306C288.516 11.306 288.917 11.166 289.16 10.886C289.412 10.5967 289.538 10.1067 289.538 9.416C289.538 8.8 289.398 8.366 289.118 8.114C288.847 7.85267 288.483 7.722 288.026 7.722C287.466 7.722 287.065 7.85267 286.822 8.114C286.589 8.37533 286.463 8.744 286.444 9.22V9.668ZM292.971 6H295.071V7.89H296.051C296.527 7.89 296.947 7.93667 297.311 8.03C297.684 8.114 298.002 8.254 298.263 8.45C298.524 8.646 298.725 8.90267 298.865 9.22C299.005 9.528 299.075 9.91067 299.075 10.368C299.075 11.236 298.814 11.894 298.291 12.342C297.768 12.7807 296.961 13 295.869 13H292.971V6ZM299.705 6H301.819V13H299.705V6ZM295.799 11.152C296.238 11.152 296.541 11.0867 296.709 10.956C296.886 10.8253 296.975 10.634 296.975 10.382C296.975 10.158 296.891 9.99467 296.723 9.892C296.564 9.78 296.298 9.724 295.925 9.724H295.071V11.152H295.799ZM311.837 7.848H309.303V13H307.203V6H313.937V13H311.837V7.848ZM319.109 5.832C319.651 5.832 320.145 5.91133 320.593 6.07C321.051 6.21933 321.443 6.448 321.769 6.756C322.105 7.064 322.367 7.44667 322.553 7.904C322.74 8.36133 322.833 8.898 322.833 9.514C322.833 10.1207 322.745 10.6527 322.567 11.11C322.39 11.558 322.133 11.936 321.797 12.244C321.471 12.552 321.069 12.7853 320.593 12.944C320.117 13.0933 319.581 13.168 318.983 13.168C318.442 13.168 317.943 13.0933 317.485 12.944C317.037 12.7853 316.645 12.552 316.309 12.244C315.983 11.936 315.726 11.5533 315.539 11.096C315.353 10.6387 315.259 10.102 315.259 9.486C315.259 8.282 315.6 7.37667 316.281 6.77C316.972 6.154 317.915 5.84133 319.109 5.832ZM317.429 9.514C317.429 10.158 317.579 10.62 317.877 10.9C318.176 11.18 318.568 11.32 319.053 11.32C319.567 11.32 319.963 11.18 320.243 10.9C320.523 10.62 320.663 10.1627 320.663 9.528V9.486C320.663 8.85133 320.509 8.394 320.201 8.114C319.903 7.82467 319.515 7.68 319.039 7.68C318.526 7.68 318.129 7.82 317.849 8.1C317.569 8.38 317.429 8.83733 317.429 9.472V9.514ZM324.09 11.152C324.248 10.6573 324.37 10.0693 324.454 9.388C324.547 8.69733 324.594 7.834 324.594 6.798V6H330.418V11.152H331.426V14.82H329.578V13H325.21V14.82H323.348V11.152H324.09ZM326.554 7.848C326.535 8.51067 326.488 9.108 326.414 9.64C326.348 10.172 326.241 10.676 326.092 11.152H328.318V7.848H326.554ZM332.674 6H334.648V7.414C334.704 7.22733 334.788 7.04533 334.9 6.868C335.021 6.68133 335.175 6.51333 335.362 6.364C335.549 6.21467 335.773 6.098 336.034 6.014C336.305 5.92067 336.617 5.874 336.972 5.874C337.392 5.874 337.784 5.93933 338.148 6.07C338.521 6.20067 338.843 6.406 339.114 6.686C339.385 6.966 339.595 7.32533 339.744 7.764C339.903 8.20267 339.982 8.73 339.982 9.346C339.982 10.0367 339.903 10.6247 339.744 11.11C339.595 11.586 339.38 11.978 339.1 12.286C338.82 12.5847 338.484 12.804 338.092 12.944C337.709 13.084 337.289 13.154 336.832 13.154C336.3 13.154 335.866 13.0467 335.53 12.832C335.194 12.608 334.942 12.3327 334.774 12.006V15.884H332.674V6ZM334.774 9.668C334.774 10.2187 334.905 10.6293 335.166 10.9C335.427 11.1707 335.801 11.306 336.286 11.306C336.846 11.306 337.247 11.166 337.49 10.886C337.742 10.5967 337.868 10.1067 337.868 9.416C337.868 8.8 337.728 8.366 337.448 8.114C337.177 7.85267 336.813 7.722 336.356 7.722C335.796 7.722 335.395 7.85267 335.152 8.114C334.919 8.37533 334.793 8.744 334.774 9.22V9.668ZM345.501 10.914H344.129L343.149 13H340.895L342.155 10.564C341.782 10.3587 341.506 10.088 341.329 9.752C341.152 9.40667 341.063 9.024 341.063 8.604C341.072 7.74533 341.338 7.09667 341.861 6.658C342.384 6.21933 343.182 6 344.255 6H347.615V13H345.501V10.914ZM343.163 8.632C343.163 9.08 343.49 9.304 344.143 9.304H345.501V7.848H344.339C343.891 7.848 343.583 7.918 343.415 8.058C343.247 8.18867 343.163 8.38 343.163 8.632ZM349.437 11.152C349.596 10.6573 349.717 10.0693 349.801 9.388C349.895 8.69733 349.941 7.834 349.941 6.798V6H355.765V11.152H356.773V14.82H354.925V13H350.557V14.82H348.695V11.152H349.437ZM351.901 7.848C351.883 8.51067 351.836 9.108 351.761 9.64C351.696 10.172 351.589 10.676 351.439 11.152H353.665V7.848H351.901ZM358.163 6.462C358.397 6.28467 358.723 6.14 359.143 6.028C359.573 5.916 360.119 5.86 360.781 5.86C361.939 5.86 362.765 6.06533 363.259 6.476C363.763 6.87733 364.015 7.512 364.015 8.38V13H362.027V11.74C361.859 12.1507 361.584 12.482 361.201 12.734C360.819 12.986 360.352 13.112 359.801 13.112C359.073 13.112 358.523 12.916 358.149 12.524C357.776 12.1227 357.589 11.5953 357.589 10.942C357.589 10.522 357.659 10.1767 357.799 9.906C357.949 9.63533 358.149 9.42067 358.401 9.262C358.653 9.10333 358.952 8.99133 359.297 8.926C359.643 8.86067 360.011 8.828 360.403 8.828H361.915V8.772C361.915 8.38 361.836 8.10467 361.677 7.946C361.519 7.778 361.22 7.694 360.781 7.694C360.408 7.694 360.081 7.72667 359.801 7.792C359.531 7.848 359.293 7.932 359.087 8.044C358.891 8.14667 358.719 8.27267 358.569 8.422C358.42 8.562 358.285 8.72067 358.163 8.898V6.462ZM360.529 11.264C360.931 11.264 361.253 11.1893 361.495 11.04C361.738 10.8907 361.878 10.6947 361.915 10.452V10.046H360.753C360.417 10.046 360.156 10.0927 359.969 10.186C359.792 10.2793 359.703 10.438 359.703 10.662C359.703 11.0633 359.979 11.264 360.529 11.264Z" fill="#F3B36A"/>
<path d="M234.296 190.9C234.427 190.583 234.544 190.247 234.646 189.892C234.758 189.528 234.852 189.122 234.926 188.674C235.01 188.226 235.076 187.722 235.122 187.162C235.169 186.602 235.197 185.958 235.206 185.23L235.234 183.2H242.43V190.9H243.438V194.82H241.338V193H235.43V194.82H233.316V190.9H234.296ZM237.334 185.3C237.316 185.925 237.288 186.499 237.25 187.022C237.213 187.545 237.162 188.035 237.096 188.492C237.031 188.94 236.947 189.36 236.844 189.752C236.751 190.144 236.639 190.527 236.508 190.9H240.19V185.3H237.334ZM248.07 185.832C248.611 185.832 249.106 185.911 249.554 186.07C250.011 186.219 250.403 186.448 250.73 186.756C251.066 187.064 251.327 187.447 251.514 187.904C251.701 188.361 251.794 188.898 251.794 189.514C251.794 190.121 251.705 190.653 251.528 191.11C251.351 191.558 251.094 191.936 250.758 192.244C250.431 192.552 250.03 192.785 249.554 192.944C249.078 193.093 248.541 193.168 247.944 193.168C247.403 193.168 246.903 193.093 246.446 192.944C245.998 192.785 245.606 192.552 245.27 192.244C244.943 191.936 244.687 191.553 244.5 191.096C244.313 190.639 244.22 190.102 244.22 189.486C244.22 188.282 244.561 187.377 245.242 186.77C245.933 186.154 246.875 185.841 248.07 185.832ZM246.39 189.514C246.39 190.158 246.539 190.62 246.838 190.9C247.137 191.18 247.529 191.32 248.014 191.32C248.527 191.32 248.924 191.18 249.204 190.9C249.484 190.62 249.624 190.163 249.624 189.528V189.486C249.624 188.851 249.47 188.394 249.162 188.114C248.863 187.825 248.476 187.68 248 187.68C247.487 187.68 247.09 187.82 246.81 188.1C246.53 188.38 246.39 188.837 246.39 189.472V189.514ZM253.117 186H258.479V187.848H255.217V193H253.117V186ZM263.041 185.832C263.582 185.832 264.077 185.911 264.525 186.07C264.982 186.219 265.374 186.448 265.701 186.756C266.037 187.064 266.298 187.447 266.485 187.904C266.672 188.361 266.765 188.898 266.765 189.514C266.765 190.121 266.676 190.653 266.499 191.11C266.322 191.558 266.065 191.936 265.729 192.244C265.402 192.552 265.001 192.785 264.525 192.944C264.049 193.093 263.512 193.168 262.915 193.168C262.374 193.168 261.874 193.093 261.417 192.944C260.969 192.785 260.577 192.552 260.241 192.244C259.914 191.936 259.658 191.553 259.471 191.096C259.284 190.639 259.191 190.102 259.191 189.486C259.191 188.282 259.532 187.377 260.213 186.77C260.904 186.154 261.846 185.841 263.041 185.832ZM261.361 189.514C261.361 190.158 261.51 190.62 261.809 190.9C262.108 191.18 262.5 191.32 262.985 191.32C263.498 191.32 263.895 191.18 264.175 190.9C264.455 190.62 264.595 190.163 264.595 189.528V189.486C264.595 188.851 264.441 188.394 264.133 188.114C263.834 187.825 263.447 187.68 262.971 187.68C262.458 187.68 262.061 187.82 261.781 188.1C261.501 188.38 261.361 188.837 261.361 189.472V189.514ZM268.088 186H272.008C272.801 186 273.375 186.14 273.73 186.42C274.094 186.7 274.276 187.115 274.276 187.666C274.276 188.067 274.169 188.403 273.954 188.674C273.749 188.945 273.455 189.127 273.072 189.22C273.52 189.276 273.889 189.435 274.178 189.696C274.477 189.948 274.626 190.359 274.626 190.928C274.626 191.581 274.407 192.09 273.968 192.454C273.529 192.818 272.862 193 271.966 193H268.088V186ZM271.7 191.278C271.999 191.278 272.209 191.231 272.33 191.138C272.461 191.045 272.526 190.895 272.526 190.69C272.526 190.503 272.461 190.363 272.33 190.27C272.209 190.167 271.989 190.116 271.672 190.116H270.188V191.278H271.7ZM271.462 188.772C271.677 188.772 271.845 188.73 271.966 188.646C272.097 188.562 272.162 188.417 272.162 188.212C272.162 187.885 271.905 187.722 271.392 187.722L270.188 187.736V188.772H271.462ZM279.297 185.832C279.838 185.832 280.333 185.911 280.781 186.07C281.238 186.219 281.63 186.448 281.957 186.756C282.293 187.064 282.554 187.447 282.741 187.904C282.927 188.361 283.021 188.898 283.021 189.514C283.021 190.121 282.932 190.653 282.755 191.11C282.577 191.558 282.321 191.936 281.985 192.244C281.658 192.552 281.257 192.785 280.781 192.944C280.305 193.093 279.768 193.168 279.171 193.168C278.629 193.168 278.13 193.093 277.673 192.944C277.225 192.785 276.833 192.552 276.497 192.244C276.17 191.936 275.913 191.553 275.727 191.096C275.54 190.639 275.447 190.102 275.447 189.486C275.447 188.282 275.787 187.377 276.469 186.77C277.159 186.154 278.102 185.841 279.297 185.832ZM277.617 189.514C277.617 190.158 277.766 190.62 278.065 190.9C278.363 191.18 278.755 191.32 279.241 191.32C279.754 191.32 280.151 191.18 280.431 190.9C280.711 190.62 280.851 190.163 280.851 189.528V189.486C280.851 188.851 280.697 188.394 280.389 188.114C280.09 187.825 279.703 187.68 279.227 187.68C278.713 187.68 278.317 187.82 278.037 188.1C277.757 188.38 277.617 188.837 277.617 189.472V189.514ZM284.344 186H286.318V187.414C286.374 187.227 286.458 187.045 286.57 186.868C286.691 186.681 286.845 186.513 287.032 186.364C287.219 186.215 287.443 186.098 287.704 186.014C287.975 185.921 288.287 185.874 288.642 185.874C289.062 185.874 289.454 185.939 289.818 186.07C290.191 186.201 290.513 186.406 290.784 186.686C291.055 186.966 291.265 187.325 291.414 187.764C291.573 188.203 291.652 188.73 291.652 189.346C291.652 190.037 291.573 190.625 291.414 191.11C291.265 191.586 291.05 191.978 290.77 192.286C290.49 192.585 290.154 192.804 289.762 192.944C289.379 193.084 288.959 193.154 288.502 193.154C287.97 193.154 287.536 193.047 287.2 192.832C286.864 192.608 286.612 192.333 286.444 192.006V195.884H284.344V186ZM286.444 189.668C286.444 190.219 286.575 190.629 286.836 190.9C287.097 191.171 287.471 191.306 287.956 191.306C288.516 191.306 288.917 191.166 289.16 190.886C289.412 190.597 289.538 190.107 289.538 189.416C289.538 188.8 289.398 188.366 289.118 188.114C288.847 187.853 288.483 187.722 288.026 187.722C287.466 187.722 287.065 187.853 286.822 188.114C286.589 188.375 286.463 188.744 286.444 189.22V189.668ZM292.971 186H295.071V187.89H296.051C296.527 187.89 296.947 187.937 297.311 188.03C297.684 188.114 298.002 188.254 298.263 188.45C298.524 188.646 298.725 188.903 298.865 189.22C299.005 189.528 299.075 189.911 299.075 190.368C299.075 191.236 298.814 191.894 298.291 192.342C297.768 192.781 296.961 193 295.869 193H292.971V186ZM299.705 186H301.819V193H299.705V186ZM295.799 191.152C296.238 191.152 296.541 191.087 296.709 190.956C296.886 190.825 296.975 190.634 296.975 190.382C296.975 190.158 296.891 189.995 296.723 189.892C296.564 189.78 296.298 189.724 295.925 189.724H295.071V191.152H295.799ZM311.837 187.848H309.303V193H307.203V186H313.937V193H311.837V187.848ZM319.109 185.832C319.651 185.832 320.145 185.911 320.593 186.07C321.051 186.219 321.443 186.448 321.769 186.756C322.105 187.064 322.367 187.447 322.553 187.904C322.74 188.361 322.833 188.898 322.833 189.514C322.833 190.121 322.745 190.653 322.567 191.11C322.39 191.558 322.133 191.936 321.797 192.244C321.471 192.552 321.069 192.785 320.593 192.944C320.117 193.093 319.581 193.168 318.983 193.168C318.442 193.168 317.943 193.093 317.485 192.944C317.037 192.785 316.645 192.552 316.309 192.244C315.983 191.936 315.726 191.553 315.539 191.096C315.353 190.639 315.259 190.102 315.259 189.486C315.259 188.282 315.6 187.377 316.281 186.77C316.972 186.154 317.915 185.841 319.109 185.832ZM317.429 189.514C317.429 190.158 317.579 190.62 317.877 190.9C318.176 191.18 318.568 191.32 319.053 191.32C319.567 191.32 319.963 191.18 320.243 190.9C320.523 190.62 320.663 190.163 320.663 189.528V189.486C320.663 188.851 320.509 188.394 320.201 188.114C319.903 187.825 319.515 187.68 319.039 187.68C318.526 187.68 318.129 187.82 317.849 188.1C317.569 188.38 317.429 188.837 317.429 189.472V189.514ZM324.09 191.152C324.248 190.657 324.37 190.069 324.454 189.388C324.547 188.697 324.594 187.834 324.594 186.798V186H330.418V191.152H331.426V194.82H329.578V193H325.21V194.82H323.348V191.152H324.09ZM326.554 187.848C326.535 188.511 326.488 189.108 326.414 189.64C326.348 190.172 326.241 190.676 326.092 191.152H328.318V187.848H326.554ZM332.674 186H334.648V187.414C334.704 187.227 334.788 187.045 334.9 186.868C335.021 186.681 335.175 186.513 335.362 186.364C335.549 186.215 335.773 186.098 336.034 186.014C336.305 185.921 336.617 185.874 336.972 185.874C337.392 185.874 337.784 185.939 338.148 186.07C338.521 186.201 338.843 186.406 339.114 186.686C339.385 186.966 339.595 187.325 339.744 187.764C339.903 188.203 339.982 188.73 339.982 189.346C339.982 190.037 339.903 190.625 339.744 191.11C339.595 191.586 339.38 191.978 339.1 192.286C338.82 192.585 338.484 192.804 338.092 192.944C337.709 193.084 337.289 193.154 336.832 193.154C336.3 193.154 335.866 193.047 335.53 192.832C335.194 192.608 334.942 192.333 334.774 192.006V195.884H332.674V186ZM334.774 189.668C334.774 190.219 334.905 190.629 335.166 190.9C335.427 191.171 335.801 191.306 336.286 191.306C336.846 191.306 337.247 191.166 337.49 190.886C337.742 190.597 337.868 190.107 337.868 189.416C337.868 188.8 337.728 188.366 337.448 188.114C337.177 187.853 336.813 187.722 336.356 187.722C335.796 187.722 335.395 187.853 335.152 188.114C334.919 188.375 334.793 188.744 334.774 189.22V189.668ZM345.501 190.914H344.129L343.149 193H340.895L342.155 190.564C341.782 190.359 341.506 190.088 341.329 189.752C341.152 189.407 341.063 189.024 341.063 188.604C341.072 187.745 341.338 187.097 341.861 186.658C342.384 186.219 343.182 186 344.255 186H347.615V193H345.501V190.914ZM343.163 188.632C343.163 189.08 343.49 189.304 344.143 189.304H345.501V187.848H344.339C343.891 187.848 343.583 187.918 343.415 188.058C343.247 188.189 343.163 188.38 343.163 188.632ZM349.437 191.152C349.596 190.657 349.717 190.069 349.801 189.388C349.895 188.697 349.941 187.834 349.941 186.798V186H355.765V191.152H356.773V194.82H354.925V193H350.557V194.82H348.695V191.152H349.437ZM351.901 187.848C351.883 188.511 351.836 189.108 351.761 189.64C351.696 190.172 351.589 190.676 351.439 191.152H353.665V187.848H351.901ZM358.163 186.462C358.397 186.285 358.723 186.14 359.143 186.028C359.573 185.916 360.119 185.86 360.781 185.86C361.939 185.86 362.765 186.065 363.259 186.476C363.763 186.877 364.015 187.512 364.015 188.38V193H362.027V191.74C361.859 192.151 361.584 192.482 361.201 192.734C360.819 192.986 360.352 193.112 359.801 193.112C359.073 193.112 358.523 192.916 358.149 192.524C357.776 192.123 357.589 191.595 357.589 190.942C357.589 190.522 357.659 190.177 357.799 189.906C357.949 189.635 358.149 189.421 358.401 189.262C358.653 189.103 358.952 188.991 359.297 188.926C359.643 188.861 360.011 188.828 360.403 188.828H361.915V188.772C361.915 188.38 361.836 188.105 361.677 187.946C361.519 187.778 361.22 187.694 360.781 187.694C360.408 187.694 360.081 187.727 359.801 187.792C359.531 187.848 359.293 187.932 359.087 188.044C358.891 188.147 358.719 188.273 358.569 188.422C358.42 188.562 358.285 188.721 358.163 188.898V186.462ZM360.529 191.264C360.931 191.264 361.253 191.189 361.495 191.04C361.738 190.891 361.878 190.695 361.915 190.452V190.046H360.753C360.417 190.046 360.156 190.093 359.969 190.186C359.792 190.279 359.703 190.438 359.703 190.662C359.703 191.063 359.979 191.264 360.529 191.264Z" fill="#5BD595"/>
<circle cx="50" cy="99" r="50" fill="#7BBEFD"/>
<path d="M67.8232 94.2546C67.3983 87.8626 58.6925 86.5196 58.6925 86.5196C56.4687 86.1364 55.5624 84.2944 55.2034 83.1018C56.9128 81.2545 58.109 78.8672 58.7702 76.5408C59.0222 75.6541 59.1579 74.7285 59.1579 73.8082C59.1579 73.2846 59.1036 72.7743 59.0114 72.2764C60.1211 70.4817 59.7942 68.4805 59.531 67.5189C59.4511 67.2269 59.1489 67.0827 58.8382 67.0827C58.8048 67.0827 58.7715 67.0844 58.7382 67.0876C58.6197 67.0994 58.4947 67.1049 58.3638 67.1049C56.3764 67.1049 53.0899 65.831 53.0899 65.831C52.0873 65.4147 50.8525 65.1699 49.7717 65.0493C48.826 64.9437 47.8695 65.0011 46.9615 65.2872C45.6995 65.6847 44.5377 66.4675 43.5964 67.363C43.4038 67.5463 43.2391 67.7372 43.0867 67.9516C41.0836 68.5984 40.7447 71.0878 40.8636 73.2675C40.8522 73.4466 40.8421 73.6262 40.8421 73.8082C40.8421 77.0846 42.2848 80.8426 44.5329 83.3189C44.5986 83.3914 44.6669 83.4607 44.7352 83.5302C44.2973 84.6943 43.3615 86.1801 41.3911 86.5196C41.3911 86.5196 32.685 87.8626 32.2603 94.2546C32.2603 94.2546 31.7358 97.5953 32.1758 101.58C32.3236 102.918 33.6148 104 35.0177 104H65.066C66.4688 104 67.7282 102.915 67.8562 101.574C68.1979 98.0037 67.8232 94.2546 67.8232 94.2546ZM55.3066 86.1853L55.769 86.6784L55.8802 86.7968L56.019 86.8835L56.4253 87.1375L53.3073 91.4389L52.0852 89.5025L52.0352 89.4234L51.9734 89.3524C51.8766 89.2413 51.8691 89.0217 51.9484 88.8893L55.3066 86.1853ZM50.7913 91.2028H49.2699L48.8127 90.4233L48.9938 90.1364C49.1122 90.0004 49.1993 89.8444 49.2616 89.6794H50.7385C50.8007 89.8444 50.8878 90.0004 51.0063 90.1364L51.212 90.4624L50.7913 91.2028ZM51.8918 98.9245C51.9102 98.9924 51.8551 99.1579 51.7834 99.2106L50.2737 100.319C50.2299 100.351 50.1035 100.351 50.0597 100.319L48.5501 99.2108C48.4698 99.1518 48.4059 98.9724 48.4248 98.8894L49.8131 92.4216H50.2165L51.8918 98.9245ZM51.0362 88.0363C50.9205 88.1621 50.834 88.3073 50.768 88.4607H49.232C49.166 88.3073 49.0795 88.1621 48.9638 88.0363L45.356 85.1316C45.5062 84.8818 45.6339 84.6311 45.7433 84.3862C46.9686 85.2494 48.4237 85.7183 49.8765 85.7183C51.2846 85.7183 52.6893 85.2794 53.8786 84.3361C53.9893 84.2481 54.0966 84.1559 54.2041 84.0637C54.3332 84.3925 54.4971 84.7398 54.7011 85.0856L51.0362 88.0363ZM43.4876 69.1072C43.7484 69.023 43.9735 68.8591 44.1289 68.6402C44.1462 68.616 45.8864 66.2182 49.2224 66.2179H49.2229C50.287 66.2179 51.42 66.4644 52.5906 66.9506C52.6 66.9545 52.6094 66.9583 52.619 66.9621C52.9786 67.1013 56.1949 68.3236 58.3638 68.3236C58.3843 68.3236 58.4046 68.3236 58.4248 68.3233C58.7382 69.9469 58.5558 72.3988 55.2315 73.6832C55.2162 73.689 53.6774 74.2613 51.786 74.2613C49.9107 74.2613 48.3648 73.7107 47.1911 72.6247C46.9519 72.4034 46.6372 72.2856 46.3166 72.2856C46.1748 72.2856 46.0318 72.3087 45.8937 72.356C45.4433 72.5106 45.1219 72.8969 45.0632 73.3545L44.9823 73.9859L44.5823 73.7143C44.3636 73.5657 44.1092 73.492 43.8552 73.492C43.5725 73.492 43.2903 73.5834 43.0591 73.7644C42.8126 73.9575 42.5245 74.2484 42.2606 74.6218C41.9425 72.3704 41.9875 69.5918 43.4876 69.1072ZM42.7674 77.684C42.4206 75.8397 43.8551 74.7108 43.8551 74.7108L45.5549 75.8655C45.6497 75.939 45.7383 75.9741 45.8132 75.9741C45.9512 75.9741 46.0429 75.8551 46.0429 75.6382L46.3168 73.5045C47.9888 75.0515 50.0332 75.4801 51.786 75.4801C53.9659 75.4801 55.6948 74.817 55.6948 74.817C56.605 74.4654 57.3219 74.038 57.8844 73.5667C57.8876 73.6472 57.8947 73.7272 57.8947 73.8082C57.8947 74.6074 57.7794 75.4183 57.5521 76.2184C56.7065 79.1936 55.0751 81.8093 53.0765 83.3946C52.1651 84.1175 51.0586 84.4996 49.8765 84.4996C48.2289 84.4996 46.6276 83.7765 45.4831 82.5158C44.3061 81.2194 43.3561 79.491 42.7674 77.684ZM43.9811 86.8835L44.1198 86.7968L44.231 86.6784L44.6934 86.1853L48.0516 88.8893C48.1309 89.0217 48.1235 89.2413 48.0267 89.3524L47.9648 89.4234L47.9149 89.5025L46.6927 91.4389L43.5748 87.1375L43.9811 86.8835ZM66.5983 101.462C66.5314 102.165 65.8152 102.781 65.066 102.781H35.0177C34.2511 102.781 33.5101 102.159 33.4319 101.45C33.0159 97.6835 33.5044 94.4684 33.5093 94.4372L33.5175 94.3851L33.5209 94.3326C33.8752 88.9997 41.5153 87.7351 41.5904 87.7232L41.6019 87.7215L41.6133 87.7195C41.8663 87.6759 42.1024 87.615 42.3292 87.5456L45.8809 92.4455C46.0665 92.8321 46.3606 93.031 46.673 93.031C46.9229 93.031 47.1846 92.9036 47.4117 92.6428L48.0604 91.6151L48.5259 92.4088L47.1892 98.636C47.0651 99.186 47.3155 99.8355 47.7849 100.181L49.2946 101.289C49.5433 101.472 49.8549 101.563 50.1667 101.563C50.4785 101.563 50.7902 101.472 51.0387 101.289L52.5487 100.18C53.0183 99.8351 53.2615 99.1632 53.116 98.6239L51.5182 92.4216H51.5395L51.9702 91.6634L52.5883 92.6428C52.8154 92.9036 53.0771 93.031 53.327 93.031C53.6394 93.031 53.9335 92.8321 54.1191 92.4455L57.6855 87.5252C57.9325 87.6043 58.192 87.6716 58.4703 87.7195L58.4817 87.7214L58.4931 87.7232C58.5703 87.7351 66.2064 88.9744 66.5627 94.3326L66.5639 94.3522L66.566 94.3716C66.5695 94.408 66.9254 98.0457 66.5983 101.462Z" fill="white"/>
<path d="M23.9296 112.224C24.1696 112.048 24.5256 111.88 24.9976 111.72C25.4696 111.56 26.0416 111.48 26.7136 111.48C27.1856 111.48 27.6136 111.524 27.9976 111.612C28.3816 111.692 28.7096 111.82 28.9816 111.996C29.2616 112.164 29.4736 112.38 29.6176 112.644C29.7696 112.908 29.8456 113.224 29.8456 113.592C29.8456 114.56 29.3496 115.22 28.3576 115.572C29.6376 115.764 30.2776 116.42 30.2776 117.54C30.2776 117.9 30.2056 118.24 30.0616 118.56C29.9176 118.872 29.7016 119.144 29.4136 119.376C29.1256 119.6 28.7656 119.78 28.3336 119.916C27.9096 120.052 27.4176 120.12 26.8576 120.12C26.4736 120.12 26.1136 120.088 25.7776 120.024C25.4496 119.968 25.1496 119.892 24.8776 119.796C24.6136 119.692 24.3816 119.58 24.1816 119.46C23.9896 119.332 23.8376 119.204 23.7256 119.076V117.228C23.8536 117.444 24.0176 117.644 24.2176 117.828C24.4176 118.012 24.6496 118.172 24.9136 118.308C25.1776 118.444 25.4736 118.552 25.8016 118.632C26.1376 118.704 26.4976 118.74 26.8816 118.74C27.1376 118.74 27.3776 118.712 27.6016 118.656C27.8256 118.6 28.0176 118.52 28.1776 118.416C28.3456 118.304 28.4776 118.168 28.5736 118.008C28.6696 117.848 28.7176 117.66 28.7176 117.444C28.7176 117.068 28.5696 116.792 28.2736 116.616C27.9856 116.44 27.5136 116.352 26.8576 116.352H25.5856V115.116H26.8456C27.1176 115.116 27.3456 115.088 27.5296 115.032C27.7136 114.968 27.8616 114.884 27.9736 114.78C28.0856 114.676 28.1656 114.556 28.2136 114.42C28.2696 114.284 28.2976 114.136 28.2976 113.976C28.2976 113.784 28.2576 113.62 28.1776 113.484C28.0976 113.34 27.9856 113.224 27.8416 113.136C27.6976 113.048 27.5296 112.984 27.3376 112.944C27.1456 112.896 26.9376 112.868 26.7136 112.86C26.3936 112.852 26.0896 112.888 25.8016 112.968C25.5216 113.048 25.2616 113.16 25.0216 113.304C24.7896 113.44 24.5776 113.596 24.3856 113.772C24.2016 113.948 24.0496 114.128 23.9296 114.312V112.224ZM31.9023 114.42C32.1023 114.268 32.3783 114.14 32.7303 114.036C33.0903 113.932 33.5303 113.88 34.0503 113.88C34.9303 113.88 35.5863 114.044 36.0183 114.372C36.4503 114.7 36.6663 115.256 36.6663 116.04V120H35.3463V118.92C35.2023 119.272 34.9543 119.556 34.6023 119.772C34.2583 119.988 33.8463 120.096 33.3663 120.096C32.7583 120.096 32.2823 119.936 31.9383 119.616C31.6023 119.288 31.4343 118.828 31.4343 118.236C31.4343 117.892 31.4943 117.608 31.6143 117.384C31.7343 117.16 31.9023 116.984 32.1183 116.856C32.3343 116.72 32.5943 116.624 32.8983 116.568C33.2023 116.512 33.5383 116.484 33.9062 116.484H35.2623V116.22C35.2623 115.796 35.1583 115.504 34.9503 115.344C34.7503 115.184 34.4503 115.104 34.0503 115.104C33.4983 115.104 33.0543 115.204 32.7183 115.404C32.3823 115.596 32.1103 115.852 31.9023 116.172V114.42ZM33.8103 118.836C34.0503 118.836 34.2543 118.808 34.4223 118.752C34.5983 118.688 34.7463 118.612 34.8663 118.524C34.9863 118.428 35.0783 118.324 35.1423 118.212C35.2063 118.1 35.2463 117.992 35.2623 117.888V117.396H34.0742C33.6583 117.396 33.3503 117.444 33.1503 117.54C32.9503 117.636 32.8503 117.82 32.8503 118.092C32.8503 118.324 32.9303 118.508 33.0903 118.644C33.2583 118.772 33.4983 118.836 33.8103 118.836ZM38.2856 114H39.6896V116.34H40.6616L42.3416 114H43.9016L41.8016 116.832L44.2376 120H42.5336L40.6496 117.516H39.6896V120H38.2856V114ZM45.3554 114.42C45.5554 114.268 45.8314 114.14 46.1834 114.036C46.5434 113.932 46.9834 113.88 47.5034 113.88C48.3834 113.88 49.0394 114.044 49.4714 114.372C49.9034 114.7 50.1194 115.256 50.1194 116.04V120H48.7994V118.92C48.6554 119.272 48.4074 119.556 48.0554 119.772C47.7114 119.988 47.2994 120.096 46.8194 120.096C46.2114 120.096 45.7354 119.936 45.3914 119.616C45.0554 119.288 44.8874 118.828 44.8874 118.236C44.8874 117.892 44.9474 117.608 45.0674 117.384C45.1874 117.16 45.3554 116.984 45.5714 116.856C45.7874 116.72 46.0474 116.624 46.3514 116.568C46.6554 116.512 46.9914 116.484 47.3594 116.484H48.7154V116.22C48.7154 115.796 48.6114 115.504 48.4034 115.344C48.2034 115.184 47.9034 115.104 47.5034 115.104C46.9514 115.104 46.5074 115.204 46.1714 115.404C45.8354 115.596 45.5634 115.852 45.3554 116.172V114.42ZM47.2634 118.836C47.5034 118.836 47.7074 118.808 47.8754 118.752C48.0514 118.688 48.1994 118.612 48.3194 118.524C48.4394 118.428 48.5314 118.324 48.5954 118.212C48.6594 118.1 48.6994 117.992 48.7154 117.888V117.396H47.5274C47.1114 117.396 46.8034 117.444 46.6034 117.54C46.4034 117.636 46.3034 117.82 46.3034 118.092C46.3034 118.324 46.3834 118.508 46.5434 118.644C46.7114 118.772 46.9514 118.836 47.2634 118.836ZM51.4387 117.948C51.6147 118.212 51.8947 118.436 52.2787 118.62C52.6627 118.804 53.1387 118.896 53.7067 118.896C54.1067 118.896 54.4227 118.836 54.6547 118.716C54.8867 118.596 55.0027 118.408 55.0027 118.152C55.0027 117.92 54.9107 117.752 54.7267 117.648C54.5427 117.544 54.2467 117.492 53.8387 117.492H52.8067V116.472H53.6587C53.9867 116.472 54.2467 116.42 54.4387 116.316C54.6387 116.204 54.7387 116.02 54.7387 115.764C54.7387 115.556 54.6627 115.396 54.5107 115.284C54.3667 115.172 54.1107 115.112 53.7427 115.104C53.2387 115.104 52.8027 115.204 52.4347 115.404C52.0747 115.596 51.7787 115.852 51.5467 116.172V114.42C51.7787 114.268 52.0867 114.14 52.4707 114.036C52.8547 113.932 53.2787 113.88 53.7427 113.88H53.7907C54.6227 113.88 55.2267 114.024 55.6027 114.312C55.9787 114.592 56.1667 114.968 56.1667 115.44C56.1667 115.824 56.0747 116.12 55.8907 116.328C55.7147 116.536 55.4747 116.704 55.1707 116.832C55.5787 116.912 55.8867 117.06 56.0947 117.276C56.3107 117.484 56.4187 117.792 56.4187 118.2C56.4187 118.512 56.3507 118.788 56.2147 119.028C56.0867 119.268 55.9027 119.472 55.6627 119.64C55.4307 119.8 55.1467 119.92 54.8107 120C54.4827 120.08 54.1147 120.12 53.7067 120.12C53.4427 120.12 53.1907 120.096 52.9507 120.048C52.7107 120.008 52.4907 119.952 52.2907 119.88C52.0907 119.808 51.9147 119.732 51.7627 119.652C51.6187 119.564 51.5107 119.476 51.4387 119.388V117.948ZM61.3513 117.888C61.1433 118.008 60.9033 118.096 60.6313 118.152C60.3593 118.208 60.0833 118.236 59.8033 118.236C59.0833 118.236 58.5193 118.068 58.1113 117.732C57.7033 117.396 57.4993 116.868 57.4993 116.148V114H58.9033V115.932C58.9033 116.292 58.9993 116.56 59.1913 116.736C59.3913 116.904 59.6793 116.988 60.0553 116.988C60.5513 116.988 60.9833 116.896 61.3513 116.712V114H62.7553V120H61.3513V117.888ZM64.4656 114H65.8576V118.068L68.7376 114H70.0696V120H68.6776V115.884L65.7976 120H64.4656V114ZM71.7778 114H73.1818V116.34H74.1538L75.8338 114H77.3938L75.2938 116.832L77.7298 120H76.0258L74.1418 117.516H73.1818V120H71.7778V114Z" fill="white"/>
<circle cx="216" cy="99" r="50" fill="#F3B36A"/>
<path d="M217.3 92.4065C217.218 92.4525 215.298 93.5553 213.935 94.6221C213.607 94.8767 213.536 95.3668 213.772 95.7164C213.914 95.9274 214.137 96.041 214.361 96.041C214.51 96.041 214.66 95.9919 214.788 95.8909C216.07 94.8922 217.966 93.8039 217.982 93.7914C218.338 93.5893 218.472 93.1142 218.284 92.7311C218.094 92.345 217.65 92.207 217.3 92.4065ZM207.353 74.5034C207.123 74.7365 201.697 80.3354 202.935 92.6821C202.978 93.0832 203.294 93.3808 203.661 93.3808C203.686 93.3808 203.712 93.3808 203.74 93.3773C204.139 93.3288 204.429 92.9422 204.387 92.5101C203.228 80.9996 208.298 75.7007 208.349 75.6487C208.642 75.3517 208.657 74.855 208.38 74.5394C208.105 74.2214 207.65 74.2094 207.353 74.5034ZM236.885 83.6018C236.569 82.655 235.707 82.1494 235.178 81.9193C231.12 65.8212 221.701 65 219.842 65L219.634 65.0065C210.043 65.0065 205.062 71.5582 204.908 71.7727C199.061 78.0674 198.754 88.9952 198.742 90.6961C197.24 93.6383 195.528 95.8629 195.483 95.9274C195.013 96.6236 194.882 97.3953 195.107 98.1675C195.833 100.674 200.302 102.427 200.789 102.611C203.024 103.534 205.102 104 206.966 104C210.24 104 211.777 102.547 211.757 102.547C218.003 98.4096 223.776 93.8129 223.748 93.8129C231.118 90.203 235.684 87.4112 236.407 86.0844C237.121 84.9961 237.062 84.1349 236.885 83.6018ZM235.152 85.2907C235.106 85.3642 233.913 87.1107 223.01 92.468C222.954 92.5141 217.212 97.0927 210.889 101.297C210.878 101.306 209.657 102.431 206.966 102.431C205.281 102.431 203.377 101.999 201.293 101.137C199.645 100.515 196.884 99.0322 196.496 97.6989C196.439 97.5023 196.408 97.2268 196.633 96.8897C196.692 96.8132 197.834 95.3178 199.095 93.1387C199.189 93.8834 199.283 94.3185 199.292 94.3615C199.317 94.4751 199.365 94.5821 199.434 94.6711C201.74 97.7329 207.527 98.4436 207.772 98.4711C207.8 98.4771 207.826 98.4771 207.851 98.4771C208.073 98.4771 208.284 98.3671 208.424 98.177C208.58 97.9655 208.623 97.6804 208.537 97.4263C207.311 93.7669 208.526 90.0224 208.537 89.9824C208.671 89.5748 208.475 89.1277 208.096 88.9802C207.729 88.8391 207.305 89.0442 207.166 89.4523C207.115 89.6083 206.01 92.9827 206.827 96.7246C205.179 96.3936 202.116 95.5693 200.675 93.8224C200.564 93.2152 200.231 91.0707 200.365 87.9694C200.735 84.0744 201.962 77.1636 205.993 72.818C206.038 72.757 210.735 66.5754 219.634 66.5754C219.648 66.5754 219.828 66.5724 219.842 66.5694C221.53 66.5694 230.138 67.3476 233.868 82.726C233.936 82.9986 234.136 83.2132 234.389 83.2867C234.68 83.3662 235.369 83.6943 235.513 84.1354C235.624 84.466 235.402 84.8981 235.152 85.2907ZM229.86 84.4505C229.777 84.4965 227.858 85.5998 226.495 86.6661C226.167 86.9206 226.096 87.4107 226.333 87.7598C226.475 87.9714 226.697 88.0849 226.922 88.0849C227.07 88.0849 227.221 88.0359 227.349 87.9349C228.63 86.9361 230.526 85.8478 230.543 85.8353C230.899 85.6333 231.033 85.1582 230.845 84.7751C230.654 84.3865 230.21 84.2549 229.86 84.4505Z" fill="white"/>
<path d="M179.826 117.876L184.41 111.6H186.042V120H184.542V113.628L179.934 120H178.326V111.6H179.826V117.876ZM192.765 119.4C192.629 119.568 192.385 119.732 192.033 119.892C191.681 120.052 191.261 120.132 190.773 120.132C190.293 120.132 189.857 120.068 189.465 119.94C189.073 119.804 188.737 119.604 188.457 119.34C188.177 119.076 187.961 118.748 187.809 118.356C187.657 117.964 187.581 117.504 187.581 116.976C187.581 116.464 187.657 116.016 187.809 115.632C187.969 115.24 188.189 114.916 188.469 114.66C188.749 114.396 189.085 114.2 189.477 114.072C189.869 113.936 190.305 113.868 190.785 113.868C191.193 113.876 191.565 113.932 191.901 114.036C192.237 114.14 192.505 114.268 192.705 114.42V116.172C192.497 115.852 192.233 115.596 191.913 115.404C191.601 115.204 191.225 115.1 190.785 115.092C190.209 115.092 189.769 115.244 189.465 115.548C189.161 115.852 189.009 116.308 189.009 116.916V117.096C189.009 117.72 189.165 118.18 189.477 118.476C189.797 118.764 190.241 118.908 190.809 118.908C191.313 118.908 191.725 118.816 192.045 118.632C192.373 118.448 192.613 118.224 192.765 117.96V119.4ZM198.067 115.236H195.451V120H194.047V114H199.471V120H198.067V115.236ZM203.848 120.132C203.376 120.132 202.952 120.068 202.576 119.94C202.2 119.804 201.876 119.604 201.604 119.34C201.332 119.076 201.124 118.748 200.98 118.356C200.836 117.964 200.764 117.504 200.764 116.976C200.764 116.456 200.84 116.004 200.992 115.62C201.144 115.228 201.356 114.904 201.628 114.648C201.9 114.384 202.228 114.188 202.612 114.06C202.996 113.932 203.424 113.868 203.896 113.868C204.36 113.868 204.78 113.936 205.156 114.072C205.54 114.208 205.864 114.408 206.128 114.672C206.4 114.936 206.608 115.264 206.752 115.656C206.896 116.048 206.968 116.504 206.968 117.024C206.968 117.544 206.892 118 206.74 118.392C206.588 118.776 206.376 119.096 206.104 119.352C205.832 119.608 205.504 119.804 205.12 119.94C204.736 120.068 204.312 120.132 203.848 120.132ZM202.192 117.012C202.192 117.676 202.34 118.16 202.636 118.464C202.932 118.76 203.344 118.908 203.872 118.908C204.408 118.908 204.82 118.756 205.108 118.452C205.396 118.14 205.54 117.664 205.54 117.024V116.988C205.54 116.324 205.388 115.844 205.084 115.548C204.788 115.244 204.376 115.092 203.848 115.092C203.312 115.1 202.9 115.26 202.612 115.572C202.332 115.876 202.192 116.344 202.192 116.976V117.012ZM212.115 115.236H210.171L210.135 115.992C210.095 116.928 210.011 117.668 209.883 118.212C209.763 118.756 209.611 119.168 209.427 119.448C209.243 119.72 209.039 119.892 208.815 119.964C208.591 120.036 208.363 120.072 208.131 120.072C208.019 120.072 207.907 120.064 207.795 120.048C207.691 120.04 207.607 120.028 207.543 120.012V118.56C207.639 118.592 207.743 118.608 207.855 118.608C207.983 118.608 208.103 118.584 208.215 118.536C208.335 118.48 208.439 118.344 208.527 118.128C208.615 117.912 208.687 117.584 208.743 117.144C208.807 116.704 208.851 116.092 208.875 115.308L208.923 114H213.507V120H212.115V115.236ZM219.339 117.576H216.627V120H215.223V114H216.627V116.34H219.339V114H220.743V120H219.339V117.576ZM222.454 114H223.846V118.068L226.726 114H228.058V120H226.666V115.884L223.786 120H222.454V114ZM231.134 115.236H229.214V114H234.47V115.236H232.526V120H231.134V115.236ZM240.581 119.4C240.509 119.488 240.405 119.576 240.269 119.664C240.133 119.744 239.969 119.82 239.777 119.892C239.585 119.964 239.369 120.02 239.129 120.06C238.897 120.1 238.645 120.12 238.373 120.12C237.373 120.128 236.597 119.868 236.045 119.34C235.493 118.804 235.217 118.016 235.217 116.976C235.217 116.48 235.289 116.04 235.433 115.656C235.585 115.264 235.797 114.936 236.069 114.672C236.341 114.408 236.661 114.208 237.029 114.072C237.405 113.936 237.821 113.868 238.277 113.868C239.149 113.876 239.829 114.136 240.317 114.648C240.813 115.16 241.061 115.888 241.061 116.832V117.408H236.609C236.721 118.408 237.325 118.908 238.421 118.908C238.973 118.908 239.429 118.816 239.789 118.632C240.157 118.448 240.421 118.224 240.581 117.96V119.4ZM238.241 115.092C237.785 115.092 237.421 115.204 237.149 115.428C236.877 115.652 236.705 115.98 236.633 116.412H239.657C239.641 116.004 239.509 115.684 239.261 115.452C239.013 115.212 238.673 115.092 238.241 115.092ZM246.123 115.236H244.179L244.143 115.992C244.103 116.928 244.019 117.668 243.891 118.212C243.771 118.756 243.619 119.168 243.435 119.448C243.251 119.72 243.047 119.892 242.823 119.964C242.599 120.036 242.371 120.072 242.139 120.072C242.027 120.072 241.915 120.064 241.803 120.048C241.699 120.04 241.615 120.028 241.551 120.012V118.56C241.647 118.592 241.751 118.608 241.863 118.608C241.991 118.608 242.111 118.584 242.223 118.536C242.343 118.48 242.447 118.344 242.535 118.128C242.623 117.912 242.695 117.584 242.751 117.144C242.815 116.704 242.859 116.092 242.883 115.308L242.931 114H247.515V120H246.123V115.236ZM254.343 117.816C254.335 118.584 254.119 119.14 253.695 119.484C253.271 119.828 252.587 120 251.643 120H249.231V114H250.635V115.776H251.799C252.207 115.776 252.567 115.808 252.879 115.872C253.199 115.936 253.467 116.048 253.683 116.208C253.899 116.36 254.063 116.568 254.175 116.832C254.287 117.096 254.343 117.424 254.343 117.816ZM252.939 117.804C252.923 117.492 252.823 117.284 252.639 117.18C252.463 117.068 252.147 117.012 251.691 117.012H250.635V118.764H251.607C252.087 118.764 252.427 118.696 252.627 118.56C252.835 118.416 252.939 118.164 252.939 117.804Z" fill="white"/>
<circle cx="382" cy="99" r="50" fill="#5BD595"/>
<g opacity="0.5">
<rect x="382" y="124" width="2" height="25" fill="white"/>
<rect x="382" y="100" width="2" height="11" fill="white"/>
<rect x="382" y="44" width="5" height="55" fill="white"/>
<rect x="382" y="94" width="55" height="5" fill="white"/>
<rect x="332" y="98" width="105" height="2" fill="white"/>
</g>
<path d="M437 94C437 87.4339 435.707 80.9321 433.194 74.8658C430.681 68.7995 426.998 63.2876 422.355 58.6447C417.712 54.0017 412.2 50.3188 406.134 47.806C400.068 45.2933 393.566 44 387 44L387 94H437Z" fill="#5BD595"/>
<path d="M352.347 112.98H347.871V120H346.371V111.6H353.847V120H352.347V112.98ZM358.464 120.132C357.992 120.132 357.568 120.068 357.192 119.94C356.816 119.804 356.492 119.604 356.22 119.34C355.948 119.076 355.74 118.748 355.596 118.356C355.452 117.964 355.38 117.504 355.38 116.976C355.38 116.456 355.456 116.004 355.608 115.62C355.76 115.228 355.972 114.904 356.244 114.648C356.516 114.384 356.844 114.188 357.228 114.06C357.612 113.932 358.04 113.868 358.512 113.868C358.976 113.868 359.396 113.936 359.772 114.072C360.156 114.208 360.48 114.408 360.744 114.672C361.016 114.936 361.224 115.264 361.368 115.656C361.512 116.048 361.584 116.504 361.584 117.024C361.584 117.544 361.508 118 361.356 118.392C361.204 118.776 360.992 119.096 360.72 119.352C360.448 119.608 360.12 119.804 359.736 119.94C359.352 120.068 358.928 120.132 358.464 120.132ZM356.808 117.012C356.808 117.676 356.956 118.16 357.252 118.464C357.548 118.76 357.96 118.908 358.488 118.908C359.024 118.908 359.436 118.756 359.724 118.452C360.012 118.14 360.156 117.664 360.156 117.024V116.988C360.156 116.324 360.004 115.844 359.7 115.548C359.404 115.244 358.992 115.092 358.464 115.092C357.928 115.1 357.516 115.26 357.228 115.572C356.948 115.876 356.808 116.344 356.808 116.976V117.012ZM362.784 118.728C362.864 118.512 362.936 118.276 363 118.02C363.072 117.756 363.132 117.46 363.18 117.132C363.228 116.804 363.264 116.44 363.288 116.04C363.312 115.632 363.324 115.18 363.324 114.684V114H367.932V118.728H368.844V121.56H367.572V120H363.36V121.56H362.088V118.728H362.784ZM364.632 115.38C364.616 116.076 364.572 116.692 364.5 117.228C364.428 117.756 364.308 118.256 364.14 118.728H366.528V115.236H364.632V115.38ZM370.049 114H371.369V115.248C371.425 115.08 371.505 114.916 371.609 114.756C371.721 114.588 371.861 114.44 372.029 114.312C372.205 114.184 372.413 114.08 372.653 114C372.893 113.92 373.173 113.88 373.493 113.88C373.877 113.88 374.225 113.94 374.537 114.06C374.857 114.172 375.129 114.348 375.353 114.588C375.585 114.828 375.765 115.136 375.893 115.512C376.021 115.888 376.085 116.34 376.085 116.868C376.085 117.46 376.021 117.964 375.893 118.38C375.765 118.788 375.581 119.124 375.341 119.388C375.109 119.644 374.825 119.832 374.489 119.952C374.153 120.072 373.781 120.132 373.373 120.132C372.893 120.132 372.489 120.028 372.161 119.82C371.841 119.612 371.605 119.368 371.453 119.088V122.316H370.049V114ZM371.453 117.204C371.453 117.748 371.597 118.168 371.885 118.464C372.173 118.752 372.565 118.896 373.061 118.896C373.629 118.896 374.041 118.748 374.297 118.452C374.553 118.148 374.681 117.64 374.681 116.928C374.681 116.272 374.533 115.808 374.237 115.536C373.949 115.264 373.565 115.128 373.085 115.128C372.533 115.128 372.125 115.272 371.861 115.56C371.605 115.848 371.469 116.244 371.453 116.748V117.204ZM381.01 118.02H379.618L378.406 120H376.858L378.25 117.828C377.89 117.684 377.618 117.472 377.434 117.192C377.25 116.904 377.158 116.564 377.158 116.172C377.158 115.42 377.374 114.872 377.806 114.528C378.238 114.176 378.922 114 379.858 114H382.414V120H381.01V118.02ZM379.894 115.236C379.422 115.236 379.082 115.304 378.874 115.44C378.666 115.576 378.562 115.82 378.562 116.172C378.57 116.42 378.658 116.612 378.826 116.748C378.994 116.876 379.262 116.94 379.63 116.94H381.01V115.236H379.894ZM384.147 118.728C384.227 118.512 384.299 118.276 384.363 118.02C384.435 117.756 384.495 117.46 384.543 117.132C384.591 116.804 384.627 116.44 384.651 116.04C384.675 115.632 384.687 115.18 384.687 114.684V114H389.295V118.728H390.207V121.56H388.935V120H384.723V121.56H383.451V118.728H384.147ZM385.995 115.38C385.979 116.076 385.935 116.692 385.863 117.228C385.791 117.756 385.671 118.256 385.503 118.728H387.891V115.236H385.995V115.38ZM394.849 117.888C394.641 118.008 394.401 118.096 394.129 118.152C393.857 118.208 393.581 118.236 393.301 118.236C392.581 118.236 392.017 118.068 391.609 117.732C391.201 117.396 390.997 116.868 390.997 116.148V114H392.401V115.932C392.401 116.292 392.497 116.56 392.689 116.736C392.889 116.904 393.177 116.988 393.553 116.988C394.049 116.988 394.481 116.896 394.849 116.712V114H396.253V120H394.849V117.888ZM397.964 114H399.356V118.068L402.236 114H403.568V120H402.176V115.884L399.296 120H397.964V114ZM405.276 114H406.68V116.34H407.652L409.332 114H410.892L408.792 116.832L411.228 120H409.524L407.64 117.516H406.68V120H405.276V114ZM412.26 114H413.652V118.068L416.532 114H417.864V120H416.472V115.884L413.592 120H412.26V114Z" fill="white"/>
</svg>
