<svg width="605" height="356" viewBox="0 0 605 356" fill="none" xmlns="http://www.w3.org/2000/svg">
<circle cx="50" cy="56" r="50" fill="#7BBEFD"/>
<path d="M67.8232 51.2546C67.3983 44.8626 58.6925 43.5196 58.6925 43.5196C56.4687 43.1364 55.5624 41.2944 55.2034 40.1018C56.9128 38.2545 58.109 35.8672 58.7702 33.5408C59.0222 32.6541 59.1579 31.7285 59.1579 30.8082C59.1579 30.2846 59.1036 29.7743 59.0114 29.2764C60.1211 27.4817 59.7942 25.4805 59.531 24.5189C59.4511 24.2269 59.1489 24.0827 58.8382 24.0827C58.8048 24.0827 58.7715 24.0844 58.7382 24.0876C58.6197 24.0994 58.4947 24.1049 58.3638 24.1049C56.3764 24.1049 53.0899 22.831 53.0899 22.831C52.0873 22.4147 50.8525 22.1699 49.7717 22.0493C48.826 21.9437 47.8695 22.0011 46.9615 22.2872C45.6995 22.6847 44.5377 23.4675 43.5964 24.363C43.4038 24.5463 43.2391 24.7372 43.0867 24.9516C41.0836 25.5984 40.7447 28.0878 40.8636 30.2675C40.8522 30.4466 40.8421 30.6262 40.8421 30.8082C40.8421 34.0846 42.2848 37.8426 44.5329 40.3189C44.5986 40.3914 44.6669 40.4607 44.7352 40.5302C44.2973 41.6943 43.3615 43.1801 41.3911 43.5196C41.3911 43.5196 32.685 44.8626 32.2603 51.2546C32.2603 51.2546 31.7358 54.5953 32.1758 58.5796C32.3236 59.9184 33.6148 61 35.0177 61H65.066C66.4688 61 67.7282 59.9147 67.8562 58.5741C68.1979 55.0037 67.8232 51.2546 67.8232 51.2546ZM55.3066 43.1853L55.769 43.6784L55.8802 43.7968L56.019 43.8835L56.4253 44.1375L53.3073 48.4389L52.0852 46.5025L52.0352 46.4234L51.9734 46.3524C51.8766 46.2413 51.8691 46.0217 51.9484 45.8893L55.3066 43.1853ZM50.7913 48.2028H49.2699L48.8127 47.4233L48.9938 47.1364C49.1122 47.0004 49.1993 46.8444 49.2616 46.6794H50.7385C50.8007 46.8444 50.8878 47.0004 51.0063 47.1364L51.212 47.4624L50.7913 48.2028ZM51.8918 55.9245C51.9102 55.9924 51.8551 56.1579 51.7834 56.2106L50.2737 57.3192C50.2299 57.3513 50.1035 57.3515 50.0597 57.319L48.5501 56.2108C48.4698 56.1518 48.4059 55.9724 48.4248 55.8894L49.8131 49.4216H50.2165L51.8918 55.9245ZM51.0362 45.0363C50.9205 45.1621 50.834 45.3073 50.768 45.4607H49.232C49.166 45.3073 49.0795 45.1621 48.9638 45.0363L45.356 42.1316C45.5062 41.8818 45.6339 41.6311 45.7433 41.3862C46.9686 42.2494 48.4237 42.7183 49.8765 42.7183C51.2846 42.7183 52.6893 42.2794 53.8786 41.3361C53.9893 41.2481 54.0966 41.1559 54.2041 41.0637C54.3332 41.3925 54.4971 41.7398 54.7011 42.0856L51.0362 45.0363ZM43.4876 26.1072C43.7484 26.023 43.9735 25.8591 44.1289 25.6402C44.1462 25.616 45.8864 23.2182 49.2224 23.2179H49.2229C50.287 23.2179 51.42 23.4644 52.5906 23.9506C52.6 23.9545 52.6094 23.9583 52.619 23.9621C52.9786 24.1013 56.1949 25.3236 58.3638 25.3236C58.3843 25.3236 58.4046 25.3236 58.4248 25.3233C58.7382 26.9469 58.5558 29.3988 55.2315 30.6832C55.2162 30.689 53.6774 31.2613 51.786 31.2613C49.9107 31.2613 48.3648 30.7107 47.1911 29.6247C46.9519 29.4034 46.6372 29.2856 46.3166 29.2856C46.1748 29.2856 46.0318 29.3087 45.8937 29.356C45.4433 29.5106 45.1219 29.8969 45.0632 30.3545L44.9823 30.9859L44.5823 30.7143C44.3636 30.5657 44.1092 30.492 43.8552 30.492C43.5725 30.492 43.2903 30.5834 43.0591 30.7644C42.8126 30.9575 42.5245 31.2484 42.2606 31.6218C41.9425 29.3704 41.9875 26.5918 43.4876 26.1072ZM42.7674 34.684C42.4206 32.8397 43.8551 31.7108 43.8551 31.7108L45.5549 32.8655C45.6497 32.939 45.7383 32.9741 45.8132 32.9741C45.9512 32.9741 46.0429 32.8551 46.0429 32.6382L46.3168 30.5045C47.9888 32.0515 50.0332 32.4801 51.786 32.4801C53.9659 32.4801 55.6948 31.817 55.6948 31.817C56.605 31.4654 57.3219 31.038 57.8844 30.5667C57.8876 30.6472 57.8947 30.7272 57.8947 30.8082C57.8947 31.6074 57.7794 32.4183 57.5521 33.2184C56.7065 36.1936 55.0751 38.8093 53.0765 40.3946C52.1651 41.1175 51.0586 41.4996 49.8765 41.4996C48.2289 41.4996 46.6276 40.7765 45.4831 39.5158C44.3061 38.2194 43.3561 36.491 42.7674 34.684ZM43.9811 43.8835L44.1198 43.7968L44.231 43.6784L44.6934 43.1853L48.0516 45.8893C48.1309 46.0217 48.1235 46.2413 48.0267 46.3524L47.9648 46.4234L47.9149 46.5025L46.6927 48.4389L43.5748 44.1375L43.9811 43.8835ZM66.5983 58.4624C66.5314 59.1649 65.8152 59.7813 65.066 59.7813H35.0177C34.2511 59.7813 33.5101 59.1594 33.4319 58.4505C33.0159 54.6835 33.5044 51.4684 33.5093 51.4372L33.5175 51.3851L33.5209 51.3326C33.8752 45.9997 41.5153 44.7351 41.5904 44.7232L41.6019 44.7215L41.6133 44.7195C41.8663 44.6759 42.1024 44.615 42.3292 44.5456L45.8809 49.4455C46.0665 49.8321 46.3606 50.031 46.673 50.031C46.9229 50.031 47.1846 49.9036 47.4117 49.6428L48.0604 48.6151L48.5259 49.4088L47.1892 55.636C47.0651 56.186 47.3155 56.8355 47.7849 57.1806L49.2946 58.289C49.5433 58.4717 49.8549 58.563 50.1667 58.563C50.4785 58.563 50.7902 58.4716 51.0387 58.289L52.5487 57.1803C53.0183 56.8351 53.2615 56.1632 53.116 55.6239L51.5182 49.4216H51.5395L51.9702 48.6634L52.5883 49.6428C52.8154 49.9036 53.0771 50.031 53.327 50.031C53.6394 50.031 53.9335 49.8321 54.1191 49.4455L57.6855 44.5252C57.9325 44.6043 58.192 44.6716 58.4703 44.7195L58.4817 44.7214L58.4931 44.7232C58.5703 44.7351 66.2064 45.9744 66.5627 51.3326L66.5639 51.3522L66.566 51.3716C66.5695 51.408 66.9254 55.0457 66.5983 58.4624Z" fill="white"/>
<path d="M20.594 74.364H21.926L24.974 78H26.894L23.174 73.596L26.378 69.6H24.554L21.854 73.128H20.594V69.6H19.094V78H20.594V74.364ZM30.2839 78.132C32.1439 78.12 33.4039 77.1 33.4039 75.024C33.4039 72.936 32.1919 71.88 30.3319 71.868C28.4599 71.868 27.1999 72.9 27.1999 74.976C27.1999 77.076 28.4119 78.132 30.2839 78.132ZM28.6279 74.976C28.6279 73.716 29.2159 73.104 30.2839 73.092C31.3399 73.092 31.9759 73.668 31.9759 74.988V75.024C31.9759 76.296 31.3759 76.908 30.3079 76.908C29.2519 76.908 28.6279 76.332 28.6279 75.012V74.976ZM38.8137 78H40.2177V72H38.8137V74.34H36.1017V72H34.6977V78H36.1017V75.576H38.8137V78ZM41.9165 78H46.8965V79.56H48.1685V76.728H47.2685V72H45.8645V76.728H43.3205V72H41.9165V78ZM54.2201 77.4V75.96C53.8961 76.488 53.1641 76.908 52.0601 76.908C50.9681 76.908 50.3561 76.404 50.2481 75.408H54.7001V74.832C54.7001 72.948 53.6561 71.88 51.9161 71.868C50.1041 71.868 48.8561 72.984 48.8561 74.976C48.8561 77.04 50.0321 78.132 52.0121 78.12C53.1041 78.132 53.9321 77.736 54.2201 77.4ZM51.8801 73.092C52.7321 73.092 53.2601 73.596 53.2961 74.412H50.2721C50.4161 73.548 50.9801 73.092 51.8801 73.092ZM55.2015 76.728V79.56H56.4735V78H60.6855V79.56H61.9575V76.728H61.0455V72H56.4375V72.684C56.4375 74.676 56.2335 75.864 55.8975 76.728H55.2015ZM57.7455 73.38V73.236H59.6415V76.728H57.2535C57.5895 75.792 57.7095 74.76 57.7455 73.38ZM68.0014 77.4V75.96C67.6774 76.488 66.9454 76.908 65.8414 76.908C64.7494 76.908 64.1374 76.404 64.0294 75.408H68.4814V74.832C68.4814 72.948 67.4374 71.88 65.6974 71.868C63.8854 71.868 62.6374 72.984 62.6374 74.976C62.6374 77.04 63.8134 78.132 65.7934 78.12C66.8854 78.132 67.7134 77.736 68.0014 77.4ZM65.6614 73.092C66.5134 73.092 67.0414 73.596 67.0774 74.412H64.0534C64.1974 73.548 64.7614 73.092 65.6614 73.092ZM73.8879 78H75.2919V72H73.8879V74.34H71.1759V72H69.7719V78H71.1759V75.576H73.8879V78ZM78.3587 78H79.7507V73.236H81.6947V72H76.4387V73.236H78.3587V78ZM27.7784 83.86L27.2584 83.44C26.5384 83.93 25.1184 85.74 25.1184 88.22C25.1184 90.69 26.5384 92.49 27.2584 92.98L27.7784 92.56C27.3584 92.13 26.2984 90.59 26.2984 88.21C26.2984 85.83 27.3584 84.29 27.7784 83.86ZM28.3897 90.49C28.6397 90.77 29.3997 91.1 30.2797 91.1C31.6297 91.1 32.5397 90.55 32.5397 89.5C32.5397 88.83 32.1697 88.49 31.4997 88.36C31.9997 88.15 32.3297 87.83 32.3297 87.2C32.3297 86.41 31.7397 85.9 30.3497 85.9H30.3097C29.5397 85.9 28.8597 86.1 28.4797 86.35V87.81C28.8697 87.28 29.4697 86.92 30.3097 86.92C30.9197 86.93 31.1397 87.13 31.1397 87.47C31.1397 87.89 30.7797 88.06 30.2397 88.06H29.5297V88.91H30.3897C31.0697 88.91 31.3597 89.07 31.3597 89.46C31.3597 89.88 30.9397 90.08 30.2797 90.08C29.3397 90.08 28.6797 89.73 28.3897 89.29V90.49ZM33.7402 87.81C34.0802 87.28 34.6102 86.92 35.5302 86.92C36.2002 86.92 36.5402 87.14 36.5402 87.85V88.07H35.4102C34.1802 88.07 33.3502 88.39 33.3502 89.53C33.3502 90.51 33.9502 91.08 34.9602 91.08C35.7602 91.08 36.3702 90.68 36.6102 90.1V91H37.7102V87.7C37.7102 86.4 36.9902 85.9 35.5302 85.9C34.6702 85.9 34.0702 86.1 33.7402 86.35V87.81ZM35.3302 90.03C34.8102 90.03 34.5302 89.79 34.5302 89.41C34.5302 88.96 34.8602 88.83 35.5502 88.83H36.5402V89.24C36.4902 89.58 36.1202 90.03 35.3302 90.03ZM39.0596 91H40.2296V88.93H41.0296L42.5996 91H44.0196L41.9896 88.36L43.7396 86H42.4396L41.0396 87.95H40.2296V86H39.0596V91ZM44.9511 87.81C45.2911 87.28 45.8211 86.92 46.7411 86.92C47.4111 86.92 47.7511 87.14 47.7511 87.85V88.07H46.6211C45.3911 88.07 44.5611 88.39 44.5611 89.53C44.5611 90.51 45.1611 91.08 46.1711 91.08C46.9711 91.08 47.5811 90.68 47.8211 90.1V91H48.9211V87.7C48.9211 86.4 48.2011 85.9 46.7411 85.9C45.8811 85.9 45.2811 86.1 44.9511 86.35V87.81ZM46.5411 90.03C46.0211 90.03 45.7411 89.79 45.7411 89.41C45.7411 88.96 46.0711 88.83 46.7611 88.83H47.7511V89.24C47.7011 89.58 47.3311 90.03 46.5411 90.03ZM50.0205 90.49C50.2705 90.77 51.0305 91.1 51.9105 91.1C53.2605 91.1 54.1705 90.55 54.1705 89.5C54.1705 88.83 53.8005 88.49 53.1305 88.36C53.6305 88.15 53.9605 87.83 53.9605 87.2C53.9605 86.41 53.3705 85.9 51.9805 85.9H51.9405C51.1705 85.9 50.4905 86.1 50.1105 86.35V87.81C50.5005 87.28 51.1005 86.92 51.9405 86.92C52.5505 86.93 52.7705 87.13 52.7705 87.47C52.7705 87.89 52.4105 88.06 51.8705 88.06H51.1605V88.91H52.0205C52.7005 88.91 52.9905 89.07 52.9905 89.46C52.9905 89.88 52.5705 90.08 51.9105 90.08C50.9705 90.08 50.3105 89.73 50.0205 89.29V90.49ZM58.281 91H59.451V86H58.281V88.26C57.981 88.41 57.601 88.49 57.201 88.49C56.581 88.49 56.241 88.21 56.241 87.61V86H55.071V87.79C55.071 88.99 55.791 89.53 56.991 89.53C57.451 89.53 57.931 89.44 58.281 89.24V91ZM60.8763 90.93H61.0263V91H61.9863L62.0363 90.93L64.3863 87.57V91H65.5463V86.08H65.3863V86H64.4363L62.0363 89.39V86H60.8763V90.93ZM66.9698 91H68.1398V88.93H68.9398L70.5098 91H71.9298L69.8998 88.36L71.6498 86H70.3498L68.9498 87.95H68.1398V86H66.9698V91ZM73.7103 88.2C73.7103 90.58 72.6503 92.12 72.2303 92.55L72.7503 92.97C73.4703 92.48 74.8903 90.67 74.8903 88.2C74.8803 85.73 73.4703 83.93 72.7503 83.44L72.2303 83.86C72.6503 84.29 73.7003 85.82 73.7103 88.2Z" fill="white"/>
<circle cx="300" cy="56" r="50" fill="#F3B36A"/>
<path d="M301.3 49.4065C301.218 49.4525 299.298 50.5553 297.935 51.6221C297.607 51.8767 297.536 52.3668 297.772 52.7164C297.914 52.9274 298.137 53.041 298.361 53.041C298.51 53.041 298.66 52.9919 298.788 52.8909C300.07 51.8922 301.966 50.8039 301.982 50.7914C302.338 50.5893 302.472 50.1142 302.284 49.7311C302.094 49.345 301.65 49.207 301.3 49.4065ZM291.353 31.5034C291.123 31.7365 285.697 37.3354 286.935 49.6821C286.978 50.0832 287.294 50.3808 287.661 50.3808C287.686 50.3808 287.712 50.3808 287.74 50.3773C288.139 50.3288 288.429 49.9422 288.387 49.5101C287.228 37.9996 292.298 32.7007 292.349 32.6487C292.642 32.3517 292.657 31.855 292.38 31.5394C292.105 31.2214 291.65 31.2094 291.353 31.5034ZM320.885 40.6018C320.569 39.655 319.707 39.1494 319.178 38.9193C315.12 22.8212 305.701 22 303.842 22L303.634 22.0065C294.043 22.0065 289.062 28.5582 288.908 28.7727C283.061 35.0674 282.754 45.9952 282.742 47.6961C281.24 50.6383 279.528 52.8629 279.483 52.9274C279.013 53.6236 278.882 54.3953 279.107 55.1675C279.833 57.6741 284.302 59.4271 284.789 59.6111C287.024 60.5339 289.102 61 290.966 61C294.24 61 295.777 59.5471 295.757 59.5471C302.003 55.4096 307.776 50.8129 307.748 50.8129C315.118 47.203 319.684 44.4112 320.407 43.0844C321.121 41.9961 321.062 41.1349 320.885 40.6018ZM319.152 42.2907C319.106 42.3642 317.913 44.1107 307.01 49.468C306.954 49.5141 301.212 54.0927 294.889 58.2973C294.878 58.3063 293.657 59.4306 290.966 59.4306C289.281 59.4306 287.377 58.999 285.293 58.1373C283.645 57.5151 280.884 56.0322 280.496 54.6989C280.439 54.5023 280.408 54.2268 280.633 53.8897C280.692 53.8132 281.834 52.3178 283.095 50.1387C283.189 50.8834 283.283 51.3185 283.292 51.3615C283.317 51.4751 283.365 51.5821 283.434 51.6711C285.74 54.7329 291.527 55.4436 291.772 55.4711C291.8 55.4771 291.826 55.4771 291.851 55.4771C292.073 55.4771 292.284 55.3671 292.424 55.177C292.58 54.9655 292.623 54.6804 292.537 54.4263C291.311 50.7669 292.526 47.0224 292.537 46.9824C292.671 46.5748 292.475 46.1277 292.096 45.9801C291.729 45.8391 291.305 46.0442 291.166 46.4523C291.115 46.6083 290.01 49.9827 290.827 53.7246C289.179 53.3936 286.116 52.5693 284.675 50.8224C284.564 50.2152 284.231 48.0707 284.365 44.9694C284.735 41.0744 285.962 34.1636 289.993 29.818C290.038 29.757 294.735 23.5754 303.634 23.5754C303.648 23.5754 303.828 23.5724 303.842 23.5694C305.53 23.5694 314.138 24.3476 317.868 39.726C317.936 39.9986 318.136 40.2132 318.389 40.2867C318.68 40.3662 319.369 40.6943 319.513 41.1354C319.624 41.466 319.402 41.8981 319.152 42.2907ZM313.86 41.4505C313.777 41.4965 311.858 42.5998 310.495 43.6661C310.167 43.9206 310.096 44.4107 310.333 44.7598C310.475 44.9714 310.697 45.0849 310.922 45.0849C311.07 45.0849 311.221 45.0359 311.349 44.9349C312.63 43.9361 314.526 42.8478 314.543 42.8353C314.899 42.6333 315.033 42.1582 314.845 41.7751C314.654 41.3865 314.21 41.2549 313.86 41.4505Z" fill="white"/>
<path d="M260.699 74.364H262.031L265.079 78H266.999L263.279 73.596L266.483 69.6H264.659L261.959 73.128H260.699V69.6H259.199V78H260.699V74.364ZM270.389 78.132C272.249 78.12 273.509 77.1 273.509 75.024C273.509 72.936 272.297 71.88 270.437 71.868C268.565 71.868 267.305 72.9 267.305 74.976C267.305 77.076 268.517 78.132 270.389 78.132ZM268.733 74.976C268.733 73.716 269.321 73.104 270.389 73.092C271.445 73.092 272.081 73.668 272.081 74.988V75.024C272.081 76.296 271.481 76.908 270.413 76.908C269.357 76.908 268.733 76.332 268.733 75.012V74.976ZM278.919 78H280.323V72H278.919V74.34H276.207V72H274.803V78H276.207V75.576H278.919V78ZM282.022 78H287.002V79.56H288.274V76.728H287.374V72H285.97V76.728H283.426V72H282.022V78ZM294.326 77.4V75.96C294.002 76.488 293.27 76.908 292.166 76.908C291.074 76.908 290.462 76.404 290.354 75.408H294.806V74.832C294.806 72.948 293.762 71.88 292.022 71.868C290.21 71.868 288.962 72.984 288.962 74.976C288.962 77.04 290.138 78.132 292.118 78.12C293.21 78.132 294.038 77.736 294.326 77.4ZM291.986 73.092C292.838 73.092 293.366 73.596 293.402 74.412H290.378C290.522 73.548 291.086 73.092 291.986 73.092ZM300.872 77.4V75.96C300.572 76.488 299.912 76.908 298.916 76.908C297.788 76.908 297.116 76.332 297.116 75.096V74.916C297.116 73.704 297.74 73.092 298.892 73.092C299.768 73.104 300.404 73.536 300.812 74.172V72.42C300.416 72.12 299.696 71.88 298.892 71.868C296.984 71.88 295.688 72.912 295.688 74.976C295.688 77.076 296.96 78.132 298.88 78.132C299.852 78.132 300.608 77.736 300.872 77.4ZM306.778 77.4V75.96C306.478 76.488 305.818 76.908 304.822 76.908C303.694 76.908 303.022 76.332 303.022 75.096V74.916C303.022 73.704 303.646 73.092 304.798 73.092C305.674 73.104 306.31 73.536 306.718 74.172V72.42C306.322 72.12 305.602 71.88 304.798 71.868C302.89 71.88 301.594 72.912 301.594 74.976C301.594 77.076 302.866 78.132 304.786 78.132C305.758 78.132 306.514 77.736 306.778 77.4ZM308.073 77.916H308.253V78H309.405L309.465 77.916L312.285 73.884V78H313.677V72.096H313.485V72H312.345L309.465 76.068V72H308.073V77.916ZM318.061 78.132C319.921 78.12 321.181 77.1 321.181 75.024C321.181 72.936 319.969 71.88 318.109 71.868C316.237 71.868 314.977 72.9 314.977 74.976C314.977 77.076 316.189 78.132 318.061 78.132ZM316.405 74.976C316.405 73.716 316.993 73.104 318.061 73.092C319.117 73.092 319.753 73.668 319.753 74.988V75.024C319.753 76.296 319.153 76.908 318.085 76.908C317.029 76.908 316.405 76.332 316.405 75.012V74.976ZM326.591 78H327.995V72H326.591V74.34H323.879V72H322.475V78H323.879V75.576H326.591V78ZM334.65 77.4V75.96C334.326 76.488 333.594 76.908 332.49 76.908C331.398 76.908 330.786 76.404 330.678 75.408H335.13V74.832C335.13 72.948 334.086 71.88 332.346 71.868C330.534 71.868 329.286 72.984 329.286 74.976C329.286 77.04 330.462 78.132 332.442 78.12C333.534 78.132 334.362 77.736 334.65 77.4ZM332.31 73.092C333.162 73.092 333.69 73.596 333.726 74.412H330.702C330.846 73.548 331.41 73.092 332.31 73.092ZM336.42 80.316H337.824V77.088C338.124 77.652 338.784 78.132 339.744 78.132C341.388 78.132 342.456 77.232 342.456 74.868C342.456 72.768 341.388 71.88 339.864 71.88C338.592 71.88 337.956 72.576 337.74 73.248V72H336.42V80.316ZM337.824 74.748C337.848 73.74 338.352 73.128 339.456 73.128C340.416 73.128 341.052 73.608 341.052 74.928C341.052 76.344 340.56 76.896 339.432 76.896C338.448 76.896 337.824 76.284 337.824 75.204V74.748ZM269.118 83.86L268.598 83.44C267.878 83.93 266.458 85.74 266.458 88.22C266.458 90.69 267.878 92.49 268.598 92.98L269.118 92.56C268.698 92.13 267.638 90.59 267.638 88.21C267.638 85.83 268.698 84.29 269.118 83.86ZM269.99 90.93H270.14V91H271.1L271.15 90.93L273.5 87.57V91H274.66V86.08H274.5V86H273.55L271.15 89.39V86H269.99V90.93ZM280.063 90.5V89.3C279.813 89.74 279.263 90.09 278.433 90.09C277.493 90.09 276.933 89.61 276.933 88.58V88.43C276.933 87.42 277.453 86.91 278.413 86.91C279.143 86.92 279.673 87.28 280.013 87.81V86.35C279.683 86.1 279.083 85.9 278.413 85.89C276.823 85.9 275.743 86.76 275.743 88.48C275.743 90.23 276.803 91.11 278.403 91.11C279.213 91.11 279.843 90.78 280.063 90.5ZM284.482 91H285.652V86H281.132V91H282.302V87.03H284.482V91ZM289.299 91.11C290.849 91.1 291.899 90.25 291.899 88.52C291.899 86.78 290.889 85.9 289.339 85.89C287.779 85.89 286.729 86.75 286.729 88.48C286.729 90.23 287.739 91.11 289.299 91.11ZM287.919 88.48C287.919 87.43 288.409 86.92 289.299 86.91C290.179 86.91 290.709 87.39 290.709 88.49V88.52C290.709 89.58 290.209 90.09 289.319 90.09C288.439 90.09 287.919 89.61 287.919 88.51V88.48ZM296.188 91H297.348V86H293.528L293.488 87.09C293.418 89.7 293.068 89.84 292.638 89.84C292.558 89.84 292.468 89.83 292.378 89.8V91.01C292.478 91.04 292.678 91.06 292.868 91.06C293.648 91.06 294.408 90.78 294.538 87.66L294.568 87.03H296.188V91ZM302.208 91H303.378V86H302.208V87.95H299.948V86H298.778V91H299.948V88.98H302.208V91ZM304.804 90.93H304.954V91H305.914L305.964 90.93L308.314 87.57V91H309.474V86.08H309.314V86H308.364L305.964 89.39V86H304.804V90.93ZM312.038 91H313.198V87.03H314.818V86H310.438V87.03H312.038V91ZM319.91 90.5V89.3C319.64 89.74 319.03 90.09 318.11 90.09C317.2 90.09 316.69 89.67 316.6 88.84H320.31V88.36C320.31 86.79 319.44 85.9 317.99 85.89C316.48 85.89 315.44 86.82 315.44 88.48C315.44 90.2 316.42 91.11 318.07 91.1C318.98 91.11 319.67 90.78 319.91 90.5ZM317.96 86.91C318.67 86.91 319.11 87.33 319.14 88.01H316.62C316.74 87.29 317.21 86.91 317.96 86.91ZM324.528 91H325.688V86H321.868L321.828 87.09C321.758 89.7 321.408 89.84 320.978 89.84C320.898 89.84 320.808 89.83 320.718 89.8V91.01C320.818 91.04 321.018 91.06 321.208 91.06C321.988 91.06 322.748 90.78 322.878 87.66L322.908 87.03H324.528V91ZM331.378 89.18C331.378 87.87 330.618 87.48 329.258 87.48H328.288V86H327.118V91H329.128C330.688 91 331.368 90.45 331.378 89.18ZM330.208 89.17C330.208 89.77 329.898 89.97 329.098 89.97H328.288V88.51H329.168C329.928 88.51 330.188 88.65 330.208 89.17ZM333.37 88.2C333.37 90.58 332.31 92.12 331.89 92.55L332.41 92.97C333.13 92.48 334.55 90.67 334.55 88.2C334.54 85.73 333.13 83.93 332.41 83.44L331.89 83.86C332.31 84.29 333.36 85.82 333.37 88.2Z" fill="white"/>
<circle cx="550" cy="56" r="50" fill="#5BD595"/>
<g opacity="0.5">
<rect x="550" y="81" width="2" height="25" fill="white"/>
<rect x="550" y="57" width="2" height="11" fill="white"/>
<rect x="550" y="1" width="5" height="55" fill="white"/>
<rect x="550" y="51" width="55" height="5" fill="white"/>
<rect x="500" y="55" width="105" height="2" fill="white"/>
</g>
<path d="M605 51C605 44.4339 603.707 37.9321 601.194 31.8658C598.681 25.7995 594.998 20.2876 590.355 15.6447C585.712 11.0017 580.2 7.31876 574.134 4.80602C568.068 2.29329 561.566 1 555 1L555 51H605Z" fill="#5BD595"/>
<path d="M520.341 78H521.841V69.6H514.365V78H515.865V70.98H520.341V78ZM526.458 78.132C528.318 78.12 529.578 77.1 529.578 75.024C529.578 72.936 528.366 71.88 526.506 71.868C524.634 71.868 523.374 72.9 523.374 74.976C523.374 77.076 524.586 78.132 526.458 78.132ZM524.802 74.976C524.802 73.716 525.39 73.104 526.458 73.092C527.514 73.092 528.15 73.668 528.15 74.988V75.024C528.15 76.296 527.55 76.908 526.482 76.908C525.426 76.908 524.802 76.332 524.802 75.012V74.976ZM530.082 76.728V79.56H531.354V78H535.566V79.56H536.838V76.728H535.926V72H531.318V72.684C531.318 74.676 531.114 75.864 530.778 76.728H530.082ZM532.626 73.38V73.236H534.522V76.728H532.134C532.47 75.792 532.59 74.76 532.626 73.38ZM538.043 80.316H539.447V77.088C539.747 77.652 540.407 78.132 541.367 78.132C543.011 78.132 544.079 77.232 544.079 74.868C544.079 72.768 543.011 71.88 541.487 71.88C540.215 71.88 539.579 72.576 539.363 73.248V72H538.043V80.316ZM539.447 74.748C539.471 73.74 539.975 73.128 541.079 73.128C542.039 73.128 542.675 73.608 542.675 74.928C542.675 76.344 542.183 76.896 541.055 76.896C540.071 76.896 539.447 76.284 539.447 75.204V74.748ZM549.016 78H550.42V72H547.864C546.004 72 545.164 72.672 545.164 74.172C545.164 74.952 545.548 75.54 546.256 75.828L544.864 78H546.412L547.624 76.02H549.016V78ZM547.9 73.236H549.016V74.94H547.636C546.904 74.94 546.58 74.664 546.568 74.172C546.568 73.476 546.964 73.236 547.9 73.236ZM551.457 76.728V79.56H552.729V78H556.941V79.56H558.213V76.728H557.301V72H552.693V72.684C552.693 74.676 552.489 75.864 552.153 76.728H551.457ZM554.001 73.38V73.236H555.897V76.728H553.509C553.845 75.792 553.965 74.76 554.001 73.38ZM562.855 78H564.259V72H562.855V74.712C562.495 74.892 562.039 74.988 561.559 74.988C560.815 74.988 560.407 74.652 560.407 73.932V72H559.003V74.148C559.003 75.588 559.867 76.236 561.307 76.236C561.859 76.236 562.435 76.128 562.855 75.888V78ZM565.969 77.916H566.149V78H567.301L567.361 77.916L570.181 73.884V78H571.573V72.096H571.381V72H570.241L567.361 76.068V72H565.969V77.916ZM573.282 78H574.686V75.516H575.646L577.53 78H579.234L576.798 74.832L578.898 72H577.338L575.658 74.34H574.686V72H573.282V78ZM580.266 77.916H580.446V78H581.598L581.658 77.916L584.478 73.884V78H585.87V72.096H585.678V72H584.538L581.658 76.068V72H580.266V77.916Z" fill="white"/>
<circle cx="300" cy="306" r="50" fill="#5BD595"/>
<path d="M287.096 328H290.204C292.352 328 293.72 327.04 293.72 325.192C293.72 323.344 292.544 322.48 290.24 322.48H288.596V320.98H293.06V319.6H287.096V328ZM290.192 323.86C291.488 323.86 292.16 324.148 292.16 325.156C292.16 326.272 291.392 326.62 290.192 326.62H288.596V323.86H290.192ZM295.273 324.172C295.681 323.536 296.317 323.104 297.421 323.104C298.225 323.104 298.633 323.368 298.633 324.22V324.484H297.277C295.801 324.484 294.805 324.868 294.805 326.236C294.805 327.412 295.525 328.096 296.737 328.096C297.697 328.096 298.429 327.616 298.717 326.92V328H300.037V324.04C300.037 322.48 299.173 321.88 297.421 321.88C296.389 321.88 295.669 322.12 295.273 322.42V324.172ZM297.181 326.836C296.557 326.836 296.221 326.548 296.221 326.092C296.221 325.552 296.617 325.396 297.445 325.396H298.633V325.888C298.573 326.296 298.129 326.836 297.181 326.836ZM305.773 328H307.177V322H305.773V324.34H303.061V322H301.657V328H303.061V325.576H305.773V328ZM308.875 328H310.279V325.516H311.239L313.123 328H314.827L312.391 324.832L314.491 322H312.931L311.251 324.34H310.279V322H308.875V328Z" fill="white"/>
<path d="M299.872 273.094L282.219 281.594V286.016H318.781V281.57L299.872 273.094ZM316.344 283.578H284.656V283.125L299.909 275.781L316.344 283.149V283.578Z" fill="white" stroke="#5BD595"/>
<path d="M284.656 303.078H316.344V305.516H284.656V303.078Z" fill="white" stroke="#5BD595"/>
<path d="M282.219 307.344H318.781V309.781H282.219V307.344Z" fill="white" stroke="#5BD595"/>
<path d="M285.266 288.453H287.703V300.641H285.266V288.453Z" fill="white" stroke="#5BD595"/>
<path d="M313.297 288.453H315.734V300.641H313.297V288.453Z" fill="white" stroke="#5BD595"/>
<path d="M305.984 288.453H308.422V300.641H305.984V288.453Z" fill="white" stroke="#5BD595"/>
<path d="M292.578 288.453H295.016V300.641H292.578V288.453Z" fill="white" stroke="#5BD595"/>
<path d="M299.281 288.453H301.719V300.641H299.281V288.453Z" fill="white" stroke="#5BD595"/>
<circle cx="550" cy="306" r="50" fill="#5BD595"/>
<path d="M537.096 328H540.204C542.352 328 543.72 327.04 543.72 325.192C543.72 323.344 542.544 322.48 540.24 322.48H538.596V320.98H543.06V319.6H537.096V328ZM540.192 323.86C541.488 323.86 542.16 324.148 542.16 325.156C542.16 326.272 541.392 326.62 540.192 326.62H538.596V323.86H540.192ZM545.273 324.172C545.681 323.536 546.317 323.104 547.421 323.104C548.225 323.104 548.633 323.368 548.633 324.22V324.484H547.277C545.801 324.484 544.805 324.868 544.805 326.236C544.805 327.412 545.525 328.096 546.737 328.096C547.697 328.096 548.429 327.616 548.717 326.92V328H550.037V324.04C550.037 322.48 549.173 321.88 547.421 321.88C546.389 321.88 545.669 322.12 545.273 322.42V324.172ZM547.181 326.836C546.557 326.836 546.221 326.548 546.221 326.092C546.221 325.552 546.617 325.396 547.445 325.396H548.633V325.888C548.573 326.296 548.129 326.836 547.181 326.836ZM555.773 328H557.177V322H555.773V324.34H553.061V322H551.657V328H553.061V325.576H555.773V328ZM558.875 328H560.279V325.516H561.239L563.123 328H564.827L562.391 324.832L564.491 322H562.931L561.251 324.34H560.279V322H558.875V328Z" fill="white"/>
<path d="M549.872 273.094L532.219 281.594V286.016H568.781V281.57L549.872 273.094ZM566.344 283.578H534.656V283.125L549.909 275.781L566.344 283.149V283.578Z" fill="white" stroke="#5BD595"/>
<path d="M534.656 303.078H566.344V305.516H534.656V303.078Z" fill="white" stroke="#5BD595"/>
<path d="M532.219 307.344H568.781V309.781H532.219V307.344Z" fill="white" stroke="#5BD595"/>
<path d="M535.266 288.453H537.703V300.641H535.266V288.453Z" fill="white" stroke="#5BD595"/>
<path d="M563.297 288.453H565.734V300.641H563.297V288.453Z" fill="white" stroke="#5BD595"/>
<path d="M555.984 288.453H558.422V300.641H555.984V288.453Z" fill="white" stroke="#5BD595"/>
<path d="M542.578 288.453H545.016V300.641H542.578V288.453Z" fill="white" stroke="#5BD595"/>
<path d="M549.281 288.453H551.719V300.641H549.281V288.453Z" fill="white" stroke="#5BD595"/>
<path d="M235.354 56.3536C235.549 56.1583 235.549 55.8417 235.354 55.6465L232.172 52.4645C231.976 52.2692 231.66 52.2692 231.464 52.4645C231.269 52.6597 231.269 52.9763 231.464 53.1716L234.293 56L231.464 58.8284C231.269 59.0237 231.269 59.3403 231.464 59.5355C231.66 59.7308 231.976 59.7308 232.172 59.5355L235.354 56.3536ZM175 56.5L177.5 56.5L177.5 55.5L175 55.5L175 56.5ZM182.5 56.5L187.5 56.5L187.5 55.5L182.5 55.5L182.5 56.5ZM192.5 56.5L197.5 56.5L197.5 55.5L192.5 55.5L192.5 56.5ZM202.5 56.5L207.5 56.5L207.5 55.5L202.5 55.5L202.5 56.5ZM212.5 56.5L217.5 56.5L217.5 55.5L212.5 55.5L212.5 56.5ZM222.5 56.5L227.5 56.5L227.5 55.5L222.5 55.5L222.5 56.5ZM232.5 56.5L235 56.5L235 55.5L232.5 55.5L232.5 56.5ZM235.707 56.7071C236.098 56.3166 236.098 55.6834 235.707 55.2929L229.343 48.9289C228.953 48.5384 228.319 48.5384 227.929 48.9289C227.538 49.3195 227.538 49.9526 227.929 50.3432L233.586 56L227.929 61.6569C227.538 62.0474 227.538 62.6805 227.929 63.0711C228.319 63.4616 228.953 63.4616 229.343 63.0711L235.707 56.7071ZM175 57L177.5 57L177.5 55L175 55L175 57ZM182.5 57L187.5 57L187.5 55L182.5 55L182.5 57ZM192.5 57L197.5 57L197.5 55L192.5 55L192.5 57ZM202.5 57L207.5 57L207.5 55L202.5 55L202.5 57ZM212.5 57L217.5 57L217.5 55L212.5 55L212.5 57ZM222.5 57L227.5 57L227.5 55L222.5 55L222.5 57ZM232.5 57L235 57L235 55L232.5 55L232.5 57Z" fill="#404040"/>
<path d="M114.646 56.3536C114.451 56.1583 114.451 55.8417 114.646 55.6464L117.828 52.4645C118.024 52.2692 118.34 52.2692 118.536 52.4645C118.731 52.6597 118.731 52.9763 118.536 53.1716L115.707 56L118.536 58.8284C118.731 59.0237 118.731 59.3403 118.536 59.5355C118.34 59.7308 118.024 59.7308 117.828 59.5355L114.646 56.3536ZM175 56.5H172.5V55.5H175V56.5ZM167.5 56.5H162.5V55.5H167.5V56.5ZM157.5 56.5H152.5V55.5H157.5V56.5ZM147.5 56.5H142.5V55.5H147.5V56.5ZM137.5 56.5H132.5V55.5H137.5V56.5ZM127.5 56.5H122.5V55.5H127.5V56.5ZM117.5 56.5H115V55.5H117.5V56.5ZM114.293 56.7071C113.902 56.3166 113.902 55.6834 114.293 55.2929L120.657 48.9289C121.047 48.5384 121.681 48.5384 122.071 48.9289C122.462 49.3195 122.462 49.9526 122.071 50.3431L116.414 56L122.071 61.6569C122.462 62.0474 122.462 62.6805 122.071 63.0711C121.681 63.4616 121.047 63.4616 120.657 63.0711L114.293 56.7071ZM175 57H172.5V55H175V57ZM167.5 57H162.5V55H167.5V57ZM157.5 57H152.5V55H157.5V57ZM147.5 57H142.5V55H147.5V57ZM137.5 57H132.5V55H137.5V57ZM127.5 57H122.5V55H127.5V57ZM117.5 57H115V55H117.5V57Z" fill="#404040"/>
<path d="M167.926 27.52H169.578L173.806 32H175.458L170.712 26.932L174.912 22.2H173.316L169.508 26.54H167.926V22.2H166.666V32H167.926V27.52ZM184.174 29.046C183.628 30.082 182.368 31.02 180.576 31.02C178.14 30.964 176.852 29.284 176.852 27.1C176.852 24.748 178.308 23.18 180.66 23.18C182.13 23.18 183.362 24.104 183.908 25.028V23.054C183.446 22.62 182.27 22.06 180.66 22.06C177.468 22.06 175.536 24.188 175.536 27.086C175.536 30.194 177.496 32.126 180.632 32.14C182.368 32.14 183.684 31.454 184.174 30.866V29.046Z" fill="#404040"/>
<path d="M300.354 120.646C300.158 120.451 299.842 120.451 299.646 120.646L296.464 123.828C296.269 124.024 296.269 124.34 296.464 124.536C296.66 124.731 296.976 124.731 297.172 124.536L300 121.707L302.828 124.536C303.024 124.731 303.34 124.731 303.536 124.536C303.731 124.34 303.731 124.024 303.536 123.828L300.354 120.646ZM300.5 181L300.5 178.5L299.5 178.5L299.5 181L300.5 181ZM300.5 173.5L300.5 168.5L299.5 168.5L299.5 173.5L300.5 173.5ZM300.5 163.5L300.5 158.5L299.5 158.5L299.5 163.5L300.5 163.5ZM300.5 153.5L300.5 148.5L299.5 148.5L299.5 153.5L300.5 153.5ZM300.5 143.5L300.5 138.5L299.5 138.5L299.5 143.5L300.5 143.5ZM300.5 133.5L300.5 128.5L299.5 128.5L299.5 133.5L300.5 133.5ZM300.5 123.5L300.5 121L299.5 121L299.5 123.5L300.5 123.5ZM300.707 120.293C300.317 119.902 299.683 119.902 299.293 120.293L292.929 126.657C292.538 127.047 292.538 127.681 292.929 128.071C293.319 128.462 293.953 128.462 294.343 128.071L300 122.414L305.657 128.071C306.047 128.462 306.681 128.462 307.071 128.071C307.462 127.681 307.462 127.047 307.071 126.657L300.707 120.293ZM301 181L301 178.5L299 178.5L299 181L301 181ZM301 173.5L301 168.5L299 168.5L299 173.5L301 173.5ZM301 163.5L301 158.5L299 158.5L299 163.5L301 163.5ZM301 153.5L301 148.5L299 148.5L299 153.5L301 153.5ZM301 143.5L301 138.5L299 138.5L299 143.5L301 143.5ZM301 133.5L301 128.5L299 128.5L299 133.5L301 133.5ZM301 123.5L301 121L299 121L299 123.5L301 123.5Z" fill="#404040"/>
<path d="M300.354 241.354C300.158 241.549 299.842 241.549 299.646 241.354L296.464 238.172C296.269 237.976 296.269 237.66 296.464 237.464C296.66 237.269 296.976 237.269 297.172 237.464L300 240.293L302.828 237.464C303.024 237.269 303.34 237.269 303.536 237.464C303.731 237.66 303.731 237.976 303.536 238.172L300.354 241.354ZM300.5 181L300.5 183.5L299.5 183.5L299.5 181L300.5 181ZM300.5 188.5L300.5 193.5L299.5 193.5L299.5 188.5L300.5 188.5ZM300.5 198.5L300.5 203.5L299.5 203.5L299.5 198.5L300.5 198.5ZM300.5 208.5L300.5 213.5L299.5 213.5L299.5 208.5L300.5 208.5ZM300.5 218.5L300.5 223.5L299.5 223.5L299.5 218.5L300.5 218.5ZM300.5 228.5L300.5 233.5L299.5 233.5L299.5 228.5L300.5 228.5ZM300.5 238.5L300.5 241L299.5 241L299.5 238.5L300.5 238.5ZM300.707 241.707C300.317 242.098 299.683 242.098 299.293 241.707L292.929 235.343C292.538 234.953 292.538 234.319 292.929 233.929C293.319 233.538 293.953 233.538 294.343 233.929L300 239.586L305.657 233.929C306.047 233.538 306.681 233.538 307.071 233.929C307.462 234.319 307.462 234.953 307.071 235.343L300.707 241.707ZM301 181L301 183.5L299 183.5L299 181L301 181ZM301 188.5L301 193.5L299 193.5L299 188.5L301 188.5ZM301 198.5L301 203.5L299 203.5L299 198.5L301 198.5ZM301 208.5L301 213.5L299 213.5L299 208.5L301 208.5ZM301 218.5L301 223.5L299 223.5L299 218.5L301 218.5ZM301 228.5L301 233.5L299 233.5L299 228.5L301 228.5ZM301 238.5L301 241L299 241L299 238.5L301 238.5Z" fill="#404040"/>
<path d="M273.046 196.224C274.082 196.77 275.02 198.03 275.02 199.822C274.964 202.258 273.284 203.546 271.1 203.546C268.748 203.546 267.18 202.09 267.18 199.738C267.18 198.268 268.104 197.036 269.028 196.49L267.054 196.49C266.62 196.952 266.06 198.128 266.06 199.738C266.06 202.93 268.188 204.862 271.086 204.862C274.194 204.862 276.126 202.902 276.14 199.766C276.14 198.03 275.454 196.714 274.866 196.224L273.046 196.224ZM274.894 195.316L277.82 195.316L277.82 194.21L276 194.21L276 188.736L277.82 188.736L277.82 187.63L274.894 187.63L274.894 188.764L269 188.764L269 193.692L269.798 193.692C272.43 193.692 273.858 194 274.894 194.476L274.894 195.316ZM270.61 192.6L270.036 192.586L270.036 189.926L274.894 189.926L274.894 193.328C273.704 192.824 272.402 192.642 270.61 192.6ZM268.86 183.25C268.86 185.224 270.05 186.708 272.472 186.708C274.922 186.708 276.14 185.434 276.14 183.222C276.14 181.85 275.72 180.996 275.286 180.646L273.928 180.646C274.6 181.024 275.132 181.878 275.132 183.222C275.132 184.594 274.432 185.406 272.92 185.518L272.92 180.156L272.164 180.156C270.092 180.156 268.86 181.318 268.86 183.25ZM269.868 183.25C269.868 182.144 270.568 181.318 271.912 181.318L271.926 181.318L271.926 185.504C270.568 185.35 269.868 184.566 269.868 183.25ZM276 174.024L276 172.862L269 172.862L269 177.79L269.966 177.818C274.614 177.958 274.81 178.504 274.81 179.218C274.81 179.316 274.796 179.442 274.768 179.568L276.014 179.568C276.056 179.428 276.084 179.232 276.084 179.008C276.084 177.986 275.79 176.936 270.568 176.754L270.036 176.74L270.036 174.024L276 174.024ZM276 170.617L276 169.455L272.92 169.455L272.92 168.195L276 165.675L276 164.205L272.304 167.229L269 164.667L269 165.997L271.926 168.195L271.926 169.455L269 169.455L269 170.617L276 170.617ZM271.184 162.699C270.4 162.223 269.868 161.411 269.868 160.319C269.868 159.311 270.204 158.611 271.394 158.611L271.954 158.611L271.954 160.277C271.954 162.139 272.402 163.231 273.942 163.231C275.37 163.231 276.112 162.307 276.112 160.921C276.112 159.815 275.58 158.919 274.81 158.555L276 158.555L276 157.449L271.38 157.449C269.462 157.449 268.86 158.527 268.86 160.319C268.86 161.397 269.182 162.237 269.532 162.699L271.184 162.699ZM275.034 160.627C275.034 161.565 274.558 162.041 273.872 162.041C273.074 162.041 272.878 161.495 272.878 160.235L272.878 158.611L273.634 158.611C274.11 158.681 275.034 159.199 275.034 160.627Z" fill="#404040"/>
<path d="M550.354 120.646C550.158 120.451 549.842 120.451 549.646 120.646L546.464 123.828C546.269 124.024 546.269 124.34 546.464 124.536C546.66 124.731 546.976 124.731 547.172 124.536L550 121.707L552.828 124.536C553.024 124.731 553.34 124.731 553.536 124.536C553.731 124.34 553.731 124.024 553.536 123.828L550.354 120.646ZM550.5 181L550.5 178.5L549.5 178.5L549.5 181L550.5 181ZM550.5 173.5L550.5 168.5L549.5 168.5L549.5 173.5L550.5 173.5ZM550.5 163.5L550.5 158.5L549.5 158.5L549.5 163.5L550.5 163.5ZM550.5 153.5L550.5 148.5L549.5 148.5L549.5 153.5L550.5 153.5ZM550.5 143.5L550.5 138.5L549.5 138.5L549.5 143.5L550.5 143.5ZM550.5 133.5L550.5 128.5L549.5 128.5L549.5 133.5L550.5 133.5ZM550.5 123.5L550.5 121L549.5 121L549.5 123.5L550.5 123.5ZM550.707 120.293C550.317 119.902 549.683 119.902 549.293 120.293L542.929 126.657C542.538 127.047 542.538 127.681 542.929 128.071C543.319 128.462 543.953 128.462 544.343 128.071L550 122.414L555.657 128.071C556.047 128.462 556.681 128.462 557.071 128.071C557.462 127.681 557.462 127.047 557.071 126.657L550.707 120.293ZM551 181L551 178.5L549 178.5L549 181L551 181ZM551 173.5L551 168.5L549 168.5L549 173.5L551 173.5ZM551 163.5L551 158.5L549 158.5L549 163.5L551 163.5ZM551 153.5L551 148.5L549 148.5L549 153.5L551 153.5ZM551 143.5L551 138.5L549 138.5L549 143.5L551 143.5ZM551 133.5L551 128.5L549 128.5L549 133.5L551 133.5ZM551 123.5L551 121L549 121L549 123.5L551 123.5Z" fill="#404040"/>
<path d="M550.354 241.354C550.158 241.549 549.842 241.549 549.646 241.354L546.464 238.172C546.269 237.976 546.269 237.66 546.464 237.464C546.66 237.269 546.976 237.269 547.172 237.464L550 240.293L552.828 237.464C553.024 237.269 553.34 237.269 553.536 237.464C553.731 237.66 553.731 237.976 553.536 238.172L550.354 241.354ZM550.5 181L550.5 183.5L549.5 183.5L549.5 181L550.5 181ZM550.5 188.5L550.5 193.5L549.5 193.5L549.5 188.5L550.5 188.5ZM550.5 198.5L550.5 203.5L549.5 203.5L549.5 198.5L550.5 198.5ZM550.5 208.5L550.5 213.5L549.5 213.5L549.5 208.5L550.5 208.5ZM550.5 218.5L550.5 223.5L549.5 223.5L549.5 218.5L550.5 218.5ZM550.5 228.5L550.5 233.5L549.5 233.5L549.5 228.5L550.5 228.5ZM550.5 238.5L550.5 241L549.5 241L549.5 238.5L550.5 238.5ZM550.707 241.707C550.317 242.098 549.683 242.098 549.293 241.707L542.929 235.343C542.538 234.953 542.538 234.319 542.929 233.929C543.319 233.538 543.953 233.538 544.343 233.929L550 239.586L555.657 233.929C556.047 233.538 556.681 233.538 557.071 233.929C557.462 234.319 557.462 234.953 557.071 235.343L550.707 241.707ZM551 181L551 183.5L549 183.5L549 181L551 181ZM551 188.5L551 193.5L549 193.5L549 188.5L551 188.5ZM551 198.5L551 203.5L549 203.5L549 198.5L551 198.5ZM551 208.5L551 213.5L549 213.5L549 208.5L551 208.5ZM551 218.5L551 223.5L549 223.5L549 218.5L551 218.5ZM551 228.5L551 233.5L549 233.5L549 228.5L551 228.5ZM551 238.5L551 241L549 241L549 238.5L551 238.5Z" fill="#404040"/>
<path d="M523.046 196.224C524.082 196.77 525.02 198.03 525.02 199.822C524.964 202.258 523.284 203.546 521.1 203.546C518.748 203.546 517.18 202.09 517.18 199.738C517.18 198.268 518.104 197.036 519.028 196.49L517.054 196.49C516.62 196.952 516.06 198.128 516.06 199.738C516.06 202.93 518.188 204.862 521.086 204.862C524.194 204.862 526.126 202.902 526.14 199.766C526.14 198.03 525.454 196.714 524.866 196.224L523.046 196.224ZM524.894 195.316L527.82 195.316L527.82 194.21L526 194.21L526 188.736L527.82 188.736L527.82 187.63L524.894 187.63L524.894 188.764L519 188.764L519 193.692L519.798 193.692C522.43 193.692 523.858 194 524.894 194.476L524.894 195.316ZM520.61 192.6L520.036 192.586L520.036 189.926L524.894 189.926L524.894 193.328C523.704 192.824 522.402 192.642 520.61 192.6ZM518.86 183.25C518.86 185.224 520.05 186.708 522.472 186.708C524.922 186.708 526.14 185.434 526.14 183.222C526.14 181.85 525.72 180.996 525.286 180.646L523.928 180.646C524.6 181.024 525.132 181.878 525.132 183.222C525.132 184.594 524.432 185.406 522.92 185.518L522.92 180.156L522.164 180.156C520.092 180.156 518.86 181.318 518.86 183.25ZM519.868 183.25C519.868 182.144 520.568 181.318 521.912 181.318L521.926 181.318L521.926 185.504C520.568 185.35 519.868 184.566 519.868 183.25ZM526 174.024L526 172.862L519 172.862L519 177.79L519.966 177.818C524.614 177.958 524.81 178.504 524.81 179.218C524.81 179.316 524.796 179.442 524.768 179.568L526.014 179.568C526.056 179.428 526.084 179.232 526.084 179.008C526.084 177.986 525.79 176.936 520.568 176.754L520.036 176.74L520.036 174.024L526 174.024ZM526 170.617L526 169.455L522.92 169.455L522.92 168.195L526 165.675L526 164.205L522.304 167.229L519 164.667L519 165.997L521.926 168.195L521.926 169.455L519 169.455L519 170.617L526 170.617ZM521.184 162.699C520.4 162.223 519.868 161.411 519.868 160.319C519.868 159.311 520.204 158.611 521.394 158.611L521.954 158.611L521.954 160.277C521.954 162.139 522.402 163.231 523.942 163.231C525.37 163.231 526.112 162.307 526.112 160.921C526.112 159.815 525.58 158.919 524.81 158.555L526 158.555L526 157.449L521.38 157.449C519.462 157.449 518.86 158.527 518.86 160.319C518.86 161.397 519.182 162.237 519.532 162.699L521.184 162.699ZM525.034 160.627C525.034 161.565 524.558 162.041 523.872 162.041C523.074 162.041 522.878 161.495 522.878 160.235L522.878 158.611L523.634 158.611C524.11 158.681 525.034 159.199 525.034 160.627Z" fill="#404040"/>
<path d="M485.354 56.3536C485.549 56.1583 485.549 55.8417 485.354 55.6465L482.172 52.4645C481.976 52.2692 481.66 52.2692 481.464 52.4645C481.269 52.6597 481.269 52.9763 481.464 53.1716L484.293 56L481.464 58.8284C481.269 59.0237 481.269 59.3403 481.464 59.5355C481.66 59.7308 481.976 59.7308 482.172 59.5355L485.354 56.3536ZM425 56.5L427.5 56.5L427.5 55.5L425 55.5L425 56.5ZM432.5 56.5L437.5 56.5L437.5 55.5L432.5 55.5L432.5 56.5ZM442.5 56.5L447.5 56.5L447.5 55.5L442.5 55.5L442.5 56.5ZM452.5 56.5L457.5 56.5L457.5 55.5L452.5 55.5L452.5 56.5ZM462.5 56.5L467.5 56.5L467.5 55.5L462.5 55.5L462.5 56.5ZM472.5 56.5L477.5 56.5L477.5 55.5L472.5 55.5L472.5 56.5ZM482.5 56.5L485 56.5L485 55.5L482.5 55.5L482.5 56.5ZM485.707 56.7071C486.098 56.3166 486.098 55.6834 485.707 55.2929L479.343 48.9289C478.953 48.5384 478.319 48.5384 477.929 48.9289C477.538 49.3195 477.538 49.9526 477.929 50.3432L483.586 56L477.929 61.6569C477.538 62.0474 477.538 62.6805 477.929 63.0711C478.319 63.4616 478.953 63.4616 479.343 63.0711L485.707 56.7071ZM425 57L427.5 57L427.5 55L425 55L425 57ZM432.5 57L437.5 57L437.5 55L432.5 55L432.5 57ZM442.5 57L447.5 57L447.5 55L442.5 55L442.5 57ZM452.5 57L457.5 57L457.5 55L452.5 55L452.5 57ZM462.5 57L467.5 57L467.5 55L462.5 55L462.5 57ZM472.5 57L477.5 57L477.5 55L472.5 55L472.5 57ZM482.5 57L485 57L485 55L482.5 55L482.5 57Z" fill="#404040"/>
<path d="M364.646 56.3536C364.451 56.1583 364.451 55.8417 364.646 55.6464L367.828 52.4645C368.024 52.2692 368.34 52.2692 368.536 52.4645C368.731 52.6597 368.731 52.9763 368.536 53.1716L365.707 56L368.536 58.8284C368.731 59.0237 368.731 59.3403 368.536 59.5355C368.34 59.7308 368.024 59.7308 367.828 59.5355L364.646 56.3536ZM425 56.5H422.5V55.5H425V56.5ZM417.5 56.5H412.5V55.5H417.5V56.5ZM407.5 56.5H402.5V55.5H407.5V56.5ZM397.5 56.5H392.5V55.5H397.5V56.5ZM387.5 56.5H382.5V55.5H387.5V56.5ZM377.5 56.5H372.5V55.5H377.5V56.5ZM367.5 56.5H365V55.5H367.5V56.5ZM364.293 56.7071C363.902 56.3166 363.902 55.6834 364.293 55.2929L370.657 48.9289C371.047 48.5384 371.681 48.5384 372.071 48.9289C372.462 49.3195 372.462 49.9526 372.071 50.3431L366.414 56L372.071 61.6569C372.462 62.0474 372.462 62.6805 372.071 63.0711C371.681 63.4616 371.047 63.4616 370.657 63.0711L364.293 56.7071ZM425 57H422.5V55H425V57ZM417.5 57H412.5V55H417.5V57ZM407.5 57H402.5V55H407.5V57ZM397.5 57H392.5V55H397.5V57ZM387.5 57H382.5V55H387.5V57ZM377.5 57H372.5V55H377.5V57ZM367.5 57H365V55H367.5V57Z" fill="#404040"/>
<path d="M391.444 12.88V15.82H392.62V14H400.39V15.82H401.566V12.88H400.306V4.2H393.726L393.698 6.23C393.656 9.254 393.18 11.522 392.62 12.88H391.444ZM394.818 6.272L394.832 5.32H399.046V12.88H393.81C394.384 11.312 394.762 8.876 394.818 6.272ZM402.503 10.472C402.503 12.922 403.763 14.126 405.975 14.14C407.949 14.14 409.433 12.95 409.433 10.528C409.433 8.092 408.159 6.874 405.961 6.86C403.987 6.86 402.503 8.05 402.503 10.472ZM403.679 10.472C403.679 8.75 404.491 7.868 405.961 7.868C407.431 7.882 408.257 8.708 408.257 10.486V10.528C408.257 12.25 407.445 13.132 405.975 13.132C404.491 13.132 403.679 12.306 403.679 10.514V10.472ZM411.142 14H412.304V8.036H415.818V7H411.142V14ZM417.105 10.472C417.105 12.922 418.365 14.126 420.577 14.14C422.551 14.14 424.035 12.95 424.035 10.528C424.035 8.092 422.761 6.874 420.563 6.86C418.589 6.86 417.105 8.05 417.105 10.472ZM418.281 10.472C418.281 8.75 419.093 7.868 420.563 7.868C422.033 7.882 422.859 8.708 422.859 10.486V10.528C422.859 12.25 422.047 13.132 420.577 13.132C419.093 13.132 418.281 12.306 418.281 10.514V10.472ZM425.744 14H428.81C430.714 14 431.596 13.314 431.596 11.928C431.596 10.696 430.938 10.332 430.042 10.22C430.798 10.038 431.246 9.464 431.246 8.582C431.246 7.574 430.644 7 428.866 7H425.744V14ZM426.906 12.992V10.878H429.006C429.888 10.878 430.434 11.102 430.434 11.942C430.434 12.642 429.944 12.992 428.796 12.992H426.906ZM426.906 9.884V8.022L428.726 8.008C429.608 8.008 430.07 8.162 430.07 8.848C430.07 9.618 429.496 9.884 428.628 9.884H426.906ZM432.814 10.472C432.814 12.922 434.074 14.126 436.286 14.14C438.26 14.14 439.744 12.95 439.744 10.528C439.744 8.092 438.47 6.874 436.272 6.86C434.298 6.86 432.814 8.05 432.814 10.472ZM433.99 10.472C433.99 8.75 434.802 7.868 436.272 7.868C437.742 7.882 438.568 8.708 438.568 10.486V10.528C438.568 12.25 437.756 13.132 436.286 13.132C434.802 13.132 433.99 12.306 433.99 10.514V10.472ZM441.453 16.52H442.615V12.922C443.007 13.58 443.833 14.154 445.009 14.154C447.011 14.154 448.201 13.104 448.201 10.346C448.201 7.896 447.011 6.86 445.149 6.86C443.735 6.86 442.909 7.532 442.559 8.344V7H441.453V16.52ZM442.615 10.122C442.643 8.722 443.385 7.91 444.841 7.91C446.157 7.91 447.025 8.54 447.025 10.416C447.025 12.362 446.367 13.104 444.827 13.104C443.511 13.104 442.615 12.25 442.615 10.794V10.122ZM449.902 14H452.296C454.508 14 455.376 13.342 455.376 11.522C455.362 9.702 454.368 9.254 452.478 9.254H451.064V7H449.902V14ZM456.342 14H457.504V7H456.342V14ZM454.214 11.522C454.214 12.684 453.626 12.964 452.282 12.964H451.064V10.29H452.352C453.752 10.29 454.186 10.486 454.214 11.522ZM402.688 32H403.85V25H397.942V32H399.104V26.036H402.688V32ZM405.559 28.472C405.559 30.922 406.819 32.126 409.031 32.14C411.005 32.14 412.489 30.95 412.489 28.528C412.489 26.092 411.215 24.874 409.017 24.86C407.043 24.86 405.559 26.05 405.559 28.472ZM406.735 28.472C406.735 26.75 407.547 25.868 409.017 25.868C410.487 25.882 411.313 26.708 411.313 28.486V28.528C411.313 30.25 410.501 31.132 409.031 31.132C407.547 31.132 406.735 30.306 406.735 28.514V28.472ZM413.151 30.894V33.82H414.257V32H419.731V33.82H420.837V30.894H419.703V25H414.775V25.798C414.775 28.43 414.467 29.858 413.991 30.894H413.151ZM415.867 26.61L415.881 26.036H418.541V30.894H415.139C415.643 29.704 415.825 28.402 415.867 26.61ZM422.429 34.52H423.591V30.922C423.983 31.58 424.809 32.154 425.985 32.154C427.987 32.154 429.177 31.104 429.177 28.346C429.177 25.896 427.987 24.86 426.125 24.86C424.711 24.86 423.885 25.532 423.535 26.344V25H422.429V34.52ZM423.591 28.122C423.619 26.722 424.361 25.91 425.817 25.91C427.133 25.91 428.001 26.54 428.001 28.416C428.001 30.362 427.343 31.104 425.803 31.104C424.487 31.104 423.591 30.25 423.591 28.794V28.122ZM435.176 32H436.338V25H433.72C431.508 25 430.64 25.658 430.64 27.464C430.64 28.472 431.2 29.102 432.11 29.354L430.108 32H431.452L433.356 29.48H435.176V32ZM433.734 26.036H435.176V28.57H433.314C432.25 28.57 431.816 28.122 431.802 27.464C431.802 26.316 432.39 26.036 433.734 26.036ZM437.665 30.894V33.82H438.771V32H444.245V33.82H445.351V30.894H444.217V25H439.289V25.798C439.289 28.43 438.981 29.858 438.505 30.894H437.665ZM440.381 26.61L440.395 26.036H443.055V30.894H439.653C440.157 29.704 440.339 28.402 440.381 26.61ZM446.918 27.184C447.394 26.4 448.206 25.868 449.298 25.868C450.306 25.868 451.006 26.204 451.006 27.394V27.954H449.34C447.478 27.954 446.386 28.402 446.386 29.942C446.386 31.37 447.31 32.112 448.696 32.112C449.802 32.112 450.698 31.58 451.062 30.81V32H452.168V27.38C452.168 25.462 451.09 24.86 449.298 24.86C448.22 24.86 447.38 25.182 446.918 25.532V27.184ZM448.99 31.034C448.052 31.034 447.576 30.558 447.576 29.872C447.576 29.074 448.122 28.878 449.382 28.878H451.006V29.634C450.936 30.11 450.418 31.034 448.99 31.034Z" fill="#404040"/>
</svg>
