<svg width="266" height="194" viewBox="0 0 266 194" fill="none" xmlns="http://www.w3.org/2000/svg">
<path d="M70.5116 97.0123C68.7249 83.0782 71.6468 68.9468 78.8127 56.8637C85.9787 44.7807 96.9775 35.4394 110.061 30.3245C123.145 25.2095 137.563 24.6142 151.024 28.6334C164.485 32.6525 176.217 41.0555 184.354 52.5067" stroke="#7BBEFD" stroke-width="2" stroke-dasharray="5 5"/>
<path d="M195.488 94.986C197.275 108.92 194.354 123.052 187.188 135.135C180.023 147.218 169.024 156.56 155.94 161.675C142.857 166.79 128.438 167.386 114.977 163.367C101.516 159.348 89.7848 150.946 81.6469 139.495" stroke="#F3B36A" stroke-width="2" stroke-dasharray="5 5"/>
<path d="M103.658 9.99922H101.418V0.199219H103.658V4.09122H104.946L107.494 0.199219H110.154L106.878 4.79122L110.812 9.99922H107.984L105.072 6.00922H103.658V9.99922Z" fill="#7BBEFD"/>
<path d="M114.903 2.83122C115.445 2.83122 115.939 2.91055 116.387 3.06922C116.845 3.21855 117.237 3.44722 117.563 3.75522C117.899 4.06322 118.161 4.44589 118.347 4.90322C118.534 5.36055 118.627 5.89722 118.627 6.51322C118.627 7.11989 118.539 7.65189 118.361 8.10922C118.184 8.55722 117.927 8.93522 117.591 9.24322C117.265 9.55122 116.863 9.78455 116.387 9.94322C115.911 10.0926 115.375 10.1672 114.777 10.1672C114.236 10.1672 113.737 10.0926 113.279 9.94322C112.831 9.78455 112.439 9.55122 112.103 9.24322C111.777 8.93522 111.52 8.55255 111.333 8.09522C111.147 7.63789 111.053 7.10122 111.053 6.48522C111.053 5.28122 111.394 4.37589 112.075 3.76922C112.766 3.15322 113.709 2.84055 114.903 2.83122ZM113.223 6.51322C113.223 7.15722 113.373 7.61922 113.671 7.89922C113.97 8.17922 114.362 8.31922 114.847 8.31922C115.361 8.31922 115.757 8.17922 116.037 7.89922C116.317 7.61922 116.457 7.16189 116.457 6.52722V6.48522C116.457 5.85055 116.303 5.39322 115.995 5.11322C115.697 4.82389 115.309 4.67922 114.833 4.67922C114.32 4.67922 113.923 4.81922 113.643 5.09922C113.363 5.37922 113.223 5.83655 113.223 6.47122V6.51322Z" fill="#7BBEFD"/>
<path d="M124.682 7.36722H122.05V9.99922H119.95V2.99922H122.05V5.51922H124.682V2.99922H126.782V9.99922H124.682V7.36722Z" fill="#7BBEFD"/>
<path d="M130.146 4.84722H128.018V2.99922H134.472V4.84722H132.246V9.99922H130.146V4.84722Z" fill="#7BBEFD"/>
<path d="M135.7 2.99922H137.674V4.41322C137.73 4.22655 137.814 4.04455 137.926 3.86722C138.048 3.68055 138.202 3.51255 138.388 3.36322C138.575 3.21389 138.799 3.09722 139.06 3.01322C139.331 2.91989 139.644 2.87322 139.998 2.87322C140.418 2.87322 140.81 2.93855 141.174 3.06922C141.548 3.19989 141.87 3.40522 142.14 3.68522C142.411 3.96522 142.621 4.32455 142.77 4.76322C142.929 5.20189 143.008 5.72922 143.008 6.34522C143.008 7.03589 142.929 7.62389 142.77 8.10922C142.621 8.58522 142.406 8.97722 142.126 9.28522C141.846 9.58389 141.51 9.80322 141.118 9.94322C140.736 10.0832 140.316 10.1532 139.858 10.1532C139.326 10.1532 138.892 10.0459 138.556 9.83122C138.22 9.60722 137.968 9.33189 137.8 9.00522V12.8832H135.7V2.99922ZM137.8 6.66722C137.8 7.21789 137.931 7.62855 138.192 7.89922C138.454 8.16989 138.827 8.30522 139.312 8.30522C139.872 8.30522 140.274 8.16522 140.516 7.88522C140.768 7.59589 140.894 7.10589 140.894 6.41522C140.894 5.79922 140.754 5.36522 140.474 5.11322C140.204 4.85189 139.84 4.72122 139.382 4.72122C138.822 4.72122 138.421 4.85189 138.178 5.11322C137.945 5.37455 137.819 5.74322 137.8 6.21922V6.66722Z" fill="#7BBEFD"/>
<path d="M144.537 3.46122C144.771 3.28389 145.097 3.13922 145.517 3.02722C145.947 2.91522 146.493 2.85922 147.155 2.85922C148.313 2.85922 149.139 3.06455 149.633 3.47522C150.137 3.87655 150.389 4.51122 150.389 5.37922V9.99922H148.401V8.73922C148.233 9.14989 147.958 9.48122 147.575 9.73322C147.193 9.98522 146.726 10.1112 146.175 10.1112C145.447 10.1112 144.897 9.91522 144.523 9.52322C144.15 9.12189 143.963 8.59455 143.963 7.94122C143.963 7.52122 144.033 7.17589 144.173 6.90522C144.323 6.63455 144.523 6.41989 144.775 6.26122C145.027 6.10255 145.326 5.99055 145.671 5.92522C146.017 5.85989 146.385 5.82722 146.777 5.82722H148.289V5.77122C148.289 5.37922 148.21 5.10389 148.051 4.94522C147.893 4.77722 147.594 4.69322 147.155 4.69322C146.782 4.69322 146.455 4.72589 146.175 4.79122C145.905 4.84722 145.667 4.93122 145.461 5.04322C145.265 5.14589 145.093 5.27189 144.943 5.42122C144.794 5.56122 144.659 5.71989 144.537 5.89722V3.46122ZM146.903 8.26322C147.305 8.26322 147.627 8.18855 147.869 8.03922C148.112 7.88989 148.252 7.69389 148.289 7.45122V7.04522H147.127C146.791 7.04522 146.53 7.09189 146.343 7.18522C146.166 7.27855 146.077 7.43722 146.077 7.66122C146.077 8.06255 146.353 8.26322 146.903 8.26322Z" fill="#7BBEFD"/>
<path d="M152.066 2.99922H154.166V5.54722H155.16L156.882 2.99922H159.192L156.882 6.30322L159.542 9.99922H157.022L155.146 7.29722H154.166V9.99922H152.066V2.99922Z" fill="#7BBEFD"/>
<path d="M162.07 4.84722H159.942V2.99922H166.396V4.84722H164.17V9.99922H162.07V4.84722Z" fill="#7BBEFD"/>
<path d="M103.658 187.009H105.072L107.984 190.999H110.812L106.878 185.791L110.154 181.199H107.494L104.946 185.091H103.658V181.199H101.418V190.999H103.658V187.009Z" fill="#F3B36A"/>
<path d="M114.903 183.831C112.509 183.845 111.053 185.077 111.053 187.485C111.053 189.935 112.621 191.167 114.777 191.167C117.157 191.153 118.627 189.935 118.627 187.513C118.627 185.063 117.059 183.831 114.903 183.831ZM113.223 187.471C113.223 186.211 113.811 185.679 114.833 185.679C115.785 185.693 116.457 186.225 116.457 187.485V187.527C116.457 188.787 115.869 189.319 114.847 189.319C113.881 189.319 113.223 188.787 113.223 187.513V187.471Z" fill="#F3B36A"/>
<path d="M124.682 190.999H126.782V183.999H124.682V186.519H122.05V183.999H119.95V190.999H122.05V188.367H124.682V190.999Z" fill="#F3B36A"/>
<path d="M130.146 190.999H132.246V185.847H134.472V183.999H128.018V185.847H130.146V190.999Z" fill="#F3B36A"/>
<path d="M135.7 193.883H137.8V190.005C138.136 190.649 138.808 191.153 139.858 191.153C141.692 191.153 143.008 190.103 143.008 187.345C143.008 184.895 141.692 183.873 139.998 183.873C138.57 183.873 137.898 184.671 137.674 185.413V183.999H135.7V193.883ZM137.8 187.219C137.842 186.281 138.276 185.721 139.382 185.721C140.292 185.721 140.894 186.197 140.894 187.415C140.894 188.787 140.418 189.305 139.312 189.305C138.346 189.305 137.8 188.759 137.8 187.667V187.219Z" fill="#F3B36A"/>
<path d="M144.537 186.897C145.013 186.197 145.671 185.693 147.155 185.693C148.023 185.693 148.289 185.987 148.289 186.771V186.827H146.777C145.195 186.827 143.963 187.275 143.963 188.941C143.963 190.243 144.719 191.111 146.175 191.111C147.267 191.111 148.065 190.551 148.401 189.739V190.999H150.389V186.379C150.389 184.643 149.465 183.859 147.155 183.859C145.839 183.859 144.999 184.111 144.537 184.461V186.897ZM146.903 189.263C146.371 189.263 146.077 189.039 146.077 188.661C146.077 188.213 146.455 188.045 147.127 188.045H148.289V188.451C148.219 188.927 147.701 189.263 146.903 189.263Z" fill="#F3B36A"/>
<path d="M152.066 190.999H154.166V188.297H155.146L157.022 190.999H159.542L156.882 187.303L159.192 183.999H156.882L155.16 186.547H154.166V183.999H152.066V190.999Z" fill="#F3B36A"/>
<path d="M162.07 190.999H164.17V185.847H166.396V183.999H159.942V185.847H162.07V190.999Z" fill="#F3B36A"/>
<circle cx="50" cy="96" r="50" fill="#7BBEFD"/>
<path d="M67.8232 91.2546C67.3983 84.8626 58.6925 83.5196 58.6925 83.5196C56.4687 83.1364 55.5624 81.2944 55.2034 80.1018C56.9128 78.2545 58.109 75.8672 58.7702 73.5408C59.0222 72.6541 59.1579 71.7285 59.1579 70.8082C59.1579 70.2846 59.1036 69.7743 59.0114 69.2764C60.1211 67.4817 59.7942 65.4805 59.531 64.5189C59.4511 64.2269 59.1489 64.0827 58.8382 64.0827C58.8048 64.0827 58.7715 64.0844 58.7382 64.0876C58.6197 64.0994 58.4947 64.1049 58.3638 64.1049C56.3764 64.1049 53.0899 62.831 53.0899 62.831C52.0873 62.4147 50.8525 62.1699 49.7717 62.0493C48.826 61.9437 47.8695 62.0011 46.9615 62.2872C45.6995 62.6847 44.5377 63.4675 43.5964 64.363C43.4038 64.5463 43.2391 64.7372 43.0867 64.9516C41.0836 65.5984 40.7447 68.0878 40.8636 70.2675C40.8522 70.4466 40.8421 70.6262 40.8421 70.8082C40.8421 74.0846 42.2848 77.8426 44.5329 80.3189C44.5986 80.3914 44.6669 80.4607 44.7352 80.5302C44.2973 81.6943 43.3615 83.1801 41.3911 83.5196C41.3911 83.5196 32.685 84.8626 32.2603 91.2546C32.2603 91.2546 31.7358 94.5953 32.1758 98.5796C32.3236 99.9184 33.6148 101 35.0177 101H65.066C66.4688 101 67.7282 99.9147 67.8562 98.5741C68.1979 95.0037 67.8232 91.2546 67.8232 91.2546ZM55.3066 83.1853L55.769 83.6784L55.8802 83.7968L56.019 83.8835L56.4253 84.1375L53.3073 88.4389L52.0852 86.5025L52.0352 86.4234L51.9734 86.3524C51.8766 86.2413 51.8691 86.0217 51.9484 85.8893L55.3066 83.1853ZM50.7913 88.2028H49.2699L48.8127 87.4233L48.9938 87.1364C49.1122 87.0004 49.1993 86.8444 49.2616 86.6794H50.7385C50.8007 86.8444 50.8878 87.0004 51.0063 87.1364L51.212 87.4624L50.7913 88.2028ZM51.8918 95.9245C51.9102 95.9924 51.8551 96.1579 51.7834 96.2106L50.2737 97.3192C50.2299 97.3513 50.1035 97.3515 50.0597 97.319L48.5501 96.2108C48.4698 96.1518 48.4059 95.9724 48.4248 95.8894L49.8131 89.4216H50.2165L51.8918 95.9245ZM51.0362 85.0363C50.9205 85.1621 50.834 85.3073 50.768 85.4607H49.232C49.166 85.3073 49.0795 85.1621 48.9638 85.0363L45.356 82.1316C45.5062 81.8818 45.6339 81.6311 45.7433 81.3862C46.9686 82.2494 48.4237 82.7183 49.8765 82.7183C51.2846 82.7183 52.6893 82.2794 53.8786 81.3361C53.9893 81.2481 54.0966 81.1559 54.2041 81.0637C54.3332 81.3925 54.4971 81.7398 54.7011 82.0856L51.0362 85.0363ZM43.4876 66.1072C43.7484 66.023 43.9735 65.8591 44.1289 65.6402C44.1462 65.616 45.8864 63.2182 49.2224 63.2179H49.2229C50.287 63.2179 51.42 63.4644 52.5906 63.9506C52.6 63.9545 52.6094 63.9583 52.619 63.9621C52.9786 64.1013 56.1949 65.3236 58.3638 65.3236C58.3843 65.3236 58.4046 65.3236 58.4248 65.3233C58.7382 66.9469 58.5558 69.3988 55.2315 70.6832C55.2162 70.689 53.6774 71.2613 51.786 71.2613C49.9107 71.2613 48.3648 70.7107 47.1911 69.6247C46.9519 69.4034 46.6372 69.2856 46.3166 69.2856C46.1748 69.2856 46.0318 69.3087 45.8937 69.356C45.4433 69.5106 45.1219 69.8969 45.0632 70.3545L44.9823 70.9859L44.5823 70.7143C44.3636 70.5657 44.1092 70.492 43.8552 70.492C43.5725 70.492 43.2903 70.5834 43.0591 70.7644C42.8126 70.9575 42.5245 71.2484 42.2606 71.6218C41.9425 69.3704 41.9875 66.5918 43.4876 66.1072ZM42.7674 74.684C42.4206 72.8397 43.8551 71.7108 43.8551 71.7108L45.5549 72.8655C45.6497 72.939 45.7383 72.9741 45.8132 72.9741C45.9512 72.9741 46.0429 72.8551 46.0429 72.6382L46.3168 70.5045C47.9888 72.0515 50.0332 72.4801 51.786 72.4801C53.9659 72.4801 55.6948 71.817 55.6948 71.817C56.605 71.4654 57.3219 71.038 57.8844 70.5667C57.8876 70.6472 57.8947 70.7272 57.8947 70.8082C57.8947 71.6074 57.7794 72.4183 57.5521 73.2184C56.7065 76.1936 55.0751 78.8093 53.0765 80.3946C52.1651 81.1175 51.0586 81.4996 49.8765 81.4996C48.2289 81.4996 46.6276 80.7765 45.4831 79.5158C44.3061 78.2194 43.3561 76.491 42.7674 74.684ZM43.9811 83.8835L44.1198 83.7968L44.231 83.6784L44.6934 83.1853L48.0516 85.8893C48.1309 86.0217 48.1235 86.2413 48.0267 86.3524L47.9648 86.4234L47.9149 86.5025L46.6927 88.4389L43.5748 84.1375L43.9811 83.8835ZM66.5983 98.4624C66.5314 99.1649 65.8152 99.7812 65.066 99.7812H35.0177C34.2511 99.7812 33.5101 99.1594 33.4319 98.4505C33.0159 94.6835 33.5044 91.4684 33.5093 91.4372L33.5175 91.3851L33.5209 91.3326C33.8752 85.9997 41.5153 84.7351 41.5904 84.7232L41.6019 84.7215L41.6133 84.7195C41.8663 84.6759 42.1024 84.615 42.3292 84.5456L45.8809 89.4455C46.0665 89.8321 46.3606 90.031 46.673 90.031C46.9229 90.031 47.1846 89.9036 47.4117 89.6428L48.0604 88.6151L48.5259 89.4088L47.1892 95.636C47.0651 96.186 47.3155 96.8355 47.7849 97.1806L49.2946 98.289C49.5433 98.4717 49.8549 98.563 50.1667 98.563C50.4785 98.563 50.7902 98.4716 51.0387 98.289L52.5487 97.1803C53.0183 96.8351 53.2615 96.1632 53.116 95.6239L51.5182 89.4216H51.5395L51.9702 88.6634L52.5883 89.6428C52.8154 89.9036 53.0771 90.031 53.327 90.031C53.6394 90.031 53.9335 89.8321 54.1191 89.4455L57.6855 84.5252C57.9325 84.6043 58.192 84.6716 58.4703 84.7195L58.4817 84.7214L58.4931 84.7232C58.5703 84.7351 66.2064 85.9744 66.5627 91.3326L66.5639 91.3522L66.566 91.3716C66.5695 91.408 66.9254 95.0457 66.5983 98.4624Z" fill="white"/>
<path d="M23.9286 109.224C24.1686 109.048 24.5246 108.88 24.9966 108.72C25.4686 108.56 26.0406 108.48 26.7126 108.48C27.1846 108.48 27.6126 108.524 27.9966 108.612C28.3806 108.692 28.7086 108.82 28.9806 108.996C29.2606 109.164 29.4726 109.38 29.6166 109.644C29.7686 109.908 29.8446 110.224 29.8446 110.592C29.8446 111.56 29.3486 112.22 28.3566 112.572C29.6366 112.764 30.2766 113.42 30.2766 114.54C30.2766 114.9 30.2046 115.24 30.0606 115.56C29.9166 115.872 29.7006 116.144 29.4126 116.376C29.1246 116.6 28.7646 116.78 28.3326 116.916C27.9086 117.052 27.4166 117.12 26.8566 117.12C26.4726 117.12 26.1126 117.088 25.7766 117.024C25.4486 116.968 25.1486 116.892 24.8766 116.796C24.6126 116.692 24.3806 116.58 24.1806 116.46C23.9886 116.332 23.8366 116.204 23.7246 116.076V114.228C23.8526 114.444 24.0166 114.644 24.2166 114.828C24.4166 115.012 24.6486 115.172 24.9126 115.308C25.1766 115.444 25.4726 115.552 25.8006 115.632C26.1366 115.704 26.4966 115.74 26.8806 115.74C27.1366 115.74 27.3766 115.712 27.6006 115.656C27.8246 115.6 28.0166 115.52 28.1766 115.416C28.3446 115.304 28.4766 115.168 28.5726 115.008C28.6686 114.848 28.7166 114.66 28.7166 114.444C28.7166 114.068 28.5686 113.792 28.2726 113.616C27.9846 113.44 27.5126 113.352 26.8566 113.352H25.5846V112.116H26.8446C27.1166 112.116 27.3446 112.088 27.5286 112.032C27.7126 111.968 27.8606 111.884 27.9726 111.78C28.0846 111.676 28.1646 111.556 28.2126 111.42C28.2686 111.284 28.2966 111.136 28.2966 110.976C28.2966 110.784 28.2566 110.62 28.1766 110.484C28.0966 110.34 27.9846 110.224 27.8406 110.136C27.6966 110.048 27.5286 109.984 27.3366 109.944C27.1446 109.896 26.9366 109.868 26.7126 109.86C26.3926 109.852 26.0886 109.888 25.8006 109.968C25.5206 110.048 25.2606 110.16 25.0206 110.304C24.7886 110.44 24.5766 110.596 24.3846 110.772C24.2006 110.948 24.0486 111.128 23.9286 111.312V109.224Z" fill="white"/>
<path d="M31.9013 111.42C32.1013 111.268 32.3773 111.14 32.7293 111.036C33.0893 110.932 33.5293 110.88 34.0493 110.88C34.9293 110.88 35.5853 111.044 36.0173 111.372C36.4493 111.7 36.6653 112.256 36.6653 113.04V117H35.3453V115.92C35.2013 116.272 34.9533 116.556 34.6013 116.772C34.2573 116.988 33.8453 117.096 33.3653 117.096C32.7573 117.096 32.2813 116.936 31.9373 116.616C31.6013 116.288 31.4333 115.828 31.4333 115.236C31.4333 114.892 31.4933 114.608 31.6133 114.384C31.7333 114.16 31.9013 113.984 32.1173 113.856C32.3333 113.72 32.5933 113.624 32.8973 113.568C33.2013 113.512 33.5373 113.484 33.9053 113.484H35.2613V113.22C35.2613 112.796 35.1573 112.504 34.9493 112.344C34.7493 112.184 34.4493 112.104 34.0493 112.104C33.4973 112.104 33.0533 112.204 32.7173 112.404C32.3813 112.596 32.1093 112.852 31.9013 113.172V111.42ZM33.8093 115.836C34.0493 115.836 34.2533 115.808 34.4213 115.752C34.5973 115.688 34.7453 115.612 34.8653 115.524C34.9853 115.428 35.0773 115.324 35.1413 115.212C35.2053 115.1 35.2453 114.992 35.2613 114.888V114.396H34.0733C33.6573 114.396 33.3493 114.444 33.1493 114.54C32.9493 114.636 32.8493 114.82 32.8493 115.092C32.8493 115.324 32.9293 115.508 33.0893 115.644C33.2573 115.772 33.4973 115.836 33.8093 115.836Z" fill="white"/>
<path d="M38.2846 111H39.6886V113.34H40.6606L42.3406 111H43.9006L41.8006 113.832L44.2366 117H42.5326L40.6486 114.516H39.6886V117H38.2846V111Z" fill="white"/>
<path d="M45.3544 111.42C45.5544 111.268 45.8304 111.14 46.1824 111.036C46.5424 110.932 46.9824 110.88 47.5024 110.88C48.3824 110.88 49.0384 111.044 49.4704 111.372C49.9024 111.7 50.1184 112.256 50.1184 113.04V117H48.7984V115.92C48.6544 116.272 48.4064 116.556 48.0544 116.772C47.7104 116.988 47.2984 117.096 46.8184 117.096C46.2104 117.096 45.7344 116.936 45.3904 116.616C45.0544 116.288 44.8864 115.828 44.8864 115.236C44.8864 114.892 44.9464 114.608 45.0664 114.384C45.1864 114.16 45.3544 113.984 45.5704 113.856C45.7864 113.72 46.0464 113.624 46.3504 113.568C46.6544 113.512 46.9904 113.484 47.3584 113.484H48.7144V113.22C48.7144 112.796 48.6104 112.504 48.4024 112.344C48.2024 112.184 47.9024 112.104 47.5024 112.104C46.9504 112.104 46.5064 112.204 46.1704 112.404C45.8344 112.596 45.5624 112.852 45.3544 113.172V111.42ZM47.2624 115.836C47.5024 115.836 47.7064 115.808 47.8744 115.752C48.0504 115.688 48.1984 115.612 48.3184 115.524C48.4384 115.428 48.5304 115.324 48.5944 115.212C48.6584 115.1 48.6984 114.992 48.7144 114.888V114.396H47.5264C47.1104 114.396 46.8024 114.444 46.6024 114.54C46.4024 114.636 46.3024 114.82 46.3024 115.092C46.3024 115.324 46.3824 115.508 46.5424 115.644C46.7104 115.772 46.9504 115.836 47.2624 115.836Z" fill="white"/>
<path d="M51.4378 114.948C51.6138 115.212 51.8938 115.436 52.2778 115.62C52.6618 115.804 53.1378 115.896 53.7058 115.896C54.1058 115.896 54.4218 115.836 54.6538 115.716C54.8858 115.596 55.0018 115.408 55.0018 115.152C55.0018 114.92 54.9098 114.752 54.7258 114.648C54.5418 114.544 54.2458 114.492 53.8378 114.492H52.8058V113.472H53.6578C53.9858 113.472 54.2458 113.42 54.4378 113.316C54.6378 113.204 54.7378 113.02 54.7378 112.764C54.7378 112.556 54.6618 112.396 54.5098 112.284C54.3658 112.172 54.1098 112.112 53.7418 112.104C53.2378 112.104 52.8018 112.204 52.4338 112.404C52.0738 112.596 51.7778 112.852 51.5458 113.172V111.42C51.7778 111.268 52.0858 111.14 52.4698 111.036C52.8538 110.932 53.2778 110.88 53.7418 110.88H53.7898C54.6218 110.88 55.2258 111.024 55.6018 111.312C55.9778 111.592 56.1658 111.968 56.1658 112.44C56.1658 112.824 56.0738 113.12 55.8898 113.328C55.7138 113.536 55.4738 113.704 55.1698 113.832C55.5778 113.912 55.8858 114.06 56.0938 114.276C56.3098 114.484 56.4178 114.792 56.4178 115.2C56.4178 115.512 56.3498 115.788 56.2138 116.028C56.0858 116.268 55.9018 116.472 55.6618 116.64C55.4298 116.8 55.1458 116.92 54.8098 117C54.4818 117.08 54.1138 117.12 53.7058 117.12C53.4418 117.12 53.1898 117.096 52.9498 117.048C52.7098 117.008 52.4898 116.952 52.2898 116.88C52.0898 116.808 51.9138 116.732 51.7618 116.652C51.6178 116.564 51.5098 116.476 51.4378 116.388V114.948Z" fill="white"/>
<path d="M61.3503 114.888C61.1423 115.008 60.9023 115.096 60.6303 115.152C60.3583 115.208 60.0823 115.236 59.8023 115.236C59.0823 115.236 58.5183 115.068 58.1103 114.732C57.7023 114.396 57.4983 113.868 57.4983 113.148V111H58.9023V112.932C58.9023 113.292 58.9983 113.56 59.1903 113.736C59.3903 113.904 59.6783 113.988 60.0543 113.988C60.5503 113.988 60.9823 113.896 61.3503 113.712V111H62.7543V117H61.3503V114.888Z" fill="white"/>
<path d="M64.4646 111H65.8566V115.068L68.7366 111H70.0686V117H68.6766V112.884L65.7966 117H64.4646V111Z" fill="white"/>
<path d="M71.7768 111H73.1808V113.34H74.1528L75.8328 111H77.3928L75.2928 113.832L77.7288 117H76.0248L74.1408 114.516H73.1808V117H71.7768V111Z" fill="white"/>
<circle cx="216" cy="96" r="50" fill="#F3B36A"/>
<path d="M217.3 89.4065C217.218 89.4525 215.298 90.5553 213.935 91.6221C213.607 91.8767 213.536 92.3668 213.772 92.7164C213.914 92.9274 214.137 93.041 214.361 93.041C214.51 93.041 214.66 92.9919 214.788 92.8909C216.07 91.8922 217.966 90.8039 217.982 90.7914C218.338 90.5893 218.472 90.1142 218.284 89.7311C218.094 89.345 217.65 89.207 217.3 89.4065ZM207.353 71.5034C207.123 71.7365 201.697 77.3354 202.935 89.6821C202.978 90.0832 203.294 90.3808 203.661 90.3808C203.686 90.3808 203.712 90.3808 203.74 90.3773C204.139 90.3288 204.429 89.9422 204.387 89.5101C203.228 77.9996 208.298 72.7007 208.349 72.6487C208.642 72.3517 208.657 71.855 208.38 71.5394C208.105 71.2214 207.65 71.2094 207.353 71.5034ZM236.885 80.6018C236.569 79.655 235.707 79.1494 235.178 78.9193C231.12 62.8212 221.701 62 219.842 62L219.634 62.0065C210.043 62.0065 205.062 68.5582 204.908 68.7727C199.061 75.0674 198.754 85.9952 198.742 87.6961C197.24 90.6383 195.528 92.8629 195.483 92.9274C195.013 93.6236 194.882 94.3953 195.107 95.1675C195.833 97.6741 200.302 99.4271 200.789 99.6111C203.024 100.534 205.102 101 206.966 101C210.24 101 211.777 99.5471 211.757 99.5471C218.003 95.4096 223.776 90.8129 223.748 90.8129C231.118 87.203 235.684 84.4112 236.407 83.0844C237.121 81.9961 237.062 81.1349 236.885 80.6018ZM235.152 82.2907C235.106 82.3642 233.913 84.1107 223.01 89.468C222.954 89.5141 217.212 94.0927 210.889 98.2973C210.878 98.3063 209.657 99.4306 206.966 99.4306C205.281 99.4306 203.377 98.999 201.293 98.1373C199.645 97.5151 196.884 96.0322 196.496 94.6989C196.439 94.5023 196.408 94.2268 196.633 93.8897C196.692 93.8132 197.834 92.3178 199.095 90.1387C199.189 90.8834 199.283 91.3185 199.292 91.3615C199.317 91.4751 199.365 91.5821 199.434 91.6711C201.74 94.7329 207.527 95.4436 207.772 95.4711C207.8 95.4771 207.826 95.4771 207.851 95.4771C208.073 95.4771 208.284 95.3671 208.424 95.177C208.58 94.9655 208.623 94.6804 208.537 94.4263C207.311 90.7669 208.526 87.0224 208.537 86.9824C208.671 86.5748 208.475 86.1277 208.096 85.9802C207.729 85.8391 207.305 86.0442 207.166 86.4523C207.115 86.6083 206.01 89.9827 206.827 93.7246C205.179 93.3936 202.116 92.5693 200.675 90.8224C200.564 90.2152 200.231 88.0707 200.365 84.9694C200.735 81.0744 201.962 74.1636 205.993 69.818C206.038 69.757 210.735 63.5754 219.634 63.5754C219.648 63.5754 219.828 63.5724 219.842 63.5694C221.53 63.5694 230.138 64.3476 233.868 79.726C233.936 79.9986 234.136 80.2132 234.389 80.2867C234.68 80.3662 235.369 80.6943 235.513 81.1354C235.624 81.466 235.402 81.8981 235.152 82.2907ZM229.86 81.4505C229.777 81.4965 227.858 82.5998 226.495 83.6661C226.167 83.9206 226.096 84.4107 226.333 84.7598C226.475 84.9714 226.697 85.0849 226.922 85.0849C227.07 85.0849 227.221 85.0359 227.349 84.9349C228.63 83.9361 230.526 82.8478 230.543 82.8353C230.899 82.6333 231.033 82.1582 230.845 81.7751C230.654 81.3865 230.21 81.2549 229.86 81.4505Z" fill="white"/>
<path d="M179.826 114.878L184.41 108.602H186.042V117.002H184.542V110.63L179.934 117.002H178.326V108.602H179.826V114.878Z" fill="white"/>
<path d="M192.765 116.402C192.629 116.57 192.385 116.734 192.033 116.894C191.681 117.054 191.261 117.134 190.773 117.134C190.293 117.134 189.857 117.07 189.465 116.942C189.073 116.806 188.737 116.606 188.457 116.342C188.177 116.078 187.961 115.75 187.809 115.358C187.657 114.966 187.581 114.506 187.581 113.978C187.581 113.466 187.657 113.018 187.809 112.634C187.969 112.242 188.189 111.918 188.469 111.662C188.749 111.398 189.085 111.202 189.477 111.074C189.869 110.938 190.305 110.87 190.785 110.87C191.193 110.878 191.565 110.934 191.901 111.038C192.237 111.142 192.505 111.27 192.705 111.422V113.174C192.497 112.854 192.233 112.598 191.913 112.406C191.601 112.206 191.225 112.102 190.785 112.094C190.209 112.094 189.769 112.246 189.465 112.55C189.161 112.854 189.009 113.31 189.009 113.918V114.098C189.009 114.722 189.165 115.182 189.477 115.478C189.797 115.766 190.241 115.91 190.809 115.91C191.313 115.91 191.725 115.818 192.045 115.634C192.373 115.45 192.613 115.226 192.765 114.962V116.402Z" fill="white"/>
<path d="M198.067 112.238H195.451V117.002H194.047V111.002H199.471V117.002H198.067V112.238Z" fill="white"/>
<path d="M203.848 117.134C203.376 117.134 202.952 117.07 202.576 116.942C202.2 116.806 201.876 116.606 201.604 116.342C201.332 116.078 201.124 115.75 200.98 115.358C200.836 114.966 200.764 114.506 200.764 113.978C200.764 113.458 200.84 113.006 200.992 112.622C201.144 112.23 201.356 111.906 201.628 111.65C201.9 111.386 202.228 111.19 202.612 111.062C202.996 110.934 203.424 110.87 203.896 110.87C204.36 110.87 204.78 110.938 205.156 111.074C205.54 111.21 205.864 111.41 206.128 111.674C206.4 111.938 206.608 112.266 206.752 112.658C206.896 113.05 206.968 113.506 206.968 114.026C206.968 114.546 206.892 115.002 206.74 115.394C206.588 115.778 206.376 116.098 206.104 116.354C205.832 116.61 205.504 116.806 205.12 116.942C204.736 117.07 204.312 117.134 203.848 117.134ZM202.192 114.014C202.192 114.678 202.34 115.162 202.636 115.466C202.932 115.762 203.344 115.91 203.872 115.91C204.408 115.91 204.82 115.758 205.108 115.454C205.396 115.142 205.54 114.666 205.54 114.026V113.99C205.54 113.326 205.388 112.846 205.084 112.55C204.788 112.246 204.376 112.094 203.848 112.094C203.312 112.102 202.9 112.262 202.612 112.574C202.332 112.878 202.192 113.346 202.192 113.978V114.014Z" fill="white"/>
<path d="M212.115 112.238H210.171L210.135 112.994C210.095 113.93 210.011 114.67 209.883 115.214C209.763 115.758 209.611 116.17 209.427 116.45C209.243 116.722 209.039 116.894 208.815 116.966C208.591 117.038 208.363 117.074 208.131 117.074C208.019 117.074 207.907 117.066 207.795 117.05C207.691 117.042 207.607 117.03 207.543 117.014V115.562C207.639 115.594 207.743 115.61 207.855 115.61C207.983 115.61 208.103 115.586 208.215 115.538C208.335 115.482 208.439 115.346 208.527 115.13C208.615 114.914 208.687 114.586 208.743 114.146C208.807 113.706 208.851 113.094 208.875 112.31L208.923 111.002H213.507V117.002H212.115V112.238Z" fill="white"/>
<path d="M219.339 114.578H216.627V117.002H215.223V111.002H216.627V113.342H219.339V111.002H220.743V117.002H219.339V114.578Z" fill="white"/>
<path d="M222.454 111.002H223.846V115.07L226.726 111.002H228.058V117.002H226.666V112.886L223.786 117.002H222.454V111.002Z" fill="white"/>
<path d="M231.134 112.238H229.214V111.002H234.47V112.238H232.526V117.002H231.134V112.238Z" fill="white"/>
<path d="M240.581 116.402C240.509 116.49 240.405 116.578 240.269 116.666C240.133 116.746 239.969 116.822 239.777 116.894C239.585 116.966 239.369 117.022 239.129 117.062C238.897 117.102 238.645 117.122 238.373 117.122C237.373 117.13 236.597 116.87 236.045 116.342C235.493 115.806 235.217 115.018 235.217 113.978C235.217 113.482 235.289 113.042 235.433 112.658C235.585 112.266 235.797 111.938 236.069 111.674C236.341 111.41 236.661 111.21 237.029 111.074C237.405 110.938 237.821 110.87 238.277 110.87C239.149 110.878 239.829 111.138 240.317 111.65C240.813 112.162 241.061 112.89 241.061 113.834V114.41H236.609C236.721 115.41 237.325 115.91 238.421 115.91C238.973 115.91 239.429 115.818 239.789 115.634C240.157 115.45 240.421 115.226 240.581 114.962V116.402ZM238.241 112.094C237.785 112.094 237.421 112.206 237.149 112.43C236.877 112.654 236.705 112.982 236.633 113.414H239.657C239.641 113.006 239.509 112.686 239.261 112.454C239.013 112.214 238.673 112.094 238.241 112.094Z" fill="white"/>
<path d="M246.123 112.238H244.179L244.143 112.994C244.103 113.93 244.019 114.67 243.891 115.214C243.771 115.758 243.619 116.17 243.435 116.45C243.251 116.722 243.047 116.894 242.823 116.966C242.599 117.038 242.371 117.074 242.139 117.074C242.027 117.074 241.915 117.066 241.803 117.05C241.699 117.042 241.615 117.03 241.551 117.014V115.562C241.647 115.594 241.751 115.61 241.863 115.61C241.991 115.61 242.111 115.586 242.223 115.538C242.343 115.482 242.447 115.346 242.535 115.13C242.623 114.914 242.695 114.586 242.751 114.146C242.815 113.706 242.859 113.094 242.883 112.31L242.931 111.002H247.515V117.002H246.123V112.238Z" fill="white"/>
<path d="M254.343 114.818C254.335 115.586 254.119 116.142 253.695 116.486C253.271 116.83 252.587 117.002 251.643 117.002H249.231V111.002H250.635V112.778H251.799C252.207 112.778 252.567 112.81 252.879 112.874C253.199 112.938 253.467 113.05 253.683 113.21C253.899 113.362 254.063 113.57 254.175 113.834C254.287 114.098 254.343 114.426 254.343 114.818ZM252.939 114.806C252.923 114.494 252.823 114.286 252.639 114.182C252.463 114.07 252.147 114.014 251.691 114.014H250.635V115.766H251.607C252.087 115.766 252.427 115.698 252.627 115.562C252.835 115.418 252.939 115.166 252.939 114.806Z" fill="white"/>
</svg>
