<svg width="215" height="102" viewBox="0 0 215 102" fill="none" xmlns="http://www.w3.org/2000/svg">
<path d="M205.274 91.3456L199.161 85.4981C198.23 84.6081 196.992 84.1113 195.705 84.1113H182.019C180.894 84.1113 179.803 83.7324 178.921 83.0358L168.259 74.619C167.946 74.3715 167.663 74.0874 167.417 73.7728L160.202 64.5369C159.783 64.0006 159.259 63.5555 158.662 63.2288L142.139 54.1879L129.879 48.9775C129.289 48.7267 128.753 48.3648 128.299 47.9114L122.229 41.8416C121.292 40.9039 120.02 40.3771 118.694 40.3771H105.639H95.4332C94.3726 40.3771 93.3394 40.0398 92.4831 39.4141L76.7019 27.8816L58.222 11.9507C57.8296 11.6124 57.387 11.3372 56.91 11.1348L47.1272 6.98453C46.895 6.88603 46.6557 6.80524 46.4114 6.74285L31.9322 3.04604C31.528 2.94283 31.1124 2.89062 30.6953 2.89062H20.6498C19.2769 2.89062 17.9643 3.4552 17.0201 4.4519L13.0907 8.59957C12.7523 8.95681 12.4684 9.36207 12.2483 9.80222L7.31899 19.6609L3.6914 29.3345C3.48088 29.8959 3.37305 30.4905 3.37305 31.0901V43.9942" stroke="#2F87CE" stroke-width="5"/>
<circle cx="207.5" cy="94.5" r="7.5" fill="#2F87CE"/>
</svg>
