<svg width="85" height="41" viewBox="0 0 85 41" fill="none" xmlns="http://www.w3.org/2000/svg">
<path d="M80.8513 36.4577L78.4294 34.1411C78.0608 33.7885 77.5703 33.5917 77.0602 33.5917H71.6382C71.1928 33.5917 70.7604 33.4416 70.4108 33.1656L66.1871 29.831C66.0629 29.733 65.9509 29.6205 65.8535 29.4958L62.9949 25.8368C62.8289 25.6243 62.6213 25.4479 62.3848 25.3185L55.8388 21.7368L50.9818 19.6725C50.748 19.5732 50.5355 19.4298 50.3559 19.2502L47.9512 16.8455C47.5797 16.474 47.0758 16.2653 46.5505 16.2653H41.3784H37.3352C36.915 16.2653 36.5057 16.1317 36.1664 15.8837L29.9143 11.3149L22.5931 5.00343C22.4376 4.86941 22.2622 4.76037 22.0733 4.68021L18.1976 3.03597C18.1056 2.99694 18.0108 2.96494 17.914 2.94022L12.1777 1.47563C12.0176 1.43475 11.8529 1.41406 11.6877 1.41406H7.70791C7.16398 1.41406 6.64397 1.63773 6.26989 2.0326L4.71317 3.6758C4.57909 3.81733 4.46663 3.97789 4.37944 4.15226L2.42657 8.05802L0.989405 11.8905C0.906003 12.1129 0.863281 12.3485 0.863281 12.586V17.6983" stroke="#2F87CE"/>
<circle cx="81.735" cy="37.7057" r="2.97131" fill="#2F87CE"/>
</svg>
