<svg width="55" height="50" viewBox="0 0 55 50" fill="none" xmlns="http://www.w3.org/2000/svg">
<g clip-path="url(#clip0)">
<path d="M33.7611 50H22.7184C22.2846 50 21.9297 49.6484 21.9297 49.2188V35.1562C21.9297 34.7266 22.2846 34.375 22.7184 34.375H33.7611C34.1949 34.375 34.5499 34.7266 34.5499 35.1562V49.2188C34.5499 49.6484 34.1949 50 33.7611 50ZM23.5072 48.4375H32.9724V35.9375H23.5072V48.4375Z" fill="#5BD595"/>
<path d="M43.2264 45.3125H38.4938C38.06 45.3125 37.7051 44.9609 37.7051 44.5312V35.1562C37.7051 34.7266 38.06 34.375 38.4938 34.375H43.2264C43.6602 34.375 44.0152 34.7266 44.0152 35.1562V44.5312C44.0152 44.9609 43.6602 45.3125 43.2264 45.3125ZM39.2826 43.75H42.4376V35.9375H39.2826V43.75Z" fill="#5BD595"/>
<path d="M28.2399 49.6094C27.8061 49.6094 27.4512 49.2578 27.4512 48.8281V35.5469C27.4512 35.1172 27.8061 34.7656 28.2399 34.7656C28.6738 34.7656 29.0287 35.1172 29.0287 35.5469V48.8281C29.0287 49.2578 28.6738 49.6094 28.2399 49.6094Z" fill="#5BD595"/>
<path d="M52.6929 26.5625H40.0727C39.6389 26.5625 39.284 26.2109 39.284 25.7812C39.284 25.3516 39.6389 25 40.0727 25H50.9971L42.8728 15.625H31.7907C31.3569 15.625 31.002 15.2734 31.002 14.8437C31.002 14.4141 31.3569 14.0625 31.7907 14.0625H43.2278C43.4644 14.0625 43.6616 14.1797 43.8193 14.3359L53.2845 25.2734C53.5605 25.5859 53.5211 26.0937 53.2056 26.3672C53.0479 26.4844 52.8901 26.5625 52.6929 26.5625Z" fill="#5BD595"/>
<path d="M16.409 26.5625H3.78876C3.35494 26.5625 3 26.2109 3 25.7812C3 25.5859 3.07888 25.3906 3.19719 25.2734L13.0567 14.3359C13.2145 14.1797 13.4117 14.0625 13.6483 14.0625H24.8487C25.2825 14.0625 25.6375 14.4141 25.6375 14.8437C25.6375 15.2734 25.2825 15.625 24.8487 15.625H14.0032L5.56348 25H16.409C16.8428 25 17.1977 25.3516 17.1977 25.7812C17.1977 26.2109 16.8428 26.5625 16.409 26.5625Z" fill="#5BD595"/>
<path d="M47.9593 50H8.52118C8.08736 50 7.73242 49.6484 7.73242 49.2187V25.7812C7.73242 25.3516 8.08736 25 8.52118 25H16.4088C16.8426 25 17.1976 25.3516 17.1976 25.7812C17.1976 26.2109 16.8426 26.5625 16.4088 26.5625H9.30995V48.4375H47.1705V26.5625H40.0717C39.6378 26.5625 39.2829 26.2109 39.2829 25.7812C39.2829 25.3516 39.6378 25 40.0717 25H47.9593C48.3931 25 48.748 25.3516 48.748 25.7812V49.2187C48.748 49.6484 48.3931 50 47.9593 50Z" fill="#5BD595"/>
<path d="M28.2399 11.7187C27.8061 11.7187 27.4512 11.3672 27.4512 10.9375V0.78125C27.4512 0.351562 27.8061 0 28.2399 0C28.6738 0 29.0287 0.351562 29.0287 0.78125V10.9375C29.0287 11.3672 28.6738 11.7187 28.2399 11.7187Z" fill="#5BD595"/>
<path d="M35.3388 6.25H28.2399C27.8061 6.25 27.4512 5.89844 27.4512 5.46875V0.78125C27.4512 0.351562 27.8061 0 28.2399 0H35.3388C35.7726 0 36.1276 0.351562 36.1276 0.78125C36.1276 0.9375 36.0881 1.09375 36.0092 1.21094L34.7078 3.125L36.0092 5.03906C36.2459 5.39062 36.167 5.89844 35.7726 6.13281C35.6543 6.21094 35.4965 6.25 35.3388 6.25ZM29.0287 4.6875H33.8796L33.1303 3.55469C32.9725 3.28125 32.9725 2.96875 33.1303 2.69531L33.8796 1.5625H29.0287V4.6875Z" fill="#5BD595"/>
<path d="M41.255 28.126C41.0184 28.126 40.7818 28.0088 40.624 27.8135L28.2404 12.1885L15.8569 27.8135C15.5808 28.165 15.1076 28.2041 14.7526 27.9306C14.3977 27.6572 14.3582 27.1885 14.6343 26.8369L27.6489 10.4306C27.9249 10.0791 28.4771 10.04 28.7926 10.3525C28.832 10.3916 28.8714 10.3916 28.8714 10.4306L41.886 26.8369C42.1621 27.1885 42.0832 27.6572 41.7677 27.9306C41.61 28.0478 41.4522 28.126 41.255 28.126Z" fill="#5BD595"/>
<path d="M17.9862 45.3125H13.2536C12.8198 45.3125 12.4648 44.9609 12.4648 44.5312V35.1562C12.4648 34.7266 12.8198 34.375 13.2536 34.375H17.9862C18.42 34.375 18.7749 34.7266 18.7749 35.1562V44.5312C18.7749 44.9609 18.42 45.3125 17.9862 45.3125ZM14.0424 43.75H17.1974V35.9375H14.0424V43.75Z" fill="#5BD595"/>
<path d="M28.2404 31.25C25.6375 31.25 23.5078 29.1406 23.5078 26.5625C23.5078 23.9844 25.6375 21.875 28.2404 21.875C30.8433 21.875 32.973 23.9844 32.973 26.5625C32.973 29.1406 30.8433 31.25 28.2404 31.25ZM28.2404 23.4375C26.5051 23.4375 25.0853 24.8438 25.0853 26.5625C25.0853 28.2812 26.5051 29.6875 28.2404 29.6875C29.9757 29.6875 31.3954 28.2812 31.3954 26.5625C31.3954 24.8438 29.9757 23.4375 28.2404 23.4375Z" fill="#5BD595"/>
</g>
<defs>
<clipPath id="clip0">
<rect width="55" height="50" fill="white"/>
</clipPath>
</defs>
</svg>
