<svg width="267" height="366" viewBox="0 0 267 366" fill="none" xmlns="http://www.w3.org/2000/svg">
<path d="M50.1113 72.7847L53.988 70.0505C55.0604 69.2941 56.4979 69.314 57.549 70.0998C58.6065 70.8905 60.0543 70.9053 61.1278 70.1365L69.381 64.2258C70.1132 63.7014 70.9911 63.4195 71.8917 63.4195H76.6286C77.5262 63.4195 78.4015 63.1393 79.1323 62.6181L79.8097 62.1351C80.9444 61.3258 81.618 60.0181 81.618 58.6243V39.5859C81.618 38.208 82.2765 36.913 83.39 36.1013L86.0737 34.145C86.8115 33.6073 87.7009 33.3175 88.6138 33.3175H104.455C105.344 33.3175 106.212 33.0423 106.939 32.5297L116.221 25.9865C117.709 24.9371 119.696 24.936 121.186 25.9838L128.768 31.3169C129.494 31.8278 130.361 32.102 131.249 32.102H147.043C147.943 32.102 148.82 31.8207 149.551 31.2976L155.787 26.8389C156.69 26.1934 156.692 24.8519 155.791 24.2041C154.887 23.5546 154.892 22.2086 155.8 21.5652L158.536 19.6267C159.1 19.2272 159.757 18.98 160.444 18.9091L171.432 17.7751C172.171 17.6988 172.878 17.4329 173.484 17.0032L193.52 2.79469C194.249 2.2777 195.12 2 196.014 2H204.451C205.343 2 206.213 2.27652 206.941 2.79147L207.538 3.21382C208.681 4.02204 209.361 5.3347 209.361 6.73444V33.8941C209.361 35.2827 208.692 36.5863 207.564 37.3964L201.429 41.8028C200.696 42.3294 199.816 42.6126 198.914 42.6126H194.179C193.282 42.6126 192.408 42.333 191.677 41.8126L184.543 36.7304C183.175 35.756 183.167 33.727 184.526 32.741L184.863 32.4969C186.053 31.6336 186.049 29.8585 184.855 29.0003C184.105 28.4609 183.094 28.4596 182.342 28.9971L176.204 33.3861C175.071 34.1956 174.4 35.5019 174.4 36.8938V37.7563C174.4 39.184 173.693 40.5192 172.512 41.322L168.927 43.7603C167.746 44.5631 167.039 45.8983 167.039 47.326V48.2601C167.039 49.6519 167.711 50.9581 168.843 51.7677L176.813 57.4669C177.545 57.9901 178.422 58.2714 179.321 58.2714H183.901C184.765 58.2714 185.61 58.0115 186.325 57.5254L191.703 53.8693C192.418 53.3832 193.262 53.1233 194.127 53.1233H202.526C203.427 53.1233 204.305 52.8413 205.037 52.317L207.007 50.9061C208.501 49.8365 210.508 49.8305 212.008 50.8912L213.342 51.8346C214.485 52.6428 215.164 53.9555 215.164 55.3552V56.4211C215.164 57.5802 214.596 58.6657 213.644 59.3269C211.63 60.7263 211.616 63.7014 213.617 65.1195L213.957 65.3601C214.604 65.8187 215.378 66.065 216.171 66.065H224.719C225.548 66.065 226.356 66.3194 227.035 66.7939L228.029 67.4879C229.833 68.7477 229.848 71.4125 228.06 72.6933C226.282 73.966 226.284 76.6091 228.063 77.8795L238.412 85.271C239.88 86.3192 241.845 86.3432 243.338 85.3314L245.349 83.968C246.063 83.484 246.906 83.2253 247.769 83.2253H252.523C253.404 83.2253 254.263 82.9557 254.986 82.4528L258.99 79.6674C260.428 78.6666 262.335 78.6564 263.784 79.6418C264.607 80.2014 265.206 81.0334 265.476 81.9913L268.593 93.044C268.732 93.5359 269.046 93.9601 269.476 94.2365C270.869 95.1321 272.701 94.1319 272.701 92.4758V90.1122C272.701 89.0208 273.228 87.9965 274.115 87.3611L287.754 77.5955C288.492 77.0675 289.478 77.0491 290.235 77.5495C291.51 78.3926 291.55 80.25 290.312 81.1467L283.401 86.1527C282.281 86.9637 281.618 88.2624 281.618 89.6448V90.8918C281.618 91.6906 282 92.4413 282.645 92.9122C284.022 93.9167 284.013 95.9737 282.627 96.9659L276.06 101.67C274.929 102.479 274.258 103.785 274.258 105.175V111.176C274.258 112.531 273.622 113.806 272.539 114.621L271.801 115.177C271.053 115.74 270.143 116.044 269.207 116.044H264.572C263.69 116.044 262.83 116.314 262.107 116.818L258.994 118.986C256.52 120.709 256.533 124.374 259.019 126.08L260.275 126.942C260.993 127.435 261.844 127.699 262.715 127.699H267.512C268.402 127.699 269.27 127.424 269.997 126.911L280.643 119.406C281.37 118.894 282.238 118.618 283.127 118.618H287.974C288.902 118.618 289.805 118.319 290.549 117.765L293.045 115.908C294.138 115.094 294.782 113.811 294.782 112.449V106.821V98.5489C294.782 97.1453 295.465 95.8294 296.613 95.0219L297.866 94.1408C299.367 93.085 301.372 93.0949 302.862 94.1655L306.942 97.096C308.433 98.1666 310.438 98.1765 311.939 97.1207L313.191 96.2396C314.339 95.432 315.023 94.1162 315.023 92.7126V89.3735C315.023 87.9828 315.693 86.6775 316.824 85.8678L318.093 84.9588C319.599 83.8803 321.625 83.884 323.127 84.9679L325.531 86.7024C327.033 87.7862 329.059 87.7899 330.565 86.7116L339.799 80.0989C340.531 79.5746 341.409 79.2927 342.31 79.2927H358.175C359.062 79.2927 359.927 79.0191 360.653 78.5092L365.854 74.8566C366.579 74.3467 367.445 74.0731 368.332 74.0731H380.185C381.072 74.0731 381.937 73.7996 382.663 73.2899L386.236 70.7809C386.962 70.2711 387.827 69.9976 388.714 69.9976H408.251C409.157 69.9976 410.04 70.2829 410.774 70.813L415.286 74.0693C416.41 74.8799 417.075 76.1808 417.075 77.566V81.4075C417.075 82.5477 417.628 83.617 418.558 84.2762L419.51 84.9503C420.995 86.0027 421.017 88.1997 419.552 89.2809C419.092 89.6203 418.536 89.8034 417.965 89.8034H412.674C411.855 89.8034 411.056 90.0616 410.391 90.5413C408.221 92.1075 408.235 95.3439 410.42 96.8903L424.944 107.172C425.672 107.688 426.543 107.965 427.435 107.965H436.161C437.007 107.965 437.834 107.716 438.539 107.25L442.108 104.89C442.814 104.424 443.641 104.175 444.486 104.175H448.962C449.857 104.175 450.73 104.453 451.459 104.972L471.906 119.493C473.4 120.554 475.401 120.555 476.896 119.496L524.426 85.8227C525.54 85.0334 527.026 85.0126 528.161 85.7704C529.287 86.5214 530.757 86.5082 531.869 85.7372L532.528 85.2807C533.249 84.7804 534.107 84.5123 534.985 84.5123H554.771C555.662 84.5123 556.532 84.2358 557.26 83.7208L564.222 78.7972C564.951 78.2822 565.82 78.0057 566.712 78.0057H571.34C572.226 78.0057 573.091 78.2789 573.817 78.7882L579.481 82.7635C580.975 83.8119 582.967 83.8064 584.455 82.7498L625.155 53.8481C625.884 53.3301 626.757 53.0518 627.651 53.0518H632.47C633.367 53.0518 634.241 53.3311 634.971 53.8509L641.379 58.412C642.515 59.221 643.19 60.5299 643.19 61.925V62.6681C643.19 64.0795 642.5 65.4016 641.341 66.2077L640.733 66.6306C638.279 68.338 638.265 71.9636 640.705 73.6903L654.179 83.2235C655.321 84.0318 656 85.3442 656 86.7436V90.1486C656 91.5466 655.322 92.8579 654.182 93.6664L645.147 100.071C643.93 100.933 643.246 102.364 643.337 103.852L644.742 126.807C644.833 128.295 644.149 129.725 642.933 130.588L638.649 133.625C637.92 134.142 637.049 134.42 636.155 134.42H631.344C630.485 134.42 629.647 134.676 628.935 135.156L627.714 135.978C626.876 136.542 626.263 137.382 625.982 138.352L621.55 153.609C621.033 155.387 621.71 157.297 623.231 158.354L625.498 159.929C626.056 160.316 626.697 160.566 627.37 160.659L634.626 161.659C635.324 161.755 635.987 162.02 636.559 162.432L642.76 166.9C644.03 167.816 644.705 169.347 644.522 170.902L643.274 181.513C643.179 182.325 643.527 183.125 644.186 183.608C645.436 184.524 645.419 186.396 644.153 187.29L637.514 191.977C636.369 192.785 635.689 194.099 635.689 195.5V196.318C635.689 197.721 636.372 199.037 637.52 199.845L645.039 205.134C646.187 205.941 646.87 207.257 646.87 208.661V209.506C646.87 210.931 646.166 212.265 644.988 213.068L642.495 214.768C641.664 215.335 641.057 216.175 640.78 217.142L638.353 225.606C637.823 227.456 636.132 228.73 634.208 228.73H629.531H616.513C615.591 228.73 614.694 228.435 613.952 227.887L611.414 226.013L609.111 224.303C608.355 223.743 607.804 222.95 607.541 222.047L600.543 198.024C600.387 197.488 600.061 197.017 599.614 196.683C598.21 195.633 598.244 193.518 599.68 192.514L608.459 186.377C610.921 184.656 610.913 181.008 608.444 179.298L606.106 177.678L604.469 176.528C602.452 175.112 602.468 172.117 604.501 170.723C605.461 170.064 606.035 168.974 606.035 167.809V142.785C606.035 141.535 605.411 140.367 604.37 139.673C603.108 138.831 601.463 138.835 600.204 139.682L598.667 140.717C597.478 141.519 596.764 142.859 596.764 144.294V160.993C596.764 162.398 596.079 163.716 594.928 164.523L587.489 169.741C586.338 170.548 585.653 171.866 585.653 173.271V181.878C585.653 183.28 584.972 184.594 583.826 185.402L579.957 188.131C578.88 188.89 577.437 188.87 576.382 188.081C575.327 187.293 573.884 187.272 572.807 188.031L541.126 210.353C539.98 211.161 539.298 212.476 539.298 213.878V214.846C539.298 216.244 538.62 217.556 537.478 218.364L514.455 234.675C512.225 236.255 512.193 239.553 514.392 241.176L516.154 242.475C517.481 243.454 517.464 245.444 516.121 246.4L515.786 246.639C514.586 247.495 514.593 249.28 515.801 250.125C516.526 250.632 517.488 250.639 518.221 250.143L520.144 248.839C521.621 247.838 523.562 247.85 525.026 248.868L541.199 260.119C542.358 260.926 543.049 262.248 543.049 263.659V274.562V288.023C543.049 289.404 543.71 290.701 544.828 291.512L548.559 294.221C549.677 295.032 550.338 296.329 550.338 297.711V306.327C550.338 307.708 549.677 309.005 548.559 309.817L544.828 312.525C543.71 313.336 543.049 314.634 543.049 316.015V340.528C543.049 341.916 542.38 343.219 541.253 344.029L535.256 348.341C534.353 348.99 533.233 349.265 532.132 349.108L525.988 348.235C524.9 348.08 523.794 348.347 522.896 348.98L522.008 349.606C521.07 350.268 520.435 351.276 520.243 352.407L519.279 358.07C519.091 359.174 518.481 360.162 517.577 360.824L514.245 363.267C512.762 364.354 510.753 364.381 509.242 363.334L506.882 361.701C505.547 360.777 505.545 358.804 506.878 357.876C508.195 356.961 508.213 355.019 506.913 354.079L502.159 350.643C501.038 349.833 500.373 348.533 500.373 347.149V338.34C500.373 336.91 501.082 335.573 502.266 334.77L504.869 333.006C505.583 332.522 506.425 332.264 507.288 332.264H511.99C512.903 332.264 513.793 331.974 514.531 331.436L517.214 329.48C518.328 328.668 518.986 327.373 518.986 325.995V310.671C518.986 310.266 518.794 309.885 518.468 309.645C517.769 309.128 517.78 308.08 518.489 307.578L518.871 307.307C519.766 306.673 519.782 305.351 518.902 304.696L517.177 303.412C516.064 302.583 514.541 302.574 513.418 303.388L506.769 308.211C505.273 309.297 503.251 309.308 501.743 308.239L489.24 299.375C488.1 298.567 487.422 297.255 487.422 295.857V295.174C487.422 293.772 486.741 292.458 485.595 291.65L475.659 284.645C474.932 284.133 474.064 283.857 473.175 283.857H468.486C467.591 283.857 466.719 283.579 465.989 283.061L443.611 267.167C442.127 266.113 440.142 266.104 438.648 267.145L433.254 270.905C432.448 271.467 431.857 272.288 431.581 273.232L428.991 282.084C428.468 283.868 429.149 285.786 430.679 286.843L431.09 287.127C432.646 288.202 433.32 290.164 432.754 291.967L426.705 311.234C426.426 312.122 425.868 312.895 425.114 313.439L423.317 314.736C421.826 315.812 419.817 315.824 418.313 314.766L412.143 310.426C410.646 309.373 408.647 309.38 407.157 310.443L391.91 321.323C390.411 322.393 388.397 322.392 386.898 321.321L386.174 320.804C384.642 319.709 382.577 319.735 381.073 320.867L378.892 322.509C377.396 323.635 375.344 323.667 373.814 322.588L354.099 308.686C352.988 307.903 351.506 307.9 350.393 308.679C349.295 309.447 347.836 309.456 346.729 308.701L345.689 307.992C344.329 307.064 344.292 305.072 345.616 304.094C346.227 303.643 346.587 302.93 346.587 302.171V300.44C346.587 299.052 345.919 297.749 344.792 296.939L335.546 290.293L321.357 280.209C319.854 279.141 317.839 279.146 316.342 280.222L313.279 282.424C312.152 283.234 311.484 284.537 311.484 285.925V297.171C311.484 298.554 310.82 299.853 309.699 300.664L306.883 302.702C306.147 303.234 305.263 303.52 304.355 303.52H296.19C295.275 303.52 294.384 303.229 293.645 302.689L291.867 301.389C289.653 299.769 289.687 296.452 291.936 294.879L292.073 294.784C294.263 293.252 294.287 290.017 292.119 288.453C291.458 287.975 290.663 287.719 289.847 287.719H284.958C284.03 287.719 283.127 287.419 282.383 286.865L280.664 285.586C279.166 284.47 277.119 284.447 275.595 285.528L263.978 293.768C262.501 294.816 260.528 294.829 259.037 293.802L253.282 289.838C252.563 289.342 251.71 289.077 250.836 289.077H234.853C234.016 289.077 233.199 288.812 232.522 288.321C230.323 286.725 230.339 283.443 232.553 281.869L236.3 279.207C238.563 277.599 238.565 274.24 236.304 272.629C235.715 272.21 235.024 271.956 234.304 271.895L219.725 270.657C218.963 270.592 218.231 270.326 217.606 269.885L215.011 268.057C213.864 267.249 213.182 265.934 213.182 264.532V253.324C213.182 251.934 213.852 250.63 214.981 249.82L226.791 241.349C229.203 239.619 229.187 236.026 226.758 234.318L220.031 229.587C219.305 229.076 218.438 228.802 217.55 228.802H212.795C211.896 228.802 211.02 228.521 210.289 227.998L202.108 222.155C200.974 221.345 200.302 220.038 200.302 218.646V209.887C200.302 208.477 199.613 207.157 198.457 206.35L186.552 198.045C185.828 197.54 184.967 197.27 184.084 197.27H179.525C178.631 197.27 177.759 196.992 177.029 196.474L159.574 184.086C158.45 183.289 156.944 183.287 155.819 184.083L154.85 184.769C153.482 185.736 153.49 187.769 154.867 188.725C156.243 189.681 156.252 191.714 154.884 192.682L136.613 205.61C135.744 206.225 134.678 206.496 133.62 206.372L123.511 205.187C122.817 205.106 122.156 204.848 121.591 204.438C119.315 202.787 119.352 199.383 121.663 197.782L122.508 197.197C123.67 196.392 124.364 195.067 124.364 193.653V190.405C124.364 189.014 123.693 187.709 122.563 186.899L119.745 184.881C119.109 184.425 118.361 184.152 117.582 184.088L103.087 182.914C102.376 182.857 101.693 182.609 101.11 182.196C98.8798 180.615 98.874 177.307 101.099 175.719L104.603 173.217C107.027 171.487 107.009 167.879 104.568 166.173L102 164.379L82.2644 150.536C80.7731 149.49 78.7855 149.494 77.2983 150.545L72.3999 154.01C71.2571 154.818 70.5776 156.131 70.5776 157.53V163.021V171.356C70.5776 172.764 69.8901 174.083 68.7361 174.89L58.5794 181.99C57.8664 182.488 57.0194 182.759 56.1496 182.767L51.3582 182.813C50.42 182.822 49.5044 182.524 48.7505 181.966L47.1127 180.752C45.6161 179.643 43.5766 179.621 42.0558 180.696L21.6613 195.12C20.9331 195.635 20.0633 195.911 19.1714 195.911H14.3902C13.5113 195.911 12.6535 195.643 11.9314 195.141L8.7896 192.961C6.34171 191.262 6.31383 187.651 8.73518 185.914L11.2415 184.117C12.3707 183.307 13.0404 182.002 13.0404 180.613V174.562C13.0404 173.154 12.3533 171.835 11.1998 171.028L9.36076 169.742C8.20726 168.935 7.52018 167.616 7.52018 166.208V149.727C7.52018 148.333 6.84581 147.024 5.71005 146.215L3.81013 144.862C2.67437 144.053 2 142.744 2 141.35V132.083C2 129.701 3.93059 127.77 6.31209 127.77H8.57479C9.13109 127.77 9.67291 127.593 10.1216 127.264L11.2526 126.435C12.1332 125.79 12.1247 124.472 11.2357 123.838C10.3467 123.204 10.3381 121.886 11.2188 121.241L12.3498 120.412C12.7985 120.083 13.3403 119.905 13.8966 119.905H35.0215C35.2292 119.905 35.4366 119.89 35.6421 119.86L43.7055 118.688C44.3429 118.595 44.9493 118.353 45.4749 117.98L46.1099 117.53C48.0785 116.136 48.0911 113.218 46.1347 111.806C45.2182 111.145 44.6753 110.084 44.6753 108.953V97.3111C44.6753 95.9202 45.3475 94.6151 46.4799 93.8074C47.6123 92.9999 48.2846 91.6947 48.2846 90.3038V76.3085C48.2846 74.9068 48.9659 73.5926 50.1113 72.7847Z" fill="#BBDFFD"/>
<path d="M544.888 247.101L548.426 244.518C549.546 243.7 551.042 243.617 552.247 244.305C553.342 244.932 554.018 246.097 554.018 247.359V248.678C554.018 250.109 554.728 251.447 555.914 252.25L559.799 254.879C561.005 255.695 561.718 257.064 561.694 258.52L561.557 266.994C561.534 268.419 562.216 269.763 563.379 270.586L577.389 280.488C578.727 281.434 578.726 283.42 577.387 284.364C576.757 284.809 576.382 285.532 576.382 286.303V287.986C576.382 289.387 575.701 290.702 574.555 291.509L574.458 291.578C573.312 292.386 572.631 293.7 572.631 295.102V296.144C572.631 297.317 573.2 298.417 574.158 299.095L574.526 299.355C576.371 300.66 576.383 303.394 574.548 304.714C573.402 305.539 571.858 305.541 570.71 304.72L559.643 296.802C558.511 295.993 557.84 294.687 557.84 293.295V284.613C557.84 283.239 557.185 281.948 556.077 281.135L555.993 281.074C554.885 280.262 554.23 278.97 554.23 277.596V276.808C554.23 275.401 553.543 274.082 552.39 273.275L550.551 271.989C549.397 271.182 548.71 269.863 548.71 268.455V265.41V259.808C548.71 258.391 548.014 257.064 546.849 256.259L544.981 254.97C543.815 254.165 543.119 252.838 543.119 251.421V250.584C543.119 249.207 543.777 247.913 544.888 247.101Z" fill="#BBDFFD"/>
<path d="M613.403 290.293L619.334 286.162C620.087 285.638 620.078 284.521 619.317 284.009C619.102 283.863 618.848 283.786 618.588 283.786H612.781C611.983 283.786 611.205 284.031 610.551 284.488L609.745 285.052C607.936 286.318 607.924 288.993 609.722 290.274C610.822 291.057 612.295 291.065 613.403 290.293Z" fill="#BBDFFD"/>
<path d="M622.7 275.876L625.075 274.214C625.736 273.752 625.751 272.778 625.105 272.295C624.9 272.142 624.652 272.06 624.396 272.06H617.454C617.207 272.06 616.967 272.134 616.764 272.274C616.061 272.757 616.059 273.795 616.762 274.28L619.087 275.886C620.175 276.638 621.616 276.634 622.7 275.876Z" fill="#BBDFFD"/>
<path d="M626.407 262.874L634.141 257.499C634.88 256.986 634.919 255.907 634.219 255.342C633.979 255.148 633.68 255.042 633.372 255.042H627.75C626.882 255.042 626.034 255.304 625.317 255.794L622.741 257.554C620.905 258.808 620.856 261.499 622.645 262.82C623.758 263.642 625.271 263.664 626.407 262.874Z" fill="#BBDFFD"/>
<path d="M634.956 248.841L641.967 243.986C643.474 242.942 643.459 240.709 641.939 239.685C641.509 239.395 641.003 239.241 640.484 239.241H635.22C634.328 239.241 633.457 239.518 632.729 240.033L625.731 244.987C624.281 246.013 624.302 248.17 625.77 249.168C626.192 249.455 626.69 249.608 627.201 249.608H632.501C633.378 249.608 634.235 249.341 634.956 248.841Z" fill="#BBDFFD"/>
<path d="M481.875 95.0356L487.438 91.0626C489.233 89.7803 489.231 87.1118 487.434 85.8318C486.324 85.0412 484.837 85.0367 483.722 85.8207L478.131 89.7532C476.307 91.0359 476.296 93.7351 478.109 95.0333C479.234 95.8396 480.748 95.8405 481.875 95.0356Z" fill="#BBDFFD"/>
<path d="M500.394 76.6546L496.695 74.0094C494.914 72.7363 494.897 70.0953 496.661 68.7992C497.779 67.978 499.297 67.9654 500.428 68.768L504.137 71.3997C505.938 72.6773 505.952 75.3454 504.165 76.6417C503.041 77.4564 501.523 77.4616 500.394 76.6546Z" fill="#BBDFFD"/>
<path d="M488.704 70.9659L483.015 66.9866C482.29 66.4798 481.428 66.208 480.544 66.208H475.759C474.874 66.208 474.012 66.4798 473.287 66.9866L470.721 68.7817C469.567 69.5885 468.88 70.9076 468.88 72.3152V78.2851C468.88 79.7196 469.593 81.0602 470.783 81.8616L471.61 82.4182C472.321 82.8977 473.16 83.1538 474.018 83.1538H478.8C479.576 83.1538 480.334 82.9188 480.974 82.4798L482.817 81.2152C484.2 80.2663 484.174 78.2159 482.766 77.3031L482.527 77.1477C481.286 76.3433 481.21 74.5558 482.377 73.6486C483.142 73.0548 484.208 73.0451 484.983 73.6249L486.149 74.4973C486.941 75.0902 488.033 75.0751 488.809 74.4605C489.952 73.5543 489.9 71.8022 488.704 70.9659Z" fill="#BBDFFD"/>
<path d="M390.327 57.4682L399.726 50.8661C401.218 49.8186 403.207 49.8218 404.695 50.8741L406.559 52.193C407.408 52.7929 408.011 53.6791 408.258 54.6883L408.817 56.9735C409.232 58.668 408.585 60.4454 407.178 61.4767L407.068 61.5572C406.306 62.1158 405.382 62.4087 404.437 62.3906L391.757 62.1477C391.238 62.1378 390.734 61.9712 390.312 61.6699C388.866 60.639 388.874 58.4887 390.327 57.4682Z" fill="#BBDFFD"/>
<path d="M16.569 75.5312L8.08195 69.2011C7.70988 68.9235 7.38505 68.5878 7.12002 68.2067L3.73853 63.345C2.69632 61.8466 2.71042 59.8543 3.77374 58.3707L6.93222 53.9641C8.3144 52.0357 10.9948 51.5861 12.9305 52.9581L17.7795 56.3948C18.3025 56.7656 18.7364 57.2483 19.0494 57.8079L22.3168 63.6494C22.5084 63.9919 22.7458 64.3066 23.0225 64.5849L25.5646 67.1413C26.7378 68.3212 26.3796 70.3085 24.8682 71.0045C24.2808 71.275 23.8277 71.7716 23.6122 72.3814L23.2126 73.5117C22.2442 76.2514 18.8983 77.2685 16.569 75.5312Z" fill="#BBDFFD"/>
<path d="M50.1113 72.7847L53.988 70.0505C55.0604 69.2941 56.4979 69.314 57.549 70.0998C58.6065 70.8905 60.0543 70.9053 61.1278 70.1365L69.381 64.2258C70.1132 63.7014 70.9911 63.4195 71.8917 63.4195H76.6286C77.5262 63.4195 78.4015 63.1393 79.1323 62.6181L79.8097 62.1351C80.9444 61.3258 81.618 60.0181 81.618 58.6243V39.5859C81.618 38.208 82.2765 36.913 83.39 36.1013L86.0737 34.145C86.8115 33.6073 87.7009 33.3175 88.6138 33.3175H104.455C105.344 33.3175 106.212 33.0423 106.939 32.5297L116.221 25.9865C117.709 24.9371 119.696 24.936 121.186 25.9838L128.768 31.3169C129.494 31.8278 130.361 32.102 131.249 32.102H147.043C147.943 32.102 148.82 31.8207 149.551 31.2976L155.787 26.8389C156.69 26.1934 156.692 24.8519 155.791 24.2041C154.887 23.5546 154.892 22.2086 155.8 21.5652L158.536 19.6267C159.1 19.2272 159.757 18.98 160.444 18.9091L171.432 17.7751C172.171 17.6988 172.878 17.4329 173.484 17.0032L193.52 2.79469C194.249 2.2777 195.12 2 196.014 2H204.451C205.343 2 206.213 2.27652 206.941 2.79147L207.538 3.21382C208.681 4.02204 209.361 5.3347 209.361 6.73444V33.8941C209.361 35.2827 208.692 36.5863 207.564 37.3964L201.429 41.8028C200.696 42.3294 199.816 42.6126 198.914 42.6126H194.179C193.282 42.6126 192.408 42.333 191.677 41.8126L184.543 36.7304C183.175 35.756 183.167 33.727 184.526 32.741L184.863 32.4969C186.053 31.6336 186.049 29.8585 184.855 29.0003C184.105 28.4609 183.094 28.4596 182.342 28.9971L176.204 33.3861C175.071 34.1956 174.4 35.5019 174.4 36.8938V37.7563C174.4 39.184 173.693 40.5192 172.512 41.322L168.927 43.7603C167.746 44.5631 167.039 45.8983 167.039 47.326V48.2601C167.039 49.6519 167.711 50.9581 168.843 51.7677L176.813 57.4669C177.545 57.9901 178.422 58.2714 179.321 58.2714H183.901C184.765 58.2714 185.61 58.0115 186.325 57.5254L191.703 53.8693C192.418 53.3832 193.262 53.1233 194.127 53.1233H202.526C203.427 53.1233 204.305 52.8413 205.037 52.317L207.007 50.9061C208.501 49.8365 210.508 49.8305 212.008 50.8912L213.342 51.8346C214.485 52.6428 215.164 53.9555 215.164 55.3552V56.4211C215.164 57.5802 214.596 58.6657 213.644 59.3269C211.63 60.7263 211.616 63.7014 213.617 65.1195L213.957 65.3601C214.604 65.8187 215.378 66.065 216.171 66.065H224.719C225.548 66.065 226.356 66.3194 227.035 66.7939L228.029 67.4879C229.833 68.7477 229.848 71.4125 228.06 72.6933C226.282 73.966 226.284 76.6091 228.063 77.8795L238.412 85.271C239.88 86.3192 241.845 86.3432 243.338 85.3314L245.349 83.968C246.063 83.484 246.906 83.2253 247.769 83.2253H252.523C253.404 83.2253 254.263 82.9557 254.986 82.4528L258.99 79.6674C260.428 78.6666 262.335 78.6564 263.784 79.6418C264.607 80.2014 265.206 81.0334 265.476 81.9913L268.593 93.044C268.732 93.5359 269.046 93.9601 269.476 94.2365C270.869 95.1321 272.701 94.1319 272.701 92.4758V90.1122C272.701 89.0208 273.228 87.9965 274.115 87.3611L287.754 77.5955C288.492 77.0675 289.478 77.0491 290.235 77.5495C291.51 78.3926 291.55 80.25 290.312 81.1467L283.401 86.1527C282.281 86.9637 281.618 88.2624 281.618 89.6448V90.8918C281.618 91.6906 282 92.4413 282.645 92.9122C284.022 93.9167 284.013 95.9737 282.627 96.9659L276.06 101.67C274.929 102.479 274.258 103.785 274.258 105.175V111.176C274.258 112.531 273.622 113.806 272.539 114.621L271.801 115.177C271.053 115.74 270.143 116.044 269.207 116.044H264.572C263.69 116.044 262.83 116.314 262.107 116.818L258.994 118.986C256.52 120.709 256.533 124.374 259.019 126.08L260.275 126.942C260.993 127.435 261.844 127.699 262.715 127.699H267.512C268.402 127.699 269.27 127.424 269.997 126.911L280.643 119.406C281.37 118.894 282.238 118.618 283.127 118.618H287.974C288.902 118.618 289.805 118.319 290.549 117.765L293.045 115.908C294.138 115.094 294.782 113.811 294.782 112.449V106.821V98.5489C294.782 97.1453 295.465 95.8294 296.613 95.0219L297.866 94.1408C299.367 93.085 301.372 93.0949 302.862 94.1655L306.942 97.096C308.433 98.1666 310.438 98.1765 311.939 97.1207L313.191 96.2396C314.339 95.432 315.023 94.1162 315.023 92.7126V89.3735C315.023 87.9828 315.693 86.6775 316.824 85.8678L318.093 84.9588C319.599 83.8803 321.625 83.884 323.127 84.9679L325.531 86.7024C327.033 87.7862 329.059 87.7899 330.565 86.7116L339.799 80.0989C340.531 79.5746 341.409 79.2927 342.31 79.2927H358.175C359.062 79.2927 359.927 79.0191 360.653 78.5092L365.854 74.8566C366.579 74.3467 367.445 74.0731 368.332 74.0731H380.185C381.072 74.0731 381.937 73.7996 382.663 73.2899L386.236 70.7809C386.962 70.2711 387.827 69.9976 388.714 69.9976H408.251C409.157 69.9976 410.04 70.2829 410.774 70.813L415.286 74.0693C416.41 74.8799 417.075 76.1808 417.075 77.566V81.4075C417.075 82.5477 417.628 83.617 418.558 84.2762L419.51 84.9503C420.995 86.0027 421.017 88.1997 419.552 89.2809C419.092 89.6203 418.536 89.8034 417.965 89.8034H412.674C411.855 89.8034 411.056 90.0616 410.391 90.5413C408.221 92.1075 408.235 95.3439 410.42 96.8903L424.944 107.172C425.672 107.688 426.543 107.965 427.435 107.965H436.161C437.007 107.965 437.834 107.716 438.539 107.25L442.108 104.89C442.814 104.424 443.641 104.175 444.486 104.175H448.962C449.857 104.175 450.73 104.453 451.459 104.972L471.906 119.493C473.4 120.554 475.401 120.555 476.896 119.496L524.426 85.8227C525.54 85.0334 527.026 85.0126 528.161 85.7704C529.287 86.5214 530.757 86.5082 531.869 85.7372L532.528 85.2807C533.249 84.7804 534.107 84.5123 534.985 84.5123H554.771C555.662 84.5123 556.532 84.2358 557.26 83.7208L564.222 78.7972C564.951 78.2822 565.82 78.0057 566.712 78.0057H571.34C572.226 78.0057 573.091 78.2789 573.817 78.7882L579.481 82.7635C580.975 83.8119 582.967 83.8064 584.455 82.7498L625.155 53.8481C625.884 53.3301 626.757 53.0518 627.651 53.0518H632.47C633.367 53.0518 634.241 53.3311 634.971 53.8509L641.379 58.412C642.515 59.221 643.19 60.5299 643.19 61.925V62.6681C643.19 64.0795 642.5 65.4016 641.341 66.2077L640.733 66.6306C638.279 68.338 638.265 71.9636 640.705 73.6903L654.179 83.2235C655.321 84.0318 656 85.3442 656 86.7436V90.1486C656 91.5466 655.322 92.8579 654.182 93.6664L645.147 100.071C643.93 100.933 643.246 102.364 643.337 103.852L644.742 126.807C644.833 128.295 644.149 129.725 642.933 130.588L638.649 133.625C637.92 134.142 637.049 134.42 636.155 134.42H631.344C630.485 134.42 629.647 134.676 628.935 135.156L627.714 135.978C626.876 136.542 626.263 137.382 625.982 138.352L621.55 153.609C621.033 155.387 621.71 157.297 623.231 158.354L625.498 159.929C626.056 160.316 626.697 160.566 627.37 160.659L634.626 161.659C635.324 161.755 635.987 162.02 636.559 162.432L642.76 166.9C644.03 167.816 644.705 169.347 644.522 170.902L643.274 181.513C643.179 182.325 643.527 183.125 644.186 183.608C645.436 184.524 645.419 186.396 644.153 187.29L637.514 191.977C636.369 192.785 635.689 194.099 635.689 195.5V196.318C635.689 197.721 636.372 199.037 637.52 199.845L645.039 205.134C646.187 205.941 646.87 207.257 646.87 208.661V209.506C646.87 210.931 646.166 212.265 644.988 213.068L642.495 214.768C641.664 215.335 641.057 216.175 640.78 217.142L638.353 225.606C637.823 227.456 636.132 228.73 634.208 228.73H629.531H616.513C615.591 228.73 614.694 228.435 613.952 227.887L611.414 226.013L609.111 224.303C608.355 223.743 607.804 222.95 607.541 222.047L600.543 198.024C600.387 197.488 600.061 197.017 599.614 196.683C598.21 195.633 598.244 193.518 599.68 192.514L608.459 186.377C610.921 184.656 610.913 181.008 608.444 179.298L606.106 177.678L604.469 176.528C602.452 175.112 602.468 172.117 604.501 170.723C605.461 170.064 606.035 168.974 606.035 167.809V142.785C606.035 141.535 605.411 140.367 604.37 139.673C603.108 138.831 601.463 138.835 600.204 139.682L598.667 140.717C597.478 141.519 596.764 142.859 596.764 144.294V160.993C596.764 162.398 596.079 163.716 594.928 164.523L587.489 169.741C586.338 170.548 585.653 171.866 585.653 173.271V181.878C585.653 183.28 584.972 184.594 583.826 185.402L579.957 188.131C578.88 188.89 577.437 188.87 576.382 188.081C575.327 187.293 573.884 187.272 572.807 188.031L541.126 210.353C539.98 211.161 539.298 212.476 539.298 213.878V214.846C539.298 216.244 538.62 217.556 537.478 218.364L514.455 234.675C512.225 236.255 512.193 239.553 514.392 241.176L516.154 242.475C517.481 243.454 517.464 245.444 516.121 246.4L515.786 246.639C514.586 247.495 514.593 249.28 515.801 250.125C516.526 250.632 517.488 250.639 518.221 250.143L520.144 248.839C521.621 247.838 523.562 247.85 525.026 248.868L541.199 260.119C542.358 260.926 543.049 262.248 543.049 263.659V274.562V288.023C543.049 289.404 543.71 290.701 544.828 291.512L548.559 294.221C549.677 295.032 550.338 296.329 550.338 297.711V306.327C550.338 307.708 549.677 309.005 548.559 309.817L544.828 312.525C543.71 313.336 543.049 314.634 543.049 316.015V340.528C543.049 341.916 542.38 343.219 541.253 344.029L535.256 348.341C534.353 348.99 533.233 349.265 532.132 349.108L525.988 348.235C524.9 348.08 523.794 348.347 522.896 348.98L522.008 349.606C521.07 350.268 520.435 351.276 520.243 352.407L519.279 358.07C519.091 359.174 518.481 360.162 517.577 360.824L514.245 363.267C512.762 364.354 510.753 364.381 509.242 363.334L506.882 361.701C505.547 360.777 505.545 358.804 506.878 357.876C508.195 356.961 508.213 355.019 506.913 354.079L502.159 350.643C501.038 349.833 500.373 348.533 500.373 347.149V338.34C500.373 336.91 501.082 335.573 502.266 334.77L504.869 333.006C505.583 332.522 506.425 332.264 507.288 332.264H511.99C512.903 332.264 513.793 331.974 514.531 331.436L517.214 329.48C518.328 328.668 518.986 327.373 518.986 325.995V310.671C518.986 310.266 518.794 309.885 518.468 309.645C517.769 309.128 517.78 308.08 518.489 307.578L518.871 307.307C519.766 306.673 519.782 305.351 518.902 304.696L517.177 303.412C516.064 302.583 514.541 302.574 513.418 303.388L506.769 308.211C505.273 309.297 503.251 309.308 501.743 308.239L489.24 299.375C488.1 298.567 487.422 297.255 487.422 295.857V295.174C487.422 293.772 486.741 292.458 485.595 291.65L475.659 284.645C474.932 284.133 474.064 283.857 473.175 283.857H468.486C467.591 283.857 466.719 283.579 465.989 283.061L443.611 267.167C442.127 266.113 440.142 266.104 438.648 267.145L433.254 270.905C432.448 271.467 431.857 272.288 431.581 273.232L428.991 282.084C428.468 283.868 429.149 285.786 430.679 286.843L431.09 287.127C432.646 288.202 433.32 290.164 432.754 291.967L426.705 311.234C426.426 312.122 425.868 312.895 425.114 313.439L423.317 314.736C421.826 315.812 419.817 315.824 418.313 314.766L412.143 310.426C410.646 309.373 408.647 309.38 407.157 310.443L391.91 321.323C390.411 322.393 388.397 322.392 386.898 321.321L386.174 320.804C384.642 319.709 382.577 319.735 381.073 320.867L378.892 322.509C377.396 323.635 375.344 323.667 373.814 322.588L354.099 308.686C352.988 307.903 351.506 307.9 350.393 308.679C349.295 309.447 347.836 309.456 346.729 308.701L345.689 307.992C344.329 307.064 344.292 305.072 345.616 304.094C346.227 303.643 346.587 302.93 346.587 302.171V300.44C346.587 299.052 345.919 297.749 344.792 296.939L335.546 290.293L321.357 280.209C319.854 279.141 317.839 279.146 316.342 280.222L313.279 282.424C312.152 283.234 311.484 284.537 311.484 285.925V297.171C311.484 298.554 310.82 299.853 309.699 300.664L306.883 302.702C306.147 303.234 305.263 303.52 304.355 303.52H296.19C295.275 303.52 294.384 303.229 293.645 302.689L291.867 301.389C289.653 299.769 289.687 296.452 291.936 294.879L292.073 294.784C294.263 293.252 294.287 290.017 292.119 288.453C291.458 287.975 290.663 287.719 289.847 287.719H284.958C284.03 287.719 283.127 287.419 282.383 286.865L280.664 285.586C279.166 284.47 277.119 284.447 275.595 285.528L263.978 293.768C262.501 294.816 260.528 294.829 259.037 293.802L253.282 289.838C252.563 289.342 251.71 289.077 250.836 289.077H234.853C234.016 289.077 233.199 288.812 232.522 288.321C230.323 286.725 230.339 283.443 232.553 281.869L236.3 279.207C238.563 277.599 238.565 274.24 236.304 272.629C235.715 272.21 235.024 271.956 234.304 271.895L219.725 270.657C218.963 270.592 218.231 270.326 217.606 269.885L215.011 268.057C213.864 267.249 213.182 265.934 213.182 264.532V253.324C213.182 251.934 213.852 250.63 214.981 249.82L226.791 241.349C229.203 239.619 229.187 236.026 226.758 234.318L220.031 229.587C219.305 229.076 218.438 228.802 217.55 228.802H212.795C211.896 228.802 211.02 228.521 210.289 227.998L202.108 222.155C200.974 221.345 200.302 220.038 200.302 218.646V209.887C200.302 208.477 199.613 207.157 198.457 206.35L186.552 198.045C185.828 197.54 184.967 197.27 184.084 197.27H179.525C178.631 197.27 177.759 196.992 177.029 196.474L159.574 184.086C158.45 183.289 156.944 183.287 155.819 184.083L154.85 184.769C153.482 185.736 153.49 187.769 154.867 188.725C156.243 189.681 156.252 191.714 154.884 192.682L136.613 205.61C135.744 206.225 134.678 206.496 133.62 206.372L123.511 205.187C122.817 205.106 122.156 204.848 121.591 204.438C119.315 202.787 119.352 199.383 121.663 197.782L122.508 197.197C123.67 196.392 124.364 195.067 124.364 193.653V190.405C124.364 189.014 123.693 187.709 122.563 186.899L119.745 184.881C119.109 184.425 118.361 184.152 117.582 184.088L103.087 182.914C102.376 182.857 101.693 182.609 101.11 182.196C98.8798 180.615 98.874 177.307 101.099 175.719L104.603 173.217C107.027 171.487 107.009 167.879 104.568 166.173L102 164.379L82.2644 150.536C80.7731 149.49 78.7855 149.494 77.2983 150.545L72.3999 154.01C71.2571 154.818 70.5776 156.131 70.5776 157.53V163.021V171.356C70.5776 172.764 69.8901 174.083 68.7361 174.89L58.5794 181.99C57.8664 182.488 57.0194 182.759 56.1496 182.767L51.3582 182.813C50.42 182.822 49.5044 182.524 48.7505 181.966L47.1127 180.752C45.6161 179.643 43.5766 179.621 42.0558 180.696L21.6613 195.12C20.9331 195.635 20.0633 195.911 19.1714 195.911H14.3902C13.5113 195.911 12.6535 195.643 11.9314 195.141L8.7896 192.961C6.34171 191.262 6.31383 187.651 8.73518 185.914L11.2415 184.117C12.3707 183.307 13.0404 182.002 13.0404 180.613V174.562C13.0404 173.154 12.3533 171.835 11.1998 171.028L9.36076 169.742C8.20726 168.935 7.52018 167.616 7.52018 166.208V149.727C7.52018 148.333 6.84581 147.024 5.71005 146.215L3.81013 144.862C2.67437 144.053 2 142.744 2 141.35V132.083C2 129.701 3.93059 127.77 6.31209 127.77H8.57479C9.13109 127.77 9.67291 127.593 10.1216 127.264L11.2526 126.435C12.1332 125.79 12.1247 124.472 11.2357 123.838C10.3467 123.204 10.3381 121.886 11.2188 121.241L12.3498 120.412C12.7985 120.083 13.3403 119.905 13.8966 119.905H35.0215C35.2292 119.905 35.4366 119.89 35.6421 119.86L43.7055 118.688C44.3429 118.595 44.9493 118.353 45.4749 117.98L46.1099 117.53C48.0785 116.136 48.0911 113.218 46.1347 111.806C45.2182 111.145 44.6753 110.084 44.6753 108.953V97.3111C44.6753 95.9202 45.3475 94.6151 46.4799 93.8074C47.6123 92.9999 48.2846 91.6947 48.2846 90.3038V76.3085C48.2846 74.9068 48.9659 73.5926 50.1113 72.7847Z" stroke="#7BBEFD" stroke-width="2.87473"/>
<path d="M544.888 247.101L548.426 244.518C549.546 243.7 551.042 243.617 552.247 244.305C553.342 244.932 554.018 246.097 554.018 247.359V248.678C554.018 250.109 554.728 251.447 555.914 252.25L559.799 254.879C561.005 255.695 561.718 257.064 561.694 258.52L561.557 266.994C561.534 268.419 562.216 269.763 563.379 270.586L577.389 280.488C578.727 281.434 578.726 283.42 577.387 284.364C576.757 284.809 576.382 285.532 576.382 286.303V287.986C576.382 289.387 575.701 290.702 574.555 291.509L574.458 291.578C573.312 292.386 572.631 293.7 572.631 295.102V296.144C572.631 297.317 573.2 298.417 574.158 299.095L574.526 299.355C576.371 300.66 576.383 303.394 574.548 304.714C573.402 305.539 571.858 305.541 570.71 304.72L559.643 296.802C558.511 295.993 557.84 294.687 557.84 293.295V284.613C557.84 283.239 557.185 281.948 556.077 281.135L555.993 281.074C554.885 280.262 554.23 278.97 554.23 277.596V276.808C554.23 275.401 553.543 274.082 552.39 273.275L550.551 271.989C549.397 271.182 548.71 269.863 548.71 268.455V265.41V259.808C548.71 258.391 548.014 257.064 546.849 256.259L544.981 254.97C543.815 254.165 543.119 252.838 543.119 251.421V250.584C543.119 249.207 543.777 247.913 544.888 247.101Z" stroke="#7BBEFD" stroke-width="2.87473"/>
<path d="M613.403 290.293L619.334 286.162C620.087 285.638 620.078 284.521 619.317 284.009C619.102 283.863 618.848 283.786 618.588 283.786H612.781C611.983 283.786 611.205 284.031 610.551 284.488L609.745 285.052C607.936 286.318 607.924 288.993 609.722 290.274C610.822 291.057 612.295 291.065 613.403 290.293Z" stroke="#7BBEFD" stroke-width="2.87473"/>
<path d="M622.7 275.876L625.075 274.214C625.736 273.752 625.751 272.778 625.105 272.295C624.9 272.142 624.652 272.06 624.396 272.06H617.454C617.207 272.06 616.967 272.134 616.764 272.274C616.061 272.757 616.059 273.795 616.762 274.28L619.087 275.886C620.175 276.638 621.616 276.634 622.7 275.876Z" stroke="#7BBEFD" stroke-width="2.87473"/>
<path d="M626.407 262.874L634.141 257.499C634.88 256.986 634.919 255.907 634.219 255.342C633.979 255.148 633.68 255.042 633.372 255.042H627.75C626.882 255.042 626.034 255.304 625.317 255.794L622.741 257.554C620.905 258.808 620.856 261.499 622.645 262.82C623.758 263.642 625.271 263.664 626.407 262.874Z" stroke="#7BBEFD" stroke-width="2.87473"/>
<path d="M634.956 248.841L641.967 243.986C643.474 242.942 643.459 240.709 641.939 239.685C641.509 239.395 641.003 239.241 640.484 239.241H635.22C634.328 239.241 633.457 239.518 632.729 240.033L625.731 244.987C624.281 246.013 624.302 248.17 625.77 249.168C626.192 249.455 626.69 249.608 627.201 249.608H632.501C633.378 249.608 634.235 249.341 634.956 248.841Z" stroke="#7BBEFD" stroke-width="2.87473"/>
<path d="M481.875 95.0356L487.438 91.0626C489.233 89.7803 489.231 87.1118 487.434 85.8318C486.324 85.0412 484.837 85.0367 483.722 85.8207L478.131 89.7532C476.307 91.0359 476.296 93.7351 478.109 95.0333C479.234 95.8396 480.748 95.8405 481.875 95.0356Z" stroke="#7BBEFD" stroke-width="2.87473"/>
<path d="M500.394 76.6546L496.695 74.0094C494.914 72.7363 494.897 70.0953 496.661 68.7992C497.779 67.978 499.297 67.9654 500.428 68.768L504.137 71.3997C505.938 72.6773 505.952 75.3454 504.165 76.6417C503.041 77.4564 501.523 77.4616 500.394 76.6546Z" stroke="#7BBEFD" stroke-width="2.87473"/>
<path d="M488.704 70.9659L483.015 66.9866C482.29 66.4798 481.428 66.208 480.544 66.208H475.759C474.874 66.208 474.012 66.4798 473.287 66.9866L470.721 68.7817C469.567 69.5885 468.88 70.9076 468.88 72.3152V78.2851C468.88 79.7196 469.593 81.0602 470.783 81.8616L471.61 82.4182C472.321 82.8977 473.16 83.1538 474.018 83.1538H478.8C479.576 83.1538 480.334 82.9188 480.974 82.4798L482.817 81.2152C484.2 80.2663 484.174 78.2159 482.766 77.3031L482.527 77.1477C481.286 76.3433 481.21 74.5558 482.377 73.6486C483.142 73.0548 484.208 73.0451 484.983 73.6249L486.149 74.4973C486.941 75.0902 488.033 75.0751 488.809 74.4605C489.952 73.5543 489.9 71.8022 488.704 70.9659Z" stroke="#7BBEFD" stroke-width="2.87473"/>
<path d="M390.327 57.4682L399.726 50.8661C401.218 49.8186 403.207 49.8218 404.695 50.8741L406.559 52.193C407.408 52.7929 408.011 53.6791 408.258 54.6883L408.817 56.9735C409.232 58.668 408.585 60.4454 407.178 61.4767L407.068 61.5572C406.306 62.1158 405.382 62.4087 404.437 62.3906L391.757 62.1477C391.238 62.1378 390.734 61.9712 390.312 61.6699C388.866 60.639 388.874 58.4887 390.327 57.4682Z" stroke="#7BBEFD" stroke-width="2.87473"/>
<path d="M16.569 75.5312L8.08195 69.2011C7.70988 68.9235 7.38505 68.5878 7.12002 68.2067L3.73853 63.345C2.69632 61.8466 2.71042 59.8543 3.77374 58.3707L6.93222 53.9641C8.3144 52.0357 10.9948 51.5861 12.9305 52.9581L17.7795 56.3948C18.3025 56.7656 18.7364 57.2483 19.0494 57.8079L22.3168 63.6494C22.5084 63.9919 22.7458 64.3066 23.0225 64.5849L25.5646 67.1413C26.7378 68.3212 26.3796 70.3085 24.8682 71.0045C24.2808 71.275 23.8277 71.7716 23.6122 72.3814L23.2126 73.5117C22.2442 76.2514 18.8983 77.2685 16.569 75.5312Z" stroke="#7BBEFD" stroke-width="2.87473"/>
</svg>
