<svg width="191" height="129" viewBox="0 0 191 129" fill="none" xmlns="http://www.w3.org/2000/svg">
<g clip-path="url(#clip0)">
<circle cx="60" cy="23" r="7" fill="white"/>
<path d="M57.4968 22.0765L56.4336 22.7354V21.5674L57.7813 20.6989H58.6199V25.9923H57.4968V22.0765Z" fill="#E2581D"/>
<path d="M59.524 23.3793C59.524 22.9001 59.5789 22.4908 59.6887 22.1514C59.7985 21.812 59.9458 21.535 60.1304 21.3203C60.3201 21.1007 60.5397 20.941 60.7893 20.8411C61.0389 20.7413 61.3059 20.6914 61.5904 20.6914C61.9149 20.6914 62.2069 20.7488 62.4664 20.8636C62.726 20.9734 62.9456 21.1406 63.1253 21.3653C63.305 21.5849 63.4423 21.8619 63.5371 22.1963C63.632 22.5308 63.6794 22.9251 63.6794 23.3793C63.6794 23.8585 63.6245 24.2678 63.5147 24.6072C63.4048 24.9466 63.2551 25.2261 63.0654 25.4458C62.8757 25.6604 62.6561 25.8176 62.4065 25.9175C62.157 26.0173 61.8899 26.0672 61.6054 26.0672C60.9515 26.0622 60.4399 25.8401 60.0705 25.4008C59.7062 24.9616 59.524 24.2877 59.524 23.3793ZM60.6545 23.3793C60.6545 23.6588 60.672 23.8984 60.707 24.0981C60.7419 24.2927 60.7968 24.4525 60.8717 24.5773C60.9465 24.697 61.0439 24.7869 61.1637 24.8468C61.2885 24.9067 61.4382 24.9366 61.6129 24.9366C61.9523 24.9366 62.1919 24.8069 62.3317 24.5473C62.4714 24.2877 62.5413 23.8984 62.5413 23.3793C62.5413 23.1048 62.5238 22.8702 62.4889 22.6755C62.454 22.4759 62.3991 22.3136 62.3242 22.1888C62.2493 22.0641 62.1495 21.9717 62.0247 21.9118C61.9049 21.8519 61.7602 21.8195 61.5904 21.8145C61.246 21.8145 61.004 21.9468 60.8642 22.2113C60.7244 22.4709 60.6545 22.8602 60.6545 23.3793Z" fill="#E2581D"/>
<path d="M60 30C59.0521 30 58.1452 29.8154 57.2793 29.4463C56.4134 29.0771 55.6683 28.5804 55.0439 27.9561C54.4196 27.3317 53.9229 26.5866 53.5537 25.7207C53.1846 24.8548 53 23.9479 53 23C53 22.0521 53.1846 21.1452 53.5537 20.2793C53.9229 19.4134 54.4196 18.6683 55.0439 18.0439C55.6683 17.4196 56.4134 16.9229 57.2793 16.5537C58.1452 16.1846 59.0521 16 60 16C60.9479 16 61.8548 16.1846 62.7207 16.5537C63.5866 16.9229 64.3317 17.4196 64.9561 18.0439C65.5804 18.6683 66.0771 19.4134 66.4463 20.2793C66.8154 21.1452 67 22.0521 67 23C67 23.9479 66.8154 24.8548 66.4463 25.7207C66.0771 26.5866 65.5804 27.3317 64.9561 27.9561C64.3317 28.5804 63.5866 29.0771 62.7207 29.4463C61.8548 29.8154 60.9479 30 60 30ZM64.8398 19.2676C64.2109 18.4473 63.4134 17.8229 62.4473 17.3945L60 18.625L57.5527 17.3945C56.5866 17.8229 55.7845 18.4473 55.1465 19.2676L55.625 19.5V22.125L53.9023 23.4238C53.9753 24.5449 54.3353 25.5703 54.9824 26.5H57.375L58.25 28.6875V28.8652C58.8242 29.0384 59.4076 29.125 60 29.125C60.5924 29.125 61.1758 29.0384 61.75 28.8652V28.6875L62.625 26.5H65.0176C65.6647 25.5703 66.0247 24.5449 66.0977 23.4238L64.375 22.125V19.5L64.8398 19.2676Z" fill="#E2581D"/>
</g>
<g clip-path="url(#clip1)">
<circle cx="80" cy="54" r="9" fill="white"/>
<path d="M80 63C78.7812 63 77.6152 62.7627 76.502 62.2881C75.3887 61.8135 74.4307 61.1748 73.6279 60.3721C72.8252 59.5693 72.1865 58.6113 71.7119 57.498C71.2373 56.3848 71 55.2188 71 54C71 52.7812 71.2373 51.6152 71.7119 50.502C72.1865 49.3887 72.8252 48.4307 73.6279 47.6279C74.4307 46.8252 75.3887 46.1865 76.502 45.7119C77.6152 45.2373 78.7812 45 80 45C81.2188 45 82.3848 45.2373 83.498 45.7119C84.6113 46.1865 85.5693 46.8252 86.3721 47.6279C87.1748 48.4307 87.8135 49.3887 88.2881 50.502C88.7627 51.6152 89 52.7812 89 54C89 55.2188 88.7627 56.3848 88.2881 57.498C87.8135 58.6113 87.1748 59.5693 86.3721 60.3721C85.5693 61.1748 84.6113 61.8135 83.498 62.2881C82.3848 62.7627 81.2188 63 80 63ZM86.2227 49.2012C85.4141 48.1465 84.3887 47.3437 83.1465 46.793L80 48.375L76.8535 46.793C75.6113 47.3437 74.5801 48.1465 73.7598 49.2012L74.375 49.5V52.875L72.1602 54.5449C72.2539 55.9863 72.7168 57.3047 73.5488 58.5H76.625L77.75 61.3125V61.541C78.4883 61.7637 79.2383 61.875 80 61.875C80.7617 61.875 81.5117 61.7637 82.25 61.541V61.3125L83.375 58.5H86.4512C87.2832 57.3047 87.7461 55.9863 87.8398 54.5449L85.625 52.875V49.5L86.2227 49.2012Z" fill="#E2581D"/>
<path d="M77.3008 57.168V55.8828C77.8192 55.4364 78.2584 55.0476 78.6184 54.7164C78.9856 54.378 79.2916 54.0828 79.5364 53.8308C79.7812 53.5788 79.972 53.3628 80.1088 53.1828C80.2528 53.0028 80.3608 52.8516 80.4328 52.7292C80.5048 52.5996 80.548 52.4916 80.5624 52.4052C80.584 52.3116 80.5948 52.2288 80.5948 52.1568C80.5948 51.8904 80.5084 51.6888 80.3356 51.552C80.1628 51.408 79.9216 51.336 79.612 51.336C79.2016 51.336 78.82 51.4008 78.4672 51.5304C78.1144 51.6528 77.8048 51.8508 77.5384 52.1244V50.2236C77.632 50.1372 77.7544 50.0508 77.9056 49.9644C78.0568 49.878 78.2296 49.8024 78.424 49.7376C78.6256 49.6656 78.8416 49.608 79.072 49.5648C79.3096 49.5216 79.558 49.5 79.8172 49.5C80.2636 49.5 80.6524 49.5576 80.9836 49.6728C81.3148 49.7808 81.5884 49.9356 81.8044 50.1372C82.0204 50.3316 82.1824 50.5656 82.2904 50.8392C82.3984 51.1128 82.4524 51.4116 82.4524 51.7356C82.4524 52.0308 82.4092 52.3152 82.3228 52.5888C82.2436 52.8624 82.114 53.136 81.934 53.4096C81.7612 53.6832 81.5308 53.9712 81.2428 54.2736C80.962 54.5688 80.62 54.8892 80.2168 55.2348L79.9792 55.44H82.6252V57.168H77.3008Z" fill="#E2581D"/>
</g>
<g clip-path="url(#clip2)">
<circle cx="184" cy="122" r="7" fill="white"/>
<path d="M184 129C183.052 129 182.145 128.815 181.279 128.446C180.413 128.077 179.668 127.58 179.044 126.956C178.42 126.332 177.923 125.587 177.554 124.721C177.185 123.855 177 122.948 177 122C177 121.052 177.185 120.145 177.554 119.279C177.923 118.413 178.42 117.668 179.044 117.044C179.668 116.42 180.413 115.923 181.279 115.554C182.145 115.185 183.052 115 184 115C184.948 115 185.855 115.185 186.721 115.554C187.587 115.923 188.332 116.42 188.956 117.044C189.58 117.668 190.077 118.413 190.446 119.279C190.815 120.145 191 121.052 191 122C191 122.948 190.815 123.855 190.446 124.721C190.077 125.587 189.58 126.332 188.956 126.956C188.332 127.58 187.587 128.077 186.721 128.446C185.855 128.815 184.948 129 184 129ZM188.84 118.268C188.211 117.447 187.413 116.823 186.447 116.395L184 117.625L181.553 116.395C180.587 116.823 179.785 117.447 179.146 118.268L179.625 118.5V121.125L177.902 122.424C177.975 123.545 178.335 124.57 178.982 125.5H181.375L182.25 127.688V127.865C182.824 128.038 183.408 128.125 184 128.125C184.592 128.125 185.176 128.038 185.75 127.865V127.688L186.625 125.5H189.018C189.665 124.57 190.025 123.545 190.098 122.424L188.375 121.125V118.5L188.84 118.268Z" fill="#E2581D"/>
<path d="M184.266 119.008H185.704V122.692H186.405V123.886H185.704V125.297H184.347V123.886H181.445V122.763L184.266 119.008ZM184.347 122.692V120.688L182.802 122.692H184.347Z" fill="#E2581D"/>
</g>
<g clip-path="url(#clip3)">
<circle cx="127" cy="82" r="7" fill="white"/>
<path d="M127 89C126.052 89 125.145 88.8154 124.279 88.4463C123.413 88.0771 122.668 87.5804 122.044 86.9561C121.42 86.3317 120.923 85.5866 120.554 84.7207C120.185 83.8548 120 82.9479 120 82C120 81.0521 120.185 80.1452 120.554 79.2793C120.923 78.4134 121.42 77.6683 122.044 77.0439C122.668 76.4196 123.413 75.9229 124.279 75.5537C125.145 75.1846 126.052 75 127 75C127.948 75 128.855 75.1846 129.721 75.5537C130.587 75.9229 131.332 76.4196 131.956 77.0439C132.58 77.6683 133.077 78.4134 133.446 79.2793C133.815 80.1452 134 81.0521 134 82C134 82.9479 133.815 83.8548 133.446 84.7207C133.077 85.5866 132.58 86.3317 131.956 86.9561C131.332 87.5804 130.587 88.0771 129.721 88.4463C128.855 88.8154 127.948 89 127 89ZM131.84 78.2676C131.211 77.4473 130.413 76.8229 129.447 76.3945L127 77.625L124.553 76.3945C123.587 76.8229 122.785 77.4473 122.146 78.2676L122.625 78.5V81.125L120.902 82.4238C120.975 83.5449 121.335 84.5703 121.982 85.5H124.375L125.25 87.6875V87.8652C125.824 88.0384 126.408 88.125 127 88.125C127.592 88.125 128.176 88.0384 128.75 87.8652V87.6875L129.625 85.5H132.018C132.665 84.5703 133.025 83.5449 133.098 82.4238L131.375 81.125V78.5L131.84 78.2676Z" fill="#E2581D"/>
<path d="M124.949 79.2153C125.027 79.1434 125.129 79.0715 125.255 78.9996C125.38 78.9277 125.527 78.8649 125.695 78.8109C125.869 78.751 126.057 78.7031 126.261 78.6672C126.471 78.6313 126.692 78.6133 126.926 78.6133C127.633 78.6193 128.166 78.763 128.525 79.0445C128.884 79.3261 129.064 79.7304 129.064 80.2575C129.064 80.6169 128.968 80.9163 128.777 81.1559C128.585 81.3895 128.351 81.5692 128.076 81.695C128.471 81.7789 128.771 81.9406 128.974 82.1802C129.178 82.4138 129.28 82.7432 129.28 83.1685C129.28 83.432 129.229 83.6776 129.127 83.9052C129.031 84.1328 128.881 84.3335 128.678 84.5072C128.48 84.6749 128.232 84.8097 127.932 84.9115C127.633 85.0073 127.285 85.0582 126.89 85.0642C126.644 85.0642 126.414 85.0433 126.198 85.0013C125.982 84.9654 125.788 84.9175 125.614 84.8576C125.446 84.7917 125.3 84.7228 125.174 84.6509C125.054 84.5731 124.964 84.5042 124.904 84.4443V82.9169C125.114 83.1086 125.383 83.2703 125.713 83.4021C126.042 83.5339 126.426 83.5938 126.863 83.5818C127.51 83.5818 127.833 83.3781 127.833 82.9708C127.833 82.857 127.815 82.7612 127.779 82.6833C127.749 82.6054 127.693 82.5426 127.609 82.4946C127.525 82.4407 127.411 82.4048 127.267 82.3868C127.123 82.3629 126.941 82.3509 126.719 82.3509H126.072V81.2727H126.531C126.878 81.2727 127.144 81.2368 127.33 81.1649C127.522 81.087 127.618 80.9283 127.618 80.6887C127.618 80.4791 127.555 80.3293 127.429 80.2395C127.303 80.1437 127.082 80.0957 126.764 80.0957C126.441 80.0957 126.111 80.1556 125.776 80.2754C125.446 80.3952 125.171 80.5689 124.949 80.7965V79.2153Z" fill="#E2581D"/>
</g>
<g clip-path="url(#clip4)">
<circle cx="106" cy="69" r="7" fill="white"/>
<path d="M106 76C105.052 76 104.145 75.8154 103.279 75.4463C102.413 75.0771 101.668 74.5804 101.044 73.9561C100.42 73.3317 99.9229 72.5866 99.5537 71.7207C99.1846 70.8548 99 69.9479 99 69C99 68.0521 99.1846 67.1452 99.5537 66.2793C99.9229 65.4134 100.42 64.6683 101.044 64.0439C101.668 63.4196 102.413 62.9229 103.279 62.5537C104.145 62.1846 105.052 62 106 62C106.948 62 107.855 62.1846 108.721 62.5537C109.587 62.9229 110.332 63.4196 110.956 64.0439C111.58 64.6683 112.077 65.4134 112.446 66.2793C112.815 67.1452 113 68.0521 113 69C113 69.9479 112.815 70.8548 112.446 71.7207C112.077 72.5866 111.58 73.3317 110.956 73.9561C110.332 74.5804 109.587 75.0771 108.721 75.4463C107.855 75.8154 106.948 76 106 76ZM110.84 65.2676C110.211 64.4473 109.413 63.8229 108.447 63.3945L106 64.625L103.553 63.3945C102.587 63.8229 101.785 64.4473 101.146 65.2676L101.625 65.5V68.125L99.9023 69.4238C99.9753 70.5449 100.335 71.5703 100.982 72.5H103.375L104.25 74.6875V74.8652C104.824 75.0384 105.408 75.125 106 75.125C106.592 75.125 107.176 75.0384 107.75 74.8652V74.6875L108.625 72.5H111.018C111.665 71.5703 112.025 70.5449 112.098 69.4238L110.375 68.125V65.5L110.84 65.2676Z" fill="#E2581D"/>
<path d="M105.692 67.2938L104.416 68.0844V66.6828L106.033 65.6406H107.04V71.9927H105.692V67.2938Z" fill="#E2581D"/>
</g>
<g clip-path="url(#clip5)">
<circle cx="94" cy="85" r="7" fill="white"/>
<path d="M94 92C93.0521 92 92.1452 91.8154 91.2793 91.4463C90.4134 91.0771 89.6683 90.5804 89.0439 89.9561C88.4196 89.3317 87.9229 88.5866 87.5537 87.7207C87.1846 86.8548 87 85.9479 87 85C87 84.0521 87.1846 83.1452 87.5537 82.2793C87.9229 81.4134 88.4196 80.6683 89.0439 80.0439C89.6683 79.4196 90.4134 78.9229 91.2793 78.5537C92.1452 78.1846 93.0521 78 94 78C94.9479 78 95.8548 78.1846 96.7207 78.5537C97.5866 78.9229 98.3317 79.4196 98.9561 80.0439C99.5804 80.6683 100.077 81.4134 100.446 82.2793C100.815 83.1452 101 84.0521 101 85C101 85.9479 100.815 86.8548 100.446 87.7207C100.077 88.5866 99.5804 89.3317 98.9561 89.9561C98.3317 90.5804 97.5866 91.0771 96.7207 91.4463C95.8548 91.8154 94.9479 92 94 92ZM98.8398 81.2676C98.2109 80.4473 97.4134 79.8229 96.4473 79.3945L94 80.625L91.5527 79.3945C90.5866 79.8229 89.7845 80.4473 89.1465 81.2676L89.625 81.5V84.125L87.9023 85.4238C87.9753 86.5449 88.3353 87.5703 88.9824 88.5H91.375L92.25 90.6875V90.8652C92.8242 91.0384 93.4076 91.125 94 91.125C94.5924 91.125 95.1758 91.0384 95.75 90.8652V90.6875L96.625 88.5H99.0176C99.6647 87.5703 100.025 86.5449 100.098 85.4238L98.375 84.125V81.5L98.8398 81.2676Z" fill="#E2581D"/>
<path d="M96.0556 83.7791C95.9538 83.6832 95.837 83.5904 95.7052 83.5005C95.5734 83.4107 95.4297 83.3328 95.2739 83.2669C95.1182 83.1951 94.9475 83.1441 94.7618 83.1142C94.5821 83.0783 94.3904 83.0693 94.1868 83.0872C93.8034 83.1292 93.492 83.2789 93.2524 83.5365C93.0128 83.788 92.884 84.1295 92.8661 84.5607V84.6326C92.9978 84.3571 93.1955 84.1414 93.459 83.9857C93.7286 83.83 94.043 83.7521 94.4024 83.7521C94.7259 83.7521 95.0134 83.806 95.2649 83.9138C95.5225 84.0216 95.7381 84.1714 95.9118 84.3631C96.0855 84.5487 96.2173 84.7704 96.3072 85.0279C96.403 85.2795 96.4509 85.552 96.4509 85.8455C96.4509 86.1929 96.385 86.5044 96.2533 86.7799C96.1275 87.0495 95.9568 87.2801 95.7411 87.4717C95.5255 87.6634 95.2739 87.8101 94.9864 87.912C94.7049 88.0138 94.4084 88.0647 94.0969 88.0647C93.7256 88.0647 93.3812 88.0018 93.0637 87.876C92.7463 87.7503 92.4707 87.5616 92.2371 87.31C92.0035 87.0584 91.8178 86.744 91.6801 86.3666C91.5483 85.9833 91.4824 85.54 91.4824 85.0369C91.4824 84.4559 91.5513 83.9557 91.6891 83.5365C91.8268 83.1172 92.0155 82.7698 92.2551 82.4942C92.4947 82.2187 92.7762 82.0121 93.0997 81.8743C93.4291 81.7365 93.7825 81.6587 94.1598 81.6407C94.3934 81.6287 94.6121 81.6437 94.8157 81.6856C95.0254 81.7216 95.211 81.7725 95.3728 81.8384C95.5345 81.9043 95.6722 81.9761 95.7861 82.054C95.9058 82.1259 95.9957 82.1918 96.0556 82.2517V83.7791ZM94.0071 85.0639C93.7436 85.0639 93.5129 85.1387 93.3153 85.2885C93.1236 85.4322 93.0128 85.6449 92.9829 85.9264C93.0607 86.154 93.1805 86.3277 93.3422 86.4475C93.504 86.5673 93.7286 86.6272 94.0161 86.6272C94.1778 86.6272 94.3186 86.6062 94.4384 86.5643C94.5582 86.5164 94.657 86.4565 94.7349 86.3846C94.8127 86.3127 94.8696 86.2319 94.9056 86.142C94.9475 86.0462 94.9685 85.9503 94.9685 85.8545C94.9685 85.6508 94.8906 85.4682 94.7349 85.3064C94.5851 85.1447 94.3425 85.0639 94.0071 85.0639Z" fill="#E2581D"/>
</g>
<g clip-path="url(#clip6)">
<circle cx="106" cy="99" r="7" fill="white"/>
<path d="M106 106C105.052 106 104.145 105.815 103.279 105.446C102.413 105.077 101.668 104.58 101.044 103.956C100.42 103.332 99.9229 102.587 99.5537 101.721C99.1846 100.855 99 99.9479 99 99C99 98.0521 99.1846 97.1452 99.5537 96.2793C99.9229 95.4134 100.42 94.6683 101.044 94.0439C101.668 93.4196 102.413 92.9229 103.279 92.5537C104.145 92.1846 105.052 92 106 92C106.948 92 107.855 92.1846 108.721 92.5537C109.587 92.9229 110.332 93.4196 110.956 94.0439C111.58 94.6683 112.077 95.4134 112.446 96.2793C112.815 97.1452 113 98.0521 113 99C113 99.9479 112.815 100.855 112.446 101.721C112.077 102.587 111.58 103.332 110.956 103.956C110.332 104.58 109.587 105.077 108.721 105.446C107.855 105.815 106.948 106 106 106ZM110.84 95.2676C110.211 94.4473 109.413 93.8229 108.447 93.3945L106 94.625L103.553 93.3945C102.587 93.8229 101.785 94.4473 101.146 95.2676L101.625 95.5V98.125L99.9023 99.4238C99.9753 100.545 100.335 101.57 100.982 102.5H103.375L104.25 104.688V104.865C104.824 105.038 105.408 105.125 106 105.125C106.592 105.125 107.176 105.038 107.75 104.865V104.688L108.625 102.5H111.018C111.665 101.57 112.025 100.545 112.098 99.4238L110.375 98.125V95.5L110.84 95.2676Z" fill="#E2581D"/>
<path d="M104.041 100.104C104.233 100.254 104.472 100.374 104.76 100.464C105.053 100.554 105.389 100.599 105.766 100.599C105.94 100.599 106.084 100.578 106.197 100.536C106.317 100.494 106.413 100.44 106.485 100.374C106.557 100.308 106.608 100.233 106.638 100.149C106.668 100.059 106.682 99.9726 106.682 99.8888C106.682 99.3916 106.281 99.1431 105.479 99.1431C105.197 99.1431 104.945 99.167 104.724 99.2149C104.502 99.2569 104.305 99.3108 104.131 99.3767L104.338 95.7109H107.868V97.1485H105.586L105.541 97.9391C105.637 97.9212 105.736 97.9092 105.838 97.9032C105.94 97.8912 106.033 97.8852 106.116 97.8852C106.476 97.8852 106.787 97.9391 107.051 98.0469C107.314 98.1488 107.53 98.2895 107.698 98.4692C107.871 98.6489 108 98.8615 108.084 99.1071C108.168 99.3467 108.21 99.6073 108.21 99.8888C108.21 100.242 108.147 100.557 108.021 100.832C107.895 101.102 107.725 101.329 107.509 101.515C107.293 101.701 107.042 101.841 106.754 101.937C106.467 102.027 106.161 102.072 105.838 102.072C105.61 102.072 105.398 102.054 105.2 102.018C105.008 101.982 104.835 101.94 104.679 101.892C104.529 101.838 104.4 101.782 104.293 101.722C104.185 101.656 104.101 101.596 104.041 101.542V100.104Z" fill="#E2581D"/>
</g>
<g clip-path="url(#clip7)">
<circle cx="58" cy="95" r="7" fill="white"/>
<path d="M58 102C57.0521 102 56.1452 101.815 55.2793 101.446C54.4134 101.077 53.6683 100.58 53.0439 99.9561C52.4196 99.3317 51.9229 98.5866 51.5537 97.7207C51.1846 96.8548 51 95.9479 51 95C51 94.0521 51.1846 93.1452 51.5537 92.2793C51.9229 91.4134 52.4196 90.6683 53.0439 90.0439C53.6683 89.4196 54.4134 88.9229 55.2793 88.5537C56.1452 88.1846 57.0521 88 58 88C58.9479 88 59.8548 88.1846 60.7207 88.5537C61.5866 88.9229 62.3317 89.4196 62.9561 90.0439C63.5804 90.6683 64.0771 91.4134 64.4463 92.2793C64.8154 93.1452 65 94.0521 65 95C65 95.9479 64.8154 96.8548 64.4463 97.7207C64.0771 98.5866 63.5804 99.3317 62.9561 99.9561C62.3317 100.58 61.5866 101.077 60.7207 101.446C59.8548 101.815 58.9479 102 58 102ZM62.8398 91.2676C62.2109 90.4473 61.4134 89.8229 60.4473 89.3945L58 90.625L55.5527 89.3945C54.5866 89.8229 53.7845 90.4473 53.1465 91.2676L53.625 91.5V94.125L51.9023 95.4238C51.9753 96.5449 52.3353 97.5703 52.9824 98.5H55.375L56.25 100.688V100.865C56.8242 101.038 57.4076 101.125 58 101.125C58.5924 101.125 59.1758 101.038 59.75 100.865V100.688L60.625 98.5H63.0176C63.6647 97.5703 64.0247 96.5449 64.0977 95.4238L62.375 94.125V91.5L62.8398 91.2676Z" fill="#E2581D"/>
<path d="M55.9121 91.7109H60.1259V92.7801L58.0774 98.0002H56.6399L58.5446 93.2293H55.9121V91.7109Z" fill="#E2581D"/>
</g>
<g clip-path="url(#clip8)">
<circle cx="7" cy="95" r="7" fill="white"/>
<path d="M7 102C6.05208 102 5.14518 101.815 4.2793 101.446C3.41341 101.077 2.66829 100.58 2.04395 99.9561C1.4196 99.3317 0.922852 98.5866 0.553711 97.7207C0.18457 96.8548 0 95.9479 0 95C0 94.0521 0.18457 93.1452 0.553711 92.2793C0.922852 91.4134 1.4196 90.6683 2.04395 90.0439C2.66829 89.4196 3.41341 88.9229 4.2793 88.5537C5.14518 88.1846 6.05208 88 7 88C7.94792 88 8.85482 88.1846 9.7207 88.5537C10.5866 88.9229 11.3317 89.4196 11.9561 90.0439C12.5804 90.6683 13.0771 91.4134 13.4463 92.2793C13.8154 93.1452 14 94.0521 14 95C14 95.9479 13.8154 96.8548 13.4463 97.7207C13.0771 98.5866 12.5804 99.3317 11.9561 99.9561C11.3317 100.58 10.5866 101.077 9.7207 101.446C8.85482 101.815 7.94792 102 7 102ZM11.8398 91.2676C11.2109 90.4473 10.4134 89.8229 9.44727 89.3945L7 90.625L4.55273 89.3945C3.58659 89.8229 2.78451 90.4473 2.14648 91.2676L2.625 91.5V94.125L0.902344 95.4238C0.97526 96.5449 1.33529 97.5703 1.98242 98.5H4.375L5.25 100.688V100.865C5.82422 101.038 6.40755 101.125 7 101.125C7.59245 101.125 8.17578 101.038 8.75 100.865V100.688L9.625 98.5H12.0176C12.6647 97.5703 13.0247 96.5449 13.0977 95.4238L11.375 94.125V91.5L11.8398 91.2676Z" fill="#E2581D"/>
<path d="M7.00788 98.0861C6.63053 98.0861 6.28612 98.0442 5.97465 97.9603C5.66917 97.8705 5.40562 97.7447 5.184 97.583C4.96238 97.4212 4.79167 97.2236 4.67188 96.99C4.55208 96.7504 4.49219 96.4779 4.49219 96.1724C4.49219 96.0107 4.51016 95.8519 4.5461 95.6962C4.58802 95.5345 4.65391 95.3847 4.74376 95.247C4.83959 95.1092 4.96238 94.9894 5.11213 94.8876C5.26187 94.7798 5.44456 94.6959 5.66019 94.636C5.52841 94.6001 5.40263 94.5462 5.28283 94.4743C5.16903 94.4024 5.0672 94.3126 4.97736 94.2048C4.88751 94.091 4.81563 93.9592 4.76173 93.8094C4.70782 93.6537 4.68086 93.48 4.68086 93.2883C4.68086 92.7732 4.88452 92.3659 5.29182 92.0664C5.70511 91.7669 6.27414 91.6172 6.99889 91.6172C7.72365 91.6172 8.2777 91.7639 8.66105 92.0574C9.05038 92.3509 9.24505 92.7552 9.24505 93.2704C9.24505 93.9412 8.9246 94.3934 8.28369 94.627C8.69699 94.7169 9.00246 94.8966 9.20012 95.1661C9.40378 95.4297 9.5056 95.7681 9.5056 96.1814C9.5056 96.4629 9.4487 96.7204 9.33489 96.954C9.22708 97.1876 9.06536 97.3883 8.84972 97.556C8.64008 97.7237 8.37953 97.8555 8.06806 97.9513C7.76259 98.0412 7.40919 98.0861 7.00788 98.0861ZM7.01686 96.7294C7.39422 96.7294 7.67274 96.6755 7.85243 96.5677C8.03812 96.4539 8.13096 96.2652 8.13096 96.0017C8.13096 95.7142 8.03212 95.5165 7.83446 95.4087C7.64279 95.3009 7.36726 95.247 7.00788 95.247C6.63652 95.247 6.355 95.3039 6.16333 95.4177C5.97764 95.5255 5.8848 95.7142 5.8848 95.9837C5.8848 96.2592 5.98663 96.4539 6.19028 96.5677C6.39393 96.6755 6.66946 96.7294 7.01686 96.7294ZM6.98991 94.1508C7.32534 94.1508 7.55894 94.0939 7.69071 93.9801C7.82847 93.8663 7.89736 93.7136 7.89736 93.5219C7.89736 93.3482 7.83147 93.2135 7.69969 93.1176C7.56792 93.0218 7.33133 92.9739 6.98991 92.9739C6.64849 92.9739 6.40291 93.0248 6.25317 93.1266C6.10343 93.2284 6.02856 93.3662 6.02856 93.5399C6.02856 93.6956 6.10043 93.8364 6.24419 93.9622C6.38794 94.088 6.63651 94.1508 6.98991 94.1508Z" fill="#E2581D"/>
</g>
<g clip-path="url(#clip9)">
<circle cx="33" cy="71" r="7" fill="white"/>
<path d="M33 78C32.0521 78 31.1452 77.8154 30.2793 77.4463C29.4134 77.0771 28.6683 76.5804 28.0439 75.9561C27.4196 75.3317 26.9229 74.5866 26.5537 73.7207C26.1846 72.8548 26 71.9479 26 71C26 70.0521 26.1846 69.1452 26.5537 68.2793C26.9229 67.4134 27.4196 66.6683 28.0439 66.0439C28.6683 65.4196 29.4134 64.9229 30.2793 64.5537C31.1452 64.1846 32.0521 64 33 64C33.9479 64 34.8548 64.1846 35.7207 64.5537C36.5866 64.9229 37.3317 65.4196 37.9561 66.0439C38.5804 66.6683 39.0771 67.4134 39.4463 68.2793C39.8154 69.1452 40 70.0521 40 71C40 71.9479 39.8154 72.8548 39.4463 73.7207C39.0771 74.5866 38.5804 75.3317 37.9561 75.9561C37.3317 76.5804 36.5866 77.0771 35.7207 77.4463C34.8548 77.8154 33.9479 78 33 78ZM37.8398 67.2676C37.2109 66.4473 36.4134 65.8229 35.4473 65.3945L33 66.625L30.5527 65.3945C29.5866 65.8229 28.7845 66.4473 28.1465 67.2676L28.625 67.5V70.125L26.9023 71.4238C26.9753 72.5449 27.3353 73.5703 27.9824 74.5H30.375L31.25 76.6875V76.8652C31.8242 77.0384 32.4076 77.125 33 77.125C33.5924 77.125 34.1758 77.0384 34.75 76.8652V76.6875L35.625 74.5H38.0176C38.6647 73.5703 39.0247 72.5449 39.0977 71.4238L37.375 70.125V67.5L37.8398 67.2676Z" fill="#E2581D"/>
<path d="M30.9344 71.9146C31.0362 72.0104 31.15 72.1032 31.2758 72.1931C31.4076 72.2829 31.5513 72.3638 31.7071 72.4357C31.8688 72.5016 32.0395 72.5525 32.2192 72.5884C32.4049 72.6184 32.5995 72.6244 32.8032 72.6064C33.1865 72.5645 33.498 72.4147 33.7376 72.1572C33.9832 71.8936 34.1119 71.5432 34.1239 71.106V71.061C33.9921 71.3366 33.7915 71.5522 33.522 71.7079C33.2584 71.8637 32.9469 71.9415 32.5876 71.9415C32.2641 71.9415 31.9736 71.8876 31.716 71.7798C31.4645 71.672 31.2518 71.5252 31.0781 71.3396C30.9044 71.1479 30.7697 70.9263 30.6738 70.6747C30.584 70.4171 30.5391 70.1416 30.5391 69.8481C30.5391 69.5007 30.602 69.1922 30.7277 68.9227C30.8595 68.6472 31.0332 68.4136 31.2488 68.2219C31.4645 68.0302 31.7131 67.8835 31.9946 67.7816C32.2821 67.6798 32.5816 67.6289 32.893 67.6289C33.2644 67.6289 33.6088 67.6918 33.9263 67.8176C34.2437 67.9434 34.5192 68.132 34.7528 68.3836C34.9864 68.6352 35.1691 68.9526 35.3009 69.336C35.4387 69.7133 35.5076 70.1536 35.5076 70.6567C35.5076 71.2437 35.4387 71.7469 35.3009 72.1661C35.1631 72.5794 34.9745 72.9238 34.7349 73.1994C34.4953 73.4749 34.2108 73.6815 33.8813 73.8193C33.5579 73.9571 33.2075 74.0349 32.8301 74.0529C32.5965 74.0649 32.3749 74.0499 32.1653 74.008C31.9616 73.972 31.7789 73.9211 31.6172 73.8552C31.4555 73.7894 31.3147 73.7205 31.1949 73.6486C31.0811 73.5707 30.9943 73.5019 30.9344 73.442V71.9146ZM32.9829 70.6298C33.2464 70.6298 33.474 70.5579 33.6657 70.4141C33.8634 70.2644 33.9772 70.0488 34.0071 69.7672C33.9293 69.5396 33.8095 69.3659 33.6477 69.2461C33.486 69.1263 33.2614 69.0664 32.9739 69.0664C32.8122 69.0664 32.6714 69.0904 32.5516 69.1383C32.4318 69.1802 32.333 69.2372 32.2551 69.309C32.1773 69.3809 32.1174 69.4648 32.0754 69.5606C32.0395 69.6504 32.0215 69.7433 32.0215 69.8391C32.0215 70.0428 32.0964 70.2255 32.2461 70.3872C32.4019 70.5489 32.6475 70.6298 32.9829 70.6298Z" fill="#E2581D"/>
</g>
<g clip-path="url(#clip10)">
<circle cx="7" cy="7" r="7" fill="white"/>
<path d="M5.18623 6.08077L4.12305 6.73964V5.57164L5.47074 4.70312H6.3093V9.99656H5.18623V6.08077Z" fill="#E2581D"/>
<path d="M8.30101 6.08077L7.23783 6.73964V5.57164L8.58552 4.70312H9.42409V9.99656H8.30101V6.08077Z" fill="#E2581D"/>
<path d="M7 14C6.05208 14 5.14518 13.8154 4.2793 13.4463C3.41341 13.0771 2.66829 12.5804 2.04395 11.9561C1.4196 11.3317 0.922852 10.5866 0.553711 9.7207C0.18457 8.85482 0 7.94792 0 7C0 6.05208 0.18457 5.14518 0.553711 4.2793C0.922852 3.41341 1.4196 2.66829 2.04395 2.04395C2.66829 1.4196 3.41341 0.922852 4.2793 0.553711C5.14518 0.18457 6.05208 0 7 0C7.94792 0 8.85482 0.18457 9.7207 0.553711C10.5866 0.922852 11.3317 1.4196 11.9561 2.04395C12.5804 2.66829 13.0771 3.41341 13.4463 4.2793C13.8154 5.14518 14 6.05208 14 7C14 7.94792 13.8154 8.85482 13.4463 9.7207C13.0771 10.5866 12.5804 11.3317 11.9561 11.9561C11.3317 12.5804 10.5866 13.0771 9.7207 13.4463C8.85482 13.8154 7.94792 14 7 14ZM11.8398 3.26758C11.2109 2.44727 10.4134 1.82292 9.44727 1.39453L7 2.625L4.55273 1.39453C3.58659 1.82292 2.78451 2.44727 2.14648 3.26758L2.625 3.5V6.125L0.902344 7.42383C0.97526 8.54492 1.33529 9.57031 1.98242 10.5H4.375L5.25 12.6875V12.8652C5.82422 13.0384 6.40755 13.125 7 13.125C7.59245 13.125 8.17578 13.0384 8.75 12.8652V12.6875L9.625 10.5H12.0176C12.6647 9.57031 13.0247 8.54492 13.0977 7.42383L11.375 6.125V3.5L11.8398 3.26758Z" fill="#E2581D"/>
</g>
<defs>
<clipPath id="clip0">
<rect width="14" height="14" fill="white" transform="translate(53 16)"/>
</clipPath>
<clipPath id="clip1">
<rect width="18" height="18" fill="white" transform="translate(71 45)"/>
</clipPath>
<clipPath id="clip2">
<rect width="14" height="14" fill="white" transform="translate(177 115)"/>
</clipPath>
<clipPath id="clip3">
<rect width="14" height="14" fill="white" transform="translate(120 75)"/>
</clipPath>
<clipPath id="clip4">
<rect width="14" height="14" fill="white" transform="translate(99 62)"/>
</clipPath>
<clipPath id="clip5">
<rect width="14" height="14" fill="white" transform="translate(87 78)"/>
</clipPath>
<clipPath id="clip6">
<rect width="14" height="14" fill="white" transform="translate(99 92)"/>
</clipPath>
<clipPath id="clip7">
<rect width="14" height="14" fill="white" transform="translate(51 88)"/>
</clipPath>
<clipPath id="clip8">
<rect width="14" height="14" fill="white" transform="translate(0 88)"/>
</clipPath>
<clipPath id="clip9">
<rect width="14" height="14" fill="white" transform="translate(26 64)"/>
</clipPath>
<clipPath id="clip10">
<rect width="14" height="14" fill="white"/>
</clipPath>
</defs>
</svg>
