<svg width="229" height="82" viewBox="0 0 229 82" fill="none" xmlns="http://www.w3.org/2000/svg">
<path d="M39 56L0 81.5V56H39Z" fill="white"/>
<rect width="229" height="56" transform="matrix(1 0 0 -1 0 56)" fill="white"/>
<path d="M13.0376 23.9981H14.1996V14.1001H13.3596L10.8396 15.7241V16.9981L13.0376 15.6121V23.9981Z" fill="black"/>
<path d="M19.4625 20.0081C19.4625 16.4521 17.4465 13.8901 16.7745 13.4141L16.1725 13.8761C16.6345 14.4081 18.2585 16.4941 18.2725 19.9801C18.2725 23.4801 16.6345 25.5801 16.1725 26.1121L16.7745 26.5741C17.4465 26.0981 19.4485 23.5501 19.4625 20.0081Z" fill="black"/>
<path d="M33.2692 21.0441C32.7232 22.0801 31.4632 23.0181 29.6712 23.0181C27.2352 22.9621 25.9472 21.2821 25.9472 19.0981C25.9472 16.7461 27.4032 15.1781 29.7552 15.1781C31.2252 15.1781 32.4572 16.1021 33.0032 17.0261V15.0521C32.5412 14.6181 31.3652 14.0581 29.7552 14.0581C26.5632 14.0581 24.6312 16.1861 24.6312 19.0841C24.6312 22.1921 26.5912 24.1241 29.7272 24.1381C31.4632 24.1381 32.7792 23.4521 33.2692 22.8641V21.0441Z" fill="black"/>
<path d="M36.0938 23.9981H37.2558V18.0341H39.5798V16.9981H33.7558V18.0341H36.0938V23.9981Z" fill="black"/>
<path d="M41.1593 19.1821C41.6353 18.3981 42.4473 17.8661 43.5393 17.8661C44.5473 17.8661 45.2473 18.2021 45.2473 19.3921V19.9521H43.5813C41.7193 19.9521 40.6273 20.4001 40.6273 21.9401C40.6273 23.3681 41.5513 24.1101 42.9373 24.1101C44.0433 24.1101 44.9393 23.5781 45.3033 22.8081V23.9981H46.4093V19.3781C46.4093 17.4601 45.3313 16.8581 43.5393 16.8581C42.4613 16.8581 41.6213 17.1801 41.1593 17.5301V19.1821ZM43.2313 23.0321C42.2933 23.0321 41.8173 22.5561 41.8173 21.8701C41.8173 21.0721 42.3633 20.8761 43.6233 20.8761H45.2473V21.6321C45.1773 22.1081 44.6593 23.0321 43.2313 23.0321Z" fill="black"/>
<path d="M47.6295 22.8921V25.8181H48.7355V23.9981H54.2095V25.8181H55.3155V22.8921H54.1815V16.9981H49.2535V17.7961C49.2535 20.4281 48.9455 21.8561 48.4695 22.8921H47.6295ZM50.3455 18.6081L50.3595 18.0341H53.0195V22.8921H49.6175C50.1215 21.7021 50.3035 20.4001 50.3455 18.6081Z" fill="black"/>
<path d="M57.806 23.9981L61.74 18.7481V23.9981H62.902V16.9981H61.88L57.932 22.2061V16.9981H56.77V23.9981H57.806Z" fill="black"/>
<path d="M64.6051 20.4701C64.6051 22.9201 65.8651 24.1241 68.0771 24.1381C70.0511 24.1381 71.5351 22.9481 71.5351 20.5261C71.5351 18.0901 70.2611 16.8721 68.0631 16.8581C66.0891 16.8581 64.6051 18.0481 64.6051 20.4701ZM65.7811 20.4701C65.7811 18.7481 66.5931 17.8661 68.0631 17.8661C69.5331 17.8801 70.3591 18.7061 70.3591 20.4841V20.5261C70.3591 22.2481 69.5471 23.1301 68.0771 23.1301C66.5931 23.1301 65.7811 22.3041 65.7811 20.5121V20.4701Z" fill="black"/>
<path d="M78.1026 23.9981H79.2646V16.9981H78.1026V19.9241H74.4066V16.9981H73.2446V23.9981H74.4066V20.9741H78.1026V23.9981Z" fill="black"/>
<path d="M87.7011 14.6741L87.0571 13.9321C86.2451 14.0861 85.1391 14.9121 85.1391 16.2561C85.1391 16.7601 85.2511 17.1521 85.5171 17.3481C85.6571 17.4461 85.8531 17.5161 86.1191 17.5161C86.7771 17.5161 86.9731 17.1521 86.9731 16.6901C86.9731 16.2421 86.7771 15.8781 86.1191 15.8781H86.0911C86.1611 15.3321 86.7351 14.7861 87.7011 14.6741ZM90.5011 14.6741L89.8571 13.9321C89.0451 14.0861 87.9391 14.9121 87.9391 16.2561C87.9391 16.7601 88.0511 17.1521 88.3171 17.3481C88.4571 17.4461 88.6531 17.5161 88.9191 17.5161C89.5771 17.5161 89.7731 17.1521 89.7731 16.6901C89.7731 16.2421 89.5771 15.8781 88.9191 15.8781H88.8911C88.9611 15.3321 89.5351 14.7861 90.5011 14.6741Z" fill="black"/>
<path d="M99.0994 23.9981H100.359V14.1981H93.5274L93.4294 16.2281C93.1354 22.2201 92.1974 22.7381 91.5114 22.7381C91.3994 22.7381 91.2734 22.7241 91.1334 22.6681V24.0261C91.3434 24.0961 91.4834 24.1101 91.7214 24.1101C93.0234 24.1101 94.2694 23.3961 94.6614 16.2701L94.7034 15.3181H99.0994V23.9981Z" fill="black"/>
<path d="M104.985 24.0261C104.621 25.3281 104.159 25.5101 103.725 25.5101C103.347 25.5101 102.955 25.3141 102.745 25.1041V26.3081C102.955 26.4901 103.417 26.6161 103.865 26.6161C104.677 26.6161 105.307 26.2241 105.853 24.7401L108.723 16.9981H107.477L105.587 22.4581L103.319 16.9981H101.975L104.985 24.0261Z" fill="black"/>
<path d="M113.497 23.9981H114.659V20.9181H115.877L117.725 23.9981H119.097L116.815 20.3161L118.873 16.9981H117.627L115.835 19.9241H114.659V16.9981H113.497V19.9241H112.321L110.599 16.9981H109.269L111.369 20.3721L109.073 23.9981H110.417L112.335 20.9181H113.497V23.9981Z" fill="black"/>
<path d="M125.353 23.9981H126.515V16.9981H125.353V19.9241H121.657V16.9981H120.495V23.9981H121.657V20.9741H125.353V23.9981Z" fill="black"/>
<path d="M129.788 23.9981L133.722 18.7481V23.9981H134.884V16.9981H133.862L129.914 22.2061V16.9981H128.752V23.9981H129.788Z" fill="black"/>
<path d="M137.12 23.9981H138.282V20.9181H139.542L142.062 23.9981H143.532L140.508 20.3021L143.07 16.9981H141.74L139.542 19.9241H138.282V16.9981H137.12V23.9981Z" fill="black"/>
<path d="M145.962 23.9981L149.896 18.7481V23.9981H151.058V16.9981H150.036L146.088 22.2061V16.9981H144.926V23.9981H145.962Z" fill="black"/>
<path d="M155.817 16.7601L156.461 17.5161C157.273 17.3621 158.379 16.5361 158.379 15.1781C158.379 14.6881 158.267 14.2961 158.001 14.1001C157.861 14.0021 157.665 13.9321 157.399 13.9321C156.741 13.9321 156.545 14.2961 156.545 14.7581C156.545 15.1921 156.741 15.5701 157.399 15.5701H157.427C157.357 16.1021 156.783 16.6621 155.817 16.7601ZM153.017 16.7601L153.661 17.5161C154.473 17.3621 155.579 16.5361 155.579 15.1781C155.579 14.6881 155.467 14.2961 155.201 14.1001C155.061 14.0021 154.865 13.9321 154.599 13.9321C153.941 13.9321 153.745 14.2961 153.745 14.7581C153.745 15.1921 153.941 15.5701 154.599 15.5701H154.627C154.557 16.1021 153.983 16.6621 153.017 16.7601Z" fill="black"/>
<path d="M160.02 25.4681L160.706 26.2941C161.56 26.1261 162.736 25.2161 162.736 23.7181C162.736 23.1721 162.624 22.7381 162.33 22.5141C162.19 22.4021 161.98 22.3321 161.7 22.3321C161 22.3321 160.79 22.7381 160.79 23.2421C160.79 23.7321 161 24.1381 161.7 24.1381H161.728C161.658 24.7401 161.042 25.3561 160.02 25.4681Z" fill="black"/>
<path d="M178.191 23.9981H179.451V14.1981H178.065L174.355 20.1481L170.617 14.1981H169.077V23.9981H170.337V16.1581L174.047 21.8981H174.565L178.191 16.0881V23.9981Z" fill="black"/>
<path d="M181.445 20.4701C181.445 22.9201 182.705 24.1241 184.917 24.1381C186.891 24.1381 188.375 22.9481 188.375 20.5261C188.375 18.0901 187.101 16.8721 184.903 16.8581C182.929 16.8581 181.445 18.0481 181.445 20.4701ZM182.621 20.4701C182.621 18.7481 183.433 17.8661 184.903 17.8661C186.373 17.8801 187.199 18.7061 187.199 20.4841V20.5261C187.199 22.2481 186.387 23.1301 184.917 23.1301C183.433 23.1301 182.621 22.3041 182.621 20.5121V20.4701Z" fill="black"/>
<path d="M195.32 23.2841V21.9261C194.97 22.5981 194.2 23.1301 193.038 23.1301C191.554 23.1301 190.728 22.3041 190.728 20.5121V20.4701C190.728 18.7481 191.54 17.8661 193.01 17.8661C193.962 17.8661 194.774 18.3981 195.25 19.1821V17.5301C194.788 17.1801 193.948 16.8581 193.01 16.8581C191.036 16.8581 189.552 18.0481 189.552 20.4701C189.552 22.9201 190.826 24.1381 193.038 24.1381C194.228 24.1381 194.998 23.7181 195.32 23.2841Z" fill="black"/>
<path d="M197.071 23.9981H198.233V20.9181H199.493L202.013 23.9981H203.483L200.459 20.3021L203.021 16.9981H201.691L199.493 19.9241H198.233V16.9981H197.071V23.9981Z" fill="black"/>
<path d="M204.877 23.9981H207.943C209.847 23.9981 210.729 23.3121 210.729 21.9261C210.729 20.6941 210.071 20.3301 209.175 20.2181C209.931 20.0361 210.379 19.4621 210.379 18.5801C210.379 17.5721 209.777 16.9981 207.999 16.9981H204.877V23.9981ZM206.039 22.9901V20.8761H208.139C209.021 20.8761 209.567 21.1001 209.567 21.9401C209.567 22.6401 209.077 22.9901 207.929 22.9901H206.039ZM206.039 19.8821V18.0201L207.859 18.0061C208.741 18.0061 209.203 18.1601 209.203 18.8461C209.203 19.6161 208.629 19.8821 207.761 19.8821H206.039Z" fill="black"/>
<path d="M212.591 19.1821C213.067 18.3981 213.879 17.8661 214.971 17.8661C215.979 17.8661 216.679 18.2021 216.679 19.3921V19.9521H215.013C213.151 19.9521 212.059 20.4001 212.059 21.9401C212.059 23.3681 212.983 24.1101 214.369 24.1101C215.475 24.1101 216.371 23.5781 216.735 22.8081V23.9981H217.841V19.3781C217.841 17.4601 216.763 16.8581 214.971 16.8581C213.893 16.8581 213.053 17.1801 212.591 17.5301V19.1821ZM214.663 23.0321C213.725 23.0321 213.249 22.5561 213.249 21.8701C213.249 21.0721 213.795 20.8761 215.055 20.8761H216.679V21.6321C216.609 22.1081 216.091 23.0321 214.663 23.0321Z" fill="black"/>
<path d="M10.6016 41.9981H17.0836V40.8781H12.4216L12.7716 40.5981C15.8796 38.1201 16.8596 36.8321 16.8596 34.9561C16.8596 33.1501 15.7396 32.1141 13.8216 32.0861C12.3516 32.0721 11.3996 32.6181 10.9236 33.1361V34.5781C11.6096 33.7661 12.4076 33.2481 13.6116 33.2621C14.9276 33.2621 15.6276 33.9761 15.6276 35.1241C15.6276 36.7341 14.6196 37.7561 10.6016 41.2141V41.9981Z" fill="black"/>
<path d="M21.4175 38.0081C21.4175 34.4521 19.4015 31.8901 18.7295 31.4141L18.1275 31.8761C18.5895 32.4081 20.2135 34.4941 20.2275 37.9801C20.2275 41.4801 18.5895 43.5801 18.1275 44.1121L18.7295 44.5741C19.4015 44.0981 21.4035 41.5501 21.4175 38.0081Z" fill="black"/>
<path d="M35.2243 39.0441C34.6783 40.0801 33.4183 41.0181 31.6263 41.0181C29.1903 40.9621 27.9023 39.2821 27.9023 37.0981C27.9023 34.7461 29.3583 33.1781 31.7103 33.1781C33.1803 33.1781 34.4123 34.1021 34.9583 35.0261V33.0521C34.4963 32.6181 33.3203 32.0581 31.7103 32.0581C28.5183 32.0581 26.5863 34.1861 26.5863 37.0841C26.5863 40.1921 28.5463 42.1241 31.6823 42.1381C33.4183 42.1381 34.7343 41.4521 35.2243 40.8641V39.0441Z" fill="black"/>
<path d="M38.0489 41.9981H39.2109V36.0341H41.5349V34.9981H35.7109V36.0341H38.0489V41.9981Z" fill="black"/>
<path d="M43.1144 37.1821C43.5904 36.3981 44.4024 35.8661 45.4944 35.8661C46.5024 35.8661 47.2024 36.2021 47.2024 37.3921V37.9521H45.5364C43.6744 37.9521 42.5824 38.4001 42.5824 39.9401C42.5824 41.3681 43.5064 42.1101 44.8924 42.1101C45.9984 42.1101 46.8944 41.5781 47.2584 40.8081V41.9981H48.3644V37.3781C48.3644 35.4601 47.2864 34.8581 45.4944 34.8581C44.4164 34.8581 43.5764 35.1801 43.1144 35.5301V37.1821ZM45.1864 41.0321C44.2484 41.0321 43.7724 40.5561 43.7724 39.8701C43.7724 39.0721 44.3184 38.8761 45.5784 38.8761H47.2024V39.6321C47.1324 40.1081 46.6144 41.0321 45.1864 41.0321Z" fill="black"/>
<path d="M49.5846 40.8921V43.8181H50.6906V41.9981H56.1646V43.8181H57.2706V40.8921H56.1366V34.9981H51.2086V35.7961C51.2086 38.4281 50.9006 39.8561 50.4246 40.8921H49.5846ZM52.3006 36.6081L52.3146 36.0341H54.9746V40.8921H51.5726C52.0766 39.7021 52.2586 38.4001 52.3006 36.6081Z" fill="black"/>
<path d="M59.761 41.9981L63.695 36.7481V41.9981H64.857V34.9981H63.835L59.887 40.2061V34.9981H58.725V41.9981H59.761Z" fill="black"/>
<path d="M66.5602 38.4701C66.5602 40.9201 67.8202 42.1241 70.0322 42.1381C72.0062 42.1381 73.4902 40.9481 73.4902 38.5261C73.4902 36.0901 72.2162 34.8721 70.0182 34.8581C68.0442 34.8581 66.5602 36.0481 66.5602 38.4701ZM67.7362 38.4701C67.7362 36.7481 68.5482 35.8661 70.0182 35.8661C71.4882 35.8801 72.3142 36.7061 72.3142 38.4841V38.5261C72.3142 40.2481 71.5022 41.1301 70.0322 41.1301C68.5482 41.1301 67.7362 40.3041 67.7362 38.5121V38.4701Z" fill="black"/>
<path d="M80.0576 41.9981H81.2196V34.9981H80.0576V37.9241H76.3616V34.9981H75.1996V41.9981H76.3616V38.9741H80.0576V41.9981Z" fill="black"/>
<path d="M89.6562 32.6741L89.0122 31.9321C88.2002 32.0861 87.0942 32.9121 87.0942 34.2561C87.0942 34.7601 87.2062 35.1521 87.4722 35.3481C87.6122 35.4461 87.8082 35.5161 88.0742 35.5161C88.7322 35.5161 88.9282 35.1521 88.9282 34.6901C88.9282 34.2421 88.7322 33.8781 88.0742 33.8781H88.0462C88.1162 33.3321 88.6902 32.7861 89.6562 32.6741ZM92.4562 32.6741L91.8122 31.9321C91.0002 32.0861 89.8942 32.9121 89.8942 34.2561C89.8942 34.7601 90.0062 35.1521 90.2722 35.3481C90.4122 35.4461 90.6082 35.5161 90.8742 35.5161C91.5322 35.5161 91.7282 35.1521 91.7282 34.6901C91.7282 34.2421 91.5322 33.8781 90.8742 33.8781H90.8462C90.9162 33.3321 91.4902 32.7861 92.4562 32.6741Z" fill="black"/>
<path d="M102.216 39.0441C101.67 40.0801 100.41 41.0181 98.6185 41.0181C96.1825 40.9621 94.8945 39.2821 94.8945 37.0981C94.8945 34.7461 96.3505 33.1781 98.7025 33.1781C100.172 33.1781 101.404 34.1021 101.95 35.0261V33.0521C101.488 32.6181 100.312 32.0581 98.7025 32.0581C95.5105 32.0581 93.5785 34.1861 93.5785 37.0841C93.5785 40.1921 95.5385 42.1241 98.6745 42.1381C100.41 42.1381 101.726 41.4521 102.216 40.8641V39.0441Z" fill="black"/>
<path d="M108.643 41.9981H109.805V34.9981H103.897V41.9981H105.059V36.0341H108.643V41.9981Z" fill="black"/>
<path d="M112.157 37.1821C112.633 36.3981 113.445 35.8661 114.537 35.8661C115.545 35.8661 116.245 36.2021 116.245 37.3921V37.9521H114.579C112.717 37.9521 111.625 38.4001 111.625 39.9401C111.625 41.3681 112.549 42.1101 113.935 42.1101C115.041 42.1101 115.937 41.5781 116.301 40.8081V41.9981H117.407V37.3781C117.407 35.4601 116.329 34.8581 114.537 34.8581C113.459 34.8581 112.619 35.1801 112.157 35.5301V37.1821ZM114.229 41.0321C113.291 41.0321 112.815 40.5561 112.815 39.8701C112.815 39.0721 113.361 38.8761 114.621 38.8761H116.245V39.6321C116.175 40.1081 115.657 41.0321 114.229 41.0321Z" fill="black"/>
<path d="M119.538 44.5181H120.7V40.9201C121.092 41.5781 121.918 42.1521 123.094 42.1521C125.096 42.1521 126.286 41.1021 126.286 38.3441C126.286 35.8941 125.096 34.8581 123.234 34.8581C121.82 34.8581 120.994 35.5301 120.644 36.3421V34.9981H119.538V44.5181ZM120.7 38.1201C120.728 36.7201 121.47 35.9081 122.926 35.9081C124.242 35.9081 125.11 36.5381 125.11 38.4141C125.11 40.3601 124.452 41.1021 122.912 41.1021C121.596 41.1021 120.7 40.2481 120.7 38.7921V38.1201Z" fill="black"/>
<path d="M129.555 41.9981H130.717V36.0341H133.041V34.9981H127.217V36.0341H129.555V41.9981Z" fill="black"/>
<path d="M134.62 37.1821C135.096 36.3981 135.908 35.8661 137 35.8661C138.008 35.8661 138.708 36.2021 138.708 37.3921V37.9521H137.042C135.18 37.9521 134.088 38.4001 134.088 39.9401C134.088 41.3681 135.012 42.1101 136.398 42.1101C137.504 42.1101 138.4 41.5781 138.764 40.8081V41.9981H139.87V37.3781C139.87 35.4601 138.792 34.8581 137 34.8581C135.922 34.8581 135.082 35.1801 134.62 35.5301V37.1821ZM136.692 41.0321C135.754 41.0321 135.278 40.5561 135.278 39.8701C135.278 39.0721 135.824 38.8761 137.084 38.8761H138.708V39.6321C138.638 40.1081 138.12 41.0321 136.692 41.0321Z" fill="black"/>
<path d="M142 41.9981H143.162V38.9181H144.422L146.942 41.9981H148.412L145.388 38.3021L147.95 34.9981H146.62L144.422 37.9241H143.162V34.9981H142V41.9981Z" fill="black"/>
<path d="M151.907 34.7601L152.551 35.5161C153.363 35.3621 154.469 34.5361 154.469 33.1781C154.469 32.6881 154.357 32.2961 154.091 32.1001C153.951 32.0021 153.755 31.9321 153.489 31.9321C152.831 31.9321 152.635 32.2961 152.635 32.7581C152.635 33.1921 152.831 33.5701 153.489 33.5701H153.517C153.447 34.1021 152.873 34.6621 151.907 34.7601ZM149.107 34.7601L149.751 35.5161C150.563 35.3621 151.669 34.5361 151.669 33.1781C151.669 32.6881 151.557 32.2961 151.291 32.1001C151.151 32.0021 150.955 31.9321 150.689 31.9321C150.031 31.9321 149.835 32.2961 149.835 32.7581C149.835 33.1921 150.031 33.5701 150.689 33.5701H150.717C150.647 34.1021 150.073 34.6621 149.107 34.7601Z" fill="black"/>
<path d="M156.109 43.4681L156.795 44.2941C157.649 44.1261 158.825 43.2161 158.825 41.7181C158.825 41.1721 158.713 40.7381 158.419 40.5141C158.279 40.4021 158.069 40.3321 157.789 40.3321C157.089 40.3321 156.879 40.7381 156.879 41.2421C156.879 41.7321 157.089 42.1381 157.789 42.1381H157.817C157.747 42.7401 157.131 43.3561 156.109 43.4681Z" fill="black"/>
<path d="M174.281 41.9981H175.541V32.1981H174.155L170.445 38.1481L166.707 32.1981H165.167V41.9981H166.427V34.1581L170.137 39.8981H170.655L174.281 34.0881V41.9981Z" fill="black"/>
<path d="M177.535 38.4701C177.535 40.9201 178.795 42.1241 181.007 42.1381C182.981 42.1381 184.465 40.9481 184.465 38.5261C184.465 36.0901 183.191 34.8721 180.993 34.8581C179.019 34.8581 177.535 36.0481 177.535 38.4701ZM178.711 38.4701C178.711 36.7481 179.523 35.8661 180.993 35.8661C182.463 35.8801 183.289 36.7061 183.289 38.4841V38.5261C183.289 40.2481 182.477 41.1301 181.007 41.1301C179.523 41.1301 178.711 40.3041 178.711 38.5121V38.4701Z" fill="black"/>
<path d="M191.41 41.2841V39.9261C191.06 40.5981 190.29 41.1301 189.128 41.1301C187.644 41.1301 186.818 40.3041 186.818 38.5121V38.4701C186.818 36.7481 187.63 35.8661 189.1 35.8661C190.052 35.8661 190.864 36.3981 191.34 37.1821V35.5301C190.878 35.1801 190.038 34.8581 189.1 34.8581C187.126 34.8581 185.642 36.0481 185.642 38.4701C185.642 40.9201 186.916 42.1381 189.128 42.1381C190.318 42.1381 191.088 41.7181 191.41 41.2841Z" fill="black"/>
<path d="M193.161 41.9981H194.323V38.9181H195.583L198.103 41.9981H199.573L196.549 38.3021L199.111 34.9981H197.781L195.583 37.9241H194.323V34.9981H193.161V41.9981Z" fill="black"/>
<path d="M200.967 41.9981H204.033C205.937 41.9981 206.819 41.3121 206.819 39.9261C206.819 38.6941 206.161 38.3301 205.265 38.2181C206.021 38.0361 206.469 37.4621 206.469 36.5801C206.469 35.5721 205.867 34.9981 204.089 34.9981H200.967V41.9981ZM202.129 40.9901V38.8761H204.229C205.111 38.8761 205.657 39.1001 205.657 39.9401C205.657 40.6401 205.167 40.9901 204.019 40.9901H202.129ZM202.129 37.8821V36.0201L203.949 36.0061C204.831 36.0061 205.293 36.1601 205.293 36.8461C205.293 37.6161 204.719 37.8821 203.851 37.8821H202.129Z" fill="black"/>
<path d="M208.681 37.1821C209.157 36.3981 209.969 35.8661 211.061 35.8661C212.069 35.8661 212.769 36.2021 212.769 37.3921V37.9521H211.103C209.241 37.9521 208.149 38.4001 208.149 39.9401C208.149 41.3681 209.073 42.1101 210.459 42.1101C211.565 42.1101 212.461 41.5781 212.825 40.8081V41.9981H213.931V37.3781C213.931 35.4601 212.853 34.8581 211.061 34.8581C209.983 34.8581 209.143 35.1801 208.681 35.5301V37.1821ZM210.753 41.0321C209.815 41.0321 209.339 40.5561 209.339 39.8701C209.339 39.0721 209.885 38.8761 211.145 38.8761H212.769V39.6321C212.699 40.1081 212.181 41.0321 210.753 41.0321Z" fill="black"/>
</svg>
