<svg width="185" height="125" viewBox="0 0 185 125" fill="none" xmlns="http://www.w3.org/2000/svg">
<g clip-path="url(#clip0)">
<circle cx="57.7875" cy="22.9301" r="6.71918" fill="white"/>
<path d="M55.3858 22.0444L54.3652 22.6768V21.5557L55.6589 20.722H56.4638V25.8031H55.3858V22.0444Z" fill="#E2581D"/>
<path d="M57.3316 23.2949C57.3316 22.835 57.3844 22.4421 57.4898 22.1163C57.5952 21.7905 57.7365 21.5246 57.9138 21.3185C58.0958 21.1077 58.3067 20.9544 58.5462 20.8586C58.7858 20.7628 59.0421 20.7148 59.3152 20.7148C59.6266 20.7148 59.9069 20.7699 60.1561 20.8801C60.4052 20.9855 60.616 21.1461 60.7885 21.3617C60.961 21.5725 61.0927 21.8384 61.1838 22.1594C61.2748 22.4804 61.3203 22.8589 61.3203 23.2949C61.3203 23.7549 61.2676 24.1477 61.1622 24.4735C61.0568 24.7993 60.9131 25.0677 60.731 25.2785C60.5489 25.4845 60.3381 25.6354 60.0986 25.7312C59.859 25.8271 59.6027 25.875 59.3296 25.875C58.7019 25.8702 58.2108 25.657 57.8563 25.2353C57.5065 24.8137 57.3316 24.1669 57.3316 23.2949ZM58.4169 23.2949C58.4169 23.5632 58.4336 23.7932 58.4672 23.9848C58.5007 24.1717 58.5534 24.325 58.6253 24.4448C58.6971 24.5598 58.7906 24.646 58.9056 24.7035C59.0253 24.761 59.1691 24.7898 59.3368 24.7898C59.6626 24.7898 59.8925 24.6652 60.0267 24.4161C60.1609 24.1669 60.2279 23.7932 60.2279 23.2949C60.2279 23.0314 60.2112 22.8062 60.1776 22.6193C60.1441 22.4277 60.0914 22.272 60.0195 22.1522C59.9476 22.0324 59.8518 21.9438 59.732 21.8863C59.6171 21.8288 59.4781 21.7977 59.3152 21.7929C58.9846 21.7929 58.7522 21.9198 58.6181 22.1738C58.4839 22.4229 58.4169 22.7966 58.4169 23.2949Z" fill="#E2581D"/>
<path d="M57.7875 29.6493C56.8776 29.6493 56.0071 29.4721 55.176 29.1178C54.3448 28.7635 53.6296 28.2866 53.0303 27.6873C52.431 27.088 51.9542 26.3728 51.5999 25.5417C51.2455 24.7105 51.0684 23.84 51.0684 22.9301C51.0684 22.0202 51.2455 21.1497 51.5999 20.3186C51.9542 19.4874 52.431 18.7722 53.0303 18.1729C53.6296 17.5736 54.3448 17.0968 55.176 16.7424C56.0071 16.3881 56.8776 16.2109 57.7875 16.2109C58.6974 16.2109 59.5679 16.3881 60.3991 16.7424C61.2302 17.0968 61.9455 17.5736 62.5448 18.1729C63.1441 18.7722 63.6209 19.4874 63.9752 20.3186C64.3296 21.1497 64.5067 22.0202 64.5067 22.9301C64.5067 23.84 64.3296 24.7105 63.9752 25.5417C63.6209 26.3728 63.1441 27.088 62.5448 27.6873C61.9455 28.2866 61.2302 28.7635 60.3991 29.1178C59.5679 29.4721 58.6974 29.6493 57.7875 29.6493ZM62.4332 19.3474C61.8295 18.56 61.064 17.9607 60.1366 17.5495L57.7875 18.7306L55.4385 17.5495C54.5111 17.9607 53.7412 18.56 53.1287 19.3474L53.5881 19.5705V22.0902L51.9345 23.3369C52.0045 24.4131 52.3501 25.3973 52.9713 26.2897H55.2678L56.1077 28.3894V28.5601C56.6589 28.7263 57.2189 28.8094 57.7875 28.8094C58.3562 28.8094 58.9162 28.7263 59.4673 28.5601V28.3894L60.3072 26.2897H62.6038C63.225 25.3973 63.5706 24.4131 63.6406 23.3369L61.987 22.0902V19.5705L62.4332 19.3474Z" fill="#E2581D"/>
</g>
<g clip-path="url(#clip1)">
<circle cx="77.9472" cy="52.0487" r="8.9589" fill="white"/>
<path d="M77.9472 61.0077C76.734 61.0077 75.5733 60.7714 74.4651 60.299C73.3569 59.8265 72.4033 59.1908 71.6042 58.3917C70.8051 57.5927 70.1694 56.639 69.6969 55.5308C69.2245 54.4226 68.9883 53.2619 68.9883 52.0487C68.9883 50.8356 69.2245 49.6749 69.6969 48.5667C70.1694 47.4585 70.8051 46.5048 71.6042 45.7058C72.4033 44.9067 73.3569 44.2709 74.4651 43.7985C75.5733 43.3261 76.734 43.0898 77.9472 43.0898C79.1604 43.0898 80.3211 43.3261 81.4293 43.7985C82.5375 44.2709 83.4911 44.9067 84.2902 45.7058C85.0892 46.5048 85.725 47.4585 86.1974 48.5667C86.6699 49.6749 86.9061 50.8356 86.9061 52.0487C86.9061 53.2619 86.6699 54.4226 86.1974 55.5308C85.725 56.639 85.0892 57.5927 84.2902 58.3917C83.4911 59.1908 82.5375 59.8265 81.4293 60.299C80.3211 60.7714 79.1604 61.0077 77.9472 61.0077ZM84.1414 47.2718C83.3365 46.222 82.3158 45.4229 81.0793 44.8746L77.9472 46.4494L74.8151 44.8746C73.5786 45.4229 72.552 46.222 71.7354 47.2718L72.3479 47.5693V50.9289L70.1431 52.5912C70.2365 54.026 70.6972 55.3383 71.5255 56.5282H74.5876L75.7075 59.3279V59.5553C76.4424 59.777 77.1889 59.8878 77.9472 59.8878C78.7054 59.8878 79.452 59.777 80.1869 59.5553V59.3279L81.3068 56.5282H84.3689C85.1971 55.3383 85.6579 54.026 85.7512 52.5912L83.5465 50.9289V47.5693L84.1414 47.2718Z" fill="#E2581D"/>
<path d="M75.2598 55.2033V53.924C75.7758 53.4796 76.213 53.0926 76.5713 52.7629C76.9369 52.426 77.2415 52.1322 77.4852 51.8813C77.7288 51.6305 77.9188 51.4155 78.0549 51.2363C78.1983 51.0571 78.3058 50.9066 78.3775 50.7848C78.4491 50.6558 78.4921 50.5483 78.5065 50.4622C78.528 50.3691 78.5387 50.2867 78.5387 50.215C78.5387 49.9498 78.4527 49.7491 78.2807 49.6129C78.1087 49.4696 77.8686 49.3979 77.5604 49.3979C77.1519 49.3979 76.772 49.4624 76.4208 49.5914C76.0697 49.7133 75.7615 49.9104 75.4963 50.1827V48.2906C75.5895 48.2046 75.7113 48.1186 75.8618 48.0326C76.0123 47.9466 76.1843 47.8713 76.3778 47.8068C76.5785 47.7352 76.7935 47.6778 77.0229 47.6348C77.2594 47.5918 77.5067 47.5703 77.7647 47.5703C78.209 47.5703 78.5961 47.6276 78.9257 47.7423C79.2554 47.8498 79.5278 48.0039 79.7428 48.2046C79.9578 48.3981 80.1191 48.631 80.2266 48.9034C80.3341 49.1757 80.3878 49.4732 80.3878 49.7957C80.3878 50.0896 80.3448 50.3727 80.2588 50.645C80.18 50.9174 80.051 51.1897 79.8718 51.4621C79.6998 51.7344 79.4705 52.0211 79.1838 52.3221C78.9042 52.616 78.5638 52.9349 78.1625 53.2789L77.9259 53.4832H80.5599V55.2033H75.2598Z" fill="#E2581D"/>
</g>
<g clip-path="url(#clip2)">
<circle cx="177.836" cy="117.891" r="6.71918" fill="white"/>
<path d="M177.836 124.61C176.926 124.61 176.056 124.433 175.225 124.079C174.394 123.724 173.678 123.248 173.079 122.648C172.48 122.049 172.003 121.334 171.649 120.503C171.294 119.671 171.117 118.801 171.117 117.891C171.117 116.981 171.294 116.111 171.649 115.279C172.003 114.448 172.48 113.733 173.079 113.134C173.678 112.535 174.394 112.058 175.225 111.703C176.056 111.349 176.926 111.172 177.836 111.172C178.746 111.172 179.617 111.349 180.448 111.703C181.279 112.058 181.994 112.535 182.594 113.134C183.193 113.733 183.67 114.448 184.024 115.279C184.378 116.111 184.556 116.981 184.556 117.891C184.556 118.801 184.378 119.671 184.024 120.503C183.67 121.334 183.193 122.049 182.594 122.648C181.994 123.248 181.279 123.724 180.448 124.079C179.617 124.433 178.746 124.61 177.836 124.61ZM182.482 114.308C181.878 113.521 181.113 112.922 180.185 112.51L177.836 113.692L175.487 112.51C174.56 112.922 173.79 113.521 173.178 114.308L173.637 114.531V117.051L171.983 118.298C172.053 119.374 172.399 120.358 173.02 121.251H175.317L176.157 123.35V123.521C176.708 123.687 177.268 123.77 177.836 123.77C178.405 123.77 178.965 123.687 179.516 123.521V123.35L180.356 121.251H182.653C183.274 120.358 183.619 119.374 183.689 118.298L182.036 117.051V114.531L182.482 114.308Z" fill="#E2581D"/>
<path d="M178.091 115.02H179.471V118.555H180.143V119.702H179.471V121.056H178.168V119.702H175.383V118.624L178.091 115.02ZM178.168 118.555V116.632L176.685 118.555H178.168Z" fill="#E2581D"/>
</g>
<g clip-path="url(#clip3)">
<circle cx="123.188" cy="79.3715" r="6.71918" fill="white"/>
<path d="M123.188 86.0907C122.278 86.0907 121.408 85.9135 120.576 85.5592C119.745 85.2049 119.03 84.7281 118.431 84.1288C117.831 83.5295 117.355 82.8142 117 81.9831C116.646 81.1519 116.469 80.2814 116.469 79.3715C116.469 78.4616 116.646 77.5911 117 76.76C117.355 75.9288 117.831 75.2136 118.431 74.6143C119.03 74.015 119.745 73.5382 120.576 73.1838C121.408 72.8295 122.278 72.6523 123.188 72.6523C124.098 72.6523 124.968 72.8295 125.799 73.1838C126.631 73.5382 127.346 74.015 127.945 74.6143C128.544 75.2136 129.021 75.9288 129.376 76.76C129.73 77.5911 129.907 78.4616 129.907 79.3715C129.907 80.2814 129.73 81.1519 129.376 81.9831C129.021 82.8142 128.544 83.5295 127.945 84.1288C127.346 84.7281 126.631 85.2049 125.799 85.5592C124.968 85.9135 124.098 86.0907 123.188 86.0907ZM127.834 75.7888C127.23 75.0014 126.464 74.4021 125.537 73.9909L123.188 75.172L120.839 73.9909C119.911 74.4021 119.142 75.0014 118.529 75.7888L118.988 76.0119V78.5316L117.335 79.7783C117.405 80.8545 117.75 81.8387 118.372 82.7311H120.668L121.508 84.8309V85.0015C122.059 85.1677 122.619 85.2508 123.188 85.2508C123.757 85.2508 124.317 85.1677 124.868 85.0015V84.8309L125.708 82.7311H128.004C128.625 81.8387 128.971 80.8545 129.041 79.7783L127.387 78.5316V76.0119L127.834 75.7888Z" fill="#E2581D"/>
<path d="M121.219 76.6989C121.294 76.6299 121.391 76.5609 121.512 76.4919C121.633 76.4229 121.774 76.3626 121.935 76.3108C122.101 76.2533 122.283 76.2073 122.478 76.1728C122.679 76.1383 122.892 76.1211 123.116 76.1211C123.795 76.1268 124.306 76.2648 124.651 76.5351C124.996 76.8053 125.169 77.1934 125.169 77.6993C125.169 78.0443 125.077 78.3318 124.893 78.5617C124.709 78.786 124.485 78.9584 124.22 79.0792C124.6 79.1597 124.887 79.3149 125.083 79.5449C125.278 79.7691 125.376 80.0853 125.376 80.4936C125.376 80.7465 125.327 80.9823 125.229 81.2007C125.137 81.4192 124.993 81.6118 124.798 81.7786C124.608 81.9395 124.37 82.0689 124.082 82.1666C123.795 82.2586 123.461 82.3075 123.082 82.3133C122.846 82.3133 122.625 82.2931 122.418 82.2529C122.211 82.2184 122.024 82.1724 121.857 82.1149C121.696 82.0517 121.555 81.9855 121.435 81.9165C121.32 81.8418 121.233 81.7757 121.176 81.7182V80.2521C121.377 80.4361 121.636 80.5913 121.952 80.7178C122.268 80.8443 122.636 80.9018 123.056 80.8903C123.677 80.8903 123.987 80.6948 123.987 80.3038C123.987 80.1946 123.97 80.1026 123.936 80.0278C123.907 79.9531 123.852 79.8927 123.772 79.8467C123.691 79.795 123.582 79.7605 123.444 79.7432C123.306 79.7202 123.131 79.7088 122.918 79.7088H122.297V78.6738H122.737C123.07 78.6738 123.326 78.6394 123.504 78.5704C123.688 78.4956 123.78 78.3433 123.78 78.1133C123.78 77.912 123.72 77.7683 123.599 77.6821C123.478 77.5901 123.266 77.5441 122.961 77.5441C122.651 77.5441 122.334 77.6016 122.012 77.7166C121.696 77.8316 121.432 77.9983 121.219 78.2168V76.6989Z" fill="#E2581D"/>
</g>
<g clip-path="url(#clip4)">
<circle cx="101.684" cy="66.8246" r="6.71918" fill="white"/>
<path d="M101.684 73.5438C100.774 73.5438 99.9036 73.3667 99.0725 73.0123C98.2413 72.658 97.5261 72.1812 96.9268 71.5819C96.3275 70.9826 95.8507 70.2674 95.4963 69.4362C95.142 68.6051 94.9648 67.7345 94.9648 66.8246C94.9648 65.9148 95.142 65.0442 95.4963 64.2131C95.8507 63.3819 96.3275 62.6667 96.9268 62.0674C97.5261 61.4681 98.2413 60.9913 99.0725 60.637C99.9036 60.2826 100.774 60.1055 101.684 60.1055C102.594 60.1055 103.464 60.2826 104.296 60.637C105.127 60.9913 105.842 61.4681 106.441 62.0674C107.041 62.6667 107.517 63.3819 107.872 64.2131C108.226 65.0442 108.403 65.9148 108.403 66.8246C108.403 67.7345 108.226 68.6051 107.872 69.4362C107.517 70.2674 107.041 70.9826 106.441 71.5819C105.842 72.1812 105.127 72.658 104.296 73.0123C103.464 73.3667 102.594 73.5438 101.684 73.5438ZM106.33 63.242C105.726 62.4546 104.96 61.8553 104.033 61.4441L101.684 62.6252L99.3349 61.4441C98.4075 61.8553 97.6376 62.4546 97.0252 63.242L97.4845 63.4651V65.9848L95.831 67.2315C95.901 68.3076 96.2466 69.2918 96.8677 70.1842H99.1643L100.004 72.284V72.4546C100.555 72.6208 101.115 72.7039 101.684 72.7039C102.253 72.7039 102.813 72.6208 103.364 72.4546V72.284L104.204 70.1842H106.5C107.121 69.2918 107.467 68.3076 107.537 67.2315L105.884 65.9848V63.4651L106.33 63.242Z" fill="#E2581D"/>
<path d="M101.389 65.1884L100.164 65.9473V64.602L101.716 63.6016H102.682V69.6989H101.389V65.1884Z" fill="#E2581D"/>
</g>
<g clip-path="url(#clip5)">
<circle cx="90.9321" cy="82.059" r="6.71918" fill="white"/>
<path d="M90.9321 88.7782C90.0222 88.7782 89.1517 88.601 88.3205 88.2467C87.4894 87.8924 86.7741 87.4156 86.1748 86.8163C85.5755 86.217 85.0987 85.5017 84.7444 84.6706C84.3901 83.8394 84.2129 82.9689 84.2129 82.059C84.2129 81.1491 84.3901 80.2786 84.7444 79.4475C85.0987 78.6163 85.5755 77.9011 86.1748 77.3018C86.7741 76.7025 87.4894 76.2257 88.3205 75.8713C89.1517 75.517 90.0222 75.3398 90.9321 75.3398C91.842 75.3398 92.7125 75.517 93.5436 75.8713C94.3748 76.2257 95.09 76.7025 95.6893 77.3018C96.2886 77.9011 96.7654 78.6163 97.1198 79.4475C97.4741 80.2786 97.6512 81.1491 97.6512 82.059C97.6512 82.9689 97.4741 83.8394 97.1198 84.6706C96.7654 85.5017 96.2886 86.217 95.6893 86.8163C95.09 87.4156 94.3748 87.8924 93.5436 88.2467C92.7125 88.601 91.842 88.7782 90.9321 88.7782ZM95.5778 78.4763C94.9741 77.6889 94.2085 77.0896 93.2812 76.6784L90.9321 77.8595L88.583 76.6784C87.6556 77.0896 86.8857 77.6889 86.2733 78.4763L86.7326 78.6994V81.2191L85.079 82.4658C85.149 83.542 85.4946 84.5262 86.1158 85.4186H88.4124L89.2523 87.5184V87.689C89.8035 87.8552 90.3634 87.9383 90.9321 87.9383C91.5007 87.9383 92.0607 87.8552 92.6119 87.689V87.5184L93.4518 85.4186H95.7484C96.3695 84.5262 96.7151 83.542 96.7851 82.4658L95.1316 81.2191V78.6994L95.5778 78.4763Z" fill="#E2581D"/>
<path d="M92.9053 80.8884C92.8076 80.7964 92.6955 80.7073 92.569 80.6211C92.4425 80.5348 92.3045 80.4601 92.155 80.3968C92.0055 80.3278 91.8417 80.279 91.6634 80.2502C91.491 80.2157 91.307 80.2071 91.1115 80.2244C90.7435 80.2646 90.4446 80.4083 90.2146 80.6556C89.9846 80.897 89.861 81.2248 89.8437 81.6387V81.7077C89.9702 81.4432 90.16 81.2363 90.4129 81.0868C90.6717 80.9373 90.9735 80.8625 91.3185 80.8625C91.629 80.8625 91.9049 80.9143 92.1464 81.0178C92.3936 81.1213 92.6006 81.265 92.7673 81.449C92.9341 81.6272 93.0606 81.84 93.1468 82.0872C93.2388 82.3287 93.2848 82.5903 93.2848 82.872C93.2848 83.2054 93.2216 83.5044 93.0951 83.7689C92.9743 84.0276 92.8105 84.249 92.6035 84.433C92.3965 84.6169 92.155 84.7578 91.8791 84.8555C91.6088 84.9533 91.3242 85.0022 91.0253 85.0022C90.6688 85.0022 90.3382 84.9418 90.0335 84.821C89.7288 84.7003 89.4643 84.5192 89.2401 84.2777C89.0158 84.0362 88.8376 83.7344 88.7054 83.3722C88.5789 83.0042 88.5156 82.5788 88.5156 82.0958C88.5156 81.5381 88.5817 81.058 88.714 80.6556C88.8462 80.2531 89.0273 79.9196 89.2573 79.6552C89.4873 79.3907 89.7575 79.1923 90.068 79.0601C90.3842 78.9279 90.7234 78.8531 91.0856 78.8359C91.3099 78.8244 91.5197 78.8387 91.7152 78.879C91.9164 78.9135 92.0947 78.9624 92.2499 79.0256C92.4051 79.0888 92.5374 79.1578 92.6466 79.2326C92.7616 79.3016 92.8478 79.3648 92.9053 79.4223V80.8884ZM90.939 82.1217C90.686 82.1217 90.4647 82.1935 90.275 82.3373C90.091 82.4753 89.9846 82.6794 89.9559 82.9496C90.0306 83.1681 90.1456 83.3348 90.3008 83.4498C90.4561 83.5648 90.6717 83.6223 90.9476 83.6223C91.1029 83.6223 91.238 83.6022 91.353 83.5619C91.468 83.5159 91.5628 83.4584 91.6376 83.3894C91.7123 83.3204 91.7669 83.2428 91.8014 83.1566C91.8417 83.0646 91.8618 82.9726 91.8618 82.8806C91.8618 82.6851 91.7871 82.5098 91.6376 82.3545C91.4938 82.1993 91.261 82.1217 90.939 82.1217Z" fill="#E2581D"/>
</g>
<g clip-path="url(#clip6)">
<circle cx="102.582" cy="96.3871" r="6.71918" fill="white"/>
<path d="M102.582 103.106C101.673 103.106 100.802 102.929 99.9709 102.575C99.1398 102.22 98.4245 101.744 97.8252 101.144C97.2259 100.545 96.7491 99.8299 96.3948 98.9987C96.0404 98.1676 95.8633 97.297 95.8633 96.3871C95.8633 95.4773 96.0404 94.6067 96.3948 93.7756C96.7491 92.9444 97.2259 92.2292 97.8252 91.6299C98.4245 91.0306 99.1398 90.5538 99.9709 90.1995C100.802 89.8451 101.673 89.668 102.582 89.668C103.492 89.668 104.363 89.8451 105.194 90.1995C106.025 90.5538 106.74 91.0306 107.34 91.6299C107.939 92.2292 108.416 92.9444 108.77 93.7756C109.124 94.6067 109.302 95.4773 109.302 96.3871C109.302 97.297 109.124 98.1676 108.77 98.9987C108.416 99.8299 107.939 100.545 107.34 101.144C106.74 101.744 106.025 102.22 105.194 102.575C104.363 102.929 103.492 103.106 102.582 103.106ZM107.228 92.8045C106.624 92.0171 105.859 91.4178 104.932 91.0066L102.582 92.1877L100.233 91.0066C99.306 91.4178 98.5361 92.0171 97.9237 92.8045L98.383 93.0276V95.5473L96.7294 96.794C96.7994 97.8701 97.145 98.8543 97.7662 99.7467H100.063L100.903 101.846V102.017C101.454 102.183 102.014 102.266 102.582 102.266C103.151 102.266 103.711 102.183 104.262 102.017V101.846L105.102 99.7467H107.399C108.02 98.8543 108.366 97.8701 108.435 96.794L106.782 95.5473V93.0276L107.228 92.8045Z" fill="#E2581D"/>
<path d="M100.703 97.4438C100.887 97.5875 101.117 97.7025 101.393 97.7888C101.675 97.875 101.997 97.9181 102.359 97.9181C102.526 97.9181 102.664 97.898 102.773 97.8577C102.888 97.8175 102.98 97.7658 103.049 97.7025C103.118 97.6393 103.167 97.5674 103.196 97.4869C103.224 97.4007 103.239 97.3173 103.239 97.2368C103.239 96.7596 102.853 96.521 102.083 96.521C101.813 96.521 101.571 96.544 101.359 96.59C101.146 96.6302 100.956 96.682 100.789 96.7452L100.988 93.2266H104.377V94.6064H102.186L102.143 95.3654C102.235 95.3481 102.33 95.3366 102.428 95.3309C102.526 95.3194 102.615 95.3136 102.695 95.3136C103.04 95.3136 103.339 95.3654 103.592 95.4688C103.845 95.5666 104.052 95.7017 104.213 95.8742C104.38 96.0467 104.504 96.2508 104.584 96.4865C104.664 96.7165 104.705 96.9666 104.705 97.2368C104.705 97.576 104.644 97.8779 104.524 98.1423C104.403 98.4011 104.239 98.6195 104.032 98.7978C103.825 98.976 103.584 99.1111 103.308 99.2031C103.032 99.2894 102.738 99.3325 102.428 99.3325C102.209 99.3325 102.005 99.3152 101.816 99.2807C101.632 99.2462 101.465 99.206 101.315 99.16C101.172 99.1083 101.048 99.0536 100.945 98.9961C100.841 98.9329 100.761 98.8754 100.703 98.8237V97.4438Z" fill="#E2581D"/>
</g>
<g clip-path="url(#clip7)">
<circle cx="55.9946" cy="92.8051" r="6.71918" fill="white"/>
<path d="M55.9946 99.5243C55.0847 99.5243 54.2142 99.3471 53.383 98.9928C52.5519 98.6385 51.8366 98.1616 51.2373 97.5623C50.638 96.963 50.1612 96.2478 49.8069 95.4167C49.4526 94.5855 49.2754 93.715 49.2754 92.8051C49.2754 91.8952 49.4526 91.0247 49.8069 90.1936C50.1612 89.3624 50.638 88.6472 51.2373 88.0479C51.8366 87.4486 52.5519 86.9718 53.383 86.6174C54.2142 86.2631 55.0847 86.0859 55.9946 86.0859C56.9045 86.0859 57.775 86.2631 58.6061 86.6174C59.4373 86.9718 60.1525 87.4486 60.7518 88.0479C61.3511 88.6472 61.8279 89.3624 62.1823 90.1936C62.5366 91.0247 62.7137 91.8952 62.7137 92.8051C62.7137 93.715 62.5366 94.5855 62.1823 95.4167C61.8279 96.2478 61.3511 96.963 60.7518 97.5623C60.1525 98.1616 59.4373 98.6385 58.6061 98.9928C57.775 99.3471 56.9045 99.5243 55.9946 99.5243ZM60.6403 89.2224C60.0366 88.435 59.271 87.8357 58.3437 87.4245L55.9946 88.6056L53.6455 87.4245C52.7181 87.8357 51.9482 88.435 51.3358 89.2224L51.7951 89.4455V91.9652L50.1415 93.2119C50.2115 94.2881 50.5571 95.2723 51.1783 96.1647H53.4749L54.3148 98.2644V98.4351C54.866 98.6013 55.4259 98.6844 55.9946 98.6844C56.5632 98.6844 57.1232 98.6013 57.6744 98.4351V98.2644L58.5143 96.1647H60.8109C61.432 95.2723 61.7776 94.2881 61.8476 93.2119L60.1941 91.9652V89.4455L60.6403 89.2224Z" fill="#E2581D"/>
<path d="M53.9902 89.6445H58.035V90.6708L56.0687 95.6815H54.6888L56.5171 91.102H53.9902V89.6445Z" fill="#E2581D"/>
</g>
<g clip-path="url(#clip8)">
<circle cx="6.71918" cy="92.8051" r="6.71918" fill="white"/>
<path d="M6.71918 99.5243C5.80929 99.5243 4.93877 99.3471 4.10762 98.9928C3.27647 98.6385 2.56125 98.1616 1.96195 97.5623C1.36265 96.963 0.885829 96.2478 0.531498 95.4167C0.177166 94.5855 0 93.715 0 92.8051C0 91.8952 0.177166 91.0247 0.531498 90.1936C0.885829 89.3624 1.36265 88.6472 1.96195 88.0479C2.56125 87.4486 3.27647 86.9718 4.10762 86.6174C4.93877 86.2631 5.80929 86.0859 6.71918 86.0859C7.62907 86.0859 8.49959 86.2631 9.33074 86.6174C10.1619 86.9718 10.8771 87.4486 11.4764 88.0479C12.0757 88.6472 12.5525 89.3624 12.9069 90.1936C13.2612 91.0247 13.4384 91.8952 13.4384 92.8051C13.4384 93.715 13.2612 94.5855 12.9069 95.4167C12.5525 96.2478 12.0757 96.963 11.4764 97.5623C10.8771 98.1616 10.1619 98.6385 9.33074 98.9928C8.49959 99.3471 7.62907 99.5243 6.71918 99.5243ZM11.3649 89.2224C10.7612 88.435 9.99565 87.8357 9.06827 87.4245L6.71918 88.6056L4.37009 87.4245C3.4427 87.8357 2.6728 88.435 2.06037 89.2224L2.51969 89.4455V91.9652L0.866144 93.2119C0.936136 94.2881 1.28172 95.2723 1.90289 96.1647H4.19949L5.03938 98.2644V98.4351C5.59057 98.6013 6.1505 98.6844 6.71918 98.6844C7.28786 98.6844 7.84779 98.6013 8.39897 98.4351V98.2644L9.23887 96.1647H11.5355C12.1566 95.2723 12.5022 94.2881 12.5722 93.2119L10.9187 91.9652V89.4455L11.3649 89.2224Z" fill="#E2581D"/>
<path d="M6.72727 95.7641C6.36505 95.7641 6.03446 95.7238 5.73549 95.6434C5.44227 95.5571 5.18929 95.4364 4.97656 95.2811C4.76383 95.1259 4.59997 94.9362 4.48498 94.7119C4.36999 94.482 4.3125 94.2204 4.3125 93.9271C4.3125 93.7719 4.32975 93.6195 4.36425 93.4701C4.40449 93.3148 4.46774 93.1711 4.55398 93.0389C4.64597 92.9066 4.76383 92.7916 4.90757 92.6939C5.0513 92.5904 5.22666 92.5099 5.43364 92.4524C5.30716 92.4179 5.18642 92.3662 5.07143 92.2972C4.96219 92.2282 4.86445 92.1419 4.77821 92.0385C4.69196 91.9292 4.62297 91.8027 4.57123 91.659C4.51948 91.5095 4.49361 91.3428 4.49361 91.1588C4.49361 90.6643 4.68909 90.2734 5.08005 89.9859C5.47676 89.6984 6.02296 89.5547 6.71865 89.5547C7.41433 89.5547 7.94615 89.6955 8.31412 89.9773C8.68783 90.259 8.87469 90.6471 8.87469 91.1415C8.87469 91.7855 8.56709 92.2196 7.9519 92.4438C8.34861 92.53 8.64184 92.7025 8.83157 92.9612C9.02705 93.2142 9.12479 93.5391 9.12479 93.9358C9.12479 94.206 9.07017 94.4532 8.96093 94.6774C8.85744 94.9017 8.70221 95.0943 8.49523 95.2553C8.29399 95.4163 8.04389 95.5427 7.74492 95.6347C7.4517 95.721 7.11248 95.7641 6.72727 95.7641ZM6.73589 94.4618C7.09811 94.4618 7.36546 94.4101 7.53794 94.3066C7.71618 94.1974 7.80529 94.0163 7.80529 93.7633C7.80529 93.4873 7.71043 93.2976 7.52069 93.1941C7.33671 93.0906 7.07224 93.0389 6.72727 93.0389C6.3708 93.0389 6.10058 93.0935 5.9166 93.2027C5.73836 93.3062 5.64925 93.4873 5.64925 93.746C5.64925 94.0105 5.74699 94.1974 5.94247 94.3066C6.13795 94.4101 6.40243 94.4618 6.73589 94.4618ZM6.71002 91.9867C7.03199 91.9867 7.25622 91.9321 7.38271 91.8228C7.51494 91.7136 7.58106 91.567 7.58106 91.383C7.58106 91.2163 7.51782 91.0869 7.39133 90.9949C7.26484 90.9029 7.03774 90.8569 6.71002 90.8569C6.3823 90.8569 6.14657 90.9058 6.00284 91.0035C5.8591 91.1013 5.78723 91.2335 5.78723 91.4003C5.78723 91.5497 5.85623 91.6849 5.99421 91.8056C6.1322 91.9263 6.3708 91.9867 6.71002 91.9867Z" fill="#E2581D"/>
</g>
<g clip-path="url(#clip9)">
<circle cx="32.6977" cy="68.6137" r="6.71918" fill="white"/>
<path d="M32.6977 75.3329C31.7878 75.3329 30.9173 75.1557 30.0861 74.8014C29.255 74.4471 28.5398 73.9702 27.9405 73.3709C27.3412 72.7716 26.8643 72.0564 26.51 71.2253C26.1557 70.3941 25.9785 69.5236 25.9785 68.6137C25.9785 67.7038 26.1557 66.8333 26.51 66.0022C26.8643 65.171 27.3412 64.4558 27.9405 63.8565C28.5398 63.2572 29.255 62.7804 30.0861 62.426C30.9173 62.0717 31.7878 61.8945 32.6977 61.8945C33.6076 61.8945 34.4781 62.0717 35.3093 62.426C36.1404 62.7804 36.8556 63.2572 37.4549 63.8565C38.0542 64.4558 38.531 65.171 38.8854 66.0022C39.2397 66.8333 39.4169 67.7038 39.4169 68.6137C39.4169 69.5236 39.2397 70.3941 38.8854 71.2253C38.531 72.0564 38.0542 72.7716 37.4549 73.3709C36.8556 73.9702 36.1404 74.4471 35.3093 74.8014C34.4781 75.1557 33.6076 75.3329 32.6977 75.3329ZM37.3434 65.031C36.7397 64.2436 35.9742 63.6443 35.0468 63.2331L32.6977 64.4142L30.3486 63.2331C29.4212 63.6443 28.6513 64.2436 28.0389 65.031L28.4982 65.2541V67.7738L26.8447 69.0205C26.9147 70.0967 27.2602 71.0809 27.8814 71.9733H30.178L31.0179 74.073V74.2436C31.5691 74.4099 32.129 74.493 32.6977 74.493C33.2664 74.493 33.8263 74.4099 34.3775 74.2436V74.073L35.2174 71.9733H37.514C38.1352 71.0809 38.4807 70.0967 38.5507 69.0205L36.8972 67.7738V65.2541L37.3434 65.031Z" fill="#E2581D"/>
<path d="M30.7154 69.4926C30.8131 69.5846 30.9224 69.6737 31.0431 69.76C31.1696 69.8462 31.3076 69.9238 31.4571 69.9928C31.6123 70.0561 31.7762 70.105 31.9487 70.1395C32.1269 70.1682 32.3137 70.1739 32.5092 70.1567C32.8772 70.1165 33.1762 69.9727 33.4061 69.7255C33.6419 69.4725 33.7655 69.1362 33.777 68.7165V68.6733C33.6505 68.9378 33.4579 69.1448 33.1992 69.2943C32.9462 69.4438 32.6472 69.5185 32.3022 69.5185C31.9918 69.5185 31.7129 69.4668 31.4657 69.3633C31.2242 69.2598 31.0201 69.1189 30.8534 68.9407C30.6867 68.7567 30.5573 68.544 30.4653 68.3025C30.3791 68.0553 30.3359 67.7908 30.3359 67.5091C30.3359 67.1756 30.3963 66.8795 30.517 66.6208C30.6435 66.3563 30.8103 66.1321 31.0172 65.9481C31.2242 65.7641 31.4628 65.6233 31.7331 65.5255C32.009 65.4278 32.2965 65.3789 32.5955 65.3789C32.9519 65.3789 33.2825 65.4393 33.5873 65.56C33.892 65.6808 34.1564 65.8619 34.3807 66.1033C34.6049 66.3448 34.7803 66.6495 34.9068 67.0175C35.039 67.3797 35.1051 67.8023 35.1051 68.2853C35.1051 68.8487 35.039 69.3317 34.9068 69.7341C34.7745 70.1308 34.5934 70.4614 34.3634 70.7259C34.1334 70.9904 33.8604 71.1887 33.5441 71.321C33.2337 71.4532 32.8973 71.5279 32.5351 71.5452C32.3109 71.5567 32.0981 71.5423 31.8969 71.5021C31.7014 71.4676 31.5261 71.4187 31.3708 71.3555C31.2156 71.2922 31.0805 71.2261 30.9655 71.1571C30.8563 71.0824 30.7729 71.0162 30.7154 70.9587V69.4926ZM32.6817 68.2594C32.9347 68.2594 33.1532 68.1904 33.3372 68.0524C33.5269 67.9087 33.6361 67.7017 33.6649 67.4315C33.5901 67.213 33.4751 67.0462 33.3199 66.9313C33.1647 66.8163 32.9491 66.7588 32.6731 66.7588C32.5179 66.7588 32.3827 66.7818 32.2678 66.8278C32.1528 66.868 32.0579 66.9226 31.9832 66.9916C31.9084 67.0606 31.8509 67.1411 31.8107 67.2331C31.7762 67.3193 31.7589 67.4085 31.7589 67.5005C31.7589 67.6959 31.8308 67.8713 31.9745 68.0265C32.124 68.1818 32.3597 68.2594 32.6817 68.2594Z" fill="#E2581D"/>
</g>
<g clip-path="url(#clip10)">
<circle cx="6.71918" cy="6.80121" r="6.71918" fill="white"/>
<path d="M4.97951 5.91612L3.95898 6.54856V5.42742L5.25261 4.59375H6.05753V9.67483H4.97951V5.91612Z" fill="#E2581D"/>
<path d="M7.96934 5.91612L6.94881 6.54856V5.42742L8.24244 4.59375H9.04736V9.67483H7.96934V5.91612Z" fill="#E2581D"/>
<path d="M6.71918 13.5204C5.80929 13.5204 4.93877 13.3432 4.10762 12.9889C3.27647 12.6346 2.56125 12.1577 1.96195 11.5584C1.36265 10.9591 0.885829 10.2439 0.531498 9.41277C0.177166 8.58162 0 7.7111 0 6.80121C0 5.89132 0.177166 5.0208 0.531498 4.18965C0.885829 3.35851 1.36265 2.64328 1.96195 2.04398C2.56125 1.44468 3.27647 0.967861 4.10762 0.613529C4.93877 0.259197 5.80929 0.0820312 6.71918 0.0820312C7.62907 0.0820312 8.49959 0.259197 9.33074 0.613529C10.1619 0.967861 10.8771 1.44468 11.4764 2.04398C12.0757 2.64328 12.5525 3.35851 12.9069 4.18965C13.2612 5.0208 13.4384 5.89132 13.4384 6.80121C13.4384 7.7111 13.2612 8.58162 12.9069 9.41277C12.5525 10.2439 12.0757 10.9591 11.4764 11.5584C10.8771 12.1577 10.1619 12.6346 9.33074 12.9889C8.49959 13.3432 7.62907 13.5204 6.71918 13.5204ZM11.3649 3.21852C10.7612 2.43112 9.99565 1.83182 9.06827 1.42062L6.71918 2.60172L4.37009 1.42062C3.4427 1.83182 2.6728 2.43112 2.06037 3.21852L2.51969 3.44162V5.96131L0.866144 7.20804C0.936136 8.28415 1.28172 9.26841 1.90289 10.1608H4.19949L5.03938 12.2605V12.4311C5.59057 12.5974 6.1505 12.6805 6.71918 12.6805C7.28786 12.6805 7.84779 12.5974 8.39897 12.4311V12.2605L9.23887 10.1608H11.5355C12.1566 9.26841 12.5022 8.28415 12.5722 7.20804L10.9187 5.96131V3.44162L11.3649 3.21852Z" fill="#E2581D"/>
</g>
<defs>
<clipPath id="clip0">
<rect width="13.4384" height="13.4384" fill="white" transform="translate(51.0684 16.2109)"/>
</clipPath>
<clipPath id="clip1">
<rect width="17.9178" height="17.9178" fill="white" transform="translate(68.9883 43.0898)"/>
</clipPath>
<clipPath id="clip2">
<rect width="13.4384" height="13.4384" fill="white" transform="translate(171.117 111.172)"/>
</clipPath>
<clipPath id="clip3">
<rect width="13.4384" height="13.4384" fill="white" transform="translate(116.469 72.6523)"/>
</clipPath>
<clipPath id="clip4">
<rect width="13.4384" height="13.4384" fill="white" transform="translate(94.9648 60.1055)"/>
</clipPath>
<clipPath id="clip5">
<rect width="13.4384" height="13.4384" fill="white" transform="translate(84.2129 75.3398)"/>
</clipPath>
<clipPath id="clip6">
<rect width="13.4384" height="13.4384" fill="white" transform="translate(95.8633 89.668)"/>
</clipPath>
<clipPath id="clip7">
<rect width="13.4384" height="13.4384" fill="white" transform="translate(49.2754 86.0859)"/>
</clipPath>
<clipPath id="clip8">
<rect width="13.4384" height="13.4384" fill="white" transform="translate(0 86.0859)"/>
</clipPath>
<clipPath id="clip9">
<rect width="13.4384" height="13.4384" fill="white" transform="translate(25.9785 61.8945)"/>
</clipPath>
<clipPath id="clip10">
<rect width="13.4384" height="13.4384" fill="white" transform="translate(0 0.0820312)"/>
</clipPath>
</defs>
</svg>
