<svg width="485" height="249" viewBox="0 0 485 249" fill="none" xmlns="http://www.w3.org/2000/svg">
<rect x="1" y="1" width="483" height="247" rx="9" fill="white" stroke="#7BBEFD" stroke-width="2"/>
<path d="M25.306 73.2H26.804V79.178H28.26V80.298H26.804V83H25.642V80.298H20.336V79.5L25.306 73.2ZM25.642 79.178V74.53L21.904 79.178H25.642ZM33.9876 73.2H35.4856V79.178H36.9416V80.298H35.4856V83H34.3236V80.298H29.0176V79.5L33.9876 73.2ZM34.3236 79.178V74.53L30.5856 79.178H34.3236ZM38.8931 78.282H42.6451V79.458H38.8931V78.282ZM50.9297 73.662H51.4757C52.2224 73.662 52.8851 73.76 53.4637 73.956C54.0424 74.152 54.5277 74.4367 54.9197 74.81C55.3211 75.1833 55.6244 75.6407 55.8297 76.182C56.0351 76.714 56.1377 77.316 56.1377 77.988C56.1377 78.7067 56.0304 79.3367 55.8157 79.878C55.6011 80.4193 55.2884 80.872 54.8777 81.236C54.4671 81.6 53.9631 81.8753 53.3657 82.062C52.7777 82.2487 52.1057 82.342 51.3497 82.342H50.9297V83.28H49.6697V82.342H49.1237C47.6211 82.342 46.4684 81.9593 45.6657 81.194C44.8631 80.4287 44.4617 79.3693 44.4617 78.016C44.4617 77.2973 44.5691 76.6673 44.7837 76.126C44.9984 75.5847 45.3111 75.132 45.7217 74.768C46.1324 74.404 46.6317 74.1287 47.2197 73.942C47.8171 73.7553 48.4937 73.662 49.2497 73.662H49.6697V72.92H50.9297V73.662ZM45.7777 77.904C45.7777 78.492 45.8571 79.0007 46.0157 79.43C46.1837 79.85 46.4171 80.2 46.7157 80.48C47.0144 80.76 47.3737 80.97 47.7937 81.11C48.2137 81.2407 48.6804 81.306 49.1937 81.306H49.6697V74.698H49.2217C48.6057 74.698 48.0784 74.7727 47.6397 74.922C47.2104 75.062 46.8557 75.272 46.5757 75.552C46.2957 75.8227 46.0904 76.1587 45.9597 76.56C45.8384 76.952 45.7777 77.4 45.7777 77.904ZM50.9297 74.698V81.306H51.3777C51.9937 81.306 52.5164 81.236 52.9457 81.096C53.3844 80.9467 53.7437 80.7367 54.0237 80.466C54.3037 80.186 54.5044 79.85 54.6257 79.458C54.7564 79.0567 54.8217 78.604 54.8217 78.1C54.8217 77.512 54.7377 77.008 54.5697 76.588C54.4111 76.1587 54.1824 75.804 53.8837 75.524C53.5851 75.244 53.2257 75.0387 52.8057 74.908C52.3857 74.768 51.9191 74.698 51.4057 74.698H50.9297ZM57.4022 74.054C57.5142 73.942 57.6729 73.83 57.8782 73.718C58.0835 73.5967 58.3215 73.4893 58.5922 73.396C58.8722 73.2933 59.1849 73.214 59.5302 73.158C59.8755 73.0927 60.2489 73.06 60.6502 73.06C61.1262 73.06 61.5649 73.1113 61.9662 73.214C62.3769 73.3073 62.7315 73.452 63.0302 73.648C63.3289 73.844 63.5622 74.0913 63.7302 74.39C63.9075 74.6887 63.9962 75.048 63.9962 75.468C63.9962 76.028 63.8609 76.5133 63.5902 76.924C63.3195 77.3253 62.8995 77.6287 62.3302 77.834C63.0489 77.9553 63.5902 78.2167 63.9542 78.618C64.3182 79.0193 64.5002 79.5513 64.5002 80.214C64.5002 80.6153 64.4162 80.9933 64.2482 81.348C64.0895 81.7027 63.8515 82.0153 63.5342 82.286C63.2169 82.5473 62.8295 82.7573 62.3722 82.916C61.9242 83.0653 61.4062 83.14 60.8182 83.14C60.3609 83.14 59.9362 83.098 59.5442 83.014C59.1522 82.9393 58.7975 82.8413 58.4802 82.72C58.1629 82.5987 57.8875 82.4633 57.6542 82.314C57.4209 82.1647 57.2389 82.0153 57.1082 81.866V80.046C57.2482 80.3073 57.4349 80.5593 57.6682 80.802C57.9109 81.0353 58.1909 81.2453 58.5082 81.432C58.8255 81.6093 59.1802 81.754 59.5722 81.866C59.9735 81.9687 60.4122 82.02 60.8882 82.02C61.2149 82.0107 61.5182 81.964 61.7982 81.88C62.0782 81.796 62.3162 81.6747 62.5122 81.516C62.7175 81.348 62.8762 81.1473 62.9882 80.914C63.1095 80.6807 63.1702 80.4147 63.1702 80.116C63.1702 79.584 62.9789 79.192 62.5962 78.94C62.2229 78.6787 61.6115 78.548 60.7622 78.548H59.2082V77.498H60.7482C61.1215 77.498 61.4295 77.4513 61.6722 77.358C61.9242 77.2647 62.1249 77.1433 62.2742 76.994C62.4235 76.8353 62.5262 76.6533 62.5822 76.448C62.6475 76.2427 62.6802 76.028 62.6802 75.804C62.6802 75.524 62.6195 75.286 62.4982 75.09C62.3862 74.8847 62.2322 74.7167 62.0362 74.586C61.8495 74.4553 61.6349 74.3573 61.3922 74.292C61.1495 74.2267 60.9022 74.1893 60.6502 74.18C60.2862 74.1707 59.9362 74.222 59.6002 74.334C59.2642 74.4367 58.9562 74.5767 58.6762 74.754C58.3962 74.922 58.1489 75.118 57.9342 75.342C57.7195 75.566 57.5422 75.7947 57.4022 76.028V74.054Z" fill="#404040"/>
<path d="M338 71C333.58 71 330 74.58 330 79C330 83.42 333.58 87 338 87C342.42 87 346 83.42 346 79C346 74.58 342.42 71 338 71ZM337.385 83.66H336.045L332.805 79.12L334.146 77.87L336.715 80.27L341.856 74.339L343.196 75.279L337.385 83.66Z" fill="#4AA29A"/>
<path d="M243 71C238.589 71 235 74.5888 235 79C235 83.4112 238.589 87 243 87C247.411 87 251 83.4112 251 79C251 74.5888 247.411 71 243 71ZM247 80.6H239V77.4H247V80.6Z" fill="#F3B36A"/>
<path d="M433 71C428.589 71 425 74.5888 425 79C425 83.4112 428.589 87 433 87C437.411 87 441 83.4112 441 79C441 74.5888 437.411 71 433 71ZM437 80.6H429V77.4H437V80.6Z" fill="#F3B36A"/>
<path d="M20.77 118V117.146C21.7873 116.278 22.618 115.541 23.262 114.934C23.9153 114.327 24.4287 113.8 24.802 113.352C25.1753 112.904 25.4273 112.507 25.558 112.162C25.698 111.817 25.768 111.476 25.768 111.14C25.768 110.552 25.5907 110.099 25.236 109.782C24.8813 109.455 24.3913 109.292 23.766 109.292C23.1873 109.283 22.674 109.385 22.226 109.6C21.778 109.815 21.3953 110.118 21.078 110.51V109.096C21.1993 108.975 21.3533 108.853 21.54 108.732C21.7267 108.601 21.9413 108.489 22.184 108.396C22.4267 108.293 22.702 108.214 23.01 108.158C23.318 108.102 23.6493 108.074 24.004 108.074C24.9467 108.093 25.6793 108.349 26.202 108.844C26.734 109.339 27 110.025 27 110.902C27 111.322 26.9393 111.728 26.818 112.12C26.6967 112.503 26.4913 112.899 26.202 113.31C25.9127 113.721 25.5347 114.164 25.068 114.64C24.6013 115.107 24.0273 115.625 23.346 116.194L22.576 116.852H27.28V118H20.77ZM28.604 118V117.146C29.6213 116.278 30.452 115.541 31.096 114.934C31.7493 114.327 32.2627 113.8 32.636 113.352C33.0093 112.904 33.2613 112.507 33.392 112.162C33.532 111.817 33.602 111.476 33.602 111.14C33.602 110.552 33.4247 110.099 33.07 109.782C32.7153 109.455 32.2253 109.292 31.6 109.292C31.0213 109.283 30.508 109.385 30.06 109.6C29.612 109.815 29.2293 110.118 28.912 110.51V109.096C29.0333 108.975 29.1873 108.853 29.374 108.732C29.5607 108.601 29.7753 108.489 30.018 108.396C30.2607 108.293 30.536 108.214 30.844 108.158C31.152 108.102 31.4833 108.074 31.838 108.074C32.7807 108.093 33.5133 108.349 34.036 108.844C34.568 109.339 34.834 110.025 34.834 110.902C34.834 111.322 34.7733 111.728 34.652 112.12C34.5307 112.503 34.3253 112.899 34.036 113.31C33.7467 113.721 33.3687 114.164 32.902 114.64C32.4353 115.107 31.8613 115.625 31.18 116.194L30.41 116.852H35.114V118H28.604ZM36.564 109.096C36.8066 108.844 37.1753 108.611 37.67 108.396C38.174 108.181 38.7946 108.074 39.532 108.074C40.4933 108.093 41.226 108.321 41.73 108.76C42.234 109.199 42.486 109.787 42.486 110.524C42.486 111.131 42.3366 111.639 42.038 112.05C41.7393 112.451 41.31 112.741 40.75 112.918C41.422 113.021 41.9446 113.273 42.318 113.674C42.7006 114.075 42.892 114.612 42.892 115.284C42.892 115.685 42.8173 116.059 42.668 116.404C42.528 116.74 42.3133 117.034 42.024 117.286C41.7346 117.538 41.3706 117.739 40.932 117.888C40.4933 118.028 39.9846 118.103 39.406 118.112C39.042 118.112 38.7013 118.079 38.384 118.014C38.076 117.958 37.8006 117.883 37.558 117.79C37.3153 117.687 37.1053 117.575 36.928 117.454C36.7506 117.333 36.606 117.216 36.494 117.104V115.62C36.7926 116.012 37.194 116.329 37.698 116.572C38.202 116.815 38.762 116.931 39.378 116.922C40.1433 116.913 40.722 116.754 41.114 116.446C41.5153 116.129 41.716 115.713 41.716 115.2C41.716 114.659 41.5293 114.243 41.156 113.954C40.792 113.655 40.1993 113.506 39.378 113.506H38.202V112.554H39.084C39.812 112.554 40.3626 112.409 40.736 112.12C41.1186 111.821 41.31 111.401 41.31 110.86C41.31 110.328 41.1326 109.931 40.778 109.67C40.4326 109.399 39.9426 109.264 39.308 109.264C38.7013 109.273 38.1693 109.385 37.712 109.6C37.264 109.815 36.8813 110.118 36.564 110.51V109.096ZM44.608 113.282H48.36V114.458H44.608V113.282ZM56.6446 108.662H57.1906C57.9372 108.662 58.5999 108.76 59.1786 108.956C59.7572 109.152 60.2426 109.437 60.6346 109.81C61.0359 110.183 61.3392 110.641 61.5446 111.182C61.7499 111.714 61.8526 112.316 61.8526 112.988C61.8526 113.707 61.7452 114.337 61.5306 114.878C61.3159 115.419 61.0032 115.872 60.5926 116.236C60.1819 116.6 59.6779 116.875 59.0806 117.062C58.4926 117.249 57.8206 117.342 57.0646 117.342H56.6446V118.28H55.3846V117.342H54.8386C53.3359 117.342 52.1832 116.959 51.3806 116.194C50.5779 115.429 50.1766 114.369 50.1766 113.016C50.1766 112.297 50.2839 111.667 50.4986 111.126C50.7132 110.585 51.0259 110.132 51.4366 109.768C51.8472 109.404 52.3466 109.129 52.9346 108.942C53.5319 108.755 54.2086 108.662 54.9646 108.662H55.3846V107.92H56.6446V108.662ZM51.4926 112.904C51.4926 113.492 51.5719 114.001 51.7306 114.43C51.8986 114.85 52.1319 115.2 52.4306 115.48C52.7292 115.76 53.0886 115.97 53.5086 116.11C53.9286 116.241 54.3952 116.306 54.9086 116.306H55.3846V109.698H54.9366C54.3206 109.698 53.7932 109.773 53.3546 109.922C52.9252 110.062 52.5706 110.272 52.2906 110.552C52.0106 110.823 51.8052 111.159 51.6746 111.56C51.5532 111.952 51.4926 112.4 51.4926 112.904ZM56.6446 109.698V116.306H57.0926C57.7086 116.306 58.2312 116.236 58.6606 116.096C59.0992 115.947 59.4586 115.737 59.7386 115.466C60.0186 115.186 60.2192 114.85 60.3406 114.458C60.4712 114.057 60.5366 113.604 60.5366 113.1C60.5366 112.512 60.4526 112.008 60.2846 111.588C60.1259 111.159 59.8972 110.804 59.5986 110.524C59.2999 110.244 58.9406 110.039 58.5206 109.908C58.1006 109.768 57.6339 109.698 57.1206 109.698H56.6446ZM63.117 109.054C63.229 108.942 63.3877 108.83 63.593 108.718C63.7984 108.597 64.0364 108.489 64.307 108.396C64.587 108.293 64.8997 108.214 65.245 108.158C65.5904 108.093 65.9637 108.06 66.365 108.06C66.841 108.06 67.2797 108.111 67.681 108.214C68.0917 108.307 68.4464 108.452 68.745 108.648C69.0437 108.844 69.277 109.091 69.445 109.39C69.6224 109.689 69.711 110.048 69.711 110.468C69.711 111.028 69.5757 111.513 69.305 111.924C69.0344 112.325 68.6144 112.629 68.045 112.834C68.7637 112.955 69.305 113.217 69.669 113.618C70.033 114.019 70.215 114.551 70.215 115.214C70.215 115.615 70.131 115.993 69.963 116.348C69.8044 116.703 69.5664 117.015 69.249 117.286C68.9317 117.547 68.5444 117.757 68.087 117.916C67.639 118.065 67.121 118.14 66.533 118.14C66.0757 118.14 65.651 118.098 65.259 118.014C64.867 117.939 64.5124 117.841 64.195 117.72C63.8777 117.599 63.6024 117.463 63.369 117.314C63.1357 117.165 62.9537 117.015 62.823 116.866V115.046C62.963 115.307 63.1497 115.559 63.383 115.802C63.6257 116.035 63.9057 116.245 64.223 116.432C64.5404 116.609 64.895 116.754 65.287 116.866C65.6884 116.969 66.127 117.02 66.603 117.02C66.9297 117.011 67.233 116.964 67.513 116.88C67.793 116.796 68.031 116.675 68.227 116.516C68.4324 116.348 68.591 116.147 68.703 115.914C68.8244 115.681 68.885 115.415 68.885 115.116C68.885 114.584 68.6937 114.192 68.311 113.94C67.9377 113.679 67.3264 113.548 66.477 113.548H64.923V112.498H66.463C66.8364 112.498 67.1444 112.451 67.387 112.358C67.639 112.265 67.8397 112.143 67.989 111.994C68.1384 111.835 68.241 111.653 68.297 111.448C68.3624 111.243 68.395 111.028 68.395 110.804C68.395 110.524 68.3344 110.286 68.213 110.09C68.101 109.885 67.947 109.717 67.751 109.586C67.5644 109.455 67.3497 109.357 67.107 109.292C66.8644 109.227 66.617 109.189 66.365 109.18C66.001 109.171 65.651 109.222 65.315 109.334C64.979 109.437 64.671 109.577 64.391 109.754C64.111 109.922 63.8637 110.118 63.649 110.342C63.4344 110.566 63.257 110.795 63.117 111.028V109.054Z" fill="#404040"/>
<path d="M338 106C333.58 106 330 109.58 330 114C330 118.42 333.58 122 338 122C342.42 122 346 118.42 346 114C346 109.58 342.42 106 338 106ZM337.385 118.66H336.045L332.805 114.12L334.146 112.87L336.715 115.27L341.856 109.339L343.196 110.279L337.385 118.66Z" fill="#4AA29A"/>
<path d="M243 106C238.58 106 235 109.58 235 114C235 118.42 238.58 122 243 122C247.42 122 251 118.42 251 114C251 109.58 247.42 106 243 106ZM242.385 118.66H241.045L237.805 114.12L239.146 112.87L241.715 115.27L246.856 109.339L248.196 110.279L242.385 118.66Z" fill="#4AA29A"/>
<path d="M433 106C428.589 106 425 109.589 425 114C425 118.411 428.589 122 433 122C437.411 122 441 118.411 441 114C441 109.589 437.411 106 433 106ZM437 115.6H429V112.4H437V115.6Z" fill="#F3B36A"/>
<path d="M20.77 153V152.146C21.7873 151.278 22.618 150.541 23.262 149.934C23.9153 149.327 24.4287 148.8 24.802 148.352C25.1753 147.904 25.4273 147.507 25.558 147.162C25.698 146.817 25.768 146.476 25.768 146.14C25.768 145.552 25.5907 145.099 25.236 144.782C24.8813 144.455 24.3913 144.292 23.766 144.292C23.1873 144.283 22.674 144.385 22.226 144.6C21.778 144.815 21.3953 145.118 21.078 145.51V144.096C21.1993 143.975 21.3533 143.853 21.54 143.732C21.7267 143.601 21.9413 143.489 22.184 143.396C22.4267 143.293 22.702 143.214 23.01 143.158C23.318 143.102 23.6493 143.074 24.004 143.074C24.9467 143.093 25.6793 143.349 26.202 143.844C26.734 144.339 27 145.025 27 145.902C27 146.322 26.9393 146.728 26.818 147.12C26.6967 147.503 26.4913 147.899 26.202 148.31C25.9127 148.721 25.5347 149.164 25.068 149.64C24.6013 150.107 24.0273 150.625 23.346 151.194L22.576 151.852H27.28V153H20.77ZM28.604 153V152.146C29.6213 151.278 30.452 150.541 31.096 149.934C31.7493 149.327 32.2627 148.8 32.636 148.352C33.0093 147.904 33.2613 147.507 33.392 147.162C33.532 146.817 33.602 146.476 33.602 146.14C33.602 145.552 33.4247 145.099 33.07 144.782C32.7153 144.455 32.2253 144.292 31.6 144.292C31.0213 144.283 30.508 144.385 30.06 144.6C29.612 144.815 29.2293 145.118 28.912 145.51V144.096C29.0333 143.975 29.1873 143.853 29.374 143.732C29.5607 143.601 29.7753 143.489 30.018 143.396C30.2607 143.293 30.536 143.214 30.844 143.158C31.152 143.102 31.4833 143.074 31.838 143.074C32.7807 143.093 33.5133 143.349 34.036 143.844C34.568 144.339 34.834 145.025 34.834 145.902C34.834 146.322 34.7733 146.728 34.652 147.12C34.5307 147.503 34.3253 147.899 34.036 148.31C33.7467 148.721 33.3687 149.164 32.902 149.64C32.4353 150.107 31.8613 150.625 31.18 151.194L30.41 151.852H35.114V153H28.604ZM40.7005 143.2H42.1985V149.178H43.6545V150.298H42.1985V153H41.0365V150.298H35.7305V149.5L40.7005 143.2ZM41.0365 149.178V144.53L37.2985 149.178H41.0365ZM45.606 148.282H49.358V149.458H45.606V148.282ZM57.6426 143.662H58.1886C58.9353 143.662 59.5979 143.76 60.1766 143.956C60.7553 144.152 61.2406 144.437 61.6326 144.81C62.0339 145.183 62.3373 145.641 62.5426 146.182C62.7479 146.714 62.8506 147.316 62.8506 147.988C62.8506 148.707 62.7433 149.337 62.5286 149.878C62.3139 150.419 62.0013 150.872 61.5906 151.236C61.1799 151.6 60.6759 151.875 60.0786 152.062C59.4906 152.249 58.8186 152.342 58.0626 152.342H57.6426V153.28H56.3826V152.342H55.8366C54.3339 152.342 53.1813 151.959 52.3786 151.194C51.5759 150.429 51.1746 149.369 51.1746 148.016C51.1746 147.297 51.2819 146.667 51.4966 146.126C51.7113 145.585 52.0239 145.132 52.4346 144.768C52.8453 144.404 53.3446 144.129 53.9326 143.942C54.5299 143.755 55.2066 143.662 55.9626 143.662H56.3826V142.92H57.6426V143.662ZM52.4906 147.904C52.4906 148.492 52.5699 149.001 52.7286 149.43C52.8966 149.85 53.1299 150.2 53.4286 150.48C53.7273 150.76 54.0866 150.97 54.5066 151.11C54.9266 151.241 55.3933 151.306 55.9066 151.306H56.3826V144.698H55.9346C55.3186 144.698 54.7913 144.773 54.3526 144.922C53.9233 145.062 53.5686 145.272 53.2886 145.552C53.0086 145.823 52.8033 146.159 52.6726 146.56C52.5513 146.952 52.4906 147.4 52.4906 147.904ZM57.6426 144.698V151.306H58.0906C58.7066 151.306 59.2293 151.236 59.6586 151.096C60.0973 150.947 60.4566 150.737 60.7366 150.466C61.0166 150.186 61.2173 149.85 61.3386 149.458C61.4693 149.057 61.5346 148.604 61.5346 148.1C61.5346 147.512 61.4506 147.008 61.2826 146.588C61.1239 146.159 60.8953 145.804 60.5966 145.524C60.2979 145.244 59.9386 145.039 59.5186 144.908C59.0986 144.768 58.6319 144.698 58.1186 144.698H57.6426ZM64.1151 144.054C64.2271 143.942 64.3858 143.83 64.5911 143.718C64.7964 143.597 65.0344 143.489 65.3051 143.396C65.5851 143.293 65.8978 143.214 66.2431 143.158C66.5884 143.093 66.9618 143.06 67.3631 143.06C67.8391 143.06 68.2778 143.111 68.6791 143.214C69.0898 143.307 69.4444 143.452 69.7431 143.648C70.0418 143.844 70.2751 144.091 70.4431 144.39C70.6204 144.689 70.7091 145.048 70.7091 145.468C70.7091 146.028 70.5738 146.513 70.3031 146.924C70.0324 147.325 69.6124 147.629 69.0431 147.834C69.7618 147.955 70.3031 148.217 70.6671 148.618C71.0311 149.019 71.2131 149.551 71.2131 150.214C71.2131 150.615 71.1291 150.993 70.9611 151.348C70.8024 151.703 70.5644 152.015 70.2471 152.286C69.9298 152.547 69.5424 152.757 69.0851 152.916C68.6371 153.065 68.1191 153.14 67.5311 153.14C67.0738 153.14 66.6491 153.098 66.2571 153.014C65.8651 152.939 65.5104 152.841 65.1931 152.72C64.8758 152.599 64.6004 152.463 64.3671 152.314C64.1338 152.165 63.9518 152.015 63.8211 151.866V150.046C63.9611 150.307 64.1478 150.559 64.3811 150.802C64.6238 151.035 64.9038 151.245 65.2211 151.432C65.5384 151.609 65.8931 151.754 66.2851 151.866C66.6864 151.969 67.1251 152.02 67.6011 152.02C67.9278 152.011 68.2311 151.964 68.5111 151.88C68.7911 151.796 69.0291 151.675 69.2251 151.516C69.4304 151.348 69.5891 151.147 69.7011 150.914C69.8224 150.681 69.8831 150.415 69.8831 150.116C69.8831 149.584 69.6918 149.192 69.3091 148.94C68.9358 148.679 68.3244 148.548 67.4751 148.548H65.9211V147.498H67.4611C67.8344 147.498 68.1424 147.451 68.3851 147.358C68.6371 147.265 68.8378 147.143 68.9871 146.994C69.1364 146.835 69.2391 146.653 69.2951 146.448C69.3604 146.243 69.3931 146.028 69.3931 145.804C69.3931 145.524 69.3324 145.286 69.2111 145.09C69.0991 144.885 68.9451 144.717 68.7491 144.586C68.5624 144.455 68.3478 144.357 68.1051 144.292C67.8624 144.227 67.6151 144.189 67.3631 144.18C66.9991 144.171 66.6491 144.222 66.3131 144.334C65.9771 144.437 65.6691 144.577 65.3891 144.754C65.1091 144.922 64.8618 145.118 64.6471 145.342C64.4324 145.566 64.2551 145.795 64.1151 146.028V144.054Z" fill="#404040"/>
<path d="M243 141C238.58 141 235 144.58 235 149C235 153.42 238.58 157 243 157C247.42 157 251 153.42 251 149C251 144.58 247.42 141 243 141ZM242.385 153.66H241.045L237.805 149.12L239.146 147.87L241.715 150.27L246.856 144.339L248.196 145.279L242.385 153.66Z" fill="#4AA29A"/>
<path d="M338 141C333.589 141 330 144.589 330 149C330 153.411 333.589 157 338 157C342.411 157 346 153.411 346 149C346 144.589 342.411 141 338 141ZM342 150.6H334V147.4H342V150.6Z" fill="#F3B36A"/>
<path d="M433 141C428.589 141 425 144.589 425 149C425 153.411 428.589 157 433 157C437.411 157 441 153.411 441 149C441 144.589 437.411 141 433 141ZM437 150.6H429V147.4H437V150.6Z" fill="#F3B36A"/>
<path d="M23.038 179.614L20.84 181V179.726L23.36 178.102H24.2V188H23.038V179.614ZM28.4931 179.614L26.2951 181V179.726L28.8151 178.102H29.6551V188H28.4931V179.614ZM31.9565 185.718C32.2552 186.091 32.6565 186.39 33.1605 186.614C33.6645 186.829 34.1965 186.931 34.7565 186.922C35.4939 186.922 36.0445 186.74 36.4085 186.376C36.7819 186.003 36.9685 185.508 36.9685 184.892C36.9685 184.257 36.7399 183.781 36.2825 183.464C35.8252 183.147 35.2139 182.988 34.4485 182.988C34.0192 182.988 33.6179 183.021 33.2445 183.086C32.8805 183.142 32.5725 183.212 32.3205 183.296L32.6565 178.2H37.7245V179.348H33.6785L33.4825 182.078C33.5572 182.059 33.6505 182.045 33.7625 182.036C33.8839 182.017 34.0052 182.003 34.1265 181.994C34.2572 181.975 34.3832 181.961 34.5045 181.952C34.6352 181.943 34.7565 181.938 34.8685 181.938C35.9325 181.938 36.7539 182.204 37.3325 182.736C37.9112 183.268 38.2005 183.987 38.2005 184.892C38.2005 185.415 38.1165 185.877 37.9485 186.278C37.7899 186.67 37.5565 187.006 37.2485 187.286C36.9499 187.557 36.5905 187.762 36.1705 187.902C35.7505 188.042 35.2885 188.112 34.7845 188.112C34.4392 188.112 34.1172 188.079 33.8185 188.014C33.5199 187.958 33.2492 187.883 33.0065 187.79C32.7732 187.697 32.5679 187.594 32.3905 187.482C32.2132 187.37 32.0685 187.263 31.9565 187.16V185.718ZM40.0005 183.282H43.7525V184.458H40.0005V183.282ZM52.0371 178.662H52.5831C53.3298 178.662 53.9925 178.76 54.5711 178.956C55.1498 179.152 55.6351 179.437 56.0271 179.81C56.4285 180.183 56.7318 180.641 56.9371 181.182C57.1425 181.714 57.2451 182.316 57.2451 182.988C57.2451 183.707 57.1378 184.337 56.9231 184.878C56.7085 185.419 56.3958 185.872 55.9851 186.236C55.5745 186.6 55.0705 186.875 54.4731 187.062C53.8851 187.249 53.2131 187.342 52.4571 187.342H52.0371V188.28H50.7771V187.342H50.2311C48.7285 187.342 47.5758 186.959 46.7731 186.194C45.9705 185.429 45.5691 184.369 45.5691 183.016C45.5691 182.297 45.6765 181.667 45.8911 181.126C46.1058 180.585 46.4185 180.132 46.8291 179.768C47.2398 179.404 47.7391 179.129 48.3271 178.942C48.9245 178.755 49.6011 178.662 50.3571 178.662H50.7771V177.92H52.0371V178.662ZM46.8851 182.904C46.8851 183.492 46.9645 184.001 47.1231 184.43C47.2911 184.85 47.5245 185.2 47.8231 185.48C48.1218 185.76 48.4811 185.97 48.9011 186.11C49.3211 186.241 49.7878 186.306 50.3011 186.306H50.7771V179.698H50.3291C49.7131 179.698 49.1858 179.773 48.7471 179.922C48.3178 180.062 47.9631 180.272 47.6831 180.552C47.4031 180.823 47.1978 181.159 47.0671 181.56C46.9458 181.952 46.8851 182.4 46.8851 182.904ZM52.0371 179.698V186.306H52.4851C53.1011 186.306 53.6238 186.236 54.0531 186.096C54.4918 185.947 54.8511 185.737 55.1311 185.466C55.4111 185.186 55.6118 184.85 55.7331 184.458C55.8638 184.057 55.9291 183.604 55.9291 183.1C55.9291 182.512 55.8451 182.008 55.6771 181.588C55.5185 181.159 55.2898 180.804 54.9911 180.524C54.6925 180.244 54.3331 180.039 53.9131 179.908C53.4931 179.768 53.0265 179.698 52.5131 179.698H52.0371ZM58.5096 179.054C58.6216 178.942 58.7803 178.83 58.9856 178.718C59.191 178.597 59.429 178.489 59.6996 178.396C59.9796 178.293 60.2923 178.214 60.6376 178.158C60.983 178.093 61.3563 178.06 61.7576 178.06C62.2336 178.06 62.6723 178.111 63.0736 178.214C63.4843 178.307 63.839 178.452 64.1376 178.648C64.4363 178.844 64.6696 179.091 64.8376 179.39C65.015 179.689 65.1036 180.048 65.1036 180.468C65.1036 181.028 64.9683 181.513 64.6976 181.924C64.427 182.325 64.007 182.629 63.4376 182.834C64.1563 182.955 64.6976 183.217 65.0616 183.618C65.4256 184.019 65.6076 184.551 65.6076 185.214C65.6076 185.615 65.5236 185.993 65.3556 186.348C65.197 186.703 64.959 187.015 64.6416 187.286C64.3243 187.547 63.937 187.757 63.4796 187.916C63.0316 188.065 62.5136 188.14 61.9256 188.14C61.4683 188.14 61.0436 188.098 60.6516 188.014C60.2596 187.939 59.905 187.841 59.5876 187.72C59.2703 187.599 58.995 187.463 58.7616 187.314C58.5283 187.165 58.3463 187.015 58.2156 186.866V185.046C58.3556 185.307 58.5423 185.559 58.7756 185.802C59.0183 186.035 59.2983 186.245 59.6156 186.432C59.933 186.609 60.2876 186.754 60.6796 186.866C61.081 186.969 61.5196 187.02 61.9956 187.02C62.3223 187.011 62.6256 186.964 62.9056 186.88C63.1856 186.796 63.4236 186.675 63.6196 186.516C63.825 186.348 63.9836 186.147 64.0956 185.914C64.217 185.681 64.2776 185.415 64.2776 185.116C64.2776 184.584 64.0863 184.192 63.7036 183.94C63.3303 183.679 62.719 183.548 61.8696 183.548H60.3156V182.498H61.8556C62.229 182.498 62.537 182.451 62.7796 182.358C63.0316 182.265 63.2323 182.143 63.3816 181.994C63.531 181.835 63.6336 181.653 63.6896 181.448C63.755 181.243 63.7876 181.028 63.7876 180.804C63.7876 180.524 63.727 180.286 63.6056 180.09C63.4936 179.885 63.3396 179.717 63.1436 179.586C62.957 179.455 62.7423 179.357 62.4996 179.292C62.257 179.227 62.0096 179.189 61.7576 179.18C61.3936 179.171 61.0436 179.222 60.7076 179.334C60.3716 179.437 60.0636 179.577 59.7836 179.754C59.5036 179.922 59.2563 180.118 59.0416 180.342C58.827 180.566 58.6496 180.795 58.5096 181.028V179.054Z" fill="#404040"/>
<path d="M243 176C238.58 176 235 179.58 235 184C235 188.42 238.58 192 243 192C247.42 192 251 188.42 251 184C251 179.58 247.42 176 243 176ZM242.385 188.66H241.045L237.805 184.12L239.146 182.87L241.715 185.27L246.856 179.339L248.196 180.279L242.385 188.66Z" fill="#4AA29A"/>
<path d="M338 176C333.589 176 330 179.589 330 184C330 188.411 333.589 192 338 192C342.411 192 346 188.411 346 184C346 179.589 342.411 176 338 176ZM342 185.6H334V182.4H342V185.6Z" fill="#F3B36A"/>
<path d="M433 176C428.589 176 425 179.589 425 184C425 188.411 428.589 192 433 192C437.411 192 441 188.411 441 184C441 179.589 437.411 176 433 176ZM437 185.6H429V182.4H437V185.6Z" fill="#F3B36A"/>
<path d="M433 211C428.58 211 425 214.58 425 219C425 223.42 428.58 227 433 227C437.42 227 441 223.42 441 219C441 214.58 437.42 211 433 211ZM432.385 223.66H431.045L427.805 219.12L429.146 217.87L431.715 220.27L436.856 214.339L438.196 215.279L432.385 223.66Z" fill="#4AA29A"/>
<path d="M243 211C238.589 211 235 214.589 235 219C235 223.411 238.589 227 243 227C247.411 227 251 223.411 251 219C251 214.589 247.411 211 243 211ZM247 220.6H239V217.4H247V220.6Z" fill="#F3B36A"/>
<path d="M338 211C333.589 211 330 214.589 330 219C330 223.411 333.589 227 338 227C342.411 227 346 223.411 346 219C346 214.589 342.411 211 338 211ZM342 220.6H334V217.4H342V220.6Z" fill="#F3B36A"/>
<path d="M22.24 216.434C22.24 216.77 22.2773 217.069 22.352 217.33C22.436 217.582 22.5713 217.797 22.758 217.974C22.9447 218.142 23.1967 218.273 23.514 218.366C23.8313 218.45 24.2233 218.492 24.69 218.492C24.914 218.492 25.1427 218.483 25.376 218.464C25.6187 218.436 25.852 218.403 26.076 218.366C26.3093 218.319 26.524 218.263 26.72 218.198C26.9253 218.123 27.098 218.039 27.238 217.946V213.2H28.498V223H27.238V219.01C27.1073 219.094 26.9393 219.173 26.734 219.248C26.538 219.313 26.314 219.374 26.062 219.43C25.8193 219.477 25.558 219.519 25.278 219.556C24.998 219.584 24.718 219.598 24.438 219.598C23.8313 219.598 23.3087 219.533 22.87 219.402C22.4313 219.271 22.072 219.094 21.792 218.87C21.512 218.637 21.3067 218.361 21.176 218.044C21.0453 217.727 20.98 217.386 20.98 217.022V213.2H22.24V216.434ZM31.1304 216.532C31.3638 216.355 31.6811 216.201 32.0824 216.07C32.4931 215.93 32.9691 215.86 33.5104 215.86C33.9584 215.86 34.3598 215.902 34.7144 215.986C35.0691 216.07 35.3678 216.21 35.6104 216.406C35.8624 216.602 36.0538 216.863 36.1844 217.19C36.3151 217.507 36.3804 217.904 36.3804 218.38V223H35.2744V221.81C35.0878 222.202 34.7844 222.519 34.3644 222.762C33.9538 222.995 33.4684 223.112 32.9084 223.112C32.2084 223.112 31.6484 222.93 31.2284 222.566C30.8084 222.202 30.5984 221.661 30.5984 220.942C30.5984 220.559 30.6638 220.242 30.7944 219.99C30.9344 219.729 31.1304 219.523 31.3824 219.374C31.6344 219.215 31.9424 219.108 32.3064 219.052C32.6704 218.987 33.0858 218.954 33.5524 218.954H35.2184V218.394C35.2184 218.095 35.1764 217.848 35.0924 217.652C35.0084 217.456 34.8918 217.302 34.7424 217.19C34.5931 217.069 34.4111 216.985 34.1964 216.938C33.9911 216.891 33.7624 216.868 33.5104 216.868C32.9598 216.868 32.4838 216.989 32.0824 217.232C31.6904 217.475 31.3731 217.792 31.1304 218.184V216.532ZM33.2024 222.034C33.5571 222.034 33.8558 221.983 34.0984 221.88C34.3504 221.777 34.5558 221.656 34.7144 221.516C34.8731 221.367 34.9898 221.213 35.0644 221.054C35.1484 220.895 35.1998 220.755 35.2184 220.634V219.878H33.5944C32.9598 219.878 32.4978 219.943 32.2084 220.074C31.9284 220.205 31.7884 220.471 31.7884 220.872C31.7884 221.217 31.9051 221.497 32.1384 221.712C32.3718 221.927 32.7264 222.034 33.2024 222.034ZM43.7466 222.286C43.588 222.501 43.3173 222.697 42.9346 222.874C42.552 223.051 42.062 223.14 41.4646 223.14C40.354 223.14 39.4953 222.837 38.8886 222.23C38.282 221.623 37.9786 220.704 37.9786 219.472C37.9786 218.865 38.0673 218.338 38.2446 217.89C38.422 217.433 38.6646 217.055 38.9726 216.756C39.2806 216.457 39.6446 216.233 40.0646 216.084C40.4846 215.935 40.942 215.86 41.4366 215.86C41.9126 215.86 42.3466 215.93 42.7386 216.07C43.1306 216.201 43.4433 216.355 43.6766 216.532V218.184C43.434 217.792 43.1166 217.475 42.7246 217.232C42.342 216.989 41.9126 216.868 41.4366 216.868C40.6993 216.868 40.1346 217.087 39.7426 217.526C39.3506 217.955 39.1546 218.604 39.1546 219.472V219.514C39.1546 220.419 39.3506 221.082 39.7426 221.502C40.144 221.922 40.718 222.132 41.4646 222.132C42.0526 222.132 42.5333 222.015 42.9066 221.782C43.2893 221.549 43.5693 221.264 43.7466 220.928V222.286ZM47.27 217.036H44.932V216H50.756V217.036H48.432V223H47.27V217.036ZM57.0815 219.976H53.3855V223H52.2235V216H53.3855V218.926H57.0815V216H58.2435V223H57.0815V219.976ZM60.4813 216H61.6433V218.254H63.0573C63.5333 218.254 63.9487 218.287 64.3033 218.352C64.6673 218.417 64.9707 218.534 65.2133 218.702C65.456 218.87 65.638 219.103 65.7593 219.402C65.89 219.691 65.9553 220.065 65.9553 220.522C65.9553 220.979 65.8993 221.367 65.7873 221.684C65.6753 221.992 65.4933 222.244 65.2413 222.44C64.9987 222.636 64.6813 222.781 64.2893 222.874C63.8973 222.958 63.426 223 62.8753 223H60.4813V216ZM66.9213 216H68.0833V223H66.9213V216ZM64.7933 220.522C64.784 220.261 64.7467 220.051 64.6813 219.892C64.6253 219.733 64.5227 219.612 64.3733 219.528C64.2333 219.435 64.042 219.374 63.7993 219.346C63.566 219.309 63.2767 219.29 62.9313 219.29H61.6433V221.964H62.8613C63.1973 221.964 63.4867 221.945 63.7293 221.908C63.972 221.861 64.1727 221.787 64.3313 221.684C64.49 221.572 64.6067 221.423 64.6813 221.236C64.756 221.049 64.7933 220.811 64.7933 220.522ZM73.2511 215.86C74.2217 215.86 74.9777 216.149 75.5191 216.728C76.0697 217.307 76.3451 218.119 76.3451 219.164V219.92H70.9831C71.0391 220.676 71.2631 221.236 71.6551 221.6C72.0471 221.955 72.5884 222.132 73.2791 222.132C73.9511 222.132 74.5017 222.015 74.9311 221.782C75.3604 221.549 75.6684 221.264 75.8551 220.928V222.286C75.6777 222.501 75.3744 222.697 74.9451 222.874C74.5251 223.051 73.9697 223.14 73.2791 223.14C72.1684 223.14 71.3097 222.837 70.7031 222.23C70.0964 221.623 69.7931 220.704 69.7931 219.472C69.7931 218.865 69.8817 218.338 70.0591 217.89C70.2364 217.433 70.4791 217.055 70.7871 216.756C71.0951 216.457 71.4591 216.233 71.8791 216.084C72.2991 215.935 72.7564 215.86 73.2511 215.86ZM73.2511 216.868C72.5884 216.868 72.0657 217.041 71.6831 217.386C71.3004 217.731 71.0717 218.245 70.9971 218.926H75.1831V218.912C75.1831 218.24 75.0011 217.731 74.6371 217.386C74.2731 217.041 73.8111 216.868 73.2511 216.868ZM86.4324 217.036H82.8484V223H81.6864V216H87.5944V223H86.4324V217.036ZM89.8348 216H90.9408V217.344C91.1182 216.933 91.4168 216.583 91.8368 216.294C92.2568 216.005 92.8215 215.86 93.5308 215.86C94.4642 215.86 95.2062 216.135 95.7568 216.686C96.3075 217.237 96.5828 218.123 96.5828 219.346C96.5828 220.037 96.5082 220.625 96.3588 221.11C96.2188 221.586 96.0088 221.978 95.7288 222.286C95.4582 222.585 95.1268 222.804 94.7348 222.944C94.3428 223.084 93.8948 223.154 93.3908 223.154C92.8028 223.154 92.3035 223.033 91.8928 222.79C91.4915 222.538 91.1928 222.249 90.9968 221.922V225.52H89.8348V216ZM90.9968 219.794C90.9968 220.522 91.1975 221.091 91.5988 221.502C92.0095 221.903 92.5462 222.104 93.2088 222.104C93.9742 222.104 94.5295 221.899 94.8748 221.488C95.2295 221.077 95.4068 220.387 95.4068 219.416C95.4068 218.949 95.3555 218.557 95.2528 218.24C95.1502 217.913 95.0008 217.652 94.8048 217.456C94.6182 217.26 94.3895 217.12 94.1188 217.036C93.8482 216.952 93.5495 216.91 93.2228 216.91C92.4948 216.91 91.9442 217.106 91.5708 217.498C91.2068 217.881 91.0155 218.422 90.9968 219.122V219.794ZM97.7247 219.472C97.7247 218.865 97.8134 218.338 97.9907 217.89C98.1681 217.433 98.4107 217.055 98.7187 216.756C99.0267 216.457 99.3907 216.233 99.8107 216.084C100.231 215.935 100.688 215.86 101.183 215.86C102.284 215.869 103.138 216.177 103.745 216.784C104.351 217.391 104.655 218.305 104.655 219.528C104.655 220.135 104.566 220.667 104.389 221.124C104.211 221.572 103.969 221.945 103.661 222.244C103.353 222.543 102.989 222.767 102.569 222.916C102.149 223.065 101.691 223.14 101.197 223.14C100.086 223.131 99.2274 222.827 98.6207 222.23C98.0234 221.623 97.7247 220.704 97.7247 219.472ZM98.9007 219.514C98.9007 220.419 99.0967 221.082 99.4887 221.502C99.8807 221.922 100.45 222.132 101.197 222.132C101.934 222.132 102.499 221.917 102.891 221.488C103.283 221.049 103.479 220.396 103.479 219.528V219.486C103.479 218.59 103.278 217.932 102.877 217.512C102.485 217.092 101.92 216.877 101.183 216.868C100.445 216.868 99.8807 217.087 99.4887 217.526C99.0967 217.955 98.9007 218.604 98.9007 219.472V219.514ZM109.29 215.86C110.261 215.86 111.017 216.149 111.558 216.728C112.109 217.307 112.384 218.119 112.384 219.164V219.92H107.022C107.078 220.676 107.302 221.236 107.694 221.6C108.086 221.955 108.627 222.132 109.318 222.132C109.99 222.132 110.541 222.015 110.97 221.782C111.399 221.549 111.707 221.264 111.894 220.928V222.286C111.717 222.501 111.413 222.697 110.984 222.874C110.564 223.051 110.009 223.14 109.318 223.14C108.207 223.14 107.349 222.837 106.742 222.23C106.135 221.623 105.832 220.704 105.832 219.472C105.832 218.865 105.921 218.338 106.098 217.89C106.275 217.433 106.518 217.055 106.826 216.756C107.134 216.457 107.498 216.233 107.918 216.084C108.338 215.935 108.795 215.86 109.29 215.86ZM109.29 216.868C108.627 216.868 108.105 217.041 107.722 217.386C107.339 217.731 107.111 218.245 107.036 218.926H111.222V218.912C111.222 218.24 111.04 217.731 110.676 217.386C110.312 217.041 109.85 216.868 109.29 216.868ZM114.089 216H115.251V218.926H116.511L118.709 216H120.039L117.477 219.304L120.501 223H119.031L116.511 219.92H115.251V223H114.089V216ZM123.6 217.036H121.262V216H127.086V217.036H124.762V223H123.6V217.036ZM128.554 216H129.716V218.254H131.13C131.606 218.254 132.021 218.287 132.376 218.352C132.74 218.417 133.043 218.534 133.286 218.702C133.528 218.87 133.71 219.103 133.832 219.402C133.962 219.691 134.028 220.065 134.028 220.522C134.028 220.979 133.972 221.367 133.86 221.684C133.748 221.992 133.566 222.244 133.314 222.44C133.071 222.636 132.754 222.781 132.362 222.874C131.97 222.958 131.498 223 130.948 223H128.554V216ZM134.994 216H136.156V223H134.994V216ZM132.866 220.522C132.856 220.261 132.819 220.051 132.754 219.892C132.698 219.733 132.595 219.612 132.446 219.528C132.306 219.435 132.114 219.374 131.872 219.346C131.638 219.309 131.349 219.29 131.004 219.29H129.716V221.964H130.934C131.27 221.964 131.559 221.945 131.802 221.908C132.044 221.861 132.245 221.787 132.404 221.684C132.562 221.572 132.679 221.423 132.754 221.236C132.828 221.049 132.866 220.811 132.866 220.522Z" fill="#404040"/>
<path d="M28.246 32.81H23.024V41H21.274V31.2H29.996V41H28.246V32.81ZM32.2596 34H33.7996V35.456C33.865 35.26 33.9583 35.0687 34.0796 34.882C34.2103 34.686 34.3736 34.5133 34.5696 34.364C34.775 34.2147 35.0176 34.0933 35.2976 34C35.5776 33.9067 35.9043 33.86 36.2776 33.86C36.7256 33.86 37.1316 33.93 37.4956 34.07C37.869 34.2007 38.1863 34.406 38.4476 34.686C38.7183 34.966 38.9283 35.3253 39.0776 35.764C39.227 36.2027 39.3016 36.73 39.3016 37.346C39.3016 38.0367 39.227 38.6247 39.0776 39.11C38.9283 39.586 38.7136 39.978 38.4336 40.286C38.163 40.5847 37.8316 40.804 37.4396 40.944C37.0476 41.084 36.6136 41.154 36.1376 41.154C35.5776 41.154 35.1063 41.0327 34.7236 40.79C34.3503 40.5473 34.075 40.2627 33.8976 39.936V43.702H32.2596V34ZM33.8976 37.738C33.8976 38.3727 34.0656 38.8627 34.4016 39.208C34.7376 39.544 35.195 39.712 35.7736 39.712C36.4363 39.712 36.917 39.5393 37.2156 39.194C37.5143 38.8393 37.6636 38.2467 37.6636 37.416C37.6636 36.6507 37.491 36.1093 37.1456 35.792C36.8096 35.4747 36.3616 35.316 35.8016 35.316C35.1576 35.316 34.6816 35.484 34.3736 35.82C34.075 36.156 33.9163 36.618 33.8976 37.206V37.738ZM40.9589 34.49C41.1922 34.3127 41.5142 34.1633 41.9249 34.042C42.3449 33.9207 42.8582 33.86 43.4649 33.86C44.4915 33.86 45.2569 34.0513 45.7609 34.434C46.2649 34.8167 46.5169 35.4653 46.5169 36.38V41H44.9769V39.74C44.8089 40.1507 44.5195 40.482 44.1089 40.734C43.7075 40.986 43.2269 41.112 42.6669 41.112C41.9575 41.112 41.4022 40.9253 41.0009 40.552C40.6089 40.1693 40.4129 39.6327 40.4129 38.942C40.4129 38.5407 40.4829 38.2093 40.6229 37.948C40.7629 37.6867 40.9589 37.4813 41.2109 37.332C41.4629 37.1733 41.7662 37.0613 42.1209 36.996C42.4755 36.9307 42.8675 36.898 43.2969 36.898H44.8789V36.59C44.8789 36.0953 44.7575 35.7547 44.5149 35.568C44.2815 35.3813 43.9315 35.288 43.4649 35.288C42.8209 35.288 42.3029 35.4047 41.9109 35.638C41.5189 35.862 41.2015 36.1607 40.9589 36.534V34.49ZM43.1849 39.642C43.4649 39.642 43.7029 39.6093 43.8989 39.544C44.1042 39.4693 44.2769 39.3807 44.4169 39.278C44.5569 39.166 44.6642 39.0447 44.7389 38.914C44.8135 38.7833 44.8602 38.6573 44.8789 38.536V37.962H43.4929C43.0075 37.962 42.6482 38.018 42.4149 38.13C42.1815 38.242 42.0649 38.4567 42.0649 38.774C42.0649 39.0447 42.1582 39.2593 42.3449 39.418C42.5409 39.5673 42.8209 39.642 43.1849 39.642ZM48.4061 34H51.9341C52.7741 34 53.3714 34.14 53.7261 34.42C54.0808 34.6907 54.2581 35.092 54.2581 35.624C54.2581 36.044 54.1508 36.394 53.9361 36.674C53.7308 36.9447 53.4368 37.1267 53.0541 37.22C53.2781 37.248 53.4834 37.2993 53.6701 37.374C53.8661 37.4393 54.0294 37.5373 54.1601 37.668C54.3001 37.7987 54.4074 37.9667 54.4821 38.172C54.5661 38.3773 54.6081 38.6293 54.6081 38.928C54.6081 39.6 54.3841 40.1133 53.9361 40.468C53.4974 40.8227 52.8161 41 51.8921 41H48.4061V34ZM51.7381 39.642C52.1768 39.642 52.4941 39.5767 52.6901 39.446C52.8861 39.306 52.9841 39.096 52.9841 38.816C52.9841 38.508 52.8861 38.298 52.6901 38.186C52.5034 38.0647 52.2188 38.004 51.8361 38.004H50.0441V39.642H51.7381ZM51.5421 36.828C51.8688 36.828 52.1301 36.772 52.3261 36.66C52.5221 36.5387 52.6201 36.3287 52.6201 36.03C52.6201 35.7687 52.5314 35.5913 52.3541 35.498C52.1768 35.4047 51.9108 35.358 51.5561 35.358L50.0441 35.372V36.828H51.5421ZM59.2254 41.154C58.6747 41.154 58.18 41.0793 57.7414 40.93C57.3027 40.7713 56.9247 40.538 56.6074 40.23C56.29 39.922 56.0474 39.5393 55.8794 39.082C55.7114 38.6247 55.6274 38.088 55.6274 37.472C55.6274 36.8653 55.716 36.338 55.8934 35.89C56.0707 35.4327 56.318 35.0547 56.6354 34.756C56.9527 34.448 57.3354 34.2193 57.7834 34.07C58.2314 33.9207 58.7307 33.846 59.2814 33.846C59.8227 33.846 60.3127 33.9253 60.7514 34.084C61.1994 34.2427 61.5774 34.476 61.8854 34.784C62.2027 35.092 62.4454 35.4747 62.6134 35.932C62.7814 36.3893 62.8654 36.9213 62.8654 37.528C62.8654 38.1347 62.7767 38.6667 62.5994 39.124C62.422 39.572 62.1747 39.9453 61.8574 40.244C61.54 40.5427 61.1574 40.7713 60.7094 40.93C60.2614 41.0793 59.7667 41.154 59.2254 41.154ZM57.2934 37.514C57.2934 38.2887 57.466 38.8533 57.8114 39.208C58.1567 39.5533 58.6374 39.726 59.2534 39.726C59.8787 39.726 60.3594 39.5487 60.6954 39.194C61.0314 38.83 61.1994 38.2747 61.1994 37.528V37.486C61.1994 36.7113 61.022 36.1513 60.6674 35.806C60.322 35.4513 59.8414 35.274 59.2254 35.274C58.6 35.2833 58.1194 35.47 57.7834 35.834C57.4567 36.1887 57.2934 36.7347 57.2934 37.472V37.514ZM64.3749 34H67.9029C68.7429 34 69.3402 34.14 69.6949 34.42C70.0495 34.6907 70.2269 35.092 70.2269 35.624C70.2269 36.044 70.1195 36.394 69.9049 36.674C69.6995 36.9447 69.4055 37.1267 69.0229 37.22C69.2469 37.248 69.4522 37.2993 69.6389 37.374C69.8349 37.4393 69.9982 37.5373 70.1289 37.668C70.2689 37.7987 70.3762 37.9667 70.4509 38.172C70.5349 38.3773 70.5769 38.6293 70.5769 38.928C70.5769 39.6 70.3529 40.1133 69.9049 40.468C69.4662 40.8227 68.7849 41 67.8609 41H64.3749V34ZM67.7069 39.642C68.1455 39.642 68.4629 39.5767 68.6589 39.446C68.8549 39.306 68.9529 39.096 68.9529 38.816C68.9529 38.508 68.8549 38.298 68.6589 38.186C68.4722 38.0647 68.1875 38.004 67.8049 38.004H66.0129V39.642H67.7069ZM67.5109 36.828C67.8375 36.828 68.0989 36.772 68.2949 36.66C68.4909 36.5387 68.5889 36.3287 68.5889 36.03C68.5889 35.7687 68.5002 35.5913 68.3229 35.498C68.1455 35.4047 67.8795 35.358 67.5249 35.358L66.0129 35.372V36.828H67.5109ZM75.1941 41.154C74.6435 41.154 74.1488 41.0793 73.7101 40.93C73.2715 40.7713 72.8935 40.538 72.5761 40.23C72.2588 39.922 72.0161 39.5393 71.8481 39.082C71.6801 38.6247 71.5961 38.088 71.5961 37.472C71.5961 36.8653 71.6848 36.338 71.8621 35.89C72.0395 35.4327 72.2868 35.0547 72.6041 34.756C72.9215 34.448 73.3041 34.2193 73.7521 34.07C74.2001 33.9207 74.6995 33.846 75.2501 33.846C75.7915 33.846 76.2815 33.9253 76.7201 34.084C77.1681 34.2427 77.5461 34.476 77.8541 34.784C78.1715 35.092 78.4141 35.4747 78.5821 35.932C78.7501 36.3893 78.8341 36.9213 78.8341 37.528C78.8341 38.1347 78.7455 38.6667 78.5681 39.124C78.3908 39.572 78.1435 39.9453 77.8261 40.244C77.5088 40.5427 77.1261 40.7713 76.6781 40.93C76.2301 41.0793 75.7355 41.154 75.1941 41.154ZM73.2621 37.514C73.2621 38.2887 73.4348 38.8533 73.7801 39.208C74.1255 39.5533 74.6061 39.726 75.2221 39.726C75.8475 39.726 76.3281 39.5487 76.6641 39.194C77.0001 38.83 77.1681 38.2747 77.1681 37.528V37.486C77.1681 36.7113 76.9908 36.1513 76.6361 35.806C76.2908 35.4513 75.8101 35.274 75.1941 35.274C74.5688 35.2833 74.0881 35.47 73.7521 35.834C73.4255 36.1887 73.2621 36.7347 73.2621 37.472V37.514ZM86.1256 40.3C86.0416 40.4027 85.9203 40.5053 85.7616 40.608C85.6029 40.7013 85.4116 40.79 85.1876 40.874C84.9636 40.958 84.7116 41.0233 84.4316 41.07C84.1609 41.1167 83.8669 41.14 83.5496 41.14C82.3829 41.1493 81.4776 40.846 80.8336 40.23C80.1896 39.6047 79.8676 38.6853 79.8676 37.472C79.8676 36.8933 79.9516 36.38 80.1196 35.932C80.2969 35.4747 80.5443 35.092 80.8616 34.784C81.1789 34.476 81.5523 34.2427 81.9816 34.084C82.4203 33.9253 82.9056 33.846 83.4376 33.846C84.4549 33.8553 85.2483 34.1587 85.8176 34.756C86.3963 35.3533 86.6856 36.2027 86.6856 37.304V37.976H81.4916C81.6223 39.1427 82.3269 39.726 83.6056 39.726C84.2496 39.726 84.7816 39.6187 85.2016 39.404C85.6309 39.1893 85.9389 38.928 86.1256 38.62V40.3ZM83.3956 35.274C82.8636 35.274 82.4389 35.4047 82.1216 35.666C81.8043 35.9273 81.6036 36.31 81.5196 36.814H85.0476C85.0289 36.338 84.8749 35.9647 84.5856 35.694C84.2963 35.414 83.8996 35.274 83.3956 35.274ZM94.95 41.154C94.3993 41.154 93.9047 41.0793 93.466 40.93C93.0273 40.7713 92.6493 40.538 92.332 40.23C92.0147 39.922 91.772 39.5393 91.604 39.082C91.436 38.6247 91.352 38.088 91.352 37.472C91.352 36.8653 91.4407 36.338 91.618 35.89C91.7953 35.4327 92.0427 35.0547 92.36 34.756C92.6773 34.448 93.06 34.2193 93.508 34.07C93.956 33.9207 94.4553 33.846 95.006 33.846C95.5473 33.846 96.0373 33.9253 96.476 34.084C96.924 34.2427 97.302 34.476 97.61 34.784C97.9273 35.092 98.17 35.4747 98.338 35.932C98.506 36.3893 98.59 36.9213 98.59 37.528C98.59 38.1347 98.5013 38.6667 98.324 39.124C98.1467 39.572 97.8993 39.9453 97.582 40.244C97.2647 40.5427 96.882 40.7713 96.434 40.93C95.986 41.0793 95.4913 41.154 94.95 41.154ZM93.018 37.514C93.018 38.2887 93.1907 38.8533 93.536 39.208C93.8813 39.5533 94.362 39.726 94.978 39.726C95.6033 39.726 96.084 39.5487 96.42 39.194C96.756 38.83 96.924 38.2747 96.924 37.528V37.486C96.924 36.7113 96.7467 36.1513 96.392 35.806C96.0467 35.4513 95.566 35.274 94.95 35.274C94.3247 35.2833 93.844 35.47 93.508 35.834C93.1813 36.1887 93.018 36.7347 93.018 37.472V37.514ZM105.671 40.3C105.513 40.496 105.228 40.6873 104.817 40.874C104.407 41.0607 103.917 41.154 103.347 41.154C102.787 41.154 102.279 41.0793 101.821 40.93C101.364 40.7713 100.972 40.538 100.645 40.23C100.319 39.922 100.067 39.5393 99.8895 39.082C99.7121 38.6247 99.6235 38.088 99.6235 37.472C99.6235 36.8747 99.7121 36.352 99.8895 35.904C100.076 35.4467 100.333 35.0687 100.659 34.77C100.986 34.462 101.378 34.2333 101.835 34.084C102.293 33.9253 102.801 33.846 103.361 33.846C103.837 33.8553 104.271 33.9207 104.663 34.042C105.055 34.1633 105.368 34.3127 105.601 34.49V36.534C105.359 36.1607 105.051 35.862 104.677 35.638C104.313 35.4047 103.875 35.2833 103.361 35.274C102.689 35.274 102.176 35.4513 101.821 35.806C101.467 36.1607 101.289 36.6927 101.289 37.402V37.612C101.289 38.34 101.471 38.8767 101.835 39.222C102.209 39.558 102.727 39.726 103.389 39.726C103.977 39.726 104.458 39.6187 104.831 39.404C105.214 39.1893 105.494 38.928 105.671 38.62V40.3ZM111.97 38.172H108.806V41H107.168V34H108.806V36.73H111.97V34H113.608V41H111.97V38.172ZM118.712 41.154C118.161 41.154 117.666 41.0793 117.228 40.93C116.789 40.7713 116.411 40.538 116.094 40.23C115.776 39.922 115.534 39.5393 115.366 39.082C115.198 38.6247 115.114 38.088 115.114 37.472C115.114 36.8653 115.202 36.338 115.38 35.89C115.557 35.4327 115.804 35.0547 116.122 34.756C116.439 34.448 116.822 34.2193 117.27 34.07C117.718 33.9207 118.217 33.846 118.768 33.846C119.309 33.846 119.799 33.9253 120.238 34.084C120.686 34.2427 121.064 34.476 121.372 34.784C121.689 35.092 121.932 35.4747 122.1 35.932C122.268 36.3893 122.352 36.9213 122.352 37.528C122.352 38.1347 122.263 38.6667 122.086 39.124C121.908 39.572 121.661 39.9453 121.344 40.244C121.026 40.5427 120.644 40.7713 120.196 40.93C119.748 41.0793 119.253 41.154 118.712 41.154ZM116.78 37.514C116.78 38.2887 116.952 38.8533 117.298 39.208C117.643 39.5533 118.124 39.726 118.74 39.726C119.365 39.726 119.846 39.5487 120.182 39.194C120.518 38.83 120.686 38.2747 120.686 37.528V37.486C120.686 36.7113 120.508 36.1513 120.154 35.806C119.808 35.4513 119.328 35.274 118.712 35.274C118.086 35.2833 117.606 35.47 117.27 35.834C116.943 36.1887 116.78 36.7347 116.78 37.472V37.514ZM123.861 34H127.389C128.229 34 128.827 34.14 129.181 34.42C129.536 34.6907 129.713 35.092 129.713 35.624C129.713 36.044 129.606 36.394 129.391 36.674C129.186 36.9447 128.892 37.1267 128.509 37.22C128.733 37.248 128.939 37.2993 129.125 37.374C129.321 37.4393 129.485 37.5373 129.615 37.668C129.755 37.7987 129.863 37.9667 129.937 38.172C130.021 38.3773 130.063 38.6293 130.063 38.928C130.063 39.6 129.839 40.1133 129.391 40.468C128.953 40.8227 128.271 41 127.347 41H123.861V34ZM127.193 39.642C127.632 39.642 127.949 39.5767 128.145 39.446C128.341 39.306 128.439 39.096 128.439 38.816C128.439 38.508 128.341 38.298 128.145 38.186C127.959 38.0647 127.674 38.004 127.291 38.004H125.499V39.642H127.193ZM126.997 36.828C127.324 36.828 127.585 36.772 127.781 36.66C127.977 36.5387 128.075 36.3287 128.075 36.03C128.075 35.7687 127.987 35.5913 127.809 35.498C127.632 35.4047 127.366 35.358 127.011 35.358L125.499 35.372V36.828H126.997ZM131.726 34.49C131.96 34.3127 132.282 34.1633 132.692 34.042C133.112 33.9207 133.626 33.86 134.232 33.86C135.259 33.86 136.024 34.0513 136.528 34.434C137.032 34.8167 137.284 35.4653 137.284 36.38V41H135.744V39.74C135.576 40.1507 135.287 40.482 134.876 40.734C134.475 40.986 133.994 41.112 133.434 41.112C132.725 41.112 132.17 40.9253 131.768 40.552C131.376 40.1693 131.18 39.6327 131.18 38.942C131.18 38.5407 131.25 38.2093 131.39 37.948C131.53 37.6867 131.726 37.4813 131.978 37.332C132.23 37.1733 132.534 37.0613 132.888 36.996C133.243 36.9307 133.635 36.898 134.064 36.898H135.646V36.59C135.646 36.0953 135.525 35.7547 135.282 35.568C135.049 35.3813 134.699 35.288 134.232 35.288C133.588 35.288 133.07 35.4047 132.678 35.638C132.286 35.862 131.969 36.1607 131.726 36.534V34.49ZM133.952 39.642C134.232 39.642 134.47 39.6093 134.666 39.544C134.872 39.4693 135.044 39.3807 135.184 39.278C135.324 39.166 135.432 39.0447 135.506 38.914C135.581 38.7833 135.628 38.6573 135.646 38.536V37.962H134.26C133.775 37.962 133.416 38.018 133.182 38.13C132.949 38.242 132.832 38.4567 132.832 38.774C132.832 39.0447 132.926 39.2593 133.112 39.418C133.308 39.5673 133.588 39.642 133.952 39.642ZM143.976 38.172H140.812V41H139.174V34H140.812V36.73H143.976V34H145.614V41H143.976V38.172ZM147.61 34H149.234V38.746L152.594 34H154.148V41H152.524V36.198L149.164 41H147.61V34ZM161.922 40.3C161.838 40.4027 161.717 40.5053 161.558 40.608C161.4 40.7013 161.208 40.79 160.984 40.874C160.76 40.958 160.508 41.0233 160.228 41.07C159.958 41.1167 159.664 41.14 159.346 41.14C158.18 41.1493 157.274 40.846 156.63 40.23C155.986 39.6047 155.664 38.6853 155.664 37.472C155.664 36.8933 155.748 36.38 155.916 35.932C156.094 35.4747 156.341 35.092 156.658 34.784C156.976 34.476 157.349 34.2427 157.778 34.084C158.217 33.9253 158.702 33.846 159.234 33.846C160.252 33.8553 161.045 34.1587 161.614 34.756C162.193 35.3533 162.482 36.2027 162.482 37.304V37.976H157.288C157.419 39.1427 158.124 39.726 159.402 39.726C160.046 39.726 160.578 39.6187 160.998 39.404C161.428 39.1893 161.736 38.928 161.922 38.62V40.3ZM159.192 35.274C158.66 35.274 158.236 35.4047 157.918 35.666C157.601 35.9273 157.4 36.31 157.316 36.814H160.844C160.826 36.338 160.672 35.9647 160.382 35.694C160.093 35.414 159.696 35.274 159.192 35.274Z" fill="#404040"/>
<path d="M232.592 30.028C232.488 30.156 232.34 30.284 232.148 30.412C231.956 30.54 231.728 30.656 231.464 30.76C231.208 30.864 230.916 30.948 230.588 31.012C230.268 31.084 229.924 31.12 229.556 31.12C228.884 31.12 228.276 31.02 227.732 30.82C227.196 30.612 226.74 30.324 226.364 29.956C225.988 29.58 225.696 29.124 225.488 28.588C225.288 28.052 225.188 27.452 225.188 26.788C225.188 26.164 225.288 25.592 225.488 25.072C225.688 24.544 225.976 24.088 226.352 23.704C226.736 23.32 227.196 23.02 227.732 22.804C228.276 22.588 228.892 22.48 229.58 22.48C229.924 22.48 230.244 22.508 230.54 22.564C230.836 22.612 231.1 22.68 231.332 22.768C231.572 22.848 231.78 22.94 231.956 23.044C232.132 23.14 232.268 23.236 232.364 23.332V25.024C232.244 24.824 232.092 24.632 231.908 24.448C231.724 24.256 231.512 24.088 231.272 23.944C231.032 23.792 230.768 23.672 230.48 23.584C230.192 23.488 229.892 23.44 229.58 23.44C229.076 23.44 228.62 23.52 228.212 23.68C227.812 23.84 227.472 24.068 227.192 24.364C226.912 24.66 226.696 25.016 226.544 25.432C226.392 25.84 226.316 26.296 226.316 26.8C226.316 27.272 226.384 27.712 226.52 28.12C226.656 28.52 226.856 28.872 227.12 29.176C227.392 29.472 227.728 29.708 228.128 29.884C228.528 30.06 228.988 30.152 229.508 30.16C229.892 30.16 230.244 30.116 230.564 30.028C230.892 29.932 231.184 29.808 231.44 29.656C231.704 29.496 231.932 29.316 232.124 29.116C232.316 28.908 232.472 28.692 232.592 28.468V30.028ZM235.424 27.928L233.336 25H234.56L236.084 27.148L237.608 25H238.772L236.66 27.844L238.916 31H237.692L236.024 28.612L234.356 31H233.192L235.424 27.928ZM242.388 24.88C243.22 24.88 243.868 25.128 244.332 25.624C244.804 26.12 245.04 26.816 245.04 27.712V28.36H240.444C240.492 29.008 240.684 29.488 241.02 29.8C241.356 30.104 241.82 30.256 242.412 30.256C242.988 30.256 243.46 30.156 243.828 29.956C244.196 29.756 244.46 29.512 244.62 29.224V30.388C244.468 30.572 244.208 30.74 243.84 30.892C243.48 31.044 243.004 31.12 242.412 31.12C241.46 31.12 240.724 30.86 240.204 30.34C239.684 29.82 239.424 29.032 239.424 27.976C239.424 27.456 239.5 27.004 239.652 26.62C239.804 26.228 240.012 25.904 240.276 25.648C240.54 25.392 240.852 25.2 241.212 25.072C241.572 24.944 241.964 24.88 242.388 24.88ZM242.388 25.744C241.82 25.744 241.372 25.892 241.044 26.188C240.716 26.484 240.52 26.924 240.456 27.508H244.044V27.496C244.044 26.92 243.888 26.484 243.576 26.188C243.264 25.892 242.868 25.744 242.388 25.744ZM252.033 26.464L249.993 29.464H249.549L247.497 26.464V31H246.501V25H247.581L249.813 28.18L252.009 25H253.029V31H252.033V26.464ZM255.046 25.456C255.246 25.304 255.518 25.172 255.862 25.06C256.214 24.94 256.622 24.88 257.086 24.88C257.47 24.88 257.814 24.916 258.118 24.988C258.422 25.06 258.678 25.18 258.886 25.348C259.102 25.516 259.266 25.74 259.378 26.02C259.49 26.292 259.546 26.632 259.546 27.04V31H258.598V29.98C258.438 30.316 258.178 30.588 257.818 30.796C257.466 30.996 257.05 31.096 256.57 31.096C255.97 31.096 255.49 30.94 255.13 30.628C254.77 30.316 254.59 29.852 254.59 29.236C254.59 28.908 254.646 28.636 254.758 28.42C254.878 28.196 255.046 28.02 255.262 27.892C255.478 27.756 255.742 27.664 256.054 27.616C256.366 27.56 256.722 27.532 257.122 27.532H258.55V27.052C258.55 26.796 258.514 26.584 258.442 26.416C258.37 26.248 258.27 26.116 258.142 26.02C258.014 25.916 257.858 25.844 257.674 25.804C257.498 25.764 257.302 25.744 257.086 25.744C256.614 25.744 256.206 25.848 255.862 26.056C255.526 26.264 255.254 26.536 255.046 26.872V25.456ZM256.822 30.172C257.126 30.172 257.382 30.128 257.59 30.04C257.806 29.952 257.982 29.848 258.118 29.728C258.254 29.6 258.354 29.468 258.418 29.332C258.49 29.196 258.534 29.076 258.55 28.972V28.324H257.158C256.614 28.324 256.218 28.38 255.97 28.492C255.73 28.604 255.61 28.832 255.61 29.176C255.61 29.472 255.71 29.712 255.91 29.896C256.11 30.08 256.414 30.172 256.822 30.172ZM227.504 39.928C227.784 39.7227 228.199 39.5267 228.75 39.34C229.301 39.1533 229.968 39.06 230.752 39.06C231.303 39.06 231.802 39.1113 232.25 39.214C232.698 39.3073 233.081 39.4567 233.398 39.662C233.725 39.858 233.972 40.11 234.14 40.418C234.317 40.726 234.406 41.0947 234.406 41.524C234.406 42.6533 233.827 43.4233 232.67 43.834C234.163 44.058 234.91 44.8233 234.91 46.13C234.91 46.55 234.826 46.9467 234.658 47.32C234.49 47.684 234.238 48.0013 233.902 48.272C233.566 48.5333 233.146 48.7433 232.642 48.902C232.147 49.0607 231.573 49.14 230.92 49.14C230.472 49.14 230.052 49.1027 229.66 49.028C229.277 48.9627 228.927 48.874 228.61 48.762C228.302 48.6407 228.031 48.51 227.798 48.37C227.574 48.2207 227.397 48.0713 227.266 47.922V45.766C227.415 46.018 227.607 46.2513 227.84 46.466C228.073 46.6807 228.344 46.8673 228.652 47.026C228.96 47.1847 229.305 47.3107 229.688 47.404C230.08 47.488 230.5 47.53 230.948 47.53C231.247 47.53 231.527 47.4973 231.788 47.432C232.049 47.3667 232.273 47.2733 232.46 47.152C232.656 47.0213 232.81 46.8627 232.922 46.676C233.034 46.4893 233.09 46.27 233.09 46.018C233.09 45.5793 232.917 45.2573 232.572 45.052C232.236 44.8467 231.685 44.744 230.92 44.744H229.436V43.302H230.906C231.223 43.302 231.489 43.2693 231.704 43.204C231.919 43.1293 232.091 43.0313 232.222 42.91C232.353 42.7887 232.446 42.6487 232.502 42.49C232.567 42.3313 232.6 42.1587 232.6 41.972C232.6 41.748 232.553 41.5567 232.46 41.398C232.367 41.23 232.236 41.0947 232.068 40.992C231.9 40.8893 231.704 40.8147 231.48 40.768C231.256 40.712 231.013 40.6793 230.752 40.67C230.379 40.6607 230.024 40.7027 229.688 40.796C229.361 40.8893 229.058 41.02 228.778 41.188C228.507 41.3467 228.26 41.5287 228.036 41.734C227.821 41.9393 227.644 42.1493 227.504 42.364V39.928ZM238.668 46.522L244.016 39.2H245.92V49H244.17V41.566L238.794 49H236.918V39.2H238.668V46.522ZM255.442 40.81H250.22V49H248.47V39.2H257.192V49H255.442V40.81Z" fill="#404040"/>
<path d="M327.592 30.028C327.488 30.156 327.34 30.284 327.148 30.412C326.956 30.54 326.728 30.656 326.464 30.76C326.208 30.864 325.916 30.948 325.588 31.012C325.268 31.084 324.924 31.12 324.556 31.12C323.884 31.12 323.276 31.02 322.732 30.82C322.196 30.612 321.74 30.324 321.364 29.956C320.988 29.58 320.696 29.124 320.488 28.588C320.288 28.052 320.188 27.452 320.188 26.788C320.188 26.164 320.288 25.592 320.488 25.072C320.688 24.544 320.976 24.088 321.352 23.704C321.736 23.32 322.196 23.02 322.732 22.804C323.276 22.588 323.892 22.48 324.58 22.48C324.924 22.48 325.244 22.508 325.54 22.564C325.836 22.612 326.1 22.68 326.332 22.768C326.572 22.848 326.78 22.94 326.956 23.044C327.132 23.14 327.268 23.236 327.364 23.332V25.024C327.244 24.824 327.092 24.632 326.908 24.448C326.724 24.256 326.512 24.088 326.272 23.944C326.032 23.792 325.768 23.672 325.48 23.584C325.192 23.488 324.892 23.44 324.58 23.44C324.076 23.44 323.62 23.52 323.212 23.68C322.812 23.84 322.472 24.068 322.192 24.364C321.912 24.66 321.696 25.016 321.544 25.432C321.392 25.84 321.316 26.296 321.316 26.8C321.316 27.272 321.384 27.712 321.52 28.12C321.656 28.52 321.856 28.872 322.12 29.176C322.392 29.472 322.728 29.708 323.128 29.884C323.528 30.06 323.988 30.152 324.508 30.16C324.892 30.16 325.244 30.116 325.564 30.028C325.892 29.932 326.184 29.808 326.44 29.656C326.704 29.496 326.932 29.316 327.124 29.116C327.316 28.908 327.472 28.692 327.592 28.468V30.028ZM330.424 27.928L328.336 25H329.56L331.084 27.148L332.608 25H333.772L331.66 27.844L333.916 31H332.692L331.024 28.612L329.356 31H328.192L330.424 27.928ZM337.388 24.88C338.22 24.88 338.868 25.128 339.332 25.624C339.804 26.12 340.04 26.816 340.04 27.712V28.36H335.444C335.492 29.008 335.684 29.488 336.02 29.8C336.356 30.104 336.82 30.256 337.412 30.256C337.988 30.256 338.46 30.156 338.828 29.956C339.196 29.756 339.46 29.512 339.62 29.224V30.388C339.468 30.572 339.208 30.74 338.84 30.892C338.48 31.044 338.004 31.12 337.412 31.12C336.46 31.12 335.724 30.86 335.204 30.34C334.684 29.82 334.424 29.032 334.424 27.976C334.424 27.456 334.5 27.004 334.652 26.62C334.804 26.228 335.012 25.904 335.276 25.648C335.54 25.392 335.852 25.2 336.212 25.072C336.572 24.944 336.964 24.88 337.388 24.88ZM337.388 25.744C336.82 25.744 336.372 25.892 336.044 26.188C335.716 26.484 335.52 26.924 335.456 27.508H339.044V27.496C339.044 26.92 338.888 26.484 338.576 26.188C338.264 25.892 337.868 25.744 337.388 25.744ZM347.033 26.464L344.993 29.464H344.549L342.497 26.464V31H341.501V25H342.581L344.813 28.18L347.009 25H348.029V31H347.033V26.464ZM350.046 25.456C350.246 25.304 350.518 25.172 350.862 25.06C351.214 24.94 351.622 24.88 352.086 24.88C352.47 24.88 352.814 24.916 353.118 24.988C353.422 25.06 353.678 25.18 353.886 25.348C354.102 25.516 354.266 25.74 354.378 26.02C354.49 26.292 354.546 26.632 354.546 27.04V31H353.598V29.98C353.438 30.316 353.178 30.588 352.818 30.796C352.466 30.996 352.05 31.096 351.57 31.096C350.97 31.096 350.49 30.94 350.13 30.628C349.77 30.316 349.59 29.852 349.59 29.236C349.59 28.908 349.646 28.636 349.758 28.42C349.878 28.196 350.046 28.02 350.262 27.892C350.478 27.756 350.742 27.664 351.054 27.616C351.366 27.56 351.722 27.532 352.122 27.532H353.55V27.052C353.55 26.796 353.514 26.584 353.442 26.416C353.37 26.248 353.27 26.116 353.142 26.02C353.014 25.916 352.858 25.844 352.674 25.804C352.498 25.764 352.302 25.744 352.086 25.744C351.614 25.744 351.206 25.848 350.862 26.056C350.526 26.264 350.254 26.536 350.046 26.872V25.456ZM351.822 30.172C352.126 30.172 352.382 30.128 352.59 30.04C352.806 29.952 352.982 29.848 353.118 29.728C353.254 29.6 353.354 29.468 353.418 29.332C353.49 29.196 353.534 29.076 353.55 28.972V28.324H352.158C351.614 28.324 351.218 28.38 350.97 28.492C350.73 28.604 350.61 28.832 350.61 29.176C350.61 29.472 350.71 29.712 350.91 29.896C351.11 30.08 351.414 30.172 351.822 30.172ZM328.137 39.928C328.417 39.7227 328.832 39.5267 329.383 39.34C329.934 39.1533 330.601 39.06 331.385 39.06C331.936 39.06 332.435 39.1113 332.883 39.214C333.331 39.3073 333.714 39.4567 334.031 39.662C334.358 39.858 334.605 40.11 334.773 40.418C334.95 40.726 335.039 41.0947 335.039 41.524C335.039 42.6533 334.46 43.4233 333.303 43.834C334.796 44.058 335.543 44.8233 335.543 46.13C335.543 46.55 335.459 46.9467 335.291 47.32C335.123 47.684 334.871 48.0013 334.535 48.272C334.199 48.5333 333.779 48.7433 333.275 48.902C332.78 49.0607 332.206 49.14 331.553 49.14C331.105 49.14 330.685 49.1027 330.293 49.028C329.91 48.9627 329.56 48.874 329.243 48.762C328.935 48.6407 328.664 48.51 328.431 48.37C328.207 48.2207 328.03 48.0713 327.899 47.922V45.766C328.048 46.018 328.24 46.2513 328.473 46.466C328.706 46.6807 328.977 46.8673 329.285 47.026C329.593 47.1847 329.938 47.3107 330.321 47.404C330.713 47.488 331.133 47.53 331.581 47.53C331.88 47.53 332.16 47.4973 332.421 47.432C332.682 47.3667 332.906 47.2733 333.093 47.152C333.289 47.0213 333.443 46.8627 333.555 46.676C333.667 46.4893 333.723 46.27 333.723 46.018C333.723 45.5793 333.55 45.2573 333.205 45.052C332.869 44.8467 332.318 44.744 331.553 44.744H330.069V43.302H331.539C331.856 43.302 332.122 43.2693 332.337 43.204C332.552 43.1293 332.724 43.0313 332.855 42.91C332.986 42.7887 333.079 42.6487 333.135 42.49C333.2 42.3313 333.233 42.1587 333.233 41.972C333.233 41.748 333.186 41.5567 333.093 41.398C333 41.23 332.869 41.0947 332.701 40.992C332.533 40.8893 332.337 40.8147 332.113 40.768C331.889 40.712 331.646 40.6793 331.385 40.67C331.012 40.6607 330.657 40.7027 330.321 40.796C329.994 40.8893 329.691 41.02 329.411 41.188C329.14 41.3467 328.893 41.5287 328.669 41.734C328.454 41.9393 328.277 42.1493 328.137 42.364V39.928ZM339.3 46.522L344.648 39.2H346.552V49H344.802V41.566L339.426 49H337.55V39.2H339.3V46.522Z" fill="#404040"/>
<path d="M422.592 30.028C422.488 30.156 422.34 30.284 422.148 30.412C421.956 30.54 421.728 30.656 421.464 30.76C421.208 30.864 420.916 30.948 420.588 31.012C420.268 31.084 419.924 31.12 419.556 31.12C418.884 31.12 418.276 31.02 417.732 30.82C417.196 30.612 416.74 30.324 416.364 29.956C415.988 29.58 415.696 29.124 415.488 28.588C415.288 28.052 415.188 27.452 415.188 26.788C415.188 26.164 415.288 25.592 415.488 25.072C415.688 24.544 415.976 24.088 416.352 23.704C416.736 23.32 417.196 23.02 417.732 22.804C418.276 22.588 418.892 22.48 419.58 22.48C419.924 22.48 420.244 22.508 420.54 22.564C420.836 22.612 421.1 22.68 421.332 22.768C421.572 22.848 421.78 22.94 421.956 23.044C422.132 23.14 422.268 23.236 422.364 23.332V25.024C422.244 24.824 422.092 24.632 421.908 24.448C421.724 24.256 421.512 24.088 421.272 23.944C421.032 23.792 420.768 23.672 420.48 23.584C420.192 23.488 419.892 23.44 419.58 23.44C419.076 23.44 418.62 23.52 418.212 23.68C417.812 23.84 417.472 24.068 417.192 24.364C416.912 24.66 416.696 25.016 416.544 25.432C416.392 25.84 416.316 26.296 416.316 26.8C416.316 27.272 416.384 27.712 416.52 28.12C416.656 28.52 416.856 28.872 417.12 29.176C417.392 29.472 417.728 29.708 418.128 29.884C418.528 30.06 418.988 30.152 419.508 30.16C419.892 30.16 420.244 30.116 420.564 30.028C420.892 29.932 421.184 29.808 421.44 29.656C421.704 29.496 421.932 29.316 422.124 29.116C422.316 28.908 422.472 28.692 422.592 28.468V30.028ZM425.424 27.928L423.336 25H424.56L426.084 27.148L427.608 25H428.772L426.66 27.844L428.916 31H427.692L426.024 28.612L424.356 31H423.192L425.424 27.928ZM432.388 24.88C433.22 24.88 433.868 25.128 434.332 25.624C434.804 26.12 435.04 26.816 435.04 27.712V28.36H430.444C430.492 29.008 430.684 29.488 431.02 29.8C431.356 30.104 431.82 30.256 432.412 30.256C432.988 30.256 433.46 30.156 433.828 29.956C434.196 29.756 434.46 29.512 434.62 29.224V30.388C434.468 30.572 434.208 30.74 433.84 30.892C433.48 31.044 433.004 31.12 432.412 31.12C431.46 31.12 430.724 30.86 430.204 30.34C429.684 29.82 429.424 29.032 429.424 27.976C429.424 27.456 429.5 27.004 429.652 26.62C429.804 26.228 430.012 25.904 430.276 25.648C430.54 25.392 430.852 25.2 431.212 25.072C431.572 24.944 431.964 24.88 432.388 24.88ZM432.388 25.744C431.82 25.744 431.372 25.892 431.044 26.188C430.716 26.484 430.52 26.924 430.456 27.508H434.044V27.496C434.044 26.92 433.888 26.484 433.576 26.188C433.264 25.892 432.868 25.744 432.388 25.744ZM442.033 26.464L439.993 29.464H439.549L437.497 26.464V31H436.501V25H437.581L439.813 28.18L442.009 25H443.029V31H442.033V26.464ZM445.046 25.456C445.246 25.304 445.518 25.172 445.862 25.06C446.214 24.94 446.622 24.88 447.086 24.88C447.47 24.88 447.814 24.916 448.118 24.988C448.422 25.06 448.678 25.18 448.886 25.348C449.102 25.516 449.266 25.74 449.378 26.02C449.49 26.292 449.546 26.632 449.546 27.04V31H448.598V29.98C448.438 30.316 448.178 30.588 447.818 30.796C447.466 30.996 447.05 31.096 446.57 31.096C445.97 31.096 445.49 30.94 445.13 30.628C444.77 30.316 444.59 29.852 444.59 29.236C444.59 28.908 444.646 28.636 444.758 28.42C444.878 28.196 445.046 28.02 445.262 27.892C445.478 27.756 445.742 27.664 446.054 27.616C446.366 27.56 446.722 27.532 447.122 27.532H448.55V27.052C448.55 26.796 448.514 26.584 448.442 26.416C448.37 26.248 448.27 26.116 448.142 26.02C448.014 25.916 447.858 25.844 447.674 25.804C447.498 25.764 447.302 25.744 447.086 25.744C446.614 25.744 446.206 25.848 445.862 26.056C445.526 26.264 445.254 26.536 445.046 26.872V25.456ZM446.822 30.172C447.126 30.172 447.382 30.128 447.59 30.04C447.806 29.952 447.982 29.848 448.118 29.728C448.254 29.6 448.354 29.468 448.418 29.332C448.49 29.196 448.534 29.076 448.55 28.972V28.324H447.158C446.614 28.324 446.218 28.38 445.97 28.492C445.73 28.604 445.61 28.832 445.61 29.176C445.61 29.472 445.71 29.712 445.91 29.896C446.11 30.08 446.414 30.172 446.822 30.172ZM423.28 39.928C423.56 39.7227 423.976 39.5267 424.526 39.34C425.077 39.1533 425.744 39.06 426.528 39.06C427.079 39.06 427.578 39.1113 428.026 39.214C428.474 39.3073 428.857 39.4567 429.174 39.662C429.501 39.858 429.748 40.11 429.916 40.418C430.094 40.726 430.182 41.0947 430.182 41.524C430.182 42.6533 429.604 43.4233 428.446 43.834C429.94 44.058 430.686 44.8233 430.686 46.13C430.686 46.55 430.602 46.9467 430.434 47.32C430.266 47.684 430.014 48.0013 429.678 48.272C429.342 48.5333 428.922 48.7433 428.418 48.902C427.924 49.0607 427.35 49.14 426.696 49.14C426.248 49.14 425.828 49.1027 425.436 49.028C425.054 48.9627 424.704 48.874 424.386 48.762C424.078 48.6407 423.808 48.51 423.574 48.37C423.35 48.2207 423.173 48.0713 423.042 47.922V45.766C423.192 46.018 423.383 46.2513 423.616 46.466C423.85 46.6807 424.12 46.8673 424.428 47.026C424.736 47.1847 425.082 47.3107 425.464 47.404C425.856 47.488 426.276 47.53 426.724 47.53C427.023 47.53 427.303 47.4973 427.564 47.432C427.826 47.3667 428.05 47.2733 428.236 47.152C428.432 47.0213 428.586 46.8627 428.698 46.676C428.81 46.4893 428.866 46.27 428.866 46.018C428.866 45.5793 428.694 45.2573 428.348 45.052C428.012 44.8467 427.462 44.744 426.696 44.744H425.212V43.302H426.682C427 43.302 427.266 43.2693 427.48 43.204C427.695 43.1293 427.868 43.0313 427.998 42.91C428.129 42.7887 428.222 42.6487 428.278 42.49C428.344 42.3313 428.376 42.1587 428.376 41.972C428.376 41.748 428.33 41.5567 428.236 41.398C428.143 41.23 428.012 41.0947 427.844 40.992C427.676 40.8893 427.48 40.8147 427.256 40.768C427.032 40.712 426.79 40.6793 426.528 40.67C426.155 40.6607 425.8 40.7027 425.464 40.796C425.138 40.8893 424.834 41.02 424.554 41.188C424.284 41.3467 424.036 41.5287 423.812 41.734C423.598 41.9393 423.42 42.1493 423.28 42.364V39.928ZM439.666 40.81H434.444V49H432.694V39.2H441.416V49H439.666V40.81Z" fill="#404040"/>
</svg>
