<svg width="45" height="50" viewBox="0 0 45 50" fill="none" xmlns="http://www.w3.org/2000/svg">
<g clip-path="url(#clip0)">
<path d="M12.7499 27H6.75V28.5H12.7499V27Z" fill="#7BBEFD"/>
<path d="M44.9205 35.6644L42.6705 31.1645C42.5435 30.9104 42.2837 30.75 41.9996 30.75H37.4997V28.5C37.4997 28.0858 37.1639 27.75 36.7497 27.75H21.75C21.3358 27.75 21 28.0858 21 28.5V41.9998C21 42.414 21.3358 42.7498 21.75 42.7498H24.8564C25.2626 44.3478 26.8873 45.314 28.4852 44.9078C29.5457 44.6383 30.3738 43.8102 30.6433 42.7498H36.1062C36.5124 44.3478 38.1371 45.314 39.7351 44.9078C40.7955 44.6383 41.6236 43.8102 41.8931 42.7498H44.2496C44.6638 42.7498 44.9996 42.414 44.9996 41.9998V35.9999C44.9996 35.8834 44.9725 35.7686 44.9205 35.6644ZM27.7499 43.4997C26.9214 43.4997 26.2499 42.8282 26.2499 41.9998C26.2499 41.1713 26.9214 40.4998 27.7499 40.4998C28.5783 40.4998 29.2499 41.1713 29.2499 41.9998C29.249 42.8279 28.578 43.4989 27.7499 43.4997ZM35.9997 41.2498H30.6433C30.3033 39.9287 29.114 39.0039 27.7499 38.9998C26.3858 39.0039 25.1965 39.9287 24.8564 41.2498H22.5V29.25H35.9997V41.2498ZM40.4997 32.2499H41.5361L43.0361 35.2499H40.4997V32.2499ZM38.9997 43.4997C38.1712 43.4997 37.4997 42.8282 37.4997 41.9998C37.4997 41.1713 38.1712 40.4998 38.9997 40.4998C39.8282 40.4998 40.4997 41.1713 40.4997 41.9998C40.4988 42.8279 39.8278 43.4989 38.9997 43.4997ZM43.4996 41.2498H41.8931C41.5531 39.9287 40.3638 39.0039 38.9997 38.9998C38.4714 39.0028 37.9537 39.1469 37.4997 39.4172V32.2499H38.9997V35.9999C38.9997 36.414 39.3355 36.7499 39.7497 36.7499H43.4996V41.2498Z" fill="#7BBEFD"/>
<path d="M17.9992 10.5H16.5V12H17.9992V10.5Z" fill="#7BBEFD"/>
<path d="M20.9992 10.5H19.5V12H20.9992V10.5Z" fill="#7BBEFD"/>
<path d="M23.9992 10.5H22.5V12H23.9992V10.5Z" fill="#7BBEFD"/>
<path d="M26.9992 10.5H25.5V12H26.9992V10.5Z" fill="#7BBEFD"/>
<path d="M41.3146 12.5271L38.991 10.2032C37.2635 8.47786 34.9236 7.50606 32.4821 7.49988H26.6654L23.1358 1.85266C22.9987 1.63338 22.7584 1.50007 22.4998 1.49998H20.2498C19.8354 1.50016 19.4996 1.83625 19.4998 2.25071C19.4998 2.31184 19.5073 2.37268 19.5221 2.43202L20.7891 7.49988H14.808L12.7184 0.534647C12.6233 0.217309 12.3311 0 11.9999 0H8.24999C7.83581 0 7.5 0.335807 7.5 0.749988V8.24986H7.50703C7.50459 8.44786 7.58109 8.63873 7.71975 8.7801L12.4072 13.4675C14.3411 15.4141 16.9734 16.5059 19.7173 16.4997H19.9216L18.058 20.6953C17.89 21.0738 18.0605 21.517 18.4389 21.6851C18.461 21.6949 18.4834 21.7036 18.5063 21.7112L20.7547 22.4612C21.0697 22.5661 21.4161 22.4515 21.6065 22.1796L25.5799 16.4997H39.6671C40.9518 16.5021 41.9951 15.4626 41.9976 14.1779C41.9987 13.5587 41.7529 12.9646 41.3146 12.5271ZM22.0841 2.99995L24.8965 7.49988H22.3354L21.2103 2.99995H22.0841ZM8.99998 1.49998H11.4418L13.2418 7.49988H8.99998V1.49998ZM20.6984 20.8612L19.7642 20.5496L22.2291 14.9998H24.7987L20.6984 20.8612ZM40.4365 14.4856C40.3115 14.8001 40.0053 15.0046 39.6671 14.9998H26.6293L26.8531 14.6797C27.0905 14.3402 27.0077 13.8725 26.6683 13.6351C26.5423 13.5471 26.3924 13.4998 26.2386 13.4998H21.7416C21.4451 13.4998 21.1764 13.6744 21.0561 13.9455L20.5878 14.9998H19.7173C17.3714 15.0049 15.121 14.0713 13.4677 12.407L10.0605 8.99985H32.4821C34.1172 9.00688 35.7081 9.53206 37.0261 10.4998H31.4996V11.9998H38.6658L40.2559 13.5899C40.4961 13.8221 40.568 14.1785 40.4365 14.4856Z" fill="#7BBEFD"/>
<path d="M18.3846 42.9485C17.9124 42.4414 17.279 42.1136 16.5923 42.0208L19.4562 34.0021C19.5953 33.6114 19.3914 33.182 19.0007 33.0429C18.9962 33.0413 18.9916 33.0397 18.987 33.0382L17.1582 32.4286L15.7377 24.6159C15.6729 24.2592 15.3623 24 14.9998 24H11.9999V21.75C11.9999 21.3358 11.6641 21 11.2499 21H8.24994C7.83576 21 7.49996 21.3358 7.49996 21.75V24H4.50001C4.13748 24 3.82689 24.2593 3.76211 24.6159L2.34164 32.4286L0.512791 33.0382C0.119517 33.1698 -0.0925424 33.5952 0.0389867 33.9884C0.0404867 33.993 0.0420804 33.9975 0.0436741 34.0021L2.9075 42.0211C2.22192 42.1145 1.58968 42.4421 1.11812 42.9485C0.846723 43.2903 0.43648 43.4926 8.10872e-05 43.4996V44.9996C0.812786 44.9952 1.58668 44.6513 2.13473 44.0512C2.40613 43.7091 2.81657 43.5067 3.25315 43.4996C3.41159 43.4983 3.5688 43.5277 3.71618 43.586C3.72246 43.5888 3.72649 43.5948 3.73286 43.5974C3.96808 43.7146 4.18164 43.8709 4.36454 44.0596C4.91822 44.6546 5.69296 44.9947 6.50575 44.9996C7.31827 44.9951 8.09198 44.651 8.63966 44.0508C9.11149 43.4345 9.99357 43.3173 10.6099 43.789C10.7081 43.8642 10.7961 43.9522 10.8713 44.0504C11.4185 44.6509 12.1918 44.995 13.0041 44.9996C13.8164 44.9947 14.5906 44.6544 15.1435 44.0592C15.3248 43.8719 15.5364 43.7164 15.7693 43.5993C15.7761 43.5965 15.7804 43.5901 15.7869 43.5871C15.9347 43.528 16.0925 43.4984 16.2516 43.4997C16.6871 43.5068 17.0965 43.7091 17.3667 44.0509C17.9141 44.651 18.6875 44.995 19.4998 44.9997V43.4997C19.0642 43.4926 18.6548 43.2903 18.3846 42.9485ZM8.99993 22.5H10.4999V24H8.99993V22.5ZM8.99993 42.0974C8.47588 42.2595 8.00179 42.5524 7.6223 42.9485C7.14924 43.5654 6.26557 43.6821 5.64861 43.209C5.55074 43.134 5.46318 43.0464 5.38808 42.9485C5.15531 42.721 4.89722 42.521 4.61888 42.3523L1.7139 34.2189L8.99993 31.7904V42.0974ZM9.51264 30.0383L3.96451 31.8877L5.12587 25.4999H14.374L15.5353 31.8877L9.9872 30.0383C9.83317 29.987 9.66667 29.987 9.51264 30.0383ZM14.8795 42.3572C14.6044 42.5251 14.3492 42.7236 14.1188 42.9489C13.6479 43.5645 12.767 43.6818 12.1514 43.2109C12.0528 43.1355 11.9647 43.0474 11.8894 42.9489C11.5076 42.5487 11.029 42.254 10.5 42.0932V31.7904L17.786 34.2189L14.8795 42.3572Z" fill="#7BBEFD"/>
<path d="M29.9992 10.5H28.5V12H29.9992V10.5Z" fill="#7BBEFD"/>
</g>
<defs>
<clipPath id="clip0">
<rect width="45" height="45" fill="white"/>
</clipPath>
</defs>
</svg>
