<svg width="600" height="100" viewBox="0 0 600 100" fill="none" xmlns="http://www.w3.org/2000/svg">
<circle cx="50" cy="50" r="50" fill="#7BBEFD"/>
<path d="M67.8232 45.2546C67.3983 38.8626 58.6925 37.5196 58.6925 37.5196C56.4687 37.1364 55.5624 35.2944 55.2034 34.1018C56.9128 32.2545 58.109 29.8672 58.7702 27.5408C59.0222 26.6541 59.1579 25.7285 59.1579 24.8082C59.1579 24.2846 59.1036 23.7743 59.0114 23.2764C60.1211 21.4817 59.7942 19.4805 59.531 18.5189C59.4511 18.2269 59.1489 18.0827 58.8382 18.0827C58.8048 18.0827 58.7715 18.0844 58.7382 18.0876C58.6197 18.0994 58.4947 18.1049 58.3638 18.1049C56.3764 18.1049 53.0899 16.831 53.0899 16.831C52.0873 16.4147 50.8525 16.1699 49.7717 16.0493C48.826 15.9437 47.8695 16.0011 46.9615 16.2872C45.6995 16.6847 44.5377 17.4675 43.5964 18.363C43.4038 18.5463 43.2391 18.7372 43.0867 18.9516C41.0836 19.5984 40.7447 22.0878 40.8636 24.2675C40.8522 24.4466 40.8421 24.6262 40.8421 24.8082C40.8421 28.0846 42.2848 31.8426 44.5329 34.3189C44.5986 34.3914 44.6669 34.4607 44.7352 34.5302C44.2973 35.6943 43.3615 37.1801 41.3911 37.5196C41.3911 37.5196 32.685 38.8626 32.2603 45.2546C32.2603 45.2546 31.7358 48.5953 32.1758 52.5796C32.3236 53.9184 33.6148 55 35.0177 55H65.066C66.4688 55 67.7282 53.9147 67.8562 52.5741C68.1979 49.0037 67.8232 45.2546 67.8232 45.2546ZM55.3066 37.1853L55.769 37.6784L55.8802 37.7968L56.019 37.8835L56.4253 38.1375L53.3073 42.4389L52.0852 40.5025L52.0352 40.4234L51.9734 40.3524C51.8766 40.2413 51.8691 40.0217 51.9484 39.8893L55.3066 37.1853ZM50.7913 42.2028H49.2699L48.8127 41.4233L48.9938 41.1364C49.1122 41.0004 49.1993 40.8444 49.2616 40.6794H50.7385C50.8007 40.8444 50.8878 41.0004 51.0063 41.1364L51.212 41.4624L50.7913 42.2028ZM51.8918 49.9245C51.9102 49.9924 51.8551 50.1579 51.7834 50.2106L50.2737 51.3192C50.2299 51.3513 50.1035 51.3515 50.0597 51.319L48.5501 50.2108C48.4698 50.1518 48.4059 49.9724 48.4248 49.8894L49.8131 43.4216H50.2165L51.8918 49.9245ZM51.0362 39.0363C50.9205 39.1621 50.834 39.3073 50.768 39.4607H49.232C49.166 39.3073 49.0795 39.1621 48.9638 39.0363L45.356 36.1316C45.5062 35.8818 45.6339 35.6311 45.7433 35.3862C46.9686 36.2494 48.4237 36.7183 49.8765 36.7183C51.2846 36.7183 52.6893 36.2794 53.8786 35.3361C53.9893 35.2481 54.0966 35.1559 54.2041 35.0637C54.3332 35.3925 54.4971 35.7398 54.7011 36.0856L51.0362 39.0363ZM43.4876 20.1072C43.7484 20.023 43.9735 19.8591 44.1289 19.6402C44.1462 19.616 45.8864 17.2182 49.2224 17.2179H49.2229C50.287 17.2179 51.42 17.4644 52.5906 17.9506C52.6 17.9545 52.6094 17.9583 52.619 17.9621C52.9786 18.1013 56.1949 19.3236 58.3638 19.3236C58.3843 19.3236 58.4046 19.3236 58.4248 19.3233C58.7382 20.9469 58.5558 23.3988 55.2315 24.6832C55.2162 24.689 53.6774 25.2613 51.786 25.2613C49.9107 25.2613 48.3648 24.7107 47.1911 23.6247C46.9519 23.4034 46.6372 23.2856 46.3166 23.2856C46.1748 23.2856 46.0318 23.3087 45.8937 23.356C45.4433 23.5106 45.1219 23.8969 45.0632 24.3545L44.9823 24.9859L44.5823 24.7143C44.3636 24.5657 44.1092 24.492 43.8552 24.492C43.5725 24.492 43.2903 24.5834 43.0591 24.7644C42.8126 24.9575 42.5245 25.2484 42.2606 25.6218C41.9425 23.3704 41.9875 20.5918 43.4876 20.1072ZM42.7674 28.684C42.4206 26.8397 43.8551 25.7108 43.8551 25.7108L45.5549 26.8655C45.6497 26.939 45.7383 26.9741 45.8132 26.9741C45.9512 26.9741 46.0429 26.8551 46.0429 26.6382L46.3168 24.5045C47.9888 26.0515 50.0332 26.4801 51.786 26.4801C53.9659 26.4801 55.6948 25.817 55.6948 25.817C56.605 25.4654 57.3219 25.038 57.8844 24.5667C57.8876 24.6472 57.8947 24.7272 57.8947 24.8082C57.8947 25.6074 57.7794 26.4183 57.5521 27.2184C56.7065 30.1936 55.0751 32.8093 53.0765 34.3946C52.1651 35.1175 51.0586 35.4996 49.8765 35.4996C48.2289 35.4996 46.6276 34.7765 45.4831 33.5158C44.3061 32.2194 43.3561 30.491 42.7674 28.684ZM43.9811 37.8835L44.1198 37.7968L44.231 37.6784L44.6934 37.1853L48.0516 39.8893C48.1309 40.0217 48.1235 40.2413 48.0267 40.3524L47.9648 40.4234L47.9149 40.5025L46.6927 42.4389L43.5748 38.1375L43.9811 37.8835ZM66.5983 52.4624C66.5314 53.1649 65.8152 53.7812 65.066 53.7812H35.0177C34.2511 53.7812 33.5101 53.1594 33.4319 52.4505C33.0159 48.6835 33.5044 45.4684 33.5093 45.4372L33.5175 45.3851L33.5209 45.3326C33.8752 39.9997 41.5153 38.7351 41.5904 38.7232L41.6019 38.7215L41.6133 38.7195C41.8663 38.6759 42.1024 38.615 42.3292 38.5456L45.8809 43.4455C46.0665 43.8321 46.3606 44.031 46.673 44.031C46.9229 44.031 47.1846 43.9036 47.4117 43.6428L48.0604 42.6151L48.5259 43.4088L47.1892 49.636C47.0651 50.186 47.3155 50.8355 47.7849 51.1806L49.2946 52.289C49.5433 52.4717 49.8549 52.563 50.1667 52.563C50.4785 52.563 50.7902 52.4716 51.0387 52.289L52.5487 51.1803C53.0183 50.8351 53.2615 50.1632 53.116 49.6239L51.5182 43.4216H51.5395L51.9702 42.6634L52.5883 43.6428C52.8154 43.9036 53.0771 44.031 53.327 44.031C53.6394 44.031 53.9335 43.8321 54.1191 43.4455L57.6855 38.5252C57.9325 38.6043 58.192 38.6716 58.4703 38.7195L58.4817 38.7214L58.4931 38.7232C58.5703 38.7351 66.2064 39.9744 66.5627 45.3326L66.5639 45.3522L66.566 45.3716C66.5695 45.408 66.9254 49.0457 66.5983 52.4624Z" fill="white"/>
<path d="M23.9296 63.224C24.1696 63.048 24.5256 62.88 24.9976 62.72C25.4696 62.56 26.0416 62.48 26.7136 62.48C27.1856 62.48 27.6136 62.524 27.9976 62.612C28.3816 62.692 28.7096 62.82 28.9816 62.996C29.2616 63.164 29.4736 63.38 29.6176 63.644C29.7696 63.908 29.8456 64.224 29.8456 64.592C29.8456 65.56 29.3496 66.22 28.3576 66.572C29.6376 66.764 30.2776 67.42 30.2776 68.54C30.2776 68.9 30.2056 69.24 30.0616 69.56C29.9176 69.872 29.7016 70.144 29.4136 70.376C29.1256 70.6 28.7656 70.78 28.3336 70.916C27.9096 71.052 27.4176 71.12 26.8576 71.12C26.4736 71.12 26.1136 71.088 25.7776 71.024C25.4496 70.968 25.1496 70.892 24.8776 70.796C24.6136 70.692 24.3816 70.58 24.1816 70.46C23.9896 70.332 23.8376 70.204 23.7256 70.076V68.228C23.8536 68.444 24.0176 68.644 24.2176 68.828C24.4176 69.012 24.6496 69.172 24.9136 69.308C25.1776 69.444 25.4736 69.552 25.8016 69.632C26.1376 69.704 26.4976 69.74 26.8816 69.74C27.1376 69.74 27.3776 69.712 27.6016 69.656C27.8256 69.6 28.0176 69.52 28.1776 69.416C28.3456 69.304 28.4776 69.168 28.5736 69.008C28.6696 68.848 28.7176 68.66 28.7176 68.444C28.7176 68.068 28.5696 67.792 28.2736 67.616C27.9856 67.44 27.5136 67.352 26.8576 67.352H25.5856V66.116H26.8456C27.1176 66.116 27.3456 66.088 27.5296 66.032C27.7136 65.968 27.8616 65.884 27.9736 65.78C28.0856 65.676 28.1656 65.556 28.2136 65.42C28.2696 65.284 28.2976 65.136 28.2976 64.976C28.2976 64.784 28.2576 64.62 28.1776 64.484C28.0976 64.34 27.9856 64.224 27.8416 64.136C27.6976 64.048 27.5296 63.984 27.3376 63.944C27.1456 63.896 26.9376 63.868 26.7136 63.86C26.3936 63.852 26.0896 63.888 25.8016 63.968C25.5216 64.048 25.2616 64.16 25.0216 64.304C24.7896 64.44 24.5776 64.596 24.3856 64.772C24.2016 64.948 24.0496 65.128 23.9296 65.312V63.224ZM31.9023 65.42C32.1023 65.268 32.3783 65.14 32.7303 65.036C33.0903 64.932 33.5303 64.88 34.0503 64.88C34.9303 64.88 35.5863 65.044 36.0183 65.372C36.4503 65.7 36.6663 66.256 36.6663 67.04V71H35.3463V69.92C35.2023 70.272 34.9543 70.556 34.6023 70.772C34.2583 70.988 33.8463 71.096 33.3663 71.096C32.7583 71.096 32.2823 70.936 31.9383 70.616C31.6023 70.288 31.4343 69.828 31.4343 69.236C31.4343 68.892 31.4943 68.608 31.6143 68.384C31.7343 68.16 31.9023 67.984 32.1183 67.856C32.3343 67.72 32.5943 67.624 32.8983 67.568C33.2023 67.512 33.5383 67.484 33.9062 67.484H35.2623V67.22C35.2623 66.796 35.1583 66.504 34.9503 66.344C34.7503 66.184 34.4503 66.104 34.0503 66.104C33.4983 66.104 33.0543 66.204 32.7183 66.404C32.3823 66.596 32.1103 66.852 31.9023 67.172V65.42ZM33.8103 69.836C34.0503 69.836 34.2543 69.808 34.4223 69.752C34.5983 69.688 34.7463 69.612 34.8663 69.524C34.9863 69.428 35.0783 69.324 35.1423 69.212C35.2063 69.1 35.2463 68.992 35.2623 68.888V68.396H34.0742C33.6583 68.396 33.3503 68.444 33.1503 68.54C32.9503 68.636 32.8503 68.82 32.8503 69.092C32.8503 69.324 32.9303 69.508 33.0903 69.644C33.2583 69.772 33.4983 69.836 33.8103 69.836ZM38.2856 65H39.6896V67.34H40.6616L42.3416 65H43.9016L41.8016 67.832L44.2376 71H42.5336L40.6496 68.516H39.6896V71H38.2856V65ZM45.3554 65.42C45.5554 65.268 45.8314 65.14 46.1834 65.036C46.5434 64.932 46.9834 64.88 47.5034 64.88C48.3834 64.88 49.0394 65.044 49.4714 65.372C49.9034 65.7 50.1194 66.256 50.1194 67.04V71H48.7994V69.92C48.6554 70.272 48.4074 70.556 48.0554 70.772C47.7114 70.988 47.2994 71.096 46.8194 71.096C46.2114 71.096 45.7354 70.936 45.3914 70.616C45.0554 70.288 44.8874 69.828 44.8874 69.236C44.8874 68.892 44.9474 68.608 45.0674 68.384C45.1874 68.16 45.3554 67.984 45.5714 67.856C45.7874 67.72 46.0474 67.624 46.3514 67.568C46.6554 67.512 46.9914 67.484 47.3594 67.484H48.7154V67.22C48.7154 66.796 48.6114 66.504 48.4034 66.344C48.2034 66.184 47.9034 66.104 47.5034 66.104C46.9514 66.104 46.5074 66.204 46.1714 66.404C45.8354 66.596 45.5634 66.852 45.3554 67.172V65.42ZM47.2634 69.836C47.5034 69.836 47.7074 69.808 47.8754 69.752C48.0514 69.688 48.1994 69.612 48.3194 69.524C48.4394 69.428 48.5314 69.324 48.5954 69.212C48.6594 69.1 48.6994 68.992 48.7154 68.888V68.396H47.5274C47.1114 68.396 46.8034 68.444 46.6034 68.54C46.4034 68.636 46.3034 68.82 46.3034 69.092C46.3034 69.324 46.3834 69.508 46.5434 69.644C46.7114 69.772 46.9514 69.836 47.2634 69.836ZM51.4387 68.948C51.6147 69.212 51.8947 69.436 52.2787 69.62C52.6627 69.804 53.1387 69.896 53.7067 69.896C54.1067 69.896 54.4227 69.836 54.6547 69.716C54.8867 69.596 55.0027 69.408 55.0027 69.152C55.0027 68.92 54.9107 68.752 54.7267 68.648C54.5427 68.544 54.2467 68.492 53.8387 68.492H52.8067V67.472H53.6587C53.9867 67.472 54.2467 67.42 54.4387 67.316C54.6387 67.204 54.7387 67.02 54.7387 66.764C54.7387 66.556 54.6627 66.396 54.5107 66.284C54.3667 66.172 54.1107 66.112 53.7427 66.104C53.2387 66.104 52.8027 66.204 52.4347 66.404C52.0747 66.596 51.7787 66.852 51.5467 67.172V65.42C51.7787 65.268 52.0867 65.14 52.4707 65.036C52.8547 64.932 53.2787 64.88 53.7427 64.88H53.7907C54.6227 64.88 55.2267 65.024 55.6027 65.312C55.9787 65.592 56.1667 65.968 56.1667 66.44C56.1667 66.824 56.0747 67.12 55.8907 67.328C55.7147 67.536 55.4747 67.704 55.1707 67.832C55.5787 67.912 55.8867 68.06 56.0947 68.276C56.3107 68.484 56.4187 68.792 56.4187 69.2C56.4187 69.512 56.3507 69.788 56.2147 70.028C56.0867 70.268 55.9027 70.472 55.6627 70.64C55.4307 70.8 55.1467 70.92 54.8107 71C54.4827 71.08 54.1147 71.12 53.7067 71.12C53.4427 71.12 53.1907 71.096 52.9507 71.048C52.7107 71.008 52.4907 70.952 52.2907 70.88C52.0907 70.808 51.9147 70.732 51.7627 70.652C51.6187 70.564 51.5107 70.476 51.4387 70.388V68.948ZM61.3513 68.888C61.1433 69.008 60.9033 69.096 60.6313 69.152C60.3593 69.208 60.0833 69.236 59.8033 69.236C59.0833 69.236 58.5193 69.068 58.1113 68.732C57.7033 68.396 57.4993 67.868 57.4993 67.148V65H58.9033V66.932C58.9033 67.292 58.9993 67.56 59.1913 67.736C59.3913 67.904 59.6793 67.988 60.0553 67.988C60.5513 67.988 60.9833 67.896 61.3513 67.712V65H62.7553V71H61.3513V68.888ZM64.4656 65H65.8576V69.068L68.7376 65H70.0696V71H68.6776V66.884L65.7976 71H64.4656V65ZM71.7778 65H73.1818V67.34H74.1538L75.8338 65H77.3938L75.2938 67.832L77.7298 71H76.0258L74.1418 68.516H73.1818V71H71.7778V65Z" fill="white"/>
<circle cx="300" cy="50" r="50" fill="#F3B36A"/>
<path d="M301.3 43.4065C301.218 43.4525 299.298 44.5553 297.935 45.6221C297.607 45.8767 297.536 46.3668 297.772 46.7164C297.914 46.9274 298.137 47.041 298.361 47.041C298.51 47.041 298.66 46.9919 298.788 46.8909C300.07 45.8922 301.966 44.8039 301.982 44.7914C302.338 44.5893 302.472 44.1142 302.284 43.7311C302.094 43.345 301.65 43.207 301.3 43.4065ZM291.353 25.5034C291.123 25.7365 285.697 31.3354 286.935 43.6821C286.978 44.0832 287.294 44.3808 287.661 44.3808C287.686 44.3808 287.712 44.3808 287.74 44.3773C288.139 44.3288 288.429 43.9422 288.387 43.5101C287.228 31.9996 292.298 26.7007 292.349 26.6487C292.642 26.3517 292.657 25.855 292.38 25.5394C292.105 25.2214 291.65 25.2094 291.353 25.5034ZM320.885 34.6018C320.569 33.655 319.707 33.1494 319.178 32.9193C315.12 16.8212 305.701 16 303.842 16L303.634 16.0065C294.043 16.0065 289.062 22.5582 288.908 22.7727C283.061 29.0674 282.754 39.9952 282.742 41.6961C281.24 44.6383 279.528 46.8629 279.483 46.9274C279.013 47.6236 278.882 48.3953 279.107 49.1675C279.833 51.6741 284.302 53.4271 284.789 53.6111C287.024 54.5339 289.102 55 290.966 55C294.24 55 295.777 53.5471 295.757 53.5471C302.003 49.4096 307.776 44.8129 307.748 44.8129C315.118 41.203 319.684 38.4112 320.407 37.0844C321.121 35.9961 321.062 35.1349 320.885 34.6018ZM319.152 36.2907C319.106 36.3642 317.913 38.1107 307.01 43.468C306.954 43.5141 301.212 48.0927 294.889 52.2973C294.878 52.3063 293.657 53.4306 290.966 53.4306C289.281 53.4306 287.377 52.999 285.293 52.1373C283.645 51.5151 280.884 50.0322 280.496 48.6989C280.439 48.5023 280.408 48.2268 280.633 47.8897C280.692 47.8132 281.834 46.3178 283.095 44.1387C283.189 44.8834 283.283 45.3185 283.292 45.3615C283.317 45.4751 283.365 45.5821 283.434 45.6711C285.74 48.7329 291.527 49.4436 291.772 49.4711C291.8 49.4771 291.826 49.4771 291.851 49.4771C292.073 49.4771 292.284 49.3671 292.424 49.177C292.58 48.9655 292.623 48.6804 292.537 48.4263C291.311 44.7669 292.526 41.0224 292.537 40.9824C292.671 40.5748 292.475 40.1277 292.096 39.9802C291.729 39.8391 291.305 40.0442 291.166 40.4523C291.115 40.6083 290.01 43.9827 290.827 47.7246C289.179 47.3936 286.116 46.5693 284.675 44.8224C284.564 44.2152 284.231 42.0707 284.365 38.9694C284.735 35.0744 285.962 28.1636 289.993 23.818C290.038 23.757 294.735 17.5754 303.634 17.5754C303.648 17.5754 303.828 17.5724 303.842 17.5694C305.53 17.5694 314.138 18.3476 317.868 33.726C317.936 33.9986 318.136 34.2132 318.389 34.2867C318.68 34.3662 319.369 34.6943 319.513 35.1354C319.624 35.466 319.402 35.8981 319.152 36.2907ZM313.86 35.4505C313.777 35.4965 311.858 36.5998 310.495 37.6661C310.167 37.9206 310.096 38.4107 310.333 38.7598C310.475 38.9714 310.697 39.0849 310.922 39.0849C311.07 39.0849 311.221 39.0359 311.349 38.9349C312.63 37.9361 314.526 36.8478 314.543 36.8353C314.899 36.6333 315.033 36.1582 314.845 35.7751C314.654 35.3865 314.21 35.2549 313.86 35.4505Z" fill="white"/>
<path d="M263.826 68.876L268.41 62.6H270.042V71H268.542V64.628L263.934 71H262.326V62.6H263.826V68.876ZM276.765 70.4C276.629 70.568 276.385 70.732 276.033 70.892C275.681 71.052 275.261 71.132 274.773 71.132C274.293 71.132 273.857 71.068 273.465 70.94C273.073 70.804 272.737 70.604 272.457 70.34C272.177 70.076 271.961 69.748 271.809 69.356C271.657 68.964 271.581 68.504 271.581 67.976C271.581 67.464 271.657 67.016 271.809 66.632C271.969 66.24 272.189 65.916 272.469 65.66C272.749 65.396 273.085 65.2 273.477 65.072C273.869 64.936 274.305 64.868 274.785 64.868C275.193 64.876 275.565 64.932 275.901 65.036C276.237 65.14 276.505 65.268 276.705 65.42V67.172C276.497 66.852 276.233 66.596 275.913 66.404C275.601 66.204 275.225 66.1 274.785 66.092C274.209 66.092 273.769 66.244 273.465 66.548C273.161 66.852 273.009 67.308 273.009 67.916V68.096C273.009 68.72 273.165 69.18 273.477 69.476C273.797 69.764 274.241 69.908 274.809 69.908C275.313 69.908 275.725 69.816 276.045 69.632C276.373 69.448 276.613 69.224 276.765 68.96V70.4ZM282.067 66.236H279.451V71H278.047V65H283.471V71H282.067V66.236ZM287.848 71.132C287.376 71.132 286.952 71.068 286.576 70.94C286.2 70.804 285.876 70.604 285.604 70.34C285.332 70.076 285.124 69.748 284.98 69.356C284.836 68.964 284.764 68.504 284.764 67.976C284.764 67.456 284.84 67.004 284.992 66.62C285.144 66.228 285.356 65.904 285.628 65.648C285.9 65.384 286.228 65.188 286.612 65.06C286.996 64.932 287.424 64.868 287.896 64.868C288.36 64.868 288.78 64.936 289.156 65.072C289.54 65.208 289.864 65.408 290.128 65.672C290.4 65.936 290.608 66.264 290.752 66.656C290.896 67.048 290.968 67.504 290.968 68.024C290.968 68.544 290.892 69 290.74 69.392C290.588 69.776 290.376 70.096 290.104 70.352C289.832 70.608 289.504 70.804 289.12 70.94C288.736 71.068 288.312 71.132 287.848 71.132ZM286.192 68.012C286.192 68.676 286.34 69.16 286.636 69.464C286.932 69.76 287.344 69.908 287.872 69.908C288.408 69.908 288.82 69.756 289.108 69.452C289.396 69.14 289.54 68.664 289.54 68.024V67.988C289.54 67.324 289.388 66.844 289.084 66.548C288.788 66.244 288.376 66.092 287.848 66.092C287.312 66.1 286.9 66.26 286.612 66.572C286.332 66.876 286.192 67.344 286.192 67.976V68.012ZM296.115 66.236H294.171L294.135 66.992C294.095 67.928 294.011 68.668 293.883 69.212C293.763 69.756 293.611 70.168 293.427 70.448C293.243 70.72 293.039 70.892 292.815 70.964C292.591 71.036 292.363 71.072 292.131 71.072C292.019 71.072 291.907 71.064 291.795 71.048C291.691 71.04 291.607 71.028 291.543 71.012V69.56C291.639 69.592 291.743 69.608 291.855 69.608C291.983 69.608 292.103 69.584 292.215 69.536C292.335 69.48 292.439 69.344 292.527 69.128C292.615 68.912 292.687 68.584 292.743 68.144C292.807 67.704 292.851 67.092 292.875 66.308L292.923 65H297.507V71H296.115V66.236ZM303.339 68.576H300.627V71H299.223V65H300.627V67.34H303.339V65H304.743V71H303.339V68.576ZM306.454 65H307.846V69.068L310.726 65H312.058V71H310.666V66.884L307.786 71H306.454V65ZM315.134 66.236H313.214V65H318.47V66.236H316.526V71H315.134V66.236ZM324.581 70.4C324.509 70.488 324.405 70.576 324.269 70.664C324.133 70.744 323.969 70.82 323.777 70.892C323.585 70.964 323.369 71.02 323.129 71.06C322.897 71.1 322.645 71.12 322.373 71.12C321.373 71.128 320.597 70.868 320.045 70.34C319.493 69.804 319.217 69.016 319.217 67.976C319.217 67.48 319.289 67.04 319.433 66.656C319.585 66.264 319.797 65.936 320.069 65.672C320.341 65.408 320.661 65.208 321.029 65.072C321.405 64.936 321.821 64.868 322.277 64.868C323.149 64.876 323.829 65.136 324.317 65.648C324.813 66.16 325.061 66.888 325.061 67.832V68.408H320.609C320.721 69.408 321.325 69.908 322.421 69.908C322.973 69.908 323.429 69.816 323.789 69.632C324.157 69.448 324.421 69.224 324.581 68.96V70.4ZM322.241 66.092C321.785 66.092 321.421 66.204 321.149 66.428C320.877 66.652 320.705 66.98 320.633 67.412H323.657C323.641 67.004 323.509 66.684 323.261 66.452C323.013 66.212 322.673 66.092 322.241 66.092ZM330.123 66.236H328.179L328.143 66.992C328.103 67.928 328.019 68.668 327.891 69.212C327.771 69.756 327.619 70.168 327.435 70.448C327.251 70.72 327.047 70.892 326.823 70.964C326.599 71.036 326.371 71.072 326.139 71.072C326.027 71.072 325.915 71.064 325.803 71.048C325.699 71.04 325.615 71.028 325.551 71.012V69.56C325.647 69.592 325.751 69.608 325.863 69.608C325.991 69.608 326.111 69.584 326.223 69.536C326.343 69.48 326.447 69.344 326.535 69.128C326.623 68.912 326.695 68.584 326.751 68.144C326.815 67.704 326.859 67.092 326.883 66.308L326.931 65H331.515V71H330.123V66.236ZM338.343 68.816C338.335 69.584 338.119 70.14 337.695 70.484C337.271 70.828 336.587 71 335.643 71H333.231V65H334.635V66.776H335.799C336.207 66.776 336.567 66.808 336.879 66.872C337.199 66.936 337.467 67.048 337.683 67.208C337.899 67.36 338.063 67.568 338.175 67.832C338.287 68.096 338.343 68.424 338.343 68.816ZM336.939 68.804C336.923 68.492 336.823 68.284 336.639 68.18C336.463 68.068 336.147 68.012 335.691 68.012H334.635V69.764H335.607C336.087 69.764 336.427 69.696 336.627 69.56C336.835 69.416 336.939 69.164 336.939 68.804Z" fill="white"/>
<circle cx="550" cy="50" r="50" fill="#5BD595"/>
<path d="M537.096 62.6H543.06V63.98H538.596V65.48H540.24C541.4 65.48 542.268 65.7 542.844 66.14C543.428 66.58 543.72 67.264 543.72 68.192C543.72 68.656 543.636 69.064 543.468 69.416C543.308 69.76 543.072 70.052 542.76 70.292C542.456 70.524 542.088 70.7 541.656 70.82C541.224 70.94 540.74 71 540.204 71H537.096V62.6ZM538.596 66.86V69.62H540.192C540.488 69.62 540.756 69.596 540.996 69.548C541.244 69.5 541.452 69.42 541.62 69.308C541.796 69.196 541.928 69.048 542.016 68.864C542.112 68.672 542.16 68.436 542.16 68.156C542.16 67.652 541.992 67.312 541.656 67.136C541.328 66.952 540.84 66.86 540.192 66.86H538.596ZM545.273 65.42C545.473 65.268 545.749 65.14 546.101 65.036C546.461 64.932 546.901 64.88 547.421 64.88C548.301 64.88 548.957 65.044 549.389 65.372C549.821 65.7 550.037 66.256 550.037 67.04V71H548.717V69.92C548.573 70.272 548.325 70.556 547.973 70.772C547.629 70.988 547.217 71.096 546.737 71.096C546.129 71.096 545.653 70.936 545.309 70.616C544.973 70.288 544.805 69.828 544.805 69.236C544.805 68.892 544.865 68.608 544.985 68.384C545.105 68.16 545.273 67.984 545.489 67.856C545.705 67.72 545.965 67.624 546.269 67.568C546.573 67.512 546.909 67.484 547.277 67.484H548.633V67.22C548.633 66.796 548.529 66.504 548.321 66.344C548.121 66.184 547.821 66.104 547.421 66.104C546.869 66.104 546.425 66.204 546.089 66.404C545.753 66.596 545.481 66.852 545.273 67.172V65.42ZM547.181 69.836C547.421 69.836 547.625 69.808 547.793 69.752C547.969 69.688 548.117 69.612 548.237 69.524C548.357 69.428 548.449 69.324 548.513 69.212C548.577 69.1 548.617 68.992 548.633 68.888V68.396H547.445C547.029 68.396 546.721 68.444 546.521 68.54C546.321 68.636 546.221 68.82 546.221 69.092C546.221 69.324 546.301 69.508 546.461 69.644C546.629 69.772 546.869 69.836 547.181 69.836ZM555.773 68.576H553.061V71H551.657V65H553.061V67.34H555.773V65H557.177V71H555.773V68.576ZM558.875 65H560.279V67.34H561.251L562.931 65H564.491L562.391 67.832L564.827 71H563.123L561.239 68.516H560.279V71H558.875V65Z" fill="white"/>
<path d="M549.872 17.0938L532.219 25.5936V30.0157H568.781V25.5702L549.872 17.0938ZM566.344 27.5782H534.656V27.1253L549.909 19.7814L566.344 27.1487V27.5782Z" fill="white" stroke="#5BD595"/>
<path d="M534.656 47.0781H566.344V49.5156H534.656V47.0781Z" fill="white" stroke="#5BD595"/>
<path d="M532.219 51.3438H568.781V53.7812H532.219V51.3438Z" fill="white" stroke="#5BD595"/>
<path d="M535.266 32.4531H537.703V44.6406H535.266V32.4531Z" fill="white" stroke="#5BD595"/>
<path d="M563.297 32.4531H565.734V44.6406H563.297V32.4531Z" fill="white" stroke="#5BD595"/>
<path d="M555.984 32.4531H558.422V44.6406H555.984V32.4531Z" fill="white" stroke="#5BD595"/>
<path d="M542.578 32.4531H545.016V44.6406H542.578V32.4531Z" fill="white" stroke="#5BD595"/>
<path d="M549.281 32.4531H551.719V44.6406H549.281V32.4531Z" fill="white" stroke="#5BD595"/>
<path d="M235.354 50.3536C235.549 50.1583 235.549 49.8417 235.354 49.6465L232.172 46.4645C231.976 46.2692 231.66 46.2692 231.464 46.4645C231.269 46.6597 231.269 46.9763 231.464 47.1716L234.293 50L231.464 52.8284C231.269 53.0237 231.269 53.3403 231.464 53.5355C231.66 53.7308 231.976 53.7308 232.172 53.5355L235.354 50.3536ZM175 50.5L177.5 50.5L177.5 49.5L175 49.5L175 50.5ZM182.5 50.5L187.5 50.5L187.5 49.5L182.5 49.5L182.5 50.5ZM192.5 50.5L197.5 50.5L197.5 49.5L192.5 49.5L192.5 50.5ZM202.5 50.5L207.5 50.5L207.5 49.5L202.5 49.5L202.5 50.5ZM212.5 50.5L217.5 50.5L217.5 49.5L212.5 49.5L212.5 50.5ZM222.5 50.5L227.5 50.5L227.5 49.5L222.5 49.5L222.5 50.5ZM232.5 50.5L235 50.5L235 49.5L232.5 49.5L232.5 50.5ZM235.707 50.7071C236.098 50.3166 236.098 49.6834 235.707 49.2929L229.343 42.9289C228.953 42.5384 228.319 42.5384 227.929 42.9289C227.538 43.3195 227.538 43.9526 227.929 44.3432L233.586 50L227.929 55.6569C227.538 56.0474 227.538 56.6805 227.929 57.0711C228.319 57.4616 228.953 57.4616 229.343 57.0711L235.707 50.7071ZM175 51L177.5 51L177.5 49L175 49L175 51ZM182.5 51L187.5 51L187.5 49L182.5 49L182.5 51ZM192.5 51L197.5 51L197.5 49L192.5 49L192.5 51ZM202.5 51L207.5 51L207.5 49L202.5 49L202.5 51ZM212.5 51L217.5 51L217.5 49L212.5 49L212.5 51ZM222.5 51L227.5 51L227.5 49L222.5 49L222.5 51ZM232.5 51L235 51L235 49L232.5 49L232.5 51Z" fill="#404040"/>
<path d="M114.646 50.3536C114.451 50.1583 114.451 49.8417 114.646 49.6464L117.828 46.4645C118.024 46.2692 118.34 46.2692 118.536 46.4645C118.731 46.6597 118.731 46.9763 118.536 47.1716L115.707 50L118.536 52.8284C118.731 53.0237 118.731 53.3403 118.536 53.5355C118.34 53.7308 118.024 53.7308 117.828 53.5355L114.646 50.3536ZM175 50.5H172.5V49.5H175V50.5ZM167.5 50.5H162.5V49.5H167.5V50.5ZM157.5 50.5H152.5V49.5H157.5V50.5ZM147.5 50.5H142.5V49.5H147.5V50.5ZM137.5 50.5H132.5V49.5H137.5V50.5ZM127.5 50.5H122.5V49.5H127.5V50.5ZM117.5 50.5H115V49.5H117.5V50.5ZM114.293 50.7071C113.902 50.3166 113.902 49.6834 114.293 49.2929L120.657 42.9289C121.047 42.5384 121.681 42.5384 122.071 42.9289C122.462 43.3195 122.462 43.9526 122.071 44.3431L116.414 50L122.071 55.6569C122.462 56.0474 122.462 56.6805 122.071 57.0711C121.681 57.4616 121.047 57.4616 120.657 57.0711L114.293 50.7071ZM175 51H172.5V49H175V51ZM167.5 51H162.5V49H167.5V51ZM157.5 51H152.5V49H157.5V51ZM147.5 51H142.5V49H147.5V51ZM137.5 51H132.5V49H137.5V51ZM127.5 51H122.5V49H127.5V51ZM117.5 51H115V49H117.5V51Z" fill="#404040"/>
<path d="M145.996 25H144.736V15.2H145.996V19.54H147.578L151.386 15.2H152.982L148.782 19.932L153.528 25H151.876L147.648 20.52H145.996V25ZM153.986 21.472C153.986 20.8653 154.075 20.338 154.252 19.89C154.43 19.4327 154.672 19.0547 154.98 18.756C155.288 18.4573 155.652 18.2333 156.072 18.084C156.492 17.9347 156.95 17.86 157.444 17.86C158.546 17.8693 159.4 18.1773 160.006 18.784C160.613 19.3907 160.916 20.3053 160.916 21.528C160.916 22.1347 160.828 22.6667 160.65 23.124C160.473 23.572 160.23 23.9453 159.922 24.244C159.614 24.5427 159.25 24.7667 158.83 24.916C158.41 25.0653 157.953 25.14 157.458 25.14C156.348 25.1307 155.489 24.8273 154.882 24.23C154.285 23.6233 153.986 22.704 153.986 21.472ZM155.162 21.514C155.162 22.4193 155.358 23.082 155.75 23.502C156.142 23.922 156.712 24.132 157.458 24.132C158.196 24.132 158.76 23.9173 159.152 23.488C159.544 23.0493 159.74 22.396 159.74 21.528V21.486C159.74 20.59 159.54 19.932 159.138 19.512C158.746 19.092 158.182 18.8773 157.444 18.868C156.707 18.868 156.142 19.0873 155.75 19.526C155.358 19.9553 155.162 20.604 155.162 21.472V21.514ZM167.484 21.976H163.788V25H162.626V18H163.788V20.926H167.484V18H168.646V25H167.484V21.976ZM172.452 19.036H170.114V18H175.938V19.036H173.614V25H172.452V19.036ZM177.405 18H178.511V19.344C178.688 18.9333 178.987 18.5833 179.407 18.294C179.827 18.0047 180.392 17.86 181.101 17.86C182.034 17.86 182.776 18.1353 183.327 18.686C183.878 19.2367 184.153 20.1233 184.153 21.346C184.153 22.0367 184.078 22.6247 183.929 23.11C183.789 23.586 183.579 23.978 183.299 24.286C183.028 24.5847 182.697 24.804 182.305 24.944C181.913 25.084 181.465 25.154 180.961 25.154C180.373 25.154 179.874 25.0327 179.463 24.79C179.062 24.538 178.763 24.2487 178.567 23.922V27.52H177.405V18ZM178.567 21.794C178.567 22.522 178.768 23.0913 179.169 23.502C179.58 23.9033 180.116 24.104 180.779 24.104C181.544 24.104 182.1 23.8987 182.445 23.488C182.8 23.0773 182.977 22.3867 182.977 21.416C182.977 20.9493 182.926 20.5573 182.823 20.24C182.72 19.9133 182.571 19.652 182.375 19.456C182.188 19.26 181.96 19.12 181.689 19.036C181.418 18.952 181.12 18.91 180.793 18.91C180.065 18.91 179.514 19.106 179.141 19.498C178.777 19.8807 178.586 20.422 178.567 21.122V21.794ZM185.939 18.532C186.172 18.3547 186.49 18.2007 186.891 18.07C187.302 17.93 187.778 17.86 188.319 17.86C188.767 17.86 189.168 17.902 189.523 17.986C189.878 18.07 190.176 18.21 190.419 18.406C190.671 18.602 190.862 18.8633 190.993 19.19C191.124 19.5073 191.189 19.904 191.189 20.38V25H190.083V23.81C189.896 24.202 189.593 24.5193 189.173 24.762C188.762 24.9953 188.277 25.112 187.717 25.112C187.017 25.112 186.457 24.93 186.037 24.566C185.617 24.202 185.407 23.6607 185.407 22.942C185.407 22.5593 185.472 22.242 185.603 21.99C185.743 21.7287 185.939 21.5233 186.191 21.374C186.443 21.2153 186.751 21.108 187.115 21.052C187.479 20.9867 187.894 20.954 188.361 20.954H190.027V20.394C190.027 20.0953 189.985 19.848 189.901 19.652C189.817 19.456 189.7 19.302 189.551 19.19C189.402 19.0687 189.22 18.9847 189.005 18.938C188.8 18.8913 188.571 18.868 188.319 18.868C187.768 18.868 187.292 18.9893 186.891 19.232C186.499 19.4747 186.182 19.792 185.939 20.184V18.532ZM188.011 24.034C188.366 24.034 188.664 23.9827 188.907 23.88C189.159 23.7773 189.364 23.656 189.523 23.516C189.682 23.3667 189.798 23.2127 189.873 23.054C189.957 22.8953 190.008 22.7553 190.027 22.634V21.878H188.403C187.768 21.878 187.306 21.9433 187.017 22.074C186.737 22.2047 186.597 22.4707 186.597 22.872C186.597 23.2173 186.714 23.4973 186.947 23.712C187.18 23.9267 187.535 24.034 188.011 24.034ZM193.319 18H194.481V20.926H195.741L197.939 18H199.269L196.707 21.304L199.731 25H198.261L195.741 21.92H194.481V25H193.319V18ZM202.831 19.036H200.493V18H206.317V19.036H203.993V25H202.831V19.036Z" fill="#404040"/>
<path d="M485.354 50.3536C485.549 50.1583 485.549 49.8417 485.354 49.6465L482.172 46.4645C481.976 46.2692 481.66 46.2692 481.464 46.4645C481.269 46.6597 481.269 46.9763 481.464 47.1716L484.293 50L481.464 52.8284C481.269 53.0237 481.269 53.3403 481.464 53.5355C481.66 53.7308 481.976 53.7308 482.172 53.5355L485.354 50.3536ZM425 50.5L427.5 50.5L427.5 49.5L425 49.5L425 50.5ZM432.5 50.5L437.5 50.5L437.5 49.5L432.5 49.5L432.5 50.5ZM442.5 50.5L447.5 50.5L447.5 49.5L442.5 49.5L442.5 50.5ZM452.5 50.5L457.5 50.5L457.5 49.5L452.5 49.5L452.5 50.5ZM462.5 50.5L467.5 50.5L467.5 49.5L462.5 49.5L462.5 50.5ZM472.5 50.5L477.5 50.5L477.5 49.5L472.5 49.5L472.5 50.5ZM482.5 50.5L485 50.5L485 49.5L482.5 49.5L482.5 50.5ZM485.707 50.7071C486.098 50.3166 486.098 49.6834 485.707 49.2929L479.343 42.9289C478.953 42.5384 478.319 42.5384 477.929 42.9289C477.538 43.3195 477.538 43.9526 477.929 44.3432L483.586 50L477.929 55.6569C477.538 56.0474 477.538 56.6805 477.929 57.0711C478.319 57.4616 478.953 57.4616 479.343 57.0711L485.707 50.7071ZM425 51L427.5 51L427.5 49L425 49L425 51ZM432.5 51L437.5 51L437.5 49L432.5 49L432.5 51ZM442.5 51L447.5 51L447.5 49L442.5 49L442.5 51ZM452.5 51L457.5 51L457.5 49L452.5 49L452.5 51ZM462.5 51L467.5 51L467.5 49L462.5 49L462.5 51ZM472.5 51L477.5 51L477.5 49L472.5 49L472.5 51ZM482.5 51L485 51L485 49L482.5 49L482.5 51Z" fill="#404040"/>
<path d="M364.646 50.3536C364.451 50.1583 364.451 49.8417 364.646 49.6464L367.828 46.4645C368.024 46.2692 368.34 46.2692 368.536 46.4645C368.731 46.6597 368.731 46.9763 368.536 47.1716L365.707 50L368.536 52.8284C368.731 53.0237 368.731 53.3403 368.536 53.5355C368.34 53.7308 368.024 53.7308 367.828 53.5355L364.646 50.3536ZM425 50.5H422.5V49.5H425V50.5ZM417.5 50.5H412.5V49.5H417.5V50.5ZM407.5 50.5H402.5V49.5H407.5V50.5ZM397.5 50.5H392.5V49.5H397.5V50.5ZM387.5 50.5H382.5V49.5H387.5V50.5ZM377.5 50.5H372.5V49.5H377.5V50.5ZM367.5 50.5H365V49.5H367.5V50.5ZM364.293 50.7071C363.902 50.3166 363.902 49.6834 364.293 49.2929L370.657 42.9289C371.047 42.5384 371.681 42.5384 372.071 42.9289C372.462 43.3195 372.462 43.9526 372.071 44.3431L366.414 50L372.071 55.6569C372.462 56.0474 372.462 56.6805 372.071 57.0711C371.681 57.4616 371.047 57.4616 370.657 57.0711L364.293 50.7071ZM425 51H422.5V49H425V51ZM417.5 51H412.5V49H417.5V51ZM407.5 51H402.5V49H407.5V51ZM397.5 51H392.5V49H397.5V51ZM387.5 51H382.5V49H387.5V51ZM377.5 51H372.5V49H377.5V51ZM367.5 51H365V49H367.5V51Z" fill="#404040"/>
<path d="M409.776 23.866C409.655 24.0153 409.482 24.1647 409.258 24.314C409.034 24.4633 408.768 24.5987 408.46 24.72C408.162 24.8413 407.821 24.9393 407.438 25.014C407.065 25.098 406.664 25.14 406.234 25.14C405.45 25.14 404.741 25.0233 404.106 24.79C403.481 24.5473 402.949 24.2113 402.51 23.782C402.072 23.3433 401.731 22.8113 401.488 22.186C401.255 21.5607 401.138 20.8607 401.138 20.086C401.138 19.358 401.255 18.6907 401.488 18.084C401.722 17.468 402.058 16.936 402.496 16.488C402.944 16.04 403.481 15.69 404.106 15.438C404.741 15.186 405.46 15.06 406.262 15.06C406.664 15.06 407.037 15.0927 407.382 15.158C407.728 15.214 408.036 15.2933 408.306 15.396C408.586 15.4893 408.829 15.5967 409.034 15.718C409.24 15.83 409.398 15.942 409.51 16.054V18.028C409.37 17.7947 409.193 17.5707 408.978 17.356C408.764 17.132 408.516 16.936 408.236 16.768C407.956 16.5907 407.648 16.4507 407.312 16.348C406.976 16.236 406.626 16.18 406.262 16.18C405.674 16.18 405.142 16.2733 404.666 16.46C404.2 16.6467 403.803 16.9127 403.476 17.258C403.15 17.6033 402.898 18.0187 402.72 18.504C402.543 18.98 402.454 19.512 402.454 20.1C402.454 20.6507 402.534 21.164 402.692 21.64C402.851 22.1067 403.084 22.5173 403.392 22.872C403.71 23.2173 404.102 23.4927 404.568 23.698C405.035 23.9033 405.572 24.0107 406.178 24.02C406.626 24.02 407.037 23.9687 407.41 23.866C407.793 23.754 408.134 23.6093 408.432 23.432C408.74 23.2453 409.006 23.0353 409.23 22.802C409.454 22.5593 409.636 22.3073 409.776 22.046V23.866ZM411.524 23.894C411.645 23.6327 411.752 23.3433 411.846 23.026C411.939 22.7087 412.018 22.3493 412.084 21.948C412.158 21.5373 412.214 21.0753 412.252 20.562C412.289 20.0487 412.308 19.4607 412.308 18.798V18H417.236V23.894H418.37V26.82H417.264V25H411.79V26.82H410.684V23.894H411.524ZM413.4 19.61C413.381 20.506 413.316 21.2947 413.204 21.976C413.101 22.6573 412.924 23.2967 412.672 23.894H416.074V19.036H413.414L413.4 19.61ZM422.75 17.86C423.721 17.86 424.477 18.1493 425.018 18.728C425.569 19.3067 425.844 20.1187 425.844 21.164V21.92H420.482C420.538 22.676 420.762 23.236 421.154 23.6C421.546 23.9547 422.087 24.132 422.778 24.132C423.45 24.132 424.001 24.0153 424.43 23.782C424.859 23.5487 425.167 23.264 425.354 22.928V24.286C425.177 24.5007 424.873 24.6967 424.444 24.874C424.024 25.0513 423.469 25.14 422.778 25.14C421.667 25.14 420.809 24.8367 420.202 24.23C419.595 23.6233 419.292 22.704 419.292 21.472C419.292 20.8653 419.381 20.338 419.558 19.89C419.735 19.4327 419.978 19.0547 420.286 18.756C420.594 18.4573 420.958 18.2333 421.378 18.084C421.798 17.9347 422.255 17.86 422.75 17.86ZM422.75 18.868C422.087 18.868 421.565 19.0407 421.182 19.386C420.799 19.7313 420.571 20.2447 420.496 20.926H424.682V20.912C424.682 20.24 424.5 19.7313 424.136 19.386C423.772 19.0407 423.31 18.868 422.75 18.868ZM431.976 19.036H429.26L429.246 19.568C429.218 20.436 429.167 21.178 429.092 21.794C429.017 22.4007 428.924 22.9093 428.812 23.32C428.7 23.7307 428.574 24.0527 428.434 24.286C428.294 24.5193 428.145 24.6967 427.986 24.818C427.827 24.93 427.664 25 427.496 25.028C427.328 25.0653 427.16 25.084 426.992 25.084C426.777 25.084 426.591 25.0607 426.432 25.014V23.768C426.553 23.796 426.67 23.81 426.782 23.81C426.903 23.81 427.015 23.8007 427.118 23.782C427.23 23.754 427.333 23.6887 427.426 23.586C427.529 23.4833 427.617 23.334 427.692 23.138C427.776 22.9327 427.851 22.6527 427.916 22.298C427.981 21.934 428.033 21.4813 428.07 20.94C428.117 20.3987 428.154 19.7407 428.182 18.966L428.21 18H433.138V25H431.976V19.036ZM435.383 18H436.545V20.926H437.805L440.003 18H441.333L438.771 21.304L441.795 25H440.325L437.805 21.92H436.545V25H435.383V18ZM443.301 18.532C443.535 18.3547 443.852 18.2007 444.253 18.07C444.664 17.93 445.14 17.86 445.681 17.86C446.129 17.86 446.531 17.902 446.885 17.986C447.24 18.07 447.539 18.21 447.781 18.406C448.033 18.602 448.225 18.8633 448.355 19.19C448.486 19.5073 448.551 19.904 448.551 20.38V25H447.445V23.81C447.259 24.202 446.955 24.5193 446.535 24.762C446.125 24.9953 445.639 25.112 445.079 25.112C444.379 25.112 443.819 24.93 443.399 24.566C442.979 24.202 442.769 23.6607 442.769 22.942C442.769 22.5593 442.835 22.242 442.965 21.99C443.105 21.7287 443.301 21.5233 443.553 21.374C443.805 21.2153 444.113 21.108 444.477 21.052C444.841 20.9867 445.257 20.954 445.723 20.954H447.389V20.394C447.389 20.0953 447.347 19.848 447.263 19.652C447.179 19.456 447.063 19.302 446.913 19.19C446.764 19.0687 446.582 18.9847 446.367 18.938C446.162 18.8913 445.933 18.868 445.681 18.868C445.131 18.868 444.655 18.9893 444.253 19.232C443.861 19.4747 443.544 19.792 443.301 20.184V18.532ZM445.373 24.034C445.728 24.034 446.027 23.9827 446.269 23.88C446.521 23.7773 446.727 23.656 446.885 23.516C447.044 23.3667 447.161 23.2127 447.235 23.054C447.319 22.8953 447.371 22.7553 447.389 22.634V21.878H445.765C445.131 21.878 444.669 21.9433 444.379 22.074C444.099 22.2047 443.959 22.4707 443.959 22.872C443.959 23.2173 444.076 23.4973 444.309 23.712C444.543 23.9267 444.897 24.034 445.373 24.034Z" fill="#404040"/>
</svg>
