<svg width="290" height="49" viewBox="0 0 290 49" fill="none" xmlns="http://www.w3.org/2000/svg">
<circle cx="24.1667" cy="24.1667" r="24.1667" fill="#7BBEFD"/>
<path d="M32.7814 21.8722C32.576 18.7827 28.3682 18.1336 28.3682 18.1336C27.2934 17.9483 26.8553 17.0581 26.6818 16.4816C27.508 15.5888 28.0862 14.4349 28.4057 13.3105C28.5275 12.8819 28.5931 12.4345 28.5931 11.9897C28.5931 11.7367 28.5669 11.49 28.5223 11.2493C29.0587 10.3819 28.9007 9.41464 28.7735 8.9499C28.7349 8.80875 28.5888 8.73906 28.4386 8.73906C28.4224 8.73906 28.4063 8.73986 28.3902 8.74145C28.333 8.74712 28.2726 8.74978 28.2093 8.74978C27.2487 8.74978 25.6603 8.13405 25.6603 8.13405C25.1757 7.93284 24.5789 7.81456 24.0564 7.75624C23.5994 7.70519 23.1371 7.73295 22.6982 7.87123C22.0882 8.06337 21.5267 8.44173 21.0717 8.87455C20.9786 8.96313 20.899 9.05539 20.8254 9.15901C19.8572 9.47167 19.6934 10.6749 19.7509 11.7284C19.7453 11.815 19.7405 11.9018 19.7405 11.9897C19.7405 13.5733 20.4378 15.3897 21.5244 16.5866C21.5561 16.6216 21.5891 16.6551 21.6222 16.6887C21.4105 17.2513 20.9582 17.9695 20.0058 18.1336C20.0058 18.1336 15.7979 18.7827 15.5926 21.8722C15.5926 21.8722 15.3391 23.4868 15.5518 25.4126C15.6232 26.0597 16.2473 26.5824 16.9253 26.5824H31.4487C32.1267 26.5824 32.7354 26.0579 32.7973 25.4099C32.9625 23.6842 32.7814 21.8722 32.7814 21.8722ZM26.7316 17.972L26.9552 18.2103L27.0089 18.2675L27.076 18.3095L27.2723 18.4322L25.7653 20.5112L25.1746 19.5753L25.1505 19.5371L25.1206 19.5028C25.0738 19.449 25.0702 19.3429 25.1085 19.2789L26.7316 17.972ZM24.5493 20.3971H23.8139L23.5929 20.0203L23.6804 19.8817C23.7377 19.816 23.7798 19.7405 23.8099 19.6608H24.5237C24.5538 19.7405 24.5959 19.816 24.6532 19.8817L24.7526 20.0392L24.5493 20.3971ZM25.0812 24.1292C25.09 24.1621 25.0634 24.2421 25.0288 24.2675L24.2991 24.8034C24.2779 24.8189 24.2168 24.819 24.1957 24.8033L23.466 24.2677C23.4272 24.2391 23.3963 24.1524 23.4054 24.1123L24.0765 20.9862H24.2714L25.0812 24.1292ZM24.6676 18.8667C24.6117 18.9274 24.5699 18.9976 24.538 19.0717H23.7956C23.7637 18.9976 23.7219 18.9274 23.666 18.8667L21.9222 17.4627C21.9948 17.3419 22.0565 17.2208 22.1094 17.1024C22.7016 17.5196 23.4049 17.7463 24.1071 17.7463C24.7877 17.7463 25.4666 17.5342 26.0414 17.0782C26.095 17.0357 26.1468 16.9911 26.1988 16.9465C26.2612 17.1054 26.3404 17.2733 26.439 17.4405L24.6676 18.8667ZM21.0192 9.71758C21.1452 9.67688 21.254 9.59764 21.3291 9.49187C21.3375 9.48015 22.1786 8.32121 23.791 8.32108H23.7912C24.3055 8.32108 24.8531 8.44023 25.4189 8.67522C25.4235 8.67709 25.428 8.67895 25.4326 8.68076C25.6064 8.74806 27.161 9.33885 28.2093 9.33885C28.2192 9.33885 28.229 9.33885 28.2388 9.3387C28.3902 10.1234 28.3021 11.3085 26.6953 11.9293C26.688 11.9321 25.9442 12.2087 25.0301 12.2087C24.1237 12.2087 23.3764 11.9426 22.8092 11.4177C22.6936 11.3107 22.5414 11.2538 22.3865 11.2538C22.3179 11.2538 22.2489 11.2649 22.1821 11.2878C21.9644 11.3625 21.8091 11.5493 21.7807 11.7704L21.7416 12.0756L21.5482 11.9443C21.4426 11.8725 21.3196 11.8369 21.1968 11.8369C21.0602 11.8369 20.9238 11.881 20.812 11.9686C20.6929 12.0619 20.5537 12.2025 20.4261 12.383C20.2723 11.2948 20.2941 9.95178 21.0192 9.71758ZM20.671 13.863C20.5034 12.9716 21.1968 12.426 21.1968 12.426L22.0183 12.9841C22.0642 13.0196 22.107 13.0366 22.1432 13.0366C22.2099 13.0366 22.2542 12.9791 22.2542 12.8742L22.3866 11.8429C23.1947 12.5906 24.1828 12.7978 25.0301 12.7978C26.0836 12.7978 26.9193 12.4773 26.9193 12.4773C27.3592 12.3074 27.7057 12.1008 27.9776 11.873C27.9791 11.9119 27.9826 11.9506 27.9826 11.9897C27.9826 12.376 27.9268 12.768 27.817 13.1547C27.4083 14.5927 26.6198 15.8569 25.6538 16.6232C25.2132 16.9726 24.6784 17.1572 24.1071 17.1572C23.3108 17.1572 22.5368 16.8078 21.9836 16.1984C21.4147 15.5718 20.9556 14.7364 20.671 13.863ZM21.2576 18.3095L21.3247 18.2675L21.3784 18.2103L21.602 17.972L23.2251 19.2789C23.2634 19.3429 23.2598 19.449 23.213 19.5028L23.1831 19.5371L23.159 19.5753L22.5683 20.5112L21.0613 18.4322L21.2576 18.3095ZM32.1893 25.3559C32.157 25.6955 31.8108 25.9934 31.4487 25.9934H16.9253C16.5548 25.9934 16.1967 25.6928 16.1589 25.3501C15.9578 23.5295 16.1939 21.9755 16.1963 21.9604L16.2003 21.9352L16.2019 21.9098C16.3732 19.3323 20.0659 18.7211 20.1022 18.7153L20.1077 18.7145L20.1132 18.7135C20.2355 18.6924 20.3496 18.663 20.4592 18.6294L22.1759 20.9978C22.2656 21.1846 22.4077 21.2807 22.5587 21.2807C22.6796 21.2807 22.806 21.2192 22.9158 21.0931L23.2293 20.5964L23.4543 20.98L22.8082 23.9898C22.7483 24.2557 22.8693 24.5696 23.0962 24.7364L23.8258 25.2721C23.9461 25.3604 24.0967 25.4045 24.2474 25.4045C24.3981 25.4045 24.5487 25.3604 24.6688 25.2721L25.3987 24.7362C25.6257 24.5694 25.7432 24.2447 25.6728 23.984L24.9006 20.9862H24.9109L25.119 20.6197L25.4178 21.0931C25.5276 21.2192 25.6541 21.2807 25.7749 21.2807C25.9259 21.2807 26.068 21.1846 26.1577 20.9978L27.8814 18.6196C28.0008 18.6578 28.1263 18.6903 28.2608 18.7135L28.2663 18.7144L28.2718 18.7153C28.3091 18.7211 31.9999 19.32 32.1721 21.9098L32.1727 21.9193L32.1737 21.9287C32.1754 21.9463 32.3474 23.7045 32.1893 25.3559Z" fill="white"/>
<path d="M11.5654 30.2405C11.6814 30.1554 11.8535 30.0742 12.0816 29.9969C12.3097 29.9195 12.5862 29.8809 12.911 29.8809C13.1391 29.8809 13.346 29.9021 13.5316 29.9447C13.7172 29.9833 13.8757 30.0452 14.0072 30.1303C14.1425 30.2115 14.245 30.3159 14.3146 30.4435C14.3881 30.5711 14.4248 30.7238 14.4248 30.9017C14.4248 31.3695 14.1851 31.6885 13.7056 31.8587C14.3243 31.9515 14.6336 32.2685 14.6336 32.8099C14.6336 32.9839 14.5988 33.1482 14.5292 33.3029C14.4596 33.4537 14.3552 33.5851 14.216 33.6973C14.0768 33.8055 13.9028 33.8925 13.694 33.9583C13.4891 34.024 13.2513 34.0569 12.9806 34.0569C12.795 34.0569 12.621 34.0414 12.4586 34.0105C12.3001 33.9834 12.1551 33.9467 12.0236 33.9003C11.896 33.85 11.7839 33.7959 11.6872 33.7379C11.5944 33.676 11.5209 33.6141 11.4668 33.5523V32.6591C11.5287 32.7635 11.6079 32.8601 11.7046 32.9491C11.8013 33.038 11.9134 33.1153 12.041 33.1811C12.1686 33.2468 12.3117 33.299 12.4702 33.3377C12.6326 33.3725 12.8066 33.3899 12.9922 33.3899C13.1159 33.3899 13.2319 33.3763 13.3402 33.3493C13.4485 33.3222 13.5413 33.2835 13.6186 33.2333C13.6998 33.1791 13.7636 33.1134 13.81 33.0361C13.8564 32.9587 13.8796 32.8679 13.8796 32.7635C13.8796 32.5817 13.8081 32.4483 13.665 32.3633C13.5258 32.2782 13.2977 32.2357 12.9806 32.2357H12.3658V31.6383H12.9748C13.1063 31.6383 13.2165 31.6247 13.3054 31.5977C13.3943 31.5667 13.4659 31.5261 13.52 31.4759C13.5741 31.4256 13.6128 31.3676 13.636 31.3019C13.6631 31.2361 13.6766 31.1646 13.6766 31.0873C13.6766 30.9945 13.6573 30.9152 13.6186 30.8495C13.5799 30.7799 13.5258 30.7238 13.4562 30.6813C13.3866 30.6387 13.3054 30.6078 13.2126 30.5885C13.1198 30.5653 13.0193 30.5517 12.911 30.5479C12.7563 30.544 12.6094 30.5614 12.4702 30.6001C12.3349 30.6387 12.2092 30.6929 12.0932 30.7625C11.9811 30.8282 11.8786 30.9036 11.7858 30.9887C11.6969 31.0737 11.6234 31.1607 11.5654 31.2497V30.2405Z" fill="white"/>
<path d="M15.4189 31.3019C15.5155 31.2284 15.6489 31.1665 15.8191 31.1163C15.9931 31.066 16.2057 31.0409 16.4571 31.0409C16.8824 31.0409 17.1995 31.1201 17.4083 31.2787C17.6171 31.4372 17.7215 31.7059 17.7215 32.0849V33.9989H17.0835V33.4769C17.0139 33.647 16.894 33.7843 16.7239 33.8887C16.5576 33.9931 16.3585 34.0453 16.1265 34.0453C15.8326 34.0453 15.6025 33.9679 15.4363 33.8133C15.2739 33.6547 15.1927 33.4324 15.1927 33.1463C15.1927 32.98 15.2217 32.8427 15.2797 32.7345C15.3377 32.6262 15.4189 32.5411 15.5233 32.4793C15.6277 32.4135 15.7533 32.3671 15.9003 32.3401C16.0472 32.313 16.2096 32.2995 16.3875 32.2995H17.0429V32.1719C17.0429 31.9669 16.9926 31.8258 16.8921 31.7485C16.7954 31.6711 16.6504 31.6325 16.4571 31.6325C16.1903 31.6325 15.9757 31.6808 15.8133 31.7775C15.6509 31.8703 15.5194 31.994 15.4189 32.1487V31.3019ZM16.3411 33.4363C16.4571 33.4363 16.5557 33.4227 16.6369 33.3957C16.7219 33.3647 16.7935 33.328 16.8515 33.2855C16.9095 33.2391 16.9539 33.1888 16.9849 33.1347C17.0158 33.0805 17.0351 33.0283 17.0429 32.9781V32.7403H16.4687C16.2676 32.7403 16.1187 32.7635 16.0221 32.8099C15.9254 32.8563 15.8771 32.9452 15.8771 33.0767C15.8771 33.1888 15.9157 33.2777 15.9931 33.3435C16.0743 33.4053 16.1903 33.4363 16.3411 33.4363Z" fill="white"/>
<path d="M18.5041 31.0989H19.1827V32.2299H19.6525L20.4645 31.0989H21.2185L20.2035 32.4677L21.3809 33.9989H20.5573L19.6467 32.7983H19.1827V33.9989H18.5041V31.0989Z" fill="white"/>
<path d="M21.9212 31.3019C22.0179 31.2284 22.1513 31.1665 22.3214 31.1163C22.4954 31.066 22.7081 31.0409 22.9594 31.0409C23.3847 31.0409 23.7018 31.1201 23.9106 31.2787C24.1194 31.4372 24.2238 31.7059 24.2238 32.0849V33.9989H23.5858V33.4769C23.5162 33.647 23.3963 33.7843 23.2262 33.8887C23.0599 33.9931 22.8608 34.0453 22.6288 34.0453C22.3349 34.0453 22.1049 33.9679 21.9386 33.8133C21.7762 33.6547 21.695 33.4324 21.695 33.1463C21.695 32.98 21.724 32.8427 21.782 32.7345C21.84 32.6262 21.9212 32.5411 22.0256 32.4793C22.13 32.4135 22.2557 32.3671 22.4026 32.3401C22.5495 32.313 22.7119 32.2995 22.8898 32.2995H23.5452V32.1719C23.5452 31.9669 23.4949 31.8258 23.3944 31.7485C23.2977 31.6711 23.1527 31.6325 22.9594 31.6325C22.6926 31.6325 22.478 31.6808 22.3156 31.7775C22.1532 31.8703 22.0217 31.994 21.9212 32.1487V31.3019ZM22.8434 33.4363C22.9594 33.4363 23.058 33.4227 23.1392 33.3957C23.2243 33.3647 23.2958 33.328 23.3538 33.2855C23.4118 33.2391 23.4563 33.1888 23.4872 33.1347C23.5181 33.0805 23.5375 33.0283 23.5452 32.9781V32.7403H22.971C22.7699 32.7403 22.6211 32.7635 22.5244 32.8099C22.4277 32.8563 22.3794 32.9452 22.3794 33.0767C22.3794 33.1888 22.4181 33.2777 22.4954 33.3435C22.5766 33.4053 22.6926 33.4363 22.8434 33.4363Z" fill="white"/>
<path d="M24.8615 33.0071C24.9466 33.1347 25.0819 33.2429 25.2675 33.3319C25.4531 33.4208 25.6832 33.4653 25.9577 33.4653C26.151 33.4653 26.3038 33.4363 26.4159 33.3783C26.528 33.3203 26.5841 33.2294 26.5841 33.1057C26.5841 32.9935 26.5396 32.9123 26.4507 32.8621C26.3618 32.8118 26.2187 32.7867 26.0215 32.7867H25.5227V32.2937H25.9345C26.093 32.2937 26.2187 32.2685 26.3115 32.2183C26.4082 32.1641 26.4565 32.0752 26.4565 31.9515C26.4565 31.8509 26.4198 31.7736 26.3463 31.7195C26.2767 31.6653 26.153 31.6363 25.9751 31.6325C25.7315 31.6325 25.5208 31.6808 25.3429 31.7775C25.1689 31.8703 25.0258 31.994 24.9137 32.1487V31.3019C25.0258 31.2284 25.1747 31.1665 25.3603 31.1163C25.5459 31.066 25.7508 31.0409 25.9751 31.0409H25.9983C26.4004 31.0409 26.6924 31.1105 26.8741 31.2497C27.0558 31.385 27.1467 31.5667 27.1467 31.7949C27.1467 31.9805 27.1022 32.1235 27.0133 32.2241C26.9282 32.3246 26.8122 32.4058 26.6653 32.4677C26.8625 32.5063 27.0114 32.5779 27.1119 32.6823C27.2163 32.7828 27.2685 32.9317 27.2685 33.1289C27.2685 33.2797 27.2356 33.4131 27.1699 33.5291C27.108 33.6451 27.0191 33.7437 26.9031 33.8249C26.791 33.9022 26.6537 33.9602 26.4913 33.9989C26.3328 34.0375 26.1549 34.0569 25.9577 34.0569C25.8301 34.0569 25.7083 34.0453 25.5923 34.0221C25.4763 34.0027 25.37 33.9757 25.2733 33.9409C25.1766 33.9061 25.0916 33.8693 25.0181 33.8307C24.9485 33.7881 24.8963 33.7456 24.8615 33.7031V33.0071Z" fill="white"/>
<path d="M29.6526 32.9781C29.552 33.0361 29.436 33.0786 29.3046 33.1057C29.1731 33.1327 29.0397 33.1463 28.9044 33.1463C28.5564 33.1463 28.2838 33.0651 28.0866 32.9027C27.8894 32.7403 27.7908 32.4851 27.7908 32.1371V31.0989H28.4694V32.0327C28.4694 32.2067 28.5158 32.3362 28.6086 32.4213C28.7052 32.5025 28.8444 32.5431 29.0262 32.5431C29.2659 32.5431 29.4747 32.4986 29.6526 32.4097V31.0989H30.3312V33.9989H29.6526V32.9781Z" fill="white"/>
<path d="M31.1578 31.0989H31.8306V33.0651L33.2226 31.0989H33.8664V33.9989H33.1936V32.0095L31.8016 33.9989H31.1578V31.0989Z" fill="white"/>
<path d="M34.692 31.0989H35.3706V32.2299H35.8404L36.6524 31.0989H37.4064L36.3914 32.4677L37.5688 33.9989H36.7452L35.8346 32.7983H35.3706V33.9989H34.692V31.0989Z" fill="white"/>
<circle cx="145.001" cy="24.1667" r="24.1667" fill="#F3B36A"/>
<path d="M145.628 20.9789C145.588 21.0011 144.661 21.5342 144.001 22.0498C143.843 22.1728 143.809 22.4097 143.923 22.5787C143.992 22.6807 144.099 22.7356 144.208 22.7356C144.279 22.7356 144.352 22.7119 144.414 22.663C145.033 22.1803 145.95 21.6543 145.958 21.6483C146.13 21.5506 146.194 21.321 146.104 21.1358C146.012 20.9492 145.797 20.8825 145.628 20.9789ZM140.82 12.3257C140.709 12.4384 138.087 15.1445 138.685 21.1121C138.706 21.306 138.858 21.4498 139.036 21.4498C139.048 21.4498 139.06 21.4498 139.074 21.4481C139.267 21.4247 139.407 21.2378 139.386 21.0289C138.826 15.4656 141.277 12.9044 141.302 12.8793C141.443 12.7357 141.45 12.4957 141.317 12.3432C141.184 12.1894 140.964 12.1836 140.82 12.3257ZM155.094 16.7233C154.942 16.2657 154.525 16.0213 154.269 15.9101C152.308 8.12934 147.755 7.73242 146.857 7.73242L146.756 7.73556C142.12 7.73556 139.713 10.9022 139.638 11.0059C136.812 14.0483 136.664 19.3301 136.658 20.1522C135.932 21.5743 135.105 22.6495 135.083 22.6807C134.856 23.0172 134.793 23.3902 134.901 23.7634C135.252 24.9749 137.412 25.8222 137.648 25.9111C138.728 26.3571 139.732 26.5824 140.633 26.5824C142.216 26.5824 142.959 25.8802 142.949 25.8802C145.968 23.8804 148.758 21.6587 148.745 21.6587C152.307 19.9139 154.514 18.5645 154.863 17.9232C155.208 17.3972 155.18 16.981 155.094 16.7233ZM154.256 17.5396C154.234 17.5751 153.658 18.4192 148.388 21.0086C148.361 21.0309 145.585 23.2439 142.529 25.2761C142.524 25.2805 141.934 25.8239 140.633 25.8239C139.819 25.8239 138.898 25.6153 137.891 25.1988C137.095 24.8981 135.76 24.1813 135.573 23.5369C135.545 23.4419 135.53 23.3087 135.639 23.1458C135.668 23.1088 136.219 22.386 136.829 21.3328C136.874 21.6927 136.92 21.903 136.924 21.9238C136.936 21.9787 136.96 22.0304 136.993 22.0735C138.107 23.5533 140.904 23.8968 141.023 23.9101C141.036 23.913 141.049 23.913 141.061 23.913C141.168 23.913 141.27 23.8598 141.338 23.768C141.413 23.6657 141.434 23.5279 141.393 23.4051C140.8 21.6364 141.387 19.8266 141.393 19.8073C141.457 19.6102 141.362 19.3941 141.179 19.3228C141.002 19.2547 140.797 19.3538 140.73 19.551C140.705 19.6264 140.171 21.2574 140.566 23.066C139.769 22.906 138.289 22.5076 137.593 21.6632C137.539 21.3698 137.378 20.3333 137.443 18.8343C137.622 16.9517 138.215 13.6115 140.163 11.5111C140.185 11.4816 142.455 8.49387 146.756 8.49387C146.763 8.49387 146.85 8.49242 146.857 8.49097C147.673 8.49097 151.833 8.8671 153.636 16.3C153.669 16.4318 153.765 16.5355 153.888 16.571C154.028 16.6094 154.361 16.768 154.431 16.9812C154.485 17.141 154.377 17.3498 154.256 17.5396ZM151.698 17.1335C151.658 17.1557 150.731 17.689 150.072 18.2043C149.914 18.3274 149.879 18.5643 149.994 18.733C150.062 18.8353 150.17 18.8901 150.279 18.8901C150.35 18.8901 150.423 18.8664 150.485 18.8176C151.104 18.3349 152.021 17.8089 152.029 17.8028C152.201 17.7052 152.265 17.4755 152.175 17.2904C152.082 17.1026 151.868 17.039 151.698 17.1335Z" fill="white"/>
<path d="M127.516 30.9395H126.791V34.9995H127.568L129.795 31.9197V34.9995H130.52V30.9395H129.732L127.516 33.9729V30.9395Z" fill="white"/>
<path d="M133.77 34.7095V34.0135C133.625 34.2687 133.306 34.4717 132.824 34.4717C132.279 34.4717 131.954 34.1933 131.954 33.5959V33.5089C131.954 32.9231 132.256 32.6273 132.813 32.6273C133.236 32.6331 133.543 32.8419 133.741 33.1493V32.3025C133.549 32.1575 133.201 32.0415 132.813 32.0357C131.89 32.0415 131.264 32.5403 131.264 33.5379C131.264 34.5529 131.879 35.0633 132.807 35.0633C133.277 35.0633 133.642 34.8719 133.77 34.7095Z" fill="white"/>
<path d="M136.332 34.9995H137.011V32.0995H134.389V34.9995H135.068V32.6969H136.332V34.9995Z" fill="white"/>
<path d="M139.127 35.0633C140.026 35.0575 140.635 34.5645 140.635 33.5611C140.635 32.5519 140.049 32.0415 139.15 32.0357C138.245 32.0357 137.636 32.5345 137.636 33.5379C137.636 34.5529 138.222 35.0633 139.127 35.0633ZM138.326 33.5379C138.326 32.9289 138.61 32.6331 139.127 32.6273C139.637 32.6273 139.944 32.9057 139.944 33.5437V33.5611C139.944 34.1759 139.654 34.4717 139.138 34.4717C138.628 34.4717 138.326 34.1933 138.326 33.5553V33.5379Z" fill="white"/>
<path d="M143.122 34.9995H143.795V32.0995H141.579L141.556 32.7317C141.516 34.2455 141.313 34.3267 141.063 34.3267C141.017 34.3267 140.965 34.3209 140.912 34.3035V35.0053C140.97 35.0227 141.086 35.0343 141.197 35.0343C141.649 35.0343 142.09 34.8719 142.165 33.0623L142.183 32.6969H143.122V34.9995Z" fill="white"/>
<path d="M146.614 34.9995H147.292V32.0995H146.614V33.2305H145.303V32.0995H144.624V34.9995H145.303V33.8279H146.614V34.9995Z" fill="white"/>
<path d="M148.119 34.9589H148.206V34.9995H148.763L148.792 34.9589L150.155 33.0101V34.9995H150.828V32.1459H150.735V32.0995H150.184L148.792 34.0657V32.0995H148.119V34.9589Z" fill="white"/>
<path d="M152.315 34.9995H152.988V32.6969H153.927V32.0995H151.387V32.6969H152.315V34.9995Z" fill="white"/>
<path d="M156.881 34.7095V34.0135C156.724 34.2687 156.371 34.4717 155.837 34.4717C155.309 34.4717 155.013 34.2281 154.961 33.7467H157.113V33.4683C157.113 32.5577 156.608 32.0415 155.767 32.0357C154.892 32.0357 154.288 32.5751 154.288 33.5379C154.288 34.5355 154.857 35.0633 155.814 35.0575C156.342 35.0633 156.742 34.8719 156.881 34.7095ZM155.75 32.6273C156.162 32.6273 156.417 32.8709 156.434 33.2653H154.973C155.042 32.8477 155.315 32.6273 155.75 32.6273Z" fill="white"/>
<path d="M159.559 34.9995H160.232V32.0995H158.016L157.993 32.7317C157.953 34.2455 157.75 34.3267 157.5 34.3267C157.454 34.3267 157.402 34.3209 157.349 34.3035V35.0053C157.407 35.0227 157.523 35.0343 157.634 35.0343C158.086 35.0343 158.527 34.8719 158.602 33.0623L158.62 32.6969H159.559V34.9995Z" fill="white"/>
<path d="M163.532 33.9439C163.532 33.1841 163.092 32.9579 162.303 32.9579H161.74V32.0995H161.062V34.9995H162.227C163.132 34.9995 163.527 34.6805 163.532 33.9439ZM162.854 33.9381C162.854 34.2861 162.674 34.4021 162.21 34.4021H161.74V33.5553H162.251C162.691 33.5553 162.842 33.6365 162.854 33.9381Z" fill="white"/>
<circle cx="265.833" cy="24.1667" r="24.1667" fill="#5BD595"/>
<path d="M259.598 29.9395H262.48V30.6065H260.323V31.3315H261.117C261.678 31.3315 262.097 31.4378 262.376 31.6505C262.658 31.8631 262.799 32.1937 262.799 32.6423C262.799 32.8665 262.759 33.0637 262.677 33.2339C262.6 33.4001 262.486 33.5413 262.335 33.6573C262.188 33.7694 262.01 33.8545 261.802 33.9125C261.593 33.9705 261.359 33.9995 261.1 33.9995H259.598V29.9395ZM260.323 31.9985V33.3325H261.094C261.237 33.3325 261.367 33.3209 261.483 33.2977C261.603 33.2745 261.703 33.2358 261.784 33.1817C261.869 33.1275 261.933 33.056 261.976 32.9671C262.022 32.8743 262.045 32.7602 262.045 32.6249C262.045 32.3813 261.964 32.2169 261.802 32.1319C261.643 32.0429 261.407 31.9985 261.094 31.9985H260.323Z" fill="white"/>
<path d="M263.55 31.3025C263.647 31.229 263.78 31.1671 263.95 31.1169C264.124 31.0666 264.337 31.0415 264.588 31.0415C265.014 31.0415 265.331 31.1207 265.539 31.2793C265.748 31.4378 265.853 31.7065 265.853 32.0855V33.9995H265.215V33.4775C265.145 33.6476 265.025 33.7849 264.855 33.8893C264.689 33.9937 264.49 34.0459 264.258 34.0459C263.964 34.0459 263.734 33.9685 263.567 33.8139C263.405 33.6553 263.324 33.433 263.324 33.1469C263.324 32.9806 263.353 32.8433 263.411 32.7351C263.469 32.6268 263.55 32.5417 263.654 32.4799C263.759 32.4141 263.885 32.3677 264.031 32.3407C264.178 32.3136 264.341 32.3001 264.519 32.3001H265.174V32.1725C265.174 31.9675 265.124 31.8264 265.023 31.7491C264.927 31.6717 264.782 31.6331 264.588 31.6331C264.321 31.6331 264.107 31.6814 263.944 31.7781C263.782 31.8709 263.651 31.9946 263.55 32.1493V31.3025ZM264.472 33.4369C264.588 33.4369 264.687 33.4233 264.768 33.3963C264.853 33.3653 264.925 33.3286 264.983 33.2861C265.041 33.2397 265.085 33.1894 265.116 33.1353C265.147 33.0811 265.166 33.0289 265.174 32.9787V32.7409H264.6C264.399 32.7409 264.25 32.7641 264.153 32.8105C264.057 32.8569 264.008 32.9458 264.008 33.0773C264.008 33.1894 264.047 33.2783 264.124 33.3441C264.205 33.4059 264.321 33.4369 264.472 33.4369Z" fill="white"/>
<path d="M268.625 32.8279H267.314V33.9995H266.635V31.0995H267.314V32.2305H268.625V31.0995H269.303V33.9995H268.625V32.8279Z" fill="white"/>
<path d="M270.124 31.0995H270.803V32.2305H271.273L272.085 31.0995H272.839L271.824 32.4683L273.001 33.9995H272.178L271.267 32.7989H270.803V33.9995H270.124V31.0995Z" fill="white"/>
<g clip-path="url(#clip0)">
<path d="M265.771 8.26172L257.238 12.37V14.5073H274.91V12.3586L265.771 8.26172ZM273.732 13.3292H258.416V13.1103L265.789 9.56075L273.732 13.1216V13.3292Z" fill="white" stroke="#5BD595" stroke-width="0.483333"/>
<path d="M258.418 22.7539H273.734V23.932H258.418V22.7539Z" fill="white" stroke="#5BD595" stroke-width="0.483333"/>
<path d="M257.238 24.8164H274.91V25.9945H257.238V24.8164Z" fill="white" stroke="#5BD595" stroke-width="0.483333"/>
<path d="M258.711 15.6855H259.889V21.5762H258.711V15.6855Z" fill="white" stroke="#5BD595" stroke-width="0.483333"/>
<path d="M272.26 15.6855H273.438V21.5762H272.26V15.6855Z" fill="white" stroke="#5BD595" stroke-width="0.483333"/>
<path d="M268.727 15.6855H269.905V21.5762H268.727V15.6855Z" fill="white" stroke="#5BD595" stroke-width="0.483333"/>
<path d="M262.246 15.6855H263.424V21.5762H262.246V15.6855Z" fill="white" stroke="#5BD595" stroke-width="0.483333"/>
<path d="M265.486 15.6855H266.664V21.5762H265.486V15.6855Z" fill="white" stroke="#5BD595" stroke-width="0.483333"/>
</g>
<path d="M113.755 24.3369C113.849 24.2425 113.849 24.0895 113.755 23.9951L112.217 22.4572C112.123 22.3628 111.97 22.3628 111.875 22.4572C111.781 22.5516 111.781 22.7046 111.875 22.7989L113.242 24.166L111.875 25.5331C111.781 25.6275 111.781 25.7805 111.875 25.8749C111.97 25.9692 112.123 25.9692 112.217 25.8749L113.755 24.3369ZM84.584 24.4077L85.7923 24.4077L85.7923 23.9243L84.584 23.9243L84.584 24.4077ZM88.209 24.4077L90.6257 24.4077L90.6257 23.9243L88.209 23.9243L88.209 24.4077ZM93.0423 24.4077L95.459 24.4077L95.459 23.9243L93.0423 23.9243L93.0423 24.4077ZM97.8757 24.4077L100.292 24.4077L100.292 23.9244L97.8757 23.9244L97.8757 24.4077ZM102.709 24.4077L105.126 24.4077L105.126 23.9244L102.709 23.9244L102.709 24.4077ZM107.542 24.4077L109.959 24.4077L109.959 23.9244L107.542 23.9244L107.542 24.4077ZM112.376 24.4077L113.584 24.4077L113.584 23.9244L112.376 23.9244L112.376 24.4077ZM113.926 24.5078C114.115 24.319 114.115 24.013 113.926 23.8242L110.85 20.7483C110.661 20.5596 110.355 20.5596 110.166 20.7483C109.978 20.9371 109.978 21.2431 110.166 21.4319L112.9 24.166L110.166 26.9002C109.978 27.0889 109.978 27.3949 110.166 27.5837C110.355 27.7725 110.661 27.7725 110.85 27.5837L113.926 24.5078ZM84.584 24.6493L85.7923 24.6493L85.7923 23.6827L84.584 23.6827L84.584 24.6493ZM88.209 24.6493L90.6257 24.6493L90.6257 23.6827L88.209 23.6827L88.209 24.6493ZM93.0423 24.6493L95.459 24.6493L95.459 23.6827L93.0423 23.6827L93.0423 24.6493ZM97.8757 24.6494L100.292 24.6494L100.292 23.6827L97.8757 23.6827L97.8757 24.6494ZM102.709 24.6494L105.126 24.6494L105.126 23.6827L102.709 23.6827L102.709 24.6494ZM107.542 24.6494L109.959 24.6494L109.959 23.6827L107.542 23.6827L107.542 24.6494ZM112.376 24.6494L113.584 24.6494L113.584 23.6827L112.376 23.6827L112.376 24.6494Z" fill="#404040"/>
<path d="M55.4131 24.3369C55.3187 24.2425 55.3187 24.0895 55.4131 23.9951L56.9511 22.4572C57.0454 22.3628 57.1984 22.3628 57.2928 22.4572C57.3872 22.5516 57.3872 22.7046 57.2928 22.7989L55.9258 24.166L57.2928 25.5331C57.3872 25.6275 57.3872 25.7805 57.2928 25.8749C57.1984 25.9692 57.0454 25.9692 56.9511 25.8749L55.4131 24.3369ZM84.584 24.4077H83.3757V23.9243H84.584V24.4077ZM80.959 24.4077H78.5423V23.9243H80.959V24.4077ZM76.1257 24.4077H73.709V23.9243H76.1257V24.4077ZM71.2923 24.4077H68.8756V23.9243H71.2923V24.4077ZM66.459 24.4077H64.0423V23.9243H66.459V24.4077ZM61.6257 24.4077H59.209V23.9243H61.6257V24.4077ZM56.7923 24.4077H55.584V23.9243H56.7923V24.4077ZM55.2422 24.5078C55.0535 24.319 55.0535 24.013 55.2422 23.8242L58.3181 20.7483C58.5069 20.5596 58.8129 20.5596 59.0017 20.7483C59.1904 20.9371 59.1904 21.2431 59.0017 21.4319L56.2675 24.166L59.0017 26.9002C59.1904 27.0889 59.1904 27.3949 59.0017 27.5837C58.8129 27.7725 58.5069 27.7725 58.3181 27.5837L55.2422 24.5078ZM84.584 24.6493H83.3757V23.6827H84.584V24.6493ZM80.959 24.6493H78.5423V23.6827H80.959V24.6493ZM76.1257 24.6493H73.709V23.6827H76.1257V24.6493ZM71.2923 24.6493H68.8756V23.6827H71.2923V24.6493ZM66.459 24.6493H64.0423V23.6827H66.459V24.6493ZM61.6257 24.6493H59.209V23.6827H61.6257V24.6493ZM56.7923 24.6493H55.584V23.6827H56.7923V24.6493Z" fill="#404040"/>
<path d="M70.566 12.7992H69.957V8.0625H70.566V10.1602H71.3307L73.1712 8.0625H73.9426L71.9126 10.3496L74.2065 12.7992H73.408L71.3645 10.6338H70.566V12.7992Z" fill="#404040"/>
<path d="M74.4281 11.094C74.4281 10.8007 74.471 10.5459 74.5567 10.3293C74.6424 10.1083 74.7597 9.92559 74.9085 9.78123C75.0574 9.63688 75.2333 9.52861 75.4363 9.45643C75.6393 9.38426 75.8604 9.34817 76.0995 9.34817C76.6318 9.35268 77.0446 9.50154 77.3378 9.79477C77.631 10.088 77.7776 10.5301 77.7776 11.121C77.7776 11.4143 77.7348 11.6714 77.649 11.8924C77.5633 12.109 77.446 12.2894 77.2972 12.4338C77.1483 12.5781 76.9724 12.6864 76.7694 12.7586C76.5664 12.8307 76.3453 12.8668 76.1062 12.8668C75.5694 12.8623 75.1544 12.7157 74.8612 12.427C74.5725 12.1338 74.4281 11.6894 74.4281 11.094ZM74.9965 11.1143C74.9965 11.5518 75.0912 11.8721 75.2807 12.0751C75.4702 12.2781 75.7454 12.3796 76.1062 12.3796C76.4626 12.3796 76.7355 12.2759 76.925 12.0684C77.1145 11.8563 77.2092 11.5406 77.2092 11.121V11.1007C77.2092 10.6677 77.1122 10.3496 76.9182 10.1466C76.7288 9.94363 76.4559 9.83988 76.0995 9.83537C75.7431 9.83537 75.4702 9.94138 75.2807 10.1534C75.0912 10.3609 74.9965 10.6744 74.9965 11.094V11.1143Z" fill="#404040"/>
<path d="M80.9519 11.3376H79.1655V12.7992H78.6038V9.41583H79.1655V10.8301H80.9519V9.41583H81.5135V12.7992H80.9519V11.3376Z" fill="#404040"/>
<path d="M83.353 9.91657H82.2229V9.41583H85.0379V9.91657H83.9146V12.7992H83.353V9.91657Z" fill="#404040"/>
<path d="M85.7472 9.41583H86.2817V10.0654C86.3674 9.86694 86.5118 9.69778 86.7148 9.55793C86.9178 9.41809 87.1907 9.34817 87.5336 9.34817C87.9847 9.34817 88.3433 9.48124 88.6095 9.7474C88.8756 10.0136 89.0087 10.4421 89.0087 11.0331C89.0087 11.3669 88.9726 11.6511 88.9004 11.8857C88.8328 12.1157 88.7313 12.3052 88.5959 12.4541C88.4651 12.5984 88.305 12.7044 88.1155 12.7721C87.926 12.8398 87.7095 12.8736 87.4659 12.8736C87.1817 12.8736 86.9403 12.815 86.7419 12.6977C86.5479 12.5759 86.4035 12.436 86.3088 12.2781V14.0172H85.7472V9.41583ZM86.3088 11.2496C86.3088 11.6015 86.4058 11.8766 86.5998 12.0751C86.7982 12.2691 87.0576 12.3661 87.3779 12.3661C87.7478 12.3661 88.0162 12.2669 88.1832 12.0684C88.3546 11.8699 88.4403 11.5361 88.4403 11.0669C88.4403 10.8413 88.4155 10.6519 88.3659 10.4985C88.3162 10.3406 88.2441 10.2143 88.1493 10.1196C88.0591 10.0248 87.9486 9.95717 87.8178 9.91657C87.6869 9.87597 87.5426 9.85567 87.3847 9.85567C87.0328 9.85567 86.7667 9.9504 86.5862 10.1399C86.4103 10.3248 86.3178 10.5865 86.3088 10.9248V11.2496Z" fill="#404040"/>
<path d="M89.8719 9.67297C89.9846 9.58726 90.138 9.51282 90.332 9.44967C90.5305 9.382 90.7605 9.34817 91.0222 9.34817C91.2387 9.34817 91.4327 9.36847 91.6041 9.40907C91.7755 9.44967 91.9199 9.51733 92.0372 9.61207C92.159 9.7068 92.2515 9.83311 92.3146 9.991C92.3778 10.1444 92.4094 10.3361 92.4094 10.5662V12.7992H91.8748V12.224C91.7846 12.4135 91.638 12.5668 91.435 12.6841C91.2365 12.7969 91.0019 12.8533 90.7312 12.8533C90.3929 12.8533 90.1222 12.7653 89.9192 12.5894C89.7162 12.4135 89.6147 12.1518 89.6147 11.8045C89.6147 11.6195 89.6463 11.4661 89.7095 11.3443C89.7771 11.218 89.8719 11.1188 89.9937 11.0466C90.1155 10.9699 90.2643 10.918 90.4403 10.891C90.6162 10.8594 90.8169 10.8436 91.0425 10.8436H91.8477V10.5729C91.8477 10.4286 91.8274 10.309 91.7868 10.2143C91.7462 10.1196 91.6898 10.0451 91.6177 9.991C91.5455 9.93236 91.4575 9.89176 91.3538 9.8692C91.2545 9.84664 91.144 9.83537 91.0222 9.83537C90.756 9.83537 90.526 9.89401 90.332 10.0113C90.1425 10.1286 89.9891 10.282 89.8719 10.4714V9.67297ZM90.8733 12.3323C91.0447 12.3323 91.1891 12.3075 91.3064 12.2578C91.4282 12.2082 91.5274 12.1496 91.6041 12.0819C91.6808 12.0097 91.7372 11.9353 91.7733 11.8586C91.8139 11.7819 91.8387 11.7142 91.8477 11.6556V11.2902H91.0628C90.756 11.2902 90.5327 11.3218 90.3929 11.3849C90.2576 11.4481 90.1899 11.5767 90.1899 11.7706C90.1899 11.9375 90.2463 12.0729 90.3591 12.1766C90.4718 12.2804 90.6433 12.3323 90.8733 12.3323Z" fill="#404040"/>
<path d="M93.4389 9.41583H94.0006V10.8301H94.6096L95.6719 9.41583H96.3148L95.0765 11.0128L96.5381 12.7992H95.8276L94.6096 11.3105H94.0006V12.7992H93.4389V9.41583Z" fill="#404040"/>
<path d="M98.0361 9.91657H96.9061V9.41583H99.721V9.91657H98.5977V12.7992H98.0361V9.91657Z" fill="#404040"/>
<path d="M234.587 24.3369C234.681 24.2425 234.681 24.0895 234.587 23.9951L233.049 22.4572C232.955 22.3628 232.802 22.3628 232.707 22.4572C232.613 22.5516 232.613 22.7046 232.707 22.7989L234.074 24.166L232.707 25.5331C232.613 25.6275 232.613 25.7805 232.707 25.8749C232.802 25.9692 232.955 25.9692 233.049 25.8749L234.587 24.3369ZM205.416 24.4077L206.624 24.4077L206.624 23.9243L205.416 23.9243L205.416 24.4077ZM209.041 24.4077L211.458 24.4077L211.458 23.9243L209.041 23.9243L209.041 24.4077ZM213.874 24.4077L216.291 24.4077L216.291 23.9243L213.874 23.9243L213.874 24.4077ZM218.708 24.4077L221.124 24.4077L221.124 23.9244L218.708 23.9244L218.708 24.4077ZM223.541 24.4077L225.958 24.4077L225.958 23.9244L223.541 23.9244L223.541 24.4077ZM228.374 24.4077L230.791 24.4077L230.791 23.9244L228.374 23.9244L228.374 24.4077ZM233.208 24.4077L234.416 24.4077L234.416 23.9244L233.208 23.9244L233.208 24.4077ZM234.758 24.5078C234.947 24.319 234.947 24.013 234.758 23.8242L231.682 20.7483C231.493 20.5596 231.187 20.5596 230.998 20.7483C230.81 20.9371 230.81 21.2431 230.998 21.4319L233.732 24.166L230.998 26.9002C230.81 27.0889 230.81 27.3949 230.998 27.5837C231.187 27.7725 231.493 27.7725 231.682 27.5837L234.758 24.5078ZM205.416 24.6493L206.624 24.6493L206.624 23.6827L205.416 23.6827L205.416 24.6493ZM209.041 24.6493L211.458 24.6493L211.458 23.6827L209.041 23.6827L209.041 24.6493ZM213.874 24.6493L216.291 24.6493L216.291 23.6827L213.874 23.6827L213.874 24.6493ZM218.708 24.6494L221.124 24.6494L221.124 23.6827L218.708 23.6827L218.708 24.6494ZM223.541 24.6494L225.958 24.6494L225.958 23.6827L223.541 23.6827L223.541 24.6494ZM228.374 24.6494L230.791 24.6494L230.791 23.6827L228.374 23.6827L228.374 24.6494ZM233.208 24.6494L234.416 24.6494L234.416 23.6827L233.208 23.6827L233.208 24.6494Z" fill="#404040"/>
<path d="M176.245 24.3369C176.151 24.2425 176.151 24.0895 176.245 23.9951L177.783 22.4572C177.877 22.3628 178.03 22.3628 178.125 22.4572C178.219 22.5516 178.219 22.7046 178.125 22.7989L176.758 24.166L178.125 25.5331C178.219 25.6275 178.219 25.7805 178.125 25.8749C178.03 25.9692 177.877 25.9692 177.783 25.8749L176.245 24.3369ZM205.416 24.4077H204.208V23.9243H205.416V24.4077ZM201.791 24.4077H199.374V23.9243H201.791V24.4077ZM196.958 24.4077H194.541V23.9243H196.958V24.4077ZM192.124 24.4077H189.708V23.9243H192.124V24.4077ZM187.291 24.4077H184.874V23.9243H187.291V24.4077ZM182.458 24.4077H180.041V23.9243H182.458V24.4077ZM177.624 24.4077H176.416V23.9243H177.624V24.4077ZM176.074 24.5078C175.885 24.319 175.885 24.013 176.074 23.8242L179.15 20.7483C179.339 20.5596 179.645 20.5596 179.834 20.7483C180.022 20.9371 180.022 21.2431 179.834 21.4319L177.1 24.166L179.834 26.9002C180.022 27.0889 180.022 27.3949 179.834 27.5837C179.645 27.7725 179.339 27.7725 179.15 27.5837L176.074 24.5078ZM205.416 24.6493H204.208V23.6827H205.416V24.6493ZM201.791 24.6493H199.374V23.6827H201.791V24.6493ZM196.958 24.6493H194.541V23.6827H196.958V24.6493ZM192.124 24.6493H189.708V23.6827H192.124V24.6493ZM187.291 24.6493H184.874V23.6827H187.291V24.6493ZM182.458 24.6493H180.041V23.6827H182.458V24.6493ZM177.624 24.6493H176.416V23.6827H177.624V24.6493Z" fill="#404040"/>
<path d="M198.058 11.2504C197.999 11.3226 197.916 11.3947 197.807 11.4669C197.699 11.5391 197.571 11.6045 197.422 11.6631C197.277 11.7218 197.113 11.7692 196.928 11.8052C196.747 11.8458 196.553 11.8661 196.346 11.8661C195.967 11.8661 195.624 11.8098 195.317 11.697C195.015 11.5797 194.758 11.4173 194.546 11.2098C194.334 10.9978 194.169 10.7406 194.052 10.4384C193.939 10.1361 193.883 9.7978 193.883 9.42337C193.883 9.07151 193.939 8.74896 194.052 8.45574C194.165 8.15801 194.327 7.90087 194.539 7.68434C194.756 7.46781 195.015 7.29864 195.317 7.17684C195.624 7.05504 195.971 6.99414 196.359 6.99414C196.553 6.99414 196.734 7.00993 196.901 7.04151C197.068 7.06857 197.217 7.10692 197.347 7.15654C197.483 7.20165 197.6 7.25353 197.699 7.31217C197.798 7.36631 197.875 7.42044 197.929 7.47457V8.42867C197.862 8.3159 197.776 8.20763 197.672 8.10387C197.568 7.99561 197.449 7.90087 197.314 7.81967C197.178 7.73396 197.029 7.6663 196.867 7.61667C196.705 7.56254 196.535 7.53547 196.359 7.53547C196.075 7.53547 195.818 7.58059 195.588 7.67081C195.362 7.76103 195.171 7.8896 195.013 8.05651C194.855 8.22342 194.733 8.42416 194.647 8.65874C194.562 8.88881 194.519 9.14594 194.519 9.43014C194.519 9.6963 194.557 9.94441 194.634 10.1745C194.711 10.4 194.823 10.5985 194.972 10.7699C195.126 10.9369 195.315 11.0699 195.541 11.1692C195.766 11.2684 196.026 11.3203 196.319 11.3248C196.535 11.3248 196.734 11.3 196.914 11.2504C197.099 11.1962 197.264 11.1263 197.408 11.0406C197.557 10.9504 197.686 10.8489 197.794 10.7361C197.902 10.6188 197.99 10.497 198.058 10.3707V11.2504Z" fill="#404040"/>
<path d="M198.902 11.2639C198.961 11.1376 199.013 10.9978 199.058 10.8444C199.103 10.691 199.141 10.5173 199.173 10.3233C199.209 10.1249 199.236 9.90155 199.254 9.65344C199.272 9.40533 199.281 9.12113 199.281 8.80084V8.41514H201.663V11.2639H202.211V12.6781H201.677V11.7985H199.031V12.6781H198.496V11.2639H198.902ZM199.809 9.19331C199.8 9.62637 199.768 10.0076 199.714 10.3369C199.665 10.6662 199.579 10.9752 199.457 11.2639H201.101V8.91587H199.816L199.809 9.19331Z" fill="#404040"/>
<path d="M204.328 8.34747C204.798 8.34747 205.163 8.48732 205.425 8.76701C205.691 9.0467 205.824 9.43916 205.824 9.94441V10.3098H203.232C203.259 10.6752 203.368 10.9459 203.557 11.1218C203.746 11.2932 204.008 11.3789 204.342 11.3789C204.667 11.3789 204.933 11.3226 205.14 11.2098C205.348 11.097 205.497 10.9594 205.587 10.797V11.4534C205.501 11.5571 205.355 11.6519 205.147 11.7376C204.944 11.8233 204.676 11.8661 204.342 11.8661C203.805 11.8661 203.39 11.7195 203.097 11.4263C202.804 11.1331 202.657 10.6887 202.657 10.0933C202.657 9.80005 202.7 9.54517 202.786 9.32864C202.871 9.1076 202.989 8.9249 203.137 8.78054C203.286 8.63619 203.462 8.52792 203.665 8.45574C203.868 8.38356 204.089 8.34747 204.328 8.34747ZM204.328 8.83467C204.008 8.83467 203.756 8.91813 203.571 9.08504C203.386 9.25195 203.275 9.50006 203.239 9.82937H205.262V9.82261C205.262 9.49781 205.174 9.25195 204.998 9.08504C204.822 8.91813 204.599 8.83467 204.328 8.83467Z" fill="#404040"/>
<path d="M208.788 8.91587H207.475L207.468 9.17301C207.455 9.59254 207.43 9.95117 207.394 10.2489C207.358 10.5421 207.312 10.788 207.258 10.9865C207.204 11.185 207.143 11.3406 207.076 11.4534C207.008 11.5662 206.936 11.6519 206.859 11.7105C206.782 11.7646 206.703 11.7985 206.622 11.812C206.541 11.8301 206.46 11.8391 206.379 11.8391C206.275 11.8391 206.185 11.8278 206.108 11.8052V11.203C206.167 11.2165 206.223 11.2233 206.277 11.2233C206.336 11.2233 206.39 11.2188 206.44 11.2098C206.494 11.1962 206.543 11.1647 206.588 11.115C206.638 11.0654 206.681 10.9932 206.717 10.8985C206.758 10.7993 206.794 10.6639 206.825 10.4925C206.857 10.3166 206.882 10.0978 206.9 9.83614C206.922 9.5745 206.94 9.25646 206.954 8.88204L206.967 8.41514H209.349V11.7985H208.788V8.91587Z" fill="#404040"/>
<path d="M210.434 8.41514H210.996V9.82937H211.605L212.667 8.41514H213.31L212.072 10.0121L213.533 11.7985H212.823L211.605 10.3098H210.996V11.7985H210.434V8.41514Z" fill="#404040"/>
<path d="M214.262 8.67227C214.374 8.58656 214.528 8.51213 214.722 8.44897C214.92 8.38131 215.15 8.34747 215.412 8.34747C215.628 8.34747 215.822 8.36777 215.994 8.40837C216.165 8.44897 216.31 8.51664 216.427 8.61137C216.549 8.70611 216.641 8.83242 216.704 8.99031C216.767 9.14369 216.799 9.33541 216.799 9.56547V11.7985H216.264V11.2233C216.174 11.4128 216.028 11.5662 215.825 11.6834C215.626 11.7962 215.392 11.8526 215.121 11.8526C214.783 11.8526 214.512 11.7646 214.309 11.5887C214.106 11.4128 214.004 11.1511 214.004 10.8038C214.004 10.6188 214.036 10.4654 214.099 10.3436C214.167 10.2173 214.262 10.1181 214.383 10.0459C214.505 9.96922 214.654 9.91734 214.83 9.89027C215.006 9.8587 215.207 9.84291 215.432 9.84291H216.237V9.57224C216.237 9.42789 216.217 9.30834 216.176 9.21361C216.136 9.11887 216.08 9.04444 216.007 8.99031C215.935 8.93166 215.847 8.89106 215.743 8.86851C215.644 8.84595 215.534 8.83467 215.412 8.83467C215.146 8.83467 214.916 8.89332 214.722 9.01061C214.532 9.1279 214.379 9.28127 214.262 9.47074V8.67227ZM215.263 11.3316C215.434 11.3316 215.579 11.3068 215.696 11.2571C215.818 11.2075 215.917 11.1489 215.994 11.0812C216.07 11.009 216.127 10.9346 216.163 10.8579C216.204 10.7812 216.228 10.7136 216.237 10.6549V10.2895H215.452C215.146 10.2895 214.922 10.3211 214.783 10.3842C214.647 10.4474 214.58 10.576 214.58 10.7699C214.58 10.9369 214.636 11.0722 214.749 11.1759C214.862 11.2797 215.033 11.3316 215.263 11.3316Z" fill="#404040"/>
<defs>
<clipPath id="clip0">
<rect width="18.85" height="18.85" fill="white" transform="translate(256.65 7.73242)"/>
</clipPath>
</defs>
</svg>
