<svg width="290" height="293" viewBox="0 0 290 293" fill="none" xmlns="http://www.w3.org/2000/svg">
<circle cx="41.1932" cy="45.3123" r="41.1932" fill="#7BBEFD"/>
<path d="M55.8767 41.4026C55.5266 36.1364 48.3543 35.03 48.3543 35.03C46.5222 34.7143 45.7755 33.1968 45.4797 32.2142C46.888 30.6923 47.8736 28.7254 48.4183 26.8088C48.6259 26.0783 48.7377 25.3157 48.7377 24.5575C48.7377 24.1262 48.6929 23.7058 48.617 23.2955C49.5312 21.817 49.2619 20.1682 49.0451 19.376C48.9793 19.1354 48.7303 19.0166 48.4743 19.0166C48.4467 19.0166 48.4193 19.018 48.3919 19.0207C48.2943 19.0304 48.1913 19.0349 48.0835 19.0349C46.4461 19.0349 43.7385 17.9854 43.7385 17.9854C42.9125 17.6424 41.8952 17.4408 41.0047 17.3414C40.2256 17.2544 39.4376 17.3017 38.6895 17.5374C37.6498 17.8649 36.6926 18.5098 35.9171 19.2476C35.7584 19.3986 35.6227 19.5558 35.4972 19.7325C33.8469 20.2654 33.5677 22.3163 33.6657 24.1121C33.6563 24.2597 33.648 24.4076 33.648 24.5575C33.648 27.2568 34.8365 30.3529 36.6887 32.3931C36.7428 32.4528 36.7991 32.5099 36.8554 32.5671C36.4946 33.5262 35.7236 34.7503 34.1003 35.03C34.1003 35.03 26.9276 36.1364 26.5778 41.4026C26.5778 41.4026 26.1456 44.1549 26.5082 47.4374C26.6299 48.5404 27.6937 49.4315 28.8494 49.4315H53.6051C54.7609 49.4315 55.7985 48.5373 55.9039 47.4329C56.1855 44.4913 55.8767 41.4026 55.8767 41.4026ZM45.5647 34.7546L45.9457 35.1608L46.0373 35.2584L46.1516 35.3298L46.4864 35.5391L43.9176 39.0829L42.9107 37.4875L42.8696 37.4223L42.8186 37.3638C42.7388 37.2723 42.7327 37.0914 42.798 36.9823L45.5647 34.7546ZM41.8448 38.8883H40.5913L40.2147 38.2461L40.3638 38.0098C40.4614 37.8977 40.5332 37.7692 40.5845 37.6332H41.8012C41.8525 37.7692 41.9243 37.8977 42.0219 38.0098L42.1913 38.2783L41.8448 38.8883ZM42.7514 45.2499C42.7665 45.3059 42.7212 45.4422 42.6621 45.4856L41.4183 46.399C41.3822 46.4255 41.2781 46.4256 41.242 46.3989L39.9983 45.4858C39.9321 45.4372 39.8795 45.2894 39.895 45.221L41.0389 39.8924H41.3712L42.7514 45.2499ZM42.0465 36.2796C41.9512 36.3832 41.88 36.5028 41.8256 36.6292H40.5601C40.5057 36.5028 40.4345 36.3832 40.3392 36.2796L37.3668 33.8865C37.4905 33.6806 37.5957 33.4741 37.6859 33.2724C38.6953 33.9835 39.8942 34.3698 41.0911 34.3698C42.2512 34.3698 43.4084 34.0083 44.3883 33.2311C44.4795 33.1586 44.5679 33.0826 44.6564 33.0067C44.7628 33.2775 44.8978 33.5637 45.0659 33.8486L42.0465 36.2796ZM35.8275 20.6846C36.0423 20.6152 36.2278 20.4801 36.3559 20.2998C36.3701 20.2799 37.8038 18.3044 40.5522 18.3042H40.5526C41.4292 18.3042 42.3627 18.5073 43.3271 18.9078C43.3349 18.911 43.3426 18.9142 43.3505 18.9173C43.6468 19.032 46.2966 20.039 48.0835 20.039C48.1003 20.039 48.1171 20.039 48.1337 20.0388C48.3919 21.3763 48.2416 23.3964 45.5029 24.4545C45.4903 24.4593 44.2225 24.9308 42.6643 24.9308C41.1193 24.9308 39.8456 24.4772 38.8787 23.5825C38.6816 23.4002 38.4223 23.3031 38.1582 23.3031C38.0414 23.3031 37.9236 23.3221 37.8098 23.3611C37.4387 23.4885 37.174 23.8068 37.1256 24.1838L37.0589 24.704L36.7294 24.4802C36.5492 24.3577 36.3396 24.297 36.1304 24.297C35.8974 24.297 35.6649 24.3723 35.4745 24.5215C35.2714 24.6806 35.0341 24.9202 34.8166 25.2278C34.5545 23.373 34.5916 21.0838 35.8275 20.6846ZM35.2342 27.7507C34.9484 26.2312 36.1303 25.3011 36.1303 25.3011L37.5307 26.2525C37.6088 26.313 37.6817 26.342 37.7435 26.342C37.8572 26.342 37.9327 26.2439 37.9327 26.0652L38.1584 24.3073C39.5359 25.5818 41.2202 25.9349 42.6643 25.9349C44.4602 25.9349 45.8846 25.3886 45.8846 25.3886C46.6345 25.099 47.2251 24.7469 47.6885 24.3586C47.6911 24.4249 47.697 24.4908 47.697 24.5575C47.697 25.2159 47.602 25.8841 47.4147 26.5432C46.7181 28.9944 45.3741 31.1494 43.7274 32.4555C42.9765 33.051 42.0649 33.3658 41.0911 33.3658C39.7337 33.3658 38.4145 32.7701 37.4715 31.7314C36.5018 30.6634 35.7192 29.2394 35.2342 27.7507ZM36.234 35.3298L36.3484 35.2584L36.44 35.1608L36.8209 34.7546L39.5876 36.9823C39.6529 37.0914 39.6468 37.2723 39.5671 37.3638L39.5161 37.4223L39.475 37.4875L38.4681 39.0829L35.8993 35.5391L36.234 35.3298ZM54.8676 47.3408C54.8125 47.9196 54.2224 48.4274 53.6051 48.4274H28.8494C28.2179 48.4274 27.6074 47.915 27.543 47.331C27.2002 44.2276 27.6027 41.5787 27.6068 41.553L27.6135 41.5101L27.6163 41.4668C27.9082 37.0732 34.2026 36.0314 34.2645 36.0216L34.2739 36.0202L34.2833 36.0185C34.4918 35.9826 34.6863 35.9325 34.8731 35.8752L37.7992 39.9122C37.9522 40.2306 38.1944 40.3945 38.4518 40.3945C38.6577 40.3945 38.8733 40.2896 39.0604 40.0747L39.5949 39.228L39.9784 39.8819L38.8771 45.0122C38.7749 45.4654 38.9812 46.0005 39.3679 46.2848L40.6116 47.198C40.8166 47.3485 41.0733 47.4237 41.3302 47.4237C41.587 47.4237 41.8439 47.3484 42.0485 47.198L43.2926 46.2845C43.6795 46.0002 43.8799 45.4466 43.76 45.0023L42.4436 39.8924H42.4611L42.816 39.2678L43.3252 40.0747C43.5124 40.2896 43.7279 40.3945 43.9338 40.3945C44.1912 40.3945 44.4335 40.2306 44.5864 39.9122L47.5246 35.8584C47.7281 35.9237 47.9419 35.9791 48.1712 36.0185L48.1806 36.0201L48.19 36.0216C48.2535 36.0314 54.5447 37.0524 54.8382 41.4668L54.8392 41.483L54.8409 41.4989C54.8438 41.529 55.137 44.5259 54.8676 47.3408Z" fill="white"/>
<path d="M19.7149 57.1442C19.9127 56.9992 20.206 56.8608 20.5948 56.729C20.9837 56.5972 21.4549 56.5312 22.0086 56.5312C22.3974 56.5312 22.7501 56.5675 23.0664 56.64C23.3828 56.7059 23.653 56.8114 23.8771 56.9564C24.1078 57.0948 24.2824 57.2727 24.4011 57.4902C24.5263 57.7077 24.5889 57.9681 24.5889 58.2713C24.5889 59.0688 24.1803 59.6125 23.363 59.9025C24.4176 60.0607 24.9448 60.6011 24.9448 61.5239C24.9448 61.8205 24.8855 62.1006 24.7669 62.3642C24.6482 62.6213 24.4703 62.8453 24.233 63.0365C23.9957 63.221 23.6991 63.3693 23.3432 63.4814C22.9939 63.5934 22.5886 63.6494 22.1272 63.6494C21.8109 63.6494 21.5143 63.6231 21.2374 63.5703C20.9672 63.5242 20.7201 63.4616 20.496 63.3825C20.2785 63.2968 20.0873 63.2045 19.9226 63.1057C19.7644 63.0002 19.6391 62.8948 19.5469 62.7893V61.2668C19.6523 61.4448 19.7874 61.6095 19.9522 61.7611C20.117 61.9127 20.3081 62.0445 20.5256 62.1566C20.7431 62.2686 20.987 62.3576 21.2572 62.4235C21.534 62.4828 21.8306 62.5125 22.147 62.5125C22.3579 62.5125 22.5556 62.4894 22.7402 62.4433C22.9247 62.3972 23.0829 62.3313 23.2147 62.2456C23.3531 62.1533 23.4619 62.0413 23.541 61.9094C23.6201 61.7776 23.6596 61.6227 23.6596 61.4448C23.6596 61.135 23.5377 60.9076 23.2938 60.7626C23.0565 60.6176 22.6677 60.5451 22.1272 60.5451H21.0793V59.5268H22.1173C22.3414 59.5268 22.5293 59.5038 22.6809 59.4576C22.8324 59.4049 22.9544 59.3357 23.0466 59.25C23.1389 59.1643 23.2048 59.0655 23.2444 58.9534C23.2905 58.8414 23.3136 58.7194 23.3136 58.5876C23.3136 58.4294 23.2806 58.2943 23.2147 58.1823C23.1488 58.0636 23.0565 57.9681 22.9379 57.8956C22.8193 57.8231 22.6809 57.7703 22.5227 57.7374C22.3645 57.6978 22.1931 57.6748 22.0086 57.6682C21.7449 57.6616 21.4945 57.6913 21.2572 57.7572C21.0265 57.8231 20.8123 57.9153 20.6146 58.034C20.4235 58.146 20.2488 58.2745 20.0906 58.4195C19.939 58.5645 19.8138 58.7128 19.7149 58.8644V57.1442Z" fill="white"/>
<path d="M26.2834 58.9534C26.4481 58.8282 26.6755 58.7227 26.9655 58.637C27.2621 58.5514 27.6246 58.5085 28.053 58.5085C28.778 58.5085 29.3185 58.6436 29.6744 58.9139C30.0303 59.1841 30.2082 59.6422 30.2082 60.2881V63.5506H29.1207V62.6608C29.0021 62.9508 28.7978 63.1848 28.5078 63.3627C28.2244 63.5407 27.8849 63.6297 27.4895 63.6297C26.9886 63.6297 26.5964 63.4978 26.313 63.2342C26.0362 62.964 25.8978 62.585 25.8978 62.0973C25.8978 61.8139 25.9472 61.5799 26.0461 61.3953C26.1449 61.2108 26.2834 61.0658 26.4613 60.9603C26.6393 60.8483 26.8535 60.7692 27.1039 60.7231C27.3544 60.6769 27.6312 60.6539 27.9344 60.6539H29.0515V60.4364C29.0515 60.087 28.9659 59.8465 28.7945 59.7147C28.6297 59.5828 28.3826 59.5169 28.053 59.5169C27.5982 59.5169 27.2324 59.5993 26.9556 59.7641C26.6788 59.9223 26.4547 60.1332 26.2834 60.3968V58.9534ZM27.8553 62.5916C28.053 62.5916 28.2211 62.5685 28.3595 62.5224C28.5045 62.4697 28.6264 62.407 28.7253 62.3345C28.8241 62.2555 28.8999 62.1698 28.9527 62.0775C29.0054 61.9852 29.0384 61.8963 29.0515 61.8106V61.4052H28.0728C27.7301 61.4052 27.4763 61.4448 27.3115 61.5239C27.1468 61.603 27.0644 61.7545 27.0644 61.9786C27.0644 62.1698 27.1303 62.3214 27.2621 62.4334C27.4005 62.5389 27.5982 62.5916 27.8553 62.5916Z" fill="white"/>
<path d="M31.5424 58.6074H32.6991V60.5352H33.4999L34.8839 58.6074H36.1692L34.4391 60.9406L36.446 63.5506H35.0421L33.49 61.5041H32.6991V63.5506H31.5424V58.6074Z" fill="white"/>
<path d="M37.3669 58.9534C37.5317 58.8282 37.759 58.7227 38.049 58.637C38.3456 58.5514 38.7081 58.5085 39.1366 58.5085C39.8616 58.5085 40.402 58.6436 40.7579 58.9139C41.1138 59.1841 41.2918 59.6422 41.2918 60.2881V63.5506H40.2043V62.6608C40.0856 62.9508 39.8813 63.1848 39.5913 63.3627C39.3079 63.5407 38.9685 63.6297 38.573 63.6297C38.0721 63.6297 37.68 63.4978 37.3965 63.2342C37.1197 62.964 36.9813 62.585 36.9813 62.0973C36.9813 61.8139 37.0308 61.5799 37.1296 61.3953C37.2285 61.2108 37.3669 61.0658 37.5448 60.9603C37.7228 60.8483 37.937 60.7692 38.1875 60.7231C38.4379 60.6769 38.7147 60.6539 39.0179 60.6539H40.1351V60.4364C40.1351 60.087 40.0494 59.8465 39.878 59.7147C39.7133 59.5828 39.4661 59.5169 39.1366 59.5169C38.6818 59.5169 38.316 59.5993 38.0392 59.7641C37.7623 59.9223 37.5383 60.1332 37.3669 60.3968V58.9534ZM38.9388 62.5916C39.1365 62.5916 39.3046 62.5685 39.443 62.5224C39.588 62.4697 39.71 62.407 39.8088 62.3345C39.9077 62.2555 39.9835 62.1698 40.0362 62.0775C40.0889 61.9852 40.1219 61.8963 40.1351 61.8106V61.4052H39.1563C38.8136 61.4052 38.5598 61.4448 38.3951 61.5239C38.2303 61.603 38.1479 61.7545 38.1479 61.9786C38.1479 62.1698 38.2138 62.3214 38.3456 62.4334C38.484 62.5389 38.6818 62.5916 38.9388 62.5916Z" fill="white"/>
<path d="M42.3787 61.86C42.5237 62.0775 42.7544 62.262 43.0708 62.4136C43.3871 62.5652 43.7793 62.641 44.2473 62.641C44.5768 62.641 44.8371 62.5916 45.0283 62.4927C45.2194 62.3939 45.315 62.239 45.315 62.0281C45.315 61.8369 45.2392 61.6985 45.0876 61.6128C44.936 61.5272 44.6921 61.4843 44.356 61.4843H43.5058V60.644H44.2077C44.4779 60.644 44.6921 60.6011 44.8503 60.5155C45.0151 60.4232 45.0975 60.2716 45.0975 60.0607C45.0975 59.8893 45.0349 59.7575 44.9096 59.6652C44.791 59.573 44.5801 59.5235 44.2769 59.5169C43.8617 59.5169 43.5025 59.5993 43.1993 59.7641C42.9027 59.9223 42.6589 60.1332 42.4677 60.3968V58.9534C42.6589 58.8282 42.9126 58.7227 43.229 58.637C43.5453 58.5514 43.8946 58.5085 44.2769 58.5085H44.3165C45.0019 58.5085 45.4995 58.6272 45.8093 58.8644C46.1191 59.0951 46.274 59.4049 46.274 59.7938C46.274 60.1101 46.1982 60.354 46.0466 60.5253C45.9016 60.6967 45.7039 60.8351 45.4534 60.9406C45.7895 61.0065 46.0433 61.1284 46.2146 61.3064C46.3926 61.4777 46.4816 61.7315 46.4816 62.0676C46.4816 62.3247 46.4256 62.552 46.3135 62.7498C46.2081 62.9475 46.0565 63.1156 45.8587 63.254C45.6676 63.3858 45.4336 63.4847 45.1568 63.5506C44.8866 63.6165 44.5834 63.6494 44.2473 63.6494C44.0298 63.6494 43.8221 63.6297 43.6244 63.5901C43.4267 63.5572 43.2454 63.511 43.0807 63.4517C42.9159 63.3924 42.7709 63.3298 42.6457 63.2639C42.527 63.1914 42.4381 63.1189 42.3787 63.0464V61.86Z" fill="white"/>
<path d="M50.5453 61.8106C50.374 61.9094 50.1762 61.9819 49.9522 62.0281C49.7281 62.0742 49.5007 62.0973 49.27 62.0973C48.6768 62.0973 48.2122 61.9589 47.876 61.682C47.5399 61.4052 47.3718 60.9702 47.3718 60.377V58.6074H48.5285V60.1991C48.5285 60.4957 48.6076 60.7165 48.7658 60.8615C48.9306 60.9999 49.1678 61.0691 49.4776 61.0691C49.8862 61.0691 50.2422 60.9933 50.5453 60.8417V58.6074H51.702V63.5506H50.5453V61.8106Z" fill="white"/>
<path d="M53.1111 58.6074H54.2579V61.9589L56.6306 58.6074H57.728V63.5506H56.5812V60.1595L54.2085 63.5506H53.1111V58.6074Z" fill="white"/>
<path d="M59.1353 58.6074H60.2921V60.5352H61.0928L62.4769 58.6074H63.7622L62.0321 60.9406L64.039 63.5506H62.6351L61.083 61.5041H60.2921V63.5506H59.1353V58.6074Z" fill="white"/>
<path d="M248.231 39.88C248.164 39.9179 246.583 40.8265 245.459 41.7053C245.189 41.9151 245.131 42.3189 245.325 42.6069C245.442 42.7808 245.626 42.8743 245.811 42.8743C245.933 42.8743 246.057 42.8339 246.162 42.7507C247.218 41.9278 248.78 41.0313 248.794 41.021C249.087 40.8545 249.197 40.4631 249.042 40.1474C248.886 39.8293 248.52 39.7156 248.231 39.88ZM240.037 25.1303C239.847 25.3223 235.377 29.9351 236.397 40.1071C236.432 40.4375 236.692 40.6827 236.995 40.6827C237.016 40.6827 237.037 40.6827 237.06 40.6798C237.389 40.6398 237.628 40.3213 237.593 39.9653C236.638 30.4823 240.815 26.1167 240.857 26.0739C241.099 25.8291 241.111 25.42 240.883 25.16C240.656 24.8979 240.281 24.888 240.037 25.1303ZM264.367 32.6261C264.107 31.8461 263.396 31.4295 262.96 31.24C259.618 17.9773 251.857 17.3008 250.326 17.3008L250.154 17.3061C242.253 17.3061 238.149 22.7038 238.022 22.8806C233.205 28.0665 232.952 37.0695 232.943 38.4709C231.704 40.8949 230.295 42.7276 230.257 42.7808C229.87 43.3543 229.762 43.9901 229.948 44.6263C230.545 46.6914 234.228 48.1356 234.629 48.2872C236.47 49.0474 238.182 49.4315 239.718 49.4315C242.415 49.4315 243.682 48.2345 243.665 48.2345C248.811 44.8257 253.567 41.0387 253.544 41.0387C259.616 38.0646 263.378 35.7646 263.973 34.6715C264.562 33.7749 264.513 33.0653 264.367 32.6261ZM262.939 34.0176C262.901 34.0781 261.918 35.517 252.936 39.9307C252.889 39.9686 248.159 43.7408 242.95 47.2048C242.941 47.2122 241.934 48.1385 239.718 48.1385C238.33 48.1385 236.761 47.7829 235.044 47.073C233.686 46.5604 231.411 45.3387 231.092 44.2402C231.045 44.0783 231.019 43.8512 231.205 43.5735C231.254 43.5105 232.194 42.2785 233.233 40.4832C233.31 41.0968 233.388 41.4552 233.395 41.4907C233.416 41.5842 233.456 41.6724 233.512 41.7457C235.412 44.2682 240.18 44.8537 240.382 44.8764C240.405 44.8813 240.426 44.8813 240.447 44.8813C240.63 44.8813 240.804 44.7907 240.919 44.6341C241.048 44.4598 241.083 44.225 241.012 44.0156C240.002 41.0008 241.003 37.9158 241.012 37.8829C241.123 37.5471 240.961 37.1787 240.649 37.0572C240.346 36.941 239.997 37.1099 239.882 37.4461C239.84 37.5747 238.93 40.3547 239.603 43.4376C238.245 43.1648 235.722 42.4857 234.535 41.0465C234.443 40.5463 234.169 38.7795 234.279 36.2244C234.584 33.0155 235.595 27.3219 238.916 23.7418C238.953 23.6915 242.823 18.5987 250.154 18.5987C250.166 18.5987 250.314 18.5962 250.326 18.5938C251.717 18.5938 258.809 19.2349 261.881 31.9046C261.938 32.1292 262.102 32.306 262.311 32.3665C262.55 32.432 263.118 32.7023 263.237 33.0657C263.328 33.3381 263.145 33.6941 262.939 34.0176ZM258.579 33.3253C258.511 33.3632 256.93 34.2722 255.807 35.1507C255.537 35.3604 255.478 35.7642 255.673 36.0518C255.79 36.2261 255.973 36.3196 256.159 36.3196C256.281 36.3196 256.405 36.2792 256.511 36.196C257.566 35.3732 259.128 34.4766 259.142 34.4663C259.435 34.2998 259.545 33.9084 259.391 33.5927C259.233 33.2726 258.868 33.1642 258.579 33.3253Z" fill="white"/>
<path d="M217.358 61.8009L221.134 56.6303H222.479V63.5508H221.243V58.3011L217.447 63.5508H216.122V56.6303H217.358V61.8009ZM228.017 63.0565C227.905 63.1949 227.704 63.33 227.414 63.4618C227.124 63.5936 226.778 63.6595 226.376 63.6595C225.981 63.6595 225.621 63.6068 225.299 63.5013C224.976 63.3893 224.699 63.2245 224.468 63.007C224.237 62.7895 224.059 62.5193 223.934 62.1963C223.809 61.8734 223.746 61.4944 223.746 61.0594C223.746 60.6376 223.809 60.2685 223.934 59.9521C224.066 59.6292 224.247 59.3623 224.478 59.1513C224.709 58.9338 224.985 58.7724 225.308 58.6669C225.631 58.5549 225.991 58.4988 226.386 58.4988C226.722 58.5054 227.029 58.5516 227.305 58.6373C227.582 58.7229 227.803 58.8284 227.968 58.9536V60.397C227.796 60.1334 227.579 59.9225 227.315 59.7643C227.058 59.5995 226.749 59.5138 226.386 59.5073C225.911 59.5073 225.549 59.6325 225.299 59.8829C225.048 60.1334 224.923 60.5091 224.923 61.01V61.1583C224.923 61.6724 225.051 62.0513 225.308 62.2952C225.572 62.5325 225.938 62.6511 226.406 62.6511C226.821 62.6511 227.16 62.5753 227.424 62.4237C227.694 62.2721 227.892 62.0876 228.017 61.8701V63.0565ZM232.386 59.6259H230.231V63.5508H229.074V58.6076H233.543V63.5508H232.386V59.6259ZM237.149 63.6595C236.76 63.6595 236.41 63.6068 236.101 63.5013C235.791 63.3893 235.524 63.2245 235.3 63.007C235.076 62.7895 234.904 62.5193 234.786 62.1963C234.667 61.8734 234.608 61.4944 234.608 61.0594C234.608 60.631 234.67 60.2586 234.796 59.9423C234.921 59.6193 235.096 59.3524 235.32 59.1415C235.544 58.924 235.814 58.7625 236.13 58.657C236.447 58.5516 236.799 58.4988 237.188 58.4988C237.57 58.4988 237.916 58.5549 238.226 58.6669C238.543 58.779 238.81 58.9437 239.027 59.1612C239.251 59.3787 239.423 59.649 239.541 59.9719C239.66 60.2949 239.719 60.6706 239.719 61.099C239.719 61.5274 239.656 61.9031 239.531 62.226C239.406 62.5424 239.231 62.806 239.007 63.0169C238.783 63.2278 238.513 63.3893 238.197 63.5013C237.88 63.6068 237.531 63.6595 237.149 63.6595ZM235.784 61.0891C235.784 61.6361 235.906 62.0349 236.15 62.2853C236.394 62.5292 236.733 62.6511 237.168 62.6511C237.61 62.6511 237.949 62.5259 238.187 62.2754C238.424 62.0184 238.543 61.6262 238.543 61.099V61.0693C238.543 60.5223 238.417 60.1268 238.167 59.8829C237.923 59.6325 237.584 59.5073 237.149 59.5073C236.707 59.5138 236.368 59.6457 236.13 59.9027C235.9 60.1532 235.784 60.5387 235.784 61.0594V61.0891ZM243.959 59.6259H242.358L242.328 60.2487C242.295 61.0199 242.226 61.6295 242.12 62.0777C242.022 62.5259 241.896 62.8653 241.745 63.096C241.593 63.3201 241.425 63.4618 241.241 63.5211C241.056 63.5804 240.868 63.6101 240.677 63.6101C240.585 63.6101 240.492 63.6035 240.4 63.5903C240.314 63.5837 240.245 63.5738 240.193 63.5607V62.3644C240.272 62.3908 240.357 62.404 240.45 62.404C240.555 62.404 240.654 62.3842 240.746 62.3446C240.845 62.2985 240.931 62.1865 241.003 62.0085C241.076 61.8306 241.135 61.5603 241.181 61.1978C241.234 60.8353 241.27 60.3311 241.29 59.6852L241.329 58.6076H245.106V63.5508H243.959V59.6259ZM249.911 61.5537H247.677V63.5508H246.52V58.6076H247.677V60.5354H249.911V58.6076H251.068V63.5508H249.911V61.5537ZM252.477 58.6076H253.624V61.9591L255.997 58.6076H257.094V63.5508H255.947V60.1598L253.574 63.5508H252.477V58.6076ZM259.628 59.6259H258.047V58.6076H262.377V59.6259H260.775V63.5508H259.628V59.6259ZM267.412 63.0565C267.352 63.129 267.267 63.2015 267.155 63.274C267.043 63.3399 266.908 63.4025 266.749 63.4618C266.591 63.5211 266.413 63.5673 266.215 63.6002C266.024 63.6332 265.817 63.6496 265.593 63.6496C264.769 63.6562 264.129 63.442 263.675 63.007C263.22 62.5654 262.993 61.9162 262.993 61.0594C262.993 60.6508 263.052 60.2883 263.17 59.9719C263.296 59.649 263.47 59.3787 263.694 59.1612C263.919 58.9437 264.182 58.779 264.485 58.6669C264.795 58.5549 265.138 58.4988 265.514 58.4988C266.232 58.5054 266.792 58.7196 267.194 59.1415C267.603 59.5633 267.807 60.1631 267.807 60.9408V61.4153H264.139C264.232 62.2392 264.729 62.6511 265.632 62.6511C266.087 62.6511 266.463 62.5753 266.759 62.4237C267.062 62.2721 267.28 62.0876 267.412 61.8701V63.0565ZM265.484 59.5073C265.108 59.5073 264.808 59.5995 264.584 59.7841C264.36 59.9686 264.218 60.2388 264.159 60.5948H266.65C266.637 60.2586 266.529 59.995 266.324 59.8038C266.12 59.6061 265.84 59.5073 265.484 59.5073ZM271.977 59.6259H270.375L270.346 60.2487C270.313 61.0199 270.244 61.6295 270.138 62.0777C270.039 62.5259 269.914 62.8653 269.763 63.096C269.611 63.3201 269.443 63.4618 269.258 63.5211C269.074 63.5804 268.886 63.6101 268.695 63.6101C268.603 63.6101 268.51 63.6035 268.418 63.5903C268.332 63.5837 268.263 63.5738 268.21 63.5607V62.3644C268.289 62.3908 268.375 62.404 268.467 62.404C268.573 62.404 268.672 62.3842 268.764 62.3446C268.863 62.2985 268.949 62.1865 269.021 62.0085C269.094 61.8306 269.153 61.5603 269.199 61.1978C269.252 60.8353 269.288 60.3311 269.308 59.6852L269.347 58.6076H273.124V63.5508H271.977V59.6259ZM278.749 61.7515C278.743 62.3842 278.565 62.8423 278.215 63.1257C277.866 63.4091 277.303 63.5508 276.525 63.5508H274.538V58.6076H275.694V60.0708H276.653C276.99 60.0708 277.286 60.0971 277.543 60.1499C277.807 60.2026 278.028 60.2949 278.206 60.4267C278.384 60.5519 278.519 60.7233 278.611 60.9408C278.703 61.1583 278.749 61.4285 278.749 61.7515ZM277.593 61.7416C277.579 61.4845 277.497 61.3132 277.345 61.2275C277.2 61.1352 276.94 61.0891 276.564 61.0891H275.694V62.5325H276.495C276.891 62.5325 277.171 62.4765 277.336 62.3644C277.507 62.2458 277.593 62.0382 277.593 61.7416Z" fill="white"/>
<path d="M193.899 45.6038C194.06 45.4429 194.06 45.1821 193.899 45.0212L191.277 42.3997C191.116 42.2388 190.856 42.2388 190.695 42.3997C190.534 42.5606 190.534 42.8214 190.695 42.9823L193.025 45.3125L190.695 47.6427C190.534 47.8036 190.534 48.0644 190.695 48.2253C190.856 48.3862 191.116 48.3862 191.277 48.2253L193.899 45.6038ZM144.176 45.7244L146.235 45.7244L146.235 44.9006L144.176 44.9006L144.176 45.7244ZM150.355 45.7244L154.474 45.7244L154.474 44.9006L150.355 44.9006L150.355 45.7244ZM158.593 45.7244L162.713 45.7244L162.713 44.9006L158.593 44.9006L158.593 45.7244ZM166.832 45.7244L170.951 45.7244L170.951 44.9006L166.832 44.9006L166.832 45.7244ZM175.071 45.7244L179.19 45.7244L179.19 44.9006L175.071 44.9006L175.071 45.7244ZM183.309 45.7244L187.429 45.7244L187.429 44.9006L183.309 44.9006L183.309 45.7244ZM191.548 45.7244L193.608 45.7244L193.608 44.9006L191.548 44.9006L191.548 45.7244ZM194.19 45.8951C194.512 45.5733 194.512 45.0517 194.19 44.7299L188.947 39.4869C188.625 39.1652 188.104 39.1652 187.782 39.4869C187.46 39.8086 187.46 40.3303 187.782 40.652L192.442 45.3125L187.782 49.973C187.46 50.2947 187.46 50.8164 187.782 51.1381C188.104 51.4598 188.625 51.4598 188.947 51.1381L194.19 45.8951ZM144.176 46.1364L146.235 46.1364L146.235 44.4886L144.176 44.4886L144.176 46.1364ZM150.355 46.1364L154.474 46.1364L154.474 44.4886L150.355 44.4886L150.355 46.1364ZM158.593 46.1364L162.713 46.1364L162.713 44.4886L158.593 44.4886L158.593 46.1364ZM166.832 46.1364L170.951 46.1364L170.951 44.4886L166.832 44.4886L166.832 46.1364ZM175.071 46.1364L179.19 46.1364L179.19 44.4886L175.071 44.4886L175.071 46.1364ZM183.309 46.1364L187.429 46.1364L187.429 44.4886L183.309 44.4886L183.309 46.1364ZM191.548 46.1364L193.608 46.1364L193.608 44.4886L191.548 44.4886L191.548 46.1364Z" fill="#404040"/>
<path d="M94.4527 45.6038C94.2918 45.4429 94.2918 45.1821 94.4527 45.0212L97.0742 42.3997C97.2351 42.2388 97.4959 42.2388 97.6568 42.3997C97.8176 42.5606 97.8176 42.8214 97.6568 42.9823L95.3265 45.3125L97.6568 47.6427C97.8176 47.8036 97.8176 48.0644 97.6568 48.2253C97.4959 48.3862 97.2351 48.3862 97.0742 48.2253L94.4527 45.6038ZM144.176 45.7244H142.116V44.9006H144.176V45.7244ZM137.997 45.7244H133.877V44.9006H137.997V45.7244ZM129.758 45.7244H125.639V44.9006H129.758V45.7244ZM121.52 45.7244H117.4V44.9006H121.52V45.7244ZM113.281 45.7244H109.162V44.9006H113.281V45.7244ZM105.042 45.7244H100.923V44.9006H105.042V45.7244ZM96.8036 45.7244H94.744V44.9006H96.8036V45.7244ZM94.1614 45.8951C93.8397 45.5733 93.8397 45.0517 94.1614 44.7299L99.4044 39.4869C99.7262 39.1652 100.248 39.1652 100.57 39.4869C100.891 39.8086 100.891 40.3303 100.57 40.652L95.9091 45.3125L100.57 49.973C100.891 50.2947 100.891 50.8164 100.57 51.1381C100.248 51.4598 99.7262 51.4598 99.4044 51.1381L94.1614 45.8951ZM144.176 46.1364H142.116V44.4886H144.176V46.1364ZM137.997 46.1364H133.877V44.4886H137.997V46.1364ZM129.758 46.1364H125.639V44.4886H129.758V46.1364ZM121.52 46.1364H117.4V44.4886H121.52V46.1364ZM113.281 46.1364H109.162V44.4886H113.281V46.1364ZM105.042 46.1364H100.923V44.4886H105.042V46.1364ZM96.8036 46.1364H94.744V44.4886H96.8036V46.1364Z" fill="#404040"/>
<path d="M117.51 24.0828C117.741 23.5215 117.94 22.7833 118.11 21.8682C118.287 20.9455 118.383 19.8575 118.398 18.6041L118.421 16.9316H123.842V24.0828H124.88V26.5049H123.911V25.0055H117.51V26.5049H116.541V24.0828H117.51ZM119.321 18.6387C119.305 19.1769 119.275 19.7037 119.228 20.2189C119.19 20.7264 119.136 21.2146 119.067 21.6837C118.998 22.145 118.913 22.5795 118.813 22.987C118.713 23.3946 118.606 23.7598 118.49 24.0828H122.804V17.8544H119.332L119.321 18.6387Z" fill="#404040"/>
<path d="M125.652 22.0989C125.652 21.5991 125.725 21.1647 125.871 20.7956C126.017 20.4188 126.217 20.1074 126.471 19.8613C126.725 19.6152 127.025 19.4307 127.371 19.3077C127.717 19.1846 128.094 19.1231 128.501 19.1231C129.408 19.1308 130.112 19.3846 130.612 19.8844C131.112 20.3842 131.362 21.1377 131.362 22.1451C131.362 22.6449 131.288 23.0832 131.142 23.4599C130.996 23.829 130.796 24.1366 130.543 24.3827C130.289 24.6287 129.989 24.8133 129.643 24.9363C129.297 25.0593 128.92 25.1208 128.513 25.1208C127.598 25.1132 126.89 24.8633 126.39 24.3711C125.898 23.8713 125.652 23.1139 125.652 22.0989ZM126.621 22.1335C126.621 22.8794 126.782 23.4253 127.105 23.7714C127.428 24.1174 127.897 24.2904 128.513 24.2904C129.12 24.2904 129.585 24.1135 129.908 23.7598C130.231 23.3984 130.393 22.8602 130.393 22.1451V22.1104C130.393 21.3723 130.227 20.8302 129.897 20.4841C129.574 20.1381 129.109 19.9613 128.501 19.9536C127.894 19.9536 127.428 20.1343 127.105 20.4957C126.782 20.8494 126.621 21.3838 126.621 22.0989V22.1335Z" fill="#404040"/>
<path d="M132.77 19.2385H136.622V20.092H133.727V25.0055H132.77V19.2385Z" fill="#404040"/>
<path d="M137.682 22.0989C137.682 21.5991 137.755 21.1647 137.901 20.7956C138.047 20.4188 138.247 20.1074 138.501 19.8613C138.755 19.6152 139.054 19.4307 139.4 19.3077C139.746 19.1846 140.123 19.1231 140.531 19.1231C141.438 19.1308 142.142 19.3846 142.641 19.8844C143.141 20.3842 143.391 21.1377 143.391 22.1451C143.391 22.6449 143.318 23.0832 143.172 23.4599C143.026 23.829 142.826 24.1366 142.572 24.3827C142.319 24.6287 142.019 24.8133 141.673 24.9363C141.327 25.0593 140.95 25.1208 140.542 25.1208C139.627 25.1132 138.92 24.8633 138.42 24.3711C137.928 23.8713 137.682 23.1139 137.682 22.0989ZM138.651 22.1335C138.651 22.8794 138.812 23.4253 139.135 23.7714C139.458 24.1174 139.927 24.2904 140.542 24.2904C141.15 24.2904 141.615 24.1135 141.938 23.7598C142.261 23.3984 142.422 22.8602 142.422 22.1451V22.1104C142.422 21.3723 142.257 20.8302 141.926 20.4841C141.603 20.1381 141.138 19.9613 140.531 19.9536C139.923 19.9536 139.458 20.1343 139.135 20.4957C138.812 20.8494 138.651 21.3838 138.651 22.0989V22.1335Z" fill="#404040"/>
<path d="M144.8 19.2385H147.372C148.102 19.2385 148.61 19.3538 148.894 19.5845C149.186 19.8075 149.332 20.1266 149.332 20.5418C149.332 20.9109 149.244 21.2108 149.067 21.4415C148.898 21.6645 148.656 21.8144 148.341 21.8913C148.525 21.9144 148.694 21.9528 148.848 22.0066C149.009 22.0605 149.144 22.1412 149.252 22.2489C149.367 22.3565 149.455 22.4949 149.517 22.6641C149.586 22.8333 149.621 23.0447 149.621 23.2985C149.621 23.8752 149.436 24.3058 149.067 24.5903C148.698 24.8671 148.118 25.0055 147.326 25.0055H144.8V19.2385ZM147.314 24.1751C147.791 24.1751 148.133 24.1058 148.341 23.9674C148.556 23.8213 148.663 23.6022 148.663 23.31C148.663 22.964 148.56 22.7333 148.352 22.6179C148.144 22.4949 147.856 22.4334 147.487 22.4334H145.757V24.1751H147.314ZM147.176 21.6145C147.537 21.6145 147.825 21.553 148.041 21.4299C148.256 21.3069 148.364 21.0839 148.364 20.761C148.364 20.4765 148.271 20.2919 148.087 20.2073C147.902 20.115 147.625 20.0689 147.256 20.0689L145.757 20.0804V21.6145H147.176Z" fill="#404040"/>
<path d="M150.624 22.0989C150.624 21.5991 150.697 21.1647 150.843 20.7956C150.989 20.4188 151.189 20.1074 151.443 19.8613C151.697 19.6152 151.996 19.4307 152.342 19.3077C152.688 19.1846 153.065 19.1231 153.473 19.1231C154.38 19.1308 155.084 19.3846 155.584 19.8844C156.083 20.3842 156.333 21.1377 156.333 22.1451C156.333 22.6449 156.26 23.0832 156.114 23.4599C155.968 23.829 155.768 24.1366 155.514 24.3827C155.261 24.6287 154.961 24.8133 154.615 24.9363C154.269 25.0593 153.892 25.1208 153.484 25.1208C152.569 25.1132 151.862 24.8633 151.362 24.3711C150.87 23.8713 150.624 23.1139 150.624 22.0989ZM151.593 22.1335C151.593 22.8794 151.754 23.4253 152.077 23.7714C152.4 24.1174 152.869 24.2904 153.484 24.2904C154.092 24.2904 154.557 24.1135 154.88 23.7598C155.203 23.3984 155.364 22.8602 155.364 22.1451V22.1104C155.364 21.3723 155.199 20.8302 154.868 20.4841C154.545 20.1381 154.08 19.9613 153.473 19.9536C152.865 19.9536 152.4 20.1343 152.077 20.4957C151.754 20.8494 151.593 21.3838 151.593 22.0989V22.1335Z" fill="#404040"/>
<path d="M157.742 19.2385H158.653V20.3457C158.799 20.0074 159.045 19.719 159.391 19.4807C159.737 19.2423 160.202 19.1231 160.787 19.1231C161.556 19.1231 162.167 19.35 162.621 19.8036C163.074 20.2573 163.301 20.9878 163.301 21.9951C163.301 22.5641 163.24 23.0486 163.116 23.4484C163.001 23.8406 162.828 24.1635 162.597 24.4173C162.374 24.6633 162.101 24.844 161.779 24.9594C161.456 25.0747 161.086 25.1324 160.671 25.1324C160.187 25.1324 159.775 25.0324 159.437 24.8325C159.106 24.6249 158.86 24.3865 158.699 24.1174V27.0816H157.742V19.2385ZM158.699 22.3642C158.699 22.964 158.864 23.433 159.195 23.7714C159.533 24.102 159.975 24.2673 160.521 24.2673C161.152 24.2673 161.609 24.0982 161.894 23.7598C162.186 23.4215 162.332 22.8525 162.332 22.0528C162.332 21.6683 162.29 21.3454 162.205 21.0839C162.121 20.8148 161.998 20.5995 161.836 20.438C161.682 20.2765 161.494 20.1612 161.271 20.092C161.048 20.0228 160.802 19.9882 160.533 19.9882C159.933 19.9882 159.479 20.1497 159.172 20.4726C158.872 20.7879 158.714 21.2339 158.699 21.8106V22.3642Z" fill="#404040"/>
<path d="M164.68 19.2385H165.637V21.0954H166.802C167.195 21.0954 167.537 21.1224 167.829 21.1762C168.129 21.23 168.379 21.3261 168.579 21.4645C168.779 21.6029 168.928 21.7952 169.028 22.0412C169.136 22.2796 169.19 22.5872 169.19 22.964C169.19 23.3408 169.144 23.6599 169.051 23.9213C168.959 24.1751 168.809 24.3827 168.602 24.5441C168.402 24.7056 168.14 24.8248 167.817 24.9017C167.494 24.9709 167.106 25.0055 166.652 25.0055H164.68V19.2385ZM169.986 19.2385H170.943V25.0055H169.986V19.2385ZM168.233 22.964C168.225 22.7487 168.194 22.5757 168.14 22.4449C168.094 22.3142 168.01 22.2143 167.887 22.1451C167.771 22.0682 167.614 22.0182 167.414 21.9951C167.221 21.9643 166.983 21.949 166.699 21.949H165.637V24.152H166.641C166.918 24.152 167.156 24.1366 167.356 24.1058C167.556 24.0674 167.721 24.0059 167.852 23.9213C167.983 23.829 168.079 23.706 168.14 23.5522C168.202 23.3984 168.233 23.2023 168.233 22.964Z" fill="#404040"/>
<circle cx="244.687" cy="251.279" r="41.1932" fill="#5BD595"/>
<path d="M234.057 262.598H238.97V263.735H235.292V264.97H236.647C237.603 264.97 238.318 265.152 238.792 265.514C239.273 265.877 239.514 266.44 239.514 267.205C239.514 267.587 239.445 267.923 239.306 268.213C239.174 268.497 238.98 268.737 238.723 268.935C238.473 269.126 238.169 269.271 237.813 269.37C237.458 269.469 237.059 269.518 236.617 269.518H234.057V262.598ZM235.292 266.107V268.381H236.607C236.851 268.381 237.072 268.361 237.27 268.322C237.474 268.282 237.645 268.216 237.784 268.124C237.929 268.032 238.038 267.91 238.11 267.758C238.189 267.6 238.229 267.406 238.229 267.175C238.229 266.76 238.09 266.48 237.813 266.335C237.543 266.183 237.141 266.107 236.607 266.107H235.292Z" fill="white"/>
<path d="M240.794 264.921C240.959 264.796 241.186 264.69 241.476 264.605C241.772 264.519 242.135 264.476 242.563 264.476C243.288 264.476 243.829 264.611 244.185 264.881C244.541 265.152 244.719 265.61 244.719 266.256V269.518H243.631V268.628C243.512 268.918 243.308 269.152 243.018 269.33C242.735 269.508 242.395 269.597 242 269.597C241.499 269.597 241.107 269.465 240.823 269.202C240.547 268.932 240.408 268.553 240.408 268.065C240.408 267.781 240.458 267.547 240.556 267.363C240.655 267.178 240.794 267.033 240.972 266.928C241.15 266.816 241.364 266.737 241.614 266.691C241.865 266.644 242.142 266.621 242.445 266.621H243.562V266.404C243.562 266.055 243.476 265.814 243.305 265.682C243.14 265.55 242.893 265.484 242.563 265.484C242.109 265.484 241.743 265.567 241.466 265.732C241.189 265.89 240.965 266.101 240.794 266.364V264.921ZM242.366 268.559C242.563 268.559 242.731 268.536 242.87 268.49C243.015 268.437 243.137 268.375 243.236 268.302C243.335 268.223 243.41 268.137 243.463 268.045C243.516 267.953 243.549 267.864 243.562 267.778V267.373H242.583C242.24 267.373 241.987 267.412 241.822 267.491C241.657 267.57 241.575 267.722 241.575 267.946C241.575 268.137 241.641 268.289 241.772 268.401C241.911 268.506 242.109 268.559 242.366 268.559Z" fill="white"/>
<path d="M249.444 267.521H247.209V269.518H246.053V264.575H247.209V266.503H249.444V264.575H250.6V269.518H249.444V267.521Z" fill="white"/>
<path d="M252 264.575H253.157V266.503H253.958L255.342 264.575H256.627L254.897 266.908L256.904 269.518H255.5L253.948 267.472H253.157V269.518H252V264.575Z" fill="white"/>
<g clip-path="url(#clip0)">
<path d="M244.583 224.168L230.039 231.171V234.814H260.162V231.151L244.583 224.168ZM258.153 232.806H232.047V232.433L244.613 226.382L258.153 232.452V232.806Z" fill="white" stroke="#5BD595" stroke-width="0.823864"/>
<path d="M232.047 248.871H258.153V250.879H232.047V248.871Z" fill="white" stroke="#5BD595" stroke-width="0.823864"/>
<path d="M230.039 252.387H260.162V254.395H230.039V252.387Z" fill="white" stroke="#5BD595" stroke-width="0.823864"/>
<path d="M232.549 236.822H234.557V246.863H232.549V236.822Z" fill="white" stroke="#5BD595" stroke-width="0.823864"/>
<path d="M255.643 236.822H257.651V246.863H255.643V236.822Z" fill="white" stroke="#5BD595" stroke-width="0.823864"/>
<path d="M249.619 236.822H251.627V246.863H249.619V236.822Z" fill="white" stroke="#5BD595" stroke-width="0.823864"/>
<path d="M238.574 236.822H240.582V246.863H238.574V236.822Z" fill="white" stroke="#5BD595" stroke-width="0.823864"/>
<path d="M244.096 236.822H246.104V246.863H244.096V236.822Z" fill="white" stroke="#5BD595" stroke-width="0.823864"/>
</g>
<circle cx="42.0174" cy="251.279" r="41.1932" fill="#5BD595"/>
<path d="M31.3848 262.598H36.2983V263.735H32.6206V264.97H33.975C34.9307 264.97 35.6458 265.152 36.1203 265.514C36.6015 265.877 36.842 266.44 36.842 267.205C36.842 267.587 36.7728 267.923 36.6344 268.213C36.5026 268.497 36.3082 268.737 36.0511 268.935C35.8007 269.126 35.4975 269.271 35.1416 269.37C34.7857 269.469 34.3869 269.518 33.9453 269.518H31.3848V262.598ZM32.6206 266.107V268.381H33.9354C34.1793 268.381 34.4001 268.361 34.5978 268.322C34.8022 268.282 34.9735 268.216 35.1119 268.124C35.2569 268.032 35.3657 267.91 35.4382 267.758C35.5173 267.6 35.5568 267.406 35.5568 267.175C35.5568 266.76 35.4184 266.48 35.1416 266.335C34.8714 266.183 34.4693 266.107 33.9354 266.107H32.6206Z" fill="white"/>
<path d="M38.1219 264.921C38.2866 264.796 38.514 264.69 38.804 264.605C39.1006 264.519 39.4631 264.476 39.8915 264.476C40.6165 264.476 41.157 264.611 41.5129 264.881C41.8688 265.152 42.0467 265.61 42.0467 266.256V269.518H40.9592V268.628C40.8406 268.918 40.6363 269.152 40.3463 269.33C40.0629 269.508 39.7235 269.597 39.328 269.597C38.8271 269.597 38.4349 269.465 38.1515 269.202C37.8747 268.932 37.7363 268.553 37.7363 268.065C37.7363 267.781 37.7857 267.547 37.8846 267.363C37.9834 267.178 38.1219 267.033 38.2998 266.928C38.4778 266.816 38.692 266.737 38.9424 266.691C39.1929 266.644 39.4697 266.621 39.7729 266.621H40.89V266.404C40.89 266.055 40.8044 265.814 40.633 265.682C40.4682 265.55 40.2211 265.484 39.8915 265.484C39.4367 265.484 39.071 265.567 38.7941 265.732C38.5173 265.89 38.2932 266.101 38.1219 266.364V264.921ZM39.6938 268.559C39.8915 268.559 40.0596 268.536 40.198 268.49C40.343 268.437 40.4649 268.375 40.5638 268.302C40.6627 268.223 40.7385 268.137 40.7912 268.045C40.8439 267.953 40.8769 267.864 40.89 267.778V267.373H39.9113C39.5686 267.373 39.3148 267.412 39.15 267.491C38.9853 267.57 38.9029 267.722 38.9029 267.946C38.9029 268.137 38.9688 268.289 39.1006 268.401C39.239 268.506 39.4367 268.559 39.6938 268.559Z" fill="white"/>
<path d="M46.7719 267.521H44.5376V269.518H43.3809V264.575H44.5376V266.503H46.7719V264.575H47.9286V269.518H46.7719V267.521Z" fill="white"/>
<path d="M49.3281 264.575H50.4848V266.503H51.2856L52.6697 264.575H53.9549L52.2248 266.908L54.2318 269.518H52.8279L51.2757 267.472H50.4848V269.518H49.3281V264.575Z" fill="white"/>
<g clip-path="url(#clip1)">
<path d="M41.9113 224.168L27.3672 231.171V234.814H57.4897V231.151L41.9113 224.168ZM55.4815 232.806H29.3754V232.433L41.9415 226.382L55.4815 232.452V232.806Z" fill="white" stroke="#5BD595" stroke-width="0.823864"/>
<path d="M29.375 248.871H55.4812V250.879H29.375V248.871Z" fill="white" stroke="#5BD595" stroke-width="0.823864"/>
<path d="M27.3672 252.387H57.4897V254.395H27.3672V252.387Z" fill="white" stroke="#5BD595" stroke-width="0.823864"/>
<path d="M29.8789 236.822H31.8871V246.863H29.8789V236.822Z" fill="white" stroke="#5BD595" stroke-width="0.823864"/>
<path d="M52.9727 236.822H54.9808V246.863H52.9727V236.822Z" fill="white" stroke="#5BD595" stroke-width="0.823864"/>
<path d="M46.9473 236.822H48.9554V246.863H46.9473V236.822Z" fill="white" stroke="#5BD595" stroke-width="0.823864"/>
<path d="M35.9023 236.822H37.9105V246.863H35.9023V236.822Z" fill="white" stroke="#5BD595" stroke-width="0.823864"/>
<path d="M41.4258 236.822H43.4339V246.863H41.4258V236.822Z" fill="white" stroke="#5BD595" stroke-width="0.823864"/>
</g>
<path d="M244.979 98.5718C244.818 98.411 244.557 98.411 244.396 98.5718L241.775 101.193C241.614 101.354 241.614 101.615 241.775 101.776C241.936 101.937 242.196 101.937 242.357 101.776L244.688 99.4457L247.018 101.776C247.179 101.937 247.439 101.937 247.6 101.776C247.761 101.615 247.761 101.354 247.6 101.193L244.979 98.5718ZM245.099 148.295L245.099 146.235L244.276 146.235L244.276 148.295L245.099 148.295ZM245.099 142.116L245.099 137.997L244.276 137.997L244.276 142.116L245.099 142.116ZM245.099 133.877L245.099 129.758L244.276 129.758L244.276 133.877L245.099 133.877ZM245.099 125.639L245.099 121.519L244.276 121.519L244.276 125.639L245.099 125.639ZM245.099 117.4L245.099 113.281L244.276 113.281L244.276 117.4L245.099 117.4ZM245.099 109.161L245.099 105.042L244.276 105.042L244.276 109.161L245.099 109.161ZM245.099 100.923L245.099 98.8631L244.276 98.8631L244.276 100.923L245.099 100.923ZM245.27 98.2805C244.948 97.9588 244.427 97.9588 244.105 98.2805L238.862 103.524C238.54 103.845 238.54 104.367 238.862 104.689C239.184 105.01 239.705 105.01 240.027 104.689L244.688 100.028L249.348 104.689C249.67 105.01 250.191 105.01 250.513 104.689C250.835 104.367 250.835 103.845 250.513 103.524L245.27 98.2805ZM245.511 148.295L245.511 146.235L243.864 146.235L243.864 148.295L245.511 148.295ZM245.511 142.116L245.511 137.997L243.864 137.997L243.864 142.116L245.511 142.116ZM245.511 133.877L245.511 129.758L243.864 129.758L243.864 133.877L245.511 133.877ZM245.511 125.639L245.511 121.519L243.864 121.519L243.864 125.639L245.511 125.639ZM245.511 117.4L245.511 113.281L243.864 113.281L243.864 117.4L245.511 117.4ZM245.511 109.161L245.511 105.042L243.864 105.042L243.864 109.161L245.511 109.161ZM245.511 100.923L245.511 98.8631L243.864 98.8631L243.864 100.923L245.511 100.923Z" fill="#404040"/>
<path d="M244.979 198.018C244.818 198.179 244.557 198.179 244.396 198.018L241.775 195.397C241.614 195.236 241.614 194.975 241.775 194.814C241.936 194.653 242.196 194.653 242.357 194.814L244.688 197.144L247.018 194.814C247.179 194.653 247.439 194.653 247.6 194.814C247.761 194.975 247.761 195.236 247.6 195.397L244.979 198.018ZM245.099 148.295L245.099 150.355L244.276 150.355L244.276 148.295L245.099 148.295ZM245.099 154.474L245.099 158.593L244.276 158.593L244.276 154.474L245.099 154.474ZM245.099 162.713L245.099 166.832L244.276 166.832L244.276 162.713L245.099 162.713ZM245.099 170.951L245.099 175.07L244.276 175.07L244.276 170.951L245.099 170.951ZM245.099 179.19L245.099 183.309L244.276 183.309L244.276 179.19L245.099 179.19ZM245.099 187.428L245.099 191.548L244.276 191.548L244.276 187.428L245.099 187.428ZM245.099 195.667L245.099 197.727L244.276 197.727L244.276 195.667L245.099 195.667ZM245.27 198.309C244.948 198.631 244.427 198.631 244.105 198.309L238.862 193.066C238.54 192.745 238.54 192.223 238.862 191.901C239.184 191.579 239.705 191.579 240.027 191.901L244.688 196.562L249.348 191.901C249.67 191.579 250.191 191.579 250.513 191.901C250.835 192.223 250.835 192.745 250.513 193.066L245.27 198.309ZM245.511 148.295L245.511 150.355L243.864 150.355L243.864 148.295L245.511 148.295ZM245.511 154.474L245.511 158.593L243.864 158.593L243.864 154.474L245.511 154.474ZM245.511 162.713L245.511 166.832L243.864 166.832L243.864 162.713L245.511 162.713ZM245.511 170.951L245.511 175.07L243.864 175.07L243.864 170.951L245.511 170.951ZM245.511 179.19L245.511 183.309L243.864 183.309L243.864 179.19L245.511 179.19ZM245.511 187.428L245.511 191.548L243.864 191.548L243.864 187.428L245.511 187.428ZM245.511 195.667L245.511 197.727L243.864 197.727L243.864 195.667L245.511 195.667Z" fill="#404040"/>
<path d="M223.444 165.15C223.567 165.25 223.69 165.392 223.813 165.577C223.937 165.762 224.048 165.981 224.148 166.234C224.248 166.481 224.329 166.761 224.39 167.076C224.459 167.384 224.494 167.715 224.494 168.068C224.494 168.714 224.398 169.299 224.206 169.822C224.006 170.337 223.729 170.775 223.375 171.136C223.014 171.498 222.575 171.779 222.06 171.978C221.545 172.171 220.968 172.267 220.33 172.267C219.73 172.267 219.181 172.171 218.681 171.978C218.173 171.786 217.735 171.509 217.366 171.148C216.997 170.779 216.708 170.337 216.501 169.822C216.293 169.299 216.189 168.707 216.189 168.045C216.189 167.715 216.216 167.407 216.27 167.123C216.316 166.838 216.382 166.584 216.466 166.361C216.543 166.131 216.632 165.931 216.732 165.762C216.824 165.592 216.916 165.462 217.008 165.369H218.635C218.442 165.485 218.258 165.631 218.081 165.808C217.896 165.985 217.735 166.188 217.597 166.419C217.451 166.65 217.335 166.903 217.251 167.18C217.158 167.457 217.112 167.745 217.112 168.045C217.112 168.53 217.189 168.968 217.343 169.36C217.497 169.745 217.716 170.071 218 170.341C218.285 170.61 218.627 170.817 219.027 170.963C219.419 171.11 219.857 171.183 220.342 171.183C220.795 171.183 221.218 171.117 221.61 170.986C221.995 170.856 222.333 170.664 222.625 170.41C222.91 170.148 223.137 169.825 223.306 169.441C223.475 169.056 223.564 168.614 223.571 168.115C223.571 167.745 223.529 167.407 223.444 167.1C223.352 166.784 223.233 166.504 223.087 166.258C222.933 166.004 222.76 165.785 222.568 165.6C222.368 165.416 222.16 165.266 221.945 165.15H223.444Z" fill="#404040"/>
<path d="M223.467 163.711C223.252 163.611 223.014 163.522 222.752 163.446C222.491 163.369 222.195 163.303 221.864 163.249C221.526 163.188 221.145 163.142 220.722 163.111C220.299 163.08 219.815 163.065 219.269 163.065H218.612L218.612 159.005H223.467V158.071H225.878V158.982H224.379L224.379 163.492H225.878V164.403H223.467V163.711ZM219.938 162.165C220.676 162.181 221.326 162.234 221.887 162.327C222.449 162.411 222.975 162.557 223.467 162.765L223.467 159.962L219.465 159.962L219.465 162.154L219.938 162.165Z" fill="#404040"/>
<path d="M218.496 154.462C218.496 153.662 218.735 153.039 219.211 152.593C219.688 152.14 220.357 151.913 221.218 151.913H221.841V156.33C222.464 156.284 222.925 156.1 223.225 155.777C223.517 155.454 223.664 155.008 223.664 154.439C223.664 153.885 223.567 153.431 223.375 153.078C223.183 152.724 222.948 152.47 222.672 152.316H223.79C223.967 152.463 224.129 152.712 224.275 153.066C224.421 153.412 224.494 153.87 224.494 154.439C224.494 155.354 224.244 156.061 223.744 156.561C223.244 157.061 222.487 157.311 221.472 157.311C220.972 157.311 220.538 157.238 220.169 157.092C219.792 156.945 219.481 156.745 219.234 156.492C218.988 156.238 218.804 155.938 218.681 155.592C218.558 155.246 218.496 154.869 218.496 154.462ZM219.327 154.462C219.327 155.008 219.469 155.438 219.753 155.754C220.038 156.069 220.461 156.257 221.022 156.319L221.022 152.87H221.011C220.457 152.87 220.038 153.02 219.753 153.32C219.469 153.62 219.327 154 219.327 154.462Z" fill="#404040"/>
<path d="M219.465 146.861V149.098L219.903 149.11C220.619 149.133 221.23 149.175 221.737 149.237C222.237 149.298 222.656 149.375 222.995 149.468C223.333 149.56 223.598 149.664 223.79 149.779C223.983 149.894 224.129 150.017 224.229 150.148C224.321 150.279 224.379 150.413 224.402 150.552C224.432 150.69 224.448 150.829 224.448 150.967C224.448 151.144 224.429 151.298 224.39 151.428H223.364C223.387 151.328 223.398 151.232 223.398 151.14C223.398 151.04 223.391 150.948 223.375 150.863C223.352 150.771 223.298 150.686 223.214 150.609C223.129 150.525 223.006 150.452 222.845 150.39C222.675 150.321 222.445 150.26 222.153 150.206C221.853 150.152 221.48 150.11 221.034 150.079C220.588 150.04 220.046 150.01 219.407 149.987L218.612 149.964L218.612 145.904H224.379V146.861H219.465Z" fill="#404040"/>
<path d="M218.612 144.054V143.097H221.022V142.059L218.612 140.248V139.152L221.334 141.263L224.379 138.772V139.983L221.841 142.059V143.097L224.379 143.097V144.054H218.612Z" fill="#404040"/>
<path d="M219.05 137.53C218.904 137.338 218.777 137.077 218.669 136.746C218.554 136.408 218.496 136.016 218.496 135.57C218.496 135.2 218.531 134.87 218.6 134.578C218.669 134.285 218.785 134.039 218.946 133.839C219.108 133.632 219.323 133.474 219.592 133.367C219.853 133.259 220.18 133.205 220.572 133.205H224.379V134.116H223.398C223.721 134.27 223.983 134.52 224.183 134.866C224.375 135.204 224.471 135.604 224.471 136.066C224.471 136.642 224.321 137.104 224.021 137.45C223.721 137.796 223.275 137.969 222.683 137.969C222.368 137.969 222.106 137.915 221.899 137.807C221.684 137.692 221.514 137.53 221.391 137.323C221.261 137.115 221.172 136.861 221.126 136.561C221.072 136.262 221.045 135.919 221.045 135.535V134.162H220.584C220.338 134.162 220.134 134.197 219.973 134.266C219.811 134.335 219.684 134.432 219.592 134.555C219.492 134.678 219.423 134.828 219.384 135.004C219.346 135.174 219.327 135.362 219.327 135.57C219.327 136.023 219.427 136.415 219.627 136.746C219.827 137.069 220.088 137.33 220.411 137.53H219.05ZM223.583 135.823C223.583 135.531 223.541 135.285 223.456 135.085C223.371 134.877 223.271 134.708 223.156 134.578C223.033 134.447 222.906 134.351 222.775 134.289C222.645 134.22 222.529 134.178 222.429 134.162H221.807V135.5C221.807 136.023 221.86 136.404 221.968 136.642C222.076 136.873 222.295 136.988 222.625 136.988C222.91 136.988 223.141 136.892 223.318 136.7C223.494 136.508 223.583 136.215 223.583 135.823Z" fill="#404040"/>
<path d="M224.379 128.742H223.675C222.96 127.904 222.353 127.22 221.853 126.689C221.353 126.151 220.918 125.728 220.549 125.42C220.18 125.113 219.853 124.905 219.569 124.798C219.284 124.682 219.004 124.625 218.727 124.625C218.243 124.625 217.87 124.771 217.608 125.063C217.339 125.355 217.204 125.759 217.204 126.274C217.197 126.751 217.281 127.174 217.458 127.543C217.635 127.912 217.885 128.227 218.208 128.489H217.043C216.943 128.389 216.843 128.262 216.743 128.108C216.635 127.954 216.543 127.777 216.466 127.577C216.382 127.377 216.316 127.151 216.27 126.897C216.224 126.643 216.201 126.37 216.201 126.078C216.216 125.301 216.428 124.698 216.835 124.267C217.243 123.829 217.808 123.61 218.531 123.61C218.877 123.61 219.211 123.66 219.534 123.76C219.85 123.859 220.176 124.029 220.515 124.267C220.853 124.505 221.218 124.817 221.61 125.201C221.995 125.586 222.422 126.059 222.891 126.62L223.433 127.254V123.379L224.379 123.379V128.742Z" fill="#404040"/>
<path d="M42.3089 98.5738C42.148 98.4129 41.8872 98.4129 41.7263 98.5738L39.1048 101.195C38.9439 101.356 38.9439 101.617 39.1048 101.778C39.2657 101.939 39.5265 101.939 39.6873 101.778L42.0176 99.4476L44.3478 101.778C44.5087 101.939 44.7695 101.939 44.9304 101.778C45.0912 101.617 45.0912 101.356 44.9304 101.195L42.3089 98.5738ZM42.4295 148.297L42.4295 146.237L41.6056 146.237L41.6056 148.297L42.4295 148.297ZM42.4295 142.118L42.4295 137.999L41.6056 137.999L41.6056 142.118L42.4295 142.118ZM42.4295 133.879L42.4295 129.76L41.6056 129.76L41.6056 133.879L42.4295 133.879ZM42.4295 125.641L42.4295 121.521L41.6056 121.521L41.6056 125.641L42.4295 125.641ZM42.4295 117.402L42.4295 113.283L41.6056 113.283L41.6056 117.402L42.4295 117.402ZM42.4295 109.163L42.4295 105.044L41.6056 105.044L41.6056 109.163L42.4295 109.163ZM42.4295 100.925L42.4295 98.8651L41.6056 98.8651L41.6056 100.925L42.4295 100.925ZM42.6001 98.2825C42.2784 97.9608 41.7568 97.9608 41.435 98.2825L36.192 103.526C35.8702 103.847 35.8702 104.369 36.192 104.691C36.5137 105.012 37.0354 105.012 37.3571 104.691L42.0176 100.03L46.6781 104.691C46.9998 105.012 47.5214 105.012 47.8432 104.691C48.1649 104.369 48.1649 103.847 47.8432 103.526L42.6001 98.2825ZM42.8414 148.297L42.8414 146.237L41.1937 146.237L41.1937 148.297L42.8414 148.297ZM42.8414 142.118L42.8414 137.999L41.1937 137.999L41.1937 142.118L42.8414 142.118ZM42.8414 133.879L42.8414 129.76L41.1937 129.76L41.1937 133.879L42.8414 133.879ZM42.8414 125.641L42.8414 121.521L41.1937 121.521L41.1937 125.641L42.8414 125.641ZM42.8414 117.402L42.8414 113.283L41.1937 113.283L41.1937 117.402L42.8414 117.402ZM42.8414 109.163L42.8414 105.044L41.1937 105.044L41.1937 109.163L42.8414 109.163ZM42.8414 100.925L42.8414 98.8651L41.1937 98.8651L41.1937 100.925L42.8414 100.925Z" fill="#404040"/>
<path d="M42.3089 198.02C42.148 198.181 41.8872 198.181 41.7263 198.02L39.1048 195.398C38.9439 195.238 38.9439 194.977 39.1048 194.816C39.2657 194.655 39.5265 194.655 39.6873 194.816L42.0176 197.146L44.3478 194.816C44.5087 194.655 44.7695 194.655 44.9304 194.816C45.0912 194.977 45.0912 195.238 44.9304 195.398L42.3089 198.02ZM42.4295 148.297L42.4295 150.357L41.6056 150.357L41.6056 148.297L42.4295 148.297ZM42.4295 154.476L42.4295 158.595L41.6056 158.595L41.6056 154.476L42.4295 154.476ZM42.4295 162.714L42.4295 166.834L41.6056 166.834L41.6056 162.714L42.4295 162.714ZM42.4295 170.953L42.4295 175.072L41.6056 175.072L41.6056 170.953L42.4295 170.953ZM42.4295 179.192L42.4295 183.311L41.6056 183.311L41.6056 179.192L42.4295 179.192ZM42.4295 187.43L42.4295 191.55L41.6056 191.55L41.6056 187.43L42.4295 187.43ZM42.4295 195.669L42.4295 197.729L41.6056 197.729L41.6056 195.669L42.4295 195.669ZM42.6001 198.311C42.2784 198.633 41.7568 198.633 41.435 198.311L36.192 193.068C35.8702 192.746 35.8702 192.225 36.192 191.903C36.5137 191.581 37.0354 191.581 37.3571 191.903L42.0176 196.564L46.6781 191.903C46.9998 191.581 47.5214 191.581 47.8432 191.903C48.1649 192.225 48.1649 192.746 47.8432 193.068L42.6001 198.311ZM42.8414 148.297L42.8414 150.357L41.1937 150.357L41.1937 148.297L42.8414 148.297ZM42.8414 154.476L42.8414 158.595L41.1937 158.595L41.1937 154.476L42.8414 154.476ZM42.8414 162.714L42.8414 166.834L41.1937 166.834L41.1937 162.714L42.8414 162.714ZM42.8414 170.953L42.8414 175.072L41.1937 175.072L41.1937 170.953L42.8414 170.953ZM42.8414 179.192L42.8414 183.311L41.1937 183.311L41.1937 179.192L42.8414 179.192ZM42.8414 187.43L42.8414 191.55L41.1937 191.55L41.1937 187.43L42.8414 187.43ZM42.8414 195.669L42.8414 197.729L41.1937 197.729L41.1937 195.669L42.8414 195.669Z" fill="#404040"/>
<path d="M20.7764 164.347C20.8995 164.447 21.0225 164.589 21.1455 164.774C21.2685 164.958 21.38 165.178 21.48 165.431C21.58 165.677 21.6607 165.958 21.7222 166.273C21.7914 166.581 21.826 166.912 21.826 167.265C21.826 167.911 21.7299 168.496 21.5377 169.018C21.3378 169.534 21.0609 169.972 20.7072 170.333C20.3458 170.695 19.9075 170.975 19.3923 171.175C18.8771 171.368 18.3004 171.464 17.6622 171.464C17.0625 171.464 16.5127 171.368 16.0128 171.175C15.5053 170.983 15.0671 170.706 14.698 170.345C14.3289 169.976 14.0405 169.534 13.8329 169.018C13.6253 168.496 13.5215 167.903 13.5215 167.242C13.5215 166.912 13.5484 166.604 13.6022 166.319C13.6484 166.035 13.7137 165.781 13.7983 165.558C13.8752 165.328 13.9636 165.128 14.0636 164.958C14.1559 164.789 14.2481 164.659 14.3404 164.566H15.9667C15.7745 164.682 15.5899 164.828 15.4131 165.005C15.2285 165.181 15.0671 165.385 14.9286 165.616C14.7825 165.847 14.6672 166.1 14.5826 166.377C14.4903 166.654 14.4442 166.942 14.4442 167.242C14.4442 167.727 14.5211 168.165 14.6749 168.557C14.8287 168.942 15.0478 169.268 15.3323 169.537C15.6168 169.807 15.959 170.014 16.3589 170.16C16.751 170.306 17.1893 170.379 17.6738 170.379C18.1274 170.379 18.5503 170.314 18.9425 170.183C19.327 170.053 19.6653 169.86 19.9575 169.607C20.242 169.345 20.4689 169.022 20.638 168.638C20.8072 168.253 20.8956 167.811 20.9033 167.311C20.9033 166.942 20.861 166.604 20.7764 166.296C20.6842 165.981 20.565 165.7 20.4189 165.454C20.2651 165.201 20.0921 164.981 19.8998 164.797C19.6999 164.612 19.4923 164.462 19.277 164.347H20.7764Z" fill="#404040"/>
<path d="M20.7995 162.908C20.5842 162.808 20.3458 162.719 20.0844 162.642C19.8229 162.566 19.5269 162.5 19.1963 162.446C18.8579 162.385 18.4773 162.339 18.0544 162.308C17.6315 162.277 17.147 162.262 16.6011 162.262H15.9436L15.9436 158.202H20.7995V157.268H23.2101V158.179H21.7107L21.7107 162.689H23.2101V163.6H20.7995V162.908ZM17.2701 161.362C18.0082 161.378 18.658 161.431 19.2193 161.524C19.7807 161.608 20.3074 161.754 20.7995 161.962L20.7995 159.159H16.7972L16.7972 161.351L17.2701 161.362Z" fill="#404040"/>
<path d="M15.8283 153.659C15.8283 152.859 16.0667 152.236 16.5434 151.79C17.0202 151.336 17.6891 151.11 18.5503 151.11H19.1732V155.527C19.796 155.481 20.2574 155.296 20.5573 154.974C20.8495 154.651 20.9956 154.205 20.9956 153.636C20.9956 153.082 20.8995 152.628 20.7072 152.275C20.515 151.921 20.2805 151.667 20.0036 151.513L21.1224 151.513C21.2993 151.659 21.4608 151.909 21.6069 152.263C21.753 152.609 21.826 153.067 21.826 153.636C21.826 154.551 21.5761 155.258 21.0763 155.758C20.5765 156.258 19.8191 156.508 18.8041 156.508C18.3043 156.508 17.8698 156.434 17.5007 156.288C17.124 156.142 16.8125 155.942 16.5665 155.689C16.3204 155.435 16.1359 155.135 16.0128 154.789C15.8898 154.443 15.8283 154.066 15.8283 153.659ZM16.6588 153.659C16.6588 154.205 16.801 154.635 17.0855 154.95C17.37 155.266 17.7929 155.454 18.3543 155.516L18.3543 152.067H18.3427C17.7891 152.067 17.37 152.217 17.0855 152.517C16.801 152.817 16.6588 153.197 16.6588 153.659Z" fill="#404040"/>
<path d="M16.7972 146.058V148.295L17.2355 148.307C17.9506 148.33 18.5619 148.372 19.0694 148.434C19.5692 148.495 19.9883 148.572 20.3266 148.664C20.6649 148.757 20.9302 148.861 21.1224 148.976C21.3147 149.091 21.4608 149.214 21.5607 149.345C21.653 149.476 21.7107 149.61 21.7338 149.749C21.7645 149.887 21.7799 150.025 21.7799 150.164C21.7799 150.341 21.7607 150.495 21.7222 150.625H20.6957C20.7188 150.525 20.7303 150.429 20.7303 150.337C20.7303 150.237 20.7226 150.145 20.7072 150.06C20.6842 149.968 20.6303 149.883 20.5457 149.806C20.4612 149.722 20.3381 149.649 20.1767 149.587C20.0075 149.518 19.7768 149.456 19.4846 149.403C19.1847 149.349 18.8118 149.307 18.3658 149.276C17.9198 149.237 17.3777 149.207 16.7395 149.183L15.9436 149.16L15.9436 145.1H21.7107V146.058H16.7972Z" fill="#404040"/>
<path d="M15.9436 143.251V142.294H18.3543V141.256L15.9436 139.445V138.349L18.6657 140.46L21.7107 137.968V139.18L19.1732 141.256V142.294L21.7107 142.294V143.251H15.9436Z" fill="#404040"/>
<path d="M16.3819 136.727C16.2358 136.535 16.109 136.274 16.0013 135.943C15.886 135.605 15.8283 135.212 15.8283 134.766C15.8283 134.397 15.8629 134.067 15.9321 133.774C16.0013 133.482 16.1167 133.236 16.2781 133.036C16.4396 132.829 16.6549 132.671 16.924 132.563C17.1855 132.456 17.5123 132.402 17.9044 132.402H21.7107V133.313H20.7303C21.0532 133.467 21.3147 133.717 21.5146 134.063C21.7068 134.401 21.803 134.801 21.803 135.262C21.803 135.839 21.653 136.3 21.3531 136.646C21.0532 136.992 20.6073 137.166 20.0152 137.166C19.6999 137.166 19.4385 137.112 19.2309 137.004C19.0156 136.889 18.8464 136.727 18.7234 136.52C18.5926 136.312 18.5042 136.058 18.4581 135.758C18.4042 135.458 18.3773 135.116 18.3773 134.732V133.359H17.916C17.6699 133.359 17.4661 133.394 17.3047 133.463C17.1432 133.532 17.0163 133.628 16.924 133.751C16.8241 133.874 16.7549 134.024 16.7164 134.201C16.678 134.37 16.6588 134.559 16.6588 134.766C16.6588 135.22 16.7587 135.612 16.9586 135.943C17.1586 136.266 17.42 136.527 17.743 136.727H16.3819ZM20.9148 135.02C20.9148 134.728 20.8725 134.482 20.788 134.282C20.7034 134.074 20.6034 133.905 20.4881 133.774C20.365 133.644 20.2382 133.548 20.1074 133.486C19.9767 133.417 19.8614 133.375 19.7614 133.359H19.1386V134.697C19.1386 135.22 19.1924 135.601 19.3001 135.839C19.4077 136.07 19.6269 136.185 19.9575 136.185C20.242 136.185 20.4727 136.089 20.6496 135.897C20.8264 135.705 20.9148 135.412 20.9148 135.02Z" fill="#404040"/>
<path d="M14.8018 126.071L15.9436 127.881H14.894L13.5561 125.805L13.5561 125.113L21.7107 125.113V126.071L14.8018 126.071Z" fill="#404040"/>
<circle cx="244.687" cy="45.3123" r="41.1932" fill="#5BD595"/>
<g opacity="0.5">
<rect x="244.688" y="65.9082" width="1.64773" height="20.5966" fill="white"/>
<rect x="244.688" y="46.1367" width="1.64773" height="9.0625" fill="white"/>
<rect x="244.688" width="4.11932" height="45.3125" fill="white"/>
<rect x="244.688" y="41.1934" width="45.3125" height="4.11932" fill="white"/>
<rect x="203.494" y="44.4883" width="86.5057" height="1.64773" fill="white"/>
</g>
<path d="M290 41.1932C290 35.7836 288.934 30.427 286.864 25.4292C284.794 20.4314 281.76 15.8903 277.934 12.0652C274.109 8.24006 269.568 5.20579 264.57 3.13564C259.573 1.06549 254.216 -2.3646e-07 248.806 0V41.1932H290Z" fill="#5BD595"/>
<path d="M220.257 57.7678H216.57V63.5513H215.334V56.6309H221.493V63.5513H220.257V57.7678Z" fill="white"/>
<path d="M225.296 63.6601C224.907 63.6601 224.558 63.6073 224.248 63.5019C223.939 63.3898 223.672 63.2251 223.448 63.0076C223.224 62.7901 223.052 62.5198 222.934 62.1969C222.815 61.8739 222.756 61.495 222.756 61.06C222.756 60.6315 222.818 60.2592 222.943 59.9428C223.069 59.6198 223.243 59.3529 223.467 59.142C223.691 58.9245 223.962 58.763 224.278 58.6576C224.594 58.5521 224.947 58.4994 225.336 58.4994C225.718 58.4994 226.064 58.5554 226.374 58.6675C226.69 58.7795 226.957 58.9443 227.175 59.1618C227.399 59.3793 227.57 59.6495 227.689 59.9725C227.807 60.2954 227.867 60.6711 227.867 61.0995C227.867 61.5279 227.804 61.9036 227.679 62.2265C227.554 62.5429 227.379 62.8065 227.155 63.0175C226.931 63.2284 226.661 63.3898 226.344 63.5019C226.028 63.6073 225.679 63.6601 225.296 63.6601ZM223.932 61.0896C223.932 61.6367 224.054 62.0354 224.298 62.2859C224.542 62.5297 224.881 62.6517 225.316 62.6517C225.758 62.6517 226.097 62.5264 226.334 62.276C226.572 62.0189 226.69 61.6268 226.69 61.0995V61.0698C226.69 60.5228 226.565 60.1273 226.315 59.8835C226.071 59.633 225.731 59.5078 225.296 59.5078C224.855 59.5144 224.515 59.6462 224.278 59.9032C224.047 60.1537 223.932 60.5393 223.932 61.06V61.0896Z" fill="white"/>
<path d="M228.856 62.5034C228.922 62.3254 228.981 62.131 229.034 61.9201C229.093 61.7026 229.143 61.4587 229.182 61.1885C229.222 60.9182 229.251 60.6184 229.271 60.2888C229.291 59.9527 229.301 59.5803 229.301 59.1717V58.6081H233.097V62.5034H233.849V64.8365H232.801V63.5513H229.331V64.8365H228.283V62.5034H228.856ZM230.378 59.7451C230.365 60.3185 230.329 60.826 230.27 61.2676C230.21 61.7026 230.112 62.1145 229.973 62.5034H231.941V59.6264H230.378V59.7451Z" fill="white"/>
<path d="M234.841 58.6081H235.929V59.6363C235.975 59.4979 236.041 59.3628 236.127 59.231C236.219 59.0926 236.334 58.9706 236.473 58.8652C236.618 58.7597 236.789 58.674 236.987 58.6081C237.184 58.5422 237.415 58.5093 237.679 58.5093C237.995 58.5093 238.282 58.5587 238.539 58.6576C238.803 58.7498 239.027 58.8948 239.211 59.0926C239.402 59.2903 239.551 59.544 239.656 59.8538C239.762 60.1636 239.814 60.536 239.814 60.971C239.814 61.4587 239.762 61.8739 239.656 62.2167C239.551 62.5528 239.399 62.8296 239.201 63.0471C239.01 63.258 238.776 63.4129 238.499 63.5118C238.223 63.6106 237.916 63.6601 237.58 63.6601C237.184 63.6601 236.852 63.5744 236.581 63.403C236.318 63.2317 236.123 63.0306 235.998 62.8V65.4594H234.841V58.6081ZM235.998 61.2478C235.998 61.696 236.117 62.042 236.354 62.2859C236.591 62.5231 236.914 62.6418 237.323 62.6418C237.791 62.6418 238.13 62.5198 238.341 62.276C238.552 62.0255 238.658 61.607 238.658 61.0204C238.658 60.48 238.536 60.0977 238.292 59.8736C238.054 59.6495 237.738 59.5375 237.343 59.5375C236.888 59.5375 236.552 59.6561 236.334 59.8934C236.123 60.1306 236.011 60.4569 235.998 60.8721V61.2478Z" fill="white"/>
<path d="M243.871 61.9201H242.725L241.726 63.5513H240.451L241.597 61.7619C241.301 61.6432 241.077 61.4686 240.925 61.2379C240.774 61.0006 240.698 60.7205 240.698 60.3976C240.698 59.778 240.876 59.3265 241.232 59.0431C241.588 58.7531 242.151 58.6081 242.922 58.6081H245.028V63.5513H243.871V61.9201ZM242.952 59.6264C242.563 59.6264 242.283 59.6825 242.112 59.7945C241.94 59.9065 241.855 60.1076 241.855 60.3976C241.861 60.6019 241.934 60.7601 242.072 60.8721C242.21 60.9776 242.431 61.0303 242.734 61.0303H243.871V59.6264H242.952Z" fill="white"/>
<path d="M246.456 62.5034C246.522 62.3254 246.582 62.131 246.634 61.9201C246.694 61.7026 246.743 61.4587 246.783 61.1885C246.822 60.9182 246.852 60.6184 246.872 60.2888C246.891 59.9527 246.901 59.5803 246.901 59.1717V58.6081H250.698V62.5034H251.449V64.8365H250.401V63.5513H246.931V64.8365H245.883V62.5034H246.456ZM247.979 59.7451C247.966 60.3185 247.929 60.826 247.87 61.2676C247.811 61.7026 247.712 62.1145 247.574 62.5034H249.541V59.6264H247.979V59.7451Z" fill="white"/>
<path d="M255.273 61.8113C255.102 61.9102 254.904 61.9827 254.68 62.0288C254.456 62.075 254.229 62.098 253.998 62.098C253.405 62.098 252.94 61.9596 252.604 61.6828C252.268 61.406 252.1 60.971 252.1 60.3778V58.6081H253.256V60.1998C253.256 60.4964 253.336 60.7172 253.494 60.8622C253.659 61.0006 253.896 61.0698 254.206 61.0698C254.614 61.0698 254.97 60.994 255.273 60.8425V58.6081H256.43V63.5513H255.273V61.8113Z" fill="white"/>
<path d="M257.839 58.6081H258.986V61.9596L261.359 58.6081H262.456V63.5513H261.309V60.1603L258.936 63.5513H257.839V58.6081Z" fill="white"/>
<path d="M263.863 58.6081H265.02V60.536H265.821L267.205 58.6081H268.49L266.76 60.9413L268.767 63.5513H267.363L265.811 61.5048H265.02V63.5513H263.863V58.6081Z" fill="white"/>
<path d="M269.618 58.6081H270.765V61.9596L273.137 58.6081H274.235V63.5513H273.088V60.1603L270.715 63.5513H269.618V58.6081Z" fill="white"/>
<defs>
<clipPath id="clip0">
<rect width="32.1307" height="32.1307" fill="white" transform="translate(229.033 223.268)"/>
</clipPath>
<clipPath id="clip1">
<rect width="32.1307" height="32.1307" fill="white" transform="translate(26.3633 223.268)"/>
</clipPath>
</defs>
</svg>
