<svg width="291" height="161" viewBox="0 0 291 161" fill="none" xmlns="http://www.w3.org/2000/svg">
<path d="M22.1103 32.0955L23.7809 30.9238C24.2556 30.5909 24.8902 30.5996 25.3555 30.9456C25.8237 31.2936 26.4629 31.3001 26.938 30.9617L30.5649 28.3789C30.9036 28.1376 31.3092 28.008 31.725 28.008H33.7659C34.1804 28.008 34.5847 27.8792 34.9228 27.6394L35.1561 27.474C35.6849 27.099 35.9992 26.4909 35.9992 25.8426V17.5838C35.9992 16.9429 36.3064 16.3407 36.8254 15.9645L37.9464 15.1519C38.2878 14.9045 38.6986 14.7713 39.1202 14.7713H46.0713C46.4821 14.7713 46.8829 14.6447 47.2193 14.4089L51.2516 11.5821C51.9401 11.0995 52.857 11.099 53.546 11.5809L56.8269 13.8757C57.1629 14.1107 57.5631 14.2367 57.9732 14.2367H64.9042C65.3196 14.2367 65.7246 14.1074 66.0631 13.8668L68.7979 11.9224C69.1962 11.6392 69.197 11.048 68.7994 10.7638C68.4008 10.4789 68.4028 9.88566 68.8034 9.60345L70.0165 8.74876C70.2638 8.57452 70.5517 8.46679 70.8526 8.43591L75.6941 7.93906C76.0354 7.90403 76.362 7.78175 76.6425 7.58399L85.4608 1.36552C85.7981 1.12768 86.2007 1 86.6134 1H90.2911C90.7029 1 91.1047 1.12713 91.4416 1.36403L91.6392 1.50303C92.1718 1.87756 92.4887 2.4879 92.4887 3.13899V14.9682C92.4887 15.6141 92.1768 16.2203 91.6511 16.5957L89.0043 18.4861C88.6652 18.7284 88.2587 18.8586 87.8419 18.8586H85.802C85.3879 18.8586 84.9839 18.73 84.6459 18.4906L81.514 16.272C80.9106 15.8445 80.9068 14.9503 81.5065 14.5177L81.6512 14.4134C82.1783 14.0332 82.1766 13.2479 81.6479 12.8699C81.3182 12.6342 80.8752 12.6337 80.5449 12.8685L77.8695 14.7706C77.3419 15.1458 77.0284 15.7532 77.0284 16.4007V16.6648C77.0284 17.3288 76.6988 17.9496 76.1487 18.3216L74.6533 19.3328C74.1032 19.7047 73.7736 20.3255 73.7736 20.9895V21.2852C73.7736 21.9326 74.087 22.54 74.6146 22.9151L78.0728 25.3742C78.4113 25.6149 78.8164 25.7442 79.2318 25.7442H81.2041C81.6034 25.7442 81.9935 25.6247 82.3242 25.4011L84.6579 23.8235C84.9887 23.6 85.3788 23.4805 85.778 23.4805H89.4396C89.8554 23.4805 90.261 23.3508 90.5997 23.1096L91.3984 22.5408C92.0893 22.0488 93.0153 22.0461 93.7091 22.5339L94.2055 22.883C94.7381 23.2576 95.055 23.8679 95.055 24.519V24.929C95.055 25.4395 94.8042 25.9174 94.3842 26.2076C93.4948 26.8218 93.4887 28.1339 94.3723 28.7565L94.5248 28.8639C94.8087 29.064 95.1475 29.1713 95.4948 29.1713H99.2862C99.6489 29.1713 100.003 29.2822 100.301 29.4891L100.744 29.7971C101.54 30.3497 101.547 31.5241 100.758 32.086C99.9735 32.6443 99.9742 33.8092 100.759 34.3665L105.287 37.5823C105.966 38.0644 106.873 38.0755 107.563 37.6102L108.381 37.0588C108.711 36.8361 109.101 36.7172 109.499 36.7172H111.55C111.956 36.7172 112.353 36.5933 112.688 36.3619L114.438 35.1509C115.073 34.7114 115.913 34.707 116.553 35.1396C116.918 35.3869 117.185 35.7553 117.305 36.18L118.682 41.0323C118.743 41.2502 118.883 41.4379 119.074 41.5599C119.69 41.954 120.499 41.5113 120.499 40.7796V39.7494C120.499 39.2673 120.732 38.8149 121.125 38.5353L127.159 34.2388C127.483 34.0081 127.916 34.0001 128.248 34.2186C128.813 34.5898 128.83 35.4115 128.282 35.8064L125.273 37.9736C124.751 38.3495 124.442 38.9534 124.442 39.5965V40.0873C124.442 40.4391 124.611 40.7697 124.895 40.9763C125.503 41.4172 125.499 42.3243 124.888 42.7599L122.027 44.7969C121.5 45.1722 121.187 45.7791 121.187 46.426V48.9528C121.187 49.583 120.89 50.1763 120.386 50.5539L120.124 50.7498C119.778 51.0088 119.358 51.1487 118.926 51.1487H116.93C116.523 51.1487 116.126 51.2729 115.791 51.5046L114.566 52.3535C113.412 53.1522 113.418 54.859 114.577 55.6497L114.981 55.9257C115.314 56.1524 115.707 56.2737 116.109 56.2737H118.178C118.588 56.2737 118.989 56.1471 119.326 55.9113L123.988 52.643C124.324 52.4071 124.725 52.2806 125.136 52.2806H127.225C127.653 52.2806 128.071 52.143 128.415 51.8881L129.453 51.1196C129.963 50.7424 130.263 50.146 130.263 49.5121V47.0928V43.5128C130.263 42.8599 130.582 42.2481 131.117 41.8739L131.577 41.5519C132.271 41.0663 133.196 41.0709 133.886 41.5633L135.591 42.7812C136.281 43.2737 137.206 43.2782 137.9 42.7926L138.36 42.4707C138.895 42.0965 139.214 41.4847 139.214 40.8318V39.4775C139.214 38.8306 139.527 38.2237 140.054 37.8484L140.522 37.5151C141.218 37.0191 142.153 37.0208 142.848 37.5193L143.811 38.2103C144.506 38.7089 145.44 38.7106 146.137 38.2146L150.147 35.3588C150.486 35.1176 150.892 34.9879 151.308 34.9879H158.27C158.679 34.9879 159.079 34.8622 159.415 34.6276L161.669 33.0531C162.005 32.8185 162.405 32.6927 162.815 32.6927H168.003C168.413 32.6927 168.812 32.567 169.148 32.3325L170.683 31.2609C171.018 31.0263 171.418 30.9006 171.828 30.9006H180.413C180.832 30.9006 181.24 31.0318 181.579 31.2757L183.509 32.6602C184.032 33.0359 184.343 33.6408 184.343 34.2852V35.9162C184.343 36.4185 184.587 36.8893 184.998 37.1785L185.417 37.474C186.074 37.9366 186.083 38.9067 185.436 39.3819C185.234 39.53 184.99 39.6098 184.74 39.6098H182.391C182.032 39.6098 181.682 39.7224 181.391 39.9316C180.431 40.62 180.438 42.049 181.403 42.7287L187.8 47.2313C188.137 47.4685 188.539 47.5959 188.951 47.5959H192.758C193.148 47.5959 193.53 47.4816 193.856 47.2671L195.391 46.2582C195.717 46.0438 196.099 45.9295 196.49 45.9295H198.417C198.83 45.9295 199.233 46.0575 199.571 46.2958L208.54 52.6302C209.231 53.1181 210.155 53.1186 210.846 52.6315L231.815 37.8595C232.308 37.512 232.964 37.5028 233.467 37.8364C233.965 38.1669 234.614 38.1611 235.106 37.8217L235.385 37.63C235.712 37.4041 236.101 37.2832 236.499 37.2832H245.207C245.619 37.2832 246.021 37.156 246.357 36.9191L249.391 34.786C249.728 34.5491 250.129 34.422 250.541 34.422H252.534C252.944 34.422 253.343 34.5476 253.679 34.7819L256.112 36.4797C256.803 36.9619 257.722 36.9593 258.41 36.4733L276.336 23.8153C276.673 23.577 277.076 23.449 277.489 23.449H279.567C279.981 23.449 280.384 23.5774 280.722 23.8166L283.49 25.7753C284.019 26.1502 284.334 26.7588 284.334 27.4077V27.62C284.334 28.2765 284.012 28.8912 283.472 29.2647L283.374 29.3325C282.23 30.124 282.223 31.8125 283.361 32.613L289.15 36.6857C289.682 37.0603 289.999 37.6705 289.999 38.3214V39.7046C289.999 40.3549 289.683 40.9646 289.151 41.3392L285.247 44.0915C284.679 44.4913 284.36 45.1565 284.403 45.8491L285.017 55.8198C285.059 56.5123 284.74 57.1774 284.173 57.5772L282.349 58.8636C282.011 59.1014 281.609 59.2291 281.196 59.2291H279.121C278.725 59.2291 278.337 59.3469 278.008 59.5674L277.52 59.8941C277.13 60.1551 276.845 60.5448 276.713 60.995L274.787 67.59C274.545 68.4174 274.861 69.3066 275.57 69.7964L276.493 70.4341C276.751 70.6123 277.048 70.7273 277.358 70.7699L280.526 71.2039C280.848 71.248 281.155 71.3701 281.419 71.5596L284.094 73.4759C284.686 73.9002 285.001 74.613 284.915 75.3365L284.371 79.9362C284.329 80.2936 284.483 80.646 284.774 80.858C285.326 81.2602 285.318 82.0858 284.759 82.4781L281.868 84.5079C281.334 84.8824 281.017 85.4932 281.017 86.1449V86.3901C281.017 87.043 281.335 87.6548 281.87 88.029L285.108 90.2933C285.643 90.6675 285.961 91.2793 285.961 91.9322V92.1883C285.961 92.8514 285.633 93.4714 285.084 93.8436L284.057 94.5403C283.67 94.8027 283.387 95.1923 283.257 95.6416L282.216 99.2541C281.969 100.11 281.185 100.7 280.294 100.7H278.294H272.565C272.139 100.7 271.724 100.564 271.381 100.312L270.282 99.5053L269.291 98.7736C268.939 98.514 268.682 98.1463 268.559 97.7267L265.475 87.1978C265.406 86.962 265.262 86.7552 265.065 86.6087C264.445 86.1479 264.46 85.2151 265.094 84.7743L268.848 82.1645C269.996 81.3668 269.992 79.6681 268.841 78.8753L267.935 78.2511L267.212 77.7464C266.322 77.1245 266.329 75.8038 267.226 75.1917C267.65 74.9026 267.904 74.4227 267.904 73.9096V62.9152C267.904 62.3607 267.626 61.8431 267.164 61.5366C266.607 61.1674 265.884 61.169 265.329 61.5406L264.691 61.9678C264.137 62.3391 263.804 62.9623 263.804 63.6295V70.8565C263.804 71.5103 263.484 72.1228 262.948 72.4969L259.746 74.7301C259.21 75.1041 258.89 75.7167 258.89 76.3705V80.0406C258.89 80.6926 258.573 81.3037 258.039 81.678L256.371 82.8475C255.895 83.1817 255.258 83.1729 254.79 82.8256C254.323 82.4784 253.686 82.4695 253.21 82.8034L239.244 92.5884C238.709 92.9627 238.391 93.5741 238.391 94.2264V94.5376C238.391 95.1882 238.075 95.798 237.543 96.1727L227.405 103.314C226.421 104.007 226.408 105.461 227.378 106.173L228.157 106.744C228.742 107.174 228.735 108.051 228.142 108.47L227.998 108.572C227.467 108.949 227.47 109.739 228.005 110.111C228.323 110.332 228.745 110.335 229.067 110.119L229.873 109.575C230.556 109.115 231.451 109.12 232.129 109.589L239.188 114.472C239.728 114.846 240.05 115.461 240.05 116.117V120.854V126.717C240.05 127.359 240.359 127.962 240.88 128.338L242.444 129.467C242.965 129.843 243.274 130.447 243.274 131.089V134.765C243.274 135.408 242.965 136.011 242.444 136.387L240.88 137.516C240.359 137.892 240.05 138.496 240.05 139.138V149.804C240.05 150.45 239.738 151.056 239.213 151.431L236.632 153.276C236.215 153.575 235.698 153.701 235.189 153.629L232.538 153.255C232.036 153.184 231.525 153.306 231.11 153.597L230.78 153.829C230.344 154.135 230.047 154.603 229.957 155.129L229.546 157.531C229.458 158.045 229.174 158.503 228.753 158.81L227.306 159.865C226.654 160.34 225.772 160.352 225.107 159.895L224.057 159.171C223.468 158.766 223.467 157.896 224.055 157.49C224.636 157.088 224.644 156.232 224.07 155.82L222.011 154.34C221.488 153.964 221.178 153.36 221.178 152.716V148.957C221.178 148.292 221.509 147.67 222.061 147.299L223.144 146.568C223.474 146.346 223.864 146.227 224.262 146.227H226.288C226.71 146.227 227.121 146.094 227.462 145.846L228.583 145.034C229.102 144.658 229.409 144.055 229.409 143.414V136.732C229.409 136.554 229.324 136.386 229.181 136.281C228.872 136.054 228.877 135.592 229.19 135.371L229.358 135.253C229.753 134.975 229.76 134.392 229.372 134.104L228.603 133.535C228.114 133.173 227.447 133.169 226.953 133.525L224.056 135.614C223.364 136.114 222.432 136.119 221.734 135.627L216.299 131.796C215.767 131.421 215.451 130.811 215.451 130.161V129.975C215.451 129.323 215.133 128.711 214.599 128.337L210.272 125.304C209.936 125.068 209.535 124.941 209.124 124.941H207.104C206.691 124.941 206.288 124.813 205.951 124.575L196.127 117.637C195.44 117.152 194.524 117.148 193.834 117.627L191.526 119.226C191.151 119.486 190.876 119.867 190.747 120.305L189.635 124.084C189.39 124.914 189.708 125.807 190.421 126.297L190.477 126.335C191.202 126.833 191.516 127.747 191.252 128.586L188.612 136.946C188.482 137.358 188.222 137.717 187.871 137.969L187.153 138.484C186.463 138.979 185.536 138.984 184.84 138.498L182.211 136.659C181.519 136.175 180.597 136.178 179.908 136.667L173.264 141.381C172.571 141.873 171.642 141.872 170.948 141.38L170.729 141.224C170.02 140.72 169.068 140.732 168.372 141.253L167.508 141.9C166.816 142.418 165.869 142.433 165.161 141.936L156.494 135.859C156.002 135.515 155.348 135.513 154.855 135.856C154.369 136.194 153.725 136.198 153.235 135.866L152.776 135.554C152.175 135.147 152.159 134.269 152.743 133.839C153.013 133.642 153.172 133.327 153.172 132.993V132.29C153.172 131.644 152.86 131.038 152.335 130.663L148.29 127.771L142.065 123.372C141.37 122.881 140.44 122.883 139.747 123.378L138.486 124.28C137.961 124.656 137.649 125.262 137.649 125.907V130.739C137.649 131.383 137.339 131.987 136.817 132.363L135.637 133.211C135.297 133.456 134.889 133.588 134.469 133.588H130.913C130.491 133.588 130.079 133.454 129.737 133.205L128.974 132.65C127.997 131.94 128.013 130.478 129.005 129.788L129.061 129.748C130.029 129.075 130.04 127.647 129.082 126.959C128.792 126.751 128.444 126.639 128.087 126.639H125.947C125.518 126.639 125.101 126.501 124.757 126.247L124.07 125.738C123.377 125.225 122.432 125.214 121.727 125.711L116.69 129.265C116.007 129.747 115.097 129.753 114.407 129.281L111.934 127.586C111.601 127.358 111.207 127.236 110.804 127.236H103.756C103.389 127.236 103.032 127.121 102.735 126.907C101.763 126.205 101.77 124.756 102.748 124.064L104.398 122.899C105.398 122.192 105.399 120.709 104.4 120.002C104.142 119.819 103.839 119.708 103.524 119.681L97.0947 119.139C96.7427 119.109 96.4048 118.986 96.1154 118.784L95.0311 118.024C94.4969 117.65 94.1787 117.038 94.1787 116.386V111.571C94.1787 110.925 94.4911 110.318 95.0174 109.943L100.073 106.337C101.197 105.535 101.19 103.862 100.058 103.07L97.2299 101.093C96.8939 100.858 96.4938 100.732 96.0837 100.732H94.0343C93.6193 100.732 93.2145 100.602 92.8762 100.362L89.3247 97.8395C88.7965 97.4644 88.4828 96.8567 88.4828 96.209V92.4717C88.4828 91.816 88.1615 91.202 87.6228 90.8283L82.4248 87.2226C82.09 86.9904 81.6923 86.866 81.2849 86.866H79.3217C78.9088 86.866 78.506 86.7381 78.1686 86.5L70.466 81.0645C69.9722 80.716 69.3125 80.7155 68.8181 81.0632L68.3835 81.3688C67.7798 81.7934 67.7836 82.6894 68.3908 83.1088C68.998 83.5282 69.0019 84.4241 68.3984 84.8487L60.3459 90.5141C59.9439 90.797 59.4518 90.9219 58.9635 90.8649L54.5202 90.347C54.2165 90.3116 53.9269 90.1991 53.6789 90.0203C52.6734 89.295 52.6896 87.7927 53.7106 87.0894L54.0367 86.8647C54.5785 86.4915 54.9021 85.8756 54.9021 85.2177V83.9039C54.9021 83.257 54.5892 82.6501 54.0622 82.2748L52.8792 81.4323C52.585 81.2228 52.2396 81.0969 51.8796 81.0679L45.4882 80.5531C45.1768 80.5281 44.8777 80.4199 44.6223 80.2399C43.6366 79.5455 43.634 78.0849 44.6173 77.387L46.0388 76.378C47.1689 75.5759 47.1604 73.8954 46.0224 73.1047L45.0125 72.403L36.3344 66.3501C35.6446 65.869 34.7276 65.8708 34.0397 66.3546L31.9665 67.8125C31.4339 68.1871 31.117 68.7974 31.117 69.4485V71.8056V75.4134C31.117 76.0684 30.7963 76.6818 30.2585 77.0556L25.8334 80.1315C25.5036 80.3608 25.1124 80.4854 24.7107 80.4892L22.6461 80.5086C22.2128 80.5126 21.7899 80.3759 21.441 80.1188L20.7904 79.6395C20.098 79.1294 19.1571 79.119 18.4536 79.6137L9.50825 85.9045C9.17139 86.1414 8.7696 86.2686 8.35777 86.2686H6.29641C5.89057 86.2686 5.49433 86.1451 5.16033 85.9146L3.91932 85.058C2.7782 84.2704 2.76524 82.5888 3.89408 81.7837L4.83454 81.113C5.3608 80.7376 5.67321 80.1311 5.67321 79.4847V76.9381C5.67321 76.2834 5.35272 75.6701 4.81519 75.2962L4.09013 74.7919C3.55261 74.418 3.23212 73.8048 3.23212 73.15V66.0171C3.23212 65.3684 2.91753 64.76 2.38822 64.3851L1.63491 63.8514C1.1056 63.4765 0.791016 62.8681 0.791016 62.2194V58.3051C0.791016 57.2005 1.68645 56.3051 2.79102 56.3051H3.70232C3.94588 56.3051 4.18316 56.2278 4.37999 56.0843L4.88258 55.718C5.27113 55.4348 5.26736 54.854 4.87516 54.5758C4.48296 54.2977 4.47919 53.7168 4.86775 53.4336L5.37034 53.0673C5.56716 52.9239 5.80444 52.8466 6.048 52.8466H15.3876C15.4834 52.8466 15.5791 52.8397 15.6739 52.826L19.238 52.3106C19.5171 52.2702 19.7827 52.1645 20.0133 52.0021L20.296 51.8029C21.165 51.1907 21.1705 49.9042 20.3069 49.2844C19.9024 48.9942 19.6626 48.5269 19.6626 48.0291V42.9148C19.6626 42.3011 19.9601 41.7255 20.4606 41.3705C20.9612 41.0155 21.2587 40.4399 21.2587 39.8262V33.7329C21.2587 33.0809 21.5765 32.4699 22.1103 32.0955Z" fill="#BBDFFD"/>
<path d="M240.906 108.747L242.431 107.641C242.925 107.282 243.583 107.245 244.114 107.547C244.601 107.824 244.901 108.34 244.901 108.9V109.413C244.901 110.079 245.232 110.701 245.784 111.073L247.411 112.167C247.973 112.545 248.306 113.182 248.295 113.859L248.236 117.468C248.225 118.13 248.543 118.755 249.085 119.137L255.235 123.459C255.826 123.874 255.825 124.75 255.234 125.165C254.956 125.36 254.791 125.678 254.791 126.018V126.727C254.791 127.361 254.481 127.957 253.961 128.321C253.441 128.686 253.132 129.281 253.132 129.916V130.343C253.132 130.859 253.383 131.343 253.806 131.641L253.964 131.751C254.781 132.326 254.786 133.536 253.973 134.117C253.47 134.478 252.793 134.478 252.289 134.12L247.432 130.664C246.904 130.289 246.591 129.682 246.591 129.035V125.3C246.591 124.679 246.294 124.096 245.793 123.731C245.291 123.365 244.995 122.782 244.995 122.162V121.899C244.995 121.244 244.674 120.631 244.137 120.257L243.412 119.753C242.874 119.379 242.554 118.766 242.554 118.111V116.829V114.424C242.554 113.765 242.229 113.148 241.686 112.775L240.949 112.269C240.406 111.896 240.081 111.279 240.081 110.62V110.366C240.081 109.725 240.388 109.124 240.906 108.747Z" fill="#BBDFFD"/>
<path d="M271.155 127.775L273.783 125.956C274.116 125.725 274.112 125.232 273.776 125.007C273.681 124.944 273.57 124.91 273.456 124.91H270.881C270.532 124.91 270.191 125.017 269.904 125.216L269.55 125.463C268.749 126.02 268.744 127.203 269.54 127.767C270.023 128.109 270.669 128.113 271.155 127.775Z" fill="#BBDFFD"/>
<path d="M275.267 121.436L276.322 120.702C276.614 120.498 276.621 120.068 276.335 119.856C276.246 119.789 276.137 119.753 276.025 119.753H272.951C272.844 119.753 272.738 119.786 272.649 119.847C272.338 120.059 272.338 120.518 272.648 120.731L273.681 121.44C274.16 121.769 274.791 121.767 275.267 121.436Z" fill="#BBDFFD"/>
<path d="M276.906 115.719L280.331 113.351C280.658 113.126 280.675 112.65 280.366 112.401C280.26 112.317 280.129 112.27 279.994 112.27H277.532C277.131 112.27 276.74 112.391 276.408 112.616L275.297 113.371C274.484 113.923 274.463 115.113 275.255 115.695C275.744 116.054 276.407 116.064 276.906 115.719Z" fill="#BBDFFD"/>
<path d="M280.715 109.528L283.791 107.41C284.457 106.951 284.45 105.966 283.778 105.516C283.59 105.389 283.368 105.322 283.141 105.322H280.836C280.424 105.322 280.022 105.449 279.685 105.686L276.616 107.847C275.975 108.298 275.984 109.25 276.633 109.689C276.818 109.814 277.036 109.881 277.26 109.881H279.581C279.986 109.881 280.382 109.758 280.715 109.528Z" fill="#BBDFFD"/>
<path d="M212.992 41.915L215.452 40.1678C216.247 39.6032 216.246 38.4227 215.451 37.859C214.963 37.5136 214.311 37.5117 213.821 37.8542L211.349 39.5834C210.541 40.1482 210.536 41.3423 211.339 41.914C211.834 42.2663 212.497 42.2667 212.992 41.915Z" fill="#BBDFFD"/>
<path d="M221.194 33.8323L219.558 32.669C218.769 32.1084 218.762 30.94 219.543 30.3692C220.034 30.0103 220.699 30.0048 221.196 30.3555L222.837 31.5128C223.634 32.0754 223.64 33.2558 222.849 33.8267C222.355 34.1826 221.69 34.1849 221.194 33.8323Z" fill="#BBDFFD"/>
<path d="M216.014 31.3236L213.525 29.5923C213.19 29.3592 212.791 29.2342 212.383 29.2342H210.32C209.912 29.2342 209.513 29.3592 209.178 29.5923L208.11 30.3353C207.572 30.7091 207.252 31.3224 207.252 31.9772V34.4863C207.252 35.1535 207.584 35.7767 208.139 36.148L208.437 36.3475C208.766 36.568 209.153 36.6858 209.55 36.6858H211.644C211.983 36.6858 212.315 36.5834 212.596 36.3919L213.415 35.8335C214.025 35.4172 214.013 34.5134 213.392 34.1131L213.29 34.0472C212.741 33.6931 212.708 32.9024 213.225 32.5029C213.56 32.2433 214.028 32.2391 214.368 32.4925L214.893 32.8825C215.241 33.1416 215.719 33.135 216.06 32.8664C216.567 32.4671 216.544 31.6919 216.014 31.3236Z" fill="#BBDFFD"/>
<path d="M172.517 25.3894L176.622 22.5224C177.311 22.0406 178.229 22.042 178.917 22.5261L179.662 23.0497C180.057 23.3275 180.338 23.7387 180.453 24.2076L180.68 25.1268C180.87 25.8996 180.574 26.7107 179.931 27.1795C179.585 27.4315 179.167 27.5634 178.739 27.5553L173.143 27.4487C172.916 27.4444 172.696 27.3718 172.51 27.2403C171.871 26.7873 171.875 25.8379 172.517 25.3894Z" fill="#BBDFFD"/>
<path d="M7.13807 33.263L3.49324 30.5598C3.32029 30.4315 3.16919 30.2761 3.04578 30.0997L1.605 28.0398C1.11754 27.3429 1.12413 26.414 1.62142 25.7241L2.92 23.9225C3.56104 23.0331 4.79853 22.8256 5.69462 23.4571L7.75083 24.9063C7.99405 25.0777 8.19595 25.3012 8.34182 25.5606L9.76836 28.0966C9.85772 28.2555 9.9684 28.4014 10.0973 28.5303L11.2085 29.6415C11.7276 30.1607 11.5697 31.0384 10.9021 31.344C10.6433 31.4625 10.4435 31.6808 10.3482 31.949L10.214 32.3265C9.7638 33.5929 8.2176 34.0637 7.13807 33.263Z" fill="#BBDFFD"/>
<path d="M22.1103 32.0955L23.7809 30.9238C24.2556 30.5909 24.8902 30.5996 25.3555 30.9456C25.8237 31.2936 26.4629 31.3001 26.938 30.9617L30.5649 28.3789C30.9036 28.1376 31.3092 28.008 31.725 28.008H33.7659C34.1804 28.008 34.5847 27.8792 34.9228 27.6394L35.1561 27.474C35.6849 27.099 35.9992 26.4909 35.9992 25.8426V17.5838C35.9992 16.9429 36.3064 16.3407 36.8254 15.9645L37.9464 15.1519C38.2878 14.9045 38.6986 14.7713 39.1202 14.7713H46.0713C46.4821 14.7713 46.8829 14.6447 47.2193 14.4089L51.2516 11.5821C51.9401 11.0995 52.857 11.099 53.546 11.5809L56.8269 13.8757C57.1629 14.1107 57.5631 14.2367 57.9732 14.2367H64.9042C65.3196 14.2367 65.7246 14.1074 66.0631 13.8668L68.7979 11.9224C69.1962 11.6392 69.197 11.048 68.7994 10.7638C68.4008 10.4789 68.4028 9.88566 68.8034 9.60345L70.0165 8.74876C70.2638 8.57452 70.5517 8.46679 70.8526 8.43591L75.6941 7.93906C76.0354 7.90403 76.362 7.78175 76.6425 7.58399L85.4608 1.36552C85.7981 1.12768 86.2007 1 86.6134 1H90.2911C90.7029 1 91.1047 1.12713 91.4416 1.36403L91.6392 1.50303C92.1718 1.87756 92.4887 2.4879 92.4887 3.13899V14.9682C92.4887 15.6141 92.1768 16.2203 91.6511 16.5957L89.0043 18.4861C88.6652 18.7284 88.2587 18.8586 87.8419 18.8586H85.802C85.3879 18.8586 84.9839 18.73 84.6459 18.4906L81.514 16.272C80.9106 15.8445 80.9068 14.9503 81.5065 14.5177L81.6512 14.4134C82.1783 14.0332 82.1766 13.2479 81.6479 12.8699C81.3182 12.6342 80.8752 12.6337 80.5449 12.8685L77.8695 14.7706C77.3419 15.1458 77.0284 15.7532 77.0284 16.4007V16.6648C77.0284 17.3288 76.6988 17.9496 76.1487 18.3216L74.6533 19.3328C74.1032 19.7047 73.7736 20.3255 73.7736 20.9895V21.2852C73.7736 21.9326 74.087 22.54 74.6146 22.9151L78.0728 25.3742C78.4113 25.6149 78.8164 25.7442 79.2318 25.7442H81.2041C81.6034 25.7442 81.9935 25.6247 82.3242 25.4011L84.6579 23.8235C84.9887 23.6 85.3788 23.4805 85.778 23.4805H89.4396C89.8554 23.4805 90.261 23.3508 90.5997 23.1096L91.3984 22.5408C92.0893 22.0488 93.0153 22.0461 93.7091 22.5339L94.2055 22.883C94.7381 23.2576 95.055 23.8679 95.055 24.519V24.929C95.055 25.4395 94.8042 25.9174 94.3842 26.2076C93.4948 26.8218 93.4887 28.1339 94.3723 28.7565L94.5248 28.8639C94.8087 29.064 95.1475 29.1713 95.4948 29.1713H99.2862C99.6489 29.1713 100.003 29.2822 100.301 29.4891L100.744 29.7971C101.54 30.3497 101.547 31.5241 100.758 32.086C99.9735 32.6443 99.9742 33.8092 100.759 34.3665L105.287 37.5823C105.966 38.0644 106.873 38.0755 107.563 37.6102L108.381 37.0588C108.711 36.8361 109.101 36.7172 109.499 36.7172H111.55C111.956 36.7172 112.353 36.5933 112.688 36.3619L114.438 35.1509C115.073 34.7114 115.913 34.707 116.553 35.1396C116.918 35.3869 117.185 35.7553 117.305 36.18L118.682 41.0323C118.743 41.2502 118.883 41.4379 119.074 41.5599C119.69 41.954 120.499 41.5113 120.499 40.7796V39.7494C120.499 39.2673 120.732 38.8149 121.125 38.5353L127.159 34.2388C127.483 34.0081 127.916 34.0001 128.248 34.2186C128.813 34.5898 128.83 35.4115 128.282 35.8064L125.273 37.9736C124.751 38.3495 124.442 38.9534 124.442 39.5965V40.0873C124.442 40.4391 124.611 40.7697 124.895 40.9763C125.503 41.4172 125.499 42.3243 124.888 42.7599L122.027 44.7969C121.5 45.1722 121.187 45.7791 121.187 46.426V48.9528C121.187 49.583 120.89 50.1763 120.386 50.5539L120.124 50.7498C119.778 51.0088 119.358 51.1487 118.926 51.1487H116.93C116.523 51.1487 116.126 51.2729 115.791 51.5046L114.566 52.3535C113.412 53.1522 113.418 54.859 114.577 55.6497L114.981 55.9257C115.314 56.1524 115.707 56.2737 116.109 56.2737H118.178C118.588 56.2737 118.989 56.1471 119.326 55.9113L123.988 52.643C124.324 52.4071 124.725 52.2806 125.136 52.2806H127.225C127.653 52.2806 128.071 52.143 128.415 51.8881L129.453 51.1196C129.963 50.7424 130.263 50.146 130.263 49.5121V47.0928V43.5128C130.263 42.8599 130.582 42.2481 131.117 41.8739L131.577 41.5519C132.271 41.0663 133.196 41.0709 133.886 41.5633L135.591 42.7812C136.281 43.2737 137.206 43.2782 137.9 42.7926L138.36 42.4707C138.895 42.0965 139.214 41.4847 139.214 40.8318V39.4775C139.214 38.8306 139.527 38.2237 140.054 37.8484L140.522 37.5151C141.218 37.0191 142.153 37.0208 142.848 37.5193L143.811 38.2103C144.506 38.7089 145.44 38.7106 146.137 38.2146L150.147 35.3588C150.486 35.1176 150.892 34.9879 151.308 34.9879H158.27C158.679 34.9879 159.079 34.8622 159.415 34.6276L161.669 33.0531C162.005 32.8185 162.405 32.6927 162.815 32.6927H168.003C168.413 32.6927 168.812 32.567 169.148 32.3325L170.683 31.2609C171.018 31.0263 171.418 30.9006 171.828 30.9006H180.413C180.832 30.9006 181.24 31.0318 181.579 31.2757L183.509 32.6602C184.032 33.0359 184.343 33.6408 184.343 34.2852V35.9162C184.343 36.4185 184.587 36.8893 184.998 37.1785L185.417 37.474C186.074 37.9366 186.083 38.9067 185.436 39.3819C185.234 39.53 184.99 39.6098 184.74 39.6098H182.391C182.032 39.6098 181.682 39.7224 181.391 39.9316C180.431 40.62 180.438 42.049 181.403 42.7287L187.8 47.2313C188.137 47.4685 188.539 47.5959 188.951 47.5959H192.758C193.148 47.5959 193.53 47.4816 193.856 47.2671L195.391 46.2582C195.717 46.0438 196.099 45.9295 196.49 45.9295H198.417C198.83 45.9295 199.233 46.0575 199.571 46.2958L208.54 52.6302C209.231 53.1181 210.155 53.1186 210.846 52.6315L231.815 37.8595C232.308 37.512 232.964 37.5028 233.467 37.8364C233.965 38.1669 234.614 38.1611 235.106 37.8217L235.385 37.63C235.712 37.4041 236.101 37.2832 236.499 37.2832H245.207C245.619 37.2832 246.021 37.156 246.357 36.9191L249.391 34.786C249.728 34.5491 250.129 34.422 250.541 34.422H252.534C252.944 34.422 253.343 34.5476 253.679 34.7819L256.112 36.4797C256.803 36.9619 257.722 36.9593 258.41 36.4733L276.336 23.8153C276.673 23.577 277.076 23.449 277.489 23.449H279.567C279.981 23.449 280.384 23.5774 280.722 23.8166L283.49 25.7753C284.019 26.1502 284.334 26.7588 284.334 27.4077V27.62C284.334 28.2765 284.012 28.8912 283.472 29.2647L283.374 29.3325C282.23 30.124 282.223 31.8125 283.361 32.613L289.15 36.6857C289.682 37.0603 289.999 37.6705 289.999 38.3214V39.7046C289.999 40.3549 289.683 40.9646 289.151 41.3392L285.247 44.0915C284.679 44.4913 284.36 45.1565 284.403 45.8491L285.017 55.8198C285.059 56.5123 284.74 57.1774 284.173 57.5772L282.349 58.8636C282.011 59.1014 281.609 59.2291 281.196 59.2291H279.121C278.725 59.2291 278.337 59.3469 278.008 59.5674L277.52 59.8941C277.13 60.1551 276.845 60.5448 276.713 60.995L274.787 67.59C274.545 68.4174 274.861 69.3066 275.57 69.7964L276.493 70.4341C276.751 70.6123 277.048 70.7273 277.358 70.7699L280.526 71.2039C280.848 71.248 281.155 71.3701 281.419 71.5596L284.094 73.4759C284.686 73.9002 285.001 74.613 284.915 75.3365L284.371 79.9362C284.329 80.2936 284.483 80.646 284.774 80.858C285.326 81.2602 285.318 82.0858 284.759 82.4781L281.868 84.5079C281.334 84.8824 281.017 85.4932 281.017 86.1449V86.3901C281.017 87.043 281.335 87.6548 281.87 88.029L285.108 90.2933C285.643 90.6675 285.961 91.2793 285.961 91.9322V92.1883C285.961 92.8514 285.633 93.4714 285.084 93.8436L284.057 94.5403C283.67 94.8027 283.387 95.1923 283.257 95.6416L282.216 99.2541C281.969 100.11 281.185 100.7 280.294 100.7H278.294H272.565C272.139 100.7 271.724 100.564 271.381 100.312L270.282 99.5053L269.291 98.7736C268.939 98.514 268.682 98.1463 268.559 97.7267L265.475 87.1978C265.406 86.962 265.262 86.7552 265.065 86.6087C264.445 86.1479 264.46 85.2151 265.094 84.7743L268.848 82.1645C269.996 81.3668 269.992 79.6681 268.841 78.8753L267.935 78.2511L267.212 77.7464C266.322 77.1245 266.329 75.8038 267.226 75.1917C267.65 74.9026 267.904 74.4227 267.904 73.9096V62.9152C267.904 62.3607 267.626 61.8431 267.164 61.5366C266.607 61.1674 265.884 61.169 265.329 61.5406L264.691 61.9678C264.137 62.3391 263.804 62.9623 263.804 63.6295V70.8565C263.804 71.5103 263.484 72.1228 262.948 72.4969L259.746 74.7301C259.21 75.1041 258.89 75.7167 258.89 76.3705V80.0406C258.89 80.6926 258.573 81.3037 258.039 81.678L256.371 82.8475C255.895 83.1817 255.258 83.1729 254.79 82.8256C254.323 82.4784 253.686 82.4695 253.21 82.8034L239.244 92.5884C238.709 92.9627 238.391 93.5741 238.391 94.2264V94.5376C238.391 95.1882 238.075 95.798 237.543 96.1727L227.405 103.314C226.421 104.007 226.408 105.461 227.378 106.173L228.157 106.744C228.742 107.174 228.735 108.051 228.142 108.47L227.998 108.572C227.467 108.949 227.47 109.739 228.005 110.111C228.323 110.332 228.745 110.335 229.067 110.119L229.873 109.575C230.556 109.115 231.451 109.12 232.129 109.589L239.188 114.472C239.728 114.846 240.05 115.461 240.05 116.117V120.854V126.717C240.05 127.359 240.359 127.962 240.88 128.338L242.444 129.467C242.965 129.843 243.274 130.447 243.274 131.089V134.765C243.274 135.408 242.965 136.011 242.444 136.387L240.88 137.516C240.359 137.892 240.05 138.496 240.05 139.138V149.804C240.05 150.45 239.738 151.056 239.213 151.431L236.632 153.276C236.215 153.575 235.698 153.701 235.189 153.629L232.538 153.255C232.036 153.184 231.525 153.306 231.11 153.597L230.78 153.829C230.344 154.135 230.047 154.603 229.957 155.129L229.546 157.531C229.458 158.045 229.174 158.503 228.753 158.81L227.306 159.865C226.654 160.34 225.772 160.352 225.107 159.895L224.057 159.171C223.468 158.766 223.467 157.896 224.055 157.49C224.636 157.088 224.644 156.232 224.07 155.82L222.011 154.34C221.488 153.964 221.178 153.36 221.178 152.716V148.957C221.178 148.292 221.509 147.67 222.061 147.299L223.144 146.568C223.474 146.346 223.864 146.227 224.262 146.227H226.288C226.71 146.227 227.121 146.094 227.462 145.846L228.583 145.034C229.102 144.658 229.409 144.055 229.409 143.414V136.732C229.409 136.554 229.324 136.386 229.181 136.281C228.872 136.054 228.877 135.592 229.19 135.371L229.358 135.253C229.753 134.975 229.76 134.392 229.372 134.104L228.603 133.535C228.114 133.173 227.447 133.169 226.953 133.525L224.056 135.614C223.364 136.114 222.432 136.119 221.734 135.627L216.299 131.796C215.767 131.421 215.451 130.811 215.451 130.161V129.975C215.451 129.323 215.133 128.711 214.599 128.337L210.272 125.304C209.936 125.068 209.535 124.941 209.124 124.941H207.104C206.691 124.941 206.288 124.813 205.951 124.575L196.127 117.637C195.44 117.152 194.524 117.148 193.834 117.627L191.526 119.226C191.151 119.486 190.876 119.867 190.747 120.305L189.635 124.084C189.39 124.914 189.708 125.807 190.421 126.297L190.477 126.335C191.202 126.833 191.516 127.747 191.252 128.586L188.612 136.946C188.482 137.358 188.222 137.717 187.871 137.969L187.153 138.484C186.463 138.979 185.536 138.984 184.84 138.498L182.211 136.659C181.519 136.175 180.597 136.178 179.908 136.667L173.264 141.381C172.571 141.873 171.642 141.872 170.948 141.38L170.729 141.224C170.02 140.72 169.068 140.732 168.372 141.253L167.508 141.9C166.816 142.418 165.869 142.433 165.161 141.936L156.494 135.859C156.002 135.515 155.348 135.513 154.855 135.856C154.369 136.194 153.725 136.198 153.235 135.866L152.776 135.554C152.175 135.147 152.159 134.269 152.743 133.839C153.013 133.642 153.172 133.327 153.172 132.993V132.29C153.172 131.644 152.86 131.038 152.335 130.663L148.29 127.771L142.065 123.372C141.37 122.881 140.44 122.883 139.747 123.378L138.486 124.28C137.961 124.656 137.649 125.262 137.649 125.907V130.739C137.649 131.383 137.339 131.987 136.817 132.363L135.637 133.211C135.297 133.456 134.889 133.588 134.469 133.588H130.913C130.491 133.588 130.079 133.454 129.737 133.205L128.974 132.65C127.997 131.94 128.013 130.478 129.005 129.788L129.061 129.748C130.029 129.075 130.04 127.647 129.082 126.959C128.792 126.751 128.444 126.639 128.087 126.639H125.947C125.518 126.639 125.101 126.501 124.757 126.247L124.07 125.738C123.377 125.225 122.432 125.214 121.727 125.711L116.69 129.265C116.007 129.747 115.097 129.753 114.407 129.281L111.934 127.586C111.601 127.358 111.207 127.236 110.804 127.236H103.756C103.389 127.236 103.032 127.121 102.735 126.907C101.763 126.205 101.77 124.756 102.748 124.064L104.398 122.899C105.398 122.192 105.399 120.709 104.4 120.002C104.142 119.819 103.839 119.708 103.524 119.681L97.0947 119.139C96.7427 119.109 96.4048 118.986 96.1154 118.784L95.0311 118.024C94.4969 117.65 94.1787 117.038 94.1787 116.386V111.571C94.1787 110.925 94.4911 110.318 95.0174 109.943L100.073 106.337C101.197 105.535 101.19 103.862 100.058 103.07L97.2299 101.093C96.8939 100.858 96.4938 100.732 96.0837 100.732H94.0343C93.6193 100.732 93.2145 100.602 92.8762 100.362L89.3247 97.8395C88.7965 97.4644 88.4828 96.8567 88.4828 96.209V92.4717C88.4828 91.816 88.1615 91.202 87.6228 90.8283L82.4248 87.2226C82.09 86.9904 81.6923 86.866 81.2849 86.866H79.3217C78.9088 86.866 78.506 86.7381 78.1686 86.5L70.466 81.0645C69.9722 80.716 69.3125 80.7155 68.8181 81.0632L68.3835 81.3688C67.7798 81.7934 67.7836 82.6894 68.3908 83.1088C68.998 83.5282 69.0019 84.4241 68.3984 84.8487L60.3459 90.5141C59.9439 90.797 59.4518 90.9219 58.9635 90.8649L54.5202 90.347C54.2165 90.3116 53.9269 90.1991 53.6789 90.0203C52.6734 89.295 52.6896 87.7927 53.7106 87.0894L54.0367 86.8647C54.5785 86.4915 54.9021 85.8756 54.9021 85.2177V83.9039C54.9021 83.257 54.5892 82.6501 54.0622 82.2748L52.8792 81.4323C52.585 81.2228 52.2396 81.0969 51.8796 81.0679L45.4882 80.5531C45.1768 80.5281 44.8777 80.4199 44.6223 80.2399C43.6366 79.5455 43.634 78.0849 44.6173 77.387L46.0388 76.378C47.1689 75.5759 47.1604 73.8954 46.0224 73.1047L45.0125 72.403L36.3344 66.3501C35.6446 65.869 34.7276 65.8708 34.0397 66.3546L31.9665 67.8125C31.4339 68.1871 31.117 68.7974 31.117 69.4485V71.8056V75.4134C31.117 76.0684 30.7963 76.6818 30.2585 77.0556L25.8334 80.1315C25.5036 80.3608 25.1124 80.4854 24.7107 80.4892L22.6461 80.5086C22.2128 80.5126 21.7899 80.3759 21.441 80.1188L20.7904 79.6395C20.098 79.1294 19.1571 79.119 18.4536 79.6137L9.50825 85.9045C9.17139 86.1414 8.7696 86.2686 8.35777 86.2686H6.29641C5.89057 86.2686 5.49433 86.1451 5.16033 85.9146L3.91932 85.058C2.7782 84.2704 2.76524 82.5888 3.89408 81.7837L4.83454 81.113C5.3608 80.7376 5.67321 80.1311 5.67321 79.4847V76.9381C5.67321 76.2834 5.35272 75.6701 4.81519 75.2962L4.09013 74.7919C3.55261 74.418 3.23212 73.8048 3.23212 73.15V66.0171C3.23212 65.3684 2.91753 64.76 2.38822 64.3851L1.63491 63.8514C1.1056 63.4765 0.791016 62.8681 0.791016 62.2194V58.3051C0.791016 57.2005 1.68645 56.3051 2.79102 56.3051H3.70232C3.94588 56.3051 4.18316 56.2278 4.37999 56.0843L4.88258 55.718C5.27113 55.4348 5.26736 54.854 4.87516 54.5758C4.48296 54.2977 4.47919 53.7168 4.86775 53.4336L5.37034 53.0673C5.56716 52.9239 5.80444 52.8466 6.048 52.8466H15.3876C15.4834 52.8466 15.5791 52.8397 15.6739 52.826L19.238 52.3106C19.5171 52.2702 19.7827 52.1645 20.0133 52.0021L20.296 51.8029C21.165 51.1907 21.1705 49.9042 20.3069 49.2844C19.9024 48.9942 19.6626 48.5269 19.6626 48.0291V42.9148C19.6626 42.3011 19.9601 41.7255 20.4606 41.3705C20.9612 41.0155 21.2587 40.4399 21.2587 39.8262V33.7329C21.2587 33.0809 21.5765 32.4699 22.1103 32.0955Z" stroke="#7BBEFD" stroke-width="1.18852"/>
<path d="M240.906 108.747L242.431 107.641C242.925 107.282 243.583 107.245 244.114 107.547C244.601 107.824 244.901 108.34 244.901 108.9V109.413C244.901 110.079 245.232 110.701 245.784 111.073L247.411 112.167C247.973 112.545 248.306 113.182 248.295 113.859L248.236 117.468C248.225 118.13 248.543 118.755 249.085 119.137L255.235 123.459C255.826 123.874 255.825 124.75 255.234 125.165C254.956 125.36 254.791 125.678 254.791 126.018V126.727C254.791 127.361 254.481 127.957 253.961 128.321C253.441 128.686 253.132 129.281 253.132 129.916V130.343C253.132 130.859 253.383 131.343 253.806 131.641L253.964 131.751C254.781 132.326 254.786 133.536 253.973 134.117C253.47 134.478 252.793 134.478 252.289 134.12L247.432 130.664C246.904 130.289 246.591 129.682 246.591 129.035V125.3C246.591 124.679 246.294 124.096 245.793 123.731C245.291 123.365 244.995 122.782 244.995 122.162V121.899C244.995 121.244 244.674 120.631 244.137 120.257L243.412 119.753C242.874 119.379 242.554 118.766 242.554 118.111V116.829V114.424C242.554 113.765 242.229 113.148 241.686 112.775L240.949 112.269C240.406 111.896 240.081 111.279 240.081 110.62V110.366C240.081 109.725 240.388 109.124 240.906 108.747Z" stroke="#7BBEFD" stroke-width="1.18852"/>
<path d="M271.155 127.775L273.783 125.956C274.116 125.725 274.112 125.232 273.776 125.007C273.681 124.944 273.57 124.91 273.456 124.91H270.881C270.532 124.91 270.191 125.017 269.904 125.216L269.55 125.463C268.749 126.02 268.744 127.203 269.54 127.767C270.023 128.109 270.669 128.113 271.155 127.775Z" stroke="#7BBEFD" stroke-width="1.18852"/>
<path d="M275.267 121.436L276.322 120.702C276.614 120.498 276.621 120.068 276.335 119.856C276.246 119.789 276.137 119.753 276.025 119.753H272.951C272.844 119.753 272.738 119.786 272.649 119.847C272.338 120.059 272.338 120.518 272.648 120.731L273.681 121.44C274.16 121.769 274.791 121.767 275.267 121.436Z" stroke="#7BBEFD" stroke-width="1.18852"/>
<path d="M276.906 115.719L280.331 113.351C280.658 113.126 280.675 112.65 280.366 112.401C280.26 112.317 280.129 112.27 279.994 112.27H277.532C277.131 112.27 276.74 112.391 276.408 112.616L275.297 113.371C274.484 113.923 274.463 115.113 275.255 115.695C275.744 116.054 276.407 116.064 276.906 115.719Z" stroke="#7BBEFD" stroke-width="1.18852"/>
<path d="M280.715 109.528L283.791 107.41C284.457 106.951 284.45 105.966 283.778 105.516C283.59 105.389 283.368 105.322 283.141 105.322H280.836C280.424 105.322 280.022 105.449 279.685 105.686L276.616 107.847C275.975 108.298 275.984 109.25 276.633 109.689C276.818 109.814 277.036 109.881 277.26 109.881H279.581C279.986 109.881 280.382 109.758 280.715 109.528Z" stroke="#7BBEFD" stroke-width="1.18852"/>
<path d="M212.992 41.915L215.452 40.1678C216.247 39.6032 216.246 38.4227 215.451 37.859C214.963 37.5136 214.311 37.5117 213.821 37.8542L211.349 39.5834C210.541 40.1482 210.536 41.3423 211.339 41.914C211.834 42.2663 212.497 42.2667 212.992 41.915Z" stroke="#7BBEFD" stroke-width="1.18852"/>
<path d="M221.194 33.8323L219.558 32.669C218.769 32.1084 218.762 30.94 219.543 30.3692C220.034 30.0103 220.699 30.0048 221.196 30.3555L222.837 31.5128C223.634 32.0754 223.64 33.2558 222.849 33.8267C222.355 34.1826 221.69 34.1849 221.194 33.8323Z" stroke="#7BBEFD" stroke-width="1.18852"/>
<path d="M216.014 31.3236L213.525 29.5923C213.19 29.3592 212.791 29.2342 212.383 29.2342H210.32C209.912 29.2342 209.513 29.3592 209.178 29.5923L208.11 30.3353C207.572 30.7091 207.252 31.3224 207.252 31.9772V34.4863C207.252 35.1535 207.584 35.7767 208.139 36.148L208.437 36.3475C208.766 36.568 209.153 36.6858 209.55 36.6858H211.644C211.983 36.6858 212.315 36.5834 212.596 36.3919L213.415 35.8335C214.025 35.4172 214.013 34.5134 213.392 34.1131L213.29 34.0472C212.741 33.6931 212.708 32.9024 213.225 32.5029C213.56 32.2433 214.028 32.2391 214.368 32.4925L214.893 32.8825C215.241 33.1416 215.719 33.135 216.06 32.8664C216.567 32.4671 216.544 31.6919 216.014 31.3236Z" stroke="#7BBEFD" stroke-width="1.18852"/>
<path d="M172.517 25.3894L176.622 22.5224C177.311 22.0406 178.229 22.042 178.917 22.5261L179.662 23.0497C180.057 23.3275 180.338 23.7387 180.453 24.2076L180.68 25.1268C180.87 25.8996 180.574 26.7107 179.931 27.1795C179.585 27.4315 179.167 27.5634 178.739 27.5553L173.143 27.4487C172.916 27.4444 172.696 27.3718 172.51 27.2403C171.871 26.7873 171.875 25.8379 172.517 25.3894Z" stroke="#7BBEFD" stroke-width="1.18852"/>
<path d="M7.13807 33.263L3.49324 30.5598C3.32029 30.4315 3.16919 30.2761 3.04578 30.0997L1.605 28.0398C1.11754 27.3429 1.12413 26.414 1.62142 25.7241L2.92 23.9225C3.56104 23.0331 4.79853 22.8256 5.69462 23.4571L7.75083 24.9063C7.99405 25.0777 8.19595 25.3012 8.34182 25.5606L9.76836 28.0966C9.85772 28.2555 9.9684 28.4014 10.0973 28.5303L11.2085 29.6415C11.7276 30.1607 11.5697 31.0384 10.9021 31.344C10.6433 31.4625 10.4435 31.6808 10.3482 31.949L10.214 32.3265C9.7638 33.5929 8.2176 34.0637 7.13807 33.263Z" stroke="#7BBEFD" stroke-width="1.18852"/>
</svg>
